<svg width="388" height="420" viewBox="0 0 388 420" fill="none" xmlns="http://www.w3.org/2000/svg">
<path d="M132.267 288.444L150.519 278.238L152.787 275.646V271.65L150.627 269.49H140.853L133.995 271.65L131.673 264.198L139.827 261.66H154.299L161.157 268.572V278.292L155.811 284.286L141.771 292.17H161.157V300H132.267V288.444ZM175.667 261.66H190.625L198.131 268.464V293.196L190.625 300H175.667L168.161 293.196V268.464L175.667 261.66ZM187.817 292.71L190.301 290.442V275.376L179.447 292.71H187.817ZM178.475 268.95L175.991 271.218V286.284L186.845 268.95H178.475ZM211.321 275.484L209.809 276.996L204.085 271.272L213.697 261.66H220.285V292.71H225.199V300H207.001V292.71H211.915V275.592L212.617 273.702L212.455 273.594L211.321 275.484ZM240.892 268.41L238.732 270.57V274.566C239.596 275.214 240.244 275.754 241.054 276.402H248.722C249.532 275.754 250.18 275.214 251.044 274.566V270.57L248.884 268.41H240.892ZM241.27 284.232L238.462 286.446V289.956L240.676 292.17H249.1L251.314 289.956V286.446L248.506 284.232H241.27ZM237.274 260.58H252.502L259.414 267.438V277.32L255.688 280.29L259.684 283.422V293.142L252.772 300H237.004L230.092 293.142V283.422L234.088 280.29L230.362 277.32V267.438L237.274 260.58Z" fill="white"/>
<path d="M173.797 165.072L194.199 185.475L214.602 165.072" stroke="white" stroke-width="8.48" stroke-linecap="round"/>
<path d="M194.2 138.793V240.956" stroke="white" stroke-width="8.48" stroke-linecap="round"/>
<path d="M231.932 139.409C226.471 129.515 220.95 121.808 198.645 101.513C196.137 99.2308 192.28 99.2141 189.772 101.497C167.459 121.804 161.994 129.513 156.532 139.409C150.998 149.435 149.254 161.214 151.637 172.414C152.493 176.439 154.086 180.308 156.3 183.775C164.229 196.193 175.036 206.688 187.712 214.196L194.2 218.077L200.751 214.196C213.427 206.688 224.234 196.193 232.163 183.775C234.377 180.308 235.97 176.439 236.826 172.414C239.21 161.214 237.465 149.435 231.932 139.409Z" stroke="white" stroke-width="8.48"/>
</svg>
