<svg width="388" height="420" viewBox="0 0 388 420" fill="none" xmlns="http://www.w3.org/2000/svg">
<path d="M132.267 288.444L150.519 278.238L152.787 275.646V271.65L150.627 269.49H140.853L133.995 271.65L131.673 264.198L139.827 261.66H154.299L161.157 268.572V278.292L155.811 284.286L141.771 292.17H161.157V300H132.267V288.444ZM175.667 261.66H190.625L198.131 268.464V293.196L190.625 300H175.667L168.161 293.196V268.464L175.667 261.66ZM187.817 292.71L190.301 290.442V275.376L179.447 292.71H187.817ZM178.475 268.95L175.991 271.218V286.284L186.845 268.95H178.475ZM211.321 275.484L209.809 276.996L204.085 271.272L213.697 261.66H220.285V292.71H225.199V300H207.001V292.71H211.915V275.592L212.617 273.702L212.455 273.594L211.321 275.484ZM240.892 268.41L238.732 270.57V274.566C239.596 275.214 240.244 275.754 241.054 276.402H248.722C249.532 275.754 250.18 275.214 251.044 274.566V270.57L248.884 268.41H240.892ZM241.27 284.232L238.462 286.446V289.956L240.676 292.17H249.1L251.314 289.956V286.446L248.506 284.232H241.27ZM237.274 260.58H252.502L259.414 267.438V277.32L255.688 280.29L259.684 283.422V293.142L252.772 300H237.004L230.092 293.142V283.422L234.088 280.29L230.362 277.32V267.438L237.274 260.58Z" fill="white"/>
<mask id="mask0_2019_118860" style="mask-type:alpha" maskUnits="userSpaceOnUse" x="105" y="81" width="179" height="179">
<path d="M223.965 170.167C223.965 186.624 210.624 199.965 194.167 199.965C177.71 199.965 164.369 186.624 164.369 170.167C164.369 153.71 177.71 140.369 194.167 140.369C210.624 140.369 223.965 153.71 223.965 170.167ZM283.334 170.167C283.334 120.921 243.413 81 194.167 81C144.921 81.0002 105 120.921 105 170.167C105 219.413 144.921 259.334 194.167 259.334C243.413 259.334 283.334 219.413 283.334 170.167Z" fill="white"/>
</mask>
<g mask="url(#mask0_2019_118860)">
<path d="M194.193 138.528V99.7385" stroke="white" stroke-width="8.48198" stroke-miterlimit="10" stroke-linecap="round" stroke-linejoin="round"/>
<path d="M194.142 240.539V201.75" stroke="white" stroke-width="8.48198" stroke-miterlimit="10" stroke-linecap="round" stroke-linejoin="round"/>
<path d="M162.557 170.113H123.767" stroke="white" stroke-width="8.48198" stroke-miterlimit="10" stroke-linecap="round" stroke-linejoin="round"/>
<path d="M264.567 170.164H225.777" stroke="white" stroke-width="8.48198" stroke-miterlimit="10" stroke-linecap="round" stroke-linejoin="round"/>
<path d="M166.808 154.322L151.581 145.531" stroke="white" stroke-width="8.48198" stroke-miterlimit="10" stroke-linecap="round" stroke-linejoin="round"/>
<path d="M236.753 194.747L221.548 185.967" stroke="white" stroke-width="8.48198" stroke-miterlimit="10" stroke-linecap="round" stroke-linejoin="round"/>
<path d="M178.333 197.529L169.56 212.726" stroke="white" stroke-width="8.48198" stroke-miterlimit="10" stroke-linecap="round" stroke-linejoin="round"/>
<path d="M218.775 127.553L209.978 142.789" stroke="white" stroke-width="8.48198" stroke-miterlimit="10" stroke-linecap="round" stroke-linejoin="round"/>
<path d="M166.767 185.934L143.162 199.562" stroke="white" stroke-width="8.48198" stroke-miterlimit="10" stroke-linecap="round" stroke-linejoin="round"/>
<path d="M245.173 140.716L221.547 154.356" stroke="white" stroke-width="8.48198" stroke-miterlimit="10" stroke-linecap="round" stroke-linejoin="round"/>
<path d="M210.28 198.092L223.589 221.146" stroke="white" stroke-width="8.48198" stroke-miterlimit="10" stroke-linecap="round" stroke-linejoin="round"/>
<path d="M164.744 119.134L178.39 142.77" stroke="white" stroke-width="8.48198" stroke-miterlimit="10" stroke-linecap="round" stroke-linejoin="round"/>
<path d="M228.206 170.167C228.206 188.966 212.966 204.206 194.167 204.206C175.367 204.206 160.128 188.966 160.128 170.167C160.128 151.368 175.367 136.128 194.167 136.128C212.966 136.128 228.206 151.368 228.206 170.167Z" stroke="white" stroke-width="8.48198" stroke-miterlimit="10"/>
</g>
</svg>
