<svg width="388" height="420" viewBox="0 0 388 420" fill="none" xmlns="http://www.w3.org/2000/svg">
<path d="M132.214 288.444L150.466 278.238L152.734 275.646V271.65L150.574 269.49H140.8L133.942 271.65L131.62 264.198L139.774 261.66H154.246L161.104 268.572V278.292L155.758 284.286L141.718 292.17H161.104V300H132.214V288.444ZM175.614 261.66H190.572L198.078 268.464V293.196L190.572 300H175.614L168.108 293.196V268.464L175.614 261.66ZM187.764 292.71L190.248 290.442V275.376L179.394 292.71H187.764ZM178.422 268.95L175.938 271.218V286.284L186.792 268.95H178.422ZM211.269 275.484L209.757 276.996L204.033 271.272L213.645 261.66H220.233V292.71H225.147V300H206.949V292.71H211.863V275.592L212.565 273.702L212.403 273.594L211.269 275.484ZM259.768 268.572V293.088L252.91 300H237.79L230.014 297.408L232.498 289.956L239.14 292.17H249.238L251.398 290.01V285.204L247.996 285.96H237.196L230.338 279.048V268.572L237.196 261.66H252.91L259.768 268.572ZM240.868 278.13H249.346L251.398 277.644V271.65L249.238 269.49H240.868L238.708 271.65V275.97L240.868 278.13Z" fill="white"/>
<mask id="mask0_2019_119004" style="mask-type:alpha" maskUnits="userSpaceOnUse" x="105" y="81" width="179" height="179">
<path d="M223.965 170.167C223.965 186.624 210.624 199.965 194.167 199.965C177.71 199.965 164.369 186.624 164.369 170.167C164.369 153.71 177.71 140.369 194.167 140.369C210.624 140.369 223.965 153.71 223.965 170.167ZM283.334 170.167C283.334 120.921 243.413 81 194.167 81C144.921 81.0002 105 120.921 105 170.167C105 219.413 144.921 259.334 194.167 259.334C243.413 259.334 283.334 219.413 283.334 170.167Z" fill="white"/>
</mask>
<g mask="url(#mask0_2019_119004)">
<path d="M194.193 138.528V99.7385" stroke="white" stroke-width="8.48198" stroke-miterlimit="10" stroke-linecap="round" stroke-linejoin="round"/>
<path d="M194.142 240.539V201.75" stroke="white" stroke-width="8.48198" stroke-miterlimit="10" stroke-linecap="round" stroke-linejoin="round"/>
<path d="M162.557 170.113H123.767" stroke="white" stroke-width="8.48198" stroke-miterlimit="10" stroke-linecap="round" stroke-linejoin="round"/>
<path d="M264.567 170.164H225.777" stroke="white" stroke-width="8.48198" stroke-miterlimit="10" stroke-linecap="round" stroke-linejoin="round"/>
<path d="M166.808 154.322L151.581 145.531" stroke="white" stroke-width="8.48198" stroke-miterlimit="10" stroke-linecap="round" stroke-linejoin="round"/>
<path d="M236.753 194.747L221.548 185.967" stroke="white" stroke-width="8.48198" stroke-miterlimit="10" stroke-linecap="round" stroke-linejoin="round"/>
<path d="M178.333 197.529L169.56 212.726" stroke="white" stroke-width="8.48198" stroke-miterlimit="10" stroke-linecap="round" stroke-linejoin="round"/>
<path d="M218.775 127.553L209.978 142.789" stroke="white" stroke-width="8.48198" stroke-miterlimit="10" stroke-linecap="round" stroke-linejoin="round"/>
<path d="M166.767 185.934L143.162 199.562" stroke="white" stroke-width="8.48198" stroke-miterlimit="10" stroke-linecap="round" stroke-linejoin="round"/>
<path d="M245.173 140.716L221.547 154.356" stroke="white" stroke-width="8.48198" stroke-miterlimit="10" stroke-linecap="round" stroke-linejoin="round"/>
<path d="M210.28 198.092L223.589 221.146" stroke="white" stroke-width="8.48198" stroke-miterlimit="10" stroke-linecap="round" stroke-linejoin="round"/>
<path d="M164.744 119.134L178.39 142.77" stroke="white" stroke-width="8.48198" stroke-miterlimit="10" stroke-linecap="round" stroke-linejoin="round"/>
<path d="M228.206 170.167C228.206 188.966 212.967 204.206 194.167 204.206C175.368 204.206 160.128 188.966 160.128 170.167C160.128 151.368 175.368 136.128 194.167 136.128C212.967 136.128 228.206 151.368 228.206 170.167Z" stroke="white" stroke-width="8.48198" stroke-miterlimit="10"/>
</g>
</svg>
