<svg width="388" height="420" viewBox="0 0 388 420" fill="none" xmlns="http://www.w3.org/2000/svg">
<path d="M132.214 288.444L150.466 278.238L152.734 275.646V271.65L150.574 269.49H140.8L133.942 271.65L131.62 264.198L139.774 261.66H154.246L161.104 268.572V278.292L155.758 284.286L141.718 292.17H161.104V300H132.214V288.444ZM175.614 261.66H190.572L198.078 268.464V293.196L190.572 300H175.614L168.108 293.196V268.464L175.614 261.66ZM187.764 292.71L190.248 290.442V275.376L179.394 292.71H187.764ZM178.422 268.95L175.938 271.218V286.284L186.792 268.95H178.422ZM211.269 275.484L209.757 276.996L204.033 271.272L213.645 261.66H220.233V292.71H225.147V300H206.949V292.71H211.863V275.592L212.565 273.702L212.403 273.594L211.269 275.484ZM259.768 268.572V293.088L252.91 300H237.79L230.014 297.408L232.498 289.956L239.14 292.17H249.238L251.398 290.01V285.204L247.996 285.96H237.196L230.338 279.048V268.572L237.196 261.66H252.91L259.768 268.572ZM240.868 278.13H249.346L251.398 277.644V271.65L249.238 269.49H240.868L238.708 271.65V275.97L240.868 278.13Z" fill="white"/>
<path d="M216.564 110.029L193.458 133.136L170.352 110.029M216.564 230.47L193.458 207.36L170.352 230.47M253.678 193.356L230.572 170.25L253.678 147.144M133.237 193.356L156.347 170.25L133.237 147.144" stroke="white" stroke-width="8.48" stroke-linecap="round"/>
<path d="M204.999 98.5L193.459 110.04L181.918 98.5M181.924 242.001L193.459 230.466L205 242.001M265.21 181.79L253.669 170.25L265.21 158.709M121.709 158.715L133.244 170.25L121.709 181.791" stroke="white" stroke-width="8.48" stroke-linecap="round"/>
<path d="M129.947 170.252H192.634M256.97 170.252L194.283 170.252M193.458 106.74V169.427M193.458 233.764L193.458 171.077" stroke="white" stroke-width="8.48"/>
<path d="M129.947 170.252H192.634M256.97 170.252L194.283 170.252M193.458 106.74V169.427M193.458 233.764L193.458 171.077" stroke="white" stroke-width="8.48"/>
<path d="M157.991 135.611L192.633 170.254L157.991 204.897M228.926 204.897L194.283 170.254L228.926 135.611" stroke="white" stroke-width="8.48" stroke-linecap="round"/>
</svg>
