<svg width="388" height="420" viewBox="0 0 388 420" fill="none" xmlns="http://www.w3.org/2000/svg">
<path d="M126.835 288.444L145.087 278.238L147.355 275.646V271.65L145.195 269.49H135.421L128.563 271.65L126.241 264.198L134.395 261.66H148.867L155.725 268.572V278.292L150.379 284.286L136.339 292.17H155.725V300H126.835V288.444ZM170.235 261.66H185.193L192.699 268.464V293.196L185.193 300H170.235L162.729 293.196V268.464L170.235 261.66ZM182.385 292.71L184.869 290.442V275.376L174.015 292.71H182.385ZM173.043 268.95L170.559 271.218V286.284L181.413 268.95H173.043ZM199.26 288.444L217.512 278.238L219.78 275.646V271.65L217.62 269.49H207.846L200.988 271.65L198.666 264.198L206.82 261.66H221.292L228.15 268.572V278.292L222.804 284.286L208.764 292.17H228.15V300H199.26V288.444ZM242.66 261.66H257.618L265.124 268.464V293.196L257.618 300H242.66L235.154 293.196V268.464L242.66 261.66ZM254.81 292.71L257.294 290.442V275.376L246.44 292.71H254.81ZM245.468 268.95L242.984 271.218V286.284L253.838 268.95H245.468Z" fill="white"/>
<path d="M216.564 110.029L193.458 133.136L170.352 110.029M216.564 230.47L193.458 207.36L170.352 230.47M253.678 193.356L230.572 170.25L253.678 147.144M133.237 193.356L156.347 170.25L133.237 147.144" stroke="white" stroke-width="8.48" stroke-linecap="round"/>
<path d="M204.999 98.5L193.459 110.04L181.918 98.5M181.924 242.001L193.459 230.466L205 242.001M265.21 181.79L253.669 170.25L265.21 158.709M121.709 158.715L133.244 170.25L121.709 181.791" stroke="white" stroke-width="8.48" stroke-linecap="round"/>
<path d="M129.947 170.252H192.634M256.97 170.252L194.283 170.252M193.458 106.74V169.427M193.458 233.764L193.458 171.077" stroke="white" stroke-width="8.48"/>
<path d="M129.947 170.252H192.634M256.97 170.252L194.283 170.252M193.458 106.74V169.427M193.458 233.764L193.458 171.077" stroke="white" stroke-width="8.48"/>
<path d="M157.991 135.611L192.633 170.254L157.991 204.897M228.926 204.897L194.283 170.254L228.926 135.611" stroke="white" stroke-width="8.48" stroke-linecap="round"/>
</svg>
