<svg width="388" height="420" viewBox="0 0 388 420" fill="none" xmlns="http://www.w3.org/2000/svg">
<path d="M132.214 288.444L150.466 278.238L152.734 275.646V271.65L150.574 269.49H140.8L133.942 271.65L131.62 264.198L139.774 261.66H154.246L161.104 268.572V278.292L155.758 284.286L141.718 292.17H161.104V300H132.214V288.444ZM175.614 261.66H190.572L198.078 268.464V293.196L190.572 300H175.614L168.108 293.196V268.464L175.614 261.66ZM187.764 292.71L190.248 290.442V275.376L179.394 292.71H187.764ZM178.422 268.95L175.938 271.218V286.284L186.792 268.95H178.422ZM211.269 275.484L209.757 276.996L204.033 271.272L213.645 261.66H220.233V292.71H225.147V300H206.949V292.71H211.863V275.592L212.565 273.702L212.403 273.594L211.269 275.484ZM259.768 268.572V293.088L252.91 300H237.79L230.014 297.408L232.498 289.956L239.14 292.17H249.238L251.398 290.01V285.204L247.996 285.96H237.196L230.338 279.048V268.572L237.196 261.66H252.91L259.768 268.572ZM240.868 278.13H249.346L251.398 277.644V271.65L249.238 269.49H240.868L238.708 271.65V275.97L240.868 278.13Z" fill="white"/>
<path d="M173.797 165.072L194.199 185.475L214.602 165.072" stroke="white" stroke-width="8.48" stroke-linecap="round"/>
<path d="M194.2 138.793V240.956" stroke="white" stroke-width="8.48" stroke-linecap="round"/>
<path d="M231.932 139.409C226.471 129.515 220.95 121.808 198.645 101.513C196.137 99.2308 192.28 99.2141 189.772 101.497C167.459 121.804 161.994 129.513 156.532 139.409C150.998 149.435 149.254 161.214 151.637 172.414C152.493 176.439 154.086 180.308 156.3 183.775C164.229 196.193 175.036 206.688 187.712 214.196L194.2 218.077L200.751 214.196C213.427 206.688 224.234 196.193 232.163 183.775C234.377 180.308 235.97 176.439 236.826 172.414C239.21 161.214 237.465 149.435 231.932 139.409Z" stroke="white" stroke-width="8.48"/>
</svg>
