<svg width="388" height="420" viewBox="0 0 388 420" fill="none" xmlns="http://www.w3.org/2000/svg">
<path d="M132.214 288.444L150.466 278.238L152.734 275.646V271.65L150.574 269.49H140.8L133.942 271.65L131.62 264.198L139.774 261.66H154.246L161.104 268.572V278.292L155.758 284.286L141.718 292.17H161.104V300H132.214V288.444ZM175.614 261.66H190.572L198.078 268.464V293.196L190.572 300H175.614L168.108 293.196V268.464L175.614 261.66ZM187.764 292.71L190.248 290.442V275.376L179.394 292.71H187.764ZM178.422 268.95L175.938 271.218V286.284L186.792 268.95H178.422ZM211.269 275.484L209.757 276.996L204.033 271.272L213.645 261.66H220.233V292.71H225.147V300H206.949V292.71H211.863V275.592L212.565 273.702L212.403 273.594L211.269 275.484ZM259.768 268.572V293.088L252.91 300H237.79L230.014 297.408L232.498 289.956L239.14 292.17H249.238L251.398 290.01V285.204L247.996 285.96H237.196L230.338 279.048V268.572L237.196 261.66H252.91L259.768 268.572ZM240.868 278.13H249.346L251.398 277.644V271.65L249.238 269.49H240.868L238.708 271.65V275.97L240.868 278.13Z" fill="white"/>
<mask id="mask0_2019_118966" style="mask-type:alpha" maskUnits="userSpaceOnUse" x="111" y="90" width="165" height="163">
<path fill-rule="evenodd" clip-rule="evenodd" d="M275.596 171.5C275.596 216.057 238.883 252.177 193.596 252.177C148.308 252.177 111.596 216.057 111.596 171.5C111.596 126.943 148.308 90.8223 193.596 90.8223C238.883 90.8223 275.596 126.943 275.596 171.5ZM193.596 202C210.717 202 224.596 188.344 224.596 171.5C224.596 154.655 210.717 141 193.596 141C176.475 141 162.596 154.655 162.596 171.5C162.596 188.344 176.475 202 193.596 202Z" fill="white"/>
</mask>
<g mask="url(#mask0_2019_118966)">
<path d="M193.668 99.2402C197.106 99.2402 200.953 101.598 204.17 106.985C207.334 112.285 209.428 119.882 209.428 128.5C209.428 137.118 207.334 144.715 204.17 150.015C200.953 155.402 197.106 157.76 193.668 157.76C190.23 157.76 186.383 155.402 183.166 150.015C180.002 144.715 177.908 137.118 177.908 128.5C177.908 119.882 180.002 112.285 183.166 106.985C186.383 101.598 190.23 99.2402 193.668 99.2402Z" stroke="white" stroke-width="8.48"/>
<path d="M243.692 119.991C246.123 122.422 247.177 126.81 245.642 132.894C244.131 138.879 240.24 145.731 234.146 151.825C228.052 157.919 221.2 161.81 215.215 163.32C209.131 164.855 204.744 163.802 202.313 161.371C199.882 158.94 198.828 154.552 200.363 148.468C201.874 142.483 205.765 135.631 211.859 129.537C217.952 123.443 224.805 119.552 230.79 118.042C236.874 116.506 241.261 117.56 243.692 119.991Z" stroke="white" stroke-width="8.48"/>
<path d="M264.392 170.036C264.392 173.474 262.034 177.322 256.646 180.538C251.347 183.702 243.75 185.796 235.132 185.796C226.514 185.796 218.917 183.702 213.617 180.538C208.23 177.322 205.872 173.474 205.872 170.036C205.872 166.598 208.23 162.751 213.617 159.534C218.917 156.37 226.514 154.276 235.132 154.276C243.75 154.276 251.347 156.37 256.646 159.534C262.034 162.751 264.392 166.598 264.392 170.036Z" stroke="white" stroke-width="8.48"/>
<path d="M243.641 220.06C241.21 222.491 236.822 223.544 230.738 222.009C224.753 220.499 217.901 216.608 211.807 210.514C205.713 204.42 201.822 197.568 200.312 191.583C198.777 185.499 199.83 181.111 202.261 178.68C204.692 176.249 209.08 175.196 215.164 176.731C221.149 178.241 228.001 182.132 234.095 188.226C240.189 194.32 244.08 201.172 245.59 207.157C247.125 213.241 246.072 217.629 243.641 220.06Z" stroke="white" stroke-width="8.48"/>
<path d="M193.596 182.24C197.034 182.24 200.881 184.598 204.098 189.985C207.262 195.285 209.355 202.882 209.355 211.5C209.355 220.118 207.262 227.715 204.098 233.015C200.881 238.402 197.034 240.76 193.596 240.76C190.158 240.76 186.31 238.402 183.094 233.015C179.93 227.715 177.836 220.118 177.836 211.5C177.836 202.882 179.93 195.285 183.094 189.985C186.31 184.598 190.158 182.24 193.596 182.24Z" stroke="white" stroke-width="8.48"/>
<path d="M184.951 178.63C187.382 181.061 188.436 185.448 186.9 191.532C185.39 197.517 181.499 204.369 175.405 210.463C169.311 216.557 162.459 220.448 156.474 221.959C150.39 223.494 146.002 222.44 143.571 220.009C141.14 217.578 140.087 213.191 141.622 207.107C143.132 201.122 147.023 194.27 153.117 188.176C159.211 182.082 166.063 178.191 172.048 176.68C178.132 175.145 182.52 176.199 184.951 178.63Z" stroke="white" stroke-width="8.48"/>
<path d="M181.392 169.964C181.392 173.402 179.034 177.249 173.646 180.466C168.347 183.63 160.75 185.724 152.132 185.724C143.514 185.724 135.917 183.63 130.617 180.466C125.23 177.249 122.872 173.402 122.872 169.964C122.872 166.526 125.23 162.678 130.617 159.462C135.917 156.298 143.514 154.204 152.132 154.204C160.75 154.204 168.347 156.298 173.646 159.462C179.034 162.678 181.392 166.526 181.392 169.964Z" stroke="white" stroke-width="8.48"/>
<path d="M185.002 161.32C182.571 163.751 178.184 164.804 172.1 163.269C166.115 161.759 159.262 157.868 153.169 151.774C147.075 145.68 143.183 138.828 141.673 132.843C140.138 126.759 141.192 122.371 143.623 119.94C146.054 117.509 150.441 116.455 156.525 117.991C162.51 119.501 169.362 123.392 175.456 129.486C181.55 135.58 185.441 142.432 186.952 148.417C188.487 154.501 187.433 158.889 185.002 161.32Z" stroke="white" stroke-width="8.48"/>
</g>
<path d="M193.596 137.24C212.845 137.24 228.355 152.63 228.355 171.5C228.355 190.37 212.845 205.76 193.596 205.76C174.347 205.76 158.836 190.37 158.836 171.5C158.836 152.63 174.347 137.24 193.596 137.24Z" stroke="white" stroke-width="8.48"/>
</svg>
