<svg width="388" height="420" viewBox="0 0 388 420" fill="none" xmlns="http://www.w3.org/2000/svg">
<circle cx="194.059" cy="210.286" r="102.871" stroke="white" stroke-width="42.1869"/>
<path d="M204.739 184.304L196.027 185.048C194.305 181.233 191.894 177.767 188.915 174.825L192.642 166.916C193.074 166.011 192.808 164.943 192.027 164.319C186.8 160.262 180.779 157.492 174.458 156.098C173.487 155.887 172.481 156.371 172.064 157.266L168.337 165.175C164.164 164.75 159.951 165.109 155.905 166.238L150.93 159.088C150.363 158.272 149.297 157.955 148.373 158.339C142.184 160.872 136.736 164.749 132.431 169.429C131.749 170.163 131.676 171.272 132.244 172.088L137.228 179.253C134.787 182.658 132.986 186.483 131.908 190.539L123.211 191.273C122.212 191.363 121.413 192.113 121.283 193.111C120.382 199.508 120.885 206.117 122.882 212.443C123.18 213.402 124.104 214.013 125.103 213.923L133.814 213.179C135.537 216.994 137.948 220.46 140.926 223.402L137.199 231.311C136.767 232.217 137.034 233.285 137.814 233.908C143.042 237.966 149.063 240.735 155.384 242.13C156.354 242.341 157.361 241.857 157.778 240.961L161.505 233.052C165.678 233.477 169.891 233.118 173.937 231.989L178.921 239.154C179.489 239.97 180.554 240.287 181.479 239.903C187.667 237.37 193.116 233.493 197.421 228.813C198.102 228.079 198.175 226.97 197.608 226.154L192.624 218.989C195.064 215.584 196.866 211.759 197.944 207.703L206.655 206.959C207.654 206.869 208.454 206.118 208.583 205.121C209.484 198.724 208.981 192.115 206.985 185.789C206.647 184.836 205.738 184.214 204.739 184.304ZM173.013 210.762C166.575 215.241 157.697 213.659 153.229 207.236C148.761 200.814 150.366 191.94 156.804 187.461C163.242 182.982 172.12 184.564 176.588 190.987C181.055 197.409 179.451 206.283 173.013 210.762Z" fill="white"/>
<path d="M266.988 221.256L260.384 220.086C259.843 216.902 258.723 213.842 257.081 211.06L261.371 205.904C261.865 205.315 261.874 204.466 261.415 203.847C258.321 199.789 254.39 196.533 249.971 194.243C249.292 193.894 248.452 194.055 247.97 194.64L243.681 199.796C240.668 198.653 237.474 198.087 234.256 198.127L231.946 191.814C231.683 191.094 230.953 190.647 230.194 190.75C225.116 191.412 220.327 193.223 216.232 195.859C215.586 196.27 215.317 197.083 215.581 197.803L217.896 204.129C215.429 206.183 213.355 208.677 211.774 211.486L205.183 210.311C204.424 210.181 203.687 210.582 203.399 211.3C201.497 215.888 200.595 220.912 200.856 226.022C200.893 226.796 201.459 227.434 202.218 227.565L208.822 228.735C209.363 231.919 210.483 234.979 212.124 237.76L207.835 242.916C207.341 243.506 207.332 244.354 207.791 244.974C210.885 249.032 214.816 252.288 219.235 254.578C219.914 254.927 220.754 254.766 221.236 254.181L225.525 249.025C228.538 250.168 231.732 250.734 234.95 250.694L237.265 257.02C237.528 257.74 238.257 258.187 239.017 258.084C244.095 257.421 248.883 255.611 252.978 252.975C253.625 252.564 253.893 251.751 253.63 251.031L251.315 244.705C253.782 242.651 255.855 240.157 257.437 237.348L264.041 238.518C264.799 238.648 265.537 238.247 265.825 237.529C267.727 232.941 268.628 227.917 268.368 222.807C268.301 222.03 267.747 221.387 266.988 221.256ZM238.358 234.692C232.72 236.756 226.441 233.819 224.366 228.149C222.291 222.479 225.192 216.184 230.83 214.12C236.469 212.057 242.748 214.993 244.822 220.664C246.897 226.334 243.996 232.629 238.358 234.692Z" fill="white"/>
</svg>
