<svg width="388" height="420" viewBox="0 0 388 420" fill="none" xmlns="http://www.w3.org/2000/svg">
<path d="M172.5 126C220.5 126 235 165 235 187.001C235 190.972 239.545 198.545 242 201C247.5 206.5 255.529 209.118 257 210C259 211.2 277 218.239 277 231.001V283.001C277 289.001 273 292.501 267 292.501H119C113 292.501 110 289.001 110 283.001L109.5 187.001C109.5 165 124.5 126 172.5 126ZM134 240.5C131.791 240.5 130 242.291 130 244.5V268.5C130 270.709 131.791 272.5 134 272.5H253C255.209 272.5 257 270.709 257 268.5V244.5C257 242.291 255.209 240.5 253 240.5H249C246.791 240.5 245 242.291 245 244.5V257.5C245 259.709 243.209 261.5 241 261.5H239C236.791 261.5 235 259.709 235 257.5V244.5C235 242.291 233.209 240.5 231 240.5H228C225.791 240.5 224 242.291 224 244.5V257.5C224 259.709 222.209 261.5 220 261.5H218C215.791 261.5 214 259.709 214 257.5V244.5C214 242.291 212.209 240.5 210 240.5H196.5C194.291 240.5 192.5 242.291 192.5 244.5V257.5C192.5 259.709 190.709 261.5 188.5 261.5H186.5C184.291 261.5 182.5 259.709 182.5 257.5V244.5C182.5 242.291 180.709 240.5 178.5 240.5H176C173.791 240.5 172 242.291 172 244.5V257.5C172 259.709 170.209 261.5 168 261.5H166C163.791 261.5 162 259.709 162 257.5V244.5C162 242.291 160.209 240.5 158 240.5H154.5C152.291 240.5 150.5 242.291 150.5 244.5V257.5C150.5 259.709 148.709 261.5 146.5 261.5H145C142.791 261.5 141 259.709 141 257.5V244.5C141 242.291 139.209 240.5 137 240.5H134Z" fill="white"/>
</svg>
