<svg width="388" height="420" viewBox="0 0 388 420" fill="none" xmlns="http://www.w3.org/2000/svg">
<path d="M282.243 183.733C282.371 183.885 282.419 183.997 282.473 183.997C284.932 184.071 287.392 184.166 289.851 184.162C290.125 184.162 290.628 183.622 290.631 183.328C290.655 181.419 290.598 179.503 290.496 177.598C290.449 176.73 289.895 176.507 289.158 176.926C288.75 177.162 288.371 177.47 288.033 177.804C286.3 179.51 284.584 181.226 282.871 182.953C282.631 183.193 282.442 183.483 282.243 183.733ZM280.888 160.976C278.169 160.976 275.452 160.99 272.736 160.973C271.354 160.963 271.196 160.73 271.101 159.355C271.01 157.99 271.381 156.905 272.422 155.942C274.155 154.345 275.797 152.649 277.435 150.953C278.28 150.074 279.229 149.77 280.442 149.834C282.033 149.915 283.631 149.767 285.223 149.78C286.581 149.79 287.935 149.899 289.29 149.949C290.273 149.986 290.892 149.51 290.753 148.52C290.449 146.365 291.449 144.902 292.979 143.554C294.51 142.213 295.932 140.74 297.307 139.236C298.361 138.084 299.648 138.084 300.942 138.355C301.304 138.429 301.736 139.209 301.763 139.686C301.915 142.395 301.966 145.111 302.033 147.828C302.074 149.476 302.28 149.72 303.905 149.73C309.415 149.763 314.925 149.767 320.432 149.807C321.263 149.814 322.402 149.419 322.736 150.52C323.091 151.689 323.273 153.071 322.327 154.061C320.236 156.257 318.057 158.378 315.834 160.439C315.402 160.838 314.591 160.966 313.949 160.98C310.635 161.03 307.317 160.973 304 161.034C303.395 161.047 302.385 161.304 302.277 161.665C302.027 162.49 302.101 163.473 302.297 164.334C302.361 164.605 303.233 164.831 303.74 164.838C306.736 164.885 309.733 164.828 312.729 164.885C313.618 164.902 314.925 164.385 315.263 165.581C315.645 166.929 315.783 168.453 314.615 169.642C313.354 170.926 312.077 172.196 310.81 173.469C310.584 173.696 310.327 173.899 310.138 174.152C308.682 176.128 306.787 176.858 304.321 176.632C302.219 176.436 302.054 176.743 302.044 178.814C302.037 180.013 301.986 181.216 302.067 182.409C302.098 182.915 302.314 183.73 302.621 183.817C303.074 183.953 303.827 183.723 304.196 183.375C305.996 181.679 307.696 179.878 309.456 178.142C312.527 175.115 315.615 172.105 318.699 169.091C319.726 168.084 320.696 167.003 321.817 166.115C322.456 165.608 323.338 165.172 324.125 165.138C326.838 165.02 329.557 165.078 332.277 165.094C333.692 165.105 333.851 165.355 333.946 166.811C334.047 168.314 333.557 169.456 332.469 170.537C324.554 178.388 316.665 186.27 308.824 194.196C307.692 195.341 306.53 195.858 304.922 195.804C302.054 195.706 302.05 195.777 302.047 198.682C302.044 200.841 302.054 203 302.044 205.159C302.037 206.844 301.834 206.976 300.206 207.081C298.729 207.172 297.611 206.709 296.611 205.605C294.841 203.655 292.905 201.851 291.172 199.871C290.716 199.355 290.621 198.422 290.571 197.669C290.452 195.905 290.246 195.709 288.503 195.716C280.591 195.747 272.679 195.753 264.77 195.743C263.172 195.74 261.577 195.655 259.986 195.53C259.628 195.503 259.02 195.172 259 194.939C258.854 193.371 258.587 191.831 259.962 190.48C268.314 182.287 276.598 174.02 284.949 165.824C285.483 165.301 286.395 165.128 287.158 164.882C287.52 164.763 287.949 164.858 288.351 164.855C290.381 164.844 291.304 163.561 290.506 161.686C290.354 161.334 289.625 161.054 289.158 161.044C286.402 160.983 283.645 161.013 280.888 161.013L280.888 160.976Z" fill="white"/>
<path d="M128.391 153.601C132.786 153.601 137.185 153.595 141.58 153.601C143.394 153.605 143.489 153.764 143.55 155.608C143.59 156.811 143.246 157.784 142.388 158.625C140.019 160.939 137.665 163.27 135.323 165.615C132.28 168.669 129.266 171.753 126.212 174.801C122.796 178.21 119.344 181.588 115.918 184.99C113.766 187.128 111.631 189.284 109.482 191.422C108.236 192.666 106.999 193.912 105.705 195.098C105.384 195.392 104.861 195.615 104.432 195.615C97.5633 195.612 90.6951 195.564 83.8268 195.544C82.8066 195.541 82.4552 195.051 82.3775 194.071C82.2626 192.571 82.6613 191.335 83.739 190.277C85.5059 188.537 87.1681 186.689 89.0262 185.061C89.6681 184.5 90.7525 184.237 91.6444 184.21C94.3978 184.135 97.1545 184.217 99.9113 184.281C100.982 184.307 101.807 183.96 102.573 183.193C106.624 179.162 110.729 175.189 114.783 171.162C116.425 169.531 117.996 167.821 119.57 166.125C119.783 165.892 119.837 165.514 119.965 165.203C119.644 165.088 119.32 164.872 118.996 164.872C114.8 164.851 110.604 164.821 106.408 164.902C105.732 164.916 104.905 165.308 104.415 165.794C99.8572 170.331 95.3708 174.946 90.8336 179.504C88.6343 181.713 86.3572 183.838 84.141 186.027C81.2728 188.865 78.4181 191.716 75.587 194.591C74.8066 195.382 73.9451 195.811 72.8268 195.774C70.0329 195.676 67.239 195.601 64.4451 195.531C63.6512 195.51 63.3539 195.132 63.2728 194.348C63.1072 192.737 63.4958 191.49 64.7187 190.281C74.2593 180.831 83.7221 171.301 93.2255 161.814C95.6275 159.419 98.0836 157.078 100.546 154.74C101.296 154.024 101.628 153.22 101.604 152.186C101.567 150.47 101.509 148.743 101.638 147.034C101.695 146.308 102.026 145.456 102.519 144.933C104.492 142.841 106.57 140.848 108.621 138.831C109.215 138.247 111.607 137.889 112.249 138.416C112.604 138.706 112.807 139.362 112.824 139.858C112.942 143.73 113.006 147.605 113.074 151.48C113.104 153.443 113.209 153.571 115.205 153.574C119.601 153.581 123.996 153.578 128.391 153.578L128.391 153.601Z" fill="white"/>
<path d="M150.131 154.587C150.175 155.182 150.226 155.567 150.229 155.952C150.242 159.55 150.175 163.148 150.293 166.739C150.351 168.516 149.878 169.864 148.526 171.06C146.952 172.446 146.969 172.587 148.438 174.101C151.523 177.283 154.655 180.418 157.827 183.513C158.259 183.939 159.026 184.223 159.641 184.226C162.354 184.229 165.07 184.148 167.776 183.993C168.347 183.959 169.003 183.584 169.428 183.168C175.111 177.614 180.786 172.047 186.415 166.435C190.063 162.8 193.604 159.054 197.249 155.415C202.678 150 208.141 144.614 213.644 139.277C214.212 138.726 215.155 138.317 215.942 138.283C218.692 138.165 221.452 138.256 224.209 138.226C225.313 138.216 225.753 138.665 225.82 139.787C225.911 141.368 225.469 142.567 224.303 143.726C215.134 152.807 206.03 161.952 196.905 171.077C189.253 178.729 181.58 186.361 173.972 194.057C172.81 195.233 171.563 195.78 169.952 195.77C165.597 195.739 161.246 195.753 156.894 195.756C155.509 195.756 154.384 195.3 153.381 194.273C149.753 190.557 146.05 186.912 142.381 183.236C140.438 181.29 138.462 179.368 136.584 177.358C136.111 176.851 135.746 176.06 135.698 175.375C135.573 173.544 135.573 171.696 135.675 169.864C135.715 169.162 135.982 168.3 136.455 167.824C140.766 163.493 145.144 159.229 149.509 154.952C149.614 154.848 149.773 154.793 150.131 154.587Z" fill="white"/>
<path d="M82.7056 199.132C90.8171 199.132 98.9319 199.119 107.043 199.156C107.854 199.159 109.293 199.362 109.358 199.686C109.608 200.963 109.878 202.419 108.793 203.544C107.543 204.842 106.104 205.98 105.027 207.402C103.557 209.345 101.746 209.757 99.4218 209.74C86.7968 209.639 74.165 209.707 61.54 209.666C60.1076 209.659 59.0198 210.041 58.0535 211.109C56.6583 212.649 55.1414 214.075 53.6921 215.565C52.6177 216.669 52.6346 216.723 53.7461 217.862C57.6921 221.882 61.6211 225.919 65.5941 229.913C66.54 230.865 66.7867 231.93 66.6177 233.19C66.5164 233.94 66.1549 234.369 65.3779 234.365C62.5029 234.365 59.6245 234.406 56.7495 234.318C56.1853 234.301 55.5333 233.899 55.1042 233.484C53.1786 231.632 51.3103 229.72 49.4353 227.815C47.165 225.511 44.8846 223.213 42.6684 220.859C42.2731 220.436 41.9894 219.75 41.9522 219.169C41.5907 213.693 41.6076 213.69 45.4353 209.855C48.5941 206.686 51.79 203.548 54.9184 200.348C55.7698 199.477 56.6819 199.125 57.888 199.132C66.1617 199.166 74.4319 199.149 82.7056 199.149V199.132Z" fill="white"/>
<path d="M134.3 213.817C134.253 214.473 134.185 214.969 134.185 215.466C134.182 222.419 134.165 229.371 134.209 236.324C134.219 237.635 133.797 238.55 132.78 239.412C131.233 240.73 129.797 242.192 128.415 243.686C127.25 244.956 125.824 244.804 124.422 244.554C124.094 244.496 123.702 243.652 123.685 243.159C123.594 239.885 123.571 236.611 123.574 233.338C123.581 224.746 123.614 216.155 123.638 207.564C123.645 205.206 123.638 202.848 123.662 200.49C123.675 199.145 123.922 198.959 125.202 198.996C127.638 199.067 130.074 199.132 132.51 199.132C133.581 199.132 134.405 199.452 135.172 200.219C146.202 211.284 157.243 222.341 168.324 233.358C169.405 234.432 169.604 235.632 169.364 236.956C169.293 237.344 168.665 237.909 168.28 237.919C165.405 237.99 162.523 238.054 159.658 237.871C158.831 237.817 157.929 237.071 157.277 236.425C150.861 230.074 144.493 223.675 138.108 217.29C137.094 216.273 136.081 215.257 135.05 214.257C134.895 214.104 134.669 214.027 134.3 213.817Z" fill="white"/>
<path d="M176.875 161.014C173.557 161.014 170.243 161.004 166.926 161.021C165.416 161.028 165.182 161.281 165.139 162.757C165.139 162.795 165.142 162.838 165.139 162.876C164.48 166.953 165.615 170.288 169.044 172.791C170.095 173.558 170.899 174.659 171.845 175.572C172.459 176.166 172.517 176.703 171.865 177.295C171.659 177.48 171.48 177.7 171.311 177.923C170.044 179.602 168.466 180.511 166.263 180.227C165.125 180.082 163.946 180.153 162.791 180.22C161.554 180.291 160.676 179.774 159.872 178.892C158.311 177.18 156.733 175.477 155.068 173.872C154.03 172.876 153.615 171.767 153.635 170.359C153.73 162.889 153.787 155.416 153.848 147.946C153.868 145.511 153.804 143.071 153.885 140.636C153.909 139.872 154.088 138.632 154.527 138.457C155.642 138.024 156.976 137.93 158.01 138.919C158.99 139.859 159.939 140.832 160.902 141.788C161.696 142.578 162.432 143.433 163.291 144.146C164.605 145.24 165.365 146.49 165.166 148.281C165.024 149.568 165.953 149.737 166.976 149.737C173.328 149.737 179.682 149.754 186.037 149.761C188.753 149.764 191.47 149.754 194.186 149.771C195.568 149.781 195.703 150 195.797 151.399C195.885 152.734 195.463 153.808 194.517 154.737C192.696 156.531 190.953 158.409 189.064 160.129C188.514 160.632 187.588 160.94 186.824 160.96C183.51 161.048 180.193 160.997 176.875 160.997V161.014Z" fill="white"/>
<path d="M266.807 157.419C266.807 162.858 266.811 168.294 266.807 173.73C266.804 175.642 266.858 177.557 266.753 179.466C266.72 180.074 266.402 180.8 265.97 181.236C261.784 185.466 257.51 189.611 253.345 193.858C252.081 195.145 250.75 195.841 248.922 195.79C243.973 195.655 239.017 195.605 234.068 195.55C233.03 195.54 232.568 195.159 232.507 194.071C232.419 192.574 232.797 191.398 233.953 190.351C235.726 188.74 237.307 186.919 239.091 185.321C239.713 184.767 240.666 184.395 241.507 184.314C243.169 184.159 244.865 184.351 246.534 184.219C247.26 184.162 248.105 183.821 248.632 183.328C250.733 181.361 252.787 179.338 254.723 177.213C255.24 176.648 255.497 175.648 255.503 174.844C255.561 166.213 255.618 157.578 255.503 148.946C255.473 146.675 256.041 144.966 257.791 143.5C259.284 142.25 260.635 140.814 261.949 139.368C263.081 138.118 264.47 138.125 265.919 138.304C266.777 138.412 266.767 139.148 266.77 139.794C266.791 143.071 266.797 146.348 266.804 149.625C266.811 152.223 266.807 154.821 266.807 157.419Z" fill="white"/>
<path d="M159.068 213.71C158.912 214.247 158.852 214.514 158.757 214.764C158.507 215.429 158.406 216.48 157.95 216.669C156.896 217.112 155.656 217.112 154.706 216.179C153.426 214.922 152.281 213.5 150.882 212.392C148.754 210.706 148.044 208.635 148.308 206C148.487 204.22 148.365 202.409 148.348 200.612C148.335 199.612 148.767 199.142 149.781 199.149C152.416 199.166 155.054 199.098 157.69 199.186C158.335 199.209 159.119 199.547 159.575 200.003C173.051 213.422 186.494 226.872 199.929 240.328C200.342 240.74 200.777 241.23 200.95 241.767C201.662 243.963 200.994 244.774 198.693 244.737C196.456 244.699 194.217 244.676 191.98 244.737C190.723 244.774 189.798 244.345 188.912 243.456C179.416 233.912 169.889 224.399 160.369 214.882C160.014 214.524 159.619 214.206 159.068 213.71Z" fill="white"/>
<path d="M321.321 227.112C322.256 227.172 322.797 227.22 323.341 227.243C324.111 227.277 324.486 227.669 324.554 228.436C324.682 229.933 324.358 231.135 323.246 232.331C321.78 233.906 320.216 234.466 318.091 234.433C313.131 234.358 314.513 233.872 310.942 237.379C308.804 239.477 306.743 241.659 304.554 243.699C303.973 244.24 303.04 244.629 302.246 244.669C299.817 244.791 297.378 244.73 294.942 244.696C294.189 244.686 293.06 244.993 292.902 243.983C292.746 243 293.084 241.926 293.307 240.912C293.375 240.612 293.777 240.385 294.03 240.132C305.891 228.27 317.75 216.402 329.614 204.544C331.253 202.909 332.895 201.281 334.598 199.716C334.966 199.378 335.594 199.179 336.108 199.169C338.824 199.122 341.54 199.162 344.256 199.152C345.206 199.149 345.584 199.571 345.648 200.524C345.739 201.926 345.375 202.997 344.324 204.034C337.02 211.247 329.783 218.527 322.53 225.791C322.202 226.118 321.898 226.476 321.321 227.112Z" fill="white"/>
<path d="M279.787 244.706C278.591 244.706 277.392 244.722 276.196 244.696C275.466 244.679 274.53 244.922 274.246 243.959C273.953 242.962 273.834 241.888 274.676 241.03C275.736 239.952 276.828 238.902 277.899 237.831C285.969 229.75 294.04 221.665 302.115 213.587C306.547 209.152 311 204.739 315.412 200.287C316.203 199.489 317.044 199.111 318.169 199.138C320.483 199.189 322.801 199.138 325.115 199.162C326.496 199.172 326.649 199.408 326.753 200.78C326.871 202.331 326.344 203.52 325.24 204.621C312.226 217.591 299.236 230.584 286.263 243.594C285.466 244.391 284.618 244.773 283.503 244.726C282.267 244.679 281.027 244.716 279.787 244.716V244.706Z" fill="white"/>
<path d="M258.172 199.145C259.49 199.145 260.811 199.175 262.128 199.135C263.27 199.097 263.635 199.631 263.689 200.729C263.763 202.256 263.013 203.293 262.02 204.283C256.787 209.503 251.561 214.733 246.334 219.962C238.51 227.79 230.672 235.604 222.878 243.462C221.919 244.429 220.875 244.844 219.574 244.82C217.338 244.777 215.101 244.78 212.868 244.679C212.253 244.648 211.202 244.405 211.131 244.087C210.922 243.138 211.013 242.091 211.172 241.114C211.236 240.722 211.767 240.391 212.108 240.057C215.449 236.787 218.824 233.554 222.128 230.25C225.686 226.692 229.165 223.054 232.709 219.479C237.743 214.405 242.8 209.358 247.858 204.307C249.412 202.756 250.973 201.206 252.591 199.726C252.959 199.388 253.581 199.199 254.098 199.168C255.452 199.094 256.814 199.145 258.172 199.145Z" fill="white"/>
<path d="M103.09 227.078C103.553 227.155 103.753 227.169 103.938 227.219C104.628 227.412 105.871 227.551 105.901 227.824C106.03 228.959 106.09 230.28 105.611 231.257C105.094 232.307 103.992 233.108 103.046 233.898C102.665 234.219 102.023 234.331 101.489 234.355C100.134 234.415 98.7694 234.449 97.4181 234.358C96.016 234.267 94.9991 234.784 94.0532 235.79C91.5667 238.439 88.9823 240.997 86.4789 243.628C85.6714 244.476 84.7593 244.848 83.6039 244.814C81.2897 244.75 78.9721 244.784 76.6579 244.676C75.9721 244.645 75.0937 244.473 74.6782 244.024C74.1073 243.395 74.5363 241.436 75.1579 240.79C77.5735 238.297 79.962 235.774 82.4248 233.324C88.3978 227.382 94.4282 221.493 100.394 215.544C103.759 212.189 107.033 208.743 110.374 205.365C112.337 203.382 114.246 201.317 116.405 199.564C117.141 198.966 118.557 199.182 119.668 199.105C119.79 199.095 120.06 199.598 120.067 199.868C120.155 202.821 120.256 205.774 120.212 208.723C120.202 209.392 119.79 210.189 119.313 210.689C117.003 213.115 114.604 215.456 112.236 217.831C109.503 220.571 106.769 223.311 104.036 226.057C103.763 226.331 103.509 226.625 103.09 227.078Z" fill="white"/>
<path d="M214.746 199.132C224.331 199.132 233.915 199.122 243.5 199.149C244.294 199.152 245.713 199.284 245.77 199.571C245.979 200.611 245.77 201.75 245.631 202.841C245.588 203.155 245.287 203.47 245.037 203.723C243.243 205.54 241.459 207.372 239.601 209.128C239.216 209.493 238.544 209.726 238.003 209.73C228.061 209.747 218.115 209.703 208.175 209.713C203.111 209.716 198.047 209.804 192.983 209.855C191.368 209.868 189.983 209.486 188.838 208.166C187.402 206.51 185.76 205.034 184.219 203.466C183.662 202.902 183.199 200.209 183.675 199.635C183.942 199.318 184.567 199.176 185.033 199.169C188.827 199.128 192.621 199.135 196.415 199.135C202.527 199.132 208.635 199.135 214.746 199.132Z" fill="white"/>
<path d="M171.865 199.149C174.973 198.193 177.392 200.081 179.865 202.635C187.534 210.561 195.433 218.26 203.189 226.098C204.264 227.183 205.379 227.473 206.828 227.412C210.017 227.274 213.216 227.284 216.409 227.233C217.402 227.217 217.804 227.69 217.872 228.69C217.977 230.19 217.581 231.379 216.433 232.419C214.804 233.892 213.348 235.558 211.713 237.017C211.142 237.524 210.264 237.909 209.507 237.946C207.118 238.061 204.713 238.058 202.321 237.943C201.561 237.906 200.639 237.561 200.108 237.037C190.267 227.274 180.466 217.466 170.669 207.652C169.341 206.328 168.132 204.882 166.781 203.585C165.652 202.5 165.774 201.196 165.99 199.906C166.044 199.598 166.74 199.21 167.162 199.183C168.514 199.091 169.875 199.149 171.865 199.149Z" fill="white"/>
<path d="M225.527 169.328C226.169 171.649 224.841 173.459 222.959 175.287C216.459 181.611 210.091 188.071 203.696 194.507C202.844 195.361 201.912 195.807 200.719 195.767C198.01 195.679 195.3 195.595 192.591 195.534C191.709 195.513 191.307 195.084 191.169 194.243C190.936 192.824 191.145 191.662 192.27 190.557C197.686 185.24 203.017 179.834 208.395 174.476C209.834 173.04 211.371 171.692 212.8 170.247C213.949 169.081 213.915 168.709 212.797 167.567C211.652 166.399 210.503 165.23 209.324 164.091C208.608 163.405 208.53 162.79 209.273 162.061C211.158 160.216 213.02 158.348 214.875 156.473C215.608 155.726 216.287 155.692 217.027 156.459C219.635 159.159 222.273 161.831 224.851 164.561C225.223 164.956 225.435 165.608 225.5 166.165C225.604 167.074 225.527 168 225.527 169.328Z" fill="white"/>
<path d="M247.817 230.785C246.459 230.785 245.101 230.771 243.742 230.791C242.793 230.805 242.391 230.369 242.334 229.423C242.249 228.065 242.614 227.004 243.631 226.004C249.601 220.116 255.503 214.156 261.442 208.241C264.296 205.4 267.182 202.585 270.077 199.785C270.398 199.477 270.898 199.197 271.32 199.187C274.273 199.112 277.226 199.092 280.175 199.116C280.479 199.119 281.006 199.481 281.043 199.731C281.229 200.987 281.421 202.292 280.408 203.356C280.05 203.731 279.692 204.109 279.327 204.477C271.05 212.758 262.759 221.021 254.513 229.332C253.479 230.376 252.415 230.954 250.932 230.825C249.901 230.737 248.854 230.808 247.817 230.808V230.785Z" fill="white"/>
<path d="M254.567 234.395C260.32 234.395 266.074 234.382 271.824 234.409C272.611 234.412 273.817 234.017 274.02 235.044C274.226 236.091 274.226 237.585 273.624 238.318C271.888 240.436 269.837 242.308 267.827 244.186C267.425 244.564 266.655 244.686 266.05 244.693C260.425 244.76 254.797 244.811 249.168 244.808C242.905 244.804 236.641 244.757 230.378 244.679C229.692 244.669 228.486 244.395 228.429 244.081C228.26 243.128 228.165 241.777 228.702 241.149C230.621 238.912 232.78 236.875 234.932 234.851C235.334 234.473 236.111 234.345 236.716 234.341C242.665 234.307 248.614 234.321 254.567 234.321V234.395Z" fill="white"/>
<path d="M240.188 146.956C240.188 153.699 240.168 160.439 240.205 167.182C240.209 168.348 239.851 169.206 239.006 170.023C237.232 171.746 235.536 173.554 233.861 175.375C232.631 176.713 231.104 176.429 229.624 176.203C229.334 176.159 228.972 175.422 228.952 174.993C228.871 173.439 228.911 171.878 228.928 170.321C228.996 164.054 229.101 157.787 229.121 151.523C229.128 150.186 229.492 149.169 230.479 148.243C232.283 146.55 233.986 144.75 235.729 142.993C236.557 142.162 238.533 141.692 239.492 142.223C239.823 142.405 240.1 142.959 240.128 143.365C240.212 144.557 240.158 145.76 240.158 146.956H240.188Z" fill="white"/>
<path d="M214.58 213.287C219.57 213.291 224.56 213.264 229.55 213.314C230.32 213.321 231.712 213.591 231.749 213.875C231.888 214.956 231.766 216.159 231.394 217.189C231.134 217.916 230.324 218.45 229.736 219.044C228.449 220.352 227.199 221.706 225.82 222.916C225.269 223.395 224.432 223.794 223.719 223.801C217.732 223.872 211.746 223.824 205.756 223.855C204.374 223.862 203.58 222.963 202.742 222.135C201.324 220.73 200.036 219.186 198.557 217.858C197.313 216.743 197.472 215.352 197.492 213.99C197.496 213.754 198.32 213.338 198.776 213.328C201.486 213.26 204.202 213.291 206.918 213.287C209.472 213.287 212.026 213.287 214.58 213.287Z" fill="white"/>
<path d="M270.898 230.78C267.665 230.78 264.432 230.773 261.202 230.783C260.32 230.787 259.904 230.395 259.844 229.496C259.752 228.155 260.006 227.037 261.08 226.06C262.79 224.503 264.33 222.76 266.04 221.202C266.577 220.716 267.428 220.32 268.138 220.32C274.361 220.324 280.584 220.415 286.807 220.51C288.242 220.53 289.077 222.712 287.965 223.993C285.989 226.287 283.84 228.432 281.661 230.54C281.263 230.925 280.398 230.922 279.746 230.932C276.796 230.969 273.847 230.949 270.898 230.949V230.78Z" fill="white"/>
<path d="M326.979 230.8C326.979 228.848 326.898 226.885 327.02 224.939C327.067 224.219 327.425 223.388 327.912 222.854C329.473 221.148 331.206 219.601 332.777 217.905C333.946 216.645 335.358 216.783 336.767 217.02C337.071 217.071 337.473 217.78 337.476 218.192C337.523 226.449 337.523 234.709 337.523 242.966C337.523 244.473 337.283 244.621 335.78 244.733C334.267 244.848 333.094 244.398 332.084 243.236C330.699 241.645 329.148 240.192 327.767 238.594C327.341 238.101 327.064 237.327 327.03 236.669C326.935 234.716 326.996 232.76 326.996 230.8H326.979Z" fill="white"/>
<path d="M119.997 195.817C117.966 195.723 115.936 195.618 113.905 195.537C113.084 195.506 112.679 195.138 112.615 194.3C112.486 192.679 112.777 191.311 114.064 190.094C117.051 187.27 119.919 184.324 122.801 181.392C123.581 180.601 124.432 180.172 125.554 180.213C128.382 180.307 131.213 180.378 134.044 180.439C134.919 180.459 135.324 180.851 135.395 181.743C135.514 183.26 135.176 184.483 133.997 185.601C131.132 188.317 128.324 191.104 125.622 193.979C124.361 195.321 123.01 196 121.196 195.784C120.801 195.733 120.399 195.773 120 195.773C119.997 195.79 119.997 195.804 119.997 195.817Z" fill="white"/>
<path d="M116.294 238.02C114.544 237.926 112.79 237.821 111.04 237.75C110.223 237.716 109.78 237.365 109.726 236.527C109.682 235.892 109.544 235.26 109.537 234.622C109.51 231.399 109.452 228.169 109.554 224.946C109.577 224.213 110.05 223.365 110.567 222.801C112.047 221.186 113.726 219.757 115.192 218.128C116.337 216.855 117.692 216.625 119.202 216.949C119.55 217.024 120.027 217.628 120.033 217.993C120.148 224.176 120.192 230.362 120.266 236.544C120.28 237.568 119.807 237.997 118.81 237.966C117.973 237.939 117.135 237.959 116.297 237.959C116.297 237.98 116.294 238 116.294 238.02Z" fill="white"/>
<path d="M86.5239 153.608C88.561 153.608 90.5982 153.632 92.6353 153.602C93.7029 153.585 94.1083 154.044 94.1657 155.105C94.2468 156.679 93.8786 157.956 92.6522 159.061C90.9664 160.585 89.4597 162.311 87.7739 163.835C87.2063 164.348 86.3245 164.791 85.5847 164.794C81.1928 164.821 76.8009 164.72 72.4124 164.629C72.1151 164.622 71.6995 164.409 71.5475 164.166C71.1083 163.439 71.4495 161.318 72.0948 160.662C74.1995 158.531 76.2941 156.385 78.4732 154.331C78.936 153.895 79.7502 153.669 80.4157 153.642C82.4495 153.554 84.4867 153.608 86.5239 153.608Z" fill="white"/>
<path d="M331.284 195.773C329.902 195.696 328.382 195.679 326.879 195.493C326.254 195.415 325.544 195.101 325.091 194.672C323.064 192.75 321.129 190.736 319.139 188.78C318.544 188.196 318.591 187.726 319.162 187.165C321.156 185.202 323.135 183.226 325.095 181.233C325.726 180.594 326.264 180.527 326.916 181.199C330.223 184.608 333.554 187.986 336.855 191.402C337.838 192.419 337.625 193.706 337.355 194.912C337.294 195.182 336.693 195.476 336.318 195.506C334.689 195.645 333.054 195.689 331.284 195.773Z" fill="white"/>
<path d="M75.8033 223.858C78.3574 223.858 80.9114 223.881 83.4621 223.848C84.5972 223.831 84.9992 224.324 85.0229 225.432C85.0499 226.723 84.658 227.75 83.7324 228.645C82.0972 230.223 80.5195 231.865 78.8945 233.456C77.533 234.794 74.0871 234.821 72.7425 233.483C70.8776 231.625 69.0465 229.733 67.2155 227.841C66.6074 227.212 66.2763 224.959 66.7999 224.351C67.0803 224.02 67.6817 223.824 68.1445 223.814C70.6952 223.766 73.2493 223.79 75.8033 223.79V223.858Z" fill="white"/>
<path d="M197.97 269.041C203.723 269.041 209.477 269.027 215.227 269.054C216.014 269.058 217.22 268.662 217.423 269.69C217.629 270.74 217.629 272.23 217.027 272.963C215.291 275.081 213.24 276.953 211.23 278.831C210.828 279.21 210.058 279.331 209.453 279.338C203.828 279.406 198.2 279.453 192.571 279.453C186.308 279.45 180.044 279.402 173.781 279.325C173.098 279.315 171.889 279.041 171.831 278.727C171.663 277.774 171.568 276.423 172.105 275.794C174.024 273.558 176.183 271.521 178.335 269.497C178.737 269.119 179.514 268.994 180.119 268.987C186.068 268.953 192.021 268.967 197.97 268.967V269.041Z" fill="white"/>
</svg>
