<svg width="388" height="420" viewBox="0 0 388 420" fill="none" xmlns="http://www.w3.org/2000/svg">
<path d="M212.675 109.984C212.896 109.49 213.473 109.267 213.971 109.478L230.477 116.484C230.985 116.7 231.222 117.287 231.007 117.796L222.091 138.8C221.881 139.293 221.32 139.534 220.818 139.345L201.681 132.133C200.947 131.857 200.797 130.873 201.372 130.341C206.679 125.43 209.122 117.908 212.675 109.984Z" fill="white"/>
<path d="M172.723 109.984C172.501 109.49 171.925 109.267 171.426 109.478L154.921 116.484C154.412 116.7 154.175 117.287 154.391 117.796L163.307 138.8C163.516 139.293 164.078 139.534 164.58 139.345L183.717 132.133C184.45 131.857 184.601 130.873 184.026 130.341C178.719 125.43 176.275 117.908 172.723 109.984Z" fill="white"/>
<path fill-rule="evenodd" clip-rule="evenodd" d="M250 312H135L156.607 244.246C158.563 237.471 164.206 229 169.683 229H215.317C222.619 229 226.437 237.471 228.393 244.246C230.35 251.022 250 312 250 312ZM161 295.002H224C224 295.002 213.235 259.002 212.163 255.002C211.091 251.002 209 246.001 205 246.001H180C177 246.001 173.909 251.002 172.837 255.002L161 295.002Z" fill="white"/>
<path fill-rule="evenodd" clip-rule="evenodd" d="M132 129H253C254.105 129 255 129.895 255 131V244C255 245.105 254.105 246 253 246H132C130.895 246 130 245.105 130 244V131C130 129.895 130.895 129 132 129ZM231 148H154C151.239 148 149 150.239 149 153V222C149 224.761 151.239 227 154 227H231C233.761 227 236 224.761 236 222V153C236 150.239 233.761 148 231 148Z" fill="white"/>
<circle cx="209.5" cy="188.5" r="11.5" fill="white"/>
<circle cx="175.5" cy="188.5" r="11.5" fill="white"/>
</svg>
