<svg width="388" height="420" viewBox="0 0 388 420" fill="none" xmlns="http://www.w3.org/2000/svg">
<path d="M282.578 167.324C282.578 222.068 247.49 266.774 197.638 270.395C171.953 273.125 152.392 259.821 142.105 245.882C125.909 259.439 119.75 273.507 119.273 274.649C117.115 279.794 111.209 282.301 106.003 280.142C100.824 278.014 98.3478 272.108 100.446 266.932C107.939 248.547 141.787 199.618 221.611 199.618C224.405 199.618 226.692 197.331 226.692 194.537C226.692 191.743 224.405 189.456 221.611 189.456C180.145 189.456 150.898 201.777 130.642 216.287C130.419 214.128 130.165 212 130.165 209.78C130.165 176.122 157.473 148.814 191.128 148.814H216.534C236.662 148.814 254.284 138.145 264.128 121.03C266.257 117.284 271.338 117.443 273.115 121.412C279.148 134.875 282.578 151.385 282.578 167.324Z" fill="white"/>
</svg>
