<svg width="388" height="420" viewBox="0 0 388 420" fill="none" xmlns="http://www.w3.org/2000/svg">
<path d="M194.365 148.726C193.963 148.76 193.635 148.76 193.23 148.726C192.385 148.652 191.578 148.426 190.821 148.044L170.909 200.22C171.47 200.399 172.034 200.574 172.601 200.743C179.456 202.78 186.588 203.814 193.797 203.814C201.007 203.814 208.138 202.78 214.993 200.743C215.561 200.574 216.128 200.399 216.689 200.22L196.777 148.044C196.02 148.426 195.209 148.652 194.365 148.726Z" fill="white"/>
<path d="M223.331 219.861C223.733 219.949 224.139 219.959 224.548 219.895C224.983 219.824 225.399 219.665 225.774 219.425C226.122 219.202 226.423 218.922 226.662 218.587C227.068 218.03 227.284 217.371 227.284 216.682C227.284 215.162 226.206 213.824 224.72 213.5C224.494 213.452 224.26 213.429 224.031 213.429C223.855 213.429 223.679 213.442 223.507 213.469C223.068 213.54 222.656 213.699 222.277 213.942C221.933 214.165 221.632 214.446 221.392 214.78C220.987 215.338 220.774 215.996 220.774 216.682C220.774 218.199 221.848 219.537 223.331 219.861Z" fill="white"/>
<path d="M194.358 141.709C194.247 141.56 194.057 141.422 193.797 141.422C193.54 141.422 193.348 141.56 193.236 141.709L193.115 142.037C193.111 142.064 193.108 142.087 193.108 142.111C193.108 142.158 193.115 142.212 193.132 142.273C193.196 142.537 193.446 142.8 193.797 142.8C194.152 142.8 194.402 142.537 194.466 142.273C194.48 142.212 194.486 142.158 194.486 142.111C194.486 142.087 194.486 142.064 194.483 142.037L194.358 141.709Z" fill="white"/>
<path d="M191.902 131.919C192.521 131.746 193.163 131.777 193.76 132.003C194.5 132.287 195.088 132.841 195.413 133.567C195.72 134.246 195.757 135 195.527 135.703C195.548 135.706 195.565 135.713 195.585 135.719C196.845 136.071 197.963 136.787 198.808 137.76C200.24 136.909 201.453 135.699 202.304 134.243C202.558 133.811 202.781 133.351 202.967 132.882C203.419 131.73 203.649 130.52 203.649 129.287C203.649 124.939 200.767 121.172 196.774 119.898V121.223C196.774 122.865 195.44 124.199 193.798 124.199C192.159 124.199 190.825 122.865 190.825 121.223V119.898C186.831 121.172 183.946 124.939 183.946 129.287C183.946 132.652 185.629 135.726 188.456 137.557L189.919 133.723C190.254 132.848 190.997 132.172 191.902 131.919Z" fill="white"/>
<path d="M147.25 194.324C145.453 194.324 143.99 192.862 143.99 191.064C143.99 189.267 145.453 187.807 147.25 187.807C149.044 187.807 150.507 189.267 150.507 191.064C150.507 192.862 149.044 194.324 147.25 194.324ZM274.024 225.061L251.261 185.632L249.771 187.169L249.747 187.128C242.571 194.071 234.298 199.557 225.125 203.436C224.886 203.537 224.642 203.639 224.402 203.74L225.899 207.669C230.109 208.537 233.233 212.26 233.233 216.682C233.233 218.679 232.602 220.578 231.429 222.155L234.321 229.73C234.605 230.473 234.581 231.28 234.257 232.003C233.933 232.73 233.345 233.287 232.602 233.571C232.281 233.693 231.943 233.757 231.595 233.764L234.321 240.905C234.605 241.649 234.582 242.456 234.257 243.179C233.933 243.905 233.345 244.463 232.602 244.747C232.264 244.875 231.906 244.939 231.541 244.939C230.318 244.939 229.2 244.172 228.764 243.027L222.146 225.693C217.946 224.821 214.825 221.098 214.825 216.682C214.825 214.689 215.457 212.794 216.622 211.22L214.99 206.946C208.129 208.814 201.007 209.764 193.798 209.764C186.588 209.764 179.47 208.814 172.605 206.946L158.835 243.027C158.399 244.172 157.281 244.939 156.054 244.939C155.69 244.939 155.335 244.875 154.99 244.743C154.254 244.463 153.666 243.905 153.342 243.179C153.017 242.456 152.994 241.649 153.277 240.905L156 233.764C155.656 233.757 155.315 233.693 154.99 233.568C154.254 233.287 153.666 232.73 153.342 232.003C153.017 231.28 152.994 230.473 153.277 229.73L163.196 203.74C162.953 203.639 162.71 203.537 162.473 203.436C161.548 203.047 160.602 202.625 159.652 202.176C159.105 203.02 158.173 203.534 157.152 203.534C156.683 203.534 156.213 203.419 155.794 203.203C154.335 202.453 153.761 200.655 154.511 199.199L157.068 194.223C157.43 193.52 158.044 193 158.798 192.757C159.551 192.517 160.359 192.584 161.065 192.949C162.504 193.693 163.085 195.432 162.396 196.868C163.362 197.321 164.342 197.75 165.325 198.159L186.305 143.193C186.085 143.074 185.865 142.949 185.652 142.821C180.93 139.97 178 134.784 178 129.287C178 121.652 183.494 115.172 190.825 113.77V106.199C190.825 104.561 192.159 103.226 193.798 103.226C195.44 103.226 196.774 104.561 196.774 106.199V113.77C204.102 115.172 209.598 121.652 209.598 129.287C209.598 131.328 209.21 133.321 208.443 135.209C208.18 135.858 207.869 136.497 207.521 137.108C206.048 139.682 203.875 141.791 201.291 143.189L222.271 198.159C231.801 194.199 240.565 188.182 247.727 180.672C247.865 180.524 247.997 180.372 248.136 180.223L205.7 106.72C200.382 97.5101 187.085 97.5101 181.767 106.72L113.443 225.061C108.125 234.274 114.774 245.787 125.413 245.787H262.058C272.693 245.787 279.342 234.274 274.024 225.061Z" fill="white"/>
<path d="M182.633 259.92C184.758 260.77 185.268 262.725 184.503 264.595L165.548 312.705C164.868 314.32 163.848 315.255 162.148 315.255C160.363 315.255 159.343 314.32 158.663 312.705L139.708 264.595C138.943 262.725 139.453 260.77 141.578 259.92C143.533 259.07 145.573 259.75 146.253 261.96L162.148 303.95L177.958 261.96C178.638 259.75 180.678 259.07 182.633 259.92ZM198.393 259.58C200.603 259.58 201.878 261.11 201.878 263.32V311.26C201.878 313.47 200.603 315 198.393 315C196.268 315 194.908 313.47 194.908 311.26V263.32C194.908 261.11 196.268 259.58 198.393 259.58ZM219.311 259.58C221.521 259.58 222.796 261.11 222.796 263.32V311.26C222.796 313.47 221.521 315 219.311 315C217.186 315 215.826 313.47 215.826 311.26V263.32C215.826 261.11 217.186 259.58 219.311 259.58ZM240.229 259.58C242.439 259.58 243.714 261.11 243.714 263.32V311.26C243.714 313.47 242.439 315 240.229 315C238.104 315 236.744 313.47 236.744 311.26V263.32C236.744 261.11 238.104 259.58 240.229 259.58Z" fill="white"/>
</svg>
