<svg width="388" height="420" viewBox="0 0 388 420" fill="none" xmlns="http://www.w3.org/2000/svg">
<path d="M251.625 211.682C257.567 204.057 263.55 196.463 269.473 188.818C272.145 185.361 274.864 181.939 277.54 178.486C277.918 177.997 278.554 177.47 278.175 176.774C277.858 176.189 277.158 176.5 276.638 176.497C272.033 176.483 267.429 176.47 262.824 176.497C262.702 176.541 262.587 176.595 262.473 176.645C260.976 176.638 259.476 176.625 257.979 176.615C249.675 187.294 241.381 197.973 233.074 208.645C225.652 218.179 218.216 227.703 210.787 237.23C209.483 237.415 208.976 238.321 208.567 239.314C208.243 238.784 207.905 238.263 207.52 237.774C202.138 230.959 196.783 224.125 191.405 217.304C190.979 216.76 190.503 216.395 189.824 216.29C189.76 216.263 189.692 216.243 189.625 216.226C189.179 216.152 188.736 216.013 188.29 216.013C182.618 216.02 176.946 216.044 171.277 216.074C170.922 216.078 170.567 216.172 170.212 216.226C170.402 216.571 170.547 216.953 170.783 217.26C178.503 227.267 186.371 237.165 193.878 247.328C195.942 250.122 198.101 251.138 201.3 250.584C202.783 250.584 204.266 250.584 205.753 250.584C205.449 250.554 205.148 250.524 204.844 250.49C205.148 250.503 205.452 250.53 205.753 250.584C210.402 250.601 215.047 250.622 219.692 250.618C220 250.618 220.3 250.459 220.604 250.375C221.324 250.165 221.915 249.824 222.385 249.186C224.422 246.412 226.591 243.74 228.709 241.034C236.361 231.26 243.996 221.473 251.625 211.682Z" fill="white"/>
<path d="M134.209 208.96C130.669 204.47 127.152 199.96 123.601 195.48C122.564 194.169 122.54 193.632 123.408 192.51C125.773 189.46 128.135 186.409 130.523 183.379C131.848 181.703 133.226 180.064 134.456 178.314C135.135 177.345 134.888 176.77 133.807 176.774C128.74 176.797 123.675 176.673 118.608 176.835C118.601 176.875 118.594 176.912 118.588 176.95C118.513 176.946 118.436 176.946 118.361 176.943C118.351 176.956 118.341 176.97 118.331 176.987C118.212 176.902 118.067 176.828 117.875 176.764C116.547 176.855 115.202 176.574 113.881 176.912C98.8273 196.311 83.7733 215.706 68.7294 235.112C65.0267 239.885 61.3577 244.683 57.6719 249.47C57.6111 249.574 57.5503 249.679 57.4895 249.787C57.7463 249.851 58.0064 249.97 58.2665 249.97C64.3645 250.007 70.4591 250.034 76.5571 250.044C76.9084 250.044 77.2598 249.902 77.6077 249.824C77.6787 249.814 77.7496 249.794 77.8172 249.774C78.5199 249.686 78.9794 249.24 79.3814 248.713C80.7294 246.936 82.128 245.199 83.476 243.426C88.4996 236.804 93.6078 230.243 98.6551 223.639C102.895 218.095 107.246 212.635 111.348 206.983C111.743 207.97 112.361 208.76 113.547 209.057C116.142 212.395 118.756 215.723 121.287 219.108C121.506 219.402 121.348 220.24 121.071 220.595C116.932 225.858 112.733 231.071 108.574 236.318C105.196 240.574 101.848 244.855 98.4861 249.125C98.3273 249.345 98.1652 249.561 98.0064 249.777C98.2632 249.845 98.5199 249.97 98.7767 249.97C104.773 250.007 110.767 250.034 116.76 250.041C117.104 250.044 117.452 249.885 117.797 249.801C117.966 249.662 118.135 249.52 118.307 249.382C119.087 249.459 119.449 248.892 119.858 248.382C122.466 245.108 125.04 241.811 127.638 238.534C132.263 232.709 136.841 226.848 141.459 221.02C142.341 219.909 142.317 219.304 141.442 218.172C139.047 215.088 136.628 212.024 134.209 208.96Z" fill="white"/>
<path d="M331.959 176.362C327.78 176.375 323.601 176.389 319.425 176.402C318.03 176.399 316.635 176.392 315.24 176.389C314.591 176.379 313.935 176.402 313.287 176.345C311.557 176.193 310.26 176.487 309.027 178.092C295.723 195.379 282.31 212.581 268.925 229.808C263.932 236.233 258.939 242.659 253.952 249.092C253.763 249.338 253.635 249.629 253.483 249.899C253.777 249.97 254.071 250.095 254.365 250.095C255.574 250.102 256.783 250.071 257.993 250.054C259.388 250.054 260.783 250.054 262.179 250.054C265.935 250.071 269.692 250.115 273.446 250.081C273.871 250.078 274.29 249.652 274.716 249.423C275.486 249.473 275.888 248.912 276.283 248.412C283.588 239.132 290.908 229.869 298.209 220.585C305.966 210.713 313.746 200.862 321.503 190.987C324.834 186.747 328.206 182.537 331.486 178.254C331.919 177.686 332.348 177.129 331.959 176.362Z" fill="white"/>
<path d="M294.088 192.099C297.54 187.724 301.007 183.352 304.422 178.947C304.865 178.376 305.682 177.866 305.29 176.899C305.081 176.774 304.875 176.534 304.665 176.534C299.253 176.555 293.841 176.602 288.429 176.643C288.334 176.639 288.24 176.632 288.148 176.629C287.172 176.599 286.192 176.619 285.226 176.518C284.189 176.41 283.523 176.801 282.885 177.626C268.081 196.727 253.253 215.808 238.429 234.893C234.692 239.7 230.959 244.507 227.23 249.322C227.044 249.562 226.942 249.866 226.804 250.143C227.105 250.2 227.405 250.308 227.706 250.308C230.358 250.322 233.007 250.312 235.655 250.308C238.77 250.318 241.888 250.342 245.003 250.325C245.817 250.322 246.635 250.187 247.449 250.112C247.517 250.112 247.584 250.102 247.652 250.075C248.652 249.974 249.142 249.193 249.679 248.511C257.655 238.349 265.662 228.207 273.652 218.055C280.463 209.403 287.27 200.747 294.088 192.099Z" fill="white"/>
<path d="M190.865 250.101C191.473 249.362 190.51 248.753 190.131 248.26C187.854 245.264 185.561 242.28 183.253 239.304C177.023 231.26 170.78 223.223 164.598 215.142C163.625 213.868 163.638 213.416 164.618 212.196C165.841 210.676 166.99 209.098 168.196 207.561C172.871 201.608 177.429 195.561 182.091 189.591C184.861 186.041 187.635 182.487 190.324 178.872C190.733 178.324 191.469 177.794 190.919 176.922C185.814 176.922 180.709 176.926 175.604 176.926C175.419 176.912 175.233 176.919 175.05 176.885C171.908 176.274 169.946 177.608 168.081 180.193C163.726 186.233 158.993 192.007 154.412 197.889C153.202 198.145 152.655 198.946 152.327 199.919C151.206 198.351 149.949 196.885 148.763 195.365C148.057 194.46 147.973 193.666 148.729 192.753C150.057 191.145 151.3 189.466 152.618 187.851C155.084 184.838 157.506 181.791 159.915 178.733C160.294 178.25 161.05 177.757 160.469 176.926C155.365 176.919 150.26 176.916 145.155 176.909C144.182 176.875 143.199 176.912 142.233 176.794C140.979 176.639 140.209 177.142 139.442 178.125C135.618 183.044 131.729 187.916 127.821 192.77C127.25 193.48 127.233 193.916 127.814 194.655C131.814 199.73 135.756 204.855 139.719 209.96C149.932 223.108 160.141 236.26 170.388 249.382C170.814 249.929 171.601 250.524 172.226 250.534C178.459 250.628 184.695 250.608 190.932 250.618C191.124 250.338 191.131 250.152 190.865 250.101Z" fill="white"/>
<path d="M193.466 215.45C198.578 215.443 203.692 215.436 208.804 215.43C209.703 215.088 210.351 214.463 210.936 213.71C212.449 211.767 213.953 209.818 215.442 207.859C222.051 199.169 228.689 190.507 235.355 181.862C236.29 180.653 237.284 179.473 238.088 178.169C238.652 177.24 238.388 176.767 237.341 176.771C232.787 176.781 228.233 176.713 223.682 176.805C223.669 176.852 223.659 176.892 223.652 176.936C223.648 176.936 223.645 176.936 223.645 176.936C223.55 176.933 223.456 176.929 223.361 176.929C223.341 176.967 223.321 177.007 223.297 177.044C223.185 176.953 223.057 176.858 222.888 176.764C221.554 176.838 220.209 176.608 218.878 176.889C208.861 189.686 198.844 202.487 188.699 215.45L193.466 215.45Z" fill="white"/>
</svg>
