<svg width="388" height="420" viewBox="0 0 388 420" fill="none" xmlns="http://www.w3.org/2000/svg">
<path d="M301.547 158.658V177.053C301.047 177.553 300.652 177.949 300.074 178.53H104.804V199.793H118.912V187.898C121.594 187.317 124.165 187.675 126.696 187.611C129.28 187.543 131.868 187.594 134.645 187.594V199.662H251.152V187.831H266.892V199.716H301.03C301.881 204.489 302.138 245.635 301.432 260.249H85.8037V241.513H281.236V220.229H266.993V233.425H251.449V220.364H134.939V233.283H119.199V220.135H85.6348V158.658H301.547Z" fill="white"/>
<path d="M146.181 279.467H128.401C127.333 273.842 128.587 268.517 129.526 262.916H146.999V278.22H183.904V297.136H146.181V279.467Z" fill="white"/>
<path d="M257.78 279.473H240.249V296.693C239.942 296.977 239.82 297.125 239.668 297.223C239.526 297.311 239.347 297.395 239.185 297.395C227.29 297.402 215.391 297.402 203.304 297.402V278.733C203.233 278.811 203.337 278.652 203.483 278.551C203.618 278.453 203.797 278.362 203.959 278.362C215.854 278.352 227.753 278.352 239.854 278.352V262.764C242.908 262.561 245.82 262.7 248.716 262.673C251.675 262.646 254.631 262.666 257.78 262.666V279.473Z" fill="white"/>
<path d="M239.131 156.131H220.094V139.56C222.756 139.192 225.682 139.483 228.584 139.429C231.536 139.371 234.492 139.415 237.631 139.415V122.692C240.871 122.533 243.969 122.631 247.06 122.611C250.198 122.594 253.34 122.608 256.665 122.608V140.388C254.006 140.76 251.08 140.469 248.182 140.523C245.229 140.581 242.273 140.537 239.131 140.537V156.131Z" fill="white"/>
<path d="M128.174 140.73V122.805H146.931C147.38 125.264 147.043 128.007 147.103 130.72C147.164 133.487 147.117 136.261 147.117 139.224H164.779C165.296 142.072 164.961 144.818 165.019 147.528C165.08 150.298 165.032 153.068 165.032 156.031H147.333C146.833 153.761 147.198 151.193 147.13 148.67C147.063 146.088 147.117 143.501 147.117 140.73H128.174Z" fill="white"/>
<path d="M85.6245 279.28V262.861H104.381C104.831 265.321 104.493 268.064 104.55 270.777C104.611 273.544 104.564 276.317 104.564 279.28H85.6245Z" fill="white"/>
<path d="M300.347 279.379H282.796V262.804C285.475 262.46 288.404 262.73 291.309 262.679C294.262 262.629 297.215 262.666 300.347 262.666V279.379Z" fill="white"/>
<path d="M161.478 194.223H151.789V184.291C154.799 184.149 158.043 184.291 161.478 184.213V194.223Z" fill="white"/>
<path d="M234.367 184.429V194.125H224.482C224.252 191.111 224.444 187.865 224.367 184.429H234.367Z" fill="white"/>
</svg>
