<svg width="388" height="420" viewBox="0 0 388 420" fill="none" xmlns="http://www.w3.org/2000/svg">
<path d="M243.926 164.892L232.197 144.517L201.832 157.115L207.906 179.831L243.926 164.892ZM185.639 157.115L155.274 144.517L143.548 164.892L179.565 179.831L185.639 157.115ZM294.984 270.415L242.801 292.074C241.518 292.618 240.007 292.006 239.464 290.689C236.73 284.135 239.845 276.618 246.403 273.888L253.504 270.929L240.872 237.642C239.464 237.8 238.048 238.06 236.663 238.06C220.055 238.06 204.724 227.419 200.227 210.648L193.737 186.419L187.247 210.648C182.747 227.419 167.42 238.06 150.808 238.06C149.423 238.06 148.011 237.8 146.599 237.642L133.937 270.929L141.038 273.888C147.595 276.618 150.68 284.135 147.977 290.689C147.433 292.006 145.957 292.618 144.636 292.074L92.4872 270.415C91.1696 269.871 90.5581 268.358 91.102 267.04C93.8352 260.486 101.322 257.371 107.879 260.101L114.98 263.057L127.413 230.31C112.021 219.101 106.626 198.118 116.328 181.246L144.153 132.888C146.724 128.419 152.224 126.523 157.007 128.517L193.737 143.75L230.467 128.517C235.251 126.557 240.747 128.419 243.318 132.888L271.146 181.246C280.879 198.118 275.45 219.101 260.058 230.348L272.491 263.088L279.592 260.135C286.149 257.402 293.67 260.517 296.369 267.074C296.913 268.388 296.271 269.871 294.984 270.415Z" fill="white"/>
</svg>
