<svg width="388" height="420" viewBox="0 0 388 420" fill="none" xmlns="http://www.w3.org/2000/svg">
<path d="M301.249 281.345C301.259 281.341 301.265 281.341 301.269 281.341C301.276 281.331 301.279 281.321 301.286 281.314C301.272 281.325 301.262 281.331 301.249 281.345Z" fill="white"/>
<path d="M242.507 165.138C243.294 165.881 244.095 166.631 244.896 167.385C244.821 167.537 244.747 167.692 244.673 167.844C243.314 167.51 241.956 167.179 239.889 166.672C241.243 165.878 241.848 165.523 242.507 165.138ZM235.389 304.067C231.389 307.229 227.314 310.3 223.149 313.483C221.416 311.919 221.335 309.868 222.426 308.49C225.798 304.226 229.416 300.128 234.504 296.824C235.22 298.868 235.912 300.449 236.277 302.098C236.402 302.675 235.909 303.658 235.389 304.067ZM219.595 299.564C219.166 296.993 218.923 294.385 218.331 291.854C217.598 288.75 217.419 285.719 218.308 282.618C218.537 281.817 218.649 280.756 218.311 280.057C216.973 277.3 218.108 275.165 219.48 272.817C221.389 269.54 222.939 266.05 225.277 262.702C225.619 263.966 225.95 265.233 226.298 266.496C228.713 275.28 231.098 284.074 233.571 292.841C234.068 294.601 233.625 295.686 232.24 296.878C229.146 299.537 226.254 302.425 223.277 305.219C222.662 305.794 222.031 306.351 220.956 307.327C220.443 304.412 220 301.99 219.595 299.564ZM207.443 185.003C204.767 183.125 201.771 184.02 200.504 186.767C200.254 187.307 199.504 187.908 198.939 187.963C196.352 188.206 193.75 188.321 191.152 188.351C190.531 188.361 189.74 188.023 189.301 187.577C186.007 184.246 182.564 181.027 179.595 177.422C176.541 173.713 175.615 169.29 176.858 164.213C178.237 164.625 179.352 164.959 181.284 165.537C177.325 160.969 178.173 156.131 178.281 150.824C178.923 151.831 179.264 152.365 179.872 153.321C180.081 152.125 180.213 151.381 180.439 150.074C181.669 151.625 182.605 152.804 183.544 153.986C183.355 154.01 183.166 154.03 182.977 154.054C182.977 155 182.649 156.135 183.058 156.851C183.591 157.783 184.75 159.003 185.561 158.949C186.379 158.892 187.365 157.544 187.804 156.554C188.443 155.104 188.662 153.469 189.024 152.054C193.446 155.554 197.73 158.939 202.311 162.564C202.058 154.385 204.004 146.912 207.058 139.442C207.77 141.05 208.48 142.658 209.277 144.459C208.541 144.78 207.956 145.037 207.848 145.084C208.983 146.145 210.412 147.206 211.49 148.55C212.649 150 213.487 151.712 214.706 153.706C212.328 153.432 210.466 153.044 208.612 153.067C207.294 153.081 205.267 153.256 204.831 154.057C204.145 155.324 202.669 156.922 204.027 158.719C204.227 158.983 204.355 159.368 204.615 159.51C206.284 160.419 207.983 161.273 209.507 162.06C208.76 163.402 207.787 164.601 208 164.868C208.743 165.807 209.902 167.06 210.882 167.044C212.889 167.01 214.882 166.229 216.879 165.75C217.362 165.635 217.841 165.493 218.524 165.675C216.037 169.199 213.48 172.574 208.696 173.533C210.774 173.854 212.848 174.172 215.297 174.547C214.645 179.794 210.635 182.094 207.443 185.003ZM214.679 211.408C213.007 214.625 211.233 217.794 209.193 221.53C208.916 218.979 209.037 216.696 206.085 216.287C205.983 216.804 205.75 217.358 205.791 217.892C206.47 226.892 207.213 235.888 207.882 244.888C208.443 252.506 208.872 260.131 209.466 267.743C209.747 271.371 210.183 274.993 210.71 278.591C210.99 280.52 211.129 282.192 209.142 283.358C208.605 283.672 208.26 284.388 207.936 284.979C206.929 286.811 206.169 288.463 203.308 288.111C201.838 287.932 199.966 289.395 198.581 290.5C194.916 293.412 191.446 296.571 187.835 299.554C186.372 300.767 184.713 301.74 183.193 302.881C182.064 303.729 180.176 303.915 180.446 306.098C180.48 306.361 179.227 306.858 178.524 307.128C170.426 310.253 162.311 313.334 154.223 316.483C152.936 316.983 151.781 317.814 150.51 318.368C148.372 319.304 146.514 320.446 143.723 319.675C141.507 319.064 138.808 320.287 136.311 320.574C134.335 320.8 132.318 321.067 130.352 320.915C127.703 320.713 125.186 320.594 122.801 322.091C122.297 322.405 121.426 322.138 120.72 322.138L120.416 321.341C123.142 318.52 125.872 315.696 128.602 312.878C128.446 312.686 128.294 312.5 128.142 312.31C127.733 312.561 127.325 312.807 126.075 313.567C126.598 311.577 126.956 310.226 127.277 309.013C126.145 309.848 125.007 310.908 123.669 311.584C123.071 311.885 122.081 311.415 121.267 311.294C121.5 310.439 121.47 309.317 122.017 308.783C123.75 307.091 125.7 305.618 127.564 304.057C128.071 303.628 128.564 303.186 129.034 302.513C127.311 303.216 125.845 303.682 124.652 301.655C123.831 300.263 122.453 299.209 121.487 297.885C121.355 297.706 122.047 296.621 122.561 296.368C122.933 296.189 123.747 296.564 124.183 296.919C127.895 299.919 132.237 301.628 136.706 303.057C140.162 304.158 143.588 305.628 147.135 306.061C149 306.29 151.352 305 153.031 303.773C157.727 300.354 162.213 296.645 166.733 292.986C173.365 287.608 180.23 282.621 188.031 279.01C193.031 276.692 193.598 274.763 192.24 269.452C190.588 262.976 189.297 256.408 187.899 249.868C185.868 240.358 183.706 230.871 181.922 221.314C180.318 212.696 182.23 204.821 188.716 198.635C190.358 197.067 192.922 196.081 195.216 195.642C205.841 193.611 211.899 199.861 214.909 209.412C215.095 210.003 214.973 210.844 214.679 211.408ZM213.439 236.175C212.946 236.064 212.456 235.952 211.963 235.841C212.588 233.061 213.22 230.277 213.845 227.496C214.122 227.55 214.399 227.608 214.676 227.662C214.193 230.486 215.767 233.648 213.439 236.175ZM149.541 301.503C151.703 299.496 154.233 297.848 156.203 295.679C157.125 294.662 157.102 292.78 157.527 291.223C157.7 291.354 157.946 291.544 157.889 291.5C158.612 286.956 159.297 282.327 160.108 277.723C160.419 275.949 161.017 274.229 161.683 272.517C161.841 278.817 163.669 285.182 160.676 291.304C160.375 291.922 160.284 292.638 160.064 293.294C159.412 295.226 159.304 297.817 157.97 298.946C154.933 301.51 151.291 303.351 147.895 305.49C147.666 305.226 147.436 304.963 147.206 304.702C147.973 303.625 148.591 302.385 149.541 301.503ZM182.909 183.419C183.193 183.213 183.48 183.01 183.767 182.804C185.068 184.358 186.46 185.848 187.642 187.49C188.774 189.057 190.156 189.709 192.075 189.631C194.642 189.53 197.22 189.608 199.997 189.908C190.7 195.493 181.243 200.834 180.571 213.446C179.953 203.229 180.399 193.233 182.909 183.419ZM180.794 220.057C180.895 221.753 181.189 223.473 181.007 225.138C180.926 225.895 179.895 226.547 179.297 227.243C178.835 226.236 177.865 225.138 178.027 224.243C178.304 222.716 179.291 221.317 179.983 219.865C180.254 219.929 180.524 219.99 180.794 220.057ZM164.189 256.226C164.808 257.05 165.426 257.871 166.203 258.905C165.152 255.665 164.075 252.713 163.243 249.692C160.993 241.547 163.287 235.037 170.328 230.186C171.831 229.152 172.983 227.604 174.635 225.963C176.189 226.74 178.078 227.682 180.372 228.827C178.078 229.287 176.27 229.648 174.547 229.996C173.622 232.939 174.064 235.594 176.493 237.763C176.784 238.023 177.102 238.625 176.99 238.908C175.835 241.858 174.635 244.79 173.284 247.652C173.196 247.834 171.659 247.51 170.916 247.162C169.767 246.628 169.017 244.777 167.375 246.047C165.75 247.304 164.919 248.956 165.466 251.081C166.071 253.429 167.132 255.77 167.193 258.131C167.368 265.236 167.291 272.351 166.99 279.449C166.916 281.223 165.625 282.946 164.895 284.689C164.443 284.591 163.993 284.49 163.544 284.392C162.652 275.091 162.872 265.78 164.189 256.226ZM179.203 114.581C179.352 114.699 179.5 114.821 179.649 114.939C179.098 117.307 178.551 119.675 177.973 122.165C176.862 122.439 175.473 122.783 173.443 123.283C175.541 120.111 177.372 117.348 179.203 114.581ZM181.031 137.898C182.044 139.763 182.868 141.277 183.74 142.885C180.537 143.294 179.801 142.027 181.031 137.898ZM301.588 290.554C300.081 291.54 298.993 292.243 297.916 292.966C296.632 293.827 295.345 294.182 294.223 292.783C293.129 291.412 292.825 289.956 294.308 288.625C296.243 286.888 298.26 285.24 300.145 283.446C300.693 282.925 300.909 282.057 301.27 281.344C301.264 281.344 301.26 281.344 301.25 281.344C299.24 283.098 297.25 284.881 295.2 286.588C294.781 286.936 294.132 287.155 293.585 287.165C291.889 287.196 290.189 287.094 288.493 287.047C283.754 286.912 279.004 286.537 274.277 286.726C270.801 286.865 267.257 287.412 263.909 288.365C259.676 289.567 255.612 291.371 251.47 292.915C249.281 289.881 249.622 288.625 252.98 287.513C264.287 283.78 275.953 282.294 287.797 281.902C292.284 281.753 296.767 281.533 301.25 281.344C301.264 281.331 301.274 281.321 301.287 281.314C301.28 281.321 301.277 281.331 301.27 281.344C301.284 281.341 301.297 281.341 301.311 281.341C301.946 279.726 300.858 280.098 299.994 280.189C296.541 280.557 293.085 281.26 289.639 281.219C276.402 281.067 263.51 283.02 250.875 286.871C250.575 286.962 250.223 286.881 249.632 286.881C248.446 280.915 247.176 275.006 246.142 269.057C245.777 266.959 245.426 264.584 246.048 262.652C247.605 257.797 247.352 253.067 246.264 248.253C246.024 247.192 245.794 246.125 245.436 244.513C246.649 245.317 247.318 245.848 248.061 246.233C248.804 246.618 249.625 246.858 250.409 247.162C242.21 240.087 242.49 228.435 247.426 221.212C247.031 227.594 248.446 233.152 253.216 237.462C249.649 233.06 249.635 227.885 250.591 222.81C251.419 218.398 252.943 214.087 254.45 209.837C257.085 202.381 260.166 195.064 260.95 187.091C261.196 184.587 261.247 182.064 261.409 179.172C263.639 182.054 264.923 185.219 267.997 186.459C263.017 179.04 260.514 170.905 260.554 161.655C263.25 167.939 265.605 174.003 268.423 179.837C271.767 186.763 273.24 193.942 272.608 201.574C271.801 211.294 269.595 220.462 262.399 227.696C259.896 230.206 257.473 232.797 254.564 235.817C264.534 231.696 272.125 225.821 276.517 216.425C281.507 205.753 279.943 195.51 274.423 185.459C271.875 180.821 269.46 176.047 267.608 171.104C263.206 159.354 260.098 147.25 258.635 134.746C258.267 131.594 257.436 128.5 256.865 125.621C261.152 128.067 265.25 130.861 269.713 132.824C274.213 134.8 279.051 136.128 284.125 134.979C277.919 134.51 272.348 132.158 267.619 128.415C260.619 122.871 253.825 117.023 247.358 110.868C242.771 106.5 238.132 102.385 232.166 100.131C220.733 95.8138 209.2 94.7631 197.683 99.8172C193.787 101.527 190.004 103.486 186.183 105.364C174.639 111.04 162.899 116.354 151.649 122.557C145.406 126.003 139.666 130.577 134.281 135.304C129.504 139.503 125.994 144.844 124.625 151.358C122.551 161.209 126.923 168.375 136.527 170.466C137.081 170.587 137.683 170.483 138.264 170.483C137.642 169.736 137.021 169.449 136.368 169.283C130.912 167.898 128.064 164.476 128.848 158.881C129.389 155.006 130.338 150.787 132.433 147.594C143.291 131.047 158.274 119.668 177.173 113.574C177.291 113.533 177.473 113.696 177.855 113.861C177.419 114.611 176.987 115.321 176.585 116.05C174.909 119.087 172.875 121.989 171.656 125.202C169.375 131.212 165.254 135.662 160.602 139.793C159.439 140.824 158.362 141.946 157.243 143.027C157.412 143.229 157.581 143.435 157.75 143.638C160.943 141.422 164.135 139.206 167.872 136.614C164.125 146.702 158.686 154.672 150.146 160.51C152.325 160.118 154.385 159.55 156.321 158.699C159.899 157.125 163.389 155.344 166.96 153.756C167.49 153.523 168.321 153.783 168.919 154.037C169.064 154.098 169.031 155.364 168.767 155.51C165.473 157.331 166.818 159.645 168.284 161.614C170.284 164.304 170.466 167.06 169.896 170.219C169.105 174.574 168.885 179.033 168.044 183.375C166.149 193.189 163.129 202.56 156.51 210.645C159.091 208.608 161.676 206.574 163.784 204.912C164.206 208.591 164.372 212.821 165.274 216.891C165.919 219.814 167.581 222.385 171.098 223.071C172.875 223.415 173.426 226.158 172.122 227.655C171.45 228.425 170.588 229.081 169.71 229.625C161.771 234.543 160.348 241.783 162.291 250.25C162.581 251.516 163.132 252.841 162.99 254.071C162.287 260.266 161.527 266.459 160.524 272.608C159.771 277.226 158.598 281.78 157.656 286.368C156.973 289.712 156.088 292.908 153.585 295.469C151.46 297.641 149.524 300 147.49 302.26C145.531 304.439 144.423 304.645 142.764 302.175C140.578 298.915 137.993 298.831 134.639 299.662C133.115 300.04 131.233 299.669 129.696 299.125C128.095 298.557 126.693 297.408 125.25 296.446C123.869 295.523 122.51 294.878 120.943 296.016C119.419 297.118 119.21 298.581 119.335 300.385C119.443 301.946 119.325 303.729 118.659 305.098C115.402 311.797 111.96 318.405 108.575 325.043C108.909 325.077 109.24 325.108 109.575 325.141C112.943 318.655 116.308 312.172 119.676 305.689C120 305.736 120.328 305.783 120.656 305.827C120.656 306.584 120.926 307.483 120.612 308.067C118.558 311.875 116.169 315.513 114.304 319.402C113.412 321.266 112.754 323.243 112.068 325.378C124.531 326.513 137.321 327.104 150.362 327.104C188.152 327.104 223.862 322.141 255.5 313.327C255.487 313.246 255.463 313.172 255.45 313.091C255.311 312.334 255.916 311.354 256.385 310.608C256.737 310.054 257.419 309.702 257.97 309.28C258.602 308.79 259.254 308.321 259.899 307.844C260.352 308.618 260.808 309.391 261.264 310.162L261.669 309.875L263.423 311.013C277.115 306.831 289.98 301.908 301.841 296.344C301.838 295.496 301.838 294.648 301.835 293.8C301.831 292.827 301.693 291.854 301.588 290.554Z" fill="white"/>
<path d="M213.719 81.9398C218.392 80.6358 247.8 89.0412 257.405 94.879C241.398 94.2743 227.479 88.2439 213.719 81.9398ZM264.158 93.6493C260.844 91.4398 257.351 89.4837 253.858 87.5581C241.297 80.6324 227.696 77.5378 213.3 76.6797C210.713 76.9094 207.929 77.0175 205.196 77.4668C204.246 77.6256 203.061 78.4466 202.682 79.281C202.422 79.8621 203.115 81.2979 203.79 81.8114C206.54 83.8993 209.277 86.1256 212.334 87.6763C224.665 93.9263 237.706 98.075 251.463 99.6763C255.283 100.119 259.206 100.092 263.044 99.7946C264.365 99.6932 265.574 98.1155 266.834 97.2135C265.959 96.0006 265.327 94.4229 264.158 93.6493Z" fill="white"/>
<path d="M187.195 167.605C187.759 168.169 188.273 168.814 188.925 169.24C189.084 169.345 189.709 168.736 190.118 168.456C190.32 168.105 190.523 167.75 190.726 167.399C189.989 167.051 189.266 166.507 188.503 166.429C188.111 166.392 187.634 167.186 187.195 167.605Z" fill="white"/>
</svg>
