<svg width="388" height="420" viewBox="0 0 388 420" fill="none" xmlns="http://www.w3.org/2000/svg">
<path d="M295.077 219.757C296.111 204.28 289.638 192.145 278.885 181.763C271.006 174.152 263.226 166.439 255.486 158.693C238.503 141.696 221.631 124.591 204.591 107.652C195.523 98.6385 193.361 98.8648 184.223 107.939C159.692 132.297 135.337 156.841 110.408 180.791C97.4321 193.257 91.074 207.625 92.824 225.584C94.7699 245.551 101.375 263.686 113.74 279.571C132.074 303.128 156.388 316.324 185.908 318.706C213.469 320.932 238.24 312.885 259.459 294.693C282.486 274.949 294.04 249.841 295.077 219.757ZM192.229 322.328C156.702 321.52 127.361 305.97 106.473 275.361C93.5672 256.453 87.9963 235.135 89.6517 212.206C90.4861 200.679 95.6449 190.926 103.794 182.838C130.199 156.632 156.675 130.497 183.131 104.341C184.06 103.426 185.074 102.598 186.064 101.747C192.608 96.1182 198.033 96.2871 204.229 102.48C228.067 126.294 251.932 150.078 275.638 174.02C281.023 179.459 286.125 185.25 290.783 191.321C295.402 197.338 297.648 204.608 297.976 212.122C299.476 246.669 287.267 275.449 260.817 297.885C241.544 314.233 219.047 322.007 192.229 322.328Z" fill="white"/>
<path d="M157.628 230.074C156.594 227.98 156.168 226.216 155.084 225.074C150.601 220.344 145.996 215.716 141.273 211.223C138.655 208.73 135.54 208.503 132.857 211.108C128.091 215.736 123.405 220.456 118.915 225.348C116.195 228.314 116.509 231.956 119.185 234.388C121.557 236.544 125.3 236.355 128.009 233.817C130.29 231.676 132.553 229.5 134.645 227.176C136.398 225.23 137.705 225.398 139.415 227.26C141.702 229.753 143.966 232.466 146.78 234.213C148.567 235.321 151.58 235.554 153.597 234.861C155.259 234.294 156.266 231.797 157.628 230.074ZM271.357 230.311C270.466 228.115 270.239 226.385 269.266 225.355C264.631 220.432 259.952 215.53 254.966 210.976C252.293 208.537 249.037 208.436 246.205 211.27C241.689 215.787 237.114 220.25 232.672 224.838C230.02 227.578 230.026 231.456 232.445 233.956C234.847 236.442 238.695 236.483 241.58 233.895C243.614 232.071 245.591 230.155 247.395 228.101C249.58 225.615 251.482 225.304 253.797 227.976C255.756 230.236 257.736 232.709 260.236 234.192C262.08 235.287 265.03 235.679 267.03 235.013C268.803 234.422 269.949 231.939 271.357 230.311ZM220.476 251.324C218.905 249.432 217.77 247.368 216.043 246.142C213.628 244.426 210.945 245.182 208.884 247.149C204.543 251.297 200.293 255.547 196.087 259.834C194.455 261.5 193.287 261.547 191.594 259.763C187.732 255.696 183.685 251.801 179.631 247.919C176.216 244.649 172.749 244.466 169.972 247.23C167.178 250.01 167.341 253.527 170.591 256.892C174.31 260.74 178.047 264.584 181.955 268.24C184.158 270.297 184.374 271.817 182.036 273.963C178.286 277.405 174.78 281.108 171.188 284.72C167.449 288.48 167.013 291.665 169.81 294.574C172.864 297.753 176.219 297.598 180.026 293.926C183.878 290.206 187.688 286.439 191.374 282.561C193.131 280.706 194.455 280.696 196.216 282.527C200.016 286.48 203.918 290.334 207.851 294.155C211.378 297.581 215.317 297.719 218.175 294.649C220.513 292.142 220.091 288.453 216.976 285.25C213.239 281.412 209.516 277.561 205.618 273.895C203.547 271.953 203.32 270.53 205.503 268.476C209.493 264.723 213.344 260.804 217.08 256.794C218.347 255.439 219.094 253.601 220.476 251.324ZM194.05 312.145C149.087 312.172 110.016 280.696 101.084 236.601C98.9115 225.878 96.9115 214.76 101.357 204.159C103.837 198.25 106.817 192 111.229 187.54C136.466 162.024 162.182 136.983 187.773 111.817C193.013 106.665 196.175 106.628 201.422 111.817C212.283 122.547 223.026 133.395 233.81 144.203C247.263 157.679 260.574 171.301 274.199 184.605C284.702 194.861 289.493 207.162 288.52 221.665C287.28 240.165 281.868 257.382 270.753 272.355C254.425 294.344 232.82 307.807 205.341 311.162C201.594 311.618 197.813 311.824 194.05 312.145Z" fill="white"/>
</svg>
