<svg width="388" height="420" viewBox="0 0 388 420" fill="none" xmlns="http://www.w3.org/2000/svg">
<path d="M233.013 225.733C244.223 223.763 253.149 223.554 258.338 223.554C276.395 223.554 285.007 227.084 283.453 242.233C282.726 249.189 280.132 254.794 271 262.577L251.801 279.077C255.328 277.831 258.439 277.52 261.76 277.52H280.649L278.159 296.408H222.949L224.608 284.783C225.128 281.152 225.75 278.557 228.24 275.861L245.365 261.226C256.469 251.057 260.101 248.462 260.932 244.827C261.453 242.652 260.101 242.131 256.263 242.131C248.061 242.131 242.665 242.131 232.601 242.337L233.013 225.733Z" fill="white"/>
<path fill-rule="evenodd" clip-rule="evenodd" d="M203.598 126.111C203.567 126.165 203.537 126.219 203.507 126.27C203.723 126.355 203.939 126.439 204.159 126.52C204.175 126.476 204.192 126.436 204.213 126.392C204.007 126.297 203.8 126.206 203.598 126.111ZM157.699 292.27C157.219 293.094 156.73 293.915 156.263 294.743C156.091 295.047 156.003 295.395 155.817 295.686C154.679 297.476 153.554 299.273 152.371 301.034C151.013 303.054 149.628 305.051 148.213 307.03C146.392 309.571 144.02 311.304 140.919 312.01C139.554 312.321 138.24 312.662 136.824 312.284C135.395 311.905 134.175 311.186 133.196 310.138C131.209 308.02 130.071 305.382 128.892 302.773C128.625 302.182 128.263 301.625 128.02 301.02C127.243 299.088 126.348 297.182 125.784 295.189C125.263 293.355 124.723 291.493 124.841 289.507C124.905 288.419 124.581 287.307 124.398 286.213C124.267 285.426 124.047 284.652 123.936 283.861C123.851 283.243 123.507 282.821 123.115 282.388C120.8 279.851 118.422 277.361 116.199 274.743C114.246 272.439 112.74 269.824 111.48 267.067C110.726 265.419 109.882 263.811 109.064 262.192C107.192 258.48 105.963 254.537 104.98 250.517C104.594 248.956 104.5 247.317 104.273 245.713C104.257 245.598 104.284 245.469 104.24 245.368C103.544 243.699 103.706 241.902 103.513 240.165C103.253 237.753 103.108 235.328 102.946 232.905C102.834 231.284 102.713 229.662 102.726 228.04C102.74 226.385 102.909 224.733 103.023 223.081C103.088 222.155 103.172 221.233 103.273 220.314C103.392 219.243 103.496 218.165 103.689 217.108C103.807 216.463 103.632 216.003 103.209 215.54C102.577 214.844 101.814 214.436 100.888 214.388C100.436 214.365 100.084 214.304 99.7869 213.909C99.591 213.645 99.2667 213.449 98.9626 213.294C96.1417 211.861 93.3444 210.365 90.4694 209.047C89.1417 208.439 88.1957 207.358 86.9727 206.662C85.8545 207.456 85.6383 207.398 84.5167 206.638C83.6653 206.061 82.7194 205.611 81.7971 205.149C79.8376 204.165 77.8748 203.192 75.8984 202.25C73.841 201.27 71.7396 200.388 69.7092 199.361C68.4052 198.703 67.1653 197.902 65.9457 197.091C65.0673 196.51 64.9694 195.899 65.3815 194.77C68.3646 194.108 71.3308 193.287 74.3545 192.844C76.0707 192.594 77.4761 191.828 78.9761 191.159C80.7025 190.392 82.4423 189.649 84.1721 188.885C85.4423 188.331 86.689 187.709 87.9829 187.216C89.7126 186.561 91.466 185.959 93.2295 185.412C95.4727 184.716 97.7971 184.368 100.04 183.618C102.77 182.703 105.594 182.013 108.507 181.811C109.544 181.74 110.567 181.51 111.598 181.348C111.709 181.331 111.844 181.317 111.925 181.25C113.091 180.277 114.398 180.78 115.713 180.885C116.277 179.746 116.844 178.601 117.452 177.375C116.061 177.03 114.692 177.081 113.334 177.314C111.27 177.669 109.213 177.797 107.145 177.375C107.216 176.395 107.327 176.182 108.159 176.111C109.659 175.986 111.162 175.946 112.665 175.875C114.317 175.797 115.969 175.669 117.625 175.669C118.601 175.665 119.013 175.176 119.263 174.226C117.659 173.996 116.074 173.807 114.5 173.537C112.929 173.267 111.338 173.044 109.811 172.534C110.142 171.429 110.223 171.317 111.169 171.378C112.439 171.456 113.706 171.591 114.969 171.757C116.527 171.963 118.074 172.23 119.878 172.507C118.861 171.301 117.713 170.618 116.669 169.851C115.594 169.061 114.351 168.503 113.132 167.817C113.175 167.493 113.216 167.159 113.267 166.828C113.402 165.936 113.963 165.652 114.736 166.115C115.196 166.392 115.632 166.716 116.067 167.034C117.804 168.307 119.534 169.588 121.307 170.895C123.331 168.777 125.341 166.676 127.371 164.551C127.216 163.358 126.604 162.338 125.841 161.402C124.821 160.162 124.3 158.733 124.284 157.152C124.267 155.804 124.415 154.453 124.422 153.105C124.429 151.54 125.023 150.091 125.253 148.571C125.466 147.165 125.909 145.801 125.848 144.348C125.827 143.905 126.013 143.442 126.152 143.003C126.419 142.179 126.577 142.081 127.395 142.105C128.213 142.128 128.429 142.341 128.699 143.115C128.844 143.53 129.108 143.932 129.402 144.267C130.53 145.564 131.675 146.855 132.854 148.108C133.834 149.152 134.017 150.368 133.969 151.743C133.932 152.875 134.179 154.013 134.25 155.152C134.29 155.79 134.267 156.436 134.219 157.074C134.169 157.79 134.057 158.503 133.936 159.5C134.567 159.159 135.003 159.003 135.341 158.73C137.064 157.334 139.135 156.699 141.189 156.051C142.368 155.676 143.567 155.375 144.76 155.054C147.256 154.388 149.78 154.399 152.341 154.598C154.473 154.763 156.618 154.719 158.756 154.777C158.979 154.784 159.196 154.899 159.419 154.905C160.175 154.932 160.936 154.926 161.692 154.949C162.256 154.966 162.817 155.013 163.544 155.057C163.439 154.54 163.425 153.993 163.219 153.534C162.53 151.993 162.287 150.344 162.145 148.716C162.067 147.811 162.446 146.817 162.807 145.942C163.304 144.74 164 143.625 164.567 142.449C165.388 140.75 166.192 139.044 166.956 137.321C167.493 136.111 167.892 135.821 169.338 135.892C169.473 136.203 169.618 136.551 169.78 136.895C170.03 137.422 170.321 137.909 170.895 138.176C171.131 138.284 171.388 138.466 171.503 138.686C172.115 139.834 172.692 141 173.27 142.169C174.253 144.152 173.804 146.091 173.304 148.128C172.74 150.426 171.446 152.365 170.625 154.524C170.3 155.385 169.871 156.209 169.449 157.132C169.729 157.277 169.942 157.415 170.179 157.507C171.152 157.878 172.152 158.206 172.892 159C173.257 159.392 173.679 159.466 174.159 159.257C175.354 158.723 176.547 158.182 177.746 157.655C178.094 157.503 178.452 157.385 178.814 157.27C179.652 157.007 180.53 156.834 181.331 156.476C182.388 156.007 183.263 156.24 183.878 157.331C183.615 157.932 183.28 158.223 182.503 158.26C181.611 158.304 180.719 158.706 179.868 159.057C178.729 159.527 177.628 160.088 176.52 160.628C176.152 160.807 175.817 161.051 175.409 161.304C176.27 162.071 177.044 162.76 177.773 163.409C179.909 162.723 181.959 162.037 184.023 161.412C185.567 160.942 187.128 160.5 188.699 160.138C189.75 159.895 190.402 160.351 190.773 161.419C190.425 161.814 190.125 162.111 189.456 162.277C186.476 162.996 183.544 163.909 180.601 164.77C180.284 164.865 180 165.081 179.652 165.263C180.341 166.29 181.098 166.855 182.415 166.841C184.216 166.824 186.03 167.061 187.827 167.29C189.436 167.493 191.023 167.709 192.638 167.388C193.452 167.23 194.692 167.915 195.003 168.621C195.209 169.084 194.547 170.013 193.983 170.037C193.79 170.044 193.591 170.02 193.409 169.966C191.155 169.314 188.838 169.328 186.52 169.267C185.483 169.24 184.449 169.111 183.202 169.013C184.895 171.426 186.469 173.682 188.061 175.929C189.665 178.192 191.287 180.439 192.831 182.601C197.415 182.219 201.905 181.834 206.392 181.49C207.338 181.415 208.297 181.486 209.25 181.483C212.297 181.469 215.344 181.432 218.388 181.446C221.017 181.456 223.615 181.811 226.186 182.321C227.577 182.594 228.949 182.986 230.334 183.304C230.706 183.392 231.091 183.439 231.473 183.449C234.088 183.53 236.702 183.581 239.317 183.679C240.044 183.706 240.763 183.871 241.557 183.983C241.642 183.125 241.736 182.338 241.591 181.493C241.368 180.199 240.99 178.895 241.284 177.554C240.615 176.929 241.534 175.892 240.702 175.311C241.118 174.486 240.442 173.74 240.544 172.892C240.638 172.091 240.307 171.236 240.165 170.405C240.121 170.142 239.966 169.831 240.05 169.618C240.55 168.361 239.939 167.277 239.554 166.165C239.324 165.493 238.642 164.787 238.76 164.223C238.983 163.172 238.405 162.25 238.608 161.253C238.706 160.763 238.449 160.385 237.963 160.206C238.081 159.736 238.236 159.273 238.314 158.797C238.395 158.287 237.922 158.115 237.662 157.797C237.409 157.49 238.375 157.169 237.773 156.726C237.719 156.689 237.655 156.577 237.659 156.574C238.425 155.932 237.23 155.888 237.321 155.456C236.686 155.334 236.753 154.844 236.767 154.388C236.804 153.202 236.861 152.017 236.865 150.831C236.865 150.604 236.581 150.388 236.557 150.155C236.355 147.925 236.023 145.696 236.04 143.469C236.054 141.604 235.797 139.773 235.78 137.929C235.767 136.439 235.98 134.946 236.084 133.456C236.142 132.574 236.189 131.692 236.223 130.807C236.243 130.314 236.257 129.817 236.213 129.327C236.165 128.797 236.044 128.273 235.969 127.746C235.838 126.8 235.682 125.854 235.601 124.905C235.544 124.182 235.591 123.449 235.591 122.588C235.027 122.658 234.554 122.75 234.078 122.777C231.321 122.932 228.672 123.584 226.03 124.341C223.912 124.946 221.817 125.581 219.777 126.425C218.895 126.794 217.939 127.023 216.868 126.811C215.726 126.581 214.608 127.135 213.527 127.554C212.578 127.922 211.615 128.267 210.665 128.628C210.53 128.679 210.361 128.763 210.304 128.881C209.787 129.854 209.02 129.54 208.294 129.26C206.963 128.75 205.669 128.152 204.328 127.675C202.875 127.165 201.385 126.756 199.912 126.304C198.449 125.854 197.04 126.206 195.753 126.834C193.733 127.817 191.858 129.057 190.544 130.959C190.28 131.338 189.969 131.432 189.554 131.368C189.057 131.29 188.557 131.348 188.051 131.594C187.946 131.236 187.723 130.881 187.777 130.577C188.05 128.983 188.442 127.439 189.324 126.017C189.986 124.949 190.355 123.702 190.888 122.55C191.628 120.966 192.611 119.544 193.74 118.206C194.932 116.787 196.02 115.277 197.243 113.888C199.148 111.729 201.186 109.682 203.061 107.5C204.757 105.52 206.811 103.952 208.767 102.277C210.132 101.104 211.621 100.077 213.051 98.9794C213.875 98.3477 214.679 97.6923 215.503 97.0605C216.963 95.9355 218.713 95.3781 220.361 94.6281C221.513 94.1044 222.75 93.7531 223.871 93.1754C226.378 91.8882 229.094 91.3376 231.801 90.7193C232.135 90.6416 232.473 90.5639 232.929 90.4625C232.949 89.5065 232.966 88.5538 232.983 87.5977C233.003 86.5875 233.824 86.047 234.773 86.449C235.172 86.618 235.317 86.9524 235.311 87.3882C235.294 88.2734 235.304 89.1585 235.304 89.993C235.53 90.1146 235.628 90.2159 235.726 90.2159C237.827 90.2362 239.834 90.7936 241.871 91.2058C244.283 91.699 246.729 92.0166 249.158 92.4254C251.263 92.7801 253.229 93.5571 255.172 94.4186C258.996 96.118 262.577 98.172 265.615 101.094C267.175 102.594 268.841 103.986 270.351 105.537C271.746 106.976 273.04 108.52 274.294 110.084C275.692 111.831 277.077 113.598 277.969 115.682C278.557 117.061 279.111 118.456 279.692 119.838C279.993 120.547 280.297 121.253 280.642 121.942C280.871 122.405 280.878 122.811 280.588 123.243C280.283 123.692 279.892 123.55 279.456 123.534C278.425 123.5 277.52 123.172 276.598 122.736C275.246 122.098 273.746 122.213 272.294 122.084C268.564 121.753 265.351 123.199 262.243 124.979C261.419 125.452 260.631 125.895 259.658 125.571C259.337 125.463 259.013 125.304 258.75 125.091C257.827 124.351 256.76 124.108 255.618 124.061C255.429 124.05 255.196 124.104 255.06 124.013C253.405 122.929 251.446 123.013 249.621 122.686C246.817 122.179 243.966 122.047 241.104 122.287C240.118 122.368 239.121 122.3 238.111 122.3C238.006 123.358 237.898 124.3 237.834 125.243C237.807 125.652 237.824 126.081 237.922 126.476C238.175 127.517 238.527 128.533 238.76 129.577C238.878 130.121 238.905 130.713 238.837 131.263C238.652 132.756 238.273 134.233 238.199 135.726C238.128 137.179 238.334 138.645 238.415 140.104C238.442 140.564 238.452 141.02 238.476 141.476C238.577 143.584 238.669 145.692 238.794 147.797C238.939 150.182 239.087 152.571 239.283 154.952C239.415 156.564 239.601 158.175 239.827 159.78C240.054 161.381 240.354 162.973 240.635 164.564C240.719 165.017 240.794 165.49 240.973 165.905C241.777 167.736 242.091 169.645 242.142 171.638C242.165 172.665 242.466 173.682 242.608 174.709C242.878 176.655 243.185 178.598 243.358 180.554C243.469 181.848 243.381 183.158 243.381 184.469C244.989 185.25 246.584 185.652 248.236 185.834C248.506 185.865 248.81 185.702 249.081 185.588C249.962 185.216 251.317 185.672 251.658 186.473C252.054 187.408 251.658 188.209 250.702 188.547C249.071 189.118 247.527 189.848 246.206 191.023C245.554 191.601 244.753 192.013 244.037 192.49C244.361 193.537 244.709 194.655 245.057 195.777C245.091 195.888 245.104 196.003 245.131 196.118C245.635 198.199 247.243 198.996 249.104 199.206C251.172 199.436 253.206 199.115 254.902 197.729C255.371 197.344 255.844 196.922 256.195 196.429C256.962 195.361 257.54 194.185 257.804 192.878C257.935 192.223 258 191.618 257.598 190.99C257.239 190.425 257.655 189.8 258.337 189.827C258.973 189.854 259.543 190.081 259.895 190.682C260.402 191.55 260.655 192.479 260.368 193.463C259.908 195.02 259.334 196.537 258.3 197.831C257.625 198.665 255.53 200.027 254.456 200.273C253.331 200.533 252.206 200.844 251.067 200.963C249.581 201.118 248.057 201.027 246.662 200.493C245.131 199.908 243.844 198.908 243.25 197.287C242.878 196.277 242.614 195.226 242.293 194.196C242.229 193.983 242.125 193.783 242.006 193.503C239.503 194.733 237.054 195.946 234.601 197.138C233.598 197.628 232.584 198.084 231.57 198.54C228.719 199.814 225.868 201.088 223.01 202.351C221.324 203.098 219.641 203.854 217.942 204.567C215.935 205.408 213.973 206.361 211.787 206.733C210.55 206.942 209.351 207.385 208.138 207.733C207.952 207.787 207.773 207.868 207.611 207.969C206.888 208.402 206.172 208.844 205.422 209.304C205.78 210.425 206.094 211.621 206.537 212.763C207.473 215.165 207.8 217.682 208.138 220.209C208.452 222.581 208.844 224.936 209.195 227.3C209.239 227.604 209.263 227.915 209.256 228.226C209.216 230.179 209.158 232.131 209.121 234.084C209.097 235.236 209.192 236.395 209.091 237.54C208.763 241.31 208.388 245.081 207.253 248.713C206.445 251.287 205.445 253.8 204.611 256.368C203.361 260.202 201.054 263.463 199.023 266.878C197.858 268.841 196.682 270.794 195.145 272.49C193.874 273.895 192.594 275.294 191.27 276.645C190.128 277.81 189.081 279.01 188.591 280.621C188.368 281.354 188.027 282.054 187.722 282.767C187.108 284.213 186.905 285.713 186.922 287.29C186.942 288.983 186.766 290.679 186.672 292.371C186.614 293.449 186.543 294.523 186.486 295.601C186.479 295.756 186.462 295.932 186.523 296.06C187.131 297.368 186.929 298.797 187.172 300.162C187.236 300.527 187.209 300.959 187.07 301.3C186.503 302.675 186.327 304.135 186.104 305.581C185.817 307.466 184.898 308.915 183.506 310.223C181.395 312.206 178.925 313.138 176.118 312.888C172.476 312.567 169.155 311.412 166.51 308.638C165.074 307.131 164.006 305.425 163.003 303.652C161.77 301.469 160.564 299.267 159.8 296.865C159.614 296.277 158.777 295.915 159.192 295.121C159.01 295.033 158.706 294.979 158.662 294.844C158.415 294.057 157.797 293.388 157.898 292.49C158.03 292.527 158.158 292.564 158.324 292.608C158.125 291.915 158.125 291.915 157.699 292.27Z" fill="white"/>
</svg>
