<svg width="388" height="420" viewBox="0 0 388 420" fill="none" xmlns="http://www.w3.org/2000/svg">
<path d="M157.657 153.476C157.657 153.158 157.653 152.841 157.653 152.52C156.248 152.52 154.846 152.51 153.451 152.594C153.413 152.598 153.444 153.699 153.444 154.361C155.109 154.01 156.383 153.743 157.657 153.476ZM185.964 261.675C187.849 262.594 189.734 263.513 191.89 264.564C191.302 263.75 190.853 263.125 190.089 262.071C192.582 262.652 194.136 260.53 196.643 261.875C200.772 264.084 205.305 265.547 209.68 267.29C211.886 268.169 212.971 267.338 213.731 265.071C217.072 255.094 218.606 244.821 219.015 234.368C219.724 216.294 218.555 198.429 212.005 181.331C205.832 165.226 195.163 153.942 177.745 150.037C175.511 149.537 174.565 150.196 174.13 152.213C172.538 159.55 170.9 166.881 169.38 174.233C168.859 176.743 169.015 179.459 167.285 180.655C167.724 182.544 168.184 183.892 168.326 185.273C168.67 188.533 168.346 188.79 165.184 188.419C164.41 188.327 163.626 188.321 162.849 188.273C162.849 188.341 162.849 188.412 162.849 188.479C164.528 188.858 166.211 189.236 168.397 189.726C167.532 190.533 167.052 190.983 166.572 191.435C164.136 188.777 159.971 188.51 158.944 190.881H165.288C164.721 192.557 164.714 193.577 166.674 194.037C167.413 194.213 168.234 195.665 168.356 196.618C169.194 203.25 169.464 209.976 170.65 216.54C173.302 231.199 178.018 245.017 188.876 255.949C189.555 256.631 189.826 257.719 190.522 259.084C187.542 258.31 185.194 257.702 182.197 256.925C183.488 255.976 184.224 255.435 185.005 254.858C181.765 252.719 181.765 252.719 179.718 255.574C179.569 255.777 179.397 255.966 179.241 256.169C177.44 258.561 172.089 260.601 169.714 259.013C166.663 256.969 164.204 254.044 161.491 251.5C161.663 251.29 161.836 251.077 162.005 250.868C162.893 250.773 163.782 250.675 164.647 250.581C164.758 249.121 162.424 246.469 160.68 246.469C156.684 246.469 155.454 243.716 154.261 240.908C155.636 240.547 156.859 240.229 158.082 239.908C158.066 239.594 158.049 239.283 158.032 238.969C157.255 238.523 156.528 237.915 155.69 237.665C153.015 236.871 150.954 235.199 149.565 232.922C148.991 231.979 149.359 230.456 149.299 229.199C149.549 229.138 149.802 229.081 150.052 229.023C149.501 228.696 148.947 228.365 148.366 228.017C148.846 226.898 149.292 225.875 149.819 224.655C152.761 225.196 155.609 225.716 158.603 226.263C158.603 225.55 158.782 224.567 158.576 224.479C154.859 222.858 151.099 221.344 147.106 219.713C147.599 219.243 148.011 218.753 148.515 218.388C151.059 216.544 151.157 215.121 148.623 213.442C147.417 212.642 147.883 212.006 148.14 210.932C148.738 208.432 148.991 205.844 149.292 203.283C149.468 201.79 149.086 200.118 149.636 198.814C150.515 196.726 149.795 196.422 147.981 196.51C143.951 196.706 140.68 193.902 140.718 189.912C140.812 179.692 141.957 169.625 145.836 160.037C146.765 157.74 147.562 155.392 148.42 153.067C146.164 153.581 144.268 154.432 142.532 155.533C132.12 162.152 125.836 171.925 121.721 183.26C115.555 200.25 114.677 217.871 115.873 235.679C116.731 248.439 119.157 260.895 124.772 272.496C132.92 289.348 145.461 300.304 165.022 300.888C182.657 301.419 196.87 294.78 206.711 279.746C207.278 278.875 207.684 277.898 208.316 276.675C202.356 275.675 196.718 274.963 191.711 271.8C192.843 271.29 193.944 271.131 195.035 271.175C196.859 271.25 197.961 270.506 198.501 268.544C197.066 268.544 195.829 268.551 194.593 268.54C193.954 268.537 192.88 268.733 192.745 268.462C191.204 265.392 190.059 267.773 189.366 268.364C186.863 268.165 184.799 268.327 182.961 267.753C181.251 267.219 179.393 266.192 178.353 264.814C177.691 263.942 178.403 262.033 178.525 260.206C179.829 261.78 182.707 261.797 181.576 265.091C182.582 264.935 183.684 265.064 184.241 264.574C184.603 264.256 184.164 263.033 184.079 262.179C184.647 262.02 185.349 261.824 186.049 261.628L185.964 261.675ZM273.782 244.24C274.417 244.881 275.049 245.52 275.782 246.26C272.42 246.824 268.468 245.412 266.305 249.8C269.491 249.527 272.511 249.267 275.897 248.973C275.15 248.51 274.653 248.202 273.714 247.618C275.731 247.469 277.221 247.358 278.718 247.246C278.755 247.49 278.792 247.736 278.829 247.979C278.376 248.196 277.924 248.412 277.079 248.81C277.934 249.098 278.42 249.26 279.157 249.506C277.907 250.067 276.829 250.55 275.349 251.216C276.191 251.446 276.663 251.574 277.957 251.929C273.515 255.699 269.441 259.162 265.366 262.625C265.555 260.756 266.427 258.949 263.288 259.888C262.734 260.05 261.67 259.263 261.16 258.652C259.441 256.594 259.214 258.152 258.822 259.486C257.535 258.371 256.228 257.24 254.549 255.783C254.613 256.554 254.758 257.118 254.65 257.172C254.086 257.456 253.457 257.608 252.853 257.807C253.633 258.31 254.41 258.811 255.495 259.51C255.319 260.375 255.076 261.547 254.802 262.875C257.035 263.54 260.248 260.824 262.261 264.179C261.052 265.172 259.897 266.25 258.616 267.148C253.68 270.611 248.052 272.415 242.228 273.598C240.424 273.963 239.778 272.53 239.677 270.935C239.63 270.196 239.667 269.449 239.667 269.027C238.093 270.26 236.63 271.405 235.005 272.675C236.106 272.969 237.478 273.334 238.846 273.699C238.88 273.942 238.913 274.185 238.947 274.429C237.417 274.922 235.914 275.604 234.343 275.865C232.268 276.209 230.886 277.24 229.599 278.878C217.049 294.851 201.255 305.76 180.934 309.179C164.221 311.993 147.711 310.787 132.64 302.77C121.005 296.581 110.569 288.652 102.775 277.344C94.0317 264.662 89.1635 250.892 87.7581 235.797C85.6702 213.348 89.4067 192.023 102.694 173.398C115.356 155.652 132.562 144.395 154.346 140.648C156.447 140.287 158.42 139.196 160.67 138.365C160.974 138.709 161.434 139.226 162.332 140.24C162.616 138.925 162.697 138.071 162.998 137.3C163.261 136.628 163.772 136.054 164.707 135.679C164.606 136.598 164.508 137.517 164.42 138.307C165.832 137.642 167.197 137 168.653 136.31C169.018 135.067 169.437 133.642 169.853 132.229C170.924 132.321 171.809 132.398 172.697 132.473L172.819 131.875C172.069 131.506 171.319 131.135 169.89 130.429C171.775 128.902 173.363 127.618 175.086 126.223C176.718 131.263 174.143 135.162 172.16 139.185C172.346 139.307 172.535 139.432 172.724 139.554C173.245 138.966 173.765 138.378 174.356 137.713C175.721 138.513 177.174 139.368 178.66 140.24C179.116 138.858 179.407 137.963 179.701 137.071L180.582 137.348C180.329 138.196 180.072 139.04 179.738 140.142C182.025 140.642 184.319 141.088 186.582 141.648C202.87 145.692 216.13 154.567 226.772 167.361C248.386 193.344 251.076 222.81 242.363 254.273C241.866 256.067 241.211 257.821 240.552 259.564C239.93 261.213 239.204 262.821 238.886 265.023C241.204 263.773 243.765 262.824 245.772 261.192C247.947 259.422 250.444 260.658 253.305 259.942C252.086 259.196 251.481 258.827 250.67 258.331C252.968 257.169 253.174 253.023 257.089 254.26C256.572 254.057 256.055 253.854 255.522 253.645C257.859 249.402 258.174 249.267 264.843 249.581C264.272 248.767 264.272 248.767 260.076 247.902C261.434 245.057 262.772 242.287 264.082 239.506C264.657 238.29 265.194 237.054 265.731 235.821C266.356 234.392 266.876 232.888 268.998 233.969C269.37 234.158 270.045 233.665 270.596 233.608C271.701 233.496 272.819 233.466 273.93 233.402C273.947 233.672 273.968 233.939 273.988 234.209C272.572 234.412 271.157 234.615 269.745 234.821C269.734 235.094 269.724 235.368 269.714 235.645C270.917 235.804 272.116 235.993 273.319 236.118C274.238 236.216 275.18 236.145 276.079 236.314C276.88 236.463 277.637 236.838 278.414 237.111C277.657 237.794 276.897 238.476 276.018 239.267C277.376 239.662 278.917 240.111 280.106 240.456C279.62 241.06 278.971 241.854 278.184 242.824C277.474 242.398 276.65 241.908 275.299 241.104C275.593 242.175 275.755 242.767 275.91 243.348C275.241 243.658 274.545 243.983 273.846 244.307C271.515 244.466 269.191 244.625 266.863 244.783C266.88 245.088 266.9 245.388 266.917 245.692C268.93 245.598 270.944 245.554 272.947 245.361C273.258 245.331 273.505 244.631 273.782 244.24Z" fill="white"/>
<path d="M279.777 171.557C280.52 172.642 281.239 173.753 282.074 174.77C282.128 174.838 283.047 174.192 283.831 173.719C282.739 173.094 282.118 172.736 281.26 172.243C282.662 171.861 283.756 171.561 284.854 171.26L284.608 170.533C283.226 170.824 281.844 171.118 279.777 171.557ZM260.02 138.064C260.8 137.081 261.196 136.584 261.591 136.088C259.141 136.321 258.121 135.023 256.851 133.527C254.087 130.277 250.979 127.317 248.02 124.236C247.736 123.939 247.439 123.334 247.206 123.361C244.321 123.706 244.77 121.915 245.385 119.78C244.608 120.385 244.199 120.699 243.793 121.013C243.611 120.831 243.429 120.648 243.246 120.469C244.601 119.321 245.956 118.175 247.604 116.783H241.466C241.111 117.361 240.425 118.473 239.391 120.155C238.412 119.365 237.456 118.378 236.31 117.726C235.425 117.219 234.317 117.047 233.28 116.868C230.391 116.361 227.489 115.929 224.729 115.49C226.317 113.402 227.831 111.415 229.341 109.429C229.229 109.263 229.118 109.101 229.003 108.936C227.621 110.226 226.239 111.517 224.858 112.807C224.679 112.567 224.496 112.331 224.317 112.091C226.118 110.577 226.783 107.523 229.675 107.601C231.81 107.658 233.922 108.588 235.993 109.537C234.706 110.726 234.081 112.243 232.087 111.939C231.297 111.817 230.304 113.02 229.003 113.885C232.8 116.206 236.327 115.51 239.787 115.192C241.584 115.023 243.381 114.371 245.152 114.459C248.067 114.601 250.966 115.162 253.902 115.55C253.777 117.979 253.662 120.256 253.547 122.537L253.929 122.615C254.405 121.506 254.881 120.395 255.354 119.287C255.895 120.611 258.016 121.02 256.601 123.05C255.875 124.091 256.881 126.341 257.199 128.76C258.604 127.172 258.26 124.807 260.621 125.503C259.76 125.192 258.895 124.885 257.655 124.442C259.138 122.699 260.973 122.733 262.706 122.53C262.79 123.469 262.875 124.408 263.006 125.895C263.871 125.229 264.743 124.56 265.837 123.719C266.01 124.912 266.162 125.966 266.314 127.023C266.557 127.027 266.8 127.03 267.047 127.033V122.712C282.459 135.439 293.233 150.517 297.979 169.415C295.449 171.618 292.78 171.074 290.341 170.642C288.918 170.388 288.368 170.716 287.837 171.777C288.513 171.915 289.179 172.081 289.858 172.192C290.689 172.324 291.668 172.179 292.321 172.581C292.946 172.962 293.229 173.898 293.662 174.587C293.084 174.932 292.547 175.425 291.925 175.577C291.219 175.75 290.439 175.618 290.077 175.618C289.658 177.03 289.293 178.256 288.679 180.321C287.408 178.743 286.53 177.648 285.337 176.162C284.574 177.01 283.618 178.077 282.804 178.986C279.516 177.091 275.706 176.868 271.848 176.773C270.023 162.949 267.016 149.588 260.02 138.064Z" fill="white"/>
<path d="M281.018 188.821H277.657C277.69 189.064 277.721 189.308 277.755 189.547C279.528 189.301 281.302 189.054 283.079 188.808C282.988 188.703 282.897 188.598 282.809 188.493C284.407 187.716 285.957 186.409 287.609 186.27C291.505 185.939 295.451 186.162 300.14 186.162C300.14 188.419 300.41 191.095 300.089 193.696C299.231 200.659 298.119 207.588 297.109 214.531C296.907 215.909 296.295 216.51 294.755 216.909C293.008 217.362 291.515 218.787 289.863 219.821C290.545 219.976 291.434 220.176 292.373 220.389C289.937 223.362 289.937 223.362 287.569 221.824C287.9 222.693 288.082 223.169 288.403 224.01C287.045 223.814 285.869 223.642 284.565 223.453C284.228 224.037 283.687 224.976 282.897 226.345C282.231 225.551 281.822 225.068 281.299 224.446C281.971 224.108 282.478 223.855 283.484 223.351C280.498 222.632 277.552 223.949 275.805 222.037H269.961C270.576 219.764 271.471 217.514 271.741 215.193C272.136 211.76 272.001 208.27 272.255 204.821C272.44 202.274 271.322 199.23 275.258 197.899C275.038 197.75 274.815 197.605 274.596 197.456C274.038 197.497 273.481 197.537 273.119 197.564C274.812 193.46 278.88 197.639 281.913 195.125C279.947 194.622 278.596 194.274 277.244 193.926C277.265 193.787 277.285 193.649 277.302 193.51H290.511C287.147 192.912 283.951 192.21 280.717 191.818C279.045 191.615 277.174 191.591 275.623 192.132C272.545 193.21 272.792 191.26 272.694 189.318C273.251 189.277 273.812 189.24 274.94 189.159C273.876 188.909 273.329 188.781 272.704 188.635C273.755 187.362 276.599 187.439 281.018 188.821Z" fill="white"/>
<path d="M178.788 129.473C179.616 128.892 180.44 128.311 181.272 127.727C179.582 126.514 179.272 125.014 180.133 122.426C181.478 118.379 183.508 115.49 187.667 114.463C189.413 114.031 191.275 114.051 193.241 113.852C192.849 113.423 192.586 113.139 192.326 112.852C195.248 109.852 215.43 106.801 218.802 107.801C217.91 108.575 216.9 109.45 215.4 110.75C217.342 111.142 218.444 111.365 219.555 111.598C218.457 112.342 217.349 113.071 215.488 114.298C217.065 114.369 218.363 114.798 218.829 114.355C219.417 113.794 219.319 112.521 219.522 111.558C219.809 111.615 220.099 111.673 220.386 111.73C220.461 111.558 220.535 111.386 220.609 111.217C219.694 110.737 218.775 110.254 217.488 109.582C219.076 109.027 220.109 107.94 221.126 109.896C221.434 110.484 222.596 110.625 223.427 111C223.069 111.511 222.579 112.041 222.282 112.663C221.261 114.794 219.532 115.359 217.278 115.734C212.532 116.517 207.839 117.696 203.174 118.899C201.413 119.352 199.778 120.304 198.099 121.065C192.886 123.433 189.207 127.656 185.397 131.7C184.032 133.152 182.846 134.777 181.349 136.609C181.015 134.146 180.738 132.085 180.393 129.534C180.255 129.524 179.484 129.46 178.714 129.396L178.788 129.473Z" fill="white"/>
<path d="M284.451 229.196C283.597 228.869 282.742 228.537 281.705 228.139C281.762 228.612 281.82 229.098 281.904 229.821C280.374 229.994 278.792 230.169 277.002 230.372C277.536 229.467 277.985 228.703 278.752 227.402C280.431 227.578 282.617 227.804 284.803 228.027C284.684 228.419 284.57 228.808 284.451 229.196Z" fill="white"/>
<path d="M274.491 227.479C272.535 227.233 270.859 227.023 268.836 226.77C269.038 226.334 269.275 225.084 269.717 225.006C271.724 224.648 273.386 225.419 274.491 227.479Z" fill="white"/>
<path d="M297.535 172.199C297.985 173.236 298.535 174.219 298.812 175.277C298.937 175.763 298.522 176.392 298.35 176.956C297.907 176.706 297.198 176.554 297.062 176.192C296.546 174.801 295.211 173.192 297.535 172.199Z" fill="white"/>
<path d="M254.586 114.436C256.234 115.321 257.184 115.827 258.133 116.338C258.143 116.574 258.153 116.811 258.167 117.047C257.238 117.307 256.312 117.571 255.39 117.834C255.18 116.946 254.967 116.057 254.586 114.436Z" fill="white"/>
<path d="M178.714 129.396C178.17 130.541 177.626 131.683 177.082 132.828C176.755 132.733 176.427 132.635 176.099 132.541C176.346 131.365 176.589 130.193 176.836 129.021C177.484 129.169 178.133 129.318 178.785 129.47C178.788 129.473 178.714 129.396 178.714 129.396Z" fill="white"/>
<path d="M186.05 261.628L179.347 260.058C179.381 259.808 179.412 259.554 179.445 259.301C182.01 259.503 184.574 259.706 187.993 259.976C186.942 260.862 186.462 261.267 185.976 261.672C185.969 261.676 186.05 261.628 186.05 261.628Z" fill="white"/>
</svg>
