<svg width="388" height="420" viewBox="0 0 388 420" fill="none" xmlns="http://www.w3.org/2000/svg">
<path d="M251.3 166.962V168.999C251.3 194.268 251.284 219.539 251.337 244.808C251.341 246.436 250.903 247.137 249.275 247.538C243.965 248.846 238.71 250.375 233.409 251.717C232.763 251.88 231.721 251.667 231.265 251.22C225.377 245.461 219.547 239.641 213.759 233.781C213.406 233.424 213.223 232.447 213.455 232.036C216.546 226.552 219.725 221.119 222.964 215.531C225.774 218.487 228.496 221.351 231.218 224.216C231.427 224.075 231.637 223.933 231.847 223.792V187.664C229.922 190.966 228.222 193.869 226.536 196.779C217.261 212.805 207.997 228.838 198.687 244.844C198.277 245.549 197.543 246.337 196.808 246.541C188.993 248.702 181.147 250.755 173.308 252.831C172.946 252.926 172.566 252.957 171.964 253.056C172.213 252.464 172.332 252.061 172.537 251.707C186.823 226.992 201.109 202.277 215.44 177.588C215.874 176.841 216.697 176.041 217.493 175.823C228.478 172.813 239.49 169.898 250.497 166.968C250.674 166.92 250.875 166.962 251.3 166.962Z" fill="white"/>
<path d="M100.586 174.602C107.094 172.862 113.537 171.14 120.155 169.371V246.223C113.711 247.94 107.272 249.655 100.575 251.44V240.119C86.4237 243.899 72.5089 247.614 58.4367 251.372C58.3692 250.742 58.2732 250.262 58.2723 249.781C58.2611 244.38 58.3026 238.977 58.2377 233.577C58.2222 232.31 58.6209 231.76 59.8741 231.509C61.5 231.183 63.0793 230.621 65.3677 229.962C63.1389 227.884 61.1722 226.173 59.3716 224.304C58.7817 223.69 58.3138 222.666 58.3104 221.826C58.2473 207.101 58.2542 192.374 58.3043 177.648C58.3061 177.046 58.767 176.034 59.2107 175.909C65.2734 174.204 71.3716 172.622 77.8044 170.917V173.354C77.8044 186.602 77.8269 199.849 77.7724 213.096C77.7664 214.51 78.1763 215.501 79.1908 216.458C81.4377 218.576 83.6319 220.756 85.7448 223.007C86.6598 223.984 87.5186 224.212 88.7891 223.835C92.1188 222.846 95.465 221.891 98.8475 221.108C100.296 220.772 100.618 220.11 100.614 218.738C100.568 204.848 100.586 190.959 100.586 177.068C100.586 176.301 100.586 175.533 100.586 174.602Z" fill="white"/>
<path d="M334.417 207.003C328.884 213.588 323.426 220.085 317.966 226.58C312.585 232.98 307.22 239.393 301.797 245.759C301.211 246.447 300.367 247.11 299.52 247.35C293.515 249.045 287.487 250.661 281.44 252.201C280.717 252.385 279.554 252.25 279.073 251.779C272.501 245.342 266.012 238.821 259.506 232.316C259.332 232.142 259.199 231.929 258.952 231.613C263.099 226.676 267.222 221.768 271.471 216.709C276.622 221.969 281.673 227.129 286.875 232.441C293.967 224.01 300.705 215.997 307.317 208.137C300.602 201.468 293.97 194.883 287.239 188.198C277.646 199.606 267.852 211.25 257.787 223.218C257.691 222.373 257.593 221.919 257.593 221.466C257.583 212.274 257.562 203.082 257.626 193.89C257.632 193.014 257.979 191.966 258.53 191.295C263.024 185.829 267.589 180.424 272.18 175.04C272.643 174.495 273.365 174.029 274.055 173.839C280.752 171.993 287.462 170.185 294.19 168.455C294.851 168.286 295.922 168.453 296.372 168.899C308.939 181.35 321.452 193.858 333.97 206.361C334.102 206.494 334.19 206.673 334.417 207.003Z" fill="white"/>
<path d="M199.451 192.622C196.181 198.278 192.876 203.993 189.446 209.924C188.809 209.346 188.293 208.913 187.818 208.439C181.846 202.488 175.863 196.549 169.935 190.556C169.063 189.674 168.32 189.383 167.074 189.744C163.003 190.927 158.889 191.963 154.724 193.073C164.205 202.466 173.59 211.762 182.983 221.068C180.157 225.978 177.438 230.41 175.026 235.003C173.504 237.899 171.586 239.553 168.226 240.385C154.739 243.727 141.347 247.457 127.919 251.041C127.561 251.137 127.199 251.212 126.548 251.365C126.548 249.791 126.548 248.403 126.548 247.016C126.548 242.579 126.6 238.142 126.517 233.708C126.492 232.361 126.921 231.838 128.24 231.495C137.332 229.133 146.398 226.672 155.471 224.24C155.949 224.112 156.416 223.946 157.473 223.613C154.896 221.148 152.56 218.977 150.296 216.734C144.902 211.391 139.502 206.053 134.198 200.621C133.006 199.401 131.944 198.956 130.326 199.588C129.215 200.023 127.995 200.177 126.548 200.523C126.548 197.931 126.548 195.575 126.548 193.219C126.548 189.683 126.584 186.147 126.527 182.611C126.51 181.527 126.858 181.028 127.938 180.74C143.234 176.669 158.514 172.545 173.813 168.488C174.431 168.324 175.438 168.457 175.852 168.866C183.682 176.594 191.449 184.386 199.226 192.168C199.311 192.253 199.34 192.394 199.451 192.622Z" fill="white"/>
</svg>
