<svg width="388" height="420" viewBox="0 0 388 420" fill="none" xmlns="http://www.w3.org/2000/svg">
<path d="M193.733 128.348C148.71 128.348 112.081 164.977 112.081 210C112.081 255.024 148.71 291.652 193.733 291.652C238.757 291.652 275.385 255.024 275.385 210C275.385 164.977 238.757 128.348 193.733 128.348ZM193.733 332.48C126.196 332.48 71.2534 277.534 71.2534 210C71.2534 142.466 126.196 87.5205 193.733 87.5205C261.27 87.5205 316.213 142.466 316.213 210C316.213 277.534 261.27 332.48 193.733 332.48Z" fill="white"/>
<path fill-rule="evenodd" clip-rule="evenodd" d="M167.284 214.791C166.919 211.081 163.619 208.372 159.909 208.734L146.477 210.054C142.767 210.419 140.058 213.72 140.423 217.429L145.037 264.453C145.402 268.159 148.703 270.872 152.412 270.507L165.845 269.19C169.554 268.825 172.264 265.524 171.899 261.815L167.284 214.791Z" fill="white"/>
<path fill-rule="evenodd" clip-rule="evenodd" d="M162.007 225.22C162.091 221.493 159.139 218.405 155.416 218.321L141.922 218.013C138.196 217.929 135.105 220.878 135.02 224.605L134.476 248.544C134.392 252.27 137.345 255.358 141.071 255.443L154.561 255.75C158.287 255.834 161.378 252.882 161.463 249.159L162.007 225.22Z" fill="white"/>
<path fill-rule="evenodd" clip-rule="evenodd" d="M158.642 250.412L150.541 255.753C147.243 253.077 144.139 250.04 141.311 246.682C138.99 243.922 136.855 240.949 134.949 237.783C132.841 234.287 131.014 230.557 129.517 226.648C128.297 223.466 127.297 220.162 126.541 216.783C125.804 213.506 125.297 210.158 125.027 206.783C124.564 200.986 124.794 195.111 125.713 189.388C126.476 184.655 127.709 180.033 129.368 175.631C130.402 172.878 131.605 170.209 132.943 167.679L139.723 173.108C138.635 175.192 137.645 177.412 136.794 179.702C135.402 183.435 134.365 187.354 133.733 191.365C132.98 196.142 132.797 201.044 133.182 205.878C133.412 208.729 133.841 211.557 134.459 214.324C135.101 217.189 135.949 219.99 136.986 222.689C138.264 226.03 139.831 229.216 141.632 232.206C143.28 234.942 145.125 237.517 147.132 239.898C147.784 240.675 148.456 241.429 149.142 242.165C152.061 245.3 155.26 248.06 158.642 250.412Z" fill="white"/>
<path fill-rule="evenodd" clip-rule="evenodd" d="M220.182 214.791C220.547 211.081 223.848 208.372 227.557 208.734L240.99 210.054C244.699 210.419 247.409 213.72 247.044 217.429L242.429 264.453C242.064 268.159 238.764 270.872 235.054 270.507L221.622 269.19C217.912 268.825 215.203 265.524 215.568 261.815L220.182 214.791Z" fill="white"/>
<path fill-rule="evenodd" clip-rule="evenodd" d="M225.46 225.22C225.375 221.493 228.328 218.405 232.051 218.321L245.544 218.013C249.271 217.929 252.362 220.878 252.446 224.605L252.99 248.544C253.075 252.27 250.122 255.358 246.396 255.443L232.906 255.75C229.179 255.834 226.088 252.882 226.004 249.159L225.46 225.22Z" fill="white"/>
<path fill-rule="evenodd" clip-rule="evenodd" d="M228.824 250.412L236.926 255.753C240.223 253.077 243.328 250.04 246.155 246.682C248.476 243.922 250.611 240.949 252.517 237.783C254.625 234.287 256.453 230.557 257.949 226.648C259.169 223.466 260.169 220.162 260.926 216.783C261.662 213.506 262.169 210.158 262.439 206.783C262.902 200.986 262.672 195.111 261.753 189.388C260.99 184.655 259.757 180.033 258.098 175.631C257.064 172.878 255.861 170.209 254.524 167.679L247.743 173.108C248.831 175.192 249.821 177.412 250.672 179.702C252.064 183.435 253.101 187.354 253.733 191.365C254.486 196.142 254.672 201.044 254.284 205.878C254.054 208.729 253.625 211.557 253.007 214.324C252.365 217.189 251.517 219.99 250.48 222.689C249.203 226.03 247.635 229.216 245.834 232.206C244.186 234.942 242.341 237.517 240.334 239.898C239.682 240.675 239.01 241.429 238.324 242.165C235.405 245.3 232.206 248.06 228.824 250.412Z" fill="white"/>
<path fill-rule="evenodd" clip-rule="evenodd" d="M142.615 188.368L128.713 198.003C129.03 196.094 129.422 194.199 129.875 192.324C130.591 189.371 131.473 186.469 132.507 183.638C133.5 180.908 134.642 178.246 135.919 175.672C137.963 171.544 140.355 167.638 143.047 164.023C145.777 160.358 148.811 156.993 152.101 153.986C154.889 151.435 157.858 149.141 160.97 147.138C164.057 145.148 167.284 143.442 170.608 142.044C174.378 140.456 178.277 139.26 182.237 138.476C185.96 137.739 189.74 137.364 193.52 137.351C197.307 137.337 201.095 137.685 204.828 138.398C208.862 139.165 212.831 140.361 216.672 141.962C220.064 143.378 223.355 145.111 226.5 147.138C229.612 149.141 232.581 151.435 235.368 153.986C238.554 156.898 241.503 160.148 244.166 163.682C246.919 167.334 249.365 171.287 251.453 175.476C252.77 178.111 253.943 180.841 254.966 183.638C255.973 186.398 256.835 189.226 257.541 192.101C258.017 194.04 258.422 196.003 258.753 198L244.851 188.364C244.112 186.334 243.284 184.371 242.365 182.466C240.669 178.942 238.676 175.611 236.419 172.527C234.166 169.442 231.652 166.608 228.922 164.067C226.568 161.875 224.057 159.902 221.419 158.179C218.949 156.564 216.368 155.165 213.713 154.006C210.473 152.591 207.122 151.523 203.71 150.824C200.537 150.175 197.318 149.837 194.095 149.817C190.747 149.79 187.399 150.104 184.101 150.756C180.682 151.432 177.321 152.476 174.074 153.868C171.409 155.013 168.821 156.392 166.341 157.989C163.693 159.696 161.169 161.652 158.804 163.831C156.105 166.31 153.612 169.081 151.368 172.094C149.02 175.253 146.943 178.675 145.182 182.3C144.226 184.277 143.362 186.314 142.615 188.368Z" fill="white"/>
</svg>
