<svg width="388" height="420" viewBox="0 0 388 420" fill="none" xmlns="http://www.w3.org/2000/svg">
<path d="M306.912 199.037C304.443 204.537 302.132 210.111 299.716 215.757C301.642 216.51 301.953 215.084 302.48 214.29C304.943 210.595 307.76 207.051 309.635 203.071C312.659 196.645 317.095 193.888 324.155 195.976C324.159 196 324.375 196.415 324.253 196.591C315.493 209.135 306.872 221.78 297.865 234.145C292.311 241.767 283.834 240.922 275.345 240.659C276.466 237.47 277.037 234.318 281.459 234.321C283.703 234.321 284.027 232.034 284.649 230.405C288.507 220.28 292.307 210.132 296.128 199.99C296.922 197.882 297.669 195.74 299.784 194.513C294.041 194.159 288.27 194.047 282.568 193.358C279.02 192.926 277.074 194.101 275.713 197.233C274.699 199.564 273.27 201.709 272.338 204.25C274.932 202.267 280.483 196.476 280.483 196.476L289.77 196.263C289.77 196.263 285.625 201.497 283.223 203.814C278.351 208.507 275.118 214.017 273.612 220.611C273.027 223.162 272.118 225.642 271.331 228.149C269.003 235.564 269.426 235.98 269.426 235.98L259.209 236.098C259.209 236.098 261.777 226.703 261.291 223.503C259.716 224.115 255.757 234.98 255.362 236.098H242.581C250.422 222.473 258.362 207.007 266.74 192.449C258.541 192.105 250.936 191.713 243.324 191.483C220.584 190.801 197.909 191.787 175.304 194.385C172.804 194.676 172.801 194.649 171.713 199.28C174.568 198.179 176.645 195.409 180.642 195.544C178.304 199.638 176.139 203.385 174.024 207.162C173.399 208.27 172.534 208.868 171.28 208.909C166.527 209.061 163.997 212.172 161.882 215.899C159.368 220.328 156.399 224.547 154.341 229.176C152.139 234.132 151.24 235.693 151.24 235.693L139.372 235.429C146.601 222.851 153.98 209.209 161.659 195.848C142.155 198.868 123.483 201.645 106.392 210.419C102.767 212.28 98.3683 214.574 98.9561 219.307C99.5135 223.838 104.409 224.747 108.068 225.74C116.345 227.98 124.882 228.804 133.449 229.216C135.199 229.301 137.057 228.892 138.649 230.125C137.625 233.959 135.439 234.926 131.416 234.605C112.726 233.125 93.946 232.638 75.4595 229.108C70.446 228.152 65.5777 226.669 61.0608 224.169C57.3716 222.125 57.2737 219.588 59.8514 216.615C62.0642 214.068 64.9899 212.584 68.0237 211.26C93.5575 200.108 120.493 194.311 147.939 190.682C176.858 186.861 205.99 185.895 235.112 185.628C264.878 185.355 294.564 187.983 324.307 188.757C324.402 189.179 324.497 189.601 324.595 190.024C318.466 191.524 312.338 193.024 306.209 194.527C307.953 195.797 307.716 197.25 306.912 199.037ZM232.064 236.04C232.064 236.04 219.051 236.209 219.098 235.98C223.179 228.885 228.321 220.28 232.453 213.101C234.095 210.25 235.757 207.412 237.372 204.547C237.767 203.841 238.23 202.922 237.483 202.294C236.588 201.54 235.534 202.051 234.882 202.757C234.003 203.716 233.284 204.845 232.625 205.973C228.064 213.777 223.24 221.446 219.115 229.476L215.524 235.811C215.524 235.811 204.267 235.98 203.503 235.98C211.037 222.926 218.557 209.872 225.652 197.679C226.834 195.649 235.432 194.013 237.223 196.128C239.074 198.311 239.993 196.845 241.264 196.348C242.973 195.686 244.662 195.216 246.52 195.247C251.226 195.324 252.709 197.24 250.497 201.483C246.544 209.054 242.142 216.385 237.929 223.818C237.362 224.821 232.064 236.04 232.064 236.04ZM192.284 235.959H182.078C181.551 235.845 184.203 233.074 183.713 233C182.635 232.834 180.831 233.919 179.574 234.463C178.081 235.105 176.493 235.75 174.902 235.902C170.03 236.372 168.446 233.838 170.084 229.213C173.655 219.135 181.476 214.486 191.189 212.068C195.652 211.639 197.358 208.199 199.064 204.804C199.49 203.956 200.044 202.851 198.936 202.155C197.693 201.372 196.726 202.186 196.078 203.199C194.402 205.824 192.807 208.5 191.182 211.155H181.284C184.493 200.007 196.774 192.818 207.645 195.47C211.726 196.459 213.088 199.179 211.118 203.345C206.206 213.747 200.25 223.601 194.139 233.307C193.355 234.551 192.115 235.794 192.284 235.959ZM345.088 187.662C337.838 187.152 331.476 186.601 325.105 186.28C273.49 183.679 221.892 181.287 170.209 185.277C134.784 188.01 100.091 193.912 66.6994 206.351C61.1453 208.422 55.7635 210.976 51.5575 215.378C45.669 221.541 46.7027 229.274 54.0642 233.581C55.7467 234.564 57.6385 235.233 59.4933 235.878C71.8885 240.179 84.8345 241.436 97.7771 242.618C128.983 245.473 160.294 244.75 191.564 245.149C221.209 245.527 250.862 245.473 280.51 245.5C285.274 245.503 290.047 245.091 294.791 244.618C299.084 244.189 302.392 242.27 304.713 238.28C309.176 230.611 314.24 223.291 318.693 215.618C322.463 209.128 326.341 202.983 334.061 200.625C334.345 200.537 334.459 199.905 334.845 199.145H325.047C328.591 189.791 338.466 192.655 345.088 187.662Z" fill="white"/>
<path d="M182.811 226.023C182.318 226.979 181.433 228.25 182.828 228.966C183.909 229.523 185.081 228.763 185.72 227.716C187.811 224.304 189.838 220.851 192.453 216.466C186.841 218.567 184.76 222.246 182.811 226.023Z" fill="white"/>
</svg>
