<svg width="388" height="420" viewBox="0 0 388 420" fill="none" xmlns="http://www.w3.org/2000/svg">
<path d="M193.733 128.348C148.71 128.348 112.081 164.977 112.081 210C112.081 255.024 148.71 291.652 193.733 291.652C238.757 291.652 275.385 255.024 275.385 210C275.385 164.977 238.757 128.348 193.733 128.348ZM193.733 332.48C126.196 332.48 71.2534 277.534 71.2534 210C71.2534 142.466 126.196 87.5205 193.733 87.5205C261.27 87.5205 316.213 142.466 316.213 210C316.213 277.534 261.27 332.48 193.733 332.48Z" fill="white"/>
<path d="M236.108 188.858L233.909 185.054C234.578 181.729 237.446 168.375 241.689 161.51C242.916 159.527 244.105 159.594 245.105 159.922C247.598 160.74 250.301 164.24 250.041 167.527C249.912 169.182 250.953 170.702 252.541 171.182C254.233 171.692 256.301 172.949 256.551 173.611C256.524 173.719 256.358 174.202 255.483 175.044C252.797 177.628 252.858 181.567 255.662 186.743C256.831 188.898 258.355 191.125 259.926 193.27C247.72 186.76 239.811 187.682 236.108 188.858ZM159.507 238.75C156.78 242.067 152.932 247.686 148.071 255.452C146.858 257.392 145.939 258.571 145.297 259.28C144.669 256.473 144.483 250.669 144.939 245.307C145.061 243.888 144.321 242.537 143.057 241.878C141.797 241.219 140.264 241.385 139.172 242.294C135.591 245.273 133.625 246.371 132.652 246.777C132.514 245.969 132.436 244.817 132.378 244.034C132.155 240.794 131.905 237.121 128.983 235.202C128.456 234.858 127.889 234.604 127.287 234.442C130.159 231.449 135.047 227.706 140.078 226.679C150.52 224.547 157.152 227.996 157.47 228.165C157.564 228.216 157.659 228.263 157.753 228.304L162.159 235.932C161.155 236.746 160.267 237.824 159.507 238.75ZM226.676 223.75L231.916 195.699L236.905 204.348C240.128 209.929 238.209 217.091 232.628 220.314L226.676 223.75ZM165.412 196.993L161.027 219.868L158.061 214.733C156.5 212.03 156.084 208.881 156.895 205.865C157.703 202.848 159.635 200.327 162.341 198.767L165.412 196.993ZM189.243 245.365C187.095 246.604 184.709 247.081 182.405 246.881L194.791 182.273C194.932 181.537 194.828 180.811 194.544 180.175L205.726 173.719C206.902 173.037 208.152 172.591 209.416 172.354L196.139 241.381L189.243 245.365ZM271.666 197.277C270.807 195.959 269.608 194.388 268.22 192.564C266.307 190.057 264.142 187.219 262.568 184.611C260.784 181.662 260.574 180.348 260.564 179.942C263.74 176.78 263.872 173.878 263.416 171.983C262.588 168.557 259.361 166.466 256.99 165.361C256.27 159.99 252.331 154.868 247.294 153.219C242.73 151.726 238.389 153.439 235.693 157.8C232.605 162.79 230.247 170.304 228.74 176.098L227.801 174.469C222.635 165.523 211.149 162.446 202.199 167.611L158.814 192.662C149.865 197.827 146.787 209.311 151.956 218.26L152.625 219.422C148.956 218.817 144.213 218.638 138.666 219.77C128.905 221.763 119.372 230.986 117.953 235.993C117.196 238.669 118.486 240.246 119.078 240.797C120.486 242.121 122.463 242.344 124.953 241.463C124.973 241.456 124.997 241.446 125.014 241.439C125.189 242.28 125.284 243.625 125.345 244.517C125.574 247.868 125.861 252.04 129.51 253.598C131.703 254.537 134.236 254.115 137.642 252.111C137.645 252.713 137.655 253.324 137.672 253.939C137.845 259.27 138.595 265.577 142.936 267.027C143.514 267.219 144.081 267.31 144.632 267.31C148.432 267.31 151.622 263.074 154.051 259.196C160.99 248.104 164.351 243.834 165.797 242.233L167.169 244.611C170.635 250.618 176.949 253.976 183.429 253.976C186.608 253.976 189.824 253.169 192.767 251.473L236.155 226.422C245.105 221.256 248.182 209.77 243.014 200.821L239.804 195.26C242.936 194.807 249.172 195.084 258.686 200.658C261.777 202.469 264.074 203.689 265.706 204.385C266.399 204.682 267.747 205.26 269.162 205.26C270.223 205.26 271.324 204.935 272.216 203.925C274.389 201.473 272.409 198.425 271.666 197.277Z" fill="white"/>
</svg>
