<svg width="388" height="420" viewBox="0 0 388 420" fill="none" xmlns="http://www.w3.org/2000/svg">
<path d="M193.733 128.828C148.71 128.828 112.081 165.456 112.081 210.48C112.081 255.503 148.71 292.132 193.733 292.132C238.757 292.132 275.385 255.503 275.385 210.48C275.385 165.456 238.757 128.828 193.733 128.828ZM193.733 332.959C126.196 332.959 71.2534 278.014 71.2534 210.48C71.2534 142.946 126.196 88 193.733 88C261.27 88 316.213 142.946 316.213 210.48C316.213 278.014 261.27 332.959 193.733 332.959Z" fill="white"/>
<path d="M236.108 244.071C231.095 244.425 226.287 243.395 221.571 241.841C218 240.662 214.443 239.453 210.882 238.26C208.882 237.588 206.888 236.909 204.885 236.257C203.03 235.652 201.179 235.023 199.297 234.507C198.449 234.277 197.534 234.25 196.649 234.219C195.726 234.189 194.774 234.135 193.888 234.324C191.415 234.855 188.949 235.439 186.513 236.125C182.787 237.172 179.091 238.344 175.372 239.422C171.828 240.449 168.277 241.459 164.713 242.415C159.209 243.892 153.628 244.557 147.939 243.8C146.466 243.605 145.01 243.28 143.544 243.023C143.351 242.99 143.149 242.996 142.949 243.007C142.709 243.017 142.48 243.037 142.422 242.709C142.409 242.649 142.314 242.581 142.243 242.554C141.358 242.24 140.466 241.953 139.591 241.618C139.226 241.48 138.882 241.27 138.564 241.044C137.973 240.632 137.429 240.142 136.821 239.757C133.615 237.726 131.101 235.03 129.044 231.858C127.598 229.628 126.527 227.216 125.459 224.797C125.172 224.149 124.919 223.48 124.605 222.844C124.527 222.686 124.27 222.527 124.091 222.524C123.483 222.503 122.875 222.547 122.267 222.571C120.963 222.621 119.659 222.635 118.358 222.736C117.358 222.814 116.368 223.027 115.372 223.132C114.747 223.196 114.111 223.169 113.483 223.182C113.125 223.192 112.767 223.199 112.409 223.209C111.044 223.246 109.679 223.273 108.314 223.328C107.318 223.368 106.324 223.459 105.324 223.5C104.149 223.551 102.963 223.648 101.791 223.577C100.503 223.496 99.2263 223.253 97.9493 223.064C97.1891 222.952 96.4155 222.878 95.6824 222.662C94.7297 222.382 93.8006 222.01 92.8918 221.611C92.6858 221.52 92.4763 221.152 92.4831 220.919C92.5203 220.047 92.6486 219.179 92.7364 218.311C92.8885 216.811 93.0439 215.314 93.1824 213.811C93.3344 212.175 93.4695 210.537 93.6148 208.902C93.6621 208.365 93.7195 207.824 93.7601 207.287C93.902 205.452 94.0405 203.618 94.179 201.784C94.206 201.446 94.2095 201.101 94.2702 200.77C94.3581 200.284 94.7162 200.071 95.179 200.017C96.4054 199.875 97.6351 199.706 98.8648 199.611C99.6013 199.554 100.345 199.615 101.088 199.628C101.561 199.638 102.037 199.662 102.513 199.675C104.226 199.726 105.939 199.753 107.652 199.824C109.649 199.912 111.642 200.044 113.635 200.138C114.905 200.196 116.176 200.213 117.443 200.263C118.726 200.314 120.007 200.392 121.287 200.442C121.699 200.459 122.111 200.463 122.517 200.402C122.638 200.385 122.774 200.152 122.821 199.993C123.382 198.192 123.872 196.365 124.483 194.584C125.419 191.861 127.216 189.706 129.328 187.834C132.527 185.003 136.162 182.824 140.074 181.128C143.324 179.719 146.733 178.831 150.216 178.213C154.973 177.365 159.767 176.976 164.591 176.851C168.385 176.75 172.172 176.888 175.956 177.115C179.409 177.321 182.861 177.537 186.314 177.655C189.361 177.763 192.419 177.79 195.47 177.76C199.534 177.723 203.595 177.601 207.659 177.507C210.807 177.432 213.953 177.314 217.098 177.27C219.912 177.236 222.73 177.311 225.544 177.28C231.946 177.213 238.162 178.361 244.284 180.125C247.774 181.128 251.179 182.375 254.385 184.104C256.307 185.145 257.949 186.55 259.51 188.071C261.098 189.618 262.476 191.324 263.645 193.199C263.993 193.76 264.321 194.334 264.659 194.898C264.72 194.996 264.78 195.135 264.872 195.165C265.395 195.338 265.328 195.868 265.541 196.226C265.557 196.253 265.537 196.3 265.557 196.324C266.054 196.902 265.97 197.625 266.078 198.304C266.101 198.449 266.301 198.662 266.436 198.672C266.838 198.709 267.243 198.659 267.649 198.642C267.78 198.635 267.909 198.608 268.037 198.615C268.79 198.662 269.544 198.763 270.294 198.753C271.361 198.736 272.429 198.635 273.497 198.581C274.73 198.523 275.966 198.493 277.199 198.422C277.997 198.375 278.794 198.273 279.591 198.196C279.638 198.192 279.689 198.182 279.736 198.182C280.54 198.186 281.348 198.213 282.149 198.189C283.5 198.152 284.848 198.071 286.196 198.03C287.128 198.003 288.061 198.003 288.993 198C289.665 197.996 290.338 197.976 291.007 198.013C291.794 198.057 292.578 198.149 293.361 198.23C293.932 198.29 294.152 199.027 294.179 199.496C294.267 201.226 294.361 202.956 294.443 204.689C294.466 205.162 294.432 205.642 294.453 206.118C294.517 207.5 294.598 208.882 294.662 210.267C294.716 211.368 294.76 212.473 294.801 213.574C294.868 215.301 294.97 217.024 294.98 218.75C294.99 220.709 295.051 220.355 293.415 220.412C291.912 220.466 290.412 220.547 288.909 220.608C287.341 220.665 285.774 220.73 284.206 220.757C283.216 220.773 282.226 220.719 281.236 220.716C279.77 220.709 278.301 220.689 276.834 220.726C275.074 220.77 273.317 220.882 271.557 220.942C270.605 220.973 269.649 220.949 268.696 220.966C267.828 220.976 266.959 221.017 266.091 221.027C265.784 221.034 265.642 221.145 265.524 221.446C264.78 223.358 264.115 225.307 263.223 227.152C260.966 231.827 257.777 235.773 253.608 238.898C250.949 240.888 248.101 242.517 244.841 243.321C242.774 243.831 240.665 244.023 238.54 244.071C237.73 244.084 236.919 244.071 236.108 244.071Z" fill="white"/>
</svg>
