<svg width="388" height="420" viewBox="0 0 388 420" fill="none" xmlns="http://www.w3.org/2000/svg">
<path d="M84.203 197.03C84.203 197.03 80.1185 202.598 86.0611 202.598C89.8955 202.598 100.909 205.689 108.24 207.882C109.821 206.855 111.554 205.844 113.264 204.973C103.112 200.767 88.2672 197.03 84.203 197.03Z" fill="white"/>
<path d="M174.491 214.179C186.366 214.179 180.427 196.365 192.305 196.365C194.873 196.365 199.109 194.973 204.166 192.436C204.177 191.77 204.183 191.101 204.183 190.426C204.183 166.676 198.241 142.926 192.305 131.051C186.366 119.176 180.427 131.051 180.427 131.051C180.427 131.051 174.491 107.301 168.555 107.301C162.616 107.301 162.616 119.176 162.616 119.176C162.616 119.176 150.741 107.301 144.805 107.301C138.866 107.301 144.805 113.24 144.805 113.24C150.741 119.176 162.616 154.801 162.616 172.615C162.616 183.416 158.254 194.213 160.109 203.689C164.805 209.129 169.018 214.179 174.491 214.179Z" fill="white"/>
<path d="M117.033 210.199L115.192 210.02C115.192 210.02 112.27 209.085 108.239 207.882C103.493 210.963 100.152 214.176 103.239 214.176C106.533 214.176 113.473 212.355 119.006 212.753C118.476 212.463 117.949 212.172 117.425 211.872C116.716 211.47 116.689 210.828 117.033 210.199Z" fill="white"/>
<path d="M153.418 237.108C148.181 232.365 143.756 228.686 139.918 225.743C141.678 229.713 145.063 238.939 142.712 246.828C142.313 248.165 141.712 249.415 140.975 250.578C146.533 257.088 153.742 263.179 162.614 267.615C166.371 269.493 170.276 270.922 174.188 272.003C169.08 258.54 162.702 245.527 153.418 237.108Z" fill="white"/>
<path d="M287.303 261.679C287.303 261.679 263.55 261.679 245.739 255.74C240.11 253.865 221.989 243.865 221.989 243.865C233.864 249.804 239.8 231.99 239.8 231.99C251.678 237.926 263.55 226.054 263.55 220.115C275.428 214.176 287.303 196.365 281.364 178.551C287.303 172.615 281.364 160.74 275.428 160.74C281.364 154.801 281.364 148.865 281.364 142.926C281.364 134.53 275.428 125.115 269.489 125.115C269.489 113.24 251.678 95.4257 251.678 131.051C251.678 158.973 222.502 183.243 204.168 192.436C203.827 215.166 197.563 231.652 174.489 220.115C165.137 215.439 161.313 209.841 160.107 203.689C154.617 197.328 148.465 190.426 138.864 190.426C121.05 190.426 121.05 202.301 121.05 202.301C119.229 202.301 116.289 203.422 113.262 204.973C115.911 206.068 118.232 207.196 119.965 208.297C120.239 208.27 120.506 208.284 120.756 208.351C120.756 208.351 147.692 221.365 163.668 241.858C166.222 239.645 175.766 231.987 185.033 232.318C195.864 232.689 208.594 244.389 208.594 244.389C208.594 244.389 197.688 254.172 184.124 252.574C175.719 251.588 169.621 247.936 166.198 245.301C166.779 246.149 167.347 247.003 167.887 247.872C171.952 254.426 175.229 262.929 177.762 271.128C179.637 271.51 182.556 272.368 185.597 274.26C202.056 276.351 216.05 273.551 216.05 273.551C216.05 273.551 233.864 291.365 251.678 297.301C269.489 303.24 263.55 291.365 263.55 291.365C263.55 291.365 269.489 291.365 275.428 285.429C281.364 279.49 275.428 273.551 275.428 273.551C287.303 267.615 287.303 261.679 287.303 261.679Z" fill="white"/>
<path d="M126.312 216.679C126.744 217.611 126.991 218.74 126.991 220.115C126.991 222.628 127.528 225.675 128.592 229.027C132.122 225.949 135.801 224.594 137.69 224.067C133.139 220.719 129.484 218.462 126.312 216.679Z" fill="white"/>
<path d="M117.034 210.199C117.531 209.29 118.805 208.408 119.967 208.297C118.23 207.196 115.913 206.067 113.264 204.973C111.555 205.844 109.822 206.854 108.24 207.881C112.271 209.084 115.193 210.02 115.193 210.02L117.034 210.199Z" fill="white"/>
<path d="M174.489 220.115C197.563 231.652 203.83 215.165 204.165 192.436C199.107 194.973 194.871 196.365 192.303 196.365C180.425 196.365 186.364 214.179 174.489 214.179C169.016 214.179 164.803 209.128 160.107 203.689C161.313 209.841 165.138 215.439 174.489 220.115Z" fill="white"/>
<path d="M174.19 272.004C174.352 272.433 174.508 272.862 174.67 273.294C174.815 272.899 174.95 272.544 175.072 272.237C174.778 272.159 174.484 272.085 174.19 272.004Z" fill="white"/>
<path d="M184.404 299.267C184.404 299.267 184.661 302.615 179.019 285.723C177.654 281.629 176.215 277.446 174.668 273.294C172.992 277.841 170.087 287.754 173.242 295.2C177.469 305.169 193.8 312.7 193.8 312.7C193.8 312.7 200.452 295.612 194.114 283.521C191.759 279.041 188.621 276.142 185.597 274.26C183.215 273.96 180.783 273.551 178.333 273.021C182.442 286.838 184.404 299.267 184.404 299.267Z" fill="white"/>
<path d="M122.05 238.439C117.091 251.162 124.574 262.246 124.574 262.246C124.574 262.246 135.986 258.425 140.976 250.577C134.8 243.344 130.675 235.597 128.591 229.026C126.101 231.199 123.692 234.226 122.05 238.439Z" fill="white"/>
<path d="M184.405 299.266C184.405 299.266 182.442 286.837 178.334 273.02C177.25 272.786 176.162 272.52 175.071 272.232C174.949 272.543 174.814 272.898 174.669 273.293C176.216 277.445 177.655 281.628 179.02 285.722C184.662 302.614 184.405 299.266 184.405 299.266Z" fill="white"/>
</svg>
