<svg width="388" height="420" viewBox="0 0 388 420" fill="none" xmlns="http://www.w3.org/2000/svg">
<path d="M234.521 225.216C243.237 223.865 252.163 223.348 258.389 223.348C275.098 223.348 283.402 227.185 282.257 240.885C281.636 249.189 278.109 257.074 268.041 258.216L267.936 258.631C278.109 259.979 280.808 266.104 279.767 275.236C277.899 291.74 267.21 297.861 248.22 297.861C241.058 297.861 232.027 296.925 224.453 295.787L225.906 280.115C235.352 280.736 239.085 280.631 244.899 280.631C254.652 280.631 257.142 276.689 257.869 272.54C258.804 267.763 257.663 266.206 252.473 266.206H237.426L239.19 252.716H253.821C259.842 252.716 260.882 250.432 261.193 245.452C261.399 242.131 260.984 240.469 255.173 240.469H234.521V225.216Z" fill="white"/>
<path d="M201.473 148.108C195.098 150.638 192.01 157.787 194.541 164.162C197.071 170.537 204.22 173.624 210.595 171.094C216.97 168.564 220.058 161.415 217.527 155.04C214.997 148.665 207.845 145.577 201.473 148.108ZM187.612 180.216C181.237 182.749 178.149 189.895 180.679 196.27C183.21 202.648 190.358 205.733 196.733 203.202C203.108 200.672 206.196 193.523 203.666 187.148C201.135 180.773 193.987 177.685 187.612 180.216ZM145.105 190.439C144.463 188.82 142.71 188.064 141.091 188.706L123.855 195.547L117.01 178.31C116.368 176.692 114.612 175.935 112.997 176.577L101.504 181.138C99.8887 181.78 99.1286 183.537 99.7705 185.151L106.612 202.391L89.3752 209.236C87.7603 209.874 87.0002 211.631 87.6421 213.246L92.2029 224.739C92.8448 226.358 94.6015 227.114 96.2198 226.472L113.456 219.631L120.301 236.868C120.943 238.486 122.7 239.243 124.314 238.601L135.804 234.04C137.422 233.398 138.179 231.641 137.537 230.026L130.696 212.787L147.936 205.945C149.551 205.304 150.311 203.547 149.669 201.929L145.105 190.439ZM217.352 221.624C205.679 226.256 193.338 226.067 182.439 222.179L162.686 230.02C157.422 240.32 148.575 248.925 136.902 253.56C111.493 263.645 82.7705 251.246 72.686 225.837C62.5982 200.429 74.9968 171.706 100.409 161.618L180.855 129.685C206.264 119.597 234.987 131.996 245.071 157.408C255.159 182.817 242.76 211.54 217.352 221.624Z" fill="white"/>
</svg>
