<svg width="388" height="420" viewBox="0 0 388 420" fill="none" xmlns="http://www.w3.org/2000/svg">
<path d="M194.365 148.726C193.963 148.76 193.636 148.76 193.23 148.726C192.386 148.652 191.578 148.426 190.821 148.044L170.909 200.22C171.47 200.399 172.034 200.574 172.602 200.743C179.456 202.78 186.588 203.814 193.798 203.814C201.007 203.814 208.139 202.78 214.994 200.743C215.561 200.574 216.129 200.399 216.69 200.22L196.777 148.044C196.021 148.426 195.21 148.652 194.365 148.726Z" fill="white"/>
<path d="M223.331 219.861C223.733 219.949 224.139 219.959 224.548 219.895C224.983 219.824 225.399 219.665 225.774 219.425C226.122 219.202 226.423 218.922 226.662 218.587C227.068 218.03 227.284 217.371 227.284 216.682C227.284 215.162 226.206 213.824 224.72 213.5C224.494 213.452 224.26 213.429 224.031 213.429C223.855 213.429 223.679 213.442 223.507 213.469C223.068 213.54 222.656 213.699 222.277 213.942C221.933 214.165 221.632 214.446 221.392 214.78C220.987 215.338 220.774 215.996 220.774 216.682C220.774 218.199 221.848 219.537 223.331 219.861Z" fill="white"/>
<path d="M194.359 141.709C194.247 141.56 194.058 141.422 193.798 141.422C193.541 141.422 193.348 141.56 193.237 141.709L193.115 142.037C193.112 142.064 193.108 142.087 193.108 142.111C193.108 142.158 193.115 142.212 193.132 142.273C193.196 142.537 193.446 142.8 193.798 142.8C194.152 142.8 194.402 142.537 194.467 142.273C194.48 142.212 194.487 142.158 194.487 142.111C194.487 142.087 194.487 142.064 194.483 142.037L194.359 141.709Z" fill="white"/>
<path d="M191.902 131.919C192.521 131.746 193.163 131.777 193.76 132.003C194.5 132.287 195.088 132.841 195.413 133.567C195.72 134.246 195.757 135 195.527 135.703C195.548 135.706 195.565 135.713 195.585 135.719C196.845 136.071 197.963 136.787 198.808 137.76C200.24 136.909 201.453 135.699 202.304 134.243C202.558 133.811 202.781 133.351 202.967 132.882C203.419 131.73 203.649 130.52 203.649 129.287C203.649 124.939 200.767 121.172 196.774 119.898V121.223C196.774 122.865 195.44 124.199 193.798 124.199C192.159 124.199 190.825 122.865 190.825 121.223V119.898C186.831 121.172 183.946 124.939 183.946 129.287C183.946 132.652 185.629 135.726 188.456 137.557L189.919 133.723C190.254 132.848 190.997 132.172 191.902 131.919Z" fill="white"/>
<path d="M147.25 194.324C145.453 194.324 143.99 192.862 143.99 191.064C143.99 189.267 145.453 187.807 147.25 187.807C149.044 187.807 150.507 189.267 150.507 191.064C150.507 192.862 149.044 194.324 147.25 194.324ZM274.024 225.061L251.26 185.632L249.77 187.169L249.747 187.128C242.571 194.071 234.297 199.557 225.125 203.436C224.885 203.537 224.642 203.639 224.402 203.74L225.899 207.669C230.108 208.537 233.233 212.26 233.233 216.682C233.233 218.679 232.601 220.578 231.429 222.155L234.321 229.73C234.605 230.473 234.581 231.28 234.257 232.003C233.932 232.73 233.345 233.287 232.601 233.571C232.28 233.693 231.942 233.757 231.595 233.764L234.321 240.905C234.605 241.649 234.581 242.456 234.257 243.179C233.932 243.905 233.345 244.463 232.601 244.747C232.263 244.875 231.905 244.939 231.54 244.939C230.318 244.939 229.199 244.172 228.763 243.027L222.145 225.693C217.946 224.821 214.824 221.098 214.824 216.682C214.824 214.689 215.456 212.794 216.622 211.22L214.99 206.946C208.128 208.814 201.007 209.764 193.797 209.764C186.588 209.764 179.47 208.814 172.605 206.946L158.834 243.027C158.399 244.172 157.28 244.939 156.054 244.939C155.689 244.939 155.334 244.875 154.99 244.743C154.253 244.463 153.665 243.905 153.341 243.179C153.017 242.456 152.993 241.649 153.277 240.905L156 233.764C155.655 233.757 155.314 233.693 154.99 233.568C154.253 233.287 153.665 232.73 153.341 232.003C153.017 231.28 152.993 230.473 153.277 229.73L163.196 203.74C162.953 203.639 162.709 203.537 162.473 203.436C161.547 203.047 160.601 202.625 159.652 202.176C159.105 203.02 158.172 203.534 157.152 203.534C156.682 203.534 156.213 203.419 155.794 203.203C154.334 202.453 153.76 200.655 154.51 199.199L157.068 194.223C157.429 193.52 158.044 193 158.797 192.757C159.551 192.517 160.358 192.584 161.064 192.949C162.503 193.693 163.084 195.432 162.395 196.868C163.361 197.321 164.341 197.75 165.324 198.159L186.304 143.193C186.084 143.074 185.865 142.949 185.652 142.821C180.929 139.97 178 134.784 178 129.287C178 121.652 183.493 115.172 190.824 113.77V106.199C190.824 104.561 192.159 103.226 193.797 103.226C195.439 103.226 196.774 104.561 196.774 106.199V113.77C204.101 115.172 209.598 121.652 209.598 129.287C209.598 131.328 209.209 133.321 208.443 135.209C208.179 135.858 207.868 136.497 207.52 137.108C206.047 139.682 203.875 141.791 201.291 143.189L222.27 198.159C231.801 194.199 240.564 188.182 247.726 180.672C247.865 180.524 247.997 180.372 248.135 180.223L205.699 106.72C200.382 97.5101 187.084 97.5101 181.767 106.72L113.443 225.061C108.125 234.274 114.774 245.787 125.412 245.787H262.057C272.693 245.787 279.341 234.274 274.024 225.061Z" fill="white"/>
<path d="M193.092 259.92C195.217 260.77 195.727 262.725 194.962 264.595L176.007 312.705C175.327 314.32 174.307 315.255 172.607 315.255C170.822 315.255 169.802 314.32 169.122 312.705L150.167 264.595C149.402 262.725 149.912 260.77 152.037 259.92C153.992 259.07 156.032 259.75 156.712 261.96L172.607 303.95L188.417 261.96C189.097 259.75 191.137 259.07 193.092 259.92ZM208.852 259.58C211.062 259.58 212.337 261.11 212.337 263.32V311.26C212.337 313.47 211.062 315 208.852 315C206.727 315 205.367 313.47 205.367 311.26V263.32C205.367 261.11 206.727 259.58 208.852 259.58ZM229.77 259.58C231.98 259.58 233.255 261.11 233.255 263.32V311.26C233.255 313.47 231.98 315 229.77 315C227.645 315 226.285 313.47 226.285 311.26V263.32C226.285 261.11 227.645 259.58 229.77 259.58Z" fill="white"/>
</svg>
