<svg width="388" height="420" viewBox="0 0 388 420" fill="none" xmlns="http://www.w3.org/2000/svg">
<path d="M274.534 201.987C274.399 202.298 274.264 202.605 274.126 202.912C274.946 203.47 275.767 204.024 276.585 204.581C276.69 203.963 277.065 202.96 276.842 202.798C276.203 202.345 275.321 202.233 274.534 201.987ZM123.041 221.014C121.065 218.247 120.72 218.304 119.254 221.318C120.713 221.2 121.875 221.108 123.041 221.014ZM147.872 267.355L148.693 267.99C149.609 266.993 150.528 265.997 151.443 265C150.899 264.662 150.355 264.328 149.808 263.99C149.163 265.112 148.517 266.233 147.872 267.355ZM201.737 283.314C202.872 284.122 203.713 284.723 204.544 285.314C205.477 282.848 205.369 282.341 203.551 281.129C202.957 281.845 202.352 282.575 201.737 283.314ZM183.963 131.223C184.642 129.879 185.166 128.841 185.754 127.673C184.862 127.189 183.977 126.71 183.055 126.21C181.521 128.277 182.774 129.554 183.963 131.223ZM262.595 206.264C264.548 205.23 266.132 204.396 268.308 203.247C266.021 202.514 264.372 201.983 262.352 201.335C262.443 203.169 262.511 204.548 262.595 206.264ZM216.102 157.247C213.264 156.375 211.105 155.713 208.943 155.048C208.811 155.206 208.676 155.368 208.541 155.527C209.44 157.088 210.338 158.649 211.244 160.223C212.734 159.311 214.098 158.473 216.102 157.247ZM250.703 231.862C250.95 231.848 251.2 231.831 251.45 231.814C252.271 229.098 253.092 226.379 253.913 223.662C253.71 223.5 253.504 223.335 253.301 223.173C251.72 223.929 250.105 224.622 248.582 225.487C248.247 225.679 247.973 226.591 248.139 226.956C248.903 228.632 249.832 230.237 250.703 231.862ZM247.446 184.21C247.605 184.007 247.767 183.808 247.926 183.605C246.105 181.102 244.376 178.527 242.419 176.135C241.595 175.125 240.71 175.477 240.45 176.885C240.234 178.058 239.825 179.203 239.696 180.382C239.639 180.895 239.943 181.814 240.301 181.943C242.649 182.791 245.058 183.473 247.446 184.21ZM136.865 233.875C136.659 234.068 136.453 234.264 136.247 234.46C138.109 237.703 139.97 240.946 141.832 244.189C142.068 244.152 142.308 244.115 142.548 244.078C143.156 241.466 143.767 238.852 144.43 236.014C141.811 235.274 139.338 234.575 136.865 233.875ZM181.379 145.973C184.507 145.642 187.257 145.355 190.308 145.034C188.69 142.254 187.338 139.858 185.896 137.517C185.626 137.085 185.011 136.706 184.511 136.642C184.274 136.608 183.784 137.318 183.653 137.767C182.899 140.331 182.217 142.919 181.379 145.973ZM217.423 264.858C217.592 265.064 217.761 265.27 217.93 265.477C221.879 263.298 225.832 261.122 230.112 258.76C226.534 257.328 223.598 256.152 220.078 254.743C219.267 257.831 218.345 261.345 217.423 264.858ZM139.153 169.686C140.997 167.669 142.713 165.787 144.683 163.632C141.805 162.74 139.423 162.078 137.095 161.257C135.024 160.527 133.426 159.409 133.443 156.787C133.457 154.673 133.078 152.554 132.815 149.794C130.558 152.389 128.747 154.47 126.99 156.497C133.592 158.804 134.791 165.554 139.153 169.686ZM187.2 269.838C185.2 266.284 183.538 263.277 181.825 260.301C181.21 259.233 180.291 258.497 179.031 259.26C175.845 261.196 172.707 263.213 169.146 265.446C175.024 267.956 180.673 269.426 187.2 269.838ZM146.43 196.831C144.207 193.277 142.186 190.037 140.156 186.801C138.818 184.669 137.903 184.591 137.071 186.929C135.193 192.21 133.612 197.595 131.95 202.953C131.747 203.602 131.784 204.325 131.673 205.341C136.784 202.395 141.48 199.686 146.43 196.831ZM225.227 186.216C226.578 185.743 227.609 185.304 228.68 185.024C230.348 184.588 230.707 183.764 229.842 182.247C229.453 181.568 229.044 180.652 229.193 179.96C230.028 176.051 231.061 172.189 231.94 168.291C232.109 167.541 232.163 166.537 231.801 165.929C229.994 162.889 225.288 161.848 222.264 163.676C221.169 164.338 219.95 164.831 218.96 165.618C217.636 166.666 216.355 167.23 214.592 166.23C216.001 169.291 217.524 172.102 219.112 174.879C219.301 175.21 219.811 175.412 220.213 175.551C222.781 176.429 225.359 177.277 228.044 178.169C227.311 179.345 226.548 180.571 225.676 181.97C224.906 181.274 224.372 180.791 223.531 180.031C222.119 182.858 224.859 184.112 225.227 186.216ZM240.173 229.514C234.024 232.527 227.727 235.612 221.838 238.497C222.308 241.054 222.676 243.068 223.051 245.112C223.764 245.338 224.693 245.977 225.45 245.811C228.879 245.078 231.771 246.76 234.727 247.811C239.325 249.45 240.598 249.135 243.646 245.45C245.808 242.838 246.744 240.51 244.234 237.612C243.213 236.439 242.507 234.97 241.794 233.564C241.2 232.392 240.805 231.115 240.173 229.514ZM211.355 243.737C210.247 244.159 209.585 244.439 208.903 244.662C204.484 246.125 200.99 249.926 195.909 249.794C195.278 249.777 194.615 250.49 193.994 250.906C193.315 251.358 192.707 251.923 192.001 252.325C189.551 253.723 189.49 253.936 190.906 256.271C193.007 259.73 195.105 263.193 197.166 266.676C199.267 270.233 199.24 270.22 203.338 269.51C204.568 269.298 205.237 268.848 205.571 267.49C206.943 261.889 208.517 256.338 209.94 250.747C210.49 248.595 210.828 246.389 211.355 243.737ZM163.369 228.507C163.538 228.341 163.703 228.179 163.872 228.014C161.223 223.314 158.551 218.625 155.94 213.902C154.896 212.01 153.622 210.132 153.119 208.081C152.528 205.679 152.501 205.419 150.257 206.74C144.761 209.973 139.284 213.24 133.774 216.453C132.582 217.149 131.413 217.983 132.011 219.396C132.348 220.189 133.534 220.865 134.47 221.129C139.294 222.497 144.156 223.74 149.021 224.973C153.794 226.183 158.585 227.331 163.369 228.507ZM169.639 183.973C167.653 180.635 165.811 177.652 164.092 174.602C163.561 173.656 163.088 172.541 163.048 171.483C162.974 169.497 162.315 168.443 160.183 168.335C159.18 168.284 158.085 167.875 157.247 167.311C155.517 166.142 153.919 166.284 152.511 167.605C149.767 170.173 147.061 172.791 144.528 175.561C144.044 176.088 144.065 177.598 144.463 178.321C145.946 181.01 147.771 183.51 149.267 186.193C149.663 186.899 149.369 188.01 149.328 188.936C149.308 189.399 148.913 190.027 149.098 190.274C149.338 190.598 149.98 190.71 150.463 190.743C150.872 190.77 151.298 190.558 151.771 190.436C152.281 191.301 152.727 192.058 153.085 192.666C156.977 192.436 157.646 189.223 158.69 186.669C159.46 184.781 159.406 182.554 159.774 180.102C161.305 181.173 162.48 181.993 163.132 182.446C162.919 184.426 162.771 185.855 162.561 187.825C165.034 186.477 167.041 185.385 169.639 183.973ZM151.46 253.524C151.723 254.112 151.828 254.885 152.267 255.23C154.45 256.946 156.696 258.588 158.984 260.159C159.348 260.409 160.139 260.385 160.561 260.162C165.355 257.659 170.119 255.105 174.876 252.534C176.142 251.852 176.801 250.956 175.788 249.487C174.061 246.983 172.406 244.429 170.757 241.872C170.558 241.565 170.68 241.058 170.504 240.727C169.794 239.385 169.257 237.804 168.169 236.899C167.737 236.537 165.808 237.456 164.957 238.23C163.126 239.892 161.18 240.24 158.906 239.595C158.112 239.369 157.261 238.994 156.501 239.108C155.923 239.196 155.139 239.869 154.984 240.433C154.463 242.287 154.294 244.244 153.791 246.105C153.129 248.558 152.278 250.96 151.46 253.524ZM239.99 214.521L240.308 214.301C240.528 214.565 240.845 214.794 240.957 215.102C241.703 217.152 242.781 216.865 244.379 215.902C247.453 214.058 250.642 212.392 253.848 210.777C254.987 210.203 255.382 209.49 255.22 208.301C254.876 205.771 254.558 203.237 254.237 200.703C254.034 199.105 253.173 198.284 251.568 197.818C246.088 196.22 240.663 194.453 235.21 192.757C232.957 192.054 230.696 191.372 228.18 190.602C228.311 191.308 228.301 191.619 228.426 191.862C230.146 195.284 232.119 198.602 233.544 202.139C234.727 205.075 238.423 206.983 237.19 210.926C237.088 211.25 237.477 211.764 237.707 212.149C238.399 213.304 239.119 214.446 239.842 215.588C239.899 215.679 240.048 215.71 240.261 215.828C240.159 215.338 240.075 214.929 239.99 214.521ZM176.923 163.835C179.984 162.453 182.267 162.831 184.903 164.912C183.423 165.713 182.247 166.301 181.129 166.98C180.696 167.243 180.055 167.727 180.071 168.081C180.183 170.21 178.74 170.855 177.173 171.585C176.055 172.105 174.531 172.706 174.146 173.659C173.038 176.402 172.413 179.341 171.409 182.872C179.227 178.537 186.433 174.548 193.632 170.548C194.737 169.933 195.477 169.004 197.22 169.598C198.227 169.946 200.159 168.598 201.169 167.534C201.747 166.923 201.723 165.139 201.261 164.254C199.571 160.997 197.663 157.845 195.663 154.767C195.173 154.017 194.024 153.274 193.166 153.26C189.342 153.2 185.514 153.382 181.686 153.521C179.997 153.585 178.926 154.372 178.605 156.173C178.19 158.504 177.598 160.801 176.923 163.835ZM266.112 255.527C274.659 241.875 279.379 227.058 279.318 210.514C278.497 210.733 278.048 210.784 277.663 210.97C273.261 213.078 268.882 215.243 264.463 217.314C263.004 217.997 262.49 219.102 262.109 220.598C260.727 225.963 259.602 231.46 257.528 236.561C256.207 239.818 256.416 242.382 257.882 245.227C258.362 246.156 258.686 247.159 259.146 248.102C260.673 251.23 261.136 255.304 266.112 255.527ZM135.011 147.997C135.267 148.156 135.49 148.368 135.754 148.453C141.96 150.47 148.176 152.446 154.372 154.487C155.916 154.997 157.176 154.781 158.612 153.973C161.095 152.578 163.696 151.358 166.348 150.318C167.852 149.723 168.642 148.852 169.038 147.338C170.176 142.99 171.379 138.652 172.598 134.325C173.048 132.723 173.609 131.152 174.122 129.568C174.379 129.564 174.636 129.564 174.896 129.564C175.713 134.639 176.531 139.716 177.386 145.004C178.055 144.595 178.656 144.365 178.636 144.22C177.788 138.23 176.882 132.247 175.98 126.24C164.845 127.186 143.24 138.571 135.011 147.997ZM110.382 227.561C109.568 236.794 126.48 267.189 135.041 271.416C136.44 266.162 137.906 260.953 139.156 255.696C139.386 254.733 139.058 253.304 138.44 252.524C133.909 246.811 130.257 240.629 127.707 233.791C126.98 231.841 126.446 229.672 123.815 229.321C123.555 229.287 123.392 228.76 123.122 228.537C122.683 228.179 122.193 227.612 121.713 227.605C118.007 227.527 114.294 227.561 110.382 227.561ZM211.004 276.73C210.815 276.777 210.626 276.824 210.436 276.872V294.017C223.379 293.639 255.065 274.808 257.798 265.504C252.176 264.091 246.578 262.622 240.936 261.338C240.166 261.166 239.011 261.72 238.321 262.287C231.734 267.71 224.409 271.767 216.376 274.625C215.504 274.936 214.723 275.993 214.278 276.892C213.619 278.213 213.294 279.706 212.828 281.129C212.534 281.118 212.24 281.108 211.946 281.098L211.004 276.73ZM249.051 144.936C248.909 145.281 248.73 145.608 248.639 145.956C247.109 151.693 245.666 157.456 244.021 163.159C243.538 164.835 243.815 165.902 245.014 167.125C249.467 171.662 253.595 176.608 255.882 182.52C257.7 187.216 260.791 189.199 265.318 190.21C268.477 190.916 271.511 192.183 274.598 193.199V193.926C273.244 194.287 271.886 194.649 270.088 195.125C273.061 195.453 275.514 195.72 278.004 195.997C278.061 181.804 260.619 151.203 249.051 144.936ZM108.602 218.02C109.017 218.061 109.196 218.139 109.298 218.081C113.798 215.544 118.311 213.027 122.761 210.406C123.274 210.105 123.68 209.21 123.71 208.571C124.244 197.351 127.46 186.983 133.315 177.399C133.74 176.703 133.872 175.443 133.538 174.733C131.095 169.564 128.507 164.47 125.946 159.362C125.838 159.145 125.548 159.017 125.254 158.774C112.301 176.574 106.663 196.22 108.602 218.02ZM191.352 124.429C192.007 125.547 192.534 126.422 193.034 127.314C196.237 133 199.392 138.716 202.68 144.355C203.112 145.101 204.115 145.824 204.963 145.98C211.359 147.152 217.555 148.922 223.477 151.639C224.017 151.885 224.821 151.993 225.342 151.774C228.673 150.389 231.943 148.862 235.261 147.443C236.821 146.777 237.416 145.574 237.798 144.01C238.311 141.912 239.085 139.875 239.774 137.723C225.055 127.862 206.757 123.541 191.352 124.429ZM201.828 295.308C198.936 290.23 196.18 285.507 193.551 280.713C192.571 278.929 191.308 278.22 189.251 278.135C179.338 277.733 169.936 275.227 161.119 270.683C159.234 269.713 157.622 269.696 155.791 270.615C153.376 271.824 150.99 273.382 148.413 273.912C145.392 274.534 145.869 276.811 145.21 278.632C144.585 280.348 145.963 280.855 147.001 281.534C157.521 288.436 168.916 293.102 181.416 294.868C188.051 295.808 194.717 296.227 201.828 295.308ZM234.68 220.943C233.852 219.645 233.294 218.679 232.649 217.774C230.95 215.382 229.646 212.919 228.855 209.97C228.119 207.223 226.436 204.487 222.943 203.686C224.778 201.99 223.092 200.787 222.396 199.561C220.237 195.767 218.044 191.99 215.659 188.341C214.815 187.051 213.548 185.811 212.183 185.129C208.811 183.446 205.271 182.095 201.798 180.612C201.865 180.247 201.933 179.882 202.001 179.517H210.406C209.656 178.247 208.903 176.956 208.139 175.672C206.771 173.365 205.953 173.098 203.578 174.382C202.872 174.76 202.355 175.483 201.686 175.946C200.308 176.899 198.943 177.902 197.457 178.652C196.555 179.108 195.274 178.879 194.44 179.395C185.869 184.699 177.345 190.078 168.848 195.497C168.142 195.946 167.477 196.754 167.203 197.537C166.47 199.629 165.892 201.781 165.382 203.943C164.98 205.632 164.619 207.287 163.264 208.412C163.021 208.365 162.781 208.318 162.538 208.267C162.382 205.422 162.227 202.574 162.061 199.591C161.061 200.203 159.997 200.851 158.852 201.554C159.497 202.879 160.517 204.061 160.571 205.284C160.71 208.321 162.764 210.193 164.213 212.463C166.629 216.243 169.001 220.051 171.362 223.865C174.376 228.723 177.362 233.595 180.355 238.46C181.007 239.52 181.669 239.882 182.551 238.645C183.156 237.804 184.078 237.145 182.96 235.97C182.659 235.656 182.916 234.814 182.916 233.939C184.338 234.365 185.403 234.669 186.453 235.004C187.744 235.419 189.004 235.939 190.315 236.27C192.335 236.784 194.386 237.172 196.423 237.612C196.399 237.912 196.375 238.213 196.348 238.514C193.582 238.706 191.399 242.176 187.838 238.963C187.46 241.706 187.169 243.821 186.818 246.372C189.338 244.862 191.406 243.483 193.602 242.362C194.791 241.754 196.203 241.588 197.514 241.213C198.031 241.068 198.605 241.004 199.044 240.73C201.382 239.281 203.609 237.635 206.017 236.321C210.757 233.737 215.602 231.352 220.376 228.828C224.021 226.902 224.332 223.703 221.47 221.004C220.315 221.152 219.372 221.27 218.426 221.389C218.443 220.345 218.267 219.254 218.517 218.267C218.886 216.787 219.663 215.409 220.065 213.936C220.626 211.865 221.004 209.747 221.46 207.645C221.73 207.689 222.007 207.73 222.278 207.77C223.298 211.108 223.818 214.46 222.362 217.983C222.936 217.446 223.507 216.909 224.082 216.372C225.548 216.889 226.994 216.787 228.409 216.956C228.781 217 229.372 217.919 229.311 218.365C229.061 220.23 228.598 222.068 228.095 224.483C230.565 223.156 232.46 222.135 234.68 220.943ZM289.342 209.973C289.919 261.936 246.906 304.875 195.848 305.814C141.761 306.811 97.4937 262.794 98.1221 208.659C98.7471 155.102 143.196 114.247 193.794 114.169C245.305 114.088 290.122 156.973 289.342 209.973Z" fill="white"/>
</svg>
