<svg width="388" height="420" viewBox="0 0 388 420" fill="none" xmlns="http://www.w3.org/2000/svg">
<path fill-rule="evenodd" clip-rule="evenodd" d="M255.527 264C253.027 263 248.027 259.1 248.027 251.5C248.027 242 258.012 230.822 265.027 226C269.53 223.4 299.027 167.5 201.527 113.5L201.027 123C218.694 130.333 245.827 145.8 209.027 149C206.527 150 204.527 152.5 203.527 155C201.633 159.734 201.027 167 195.027 173C194.527 174.5 195.827 181.2 205.027 198L201.527 201C208.527 206.5 219.812 219.006 212.027 223.5C210.027 224.655 205.027 222 203.027 220C204.527 227.833 208.527 244.7 212.527 249.5C217.527 255.5 225.027 266 228.527 273C230.027 276 238.605 287.156 239.527 289C241.027 292 239.706 294.203 236.527 299.5C234.708 302.532 232.027 310.5 223.027 308.5C222.194 308.167 220.527 307.1 220.527 305.5C220.527 303.5 229.027 297 228.027 291.5C227.027 286 217.527 268.5 203.027 258C198.527 255 197.527 250 195.027 245C192.527 240 183.027 211.5 178.527 211C174.927 210.6 171.892 240.825 171.027 256C170.03 273.5 176.527 300.7 174.527 305.5C172.027 311.5 164.027 308.5 164.027 307C164.027 305.5 165.53 274 160.527 256C153.027 253.5 137.527 247 137.527 247C137.974 247.894 146.027 262.5 140.527 266.5C140.194 260.167 136.03 248.5 127.027 246.5C125.563 246.175 127.527 261 137.027 273C144.627 282.6 143.527 289.333 142.027 291.5C141.194 287.667 135.555 280.513 123.027 275.5C113.03 271.5 93.5302 255 95.5272 226.5C96.1949 218 99.0302 209 112.03 193.5C125.03 178 162.03 149 164.027 126.5C163.362 120 163.83 106.2 171.03 103L174.03 106.5C179.658 105.386 182.84 104.924 188.53 104.5L190.03 97C214.197 108.167 267.63 136.6 288.03 161C313.53 191.5 309.53 230 296.53 243C283.53 256 271.53 265.5 269.53 270.5C267.53 275.5 267.53 278.5 271.03 284.5C267.364 283.167 260.43 277.9 262.03 267.5C263.03 261.5 263.527 261 264.027 257C264.027 250 262.03 247 262.53 236C258.197 239 253.285 245.217 252.53 250.5C251.53 257.5 254.862 261.667 255.527 264ZM199.03 141L195.53 137C194.53 135.5 198.03 131.5 199.03 132C204.239 134.605 209.03 138.667 210.53 141H199.03ZM181.53 141L180.53 134.5C184.193 136.544 185.944 137.969 188.53 141C186.864 141 182.93 141.5 180.53 143.5C177.53 146 169.03 164 161.53 175C155.53 183.8 146.697 192.667 143.03 194.5C140.03 195.5 133.969 196 133.969 196L138.03 199L134.03 201L153.53 208.5L158.53 203C157.53 218 159.196 238.333 160.527 248C155.028 246.667 141.93 241.6 133.53 232C123.03 220 133.03 195 137.527 190C141.125 186 162.695 153.333 173.03 137.5L181.53 141ZM201.03 212.5L206.53 207C209.386 210.333 215.53 217 212.03 220.5C209.381 223.15 202.53 216.5 201.03 212.5Z" fill="white"/>
</svg>
