<svg width="388" height="420" viewBox="0 0 388 420" fill="none" xmlns="http://www.w3.org/2000/svg">
<path d="M222.963 199.399C222.267 197.852 221.487 196.683 221.223 195.409C220.733 193.027 219.625 190.223 220.402 188.237C222.672 182.46 220.274 177.547 218.642 172.409C217.835 169.868 216.99 167.341 216.108 164.639C222.297 165.382 234.095 185.46 234.943 196.483C237.605 195.804 240.321 195.456 242.747 194.422C248.345 192.031 250.206 196.166 250.095 200.588C249.922 207.439 249.335 214.345 249.936 221.135C250.26 224.835 251.916 229.01 254.331 231.787C257.723 235.683 259.311 240.466 259.544 244.733C259.781 249.162 256.737 253.767 255.125 258.294C254.764 258.172 254.402 258.051 254.041 257.929C254.49 258.912 254.939 259.895 255.429 260.973C251.787 260.588 249.774 263.156 250.199 267.595C250.46 270.311 250.963 273.004 251.358 275.72C246.335 275.639 245.142 278.767 247.669 285.993C246.676 285.713 245.902 285.493 244.797 285.179C244.247 287.402 243.723 289.517 243.335 291.081C241.733 291.943 240.112 292.73 238.588 293.672C237.787 294.169 237.253 295.149 236.422 295.537C235.118 296.149 233.662 296.446 232.274 296.875C232.639 295.034 232.419 292.152 233.48 291.554C236.166 290.051 235.49 288.348 235.46 286.054C235.426 283.149 236.52 280.237 237.007 277.311C237.287 275.618 237.554 273.872 237.399 272.189C237.301 271.152 237.628 268.777 235.061 270.071C234.946 270.132 234.639 269.862 234.449 269.706C224.737 261.875 214.976 254.098 205.392 246.108C204.368 245.257 203.824 243.108 203.99 241.669C205.274 230.297 206.672 218.933 208.365 207.618C208.595 206.105 210.429 204.362 211.956 203.612C215.284 201.977 218.892 200.912 222.963 199.399Z" fill="white"/>
<path d="M133.878 263.56C132.212 264.642 130.831 265.689 129.317 266.49C127.378 267.513 126.969 266.503 126.364 264.631C125.287 261.28 128.01 260.037 129.513 257.719C126.55 256.53 124.601 254.709 124.709 251.213C124.729 250.604 122.678 249.932 121.435 249.202C121.766 248.726 122.368 247.865 123.388 246.395C121.456 246.902 120.195 247.233 118.935 247.567C118.824 247.422 118.712 247.273 118.597 247.128C119.597 246.442 120.618 245.787 121.587 245.067C123.641 243.547 126.462 242.797 125.192 238.871C124.702 237.354 126.283 234.804 127.513 233.169C130.834 228.746 131.391 223.716 131.746 218.473C131.895 216.267 132.922 214.118 133.537 211.939C133.736 211.236 134.02 210.523 134.037 209.81C134.101 207.432 134.06 205.047 134.06 202.351C132.496 201.53 130.428 200.452 127.455 198.898C129.983 198.236 131.648 197.8 133.496 197.317C133.638 196.162 133.8 194.854 134.02 193.098C135.358 193.304 136.553 193.361 137.672 193.679C148.699 196.827 159.692 200.094 170.743 203.148C173.783 203.986 175.381 205.5 175.736 208.713C176.854 218.865 177.966 229.023 179.452 239.125C180.327 245.057 176.591 248.189 172.834 251.155C165.236 257.155 157.675 263.321 149.422 268.3C146.695 269.946 142.861 270.719 139.628 272.209C139.192 272.412 137.837 271.442 137.422 270.719C136.185 268.584 135.206 266.297 133.878 263.56Z" fill="white"/>
<path d="M269.524 105.325C265.584 111.233 261.649 117.139 257.709 123.048C257.97 123.291 258.23 123.534 258.49 123.777C259.416 123.429 260.5 123.284 261.24 122.7C263.622 120.808 265.03 121.494 266.402 123.98C266.804 124.71 268.399 124.794 269.456 125.146C271.196 125.723 272.946 126.274 274.693 126.838C274.753 127.362 274.814 127.889 274.875 128.413C279.054 125.179 283.237 121.943 287.419 118.71C287.595 118.835 287.77 118.963 287.946 119.088C286.24 121.507 284.534 123.929 282.828 126.352C283.145 126.585 283.463 126.821 283.78 127.054C286.584 125.139 289.389 123.223 292.193 121.304C292.432 121.568 292.672 121.831 292.912 122.092C290 124.831 287.071 127.551 284.182 130.318C280.993 133.372 281.132 133.825 284.216 136.977C284.949 137.723 285.047 139.581 284.75 140.75C283.189 146.919 284.294 152.669 287.03 158.227C289.297 162.831 286.97 171.581 282.882 174.7C276.362 179.679 269.105 183.027 261.264 185.291C258.061 186.217 255.993 185.521 254.855 182.223C254.125 180.112 252.922 178.166 252.162 176.065C249.733 169.342 245.179 164.777 238.696 161.835C234.287 159.831 230.014 157.494 225.838 155.041C224.892 154.483 223.808 152.558 224.105 151.733C226.909 143.889 229.78 136.054 233.088 128.413C235.041 123.902 242.125 121.565 247.294 122.298C251.172 122.848 255.105 123.362 257.932 118.686C260.949 113.7 265.179 109.443 268.878 104.865C269.095 105.017 269.307 105.173 269.524 105.325Z" fill="white"/>
<path d="M94.5544 168.696C95.6388 166.77 96.6017 165.057 97.5645 163.345C97.6321 163.595 97.6997 163.841 97.7706 164.091C98.0679 162.841 98.6152 161.591 98.6186 160.341C98.6186 157.132 98.3213 153.922 98.2605 150.713C98.2335 149.264 97.9665 147.416 98.7098 146.436C100.44 144.169 100.733 142.081 99.5105 139.595C98.7368 138.013 98.1422 136.405 100.95 136.26C101.328 136.24 101.929 135.747 102 135.389C102.598 132.328 103.098 129.247 103.686 125.828C105.362 125.696 107.892 126.061 106.99 123.23C110.98 122.169 114.906 123.666 118.365 121.223C119.044 120.747 120.504 121.534 121.568 121.419C128.186 120.709 133.977 123.753 140.098 125.314C141.041 125.554 142.169 125.358 143.149 125.115C146.173 124.358 148.862 124.527 150.183 127.828C153.369 135.787 156.514 143.764 159.433 151.821C159.706 152.578 158.544 154.432 157.595 154.956C152.632 157.706 147.433 160.034 142.483 162.807C136.835 165.97 133.284 170.946 130.825 176.909C126.7 186.916 126.193 186.909 115.997 183.287C108.287 180.547 102.203 175.385 95.8382 170.608C95.203 170.132 94.8956 169.22 94.5544 168.696Z" fill="white"/>
<path d="M176.797 259.908H205.895C205.422 261.263 205.361 262.807 204.564 263.493C201.155 266.422 197.486 269.043 194.027 271.918C193.429 272.412 193.27 273.547 193.108 274.422C192.79 276.091 192.618 277.787 192.385 279.472C192.061 279.479 191.736 279.486 191.409 279.493C191.115 276.868 190.817 274.246 190.537 271.787C184.912 269.3 180.442 265.702 176.797 259.908Z" fill="white"/>
</svg>
