<svg width="388" height="420" viewBox="0 0 388 420" fill="none" xmlns="http://www.w3.org/2000/svg">
<path d="M327.957 202.764C327.423 205.838 328.906 208.574 328.636 211.473C328.365 214.429 328.578 217.433 328.578 220.72C329.487 221.115 330.507 221.558 331.879 222.152H323.936C324.886 221.524 325.605 221.054 326.389 220.537V197.183C327.649 196.409 328.18 197.476 328.531 198.058C330.338 201.047 333.078 203.159 335.436 205.622C337.757 208.044 340.217 210.331 342.524 212.767C343.805 214.115 344.899 215.645 346.362 217.446V199.155C346.092 198.956 345.511 198.534 344.527 197.814H349.122C348.987 198.987 348.761 200.112 348.754 201.24C348.717 207.449 348.74 213.662 348.73 219.875C348.727 220.689 348.646 221.503 348.582 222.632C346.119 221.351 344.811 219.341 343.129 217.784C341.308 216.098 339.602 214.287 337.842 212.527C336.173 210.858 334.642 209.01 332.794 207.571C331.034 206.203 330.764 203.385 327.957 202.764Z" fill="white"/>
<path d="M289.444 198.409C287.991 199.301 286.329 199.808 285.488 200.93C282.397 205.048 282.164 210.284 284.302 214.99C285.501 217.639 287.748 219.203 290.049 220.73C297.001 220.818 296.853 222.031 301.481 216.815C301.86 215.527 302.245 214.544 302.42 213.524C302.586 212.571 302.153 211.261 302.65 210.673C303.67 209.463 301.876 208.953 302.356 207.788C303.089 206.004 301.819 204.335 300.907 202.889C299.191 200.163 297.005 197.987 293.322 198.389C292.099 198.524 290.846 198.409 289.444 198.409ZM288.816 222.301C287.974 221.808 287.319 221.261 286.562 221.004C282.356 219.592 280.68 216.301 280.079 212.271C279.907 211.105 278.694 210.027 279.349 208.892C280.302 207.237 279.826 205.169 281.126 203.659C282.055 202.578 282.735 201.237 283.799 200.328C286.143 198.318 288.876 197.095 292.045 196.896C294.978 196.71 297.643 197.379 300.214 198.764C304.137 200.875 305.924 204.119 306.231 208.521C306.501 212.335 305.174 215.649 302.9 218.284C300.883 220.625 297.934 222.186 294.583 222.291C292.599 222.352 290.616 222.301 288.816 222.301Z" fill="white"/>
<path d="M179.257 202.517C179.257 207.986 179.23 212.824 179.267 217.658C179.281 219.54 180.271 220.875 182.544 222.125H175.558C177.075 220.327 177.777 218.321 177.771 216.047C177.747 210.449 177.764 204.851 177.764 199.256V196.767C185.132 203.077 190.551 210.787 197.713 217.115C198.433 210.865 197.588 204.763 196.99 198.631C196.615 198.49 196.183 198.327 195.267 197.979C197.331 197.422 198.983 197.804 201.254 197.561C200.412 198.483 199.909 199.033 199.396 199.598V222.216C195.477 220.165 192.737 216.939 190.024 213.834C188.943 212.594 187.896 211.236 186.74 210.03C184.416 207.604 182.004 205.263 179.257 202.517Z" fill="white"/>
<path d="M47.3184 219.845C47.9671 220.166 48.484 220.419 49.2306 220.791C51.8286 220.757 55.011 221.537 56.6799 217.253V221.318C56.4637 221.527 56.109 221.875 55.6732 222.301C53.9063 222.301 52.0482 222.362 50.1968 222.284C48.4164 222.206 46.5313 222.804 44.9097 221.554C43.761 222.331 42.5482 222.574 41.1157 222.101C41.9603 221.527 42.6901 221.03 43.3691 220.568V194.767C42.4637 194.372 41.4502 193.932 40.0752 193.338H55.9874V197.615C55.1326 196.571 54.3928 195.669 53.636 194.747H46.4874V204.882L47.2779 205.672C49.7509 205.672 52.0786 205.682 54.4029 205.649C54.582 205.649 54.7543 205.321 55.1056 204.97C55.5178 206.777 55.207 208.456 54.9232 210.22C54.5583 209.291 54.1968 208.358 53.8387 207.443H46.359C46.359 209.551 46.413 211.635 46.3455 213.713C46.2779 215.774 46.4198 217.784 47.3184 219.845Z" fill="white"/>
<path d="M229.781 222.396C226.494 221.97 223.369 223.054 220.48 221.362V215.747C221.389 217.426 222.308 219.132 222.93 220.281C224.592 220.818 225.578 221.382 226.575 221.396C227.551 221.409 228.535 220.862 230.055 220.399C230.477 219.95 231.322 219.044 232.264 218.038C232.264 217.598 232.217 216.973 232.274 216.358C232.548 213.23 230.937 211.294 228.504 209.554C226.051 207.808 223.869 205.723 222.241 203.048C221.227 201.379 220.91 199.784 221.102 198.294C221.825 196.879 222.403 195.747 222.977 194.629C227.548 191.963 227.778 191.94 234.504 193.45V198.051C234.291 198.24 234.203 198.315 234.116 198.396C233.964 197.828 233.812 197.264 233.562 196.342C232.92 195.777 231.991 194.96 230.707 193.835C229.187 193.977 227.183 194.169 225.335 194.345C223.882 196.821 223.433 199.027 224.805 201.331C225.105 201.835 225.379 202.419 225.825 202.757C227.514 204.044 229.328 205.169 230.98 206.494C233.068 208.166 234.474 210.463 235.129 212.96C235.71 215.166 235.119 217.494 233.42 219.24C232.345 220.352 231.085 221.281 229.781 222.396Z" fill="white"/>
<path d="M147.217 199.156V208.183C149.876 207.851 152.518 208.632 155.204 207.608V210.922C155.096 211.024 154.984 211.122 154.876 211.223C154.673 210.493 154.471 209.767 154.451 209.693H147.255V219.044C147.721 219.51 148.248 220.037 148.896 220.686H154.488C155.103 219.892 155.859 218.916 157.089 217.328C156.626 219.345 156.326 220.656 156.015 221.997C150.859 222.622 147.721 222.49 145.68 221.554C144.532 222.078 143.711 222.179 141.978 222.01C142.65 221.588 143.298 221.179 144.035 220.716V198.706C143.68 198.541 143.173 198.304 142.201 197.845H155.863C155.603 198.99 155.336 200.179 155.001 201.639C154.819 201.091 154.633 200.791 154.636 200.49C154.64 199.689 154.657 199.071 153.498 199.129C151.518 199.226 149.528 199.156 147.217 199.156Z" fill="white"/>
<path d="M111.194 198.568C110.643 198.386 110.234 198.25 109.826 198.119C109.839 198.021 109.849 197.926 109.863 197.828H123.782C123.501 199.034 123.228 200.22 122.836 201.902C122.616 200.734 122.491 200.048 122.346 199.264H114.467V208.058H122.363V212C121.741 211.058 121.271 210.345 120.849 209.707H114.261C114.704 213.727 113.38 217.777 115.386 221.69H117.187C114.518 222.534 111.829 222.193 108.542 222.359C109.799 221.575 110.457 221.163 111.194 220.707L111.194 198.568Z" fill="white"/>
<path d="M81.4505 218.97C82.0451 219.52 82.6769 220.105 83.4066 220.777H89.4235C90.1026 219.922 90.8863 218.929 91.7478 217.841V221.338C91.4336 221.652 91.1701 221.912 90.7647 222.318C87.3053 221.946 83.6296 222.987 80.1735 221.764C78.9066 221.983 77.6769 222.196 76.4472 222.409C76.3965 222.267 76.3424 222.125 76.2917 221.987C77.0046 221.524 77.7174 221.061 78.464 220.574V212.733C78.464 210.25 78.5553 207.764 78.4404 205.287C78.3222 202.808 78.9979 200.264 77.8593 197.757H81.8425C81.0485 201.155 81.5587 204.639 81.4708 208.091C81.3796 211.689 81.4505 215.291 81.4505 218.97Z" fill="white"/>
<path d="M252.372 229.395C254.453 227.716 255.997 225.695 256.528 223.047C256.666 222.358 256.886 221.665 256.886 220.972C256.913 213.55 256.903 206.128 256.903 198.736C256.372 198.489 255.916 198.277 254.869 197.79H261.261C261.288 197.905 261.315 198.02 261.342 198.131C260.98 198.26 260.622 198.391 259.973 198.624C259.953 198.999 259.892 199.577 259.892 200.155C259.885 206.597 259.987 213.043 259.852 219.479C259.774 223.273 258.727 226.695 254.848 228.496C254.142 228.827 253.582 229.472 252.953 229.969C252.761 229.777 252.568 229.587 252.372 229.395Z" fill="white"/>
<path d="M291.359 194.179C293.464 192.118 295.461 191.098 297.495 190.03C297.91 190.851 298.248 191.52 298.589 192.192C296.397 192.794 294.204 193.399 291.359 194.179Z" fill="white"/>
<path d="M292.072 193.997C291.899 194.2 291.724 194.406 291.551 194.608L291.315 194.372C291.518 194.2 291.724 194.024 291.926 193.852C291.974 193.902 292.021 193.95 292.072 193.997Z" fill="white"/>
</svg>
