<svg width="388" height="420" viewBox="0 0 388 420" fill="none" xmlns="http://www.w3.org/2000/svg">
<path d="M193.733 128.348C148.71 128.348 112.081 164.977 112.081 210C112.081 255.024 148.71 291.652 193.733 291.652C238.757 291.652 275.385 255.024 275.385 210C275.385 164.977 238.757 128.348 193.733 128.348ZM193.733 332.48C126.196 332.48 71.2534 277.534 71.2534 210C71.2534 142.466 126.196 87.5205 193.733 87.5205C261.27 87.5205 316.213 142.466 316.213 210C316.213 277.534 261.27 332.48 193.733 332.48Z" fill="white"/>
<path d="M193.733 139.081C154.554 139.081 122.814 170.821 122.814 210C122.814 249.179 154.554 280.919 193.733 280.919C232.912 280.919 264.652 249.179 264.652 210C264.652 170.821 232.912 139.081 193.733 139.081ZM193.733 149.213C204.023 149.213 213.757 151.824 222.307 156.334L206.949 171.689C202.757 170.267 198.402 169.476 193.733 169.476C189.142 169.476 184.709 170.267 180.517 171.689L165.159 156.334C173.709 151.824 183.442 149.213 193.733 149.213ZM140.067 238.574C135.557 230.024 132.946 220.291 132.946 210C132.946 199.709 135.557 189.976 140.067 181.426L155.422 196.784C154 200.976 153.209 205.331 153.209 210C153.209 214.591 154 219.024 155.422 223.216L140.067 238.574ZM193.733 270.787C183.442 270.787 173.709 268.176 165.159 263.666L180.517 248.311C184.709 249.733 189.142 250.524 193.733 250.524C198.402 250.524 202.757 249.733 206.949 248.311L222.307 263.666C213.757 268.176 204.023 270.787 193.733 270.787ZM193.733 240.395C176.952 240.395 163.338 226.78 163.338 210C163.338 193.22 176.952 179.605 193.733 179.605C210.513 179.605 224.128 193.22 224.128 210C224.128 226.78 210.513 240.395 193.733 240.395ZM232.044 223.216C233.466 219.024 234.257 214.591 234.257 210C234.257 205.409 233.466 200.976 232.044 196.784L247.398 181.426C251.909 189.976 254.52 199.709 254.52 210C254.52 220.291 251.909 230.024 247.398 238.574L232.044 223.216Z" fill="white"/>
</svg>
