<svg width="388" height="420" viewBox="0 0 388 420" fill="none" xmlns="http://www.w3.org/2000/svg">
<path d="M268.435 215.834C263.928 218.378 259.073 220.52 254.07 222.132V259.203C263.408 254.774 268.435 250.176 268.435 247.635V215.834ZM236.827 226.513C223.881 228.983 211.104 229.902 202.35 230.226V270.26C215.83 269.672 227.421 267.912 236.827 265.399V226.513ZM185.111 230.226C176.357 229.902 163.58 228.983 150.631 226.513V265.399C160.036 267.899 171.631 269.672 185.111 270.26V230.226ZM133.391 222.132C128.388 220.517 123.529 218.375 119.023 215.828V247.635C119.023 250.176 124.053 254.774 133.391 259.203V222.132ZM268.435 190.169C268.435 182.53 256.269 175.777 237.634 171.601L194.986 199.098C194.077 199.706 192.979 200.067 191.803 200.067C189.807 200.067 188.046 199.047 187.016 197.503L183.834 192.723C183.222 191.811 182.861 190.713 182.861 189.537C182.861 187.54 183.877 185.784 185.421 184.753L211.611 167.872C205.871 167.436 199.905 167.182 193.729 167.182C152.469 167.182 119.023 177.473 119.023 190.169C119.023 202.865 152.469 213.155 193.729 213.155C234.986 213.155 268.435 202.865 268.435 190.169ZM285.675 190.169V247.635C285.675 269.851 244.509 287.858 193.729 287.858C142.952 287.858 101.786 269.851 101.786 247.635V190.169C101.786 151.882 178.374 149.942 193.729 149.942C200.036 149.942 216.695 150.301 234.117 153.355L273.553 127.922C274.465 127.314 275.56 126.949 276.736 126.949C278.732 126.949 280.492 127.969 281.523 129.517L284.705 134.297C285.317 135.209 285.678 136.307 285.678 137.483C285.678 139.48 284.661 141.236 283.114 142.267L256.823 159.219C272.918 165.081 285.675 174.581 285.675 190.169Z" fill="white"/>
</svg>
