<svg width="388" height="420" viewBox="0 0 388 420" fill="none" xmlns="http://www.w3.org/2000/svg">
<path d="M193.733 128.348C148.71 128.348 112.081 164.977 112.081 210C112.081 255.024 148.71 291.652 193.733 291.652C238.757 291.652 275.385 255.024 275.385 210C275.385 164.977 238.757 128.348 193.733 128.348ZM193.733 332.48C126.196 332.48 71.2534 277.534 71.2534 210C71.2534 142.466 126.196 87.5205 193.733 87.5205C261.27 87.5205 316.213 142.466 316.213 210C316.213 277.534 261.27 332.48 193.733 332.48Z" fill="white"/>
<path d="M241.054 196.419H241.051C241.179 196.344 241.264 196.24 241.321 196.125C241.264 196.24 241.183 196.341 241.054 196.419ZM249.335 168.101C249.27 167.165 249.054 166.263 248.47 165.503C248.02 164.912 247.429 164.5 246.669 164.851C246.372 164.99 246.095 165.149 245.841 165.331C245.095 165.871 244.578 166.611 244.378 167.611C243.97 168.037 243.713 168.557 243.449 169.078C242.743 170.453 242.024 171.821 241.311 173.196C241.139 172.75 240.818 172.328 240.358 172.503C240.098 172.605 239.676 172.527 239.429 172.706C239.301 172.801 239.22 172.956 239.23 173.24C239.162 173.301 239.095 173.365 239.027 173.426C238.953 173.412 238.875 173.395 238.797 173.382C237.983 174.801 238.473 175.713 239.943 176.179C239.612 176.743 239.281 177.311 238.949 177.875C238.206 177.078 237.341 177.665 236.706 177.905C236.618 177.939 236.534 177.986 236.46 178.04C235.99 178.378 235.764 179.091 236.068 179.804C236.149 180.172 236.226 180.547 236.656 180.686C237.287 180.855 237.503 181.165 237.068 181.76C236.855 182.047 236.703 182.378 236.524 182.689C235.72 182.459 234.686 182.463 234.014 182.953C233.933 183.007 233.517 183.145 233.517 183.155V183.159C233.517 183.872 233.203 184.243 233.5 184.888C233.433 185.355 233.882 185.611 234.206 185.811C234.476 185.98 234.754 186.132 234.672 186.483C234.568 186.956 233.926 187.483 234.794 187.946C235.858 188.513 236.591 189.476 237.112 190.564C237.233 190.476 237.27 190.138 237.318 190.017C237.27 190.138 237.186 190.108 237.051 190.108H237.047C237.044 190.108 237.037 190.189 237.04 190.189V190.23C236.912 190.27 237.088 190.747 237.132 190.936C237.23 191.345 237.645 191.331 237.77 191.493C237.888 191.645 237.905 191.76 237.858 191.797C237.77 191.858 237.507 191.824 237.395 191.905C237.351 191.936 237.368 191.976 237.385 192.057C237.598 193.003 237.605 193.936 236.899 194.696V194.699C236.267 195.696 236.503 196.77 236.351 197.818C235.706 202.223 234.75 206.554 234.432 211.007C234.436 211.061 234.429 211.125 234.429 211.179C234.361 211.203 234.304 211.233 234.267 211.26C234.132 211.358 234.172 211.476 234.382 211.608C233.929 213.071 233.875 214.611 233.523 216.095C233.371 214.757 233.986 213.49 233.797 212.142C233.422 214.49 233.03 216.929 232.652 219.287L232.659 219.291C232.5 220.318 232.331 221.341 232.166 222.365L235.949 220.97L235.642 225.615L240.574 222.753C240.463 222.53 240.49 222.568 240.446 222.5C240.797 220.28 241.135 218.034 241.49 215.814C241.831 214.564 241.736 213.257 241.922 211.99C242.196 210.098 242.655 208.267 242.946 206.378C242.997 206.034 243.03 205.774 243.03 205.395V205.392C243.03 203.547 243.48 201.679 243.774 199.851C243.889 199.115 243.936 198.345 244.054 197.608C244.074 196.949 244.061 196.277 244.081 195.622C244.047 195.618 243.997 195.608 243.963 195.605C243.861 196.247 243.75 196.885 243.645 197.527C243.574 197.588 243.5 197.645 243.429 197.706C243.409 197.034 243.791 196.378 243.51 195.696C243.524 195.561 243.534 195.426 243.547 195.291C243.574 195.274 243.598 195.257 243.618 195.24C243.669 195.206 243.713 195.169 243.763 195.132C243.831 195.084 243.909 195.034 244.013 194.99V194.993C244.013 194.997 244.02 195.003 244.027 195.007C244.027 195.03 244.03 195.054 244.037 195.071C244.044 195.088 244.074 195.091 244.091 195.101C244.071 195.071 244.061 195.031 244.04 195C244.037 194.993 244.051 194.97 244.047 194.966L244.044 194.959C244.044 194.959 244.02 194.976 244.017 194.98C244.047 194.959 244.03 194.865 244.034 194.804C244.72 194.125 244.943 193.186 245.432 192.395C245.534 192.409 245.598 192.399 245.642 192.368C245.726 192.307 245.716 192.172 245.709 192.04L245.716 192.037C245.794 192.047 245.848 192.034 245.892 192.003C245.96 191.953 245.99 191.868 246.02 191.777C247.314 190.875 248.77 190.351 250.287 189.959C250.375 189.925 250.449 189.888 250.507 189.844C250.878 189.578 250.747 189.125 250.753 188.716C250.76 188.351 250.727 187.946 250.916 187.807C251.044 187.716 251.281 187.743 251.699 187.99C251.949 188.138 252.419 188.27 252.797 188.064C253.091 187.996 253.355 187.898 253.561 187.746C253.862 187.53 254.044 187.206 254.041 186.709C254.048 186.706 254.054 186.699 254.061 186.696C254.48 186.392 254.166 186.03 254.064 185.743C253.845 185.128 253.22 184.882 252.686 184.794C252.449 184.753 252.26 184.807 252.105 184.919C251.838 185.115 251.672 185.473 251.551 185.827C251.46 186.088 251.547 186.419 251.277 186.611C251.27 186.618 251.26 186.625 251.25 186.632C251.402 186.061 250.973 186.03 250.608 185.939C250.551 185.682 250.45 185.452 250.237 185.287C250.23 185.165 250.223 185.047 250.216 184.925C250.49 184.311 250.689 183.702 250.544 182.993C250.497 182.75 250.558 182.594 250.683 182.503C250.828 182.398 251.058 182.382 251.301 182.419C251.95 182.817 252.605 182.797 253.068 182.459C253.433 182.199 253.679 181.743 253.73 181.145C254.061 180.459 253.7 180.165 253.118 179.875C252.818 179.726 252.872 178.929 252.247 179.294C251.966 179.459 251.551 179.452 251.298 179.635C251.203 179.706 251.129 179.804 251.098 179.952C251.048 180.192 250.953 180.334 250.828 180.425C250.622 180.574 250.338 180.567 250.064 180.618C249.743 179.581 250.487 178.628 250.308 177.581C250.291 177.486 250.368 177.338 250.5 177.243C250.662 177.125 250.902 177.098 251.135 177.381C251.453 177.77 251.835 177.804 252.267 177.628C252.561 177.574 252.808 177.476 253.007 177.331C253.358 177.077 253.561 176.686 253.629 176.165C253.865 175.554 253.301 175.28 253.102 174.841C252.821 174.216 252.399 174.05 251.798 174.172C251.588 174.213 251.379 174.314 251.24 174.415C250.953 174.621 250.743 174.993 250.74 175.409L250.744 175.415C250.592 175.632 250.578 175.736 250.453 175.828C250.257 175.969 250.115 175.969 249.801 175.584C249.804 175.584 249.808 175.584 249.808 175.581C249.892 175.52 250.065 175.5 250.149 175.436C250.21 175.395 250.196 175.294 250.071 175.138C249.629 174.594 249.693 173.969 249.656 173.348C249.551 171.598 249.453 169.851 249.335 168.101Z" fill="white"/>
<path d="M223.426 197.49L219.399 197.612C214.547 206.683 209.531 215.497 204.828 224.605C204.335 225.179 203.564 225.663 203.625 226.527C203.564 226.642 203.247 226.771 203.247 226.889V226.885C203.247 226.909 203.216 226.923 203.179 226.99C202.429 228.352 201.784 229.713 201.041 231.078C200.841 231.446 201.095 231.625 201.385 231.781C201.277 232.379 200.561 232.578 200.51 233.21C200.237 233.693 199.973 234.173 199.699 234.656C199.645 234.713 199.602 234.767 199.551 234.821C199.514 234.808 199.48 234.791 199.446 234.771C198.933 235.717 198.422 236.666 197.906 237.612C198.422 236.666 198.936 235.717 199.449 234.767C199.487 234.416 199.997 234.186 199.72 233.75C198.862 234.23 198.004 234.706 197.149 235.189C196.703 235.321 196.254 235.453 195.808 235.585C195.693 235.592 195.585 235.608 195.48 235.632L194.034 241.122L199.689 240.902L191.554 248.041L201.331 246.031L193.044 252.862L203.449 253.5L198.821 261.798L205.26 259.831L203.027 268.541L207.504 267.173L207.429 267.909C208.571 260.277 209.71 252.619 210.862 244.987C210.97 244.247 210.916 243.548 210.625 242.838C209.983 241.271 209.75 239.608 210.132 237.956C210.578 236.021 211.095 234.098 211.385 232.132C213.75 227.223 216.159 222.335 218.703 217.517C219.024 216.777 219.672 216.179 219.669 215.301C220.727 213.311 221.781 211.321 222.835 209.331C222.831 209.331 222.831 209.331 222.831 209.328C223.088 208.71 223.659 208.22 223.615 207.477C224.635 205.541 225.659 203.608 226.679 201.672C226.632 201.639 226.581 201.608 226.527 201.585C226.581 201.608 226.645 201.7 226.693 201.733C226.838 201.352 227.186 200.933 227.22 200.672L221.628 201.784L223.426 197.49Z" fill="white"/>
<path d="M186.152 195.99L196.075 191.865L186.139 190.919L196.004 186.469L190.534 185.023L193.52 180.196C193.456 180.189 193.392 180.186 193.331 180.186C192.716 180.186 192.162 180.442 191.598 180.74C188.585 182.327 185.429 183.645 182.605 185.581L182.595 185.584C182.558 185.571 182.521 185.959 182.49 185.959C182.291 185.959 182.196 186.648 182.041 186.648H182.034C181.956 186.648 181.855 186.142 181.794 186.142C181.787 186.142 181.777 185.946 181.774 185.949C179.585 187.108 177.368 188.115 175.149 189.219C173.835 189.875 172.524 190.486 171.21 191.142C170.392 191.554 169.571 191.939 168.75 192.351C167.757 192.848 166.764 193.334 165.77 193.834C158.108 197.692 150.456 201.574 142.801 205.446C136.541 208.608 130.28 211.767 124.024 214.932C123.628 215.132 123.237 215.328 122.845 215.527C121.48 216.216 120.78 217.311 120.892 218.537C120.848 218.773 120.801 219.01 120.757 219.246C120.757 219.385 120.767 219.517 120.78 219.645C120.828 220.121 120.963 220.537 121.179 220.892C121.568 221.534 122.21 221.99 123.041 222.304C123.125 222.324 123.206 222.344 123.287 222.365C123.284 222.368 123.28 222.368 123.28 222.368C123.378 222.453 123.48 222.527 123.605 222.527C123.642 222.527 123.686 222.52 123.73 222.5C123.817 222.52 123.909 222.537 123.997 222.554C123.99 222.551 123.976 222.544 123.97 222.54C124.03 222.551 124.095 222.567 124.142 222.567C124.169 222.567 124.189 222.564 124.203 222.551C124.73 222.74 125.226 222.797 125.709 222.797C125.942 222.797 126.169 222.784 126.399 222.767C126.807 222.733 127.216 222.686 127.635 222.676C127.706 222.855 127.858 223.057 127.841 223.226C127.811 223.51 127.378 223.838 127.905 224.037C128.132 224.122 128.378 224.23 128.611 224.23C128.821 224.23 129.027 224.145 129.206 223.882C129.29 223.757 129.469 223.699 129.598 223.601C129.608 223.594 129.574 223.486 129.544 223.476C128.763 223.189 129.493 222.838 129.5 222.52C129.73 222.49 129.956 222.449 130.186 222.429C137.828 221.726 145.469 221.024 153.111 220.318C154.067 220.23 155.024 220.142 155.98 220.051C156.936 219.963 157.892 219.875 158.848 219.787C159.344 219.74 159.841 219.696 160.334 219.649C160.723 219.611 161.105 219.584 161.486 219.584C162.149 219.584 162.801 219.669 163.439 219.929C164.007 220.426 164.632 220.848 165.145 221.416C166.527 222.946 166.601 224.797 166.547 226.699C166.23 229.003 166.007 231.318 165.878 233.642C165.875 233.716 165.875 233.787 165.871 233.861L165.864 233.909C165.861 233.99 165.854 234.071 165.848 234.152L165.962 234.179C165.875 234.26 166.057 234.348 166.057 234.443V234.453C166.057 234.77 165.787 235.098 165.837 235.432C165.658 236.365 165.516 237.307 165.506 238.257C165.499 238.348 165.462 238.439 165.456 238.53C165.446 238.625 165.422 238.72 165.412 238.814C165.297 239.135 165.253 239.463 165.31 239.801C165.209 240.078 165.175 240.361 165.236 240.652C165.077 242.162 164.902 243.669 164.766 245.179C164.398 249.253 164.047 253.328 163.689 257.405C163.375 259.615 163.158 261.834 163.091 264.067C163.074 264.662 163.162 265.247 163.54 265.747C164.236 266.922 165.212 267.642 166.628 267.649C166.692 267.642 166.76 267.635 166.824 267.628C166.78 267.557 166.743 267.513 166.709 267.513C166.743 267.513 166.783 267.557 166.824 267.625C166.946 267.662 167.067 267.679 167.189 267.679C167.385 267.679 167.581 267.642 167.777 267.601C167.814 267.601 167.851 267.601 167.891 267.601C169.391 267.601 170.5 267.02 171.185 265.564C173.185 261.328 175.266 257.132 177.277 252.902C181.929 243.122 186.54 233.324 191.192 223.544C192.628 220.527 194.071 217.797 195.51 214.78L195.797 214.324H191.115L195.797 206.54H189.064L195.919 199.784L186.152 195.99Z" fill="white"/>
</svg>
