<svg width="388" height="420" viewBox="0 0 388 420" fill="none" xmlns="http://www.w3.org/2000/svg">
<path d="M194.142 221.703C197.591 221.703 201.041 221.686 204.49 221.716C205.301 221.723 205.51 221.412 205.507 220.645C205.487 213.993 205.51 207.345 205.48 200.693C205.473 199.409 204.797 198.754 203.48 198.747C197.199 198.713 190.916 198.713 184.632 198.743C183.101 198.753 182.534 199.368 182.531 200.963C182.507 207.49 182.544 214.02 182.493 220.547C182.486 221.608 182.929 221.726 183.797 221.72C187.247 221.686 190.693 221.703 194.142 221.703ZM149.703 197.25C151.679 197.25 153.656 197.206 155.628 197.267C156.551 197.297 157.203 197.03 157.865 196.365C164.997 189.183 172.162 182.034 179.328 174.882C180.476 173.74 181.078 172.429 181.054 170.774C181 167.443 180.993 164.108 181.061 160.777C181.088 159.595 180.75 158.753 179.896 157.905C170.524 148.598 161.193 139.25 151.862 129.899C151.311 129.348 151.051 128.987 150.257 129.784C138.071 142.044 125.852 154.26 113.591 166.443C112.841 167.193 113.037 167.449 113.642 168.054C121.781 176.152 129.889 184.28 138.014 192.389C139.662 194.034 141.108 196.223 143.112 197.078C144.99 197.878 147.48 197.25 149.703 197.25ZM238.139 223.206V223.186C236.287 223.186 234.433 223.24 232.585 223.166C231.534 223.122 230.794 223.399 230.021 224.183C222.727 231.554 215.389 238.882 208.031 246.186C207.281 246.929 206.916 247.625 206.943 248.723C207.034 252.301 207.044 255.885 206.943 259.46C206.906 260.794 207.287 261.713 208.24 262.656C217.531 271.872 226.774 281.132 236.01 290.399C236.659 291.047 236.987 291.433 237.882 290.531C249.977 278.355 262.115 266.227 274.277 254.125C275.064 253.345 275 252.993 274.257 252.254C266.196 244.254 258.176 236.213 250.142 228.183C248.487 226.524 247.095 224.22 245.092 223.389C243.095 222.558 240.483 223.206 238.139 223.206ZM149.899 223.186C148.048 223.186 146.19 223.264 144.345 223.159C143.254 223.095 142.551 223.463 141.798 224.22C132.483 233.588 123.142 242.926 113.777 252.24C113.068 252.95 112.885 253.304 113.72 254.115C117.7 257.987 121.598 261.946 125.527 265.872C133.733 274.078 141.94 282.281 150.146 290.487C150.625 290.97 150.885 291.558 151.744 290.693C161.129 281.223 170.561 271.804 180.021 262.409C180.791 261.642 181.085 260.923 181.065 259.852C180.994 256.277 180.97 252.693 181.071 249.115C181.112 247.77 180.7 246.872 179.747 245.933C173.764 240.044 167.852 234.085 161.916 228.149C160.257 226.493 158.862 224.196 156.859 223.368C154.855 222.541 152.244 223.186 149.899 223.186ZM238.227 197.25C239.835 197.25 241.443 197.173 243.041 197.27C244.477 197.362 245.504 196.97 246.575 195.889C255.683 186.669 264.872 177.527 274.041 168.365C274.71 167.696 275.406 167.375 274.24 166.223C262.034 154.162 249.923 142.007 237.808 129.858C237.186 129.237 236.93 129.081 236.196 129.821C226.896 139.199 217.558 148.544 208.173 157.838C207.193 158.808 206.916 159.764 206.953 161.064C207.034 164.145 207.075 167.237 206.943 170.318C206.862 172.277 207.399 173.706 208.859 175.118C214.622 180.699 220.237 186.433 225.919 192.098C227.659 193.835 229.163 196.162 231.271 197.068C233.251 197.919 235.882 197.25 238.227 197.25ZM215.872 210.227C215.872 214.547 215.869 218.872 215.882 223.193C215.882 223.402 216.051 223.612 216.139 223.821C216.311 223.716 216.517 223.642 216.659 223.504C219.72 220.453 222.835 217.453 225.798 214.311C226.919 213.122 228.085 212.764 229.642 212.784C235.571 212.855 241.501 212.835 247.426 212.794C248.818 212.784 249.882 213.01 250.984 214.122C263.234 226.493 275.571 238.781 287.882 251.095C288.142 251.355 288.399 251.629 288.669 251.879C289.551 252.689 289.443 253.558 288.767 254.402C288.382 254.879 287.903 255.281 287.467 255.72L239.524 303.652C239.088 304.091 238.683 304.564 238.21 304.956C237.365 305.645 236.504 305.74 235.683 304.875C235.261 304.426 234.811 304 234.376 303.564C222.673 291.865 210.994 280.142 199.247 268.487C197.43 266.683 196.467 264.808 196.551 262.159C196.723 256.73 196.673 251.294 196.561 245.862C196.524 244.108 197.088 242.936 198.352 241.75C201.416 238.882 204.321 235.848 207.288 232.875C207.43 232.73 207.514 232.531 207.625 232.355C207.416 232.26 207.207 232.091 206.997 232.091C203.788 232.075 200.575 232.078 197.365 232.078C192.055 232.078 186.744 232.074 181.433 232.088C181.098 232.091 180.761 232.24 180.423 232.321C180.602 232.585 180.74 232.882 180.96 233.105C184.011 236.166 187.031 239.26 190.149 242.254C191.119 243.183 191.463 244.112 191.446 245.446C191.372 251.622 191.372 257.794 191.446 263.966C191.463 265.311 191.055 266.206 190.109 267.145C177.764 279.422 165.46 291.743 153.149 304.058C152.798 304.406 152.48 304.791 152.095 305.095C151.332 305.696 150.555 305.7 149.832 304.993C149.392 304.561 148.96 304.122 148.521 303.686C132.196 287.358 115.869 271.034 99.541 254.71C99.193 254.362 98.8755 253.97 98.487 253.672C97.8721 253.21 98.264 252.953 98.6086 252.612C101.409 249.825 104.2 247.027 106.994 244.233C116.95 234.281 126.923 224.345 136.835 214.348C137.96 213.213 139.075 212.757 140.659 212.777C146.832 212.862 153.007 212.845 159.183 212.781C160.267 212.771 160.984 213.078 161.73 213.848C164.828 217.034 167.994 220.156 171.149 223.287C171.359 223.5 171.666 223.615 171.926 223.774C172 223.433 172.136 223.092 172.136 222.75C172.146 214.355 172.149 205.96 172.132 197.561C172.129 197.233 171.943 196.906 171.842 196.575C171.578 196.794 171.298 196.99 171.058 197.23C168.085 200.193 165.081 203.132 162.166 206.152C161.173 207.179 160.217 207.703 158.69 207.673C152.639 207.554 146.588 207.592 140.538 207.649C139.112 207.662 138.075 207.355 137 206.271C124.304 193.473 111.548 180.73 98.7605 168.021C97.9936 167.26 98.2436 167 98.8315 166.412C115.96 149.315 133.075 132.2 150.183 115.075C150.733 114.521 150.997 114.169 151.788 114.967C164.588 127.838 177.426 140.673 190.294 153.477C191.159 154.338 191.443 155.193 191.436 156.358C191.392 162.656 191.375 168.953 191.446 175.25C191.46 176.47 191.054 177.281 190.217 178.098C187.038 181.203 183.902 184.358 180.788 187.531C180.51 187.815 180.487 188.355 180.345 188.777C180.673 188.885 180.997 189.085 181.325 189.085C189.723 189.102 198.119 189.105 206.517 189.078C206.919 189.074 207.318 188.767 207.72 188.602C207.514 188.189 207.399 187.696 207.092 187.385C204.058 184.308 201.031 181.22 197.913 178.23C196.95 177.304 196.554 176.395 196.568 175.054C196.642 168.757 196.605 162.46 196.598 156.162C196.595 155.308 196.608 154.581 197.335 153.858C210.379 140.882 223.389 127.868 236.375 114.835C237.027 114.179 237.264 114.51 237.71 114.956C246.085 123.345 254.47 131.727 262.855 140.108C270.889 148.139 278.923 156.172 286.956 164.206C287.48 164.73 288.024 165.233 288.524 165.781C289.568 166.926 289.531 167.598 288.392 168.828C288.139 169.102 287.869 169.355 287.609 169.615C275.47 181.754 263.318 193.875 251.213 206.047C250.105 207.162 249.024 207.693 247.409 207.666C241.359 207.564 235.304 207.581 229.254 207.659C227.926 207.672 226.987 207.338 226.058 206.368C223.065 203.25 219.97 200.23 216.906 197.182C216.683 196.959 216.386 196.811 216.125 196.625C216.041 196.959 215.882 197.297 215.882 197.632C215.865 201.831 215.872 206.027 215.872 210.227Z" fill="white"/>
</svg>
