<svg width="388" height="420" viewBox="0 0 388 420" fill="none" xmlns="http://www.w3.org/2000/svg">
<path d="M282.243 183.733C282.372 183.885 282.419 183.997 282.473 183.997C284.932 184.071 287.392 184.166 289.851 184.162C290.125 184.162 290.628 183.622 290.632 183.328C290.655 181.419 290.598 179.503 290.497 177.598C290.449 176.73 289.895 176.507 289.159 176.926C288.75 177.162 288.372 177.47 288.034 177.804C286.301 179.51 284.584 181.226 282.872 182.953C282.632 183.193 282.442 183.483 282.243 183.733ZM280.888 160.976C278.169 160.976 275.453 160.99 272.736 160.973C271.355 160.963 271.196 160.73 271.101 159.355C271.01 157.99 271.382 156.905 272.422 155.942C274.155 154.345 275.797 152.649 277.436 150.953C278.28 150.074 279.23 149.77 280.442 149.834C282.034 149.915 283.632 149.767 285.223 149.78C286.581 149.79 287.936 149.899 289.29 149.949C290.274 149.986 290.892 149.51 290.753 148.52C290.449 146.365 291.449 144.902 292.98 143.554C294.51 142.213 295.932 140.74 297.307 139.236C298.361 138.084 299.649 138.084 300.942 138.355C301.304 138.429 301.736 139.209 301.763 139.686C301.915 142.395 301.966 145.111 302.034 147.828C302.074 149.476 302.28 149.72 303.905 149.73C309.415 149.763 314.926 149.767 320.432 149.807C321.263 149.814 322.402 149.419 322.736 150.52C323.091 151.689 323.274 153.071 322.328 154.061C320.236 156.257 318.057 158.378 315.834 160.439C315.402 160.838 314.591 160.966 313.949 160.98C310.635 161.03 307.317 160.973 304 161.034C303.395 161.047 302.385 161.304 302.277 161.665C302.027 162.49 302.101 163.473 302.297 164.334C302.361 164.605 303.233 164.831 303.74 164.838C306.736 164.885 309.733 164.828 312.73 164.885C313.618 164.902 314.926 164.385 315.263 165.581C315.645 166.929 315.784 168.453 314.615 169.642C313.355 170.926 312.078 172.196 310.811 173.469C310.584 173.696 310.328 173.899 310.138 174.152C308.682 176.128 306.787 176.858 304.321 176.632C302.219 176.436 302.054 176.743 302.044 178.814C302.037 180.013 301.986 181.216 302.068 182.409C302.098 182.915 302.314 183.73 302.622 183.817C303.074 183.953 303.828 183.723 304.196 183.375C305.997 181.679 307.696 179.878 309.456 178.142C312.527 175.115 315.615 172.105 318.699 169.091C319.726 168.084 320.696 167.003 321.818 166.115C322.456 165.608 323.338 165.172 324.125 165.138C326.838 165.02 329.557 165.078 332.277 165.094C333.692 165.105 333.851 165.355 333.946 166.811C334.047 168.314 333.557 169.456 332.47 170.537C324.554 178.388 316.665 186.27 308.824 194.196C307.692 195.341 306.53 195.858 304.922 195.804C302.054 195.706 302.051 195.777 302.047 198.682C302.044 200.841 302.054 203 302.044 205.159C302.037 206.844 301.834 206.976 300.206 207.081C298.73 207.172 297.611 206.709 296.611 205.605C294.841 203.655 292.905 201.851 291.172 199.871C290.716 199.355 290.621 198.422 290.571 197.669C290.453 195.905 290.246 195.709 288.503 195.716C280.591 195.747 272.679 195.753 264.77 195.743C263.172 195.74 261.578 195.655 259.986 195.53C259.628 195.503 259.02 195.172 259 194.939C258.855 193.371 258.588 191.831 259.963 190.48C268.314 182.287 276.598 174.02 284.949 165.824C285.483 165.301 286.395 165.128 287.159 164.882C287.52 164.763 287.949 164.858 288.351 164.855C290.382 164.844 291.304 163.561 290.507 161.686C290.355 161.334 289.625 161.054 289.159 161.044C286.402 160.983 283.645 161.013 280.888 161.013L280.888 160.976Z" fill="white"/>
<path d="M128.392 153.601C132.787 153.601 137.186 153.595 141.581 153.601C143.395 153.605 143.49 153.764 143.551 155.608C143.591 156.811 143.246 157.784 142.388 158.625C140.02 160.939 137.665 163.27 135.324 165.615C132.28 168.669 129.267 171.753 126.213 174.801C122.797 178.21 119.344 181.588 115.919 184.99C113.767 187.128 111.632 189.284 109.483 191.422C108.236 192.666 107 193.912 105.706 195.098C105.385 195.392 104.861 195.615 104.432 195.615C97.5641 195.612 90.6958 195.564 83.8276 195.544C82.8073 195.541 82.4559 195.051 82.3782 194.071C82.2634 192.571 82.662 191.335 83.7397 190.277C85.5066 188.537 87.1688 186.689 89.0269 185.061C89.6688 184.5 90.7533 184.237 91.6451 184.21C94.3985 184.135 97.1553 184.217 99.912 184.281C100.983 184.307 101.807 183.96 102.574 183.193C106.625 179.162 110.73 175.189 114.784 171.162C116.426 169.531 117.996 167.821 119.571 166.125C119.784 165.892 119.838 165.514 119.966 165.203C119.645 165.088 119.321 164.872 118.996 164.872C114.801 164.851 110.605 164.821 106.409 164.902C105.733 164.916 104.905 165.308 104.415 165.794C99.858 170.331 95.3715 174.946 90.8343 179.504C88.635 181.713 86.358 183.838 84.1418 186.027C81.2735 188.865 78.4188 191.716 75.5877 194.591C74.8073 195.382 73.9458 195.811 72.8276 195.774C70.0337 195.676 67.2397 195.601 64.4458 195.531C63.6519 195.51 63.3546 195.132 63.2735 194.348C63.108 192.737 63.4965 191.49 64.7195 190.281C74.26 180.831 83.7228 171.301 93.2262 161.814C95.6283 159.419 98.0843 157.078 100.547 154.74C101.297 154.024 101.628 153.22 101.605 152.186C101.567 150.47 101.51 148.743 101.638 147.034C101.696 146.308 102.027 145.456 102.52 144.933C104.493 142.841 106.571 140.848 108.622 138.831C109.216 138.247 111.608 137.889 112.25 138.416C112.605 138.706 112.807 139.362 112.824 139.858C112.942 143.73 113.007 147.605 113.074 151.48C113.105 153.443 113.209 153.571 115.206 153.574C119.601 153.581 123.997 153.578 128.392 153.578L128.392 153.601Z" fill="white"/>
<path d="M150.132 154.587C150.176 155.182 150.227 155.567 150.23 155.952C150.243 159.55 150.176 163.148 150.294 166.739C150.351 168.516 149.879 169.864 148.527 171.06C146.953 172.446 146.97 172.587 148.439 174.101C151.524 177.283 154.656 180.418 157.828 183.513C158.26 183.939 159.027 184.223 159.642 184.226C162.355 184.229 165.071 184.148 167.777 183.993C168.348 183.959 169.004 183.584 169.429 183.168C175.112 177.614 180.787 172.047 186.416 166.435C190.064 162.8 193.605 159.054 197.25 155.415C202.679 150 208.142 144.614 213.645 139.277C214.213 138.726 215.156 138.317 215.943 138.283C218.693 138.165 221.453 138.256 224.21 138.226C225.314 138.216 225.754 138.665 225.821 139.787C225.912 141.368 225.47 142.567 224.304 143.726C215.135 152.807 206.031 161.952 196.906 171.077C189.254 178.729 181.581 186.361 173.973 194.057C172.811 195.233 171.564 195.78 169.953 195.77C165.598 195.739 161.247 195.753 156.895 195.756C155.51 195.756 154.385 195.3 153.382 194.273C149.754 190.557 146.051 186.912 142.382 183.236C140.439 181.29 138.463 179.368 136.585 177.358C136.112 176.851 135.747 176.06 135.699 175.375C135.574 173.544 135.574 171.696 135.676 169.864C135.716 169.162 135.983 168.3 136.456 167.824C140.767 163.493 145.145 159.229 149.51 154.952C149.615 154.848 149.774 154.793 150.132 154.587Z" fill="white"/>
<path d="M82.7062 199.131C90.8177 199.131 98.9326 199.118 107.044 199.155C107.855 199.158 109.294 199.361 109.358 199.685C109.608 200.962 109.878 202.418 108.794 203.543C107.544 204.841 106.105 205.979 105.027 207.402C103.558 209.344 101.747 209.756 99.4224 209.739C86.7974 209.638 74.1656 209.706 61.5406 209.665C60.1082 209.658 59.0204 210.04 58.0542 211.108C56.6589 212.648 55.142 214.074 53.6927 215.564C52.6184 216.668 52.6352 216.723 53.7467 217.861C57.6927 221.881 61.6217 225.918 65.5947 229.912C66.5406 230.864 66.7873 231.929 66.6184 233.189C66.517 233.939 66.1555 234.368 65.3785 234.364C62.5035 234.364 59.6251 234.405 56.7501 234.317C56.1859 234.3 55.5339 233.898 55.1048 233.483C53.1792 231.631 51.3109 229.719 49.4359 227.814C47.1657 225.51 44.8852 223.212 42.669 220.858C42.2738 220.435 41.99 219.75 41.9528 219.168C41.5913 213.692 41.6082 213.689 45.4359 209.854C48.5947 206.685 51.7907 203.547 54.919 200.347C55.7704 199.476 56.6825 199.125 57.8886 199.131C66.1623 199.165 74.4325 199.148 82.7062 199.148V199.131Z" fill="white"/>
<path d="M134.3 213.817C134.253 214.473 134.186 214.969 134.186 215.466C134.182 222.419 134.165 229.371 134.209 236.324C134.219 237.635 133.797 238.55 132.78 239.412C131.233 240.73 129.797 242.192 128.415 243.686C127.25 244.956 125.824 244.804 124.422 244.554C124.094 244.496 123.702 243.652 123.686 243.159C123.594 239.885 123.571 236.611 123.574 233.338C123.581 224.746 123.615 216.155 123.638 207.564C123.645 205.206 123.638 202.848 123.662 200.49C123.675 199.145 123.922 198.959 125.202 198.996C127.638 199.067 130.074 199.132 132.51 199.132C133.581 199.132 134.405 199.452 135.172 200.219C146.202 211.284 157.243 222.341 168.324 233.358C169.405 234.432 169.604 235.632 169.365 236.956C169.294 237.344 168.665 237.909 168.28 237.919C165.405 237.99 162.523 238.054 159.658 237.871C158.831 237.817 157.929 237.071 157.277 236.425C150.861 230.074 144.493 223.675 138.108 217.29C137.094 216.273 136.081 215.257 135.05 214.257C134.895 214.104 134.669 214.027 134.3 213.817Z" fill="white"/>
<path d="M176.875 161.013C173.557 161.013 170.243 161.003 166.926 161.02C165.415 161.027 165.182 161.28 165.138 162.756C165.138 162.794 165.142 162.838 165.138 162.875C164.48 166.952 165.615 170.287 169.044 172.79C170.094 173.557 170.899 174.658 171.844 175.571C172.459 176.165 172.517 176.702 171.865 177.294C171.659 177.479 171.48 177.699 171.311 177.922C170.044 179.601 168.466 180.51 166.263 180.226C165.125 180.081 163.946 180.152 162.79 180.219C161.554 180.29 160.676 179.773 159.871 178.891C158.311 177.179 156.733 175.476 155.067 173.871C154.03 172.875 153.615 171.766 153.635 170.358C153.73 162.888 153.787 155.415 153.848 147.945C153.868 145.51 153.804 143.07 153.885 140.635C153.909 139.871 154.088 138.631 154.527 138.456C155.642 138.023 156.976 137.929 158.01 138.918C158.99 139.858 159.939 140.831 160.902 141.787C161.696 142.577 162.432 143.432 163.29 144.145C164.605 145.239 165.365 146.489 165.165 148.28C165.024 149.567 165.953 149.736 166.976 149.736C173.328 149.736 179.682 149.753 186.037 149.76C188.753 149.763 191.469 149.753 194.186 149.77C195.567 149.78 195.703 150 195.797 151.398C195.885 152.733 195.463 153.807 194.517 154.736C192.696 156.53 190.953 158.408 189.064 160.128C188.513 160.631 187.588 160.939 186.824 160.959C183.51 161.047 180.192 160.996 176.875 160.996V161.013Z" fill="white"/>
<path d="M266.807 157.419C266.807 162.858 266.811 168.294 266.807 173.73C266.804 175.642 266.858 177.557 266.753 179.466C266.72 180.074 266.402 180.8 265.97 181.236C261.784 185.466 257.51 189.611 253.345 193.858C252.081 195.145 250.75 195.841 248.922 195.79C243.973 195.655 239.017 195.605 234.068 195.55C233.03 195.54 232.568 195.159 232.507 194.071C232.419 192.574 232.797 191.398 233.953 190.351C235.726 188.74 237.307 186.919 239.091 185.321C239.713 184.767 240.666 184.395 241.507 184.314C243.169 184.159 244.865 184.351 246.534 184.219C247.26 184.162 248.105 183.821 248.632 183.328C250.733 181.361 252.787 179.338 254.723 177.213C255.24 176.648 255.497 175.648 255.503 174.844C255.561 166.213 255.618 157.578 255.503 148.946C255.473 146.675 256.041 144.966 257.791 143.5C259.284 142.25 260.635 140.814 261.949 139.368C263.081 138.118 264.47 138.125 265.919 138.304C266.777 138.412 266.767 139.148 266.77 139.794C266.791 143.071 266.797 146.348 266.804 149.625C266.811 152.223 266.807 154.821 266.807 157.419Z" fill="white"/>
<path d="M159.067 213.71C158.912 214.247 158.851 214.514 158.757 214.764C158.507 215.429 158.405 216.48 157.949 216.669C156.895 217.112 155.655 217.112 154.706 216.179C153.426 214.922 152.28 213.5 150.882 212.392C148.753 210.706 148.044 208.635 148.307 206C148.486 204.22 148.365 202.409 148.348 200.612C148.334 199.612 148.767 199.142 149.78 199.149C152.415 199.166 155.054 199.098 157.689 199.186C158.334 199.209 159.118 199.547 159.574 200.003C173.051 213.422 186.493 226.872 199.929 240.328C200.341 240.74 200.777 241.23 200.949 241.767C201.662 243.963 200.993 244.774 198.692 244.737C196.456 244.699 194.216 244.676 191.98 244.737C190.723 244.774 189.797 244.345 188.912 243.456C179.415 233.912 169.888 224.399 160.368 214.882C160.013 214.524 159.618 214.206 159.067 213.71Z" fill="white"/>
<path d="M321.321 227.112C322.257 227.172 322.797 227.22 323.341 227.243C324.111 227.277 324.486 227.669 324.554 228.436C324.682 229.933 324.358 231.135 323.246 232.331C321.78 233.906 320.216 234.466 318.091 234.433C313.132 234.358 314.513 233.872 310.942 237.379C308.804 239.477 306.743 241.659 304.554 243.699C303.973 244.24 303.04 244.629 302.246 244.669C299.817 244.791 297.378 244.73 294.942 244.696C294.189 244.686 293.061 244.993 292.902 243.983C292.746 243 293.084 241.926 293.307 240.912C293.375 240.612 293.777 240.385 294.03 240.132C305.892 228.27 317.75 216.402 329.615 204.544C331.253 202.909 332.895 201.281 334.598 199.716C334.966 199.378 335.594 199.179 336.108 199.169C338.824 199.122 341.54 199.162 344.257 199.152C345.206 199.149 345.584 199.571 345.648 200.524C345.74 201.926 345.375 202.997 344.324 204.034C337.02 211.247 329.784 218.527 322.53 225.791C322.203 226.118 321.898 226.476 321.321 227.112Z" fill="white"/>
<path d="M279.787 244.706C278.591 244.706 277.392 244.722 276.196 244.696C275.466 244.679 274.53 244.922 274.246 243.959C273.952 242.962 273.834 241.888 274.675 241.03C275.736 239.952 276.827 238.902 277.898 237.831C285.969 229.75 294.04 221.665 302.114 213.587C306.547 209.152 311 204.739 315.412 200.287C316.202 199.489 317.044 199.111 318.169 199.138C320.483 199.189 322.8 199.138 325.114 199.162C326.496 199.172 326.648 199.408 326.753 200.78C326.871 202.331 326.344 203.52 325.239 204.621C312.226 217.591 299.236 230.584 286.263 243.594C285.466 244.391 284.618 244.773 283.503 244.726C282.267 244.679 281.027 244.716 279.787 244.716V244.706Z" fill="white"/>
<path d="M258.172 199.146C259.49 199.146 260.811 199.176 262.128 199.136C263.27 199.098 263.635 199.632 263.689 200.73C263.764 202.257 263.014 203.294 262.02 204.284C256.787 209.504 251.561 214.734 246.335 219.963C238.51 227.791 230.672 235.605 222.878 243.463C221.919 244.43 220.875 244.845 219.574 244.821C217.338 244.778 215.101 244.781 212.868 244.68C212.253 244.649 211.203 244.406 211.132 244.088C210.922 243.139 211.014 242.092 211.172 241.115C211.237 240.723 211.767 240.392 212.108 240.058C215.449 236.788 218.824 233.555 222.128 230.25C225.686 226.693 229.166 223.055 232.71 219.48C237.743 214.406 242.801 209.359 247.858 204.308C249.412 202.757 250.973 201.207 252.591 199.727C252.96 199.389 253.581 199.2 254.098 199.169C255.453 199.095 256.814 199.146 258.172 199.146Z" fill="white"/>
<path d="M103.091 227.078C103.554 227.155 103.754 227.169 103.939 227.219C104.629 227.412 105.872 227.551 105.902 227.824C106.031 228.959 106.091 230.28 105.612 231.257C105.095 232.307 103.993 233.108 103.047 233.898C102.666 234.219 102.024 234.331 101.49 234.355C100.135 234.415 98.7704 234.449 97.419 234.358C96.017 234.267 95.0001 234.784 94.0542 235.79C91.5677 238.439 88.9832 240.997 86.4799 243.628C85.6724 244.476 84.7603 244.848 83.6049 244.814C81.2907 244.75 78.9731 244.784 76.6589 244.676C75.9731 244.645 75.0947 244.473 74.6792 244.024C74.1082 243.395 74.5373 241.436 75.1589 240.79C77.5744 238.297 79.963 235.774 82.4258 233.324C88.3988 227.382 94.4292 221.493 100.395 215.544C103.76 212.189 107.034 208.743 110.375 205.365C112.338 203.382 114.247 201.317 116.406 199.564C117.142 198.966 118.558 199.182 119.669 199.105C119.791 199.095 120.061 199.598 120.068 199.868C120.156 202.821 120.257 205.774 120.213 208.723C120.203 209.392 119.791 210.189 119.314 210.689C117.004 213.115 114.605 215.456 112.237 217.831C109.503 220.571 106.77 223.311 104.037 226.057C103.764 226.331 103.51 226.625 103.091 227.078Z" fill="white"/>
<path d="M214.747 199.132C224.331 199.132 233.915 199.122 243.5 199.149C244.294 199.152 245.713 199.284 245.77 199.571C245.98 200.611 245.77 201.75 245.632 202.841C245.588 203.155 245.287 203.47 245.037 203.723C243.243 205.54 241.459 207.372 239.601 209.128C239.216 209.493 238.544 209.726 238.003 209.73C228.061 209.747 218.115 209.703 208.176 209.713C203.111 209.716 198.047 209.804 192.983 209.855C191.368 209.868 189.983 209.486 188.838 208.166C187.402 206.51 185.76 205.034 184.22 203.466C183.662 202.902 183.199 200.209 183.676 199.635C183.943 199.318 184.567 199.176 185.034 199.169C188.828 199.128 192.622 199.135 196.415 199.135C202.527 199.132 208.635 199.135 214.747 199.132Z" fill="white"/>
<path d="M171.865 199.149C174.973 198.193 177.392 200.081 179.865 202.635C187.533 210.561 195.432 218.26 203.189 226.098C204.263 227.183 205.378 227.473 206.827 227.412C210.017 227.274 213.216 227.284 216.408 227.233C217.402 227.217 217.804 227.69 217.871 228.69C217.976 230.19 217.581 231.379 216.432 232.419C214.804 233.892 213.348 235.558 211.712 237.017C211.142 237.524 210.263 237.909 209.506 237.946C207.118 238.061 204.712 238.058 202.321 237.943C201.56 237.906 200.638 237.561 200.108 237.037C190.267 227.274 180.466 217.466 170.669 207.652C169.341 206.328 168.131 204.882 166.78 203.585C165.652 202.5 165.773 201.196 165.99 199.906C166.044 199.598 166.74 199.21 167.162 199.183C168.513 199.091 169.875 199.149 171.865 199.149Z" fill="white"/>
<path d="M225.527 169.328C226.169 171.649 224.841 173.459 222.959 175.287C216.459 181.611 210.091 188.071 203.696 194.507C202.845 195.361 201.912 195.807 200.72 195.767C198.01 195.679 195.301 195.595 192.591 195.534C191.709 195.513 191.307 195.084 191.169 194.243C190.936 192.824 191.145 191.662 192.27 190.557C197.686 185.24 203.017 179.834 208.395 174.476C209.834 173.04 211.372 171.692 212.801 170.247C213.949 169.081 213.916 168.709 212.797 167.567C211.652 166.399 210.503 165.23 209.324 164.091C208.608 163.405 208.53 162.79 209.274 162.061C211.159 160.216 213.02 158.348 214.875 156.473C215.608 155.726 216.287 155.692 217.027 156.459C219.635 159.159 222.274 161.831 224.851 164.561C225.223 164.956 225.436 165.608 225.5 166.165C225.605 167.074 225.527 168 225.527 169.328Z" fill="white"/>
<path d="M247.818 230.784C246.459 230.784 245.101 230.77 243.743 230.79C242.794 230.804 242.392 230.368 242.334 229.422C242.25 228.064 242.615 227.003 243.632 226.003C249.601 220.115 255.503 214.155 261.443 208.24C264.297 205.399 267.182 202.584 270.078 199.784C270.399 199.476 270.899 199.196 271.321 199.186C274.274 199.111 277.226 199.091 280.176 199.115C280.48 199.118 281.007 199.48 281.044 199.73C281.23 200.986 281.422 202.291 280.409 203.355C280.051 203.73 279.693 204.108 279.328 204.476C271.051 212.757 262.76 221.02 254.514 229.331C253.48 230.375 252.416 230.953 250.932 230.824C249.902 230.736 248.855 230.807 247.818 230.807V230.784Z" fill="white"/>
<path d="M254.568 234.395C260.321 234.395 266.075 234.382 271.825 234.409C272.612 234.412 273.818 234.017 274.02 235.044C274.227 236.091 274.227 237.585 273.625 238.318C271.889 240.436 269.838 242.308 267.828 244.186C267.426 244.564 266.656 244.686 266.051 244.693C260.426 244.76 254.797 244.811 249.169 244.808C242.906 244.804 236.642 244.757 230.379 244.679C229.693 244.669 228.487 244.395 228.429 244.081C228.26 243.128 228.166 241.777 228.703 241.149C230.622 238.912 232.781 236.875 234.933 234.851C235.335 234.473 236.112 234.345 236.716 234.341C242.666 234.307 248.615 234.321 254.568 234.321V234.395Z" fill="white"/>
<path d="M240.189 146.956C240.189 153.699 240.169 160.439 240.206 167.182C240.209 168.348 239.851 169.206 239.007 170.023C237.233 171.746 235.537 173.554 233.861 175.375C232.632 176.713 231.105 176.429 229.625 176.203C229.334 176.159 228.973 175.422 228.953 174.993C228.872 173.439 228.912 171.878 228.929 170.321C228.996 164.054 229.101 157.787 229.122 151.523C229.128 150.186 229.493 149.169 230.48 148.243C232.284 146.55 233.986 144.75 235.73 142.993C236.557 142.162 238.534 141.692 239.493 142.223C239.824 142.405 240.101 142.959 240.128 143.365C240.213 144.557 240.159 145.76 240.159 146.956H240.189Z" fill="white"/>
<path d="M214.581 213.287C219.571 213.291 224.561 213.264 229.551 213.314C230.321 213.321 231.713 213.591 231.75 213.875C231.889 214.956 231.767 216.159 231.395 217.189C231.135 217.916 230.324 218.45 229.737 219.044C228.449 220.352 227.199 221.706 225.821 222.916C225.27 223.395 224.433 223.794 223.72 223.801C217.733 223.872 211.747 223.824 205.757 223.855C204.375 223.862 203.581 222.963 202.743 222.135C201.324 220.73 200.037 219.186 198.558 217.858C197.314 216.743 197.473 215.352 197.493 213.99C197.497 213.754 198.321 213.338 198.777 213.328C201.487 213.26 204.203 213.291 206.919 213.287C209.473 213.287 212.027 213.287 214.581 213.287Z" fill="white"/>
<path d="M270.899 230.781C267.666 230.781 264.433 230.774 261.203 230.784C260.321 230.788 259.906 230.396 259.845 229.497C259.754 228.156 260.007 227.038 261.081 226.061C262.791 224.504 264.331 222.76 266.041 221.203C266.578 220.717 267.429 220.321 268.139 220.321C274.362 220.325 280.585 220.416 286.808 220.51C288.243 220.531 289.078 222.713 287.966 223.994C285.99 226.288 283.841 228.433 281.662 230.541C281.264 230.926 280.399 230.923 279.747 230.933C276.797 230.97 273.848 230.95 270.899 230.95V230.781Z" fill="white"/>
<path d="M326.98 230.8C326.98 228.848 326.899 226.885 327.02 224.939C327.067 224.219 327.426 223.388 327.912 222.854C329.473 221.148 331.206 219.601 332.777 217.905C333.946 216.645 335.358 216.783 336.767 217.02C337.071 217.071 337.473 217.78 337.476 218.192C337.524 226.449 337.524 234.709 337.524 242.966C337.524 244.473 337.284 244.621 335.78 244.733C334.267 244.848 333.094 244.398 332.084 243.236C330.699 241.645 329.149 240.192 327.767 238.594C327.341 238.101 327.064 237.327 327.03 236.669C326.936 234.716 326.996 232.76 326.996 230.8H326.98Z" fill="white"/>
<path d="M119.996 195.817C117.966 195.723 115.936 195.618 113.905 195.537C113.084 195.506 112.679 195.138 112.615 194.3C112.486 192.679 112.777 191.311 114.064 190.094C117.05 187.27 119.919 184.324 122.8 181.392C123.581 180.601 124.432 180.172 125.554 180.213C128.382 180.307 131.213 180.378 134.044 180.439C134.919 180.459 135.324 180.851 135.395 181.743C135.513 183.26 135.175 184.483 133.996 185.601C131.132 188.317 128.324 191.104 125.621 193.979C124.361 195.321 123.01 196 121.196 195.784C120.8 195.733 120.398 195.773 120 195.773C119.996 195.79 119.996 195.804 119.996 195.817Z" fill="white"/>
<path d="M116.294 238.02C114.544 237.926 112.79 237.821 111.04 237.75C110.223 237.716 109.78 237.365 109.726 236.527C109.682 235.892 109.544 235.26 109.537 234.622C109.51 231.399 109.452 228.169 109.554 224.946C109.577 224.213 110.05 223.365 110.567 222.801C112.047 221.186 113.726 219.757 115.192 218.128C116.338 216.855 117.692 216.625 119.202 216.949C119.55 217.024 120.027 217.628 120.034 217.993C120.148 224.176 120.192 230.362 120.267 236.544C120.28 237.568 119.807 237.997 118.811 237.966C117.973 237.939 117.135 237.959 116.297 237.959C116.297 237.98 116.294 238 116.294 238.02Z" fill="white"/>
<path d="M86.5236 153.608C88.5608 153.608 90.5979 153.632 92.6351 153.602C93.7027 153.585 94.1081 154.044 94.1655 155.105C94.2465 156.679 93.8783 157.956 92.652 159.061C90.9662 160.585 89.4594 162.311 87.7736 163.835C87.206 164.348 86.3243 164.791 85.5844 164.794C81.1925 164.821 76.8006 164.72 72.4121 164.629C72.1148 164.622 71.6993 164.409 71.5473 164.166C71.1081 163.439 71.4493 161.318 72.0946 160.662C74.1993 158.531 76.2939 156.385 78.4729 154.331C78.9358 153.895 79.75 153.669 80.4155 153.642C82.4493 153.554 84.4864 153.608 86.5236 153.608Z" fill="white"/>
<path d="M331.284 195.773C329.902 195.696 328.382 195.679 326.878 195.493C326.253 195.415 325.544 195.101 325.091 194.672C323.064 192.75 321.128 190.736 319.139 188.78C318.544 188.196 318.591 187.726 319.162 187.165C321.155 185.202 323.135 183.226 325.095 181.233C325.726 180.594 326.264 180.527 326.916 181.199C330.223 184.608 333.554 187.986 336.855 191.402C337.838 192.419 337.625 193.706 337.355 194.912C337.294 195.182 336.693 195.476 336.318 195.506C334.689 195.645 333.054 195.689 331.284 195.773Z" fill="white"/>
<path d="M75.8044 223.858C78.3585 223.858 80.9125 223.881 83.4632 223.848C84.5983 223.831 85.0003 224.324 85.024 225.432C85.051 226.723 84.6591 227.75 83.7335 228.645C82.0983 230.223 80.5206 231.865 78.8956 233.456C77.5341 234.794 74.0882 234.821 72.7436 233.483C70.8787 231.625 69.0476 229.733 67.2166 227.841C66.6085 227.212 66.2774 224.959 66.801 224.351C67.0814 224.02 67.6828 223.824 68.1456 223.814C70.6963 223.766 73.2504 223.79 75.8044 223.79V223.858Z" fill="white"/>
<path d="M173.23 269.041C178.983 269.041 184.737 269.027 190.487 269.054C191.274 269.058 192.48 268.662 192.683 269.69C192.889 270.74 192.889 272.23 192.287 272.963C190.551 275.081 188.504 276.953 186.493 278.831C186.088 279.21 185.318 279.331 184.713 279.338C179.088 279.406 173.46 279.453 167.835 279.453C161.571 279.45 155.304 279.402 149.044 279.325C148.358 279.315 147.149 279.041 147.091 278.727C146.922 277.774 146.828 276.423 147.365 275.794C149.284 273.558 151.446 271.521 153.595 269.497C153.997 269.119 154.774 268.994 155.379 268.987C161.328 268.953 167.281 268.967 173.23 268.967C173.23 268.99 173.23 269.017 173.23 269.041Z" fill="white"/>
<path d="M220.933 269.041C226.683 269.041 232.436 269.027 238.189 269.054C238.973 269.058 240.179 268.662 240.382 269.69C240.588 270.74 240.588 272.23 239.987 272.963C238.25 275.081 236.203 276.953 234.193 278.831C233.787 279.21 233.02 279.331 232.416 279.338C226.787 279.406 221.159 279.453 215.534 279.453C209.27 279.45 203.007 279.402 196.743 279.325C196.058 279.315 194.848 279.041 194.794 278.727C194.622 277.774 194.527 276.423 195.068 275.794C196.983 273.558 199.145 271.521 201.294 269.497C201.699 269.119 202.473 268.994 203.078 268.987C209.027 268.953 214.98 268.967 220.929 268.967C220.929 268.99 220.929 269.017 220.933 269.041Z" fill="white"/>
</svg>
