<svg width="388" height="420" viewBox="0 0 388 420" fill="none" xmlns="http://www.w3.org/2000/svg">
<path d="M234.521 225.216C243.237 223.865 252.162 223.348 258.389 223.348C275.098 223.348 283.402 227.185 282.257 240.885C281.635 249.189 278.108 257.074 268.041 258.216L267.936 258.631C278.108 259.979 280.808 266.104 279.767 275.236C277.899 291.74 267.21 297.861 248.22 297.861C241.058 297.861 232.027 296.925 224.453 295.787L225.906 280.115C235.352 280.736 239.085 280.631 244.899 280.631C254.652 280.631 257.142 276.689 257.869 272.54C258.804 267.763 257.662 266.206 252.473 266.206H237.426L239.19 252.716H253.821C259.842 252.716 260.882 250.432 261.193 245.452C261.399 242.131 260.983 240.469 255.173 240.469H234.521V225.216Z" fill="white"/>
<path d="M217.852 232.213C217.852 245.832 197.466 250.761 186.939 250.761C176.409 250.761 156.027 245.832 156.027 232.213C156.027 218.592 176.409 213.666 186.939 213.666C193.314 213.666 199.689 214.825 205.487 217.433V165.558L131.298 188.453V256.943C131.298 270.565 110.912 275.49 100.385 275.49C89.855 275.49 69.4732 270.565 69.4732 256.943C69.4732 243.321 89.855 238.396 100.385 238.396C106.76 238.396 113.135 239.554 118.933 242.163V148.75C118.933 144.693 121.635 141.119 125.5 139.862L205.872 115.132C206.74 114.842 207.612 114.747 208.578 114.747C213.696 114.747 217.852 118.899 217.852 124.021V232.213Z" fill="white"/>
</svg>
