<svg width="388" height="420" viewBox="0 0 388 420" fill="none" xmlns="http://www.w3.org/2000/svg">
<path d="M258.419 220.747C258.419 214.298 254.105 210 247.635 210C241.169 210 231.467 219.673 231.467 226.122C231.467 232.571 241.169 231.494 247.635 231.494C254.105 231.494 258.419 227.196 258.419 220.747ZM150.608 193.828H236.855L230.142 177.041C227.686 170.902 221.737 166.875 215.125 166.875H172.338C165.727 166.875 159.777 170.902 157.321 177.041L150.608 193.828ZM155.997 226.122C155.997 219.673 146.294 210 139.828 210C133.358 210 129.044 214.298 129.044 220.747C129.044 227.196 133.358 231.494 139.828 231.494C146.294 231.494 155.997 232.571 155.997 226.122ZM279.858 188.071L277.838 196.156C277.389 197.956 275.774 199.22 273.916 199.22H267.156C271.673 203.173 274.588 208.916 274.588 215.392V231.561C274.588 236.997 272.514 241.899 269.2 245.689V263.906C269.2 269.858 264.372 274.686 258.419 274.686H247.635C241.686 274.686 236.855 269.858 236.855 263.906V253.125H150.608V263.906C150.608 269.858 145.777 274.686 139.828 274.686H129.044C123.095 274.686 118.264 269.858 118.264 263.906V245.689C114.953 241.892 112.875 236.994 112.875 231.561V215.392C112.875 208.916 115.791 203.173 120.315 199.22H113.551C111.696 199.22 110.075 197.956 109.632 196.156L107.612 188.071C106.97 185.521 108.896 183.048 111.531 183.048H131.7L137.304 169.034C143.071 154.622 156.821 145.314 172.338 145.314H215.125C230.646 145.314 244.392 154.622 250.159 169.034L255.764 183.048H275.933C278.568 183.048 280.494 185.521 279.858 188.071Z" fill="white"/>
</svg>
