<svg width="388" height="420" viewBox="0 0 388 420" fill="none" xmlns="http://www.w3.org/2000/svg">
<path d="M233.014 225.733C244.223 223.763 253.149 223.554 258.338 223.554C276.395 223.554 285.007 227.084 283.453 242.233C282.726 249.189 280.132 254.794 271 262.577L251.801 279.077C255.328 277.831 258.439 277.52 261.76 277.52H280.649L278.159 296.408H222.949L224.608 284.783C225.129 281.152 225.75 278.557 228.24 275.861L245.365 261.226C256.47 251.057 260.101 248.462 260.933 244.827C261.453 242.652 260.101 242.131 256.264 242.131C248.061 242.131 242.666 242.131 232.601 242.337L233.014 225.733Z" fill="white"/>
<path d="M201.473 148.108C195.098 150.638 192.01 157.787 194.541 164.162C197.071 170.537 204.22 173.624 210.595 171.094C216.97 168.564 220.057 161.415 217.527 155.04C214.997 148.665 207.845 145.577 201.473 148.108ZM187.612 180.216C181.237 182.749 178.149 189.895 180.679 196.27C183.21 202.648 190.358 205.733 196.733 203.202C203.108 200.672 206.196 193.523 203.666 187.148C201.135 180.773 193.987 177.685 187.612 180.216ZM145.105 190.439C144.463 188.82 142.71 188.064 141.091 188.706L123.855 195.547L117.01 178.31C116.368 176.692 114.612 175.935 112.997 176.577L101.503 181.138C99.8886 181.78 99.1284 183.537 99.7703 185.151L106.612 202.391L89.3751 209.236C87.7602 209.874 87.0001 211.631 87.642 213.246L92.2028 224.739C92.8447 226.358 94.6014 227.114 96.2197 226.472L113.456 219.631L120.301 236.868C120.943 238.486 122.699 239.243 124.314 238.601L135.804 234.04C137.422 233.398 138.179 231.641 137.537 230.026L130.696 212.787L147.936 205.945C149.551 205.304 150.311 203.547 149.669 201.929L145.105 190.439ZM217.351 221.624C205.679 226.256 193.338 226.067 182.439 222.179L162.686 230.02C157.422 240.32 148.574 248.925 136.902 253.56C111.493 263.645 82.7703 251.246 72.6859 225.837C62.598 200.429 74.9967 171.706 100.409 161.618L180.855 129.685C206.264 119.597 234.987 131.996 245.071 157.408C255.159 182.817 242.76 211.54 217.351 221.624Z" fill="white"/>
</svg>
