<svg width="388" height="420" viewBox="0 0 388 420" fill="none" xmlns="http://www.w3.org/2000/svg">
<path d="M284.851 279.804L277.692 281.878H277.378L275.303 296.409H254.858L256.83 281.878H229.121C221.962 281.878 218.952 276.274 221.651 270.774L245.52 224.801H266.793L246.455 265.378C245.624 266.933 245.52 267.558 247.077 267.558H258.803L261.192 249.916L266.276 238.916H283.398L279.351 267.558H286.513L284.851 279.804Z" fill="white"/>
<path d="M201.472 148.108C195.097 150.638 192.01 157.787 194.54 164.162C197.07 170.537 204.219 173.624 210.594 171.094C216.969 168.564 220.057 161.415 217.526 155.04C214.996 148.665 207.844 145.577 201.472 148.108ZM187.611 180.216C181.236 182.749 178.148 189.895 180.679 196.27C183.209 202.648 190.358 205.733 196.733 203.202C203.108 200.672 206.195 193.523 203.665 187.148C201.135 180.773 193.986 177.685 187.611 180.216ZM145.104 190.439C144.462 188.82 142.709 188.064 141.091 188.706L123.854 195.547L117.01 178.31C116.368 176.692 114.611 175.935 112.996 176.577L101.503 181.138C99.888 181.78 99.1278 183.537 99.7697 185.151L106.611 202.391L89.3745 209.236C87.7596 209.874 86.9995 211.631 87.6413 213.246L92.2022 224.739C92.8441 226.358 94.6008 227.114 96.219 226.472L113.456 219.631L120.3 236.868C120.942 238.486 122.699 239.243 124.314 238.601L135.804 234.04C137.422 233.398 138.179 231.641 137.537 230.026L130.695 212.787L147.935 205.945C149.55 205.304 150.31 203.547 149.668 201.929L145.104 190.439ZM217.351 221.624C205.679 226.256 193.337 226.067 182.439 222.179L162.685 230.02C157.422 240.32 148.574 248.925 136.901 253.56C111.493 263.645 82.7697 251.246 72.6853 225.837C62.5974 200.429 74.9961 171.706 100.408 161.618L180.854 129.685C206.263 119.597 234.986 131.996 245.07 157.408C255.158 182.817 242.76 211.54 217.351 221.624Z" fill="white"/>
</svg>
