<svg width="388" height="420" viewBox="0 0 388 420" fill="none" xmlns="http://www.w3.org/2000/svg">
<circle cx="194.061" cy="210" r="9" fill="white"/>
<circle cx="228.061" cy="210" r="9" fill="white"/>
<circle cx="217.81" cy="234.748" r="9" transform="rotate(45 217.81 234.748)" fill="white"/>
<circle cx="262.061" cy="210" r="9" fill="white"/>
<circle cx="256.574" cy="236.964" r="9" transform="rotate(23.0033 256.574 236.964)" fill="white"/>
<circle cx="221.129" cy="273.033" r="9" transform="rotate(65.9968 221.129 273.033)" fill="white"/>
<circle cx="9" cy="9" r="9" transform="matrix(-0.374614 0.927181 0.927181 0.374614 162.239 262.26)" fill="white"/>
<circle cx="241.851" cy="258.79" r="9" transform="rotate(45 241.851 258.79)" fill="white"/>
<circle cx="296.061" cy="210" r="9" fill="white"/>
<circle cx="292.052" cy="238.525" r="9" transform="rotate(15.9985 292.052 238.525)" fill="white"/>
<circle cx="159.061" cy="210" r="9" fill="white"/>
<circle cx="169.019" cy="185.958" r="9" transform="rotate(45 169.019 185.958)" fill="white"/>
<circle cx="124.061" cy="210" r="9" fill="white"/>
<circle cx="129.548" cy="183.036" r="9" transform="rotate(23.0033 129.548 183.036)" fill="white"/>
<circle cx="164.992" cy="146.967" r="9" transform="rotate(65.9968 164.992 146.967)" fill="white"/>
<circle cx="9" cy="9" r="9" transform="matrix(-0.374614 0.927181 0.927181 0.374614 213.936 134.309)" fill="white"/>
<circle cx="144.271" cy="161.209" r="9" transform="rotate(45 144.271 161.209)" fill="white"/>
<circle cx="89.0605" cy="210" r="9" fill="white"/>
<circle cx="93.0693" cy="181.474" r="9" transform="rotate(15.9985 93.0693 181.474)" fill="white"/>
<circle cx="194.061" cy="244" r="9" fill="white"/>
<circle cx="194.061" cy="278" r="9" fill="white"/>
<circle cx="194.061" cy="312" r="9" fill="white"/>
<circle cx="251.942" cy="294.302" r="9" transform="rotate(-34.0037 251.942 294.302)" fill="white"/>
<circle cx="194.061" cy="346" r="9" fill="white"/>
<circle cx="194.061" cy="175" r="9" fill="white"/>
<circle cx="194.061" cy="140" r="9" fill="white"/>
<circle cx="194.061" cy="105" r="9" fill="white"/>
<circle cx="136.179" cy="122.698" r="9" transform="rotate(-34.0037 136.179 122.698)" fill="white"/>
<circle cx="194.061" cy="70" r="9" fill="white"/>
</svg>
