<svg width="388" height="420" viewBox="0 0 388 420" fill="none" xmlns="http://www.w3.org/2000/svg">
<path d="M176.213 178.419C148.584 178.436 120.952 178.415 93.324 178.429C85.4152 178.433 80.5943 181.132 79.2193 188.686C77.976 195.517 77.895 202.905 79.0808 209.737C80.449 217.618 85.2666 220.365 93.395 220.378C101.023 220.389 108.648 220.355 116.277 220.422C117.523 220.432 118.767 220.878 120.013 221.118C119.986 221.672 119.959 222.223 119.932 222.777C118.213 222.943 116.496 223.247 114.777 223.257C105.115 223.301 95.4524 223.24 85.7903 223.287C80.3409 223.314 77.1822 226.801 76.9862 232.821C76.7768 239.098 80.2666 243.476 85.841 243.52C97.7058 243.618 109.571 243.48 121.432 243.581C126.054 243.622 129.206 241.585 131.169 237.574C135.591 228.527 135.226 219.081 132.202 209.916C130.263 204.037 125.55 200.845 118.827 201.085C111.547 201.341 104.25 201.166 96.9626 201.125C95.4254 201.118 93.8916 200.868 92.3545 200.73C92.3984 200.382 92.439 200.03 92.4795 199.679H175.26C175.263 200.166 175.263 200.655 175.267 201.142C173.453 201.142 171.638 201.142 169.824 201.142C161.348 201.139 152.872 201.064 144.399 201.152C139.27 201.206 135.936 205.351 136.078 211.183C136.216 217.034 139.182 220.324 144.483 220.348C153.297 220.392 162.111 220.338 170.926 220.385C172.446 220.392 173.963 220.703 175.483 220.872C175.453 221.517 175.422 222.162 175.388 222.804C173.824 222.963 172.263 223.25 170.699 223.257C162.395 223.297 154.088 223.257 145.784 223.27C139.632 223.28 136.267 226.693 136.125 233.014C135.98 239.443 139.618 243.503 145.719 243.534C156.567 243.591 167.415 243.568 178.267 243.561C186.368 243.557 191.078 239.581 192.868 231.686C194.328 225.26 193.571 219.351 190.27 213.584C189.493 212.23 189.797 209.963 190.226 208.274C191.209 204.395 193.341 200.672 193.642 196.78C194.557 184.943 188.05 178.416 176.213 178.419Z" fill="white"/>
<path d="M309.595 229.183C308.007 224.797 304.848 223.149 300.135 223.203C283.524 223.392 266.912 223.379 250.301 223.199C247.7 223.172 245.108 221.889 241.777 220.987C244.72 217.868 247.162 216.22 248.291 213.926C253.206 203.943 253.733 193.605 248.085 183.838C246.595 181.267 242.598 178.862 239.612 178.679C229.311 178.041 218.946 178.456 208.608 178.399C203.22 178.365 199.321 180.966 197.456 185.716C196.004 189.412 195.125 193.547 195.021 197.514C194.727 208.862 194.96 220.223 194.977 231.578C194.987 238.588 198.071 243.463 202.585 243.574C207.041 243.686 210.247 238.75 210.264 231.683C210.284 222.189 210.392 212.696 210.223 203.21C210.166 199.892 211.216 198.75 214.588 198.868C221.189 199.101 227.808 198.895 234.416 198.956C235.392 198.966 236.365 199.433 237.338 199.689L237.223 201.095C232.095 201.095 226.963 201.223 221.841 201.058C216.987 200.895 214.25 203.355 212.855 207.686C211.115 213.091 212.379 217.78 216.73 221.405C224.277 227.689 231.801 234.024 239.652 239.916C242.152 241.791 245.642 243.264 248.71 243.324C266.5 243.676 284.301 243.591 302.095 243.51C303.801 243.503 305.997 243.007 307.105 241.889C310.629 238.335 311.298 233.882 309.595 229.183Z" fill="white"/>
<path d="M260.395 220.787C264.26 221.841 266.436 217.943 267.601 214.402C268.068 212.99 268.216 211.429 268.25 209.929C268.335 206.041 268.277 202.146 268.277 198.25C268.277 194.021 268.385 189.784 268.247 185.558C268.088 180.693 264.713 176.233 261.132 176.426C256.409 176.676 254.03 180.284 253.828 184.23C253.328 194.004 253.139 203.858 253.889 213.595C254.095 216.254 257.672 220.044 260.395 220.787Z" fill="white"/>
</svg>
