<svg width="388" height="420" viewBox="0 0 388 420" fill="none" xmlns="http://www.w3.org/2000/svg">
<path d="M279.348 170.996C277.348 170.834 275.203 170.74 272.97 170.716L273.044 163.523C275.446 163.547 277.764 163.648 279.933 163.824L279.348 170.996ZM260.051 171.257L259.429 164.091C261.747 163.888 264.027 163.74 266.21 163.642L266.524 170.831C264.446 170.922 262.267 171.064 260.051 171.257ZM247.108 172.844L246.004 165.733C248.264 165.385 250.514 165.071 252.693 164.8L253.575 171.942C251.47 172.202 249.291 172.507 247.108 172.844ZM291.443 173.321C289.72 172.709 287.747 172.199 285.575 171.797L286.875 164.723C289.423 165.189 291.771 165.8 293.848 166.54L291.443 173.321ZM234.223 175.199L232.75 168.159C234.977 167.692 237.2 167.257 239.358 166.861L240.656 173.936C238.554 174.324 236.392 174.746 234.223 175.199ZM221.439 178.172L219.659 171.202C221.852 170.645 224.048 170.108 226.186 169.608L227.818 176.615C225.727 177.105 223.581 177.628 221.439 178.172ZM299.443 179.395C298.872 178.077 297.855 176.878 296.423 175.831L300.666 170.023C303.146 171.834 304.953 174.02 306.041 176.527L299.443 179.395ZM208.771 181.675L206.723 174.777C208.872 174.142 211.041 173.517 213.173 172.929L215.092 179.865C213 180.442 210.875 181.05 208.771 181.675ZM306.933 185.625L299.858 184.307C299.98 183.645 300.044 183.007 300.044 182.402C300.044 181.429 299.889 180.55 299.571 179.709L306.301 177.165C306.923 178.807 307.237 180.571 307.237 182.402C307.237 183.449 307.135 184.534 306.933 185.625ZM196.23 185.648L193.936 178.831C196.054 178.118 198.2 177.415 200.311 176.746L202.483 183.604C200.412 184.263 198.308 184.949 196.23 185.648ZM183.828 190.057L181.304 183.321C183.399 182.537 185.517 181.763 187.602 181.02L190.01 187.8C187.963 188.53 185.885 189.287 183.828 190.057ZM171.581 194.882L168.831 188.233C170.879 187.385 172.97 186.54 175.048 185.723L177.683 192.419C175.646 193.223 173.592 194.05 171.581 194.882ZM300.321 198.898L294.619 194.51C295.963 192.763 297.078 191.067 297.929 189.466L304.281 192.851C303.24 194.8 301.909 196.838 300.321 198.898ZM159.507 200.121L156.527 193.574C158.541 192.655 160.602 191.74 162.656 190.848L165.521 197.449C163.507 198.324 161.483 199.223 159.507 200.121ZM147.646 205.797L144.416 199.368C146.389 198.378 148.416 197.382 150.443 196.412L153.548 202.902C151.561 203.854 149.575 204.827 147.646 205.797ZM290.804 209.034L285.963 203.709C287.612 202.209 289.149 200.713 290.531 199.257L295.747 204.213C294.247 205.794 292.585 207.415 290.804 209.034ZM136.034 211.936L132.534 205.648C134.463 204.574 136.453 203.496 138.443 202.442L141.804 208.804C139.858 209.834 137.919 210.885 136.034 211.936ZM280.247 217.665L275.953 211.892C277.74 210.564 279.463 209.223 281.075 207.912L285.619 213.49C283.926 214.868 282.119 216.273 280.247 217.665ZM124.744 218.588L120.933 212.49C122.798 211.321 124.737 210.145 126.693 208.993L130.345 215.192C128.443 216.314 126.558 217.456 124.744 218.588ZM269.112 225.351L265.22 219.3C267.088 218.098 268.916 216.882 270.656 215.682L274.737 221.608C272.936 222.848 271.044 224.108 269.112 225.351ZM113.885 225.841L109.693 219.993C111.473 218.716 113.348 217.422 115.26 216.148L119.25 222.135C117.406 223.365 115.602 224.611 113.885 225.841ZM257.585 232.331L254.014 226.081C255.933 224.986 257.835 223.871 259.666 222.763L263.389 228.919C261.507 230.057 259.551 231.206 257.585 232.331ZM103.673 233.827L98.9766 228.378C100.629 226.952 102.406 225.5 104.254 224.057L108.679 229.73C106.923 231.101 105.237 232.48 103.673 233.827ZM245.76 238.733L242.47 232.334C244.433 231.327 246.389 230.294 248.281 229.27L251.706 235.598C249.767 236.648 247.767 237.702 245.76 238.733ZM94.6084 242.767L89.1456 238.081C90.5645 236.429 92.1658 234.726 93.9124 233.017L98.9429 238.159C97.3483 239.723 95.8888 241.27 94.6084 242.767ZM233.7 244.635L230.662 238.115C232.659 237.182 234.656 236.23 236.595 235.28L239.757 241.743C237.777 242.713 235.737 243.686 233.7 244.635ZM221.439 250.077L218.635 243.452C220.659 242.598 222.689 241.716 224.673 240.838L227.592 247.412C225.568 248.311 223.5 249.209 221.439 250.077ZM88.2199 252.834L81.4597 250.365C82.2368 248.243 83.3787 246.017 84.855 243.75L90.8854 247.675C89.7064 249.49 88.8077 251.226 88.2199 252.834ZM209 255.088L206.426 248.371C208.473 247.588 210.534 246.773 212.551 245.963L215.24 252.638C213.186 253.466 211.085 254.29 209 255.088ZM196.406 259.675L194.058 252.875C196.112 252.169 198.2 251.425 200.26 250.675L202.723 257.436C200.625 258.199 198.5 258.956 196.406 259.675ZM183.656 263.831L181.548 256.952C183.619 256.317 185.73 255.652 187.818 254.969L190.051 261.811C187.919 262.507 185.767 263.186 183.656 263.831ZM83.48 266.419C82.4631 265.172 81.6658 263.8 81.1118 262.338C80.6388 261.081 80.3415 259.75 80.23 258.382L87.3989 257.794C87.4564 258.493 87.605 259.165 87.8415 259.794C88.1185 260.527 88.5273 261.223 89.0543 261.868L83.48 266.419ZM170.754 267.52L168.909 260.567C170.997 260.013 173.129 259.425 175.244 258.821L177.223 265.74C175.061 266.355 172.885 266.956 170.754 267.52ZM157.696 270.696L156.149 263.669C158.247 263.206 160.399 262.709 162.541 262.186L164.244 269.179C162.051 269.713 159.845 270.223 157.696 270.696ZM144.483 273.273L143.287 266.179C145.385 265.824 147.551 265.429 149.73 265.003L151.108 272.067C148.872 272.503 146.642 272.912 144.483 273.273ZM96.7807 273.949C94.1793 273.267 91.8449 272.398 89.8415 271.375L93.1219 264.969C94.6625 265.76 96.5104 266.439 98.6118 266.993L96.7807 273.949ZM131.098 275.118L130.352 267.959C132.45 267.74 134.629 267.476 136.825 267.172L137.811 274.297C135.537 274.615 133.277 274.888 131.098 275.118ZM110.666 275.882C108.233 275.77 105.906 275.567 103.747 275.284L104.683 268.152C106.642 268.409 108.764 268.591 110.997 268.692L110.666 275.882ZM117.531 275.973L117.416 268.777C119.477 268.746 121.649 268.655 123.875 268.513L124.341 275.692C122 275.844 119.706 275.939 117.531 275.973Z" fill="white"/>
<path d="M128.881 119.311L115.135 108.138C116.499 106.459 118.097 105.03 119.878 103.895C121.439 102.902 123.145 102.128 124.952 101.598L129.939 118.594C129.729 118.655 129.553 118.733 129.398 118.831C129.216 118.946 129.047 119.105 128.881 119.311ZM137.175 119.811C135.53 119.169 134.03 118.743 132.726 118.551L135.314 101.03C137.939 101.415 140.733 102.186 143.621 103.314L137.175 119.811ZM147.124 125.233C145.395 124.074 143.709 123.04 142.118 122.165L150.668 106.652C152.709 107.777 154.834 109.081 156.986 110.524L147.124 125.233ZM126.979 126.665L109.29 125.743C109.449 122.679 109.885 119.838 110.584 117.301L127.658 122C127.3 123.304 127.07 124.875 126.979 126.665ZM156.888 132.689C155.256 131.304 153.631 129.993 152.06 128.787L162.834 114.73C164.635 116.111 166.486 117.608 168.341 119.179L156.888 132.689ZM110.293 140.841C109.881 138.29 109.587 135.824 109.412 133.503L127.074 132.176C127.209 133.996 127.449 135.966 127.78 138.024L110.293 140.841ZM166.195 141.226C164.655 139.713 163.111 138.24 161.601 136.851L173.584 123.811C175.243 125.334 176.935 126.946 178.614 128.598L166.195 141.226ZM175.05 150.456C173.591 148.851 172.118 147.274 170.675 145.77L183.462 133.513C185.013 135.132 186.591 136.824 188.155 138.544L175.05 150.456ZM113.391 154.757C112.746 152.419 112.165 150.111 111.665 147.902L128.942 144.007C129.378 145.939 129.891 147.966 130.462 150.03L113.391 154.757ZM183.486 160.189C182.097 158.517 180.695 156.861 179.317 155.267L192.705 143.672C194.168 145.361 195.655 147.118 197.124 148.892L183.486 160.189ZM117.624 168.027C116.83 165.811 116.08 163.601 115.395 161.456L132.263 156.057C132.891 158.013 133.577 160.037 134.303 162.067L117.624 168.027ZM191.526 170.314C190.216 168.591 188.878 166.875 187.553 165.206L201.425 154.192C202.817 155.949 204.226 157.76 205.611 159.574L191.526 170.314ZM199.199 180.763C197.949 178.996 196.675 177.226 195.408 175.503L209.689 165.024C211.016 166.831 212.354 168.689 213.662 170.544L199.199 180.763ZM122.631 180.861C121.729 178.726 120.861 176.581 120.043 174.493L136.54 168.047C137.3 169.993 138.111 171.99 138.952 173.986L122.631 180.861ZM206.506 191.496C205.317 189.686 204.104 187.868 202.895 186.098L217.537 176.132C218.8 177.983 220.07 179.885 221.314 181.777L206.506 191.496ZM128.239 193.351C127.253 191.28 126.29 189.192 125.368 187.145L141.52 179.882C142.388 181.814 143.3 183.784 144.233 185.736L128.239 193.351ZM213.449 202.469C212.33 200.635 211.175 198.78 210.023 196.956L224.989 187.486C226.195 189.395 227.401 191.334 228.574 193.257L213.449 202.469ZM134.351 205.54C133.293 203.527 132.246 201.49 131.239 199.483L147.067 191.54C148.023 193.446 149.02 195.382 150.026 197.294L134.351 205.54ZM220.01 213.669C218.959 211.804 217.874 209.912 216.78 208.044L232.06 199.088C233.205 201.047 234.344 203.03 235.445 204.983L220.01 213.669ZM140.912 217.466C139.783 215.5 138.662 213.503 137.577 211.537L153.097 203C154.128 204.878 155.199 206.78 156.273 208.652L140.912 217.466ZM226.155 225.074C225.182 223.182 224.165 221.253 223.138 219.348L238.729 210.942C239.81 212.949 240.878 214.976 241.901 216.966L226.155 225.074ZM147.874 229.135C146.685 227.216 145.496 225.263 144.344 223.331L159.55 214.253C160.651 216.101 161.79 217.966 162.925 219.801L147.874 229.135ZM231.837 236.679C230.952 234.763 230.016 232.804 229.06 230.855L244.966 223.061C245.976 225.125 246.966 227.199 247.905 229.226L231.837 236.679ZM155.226 240.554C153.976 238.686 152.722 236.774 151.499 234.875L166.395 225.29C167.564 227.108 168.76 228.936 169.955 230.723L155.226 240.554ZM236.983 248.469C236.192 246.53 235.351 244.54 234.483 242.554L250.716 235.466C251.641 237.588 252.54 239.716 253.385 241.787L236.983 248.469ZM162.966 251.73C161.662 249.919 160.344 248.051 159.047 246.176L173.604 236.088C174.844 237.878 176.104 239.662 177.344 241.392L162.966 251.73ZM241.466 260.422C240.8 258.469 240.077 256.453 239.317 254.429L255.895 248.199C256.722 250.399 257.506 252.588 258.229 254.713L241.466 260.422ZM171.118 262.638C169.736 260.865 168.347 259.04 166.989 257.219L181.178 246.618C182.472 248.351 183.79 250.084 185.101 251.77L171.118 262.638ZM245.077 272.473C244.58 270.53 244.02 268.503 243.398 266.442L260.358 261.341C261.05 263.645 261.685 265.922 262.239 268.111L245.077 272.473ZM179.709 273.246C178.263 271.534 176.797 269.763 175.354 267.983L189.118 256.838C190.483 258.52 191.868 260.196 193.233 261.811L179.709 273.246ZM188.8 283.507C187.273 281.865 185.722 280.155 184.189 278.426L197.449 266.682C198.885 268.304 200.337 269.905 201.763 271.439L188.8 283.507ZM247.405 284.415C247.172 282.554 246.847 280.557 246.439 278.486L263.814 275.054C264.307 277.534 264.695 279.949 264.979 282.23L247.405 284.415ZM198.493 293.344C196.874 291.797 195.216 290.165 193.564 288.486L206.185 276.061C207.709 277.608 209.233 279.111 210.722 280.53L198.493 293.344ZM265.145 297.777L247.601 295.361C247.773 294.098 247.861 292.676 247.861 291.138C247.861 290.811 247.857 290.483 247.851 290.152L265.557 289.736C265.567 290.209 265.574 290.679 265.574 291.145C265.574 293.483 265.428 295.716 265.145 297.777ZM208.976 302.615C207.222 301.192 205.422 299.662 203.621 298.064L215.371 284.811C216.979 286.24 218.584 287.601 220.138 288.861L208.976 302.615ZM220.675 311.027C218.716 309.814 216.682 308.446 214.631 306.959L225.016 292.615C226.726 293.848 228.398 294.976 229.993 295.966L220.675 311.027ZM255.618 315.331L245.459 300.824C245.857 300.544 246.233 300.024 246.574 299.277L262.689 306.628C261.016 310.287 258.638 313.216 255.618 315.331ZM234.83 317.638C232.428 316.936 229.891 315.942 227.287 314.682L234.996 298.74C236.719 299.571 238.334 300.209 239.797 300.638L234.83 317.638ZM244.023 318.969L243.665 301.263C244.425 301.247 245.006 301.115 245.395 300.868L254.912 315.804C251.743 317.821 248.08 318.888 244.023 318.969Z" fill="white"/>
</svg>
