<svg width="388" height="420" viewBox="0 0 388 420" fill="none" xmlns="http://www.w3.org/2000/svg">
<circle cx="194.059" cy="210.286" r="102.871" stroke="white" stroke-width="42.1869"/>
<path fill-rule="evenodd" clip-rule="evenodd" d="M219.091 178.392C221.822 176.753 224.948 175.887 228.134 175.887H228.632C234.276 175.889 239.832 177.293 244.806 179.973C249.779 182.654 254.016 186.529 257.138 191.253C260.261 195.977 262.173 201.403 262.704 207.049C263.235 212.695 262.369 218.385 260.182 223.613C257.996 228.841 254.557 233.445 250.171 237.014C245.786 240.584 240.59 243.009 235.047 244.073C229.503 245.137 223.784 244.808 218.397 243.114C213.011 241.42 208.125 238.415 204.175 234.365H184.593C180.642 238.415 175.755 241.421 170.368 243.115C164.981 244.808 159.261 245.137 153.717 244.072C148.173 243.008 142.977 240.582 138.592 237.011C134.206 233.44 130.768 228.835 128.582 223.606C126.396 218.377 125.531 212.686 126.064 207.039C126.597 201.393 128.51 195.967 131.635 191.243C134.76 186.52 138.998 182.646 143.973 179.967C148.948 177.288 154.505 175.886 160.15 175.887C163.227 175.887 166.247 176.724 168.886 178.307L169.028 178.392C170.562 179.313 172.225 179.995 173.99 180.287C177.477 180.864 184.327 181.728 194.059 181.728C203.792 181.728 210.641 180.864 214.128 180.287C215.894 179.995 217.556 179.313 219.091 178.392ZM178.226 214.69C178.708 214.206 178.978 213.55 178.978 212.866V207.706C178.978 207.022 178.708 206.365 178.226 205.882C177.745 205.398 177.092 205.126 176.411 205.126H165.285V193.946C165.285 193.262 165.014 192.606 164.533 192.122C164.051 191.638 163.398 191.367 162.717 191.367H157.582C156.901 191.367 156.248 191.638 155.767 192.122C155.285 192.606 155.015 193.262 155.015 193.946V205.126H143.889C143.208 205.126 142.555 205.398 142.073 205.882C141.592 206.365 141.321 207.022 141.321 207.706V212.866C141.321 213.55 141.592 214.206 142.073 214.69C142.555 215.174 143.208 215.446 143.889 215.446H155.015V226.625C155.015 227.309 155.285 227.965 155.767 228.449C156.248 228.933 156.901 229.205 157.582 229.205H162.717C163.398 229.205 164.051 228.933 164.533 228.449C165.014 227.965 165.285 227.309 165.285 226.625V215.446H176.411C177.092 215.446 177.745 215.174 178.226 214.69ZM220.439 227.756C221.847 228.701 223.501 229.205 225.194 229.205C227.464 229.205 229.641 228.299 231.246 226.686C232.851 225.073 233.753 222.886 233.753 220.605C233.753 218.904 233.251 217.242 232.31 215.828C231.37 214.413 230.033 213.311 228.469 212.66C226.905 212.009 225.185 211.839 223.524 212.171C221.864 212.503 220.339 213.322 219.142 214.524C217.945 215.727 217.13 217.259 216.8 218.928C216.47 220.596 216.639 222.325 217.287 223.896C217.935 225.468 219.032 226.811 220.439 227.756ZM234.133 207.117C235.54 208.061 237.195 208.566 238.888 208.566C241.158 208.566 243.334 207.66 244.939 206.047C246.544 204.434 247.446 202.247 247.446 199.966C247.446 198.265 246.944 196.603 246.004 195.188C245.063 193.774 243.727 192.672 242.163 192.021C240.599 191.37 238.878 191.2 237.218 191.532C235.558 191.864 234.033 192.683 232.836 193.885C231.639 195.088 230.824 196.62 230.494 198.288C230.163 199.957 230.333 201.686 230.981 203.257C231.628 204.828 232.725 206.172 234.133 207.117Z" fill="white"/>
</svg>
