<svg width="388" height="420" viewBox="0 0 388 420" fill="none" xmlns="http://www.w3.org/2000/svg">
<path d="M193.734 128.348C148.71 128.348 112.082 164.977 112.082 210C112.082 255.024 148.71 291.652 193.734 291.652C238.757 291.652 275.386 255.024 275.386 210C275.386 164.977 238.757 128.348 193.734 128.348ZM193.734 332.48C126.196 332.48 71.2539 277.534 71.2539 210C71.2539 142.466 126.196 87.5205 193.734 87.5205C261.271 87.5205 316.213 142.466 316.213 210C316.213 277.534 261.271 332.48 193.734 332.48Z" fill="white"/>
<path d="M180.933 264.831L175.605 265.774L175.571 265.355C175.423 263.45 175.284 261.652 175.217 259.828C174.774 248.115 178.044 237.108 185.206 226.176C186.919 223.558 188.727 220.757 190.355 217.845C193.237 212.689 192.325 207.558 187.852 203.774C185.801 202.041 183.659 200.375 181.585 198.764C179.933 197.48 178.227 196.156 176.595 194.815C167.358 187.227 161.125 177.446 158.064 165.74C157.902 165.122 157.74 164.5 157.575 163.845L211.858 154.227L211.892 154.625C212.041 156.443 212.186 158.159 212.254 159.892C212.696 171.757 209.372 182.838 202.092 193.774C200.365 196.365 198.541 199.162 196.885 202.068C193.906 207.294 194.818 212.507 199.382 216.372C201.831 218.45 204.385 220.362 207.233 222.47C217.237 229.865 223.896 238.416 227.588 248.608C228.338 250.69 228.973 252.804 229.642 255.044L229.973 256.142L224.588 257.095L180.933 264.831ZM247.926 266.74L245.872 255.142C245.696 254.169 244.771 253.521 243.794 253.693L239.122 254.521C239.112 254.463 239.098 254.402 239.085 254.345C238.676 252.855 238.257 251.315 237.808 249.798C234.183 237.649 227.639 227.477 218.358 219.565C216.031 217.578 213.568 215.706 211.189 213.892C209.575 212.666 207.906 211.396 206.308 210.112C204.088 208.328 204.037 208.034 205.531 205.592C206.588 203.858 207.723 202.119 208.825 200.436C209.811 198.923 210.831 197.362 211.804 195.794C211.804 195.791 211.804 195.791 211.804 195.791C218.507 184.936 221.791 173.139 221.564 160.73C221.524 158.433 221.358 156.129 221.196 153.899L221.115 152.764C221.112 152.706 221.105 152.649 221.092 152.591L225.737 151.767C226.706 151.595 227.358 150.666 227.183 149.693L225.129 138.095C225.112 138 225.058 137.929 225.034 137.841C224.75 137.021 223.936 136.487 223.054 136.642L140.99 151.186C140.102 151.341 139.517 152.132 139.544 153.007C139.548 153.091 139.524 153.173 139.537 153.26L141.595 164.858C141.767 165.835 142.696 166.483 143.669 166.308L148.402 165.47C148.409 165.514 148.416 165.554 148.429 165.598L148.473 165.774C148.831 167.169 149.203 168.605 149.608 170.007C153.145 182.22 159.689 192.517 169.054 200.608C171.378 202.615 173.835 204.51 176.206 206.345C177.845 207.608 179.541 208.916 181.162 210.24C182.949 211.7 183.017 212.098 181.828 214.122C180.531 216.321 179.101 218.514 177.723 220.635L176.929 221.855C169.345 233.551 165.629 246.112 165.892 259.189C165.939 261.473 166.125 263.767 166.308 265.987L166.409 267.243C166.412 267.294 166.419 267.348 166.429 267.402L161.73 268.233C160.757 268.406 160.108 269.335 160.28 270.308L162.335 281.906C162.351 282.004 162.405 282.081 162.439 282.173C162.723 282.987 163.534 283.514 164.409 283.358L246.476 268.814C247.348 268.662 247.926 267.892 247.919 267.034C247.916 266.936 247.946 266.842 247.926 266.74Z" fill="white"/>
<path d="M167.284 169.169C170.372 175.753 177.328 186.091 191.122 192.422C191.122 192.422 199.176 184.135 204.274 169.169H167.284Z" fill="white"/>
</svg>
