<svg width="388" height="420" viewBox="0 0 388 420" fill="none" xmlns="http://www.w3.org/2000/svg">
<path d="M259.558 198.392H274.325C274.183 200.517 273.957 202.585 273.923 204.656C273.855 208.47 273.889 212.287 273.909 216.105C273.926 220.463 276.94 223.507 281.264 223.527C285.913 223.547 290.562 223.551 295.21 223.531C299.663 223.514 302.67 220.504 302.683 216.068C302.697 211.517 302.697 206.966 302.683 202.416C302.673 197.808 299.67 194.77 295.068 194.764C281.464 194.747 267.862 194.757 254.257 194.757H252.707C252.619 194.618 252.534 194.476 252.447 194.335C253.96 192.909 255.501 191.514 256.984 190.054C259.947 187.135 262.852 184.159 265.849 181.274C266.342 180.797 267.17 180.416 267.842 180.412C279.44 180.358 291.038 180.348 302.632 180.382C310.751 180.405 317.045 186.723 317.062 194.828C317.082 204.419 317.085 214.01 317.062 223.601C317.041 231.561 310.798 237.868 302.832 237.912C293.095 237.97 283.359 237.966 273.622 237.912C265.866 237.872 259.545 231.527 259.501 223.767C259.453 215.696 259.487 207.622 259.487 199.547C259.491 199.209 259.528 198.872 259.558 198.392Z" fill="white"/>
<path d="M127.775 180.713C123.201 185.264 118.636 189.825 114.028 194.342C113.711 194.656 113.059 194.734 112.562 194.737C108.255 194.767 103.947 194.74 99.6398 194.761C91.0688 194.798 84.8222 201.054 84.8053 209.605C84.8019 211.761 84.7952 213.913 84.8088 216.065C84.8324 220.484 87.8561 223.527 92.302 223.531C105.957 223.548 119.613 223.538 133.268 223.534H135.133V237.855C134.623 237.882 134.147 237.926 133.674 237.926C117.522 237.93 101.37 237.936 85.2175 237.926C76.6365 237.923 70.4 231.676 70.3966 223.112C70.3931 218.46 70.3831 213.811 70.4001 209.163C70.4541 193.244 83.2514 180.433 99.1704 180.379C108.272 180.348 117.376 180.372 126.481 180.372H127.623C127.674 180.487 127.724 180.598 127.775 180.713Z" fill="white"/>
<path d="M138.883 209.078V198.328H140.653C153.427 198.328 166.2 198.328 178.977 198.328C179.417 198.328 179.856 198.338 180.298 198.318C181.346 198.274 181.937 197.693 182.011 196.679C182.086 195.642 181.477 195.024 180.508 194.811C180.042 194.707 179.535 194.757 179.048 194.757C159.126 194.757 139.207 194.757 119.288 194.757H117.44C117.795 194.311 117.991 194.011 118.241 193.761C122.457 189.538 126.667 185.301 130.927 181.122C131.352 180.707 132.096 180.406 132.694 180.402C149.187 180.365 165.68 180.342 182.173 180.392C190.106 180.416 196.417 186.838 196.437 194.727C196.461 202.71 190.167 209.109 182.126 209.132C168.13 209.176 154.133 209.146 140.133 209.146C139.754 209.146 139.373 209.105 138.883 209.078Z" fill="white"/>
<path d="M138.923 212.801H153.159C153.186 213.345 153.234 213.862 153.234 214.378C153.237 231.399 153.241 248.416 153.217 265.433C153.217 266.02 153.119 266.791 152.751 267.166C148.257 271.784 143.703 276.345 138.923 281.159V212.801Z" fill="white"/>
<path d="M198.342 223.611H255.805V237.841C255.325 237.868 254.859 237.925 254.393 237.925C240.453 237.929 226.511 237.952 212.572 237.915C204.906 237.899 198.687 231.953 198.308 224.385C198.295 224.155 198.325 223.919 198.342 223.611Z" fill="white"/>
<path d="M262.954 180.507C258.234 185.227 253.677 189.798 249.092 194.335C248.826 194.598 248.315 194.737 247.917 194.737C231.528 194.754 215.14 194.744 198.748 194.737C198.657 194.737 198.569 194.683 198.349 194.615C198.217 192.146 198.88 189.838 200.126 187.71C202.802 183.149 206.832 180.473 212.099 180.43C228.832 180.298 245.565 180.379 262.295 180.382C262.43 180.382 262.565 180.433 262.954 180.507Z" fill="white"/>
<path d="M244.994 198.449C241.41 202.03 238.035 205.426 234.619 208.78C234.352 209.04 233.825 209.135 233.42 209.135C221.967 209.152 210.515 209.145 199.062 209.142C198.869 209.142 198.677 209.105 198.369 209.071V198.449L244.994 198.449Z" fill="white"/>
<path d="M162.585 212.715C168.308 212.715 173.973 212.705 179.639 212.736C179.983 212.736 180.406 212.945 180.656 213.195C185.885 218.411 191.095 223.648 196.254 228.827C193.287 231.78 190.325 234.729 187.402 237.638C179.24 229.442 170.97 221.134 162.585 212.715Z" fill="white"/>
</svg>
