<svg width="388" height="420" viewBox="0 0 388 420" fill="none" xmlns="http://www.w3.org/2000/svg">
<path d="M267.316 296.408L277.383 224.8H255.694L234.829 232.165L236.694 245.557L253.518 241.921C252.478 245.03 251.951 248.043 251.545 251.165L244.897 296.408H267.316Z" fill="white"/>
<path d="M149.663 201.928C150.312 203.55 149.542 205.307 147.933 205.942L130.69 212.793L137.528 230.037C138.177 231.645 137.406 233.388 135.798 234.037L124.312 238.591C122.69 239.239 120.947 238.483 120.298 236.874L113.46 219.631L96.2172 226.469C94.6091 227.118 92.8524 226.347 92.2037 224.726L87.6497 213.239C87.001 211.631 87.7713 209.888 89.3794 209.239L106.623 202.401L99.7713 185.158C99.1361 183.55 99.8929 181.78 101.515 181.131L113.001 176.577C114.609 175.928 116.366 176.712 117.001 178.32L123.852 195.564L141.096 188.712C142.704 188.077 144.46 188.834 145.109 190.442L149.663 201.928ZM203.663 187.158C206.204 193.537 203.123 200.672 196.731 203.199C190.352 205.739 183.217 202.658 180.677 196.28C178.15 189.901 181.231 182.753 187.609 180.212C194.001 177.685 201.136 180.78 203.663 187.158ZM217.528 155.037C220.069 161.415 216.974 168.564 210.596 171.091C204.217 173.618 197.082 170.55 194.542 164.172C192.015 157.793 195.096 150.631 201.474 148.104C207.852 145.577 215.001 148.658 217.528 155.037ZM245.082 157.401C234.988 131.996 206.258 119.591 180.852 129.685L100.406 161.618C74.9875 171.699 62.5956 200.428 72.6902 225.834C82.7713 251.253 111.487 263.645 136.906 253.564C148.569 248.928 157.433 240.334 162.677 230.023L182.433 222.185C193.339 226.077 205.677 226.253 217.352 221.631C242.758 211.537 255.163 182.82 245.082 157.401Z" fill="white"/>
</svg>
