<svg width="388" height="420" viewBox="0 0 388 420" fill="none" xmlns="http://www.w3.org/2000/svg">
<path d="M234.52 225.216C243.236 223.865 252.162 223.348 258.388 223.348C275.098 223.348 283.402 227.185 282.256 240.885C281.635 249.189 278.108 257.074 268.04 258.216L267.935 258.631C278.108 259.979 280.807 266.104 279.766 275.236C277.898 291.74 267.209 297.861 248.219 297.861C241.057 297.861 232.027 296.925 224.452 295.787L225.905 280.115C235.351 280.736 239.084 280.631 244.898 280.631C254.652 280.631 257.141 276.689 257.868 272.54C258.804 267.763 257.662 266.206 252.473 266.206H237.425L239.189 252.716H253.821C259.841 252.716 260.881 250.432 261.192 245.452C261.398 242.131 260.983 240.469 255.172 240.469H234.52V225.216Z" fill="white"/>
<path fill-rule="evenodd" clip-rule="evenodd" d="M203.597 126.111C203.567 126.165 203.537 126.219 203.506 126.27C203.722 126.355 203.939 126.439 204.158 126.52C204.175 126.476 204.192 126.436 204.212 126.392C204.006 126.297 203.8 126.206 203.597 126.111ZM157.699 292.27C157.219 293.094 156.729 293.915 156.263 294.743C156.091 295.047 156.003 295.395 155.817 295.686C154.679 297.476 153.554 299.273 152.371 301.034C151.013 303.054 149.628 305.051 148.212 307.03C146.391 309.571 144.02 311.304 140.918 312.01C139.554 312.321 138.239 312.662 136.824 312.284C135.395 311.905 134.175 311.186 133.195 310.138C131.209 308.02 130.07 305.382 128.891 302.773C128.625 302.182 128.263 301.625 128.02 301.02C127.243 299.088 126.348 297.182 125.783 295.189C125.263 293.355 124.722 291.493 124.841 289.507C124.905 288.419 124.581 287.307 124.398 286.213C124.266 285.426 124.047 284.652 123.935 283.861C123.851 283.243 123.506 282.821 123.114 282.388C120.8 279.851 118.422 277.361 116.199 274.743C114.246 272.439 112.739 269.824 111.479 267.067C110.726 265.419 109.881 263.811 109.064 262.192C107.192 258.48 105.962 254.537 104.979 250.517C104.594 248.956 104.5 247.317 104.273 245.713C104.256 245.598 104.283 245.469 104.239 245.368C103.543 243.699 103.706 241.902 103.513 240.165C103.253 237.753 103.108 235.328 102.945 232.905C102.834 231.284 102.712 229.662 102.726 228.04C102.739 226.385 102.908 224.733 103.023 223.081C103.087 222.155 103.172 221.233 103.273 220.314C103.391 219.243 103.496 218.165 103.689 217.108C103.807 216.463 103.631 216.003 103.209 215.54C102.577 214.844 101.814 214.436 100.888 214.388C100.435 214.365 100.084 214.304 99.7867 213.909C99.5907 213.645 99.2664 213.449 98.9623 213.294C96.1414 211.861 93.3441 210.365 90.4691 209.047C89.1414 208.439 88.1954 207.358 86.9725 206.662C85.8542 207.456 85.638 207.398 84.5164 206.638C83.665 206.061 82.7191 205.611 81.7968 205.149C79.8373 204.165 77.8745 203.192 75.8981 202.25C73.8407 201.27 71.7393 200.388 69.7089 199.361C68.4049 198.703 67.165 197.902 65.9454 197.091C65.0671 196.51 64.9691 195.899 65.3812 194.77C68.3644 194.108 71.3306 193.287 74.3542 192.844C76.0704 192.594 77.4758 191.828 78.9758 191.159C80.7022 190.392 82.4421 189.649 84.1718 188.885C85.4421 188.331 86.6887 187.709 87.9826 187.216C89.7123 186.561 91.4657 185.959 93.2292 185.412C95.4725 184.716 97.7968 184.368 100.04 183.618C102.77 182.703 105.594 182.013 108.506 181.811C109.543 181.74 110.567 181.51 111.597 181.348C111.709 181.331 111.844 181.317 111.925 181.25C113.091 180.277 114.398 180.78 115.712 180.885C116.277 179.746 116.844 178.601 117.452 177.375C116.06 177.03 114.692 177.081 113.334 177.314C111.27 177.669 109.212 177.797 107.145 177.375C107.216 176.395 107.327 176.182 108.158 176.111C109.658 175.986 111.162 175.946 112.665 175.875C114.317 175.797 115.969 175.669 117.624 175.669C118.601 175.665 119.013 175.176 119.263 174.226C117.658 173.996 116.074 173.807 114.499 173.537C112.929 173.267 111.337 173.044 109.81 172.534C110.141 171.429 110.222 171.317 111.168 171.378C112.439 171.456 113.706 171.591 114.969 171.757C116.527 171.963 118.074 172.23 119.878 172.507C118.861 171.301 117.712 170.618 116.668 169.851C115.594 169.061 114.351 168.503 113.131 167.817C113.175 167.493 113.216 167.159 113.266 166.828C113.402 165.936 113.962 165.652 114.736 166.115C115.195 166.392 115.631 166.716 116.067 167.034C117.804 168.307 119.533 169.588 121.307 170.895C123.331 168.777 125.341 166.676 127.371 164.551C127.216 163.358 126.604 162.338 125.841 161.402C124.82 160.162 124.3 158.733 124.283 157.152C124.266 155.804 124.415 154.453 124.422 153.105C124.429 151.54 125.023 150.091 125.253 148.571C125.466 147.165 125.908 145.801 125.847 144.348C125.827 143.905 126.013 143.442 126.152 143.003C126.418 142.179 126.577 142.081 127.395 142.105C128.212 142.128 128.429 142.341 128.699 143.115C128.844 143.53 129.108 143.932 129.402 144.267C130.53 145.564 131.675 146.855 132.854 148.108C133.834 149.152 134.016 150.368 133.969 151.743C133.932 152.875 134.179 154.013 134.249 155.152C134.29 155.79 134.266 156.436 134.219 157.074C134.168 157.79 134.057 158.503 133.935 159.5C134.567 159.159 135.003 159.003 135.341 158.73C137.064 157.334 139.135 156.699 141.189 156.051C142.368 155.676 143.567 155.375 144.76 155.054C147.256 154.388 149.78 154.399 152.341 154.598C154.472 154.763 156.618 154.719 158.756 154.777C158.979 154.784 159.195 154.899 159.418 154.905C160.175 154.932 160.935 154.926 161.692 154.949C162.256 154.966 162.817 155.013 163.543 155.057C163.439 154.54 163.425 153.993 163.219 153.534C162.53 151.993 162.287 150.344 162.145 148.716C162.067 147.811 162.445 146.817 162.807 145.942C163.304 144.74 163.999 143.625 164.567 142.449C165.388 140.75 166.192 139.044 166.956 137.321C167.493 136.111 167.891 135.821 169.337 135.892C169.472 136.203 169.618 136.551 169.78 136.895C170.03 137.422 170.32 137.909 170.895 138.176C171.131 138.284 171.388 138.466 171.503 138.686C172.114 139.834 172.692 141 173.27 142.169C174.253 144.152 173.804 146.091 173.304 148.128C172.739 150.426 171.445 152.365 170.624 154.524C170.3 155.385 169.871 156.209 169.449 157.132C169.729 157.277 169.942 157.415 170.179 157.507C171.152 157.878 172.152 158.206 172.891 159C173.256 159.392 173.679 159.466 174.158 159.257C175.354 158.723 176.547 158.182 177.746 157.655C178.094 157.503 178.452 157.385 178.814 157.27C179.652 157.007 180.53 156.834 181.331 156.476C182.388 156.007 183.263 156.24 183.878 157.331C183.614 157.932 183.28 158.223 182.503 158.26C181.611 158.304 180.719 158.706 179.868 159.057C178.729 159.527 177.628 160.088 176.52 160.628C176.152 160.807 175.817 161.051 175.408 161.304C176.27 162.071 177.043 162.76 177.773 163.409C179.908 162.723 181.959 162.037 184.023 161.412C185.567 160.942 187.128 160.5 188.699 160.138C189.749 159.895 190.402 160.351 190.773 161.419C190.425 161.814 190.124 162.111 189.456 162.277C186.476 162.996 183.543 163.909 180.601 164.77C180.283 164.865 179.999 165.081 179.652 165.263C180.341 166.29 181.097 166.855 182.415 166.841C184.216 166.824 186.03 167.061 187.827 167.29C189.435 167.493 191.023 167.709 192.638 167.388C193.452 167.23 194.692 167.915 195.003 168.621C195.209 169.084 194.547 170.013 193.983 170.037C193.79 170.044 193.591 170.02 193.408 169.966C191.155 169.314 188.837 169.328 186.52 169.267C185.483 169.24 184.449 169.111 183.202 169.013C184.895 171.426 186.469 173.682 188.06 175.929C189.665 178.192 191.287 180.439 192.831 182.601C197.415 182.219 201.905 181.834 206.391 181.49C207.337 181.415 208.297 181.486 209.249 181.483C212.297 181.469 215.344 181.432 218.388 181.446C221.016 181.456 223.614 181.811 226.185 182.321C227.577 182.594 228.949 182.986 230.334 183.304C230.706 183.392 231.091 183.439 231.472 183.449C234.087 183.53 236.702 183.581 239.317 183.679C240.043 183.706 240.763 183.871 241.557 183.983C241.641 183.125 241.736 182.338 241.591 181.493C241.368 180.199 240.989 178.895 241.283 177.554C240.614 176.929 241.533 175.892 240.702 175.311C241.118 174.486 240.442 173.74 240.543 172.892C240.638 172.091 240.307 171.236 240.165 170.405C240.121 170.142 239.966 169.831 240.05 169.618C240.55 168.361 239.939 167.277 239.554 166.165C239.324 165.493 238.641 164.787 238.76 164.223C238.983 163.172 238.405 162.25 238.608 161.253C238.706 160.763 238.449 160.385 237.962 160.206C238.081 159.736 238.236 159.273 238.314 158.797C238.395 158.287 237.922 158.115 237.662 157.797C237.408 157.49 238.375 157.169 237.773 156.726C237.719 156.689 237.655 156.577 237.658 156.574C238.425 155.932 237.229 155.888 237.32 155.456C236.685 155.334 236.753 154.844 236.766 154.388C236.804 153.202 236.861 152.017 236.864 150.831C236.864 150.604 236.581 150.388 236.557 150.155C236.354 147.925 236.023 145.696 236.04 143.469C236.054 141.604 235.797 139.773 235.78 137.929C235.766 136.439 235.979 134.946 236.084 133.456C236.141 132.574 236.189 131.692 236.222 130.807C236.243 130.314 236.256 129.817 236.212 129.327C236.165 128.797 236.043 128.273 235.969 127.746C235.837 126.8 235.682 125.854 235.601 124.905C235.543 124.182 235.591 123.449 235.591 122.588C235.027 122.658 234.554 122.75 234.077 122.777C231.32 122.932 228.672 123.584 226.03 124.341C223.912 124.946 221.817 125.581 219.777 126.425C218.895 126.794 217.939 127.023 216.868 126.811C215.726 126.581 214.608 127.135 213.527 127.554C212.577 127.922 211.614 128.267 210.665 128.628C210.53 128.679 210.361 128.763 210.304 128.881C209.787 129.854 209.02 129.54 208.293 129.26C206.962 128.75 205.668 128.152 204.327 127.675C202.875 127.165 201.385 126.756 199.912 126.304C198.449 125.854 197.04 126.206 195.753 126.834C193.733 127.817 191.858 129.057 190.543 130.959C190.28 131.338 189.969 131.432 189.554 131.368C189.057 131.29 188.557 131.348 188.05 131.594C187.945 131.236 187.723 130.881 187.777 130.577C188.05 128.983 188.442 127.439 189.324 126.017C189.986 124.949 190.354 123.702 190.888 122.55C191.628 120.966 192.611 119.544 193.739 118.206C194.932 116.787 196.02 115.277 197.243 113.888C199.148 111.729 201.185 109.682 203.06 107.5C204.756 105.52 206.81 103.952 208.766 102.277C210.131 101.104 211.621 100.077 213.05 98.9794C213.875 98.3477 214.679 97.6923 215.503 97.0605C216.962 95.9355 218.712 95.3781 220.361 94.6281C221.513 94.1044 222.75 93.7531 223.871 93.1754C226.378 91.8882 229.094 91.3376 231.8 90.7193C232.135 90.6416 232.473 90.5639 232.929 90.4625C232.949 89.5065 232.966 88.5538 232.983 87.5977C233.003 86.5875 233.824 86.047 234.773 86.449C235.172 86.618 235.317 86.9524 235.31 87.3882C235.293 88.2734 235.303 89.1585 235.303 89.993C235.53 90.1146 235.628 90.2159 235.726 90.2159C237.827 90.2362 239.834 90.7936 241.871 91.2058C244.283 91.699 246.729 92.0166 249.158 92.4254C251.263 92.7801 253.229 93.5571 255.172 94.4186C258.996 96.118 262.577 98.172 265.614 101.094C267.175 102.594 268.841 103.986 270.351 105.537C271.746 106.976 273.04 108.52 274.293 110.084C275.692 111.831 277.077 113.598 277.969 115.682C278.557 117.061 279.111 118.456 279.692 119.838C279.993 120.547 280.297 121.253 280.641 121.942C280.871 122.405 280.878 122.811 280.587 123.243C280.283 123.692 279.891 123.55 279.455 123.534C278.425 123.5 277.52 123.172 276.597 122.736C275.246 122.098 273.746 122.213 272.293 122.084C268.564 121.753 265.351 123.199 262.243 124.979C261.418 125.452 260.631 125.895 259.658 125.571C259.337 125.463 259.013 125.304 258.749 125.091C257.827 124.351 256.76 124.108 255.618 124.061C255.428 124.05 255.195 124.104 255.06 124.013C253.405 122.929 251.445 123.013 249.621 122.686C246.817 122.179 243.966 122.047 241.104 122.287C240.118 122.368 239.121 122.3 238.111 122.3C238.006 123.358 237.898 124.3 237.834 125.243C237.807 125.652 237.824 126.081 237.922 126.476C238.175 127.517 238.526 128.533 238.76 129.577C238.878 130.121 238.905 130.713 238.837 131.263C238.651 132.756 238.273 134.233 238.199 135.726C238.128 137.179 238.334 138.645 238.415 140.104C238.442 140.564 238.452 141.02 238.476 141.476C238.577 143.584 238.668 145.692 238.793 147.797C238.939 150.182 239.087 152.571 239.283 154.952C239.415 156.564 239.601 158.175 239.827 159.78C240.053 161.381 240.354 162.973 240.634 164.564C240.719 165.017 240.793 165.49 240.972 165.905C241.776 167.736 242.091 169.645 242.141 171.638C242.165 172.665 242.466 173.682 242.607 174.709C242.878 176.655 243.185 178.598 243.357 180.554C243.469 181.848 243.381 183.158 243.381 184.469C244.989 185.25 246.584 185.652 248.236 185.834C248.506 185.865 248.81 185.702 249.08 185.588C249.962 185.216 251.317 185.672 251.658 186.473C252.053 187.408 251.658 188.209 250.702 188.547C249.07 189.118 247.526 189.848 246.205 191.023C245.553 191.601 244.753 192.013 244.036 192.49C244.361 193.537 244.709 194.655 245.057 195.777C245.091 195.888 245.104 196.003 245.131 196.118C245.634 198.199 247.242 198.996 249.104 199.206C251.172 199.436 253.205 199.115 254.901 197.729C255.371 197.344 255.844 196.922 256.195 196.429C256.962 195.361 257.54 194.185 257.803 192.878C257.935 192.223 257.999 191.618 257.597 190.99C257.239 190.425 257.655 189.8 258.337 189.827C258.972 189.854 259.543 190.081 259.895 190.682C260.401 191.55 260.655 192.479 260.368 193.463C259.908 195.02 259.334 196.537 258.3 197.831C257.624 198.665 255.53 200.027 254.455 200.273C253.33 200.533 252.205 200.844 251.067 200.963C249.58 201.118 248.057 201.027 246.661 200.493C245.131 199.908 243.844 198.908 243.249 197.287C242.878 196.277 242.614 195.226 242.293 194.196C242.229 193.983 242.124 193.783 242.006 193.503C239.503 194.733 237.053 195.946 234.601 197.138C233.597 197.628 232.584 198.084 231.57 198.54C228.719 199.814 225.868 201.088 223.009 202.351C221.324 203.098 219.641 203.854 217.942 204.567C215.935 205.408 213.972 206.361 211.786 206.733C210.55 206.942 209.351 207.385 208.138 207.733C207.952 207.787 207.773 207.868 207.611 207.969C206.888 208.402 206.172 208.844 205.422 209.304C205.78 210.425 206.094 211.621 206.536 212.763C207.472 215.165 207.8 217.682 208.138 220.209C208.452 222.581 208.844 224.936 209.195 227.3C209.239 227.604 209.263 227.915 209.256 228.226C209.215 230.179 209.158 232.131 209.121 234.084C209.097 235.236 209.192 236.395 209.09 237.54C208.763 241.31 208.388 245.081 207.253 248.713C206.445 251.287 205.445 253.8 204.611 256.368C203.361 260.202 201.053 263.463 199.023 266.878C197.857 268.841 196.682 270.794 195.144 272.49C193.874 273.895 192.594 275.294 191.269 276.645C190.128 277.81 189.08 279.01 188.59 280.621C188.367 281.354 188.026 282.054 187.722 282.767C187.107 284.213 186.905 285.713 186.922 287.29C186.942 288.983 186.766 290.679 186.672 292.371C186.614 293.449 186.543 294.523 186.486 295.601C186.479 295.756 186.462 295.932 186.523 296.06C187.131 297.368 186.928 298.797 187.172 300.162C187.236 300.527 187.209 300.959 187.07 301.3C186.503 302.675 186.327 304.135 186.104 305.581C185.817 307.466 184.898 308.915 183.506 310.223C181.395 312.206 178.925 313.138 176.117 312.888C172.476 312.567 169.155 311.412 166.509 308.638C165.074 307.131 164.006 305.425 163.003 303.652C161.77 301.469 160.563 299.267 159.8 296.865C159.614 296.277 158.776 295.915 159.192 295.121C159.009 295.033 158.705 294.979 158.661 294.844C158.415 294.057 157.797 293.388 157.898 292.49C158.03 292.527 158.158 292.564 158.324 292.608C158.124 291.915 158.125 291.915 157.699 292.27Z" fill="white"/>
</svg>
