<svg width="388" height="420" viewBox="0 0 388 420" fill="none" xmlns="http://www.w3.org/2000/svg">
<path d="M116.411 236.781C115.705 237.173 114.975 237.605 114.225 238.078C113.475 238.551 112.945 239.183 112.627 239.97C112.708 240.365 112.749 240.68 112.749 240.916C112.749 241.548 112.472 241.862 111.921 241.862C111.759 241.862 111.428 241.744 110.915 241.507C110.401 241.271 110.067 241.153 109.911 241.153C107.938 241.153 106.719 241.588 106.246 242.453C109.084 243.636 110.502 245.254 110.502 247.301C110.502 248.247 110.127 249.095 109.377 249.842C108.627 250.592 107.783 250.967 106.837 250.967C105.181 250.967 104.354 250.139 104.354 248.484C104.354 247.301 104.786 246.71 105.654 246.71C106.837 246.71 107.428 247.065 107.428 247.774C107.428 248.247 107.269 248.838 106.955 249.548L107.073 249.666C108.806 249.666 109.675 248.838 109.675 247.183C109.675 246.237 109.259 245.409 108.431 244.7C107.604 243.99 106.678 243.636 105.654 243.636C103.999 243.636 101.752 244.582 98.9146 246.474C95.1308 248.997 92.9247 250.413 92.293 250.73L92.0565 250.376V249.43L115.465 235.95H116.411V236.781ZM86.7389 231.696C86.7389 235.558 87.9991 237.487 90.5227 237.487C92.6477 237.487 93.7119 236.504 93.7119 234.531C93.7119 234.139 93.4754 233.703 93.0058 233.234C92.6072 234.571 91.8977 235.244 90.8774 235.244C89.9315 235.244 89.4585 234.73 89.4585 233.703C89.4585 232.048 90.4045 231.224 92.293 231.224C94.0261 231.224 94.8943 232.443 94.8943 234.886C94.8943 237.649 93.3572 239.024 90.2829 239.024C88.6275 239.024 87.3301 238.159 86.3842 236.423C85.5937 235.004 85.2018 233.389 85.2018 231.578C85.2018 229.136 86.1849 226.571 88.1579 223.892C86.3437 221.055 84.0193 219.007 81.1815 217.744C82.4416 217.034 83.8808 215.794 85.4957 214.021C87.1106 212.247 87.9214 210.767 87.9214 209.588C87.9214 207.46 85.6342 204.859 81.0633 201.784C87.4484 197.842 90.6376 194.298 90.6376 191.142C90.6376 188.936 89.6916 187.832 87.8031 187.832C86.9349 187.832 86.5024 188.149 86.5024 188.781C88.1579 188.859 88.9856 189.487 88.9856 190.669C88.9856 192.088 88.5497 192.798 87.6849 192.798C85.6342 192.798 84.6105 191.656 84.6105 189.369C84.6105 187.399 85.8301 186.416 88.2761 186.416C89.3774 186.416 90.2828 186.909 90.9923 187.892C91.7051 188.879 92.0565 190.001 92.0565 191.261C92.0565 192.288 91.5058 193.825 90.4045 195.872C90.4045 196.899 91.347 198.2 93.2389 199.774L96.195 202.257C91.6241 206.436 89.3369 208.838 89.3369 209.47C89.3369 210.416 90.266 211.892 92.1173 213.903C93.9687 215.913 95.4079 217.153 96.4315 217.626C94.2254 218.416 92.0565 220.365 89.9315 223.477C87.8031 226.595 86.7389 229.332 86.7389 231.696ZM120.431 170.69C118.54 172.582 115.388 175.065 110.975 178.139C109.712 179.007 109.084 180.859 109.084 183.696V226.612C109.084 228.818 109.712 230.237 110.975 230.865C111.367 231.028 112.982 231.342 115.82 231.815L115.587 232.642C114.087 233.193 111.959 234.22 109.202 235.717C100.688 240.288 94.1072 244.267 89.4585 247.656C89.0599 247.97 88.0565 248.821 86.4416 250.196C84.8268 251.575 83.9788 252.267 83.9011 252.267C83.4281 252.267 82.8369 251.558 82.1274 250.139C76.5295 244.308 70.8538 241.389 65.1038 241.389C61.7119 241.389 60.0193 242.73 60.0193 245.409C60.0193 247.301 60.9653 248.443 62.8572 248.838V247.774C62.7761 247.538 62.7389 247.224 62.7389 246.828C62.7389 245.332 63.6849 244.582 65.5768 244.582C66.2829 244.582 66.9518 244.899 67.5869 245.528C68.2153 246.159 68.5295 246.828 68.5295 247.538C68.5295 248.565 68.097 249.45 67.2322 250.196C66.3639 250.946 65.4146 251.321 64.3943 251.321C63.1308 251.321 61.8301 250.73 60.4923 249.548C59.1511 248.365 58.4822 247.183 58.4822 246.001C58.2457 245.764 58.1274 245.409 58.1274 244.936C58.1274 244.308 58.4822 243.44 59.1916 242.335C59.9011 241.234 60.5295 240.524 61.0835 240.207C65.9687 237.213 72.0768 233.548 79.4078 229.213L79.6443 229.686C78.6207 231.419 78.1072 232.565 78.1072 233.115C78.1072 234.453 80.1342 236.325 84.195 238.73C88.2558 241.136 91.07 242.335 92.6477 242.335C96.5092 242.335 98.4416 239.342 98.4416 233.349C98.4416 229.095 98.4011 222.669 98.3234 214.078C98.2457 205.49 98.2051 199.065 98.2051 194.808C98.2051 193.626 97.9281 192.761 97.3774 192.207C97.0633 191.892 96.0362 191.615 94.3031 191.379L93.9484 190.906L107.901 180.031H72.0768C71.9991 180.109 71.4855 180.345 70.5396 180.74L68.766 181.45C67.5869 181.923 66.9923 183.301 66.9923 185.588C66.9923 189.291 69.9079 191.142 75.7423 191.142C77.32 191.142 78.6578 190.71 79.7626 189.842C80.8639 188.977 81.418 187.872 81.418 186.531C81.418 185.744 81.2592 185.193 80.945 184.876C79.9214 186.294 79.0937 187.004 78.4619 187.004C77.2795 187.004 76.6883 186.416 76.6883 185.23C76.6883 183.815 77.3977 183.105 78.8166 183.105C81.1815 183.105 82.3639 184.288 82.3639 186.649C82.3639 188.7 80.9045 190.788 77.9889 192.916C76.2524 194.18 73.6139 196.109 70.0666 198.71C67.1511 200.997 65.6916 203.636 65.6916 206.632C65.6916 209.47 66.597 211.794 68.4112 213.605C70.2254 215.419 72.5497 216.325 75.3876 216.325C79.0126 216.325 80.8268 214.592 80.8268 211.122C80.8268 209.548 80.472 208.129 79.7626 206.869C78.972 205.213 77.8707 204.386 76.4518 204.386C73.6916 204.386 72.3133 205.409 72.3133 207.46L72.9045 209.23H73.0227L73.3774 209.112C73.3774 208.088 74.1646 207.578 75.7423 207.578C77.0024 207.578 77.6342 208.565 77.6342 210.534C77.6342 212.109 76.6883 212.899 74.7964 212.899C73.8504 212.899 72.9822 212.349 72.195 211.24C71.4078 210.139 71.0126 208.997 71.0126 207.815C71.0126 206.396 71.5835 205.254 72.7288 204.386C73.8707 203.517 75.2693 203.085 76.9247 203.085C77.6342 203.085 78.5193 203.517 79.5869 204.386C80.6477 205.254 81.2997 206.041 81.5362 206.751C81.8504 207.855 82.0092 209.392 82.0092 211.359C82.0092 212.778 81.4754 214.099 80.4112 215.321C79.3504 216.544 78.1072 217.311 76.6883 217.626L72.7862 217.98C75.2288 220.977 76.4518 223.065 76.4518 224.247C76.4518 225.98 75.8808 227.497 74.7389 228.798C73.5937 230.099 72.195 230.747 70.5396 230.747C69.3572 230.747 68.293 230.257 67.3504 229.271C66.4045 228.288 65.9315 227.166 65.9315 225.903C65.9315 223.615 67.2322 222.474 69.8301 222.474C70.3808 222.474 70.8943 222.828 71.3673 223.538V225.075C70.8166 225.626 70.2626 225.903 69.7119 225.903C69.3166 225.903 68.7254 225.389 67.9383 224.365C67.4653 224.68 67.2322 225.156 67.2322 225.784C67.2322 228.071 68.3707 229.213 70.6578 229.213C71.8403 229.213 72.8842 228.781 73.793 227.913C74.6984 227.044 75.1511 226.021 75.1511 224.838C75.1511 223.105 73.2389 220.288 69.418 216.386C65.5937 212.484 63.6849 209.034 63.6849 206.041C63.6849 204.936 63.9788 203.636 64.57 202.139C65.1612 200.642 65.7693 199.774 66.4045 199.538C62.0666 197.409 59.9011 194.335 59.9011 190.315C59.9011 188.659 60.7085 186.592 62.3234 184.109C63.9382 181.626 65.5362 179.99 67.1105 179.203C74.9923 175.342 81.3774 171.399 86.266 167.379C87.2862 169.588 88.6275 170.69 90.2829 170.69H120.431Z" fill="white"/>
<path d="M177.418 229.449C177.496 227.398 176.844 225.608 175.466 224.067C174.087 222.534 172.293 221.763 170.087 221.763C168.905 221.763 167.645 222.118 166.303 222.827V237.723L169.141 237.608C170.324 237.53 171.661 237.057 173.161 236.189C174.658 235.321 175.722 234.412 176.354 233.466C176.982 232.523 177.337 231.182 177.418 229.449ZM172.334 187.713C172.334 186.848 171.661 185.784 170.324 184.523C168.982 183.263 167.604 182.354 166.185 181.804L166.303 193.034C170.324 191.459 172.334 189.686 172.334 187.713ZM164.648 237.723V195.99L162.874 196.936V237.723H164.648ZM164.884 193.979V180.621L162.756 179.675V195.398L164.884 193.979ZM185.692 243.99C185.692 245.645 185.104 246.946 183.918 247.892C182.736 248.838 181.398 249.311 179.901 249.311C177.141 249.311 175.763 247.892 175.763 245.054C175.763 244.189 176.077 243.378 176.709 242.631C177.337 241.881 178.047 241.506 178.837 241.506C180.57 241.506 181.435 242.179 181.435 243.517C181.435 243.834 181.239 244.246 180.847 244.76C180.452 245.273 180.057 245.527 179.665 245.527C179.111 245.527 178.364 244.895 177.418 243.635C177.182 243.952 177.064 244.422 177.064 245.054C177.064 247.104 178.087 248.128 180.138 248.128C181.239 248.128 182.226 247.713 183.094 246.885C183.959 246.057 184.391 245.054 184.391 243.871C184.391 242.689 183.939 241.726 183.033 240.976C182.124 240.226 181.158 239.851 180.138 239.851C178.874 239.851 177.851 240.05 177.064 240.442C172.962 242.493 170.915 244.503 170.915 246.473C170.915 246.946 171.033 247.419 171.27 247.892L171.624 248.601C171.78 248.76 171.624 248.838 171.151 248.838C171.07 248.838 170.52 248.621 169.496 248.189C168.472 247.756 167.881 247.537 167.722 247.537C166.854 247.537 164.884 248.679 161.81 250.966C161.496 250.966 161.337 250.767 161.337 250.375C161.337 249.979 163.151 248.523 166.776 246L170.56 243.398C175.526 240.01 180.097 236.702 184.276 233.466C184.746 233.466 185.104 233.746 185.337 234.294L179.665 238.55C183.682 238.868 185.692 240.679 185.692 243.99ZM161.219 202.375V198L155.898 201.311V205.804L161.219 202.375ZM161.219 196.581V179.202L159.8 179.439C159.408 179.361 158.107 180.03 155.898 181.449V199.773L161.219 196.581ZM161.219 204.148C159.878 205.017 158.148 206.118 156.02 207.459C156.02 209.902 156.057 212.067 156.138 213.959C156.293 214.591 156.766 215.378 157.553 216.324C158.185 216.719 159.05 216.797 160.155 216.561V217.27C156.766 219.557 150.54 223.577 141.476 229.327C141.161 229.49 140.648 229.8 139.939 230.273C141.199 231.378 143.918 232.919 148.097 234.885C149.199 235.439 151.07 236.05 153.712 236.719C156.354 237.388 158.185 237.723 159.209 237.723H161.101L161.219 225.074C156.097 228.071 153.536 230.473 153.536 232.284C153.536 233.784 154.205 234.534 155.543 234.534C156.803 234.534 157.594 234.138 157.911 233.351C156.726 233.429 156.138 232.956 156.138 231.929C156.138 230.909 156.611 230.395 157.553 230.395C158.814 230.395 159.445 231.064 159.445 232.405C159.445 234.219 158.341 235.28 156.138 235.594C153.851 235.99 152.591 235.125 152.354 232.996C152.036 229.922 154.993 226.848 161.219 223.773V204.148ZM145.969 206.631C142.422 210.02 140.334 212.148 139.702 213.013C137.888 215.378 136.982 217.429 136.982 219.162C136.982 221.922 138.087 223.3 140.293 223.3C141.161 223.3 141.949 222.868 142.658 222C142.658 221.608 142.58 221.409 142.422 221.409C142.344 221.409 142.165 221.449 141.891 221.527C141.614 221.608 141.398 221.645 141.239 221.645C140.293 221.645 139.82 221.172 139.82 220.226C139.82 219.125 140.452 218.571 141.712 218.571C143.131 218.571 143.841 219.439 143.841 221.172C143.841 221.881 143.466 222.574 142.719 223.24C141.969 223.912 141.121 224.246 140.175 224.246C138.993 224.246 138.006 223.794 137.219 222.885C136.432 221.979 136.036 220.936 136.036 219.753C136.036 218.729 136.391 217.311 137.101 215.496C137.81 213.686 138.165 212.699 138.165 212.54C138.165 211.675 137.378 210.611 135.8 209.351C135.091 208.719 133.986 207.814 132.493 206.631C135.486 204.503 137.141 203.28 137.455 202.966C139.347 201.311 140.293 199.655 140.293 198C140.293 197.135 139.898 196.267 139.111 195.398H138.283L137.928 195.753C138.56 196.385 138.874 196.817 138.874 197.054C138.874 197.763 138.479 198.159 137.692 198.236C137.219 198.236 136.844 198.04 136.57 197.645C136.293 197.25 136.155 196.895 136.155 196.581C136.155 196.189 136.273 195.912 136.509 195.753C137.378 194.888 138.047 194.452 138.52 194.452C139.229 194.452 139.861 194.77 140.411 195.398C140.962 196.03 141.239 196.699 141.239 197.409C141.239 198.196 140.884 199.496 140.175 201.311C140.175 201.942 141.08 203.006 142.895 204.503C144.313 205.686 145.337 206.395 145.969 206.631ZM146.324 219.044V186.767H145.259C135.327 192.05 130.364 199.773 130.364 209.939C130.364 214.196 131.229 218.098 132.966 221.645C136.195 226.848 138.283 229.449 139.229 229.449C139.702 229.449 140.689 228.878 142.185 227.733C143.682 226.591 144.587 225.743 144.905 225.192C146.324 223.064 146.797 221.013 146.324 219.044ZM191.013 174.946C190.935 177.388 189.908 179.398 187.939 180.976C184.314 183.973 176.982 188.699 165.949 195.162V199.419C171.78 195.557 178.915 190.709 187.347 184.878C187.425 184.956 187.506 185.152 187.584 185.466C184.114 187.756 182.381 190.159 182.381 192.679C182.381 193.152 182.422 193.506 182.503 193.743L179.428 193.27C178.401 193.27 176.746 193.942 174.462 195.28C174.303 195.361 173.357 195.912 171.624 196.936H172.57C174.462 196.936 176.354 197.841 178.246 199.655C180.138 201.469 181.04 203.321 180.966 205.213C180.884 207.263 180.195 208.956 178.895 210.294C177.594 211.638 175.918 212.304 173.871 212.304C172.452 212.304 171.151 211.814 169.969 210.827C168.786 209.841 168.195 208.719 168.195 207.459C168.195 203.99 169.969 202.334 173.516 202.493C175.013 202.571 175.763 203.479 175.763 205.213C175.763 206.709 174.972 207.459 173.398 207.459C172.53 207.459 172.02 206.983 171.861 206.04C171.78 205.094 171.979 204.503 172.452 204.267C172.216 204.03 171.939 203.912 171.624 203.912C170.047 203.912 169.259 205.054 169.259 207.341C169.259 209.547 170.834 210.848 173.989 211.24C175.486 211.402 176.844 210.868 178.067 209.645C179.29 208.425 179.861 206.983 179.783 205.331C179.702 203.28 178.895 201.547 177.357 200.128C175.82 198.709 174.067 198 172.097 198C170.597 198 168.587 198.946 166.067 200.838V221.172L182.503 211.24L183.094 212.186C182.695 212.422 181.986 212.976 180.966 213.841L180.847 214.905C180.925 214.905 181.064 214.986 181.259 215.142C181.455 215.3 181.557 215.419 181.557 215.496C182.814 216.128 183.959 217.253 184.982 218.868C186.006 220.483 186.52 222 186.52 223.419C186.52 228.226 182.185 233.111 173.516 238.077C170.678 240.128 167.841 242.179 165.003 244.226C160.905 247.3 158.695 249.547 158.381 250.966C158.303 251.439 158.067 251.99 157.675 252.621C155.939 249.706 152.354 247.537 146.915 246.118C142.422 244.936 139.27 243.794 137.455 242.689C137.06 242.534 135.841 241.665 133.793 240.088C131.743 238.513 130.56 237.723 130.246 237.723C129.455 237.723 128.55 238.473 127.526 239.969C126.658 241.152 126.185 242.02 126.107 242.571V243.99C126.107 246.905 127.604 248.365 130.601 248.365C131.466 248.365 132.273 248.067 133.023 247.476C133.77 246.885 134.148 246.159 134.148 245.29C134.148 244.976 133.949 244.503 133.553 243.871C133.476 243.952 133.158 244.405 132.607 245.229C132.057 246.057 131.584 246.473 131.192 246.473C129.851 246.473 129.182 245.723 129.182 244.226C129.182 242.729 130.047 241.979 131.78 241.979C134.148 241.979 135.327 243.084 135.327 245.29C135.327 246.55 134.834 247.577 133.851 248.365C132.864 249.152 131.78 249.547 130.601 249.547C129.02 249.547 127.682 248.976 126.58 247.834C125.476 246.692 124.925 245.331 124.925 243.753C124.925 240.996 126.344 238.631 129.182 236.662C128.313 235.794 126.935 234.101 125.043 231.577C122.837 227.635 121.732 223.3 121.732 218.571C121.732 216.442 121.928 213.763 122.324 210.534C122.874 206.04 125.79 201.152 131.074 195.871C135.168 191.773 139.111 188.699 142.895 186.648C143.131 186.574 143.999 185.979 145.496 184.878C144.942 183.696 144.077 183.104 142.895 183.104C144.236 183.104 143.249 183.419 139.939 184.05C136.628 184.682 134.621 184.996 133.908 184.996C133.439 184.996 132.391 184.719 130.776 184.169C129.161 183.618 128.236 183.182 127.999 182.868C126.422 181.054 125.634 179.398 125.634 177.902C125.634 175.932 126.243 174.294 127.466 172.996C128.689 171.696 130.165 171.044 131.901 171.044C134.499 171.044 136.313 172.267 137.337 174.709C137.574 175.26 137.692 175.696 137.692 176.01C137.692 176.797 137.357 177.625 136.689 178.493C136.016 179.361 135.286 179.794 134.499 179.794C132.057 179.794 130.837 178.729 130.837 176.601C130.837 175.577 131.78 174.55 133.675 173.527C133.594 172.817 132.884 172.463 131.543 172.463C130.205 172.463 129.121 172.956 128.293 173.939C127.466 174.925 127.053 176.05 127.053 177.311C127.053 179.361 127.881 180.936 129.536 182.04C130.955 183.064 132.726 183.577 134.854 183.577C138.006 183.577 141.712 182 145.969 178.848C149.594 176.169 152.55 173.25 154.837 170.098C154.993 170.02 155.229 169.706 155.543 169.152C155.624 168.996 155.743 168.797 155.898 168.561C155.82 171.321 155.82 174.909 155.898 179.321C159.131 177.665 161.415 176.324 162.756 175.3C163.702 174.591 165.02 173.392 166.719 171.696C168.411 170 169.337 169.152 169.496 169.152C169.574 169.152 169.732 169.27 169.969 169.506C173.594 176.679 177.969 180.267 183.094 180.267C187.111 180.267 189.121 178.452 189.121 174.827C189.121 173.723 188.689 172.78 187.82 171.99C186.952 171.202 186.006 170.807 184.982 170.807C184.432 170.807 183.604 171.202 182.503 171.99C182.814 172.071 183.368 172.189 184.155 172.344C185.415 172.662 186.047 173.527 186.047 174.946C186.047 175.655 185.753 176.287 185.161 176.838C184.57 177.388 183.996 177.665 183.449 177.665C181.158 177.665 180.02 176.561 180.02 174.354C180.02 173.013 180.57 171.912 181.675 171.044C182.776 170.179 183.959 169.743 185.219 169.743C186.797 169.743 188.175 170.277 189.357 171.341C190.54 172.405 191.091 173.608 191.013 174.946Z" fill="white"/>
<path d="M244.57 187.24C244.57 182.436 241.773 180.031 236.175 180.031C235.543 180.031 233.851 180.463 231.094 181.331C231.013 183.301 230.976 184.993 230.976 186.412C230.976 187.757 231.013 188.74 231.094 189.368C231.405 188.977 231.82 188.443 232.334 187.774C232.844 187.105 233.219 186.612 233.455 186.294C234.243 185.507 235.465 185.112 237.124 185.112C238.54 185.112 239.82 185.629 240.962 186.649C242.104 187.676 242.678 188.896 242.678 190.314C242.678 193.311 241.418 194.808 238.895 194.808C238.107 194.808 237.357 194.473 236.648 193.804C235.938 193.135 235.584 192.406 235.584 191.615C235.584 190.514 236.134 189.96 237.239 189.96C238.185 189.96 238.658 190.396 238.658 191.26C238.658 192.051 238.263 192.72 237.476 193.271C238.107 193.429 238.462 193.507 238.54 193.507C240.351 193.507 241.259 192.524 241.259 190.551C241.259 189.368 240.803 188.385 239.901 187.595C238.993 186.808 237.952 186.412 236.766 186.412C235.266 186.412 233.969 187.341 232.868 189.193C231.759 191.044 231.209 192.798 231.209 194.453L231.094 217.034C231.405 216.561 233.533 214.473 237.476 210.767C240.232 208.166 241.614 205.727 241.614 203.439C241.614 200.129 240.118 198.473 237.124 198.473C236.411 198.473 235.702 198.828 234.996 199.537C234.283 200.247 233.928 200.956 233.928 201.666C233.928 203.321 234.641 204.149 236.057 204.149C235.743 203.835 235.584 203.362 235.584 202.73C235.584 201.784 236.134 201.311 237.239 201.311C238.344 201.311 238.895 201.784 238.895 202.73C238.895 204.544 237.952 205.45 236.057 205.45C233.851 205.45 232.746 204.108 232.746 201.429C232.746 200.247 233.28 199.24 234.344 198.412C235.408 197.588 236.648 197.173 238.067 197.173C239.09 197.173 240.155 197.723 241.259 198.828C242.361 199.933 242.915 201.034 242.915 202.139C242.915 205.213 242.205 207.656 240.786 209.47C240.232 210.098 238.736 211.402 236.293 213.368C234.243 214.946 232.945 216.443 232.391 217.862C234.678 217.152 235.901 216.72 236.057 216.561C237.871 216.561 239.506 217.095 240.962 218.156C242.422 219.223 243.151 220.581 243.151 222.237C243.151 227.281 241.141 229.804 237.124 229.804C234.361 229.804 232.986 228.463 232.986 225.784C232.986 223.656 233.851 222.591 235.584 222.591C236.688 222.591 237.239 223.064 237.239 224.01C237.239 225.115 236.648 225.666 235.465 225.666C234.996 225.666 234.597 225.507 234.283 225.193C234.128 225.666 234.05 225.98 234.05 226.139C234.05 227.558 235.114 228.267 237.239 228.267C240.391 228.267 241.969 226.73 241.969 223.656C241.969 222 241.337 220.622 240.08 219.517C238.817 218.416 237.317 217.862 235.584 217.862C232.587 217.862 231.094 219.48 231.094 222.71V239.024C232.746 239.578 233.888 239.852 234.52 239.852C238.54 239.852 241.297 238.669 242.797 236.304C243.979 234.412 244.57 231.379 244.57 227.203V187.24ZM250.837 249.548C249.574 249.548 248.489 249.132 247.584 248.304C246.678 247.477 246.226 246.433 246.226 245.173C246.226 242.808 247.486 241.625 250.009 241.625C251.428 241.625 252.138 242.375 252.138 243.872C252.138 244.267 251.918 244.683 251.486 245.112C251.05 245.548 250.678 245.764 250.361 245.764C249.574 245.764 248.827 245.173 248.118 243.99C247.8 244.308 247.645 244.781 247.645 245.409C247.645 247.379 248.709 248.365 250.837 248.365C252.02 248.365 253.043 247.97 253.911 247.183C254.776 246.396 255.212 245.409 255.212 244.227C255.212 241.862 253.712 240.443 250.719 239.97C248.986 239.656 247.033 240.247 244.864 241.743C242.699 243.243 241.614 244.858 241.614 246.591C241.614 247.46 241.732 248.247 241.969 248.956C241.891 249.193 241.773 249.311 241.614 249.311C240.036 247.97 238.658 247.301 237.476 247.301C236.53 247.301 234.324 248.247 230.857 250.139C230.54 249.902 230.384 249.588 230.384 249.193C230.695 248.879 231.567 248.304 232.986 247.477C234.401 246.649 235.584 246.041 236.53 245.646C238.972 244.385 245.476 240.642 256.04 234.412C256.117 234.493 256.236 234.767 256.391 235.24C255.29 236.189 253.712 237.368 251.661 238.791C254.817 239.26 256.391 240.997 256.391 243.99C256.391 245.646 255.861 246.987 254.797 248.01C253.732 249.034 252.411 249.548 250.837 249.548ZM229.672 181.568C229.276 181.645 228.489 181.882 227.307 182.277V237.368C227.547 237.686 228.334 238.159 229.672 238.791V181.568ZM226.009 236.777V232.406L217.851 228.504L219.033 227.439L225.891 230.983L226.009 182.51C223.563 183.146 221.928 184.031 221.101 185.173C220.273 186.314 219.861 188.186 219.861 190.787C219.861 191.497 219.901 193.389 219.979 196.463V218.216C219.979 220.74 221.161 222 223.526 222V222.946L211.702 229.568C213.83 229.882 216.313 230.906 219.151 232.642L226.009 236.777ZM201.06 217.625C199.955 219.125 199.29 220.071 199.053 220.463C198.58 221.173 198.344 222.118 198.344 223.301C198.344 224.247 198.678 225.135 199.351 225.96C200.016 226.787 200.827 227.203 201.773 227.203C202.56 227.203 203.148 227.007 203.547 226.612C203.547 226.453 203.506 226.298 203.428 226.139C202.719 226.216 202.047 225.923 201.418 225.25C200.786 224.585 200.59 223.933 200.827 223.301C201.536 222.591 202.246 222.237 202.955 222.237C204.766 222.237 205.675 223.26 205.675 225.311C205.675 226.889 204.53 227.912 202.246 228.385C200.746 228.7 199.486 228.189 198.462 226.848C197.435 225.507 196.925 224.051 196.925 222.473C196.925 221.054 197.594 219.635 198.932 218.216C199.09 218.061 199.172 217.862 199.172 217.625C199.172 216.524 197.435 214.669 193.969 212.068C194.128 211.757 195.229 210.767 197.28 209.112C199.009 207.693 199.881 206.396 199.881 205.213C199.881 204.267 197.83 202.139 193.732 198.828C193.969 198.75 194.834 198.041 196.334 196.7C199.955 193.548 201.773 190.669 201.773 188.068C201.773 185.939 200.982 184.879 199.408 184.879C198.857 184.879 198.381 185.075 197.989 185.466C199.09 186.575 199.645 187.281 199.645 187.595C199.645 188.777 199.172 189.368 198.226 189.368C197.516 189.368 196.905 189.075 196.391 188.483C195.878 187.892 195.624 187.321 195.624 186.767C195.624 184.72 196.648 183.696 198.699 183.696C200.036 183.696 201.101 184.166 201.891 185.112C202.678 186.058 203.074 187.162 203.074 188.423C203.074 188.818 202.638 190.314 201.773 192.916C201.695 193.625 202.52 194.848 204.256 196.581C205.753 198.078 206.699 198.946 207.09 199.183C203.229 201.862 201.3 203.872 201.3 205.213C201.3 206.081 202.107 207.477 203.722 209.409C205.337 211.341 206.462 212.304 207.09 212.304C204.884 213.49 202.874 215.26 201.06 217.625ZM259.702 229.804C251.033 234.375 238.185 241.389 221.161 250.848L220.688 249.902C220.688 249.825 220.729 249.666 220.807 249.429V248.956C220.807 246.987 218.087 244.622 212.651 241.862C207.523 239.26 203.783 237.96 201.418 237.96C199.685 237.96 198.128 238.473 196.746 239.497C195.368 240.524 194.678 241.821 194.678 243.399C194.678 245.923 195.938 247.183 198.462 247.183C199.172 247.183 199.8 247.064 200.354 246.828C200.118 246.591 199.661 246.257 198.996 245.825C198.324 245.389 197.989 244.622 197.989 243.517C197.989 241.548 199.009 240.561 201.06 240.561C202.006 240.561 202.874 240.956 203.665 241.743C204.449 242.534 204.847 243.362 204.847 244.227C204.847 245.568 204.236 246.71 203.013 247.656C201.79 248.602 200.391 249.075 198.817 249.075C197.003 249.075 195.486 248.345 194.263 246.885C193.043 245.429 192.432 243.676 192.432 241.625C192.432 237.686 193.888 234.534 196.807 232.169C199.567 230.041 202.955 228.977 206.972 228.977C207.996 228.977 208.786 229.017 209.337 229.095V196.227C209.337 194.257 207.959 193.271 205.202 193.271L205.675 192.206C209.773 189.923 214.303 187.24 219.27 184.166C218.165 184.166 216.55 184.247 214.422 184.406C212.293 184.561 210.678 184.639 209.574 184.639C206.499 184.639 203.743 184.247 201.3 183.456C199.881 182.987 197.634 181.527 194.56 179.085C194.324 179.085 193.418 179.676 191.84 180.858C191.763 180.544 191.567 179.99 191.249 179.203C197.239 174.868 201.574 171.558 204.256 169.271C204.411 169.271 204.729 169.686 205.202 170.514C205.675 171.341 205.949 171.794 206.026 171.872C207.131 172.977 208.905 173.527 211.347 173.527C214.422 173.527 218.915 172.899 224.827 171.635C230.739 170.375 235.229 169.743 238.303 169.743C242.955 169.743 246.935 171.203 250.246 174.118C253.557 177.034 255.212 180.781 255.212 185.348V224.602C255.212 225.943 255.685 227.044 256.628 227.912C257.104 228.149 258.128 228.781 259.702 229.804Z" fill="white"/>
<path d="M314.205 187.24C314.205 182.436 311.405 180.031 305.81 180.031C305.178 180.031 303.486 180.463 300.729 181.331C300.648 183.301 300.607 184.993 300.607 186.412C300.607 187.757 300.648 188.74 300.729 189.368C301.04 188.977 301.455 188.443 301.969 187.774C302.479 187.105 302.854 186.612 303.091 186.294C303.878 185.507 305.101 185.112 306.756 185.112C308.175 185.112 309.455 185.629 310.597 186.649C311.739 187.676 312.314 188.896 312.314 190.314C312.314 193.311 311.05 194.808 308.53 194.808C307.739 194.808 306.993 194.473 306.283 193.804C305.574 193.135 305.219 192.406 305.219 191.615C305.219 190.514 305.77 189.96 306.874 189.96C307.82 189.96 308.293 190.396 308.293 191.26C308.293 192.051 307.898 192.72 307.111 193.271C307.739 193.429 308.097 193.507 308.175 193.507C309.986 193.507 310.895 192.524 310.895 190.551C310.895 189.368 310.439 188.385 309.537 187.595C308.628 186.808 307.584 186.412 306.401 186.412C304.901 186.412 303.604 187.341 302.499 189.193C301.395 191.044 300.844 192.798 300.844 194.453L300.729 217.034C301.04 216.561 303.168 214.473 307.111 210.767C309.868 208.166 311.249 205.727 311.249 203.439C311.249 200.129 309.753 198.473 306.756 198.473C306.047 198.473 305.337 198.828 304.628 199.537C303.918 200.247 303.564 200.956 303.564 201.666C303.564 203.321 304.273 204.149 305.692 204.149C305.378 203.835 305.219 203.362 305.219 202.73C305.219 201.784 305.77 201.311 306.874 201.311C307.979 201.311 308.53 201.784 308.53 202.73C308.53 204.544 307.584 205.45 305.692 205.45C303.486 205.45 302.381 204.108 302.381 201.429C302.381 200.247 302.915 199.24 303.979 198.412C305.043 197.588 306.283 197.173 307.702 197.173C308.726 197.173 309.79 197.723 310.895 198.828C311.996 199.933 312.55 201.034 312.55 202.139C312.55 205.213 311.841 207.656 310.422 209.47C309.868 210.098 308.371 211.402 305.928 213.368C303.878 214.946 302.577 216.443 302.026 217.862C304.314 217.152 305.533 216.72 305.692 216.561C307.506 216.561 309.141 217.095 310.597 218.156C312.057 219.223 312.787 220.581 312.787 222.237C312.787 227.281 310.776 229.804 306.756 229.804C303.996 229.804 302.618 228.463 302.618 225.784C302.618 223.656 303.486 222.591 305.219 222.591C306.324 222.591 306.874 223.064 306.874 224.01C306.874 225.115 306.283 225.666 305.101 225.666C304.628 225.666 304.232 225.507 303.918 225.193C303.76 225.666 303.682 225.98 303.682 226.139C303.682 227.558 304.746 228.267 306.874 228.267C310.026 228.267 311.604 226.73 311.604 223.656C311.604 222 310.972 220.622 309.712 219.517C308.452 218.416 306.952 217.862 305.219 217.862C302.222 217.862 300.729 219.48 300.729 222.71V239.024C302.381 239.578 303.523 239.852 304.155 239.852C308.175 239.852 310.932 238.669 312.432 236.304C313.614 234.412 314.205 231.379 314.205 227.203V187.24ZM320.469 249.548C319.209 249.548 318.124 249.132 317.219 248.304C316.314 247.477 315.861 246.433 315.861 245.173C315.861 242.808 317.118 241.625 319.641 241.625C321.064 241.625 321.77 242.375 321.77 243.872C321.77 244.267 321.553 244.683 321.121 245.112C320.685 245.548 320.314 245.764 319.996 245.764C319.209 245.764 318.462 245.173 317.753 243.99C317.435 244.308 317.28 244.781 317.28 245.409C317.28 247.379 318.344 248.365 320.469 248.365C321.651 248.365 322.675 247.97 323.543 247.183C324.412 246.396 324.847 245.409 324.847 244.227C324.847 241.862 323.347 240.443 320.351 239.97C318.618 239.656 316.668 240.247 314.499 241.743C312.334 243.243 311.249 244.858 311.249 246.591C311.249 247.46 311.368 248.247 311.604 248.956C311.523 249.193 311.405 249.311 311.249 249.311C309.672 247.97 308.293 247.301 307.111 247.301C306.165 247.301 303.955 248.247 300.489 250.139C300.175 249.902 300.016 249.588 300.016 249.193C300.33 248.879 301.202 248.304 302.618 247.477C304.037 246.649 305.219 246.041 306.165 245.646C308.607 244.385 315.111 240.642 325.672 234.412C325.749 234.493 325.868 234.767 326.026 235.24C324.925 236.189 323.347 237.368 321.297 238.791C324.452 239.26 326.026 240.997 326.026 243.99C326.026 245.646 325.496 246.987 324.432 248.01C323.368 249.034 322.047 249.548 320.469 249.548ZM299.307 181.568C298.912 181.645 298.124 181.882 296.945 182.277V237.368C297.178 237.686 297.966 238.159 299.307 238.791V181.568ZM295.641 236.777V232.406L287.486 228.504L288.668 227.439L295.523 230.983L295.641 182.51C293.199 183.146 291.564 184.031 290.736 185.173C289.908 186.314 289.496 188.186 289.496 190.787C289.496 191.497 289.533 193.389 289.614 196.463V218.216C289.614 220.74 290.797 222 293.162 222V222.946L281.337 229.568C283.466 229.882 285.949 230.906 288.787 232.642L295.641 236.777ZM270.695 217.625C269.594 219.125 268.925 220.071 268.685 220.463C268.212 221.173 267.979 222.118 267.979 223.301C267.979 224.247 268.314 225.135 268.982 225.96C269.651 226.787 270.462 227.203 271.408 227.203C272.192 227.203 272.783 227.007 273.178 226.612C273.178 226.453 273.138 226.298 273.06 226.139C272.351 226.216 271.682 225.923 271.05 225.25C270.418 224.585 270.222 223.933 270.462 223.301C271.168 222.591 271.881 222.237 272.587 222.237C274.401 222.237 275.307 223.26 275.307 225.311C275.307 226.889 274.165 227.912 271.881 228.385C270.381 228.7 269.118 228.189 268.097 226.848C267.07 225.507 266.557 224.051 266.557 222.473C266.557 221.054 267.229 219.635 268.567 218.216C268.726 218.061 268.807 217.862 268.807 217.625C268.807 216.524 267.07 214.669 263.604 212.068C263.76 211.757 264.864 210.767 266.915 209.112C268.645 207.693 269.516 206.396 269.516 205.213C269.516 204.267 267.466 202.139 263.368 198.828C263.604 198.75 264.469 198.041 265.969 196.7C269.594 193.548 271.408 190.669 271.408 188.068C271.408 185.939 270.618 184.879 269.04 184.879C268.489 184.879 268.016 185.075 267.624 185.466C268.726 186.575 269.28 187.281 269.28 187.595C269.28 188.777 268.807 189.368 267.861 189.368C267.151 189.368 266.54 189.075 266.026 188.483C265.513 187.892 265.26 187.321 265.26 186.767C265.26 184.72 266.283 183.696 268.334 183.696C269.672 183.696 270.736 184.166 271.526 185.112C272.314 186.058 272.709 187.162 272.709 188.423C272.709 188.818 272.273 190.314 271.408 192.916C271.327 193.625 272.155 194.848 273.891 196.581C275.385 198.078 276.33 198.946 276.726 199.183C272.864 201.862 270.935 203.872 270.935 205.213C270.935 206.081 271.739 207.477 273.357 209.409C274.972 211.341 276.097 212.304 276.726 212.304C274.52 213.49 272.51 215.26 270.695 217.625ZM329.337 229.804C320.668 234.375 307.82 241.389 290.797 250.848L290.324 249.902C290.324 249.825 290.361 249.666 290.442 249.429V248.956C290.442 246.987 287.722 244.622 282.283 241.862C277.158 239.26 273.418 237.96 271.05 237.96C269.317 237.96 267.76 238.473 266.381 239.497C265.003 240.524 264.314 241.821 264.314 243.399C264.314 245.923 265.574 247.183 268.097 247.183C268.807 247.183 269.435 247.064 269.989 246.828C269.753 246.591 269.297 246.257 268.628 245.825C267.959 245.389 267.624 244.622 267.624 243.517C267.624 241.548 268.645 240.561 270.695 240.561C271.641 240.561 272.51 240.956 273.297 241.743C274.084 242.534 274.479 243.362 274.479 244.227C274.479 245.568 273.868 246.71 272.648 247.656C271.425 248.602 270.026 249.075 268.452 249.075C266.635 249.075 265.121 248.345 263.901 246.885C262.675 245.429 262.067 243.676 262.067 241.625C262.067 237.686 263.523 234.534 266.442 232.169C269.199 230.041 272.587 228.977 276.607 228.977C277.631 228.977 278.422 229.017 278.972 229.095V196.227C278.972 194.257 277.594 193.271 274.834 193.271L275.307 192.206C279.405 189.923 283.939 187.24 288.905 184.166C287.8 184.166 286.185 184.247 284.057 184.406C281.928 184.561 280.314 184.639 279.209 184.639C276.135 184.639 273.378 184.247 270.935 183.456C269.516 182.987 267.27 181.527 264.195 179.085C263.959 179.085 263.05 179.676 261.476 180.858C261.398 180.544 261.202 179.99 260.885 179.203C266.874 174.868 271.209 171.558 273.891 169.271C274.047 169.271 274.364 169.686 274.834 170.514C275.307 171.341 275.584 171.794 275.662 171.872C276.766 172.977 278.54 173.527 280.982 173.527C284.057 173.527 288.55 172.899 294.462 171.635C300.371 170.375 304.864 169.743 307.939 169.743C312.587 169.743 316.567 171.203 319.881 174.118C323.192 177.034 324.847 180.781 324.847 185.348V224.602C324.847 225.943 325.317 227.044 326.263 227.912C326.736 228.149 327.76 228.781 329.337 229.804Z" fill="white"/>
</svg>
