<svg width="388" height="420" viewBox="0 0 388 420" fill="none" xmlns="http://www.w3.org/2000/svg">
<path fill-rule="evenodd" clip-rule="evenodd" d="M139.03 148.686C141.389 153.405 147.128 155.318 151.845 152.959L168.787 144.493C173.507 142.138 175.419 136.399 173.061 131.679L155.041 95.6182C152.683 90.8986 146.946 88.9831 142.226 91.3412L125.284 99.8074C120.568 102.166 118.652 107.905 121.01 112.625L139.03 148.686Z" fill="white"/>
<path fill-rule="evenodd" clip-rule="evenodd" d="M137.027 102.118L203.331 151.875L137.007 185.017L137.027 102.118Z" fill="white"/>
<path fill-rule="evenodd" clip-rule="evenodd" d="M165.348 158.798C170.665 156.142 177.125 158.298 179.78 163.615C182.439 168.93 180.284 175.389 174.966 178.048C169.652 180.703 163.189 178.548 160.534 173.234C157.878 167.916 160.034 161.457 165.348 158.798Z" fill="white"/>
<path d="M147.601 319.358C147.361 318.885 147.213 318.355 147.169 317.794L138.297 194.632C138.132 192.348 139.848 190.358 142.135 190.193C144.419 190.027 146.405 191.743 146.574 194.031L155.446 317.189C155.611 319.476 153.895 321.463 151.608 321.628C149.888 321.753 148.334 320.811 147.601 319.358Z" fill="white"/>
<path d="M204.24 163.466C203.53 162.064 203.655 160.314 204.703 159.006C206.132 157.216 208.743 156.925 210.534 158.354L265.905 202.503C267.696 203.932 267.99 206.544 266.557 208.334C265.128 210.121 262.517 210.415 260.726 208.986L205.355 164.837C204.872 164.452 204.5 163.983 204.24 163.466Z" fill="white"/>
<path d="M226.679 241.145C211.686 241.145 199.486 253.341 199.486 268.334C199.486 283.327 211.686 295.527 226.679 295.527C241.672 295.527 253.871 283.327 253.871 268.334C253.871 253.341 241.672 241.145 226.679 241.145ZM226.679 309.121C204.189 309.121 185.892 290.824 185.892 268.334C185.892 245.844 204.189 227.547 226.679 227.547C249.169 227.547 267.466 245.844 267.466 268.334C267.466 290.824 249.169 309.121 226.679 309.121Z" fill="white"/>
</svg>
