<svg width="388" height="420" viewBox="0 0 388 420" fill="none" xmlns="http://www.w3.org/2000/svg">
<path d="M233.013 225.733C244.223 223.763 253.148 223.554 258.337 223.554C276.395 223.554 285.006 227.084 283.452 242.233C282.726 249.189 280.131 254.794 271 262.577L251.8 279.077C255.327 277.831 258.439 277.52 261.76 277.52H280.648L278.158 296.408H222.949L224.608 284.783C225.128 281.152 225.75 278.557 228.24 275.861L245.365 261.226C256.469 251.057 260.101 248.462 260.932 244.827C261.452 242.652 260.101 242.131 256.263 242.131C248.06 242.131 242.665 242.131 232.601 242.337L233.013 225.733Z" fill="white"/>
<path d="M217.851 232.213C217.851 245.832 197.466 250.761 186.939 250.761C176.408 250.761 156.027 245.832 156.027 232.213C156.027 218.592 176.408 213.666 186.939 213.666C193.314 213.666 199.689 214.825 205.486 217.433V165.558L131.297 188.453V256.943C131.297 270.565 110.912 275.49 100.385 275.49C89.8544 275.49 69.4727 270.565 69.4727 256.943C69.4727 243.321 89.8544 238.396 100.385 238.396C106.76 238.396 113.135 239.554 118.932 242.163V148.75C118.932 144.693 121.635 141.119 125.5 139.862L205.871 115.132C206.74 114.842 207.611 114.747 208.577 114.747C213.696 114.747 217.851 118.899 217.851 124.021V232.213Z" fill="white"/>
</svg>
