<svg width="388" height="420" viewBox="0 0 388 420" fill="none" xmlns="http://www.w3.org/2000/svg">
<path d="M193.733 128.348C148.71 128.348 112.081 164.977 112.081 210C112.081 255.024 148.71 291.652 193.733 291.652C238.757 291.652 275.385 255.024 275.385 210C275.385 164.977 238.757 128.348 193.733 128.348ZM193.733 332.48C126.196 332.48 71.2534 277.534 71.2534 210C71.2534 142.466 126.196 87.5205 193.733 87.5205C261.27 87.5205 316.213 142.466 316.213 210C316.213 277.534 261.27 332.48 193.733 332.48Z" fill="white"/>
<path d="M264.966 191.774C263.112 184.493 260.166 177.652 256.321 171.426C250.105 161.365 241.537 152.916 231.379 146.848C234.875 152.429 237.166 158.835 237.882 165.703C238.041 167.227 238.122 168.774 238.122 170.341C238.122 171.727 238.054 173.098 237.929 174.453C236.48 190.152 226.821 203.51 213.291 210.179C208.858 212.362 204.01 213.828 198.899 214.422C198.912 214.524 198.923 214.622 198.936 214.723C201.051 230.436 213.426 242.939 229.085 245.237C230.781 245.483 232.517 245.618 234.284 245.618C235.5 245.618 236.703 245.554 237.889 245.436C249.443 244.27 259.382 237.564 265.017 228.024C266.47 222.257 267.247 216.22 267.247 210C267.247 203.71 266.456 197.602 264.966 191.774Z" fill="white"/>
<path d="M154.135 165.558C155.561 165.558 156.973 165.629 158.365 165.76C174.203 167.264 187.639 177.125 194.21 190.872C196.392 195.443 197.818 200.443 198.318 205.713C198.504 205.689 198.689 205.666 198.875 205.642C214.72 203.345 227.216 190.602 229.145 174.642C229.314 173.23 229.412 171.798 229.412 170.342C229.412 168.821 229.308 167.328 229.122 165.858C227.571 153.541 219.72 143.159 208.899 138.058C204.004 137.031 198.933 136.487 193.733 136.487C188.541 136.487 183.473 137.027 178.581 138.054C170.524 139.744 162.953 142.75 156.102 146.842C145.635 153.092 136.852 161.869 130.598 172.331C136.21 168.804 142.662 166.497 149.585 165.791C151.081 165.635 152.598 165.558 154.135 165.558Z" fill="white"/>
<path d="M149.351 250.017C149.351 248.429 149.439 246.865 149.601 245.321C151.233 229.872 160.824 216.764 174.183 210.179C178.902 207.852 184.091 206.341 189.568 205.828C189.666 205.818 189.767 205.811 189.865 205.801C189.764 205.791 189.659 205.774 189.558 205.764C187.642 189.426 174.652 176.436 158.314 174.52C156.943 174.358 155.551 174.267 154.135 174.267C152.581 174.267 151.058 174.379 149.554 174.571C137.199 176.162 126.808 184.095 121.757 194.993C120.75 199.838 120.22 204.858 120.22 210C120.22 215.064 120.733 220.01 121.706 224.787C123.368 232.926 126.379 240.571 130.487 247.487C136.683 257.912 145.375 266.679 155.75 272.953C152.358 267.352 150.169 260.943 149.541 254.091C149.419 252.747 149.351 251.389 149.351 250.017Z" fill="white"/>
<path d="M234.284 254.328C232.557 254.328 230.855 254.227 229.179 254.031C213.723 252.254 200.655 242.507 194.209 229.014C192.081 224.561 190.672 219.696 190.138 214.578C190.138 214.561 190.135 214.541 190.131 214.521C190.044 214.531 189.956 214.544 189.865 214.554C189.746 214.544 189.628 214.534 189.506 214.521C189.503 214.547 189.5 214.575 189.496 214.602C173.348 216.524 160.483 229.267 158.375 245.358C158.175 246.882 158.061 248.436 158.061 250.017C158.061 251.409 158.148 252.781 158.304 254.129C159.689 266.125 167.044 276.321 177.317 281.673C182.594 282.875 188.091 283.514 193.733 283.514C199.381 283.514 204.881 282.875 210.162 281.669C217.885 279.906 225.145 276.929 231.726 272.946C241.794 266.855 250.28 258.419 256.432 248.392C250.902 251.591 244.621 253.629 237.925 254.176C236.723 254.274 235.51 254.328 234.284 254.328Z" fill="white"/>
</svg>
