<svg width="388" height="420" viewBox="0 0 388 420" fill="none" xmlns="http://www.w3.org/2000/svg">
<path d="M193.477 111.827C136.856 111.925 91.4332 157.574 91.4873 214.331C91.538 270.891 137.322 316.442 193.991 316.324C250.616 316.206 296.112 270.479 295.984 213.817C295.856 157.175 250.176 111.729 193.477 111.827ZM300.849 213.895C300.94 272.942 252.933 321.111 193.913 321.189C134.849 321.266 86.7136 273.294 86.619 214.253C86.5244 155.212 134.551 107.023 193.555 106.959C252.636 106.898 300.758 154.854 300.849 213.895Z" fill="white"/>
<path d="M97.2342 213.291H174.977C173.092 199.568 177.896 190.997 188.481 189.122C190.116 188.831 192.035 190.135 193.822 190.703C192.406 191.662 191.109 193.091 189.552 193.493C183.937 194.949 179.819 198.953 178.967 204.314C177.991 210.46 180.325 213.23 186.508 213.233C218.859 213.237 251.211 213.233 283.562 213.233H290.17C289.055 246.52 275.829 272.916 249.106 292.02C217.673 314.497 175.312 315.733 143.011 295.112C113.461 276.243 98.6903 248.821 97.2342 213.291Z" fill="white"/>
<path d="M224.339 155.777C224.342 147.068 231.028 139.338 239.592 138.527C240.998 138.395 242.531 139.652 244.008 140.267C242.788 141.216 241.697 142.686 240.325 143.034C233.403 144.781 229.2 149.247 229.052 155.473C228.9 161.912 233.004 166.5 240.278 168.466C241.68 168.845 242.788 170.301 244.035 171.257C242.376 171.858 240.636 173.135 239.079 172.943C230.758 171.912 224.336 164.23 224.339 155.777Z" fill="white"/>
<path d="M162.683 155.889C162.636 164.52 155.72 172.416 147.355 173.024C145.994 173.122 144.528 171.791 143.112 171.122C144.197 170.23 145.153 168.875 146.389 168.527C153.805 166.443 158.004 162.024 158.068 155.865C158.132 149.52 154.018 145.25 146.068 142.983C144.913 142.656 144.109 141.105 143.143 140.118C144.453 139.537 145.805 138.382 147.072 138.463C155.663 139.024 162.734 147.051 162.683 155.889Z" fill="white"/>
<path d="M124.619 172.24C124.683 163.567 131.737 155.577 140.021 155.162C141.413 155.091 142.879 156.402 144.312 157.077C143.187 157.932 142.183 159.223 140.92 159.567C133.467 161.608 129.342 165.99 129.285 172.304C129.224 178.75 133.332 183.044 141.234 185.223C142.403 185.544 143.244 187.054 144.234 188.013C142.896 188.581 141.541 189.669 140.22 189.628C131.778 189.358 124.555 181.182 124.619 172.24Z" fill="white"/>
<path d="M262.433 172.615C262.332 181.27 255.305 189.162 247.014 189.588C245.639 189.659 244.193 188.371 242.781 187.713C243.896 186.848 244.893 185.51 246.146 185.189C253.379 183.334 257.72 178.746 257.784 172.507C257.852 166.365 253.474 161.588 246.349 159.588C245.018 159.213 244.004 157.699 242.845 156.713C244.372 156.179 245.96 155.071 247.426 155.213C255.795 156.017 262.538 163.996 262.433 172.615Z" fill="white"/>
<path d="M212.21 189.227C212.308 198.199 205.193 206.395 196.774 206.656C195.423 206.7 194.028 205.338 192.653 204.625C193.808 203.808 194.859 202.564 196.143 202.243C203.295 200.446 207.616 195.743 207.592 189.429C207.572 183.135 203.335 178.574 196.062 176.662C194.795 176.328 193.774 175.061 192.639 174.227C194.038 173.534 195.464 172.199 196.832 172.254C205.065 172.595 212.116 180.534 212.21 189.227Z" fill="white"/>
</svg>
