<svg width="388" height="420" viewBox="0 0 388 420" fill="none" xmlns="http://www.w3.org/2000/svg">
<path fill-rule="evenodd" clip-rule="evenodd" d="M194.044 279.987C195.121 279.645 196.29 279.473 197.256 278.936C199.929 277.446 202.52 275.814 205.131 274.226C212.618 269.672 220.104 265.125 227.574 260.551C235.966 255.416 244.331 250.237 252.726 245.098C260.986 240.037 269.273 235.014 277.54 229.96C286.088 224.733 294.611 219.466 303.179 214.267C307.05 211.919 306.675 206.737 303.375 204.77C299.121 202.24 294.885 199.683 290.638 197.135C279.449 190.422 268.256 183.713 257.067 177C245.648 170.145 234.226 163.287 222.807 156.433C214.395 151.385 205.993 146.324 197.567 141.301C195.03 139.787 192.311 139.595 189.763 141.112C183.138 145.058 176.594 149.135 170.02 153.159C165.284 156.054 160.547 158.949 155.817 161.848C151.287 164.618 146.76 167.395 142.236 170.169C137.196 173.26 132.159 176.348 127.121 179.439C121.909 182.645 116.699 185.855 111.486 189.058C106.655 192.027 101.817 194.987 96.9862 197.956C92.5909 200.656 88.1619 203.308 83.8173 206.085C80.672 208.091 80.7768 213.02 83.9558 214.987C87.4997 217.179 91.0943 219.297 94.6686 221.443C100.534 224.963 106.405 228.473 112.267 231.997C118.642 235.828 125.01 239.676 131.385 243.51C137.25 247.031 143.118 250.541 148.986 254.061C155.777 258.135 162.567 262.21 169.351 266.294C175.753 270.142 182.152 273.997 188.544 277.862C190.229 278.879 191.939 279.797 194.044 279.987ZM308.756 209.895C308.844 213.372 306.723 215.818 303.52 217.733C296.513 221.926 289.581 226.247 282.615 230.507C275.723 234.723 268.821 238.916 261.936 243.135C254.331 247.794 246.746 252.483 239.138 257.139C230.865 262.203 222.577 267.24 214.297 272.291C209.324 275.324 204.388 278.419 199.368 281.372C196.246 283.206 192.834 283.483 189.584 281.872C186.307 280.25 183.192 278.291 180.05 276.406C169.719 270.216 159.405 264 149.088 257.791C140.905 252.865 132.726 247.936 124.537 243.017C115.371 237.514 106.192 232.024 97.0268 226.517C92.1889 223.608 87.3477 220.699 82.5403 217.74C78.7632 215.412 78.0099 210.672 79.27 207.216C80.2024 204.645 82.27 203.284 84.4423 201.96C91.0335 197.943 97.6045 193.899 104.186 189.862C110.966 185.699 117.746 181.537 124.527 177.375C129.925 174.058 135.324 170.743 140.726 167.433C146.844 163.686 152.973 159.946 159.091 156.199C164.8 152.703 170.506 149.199 176.216 145.699C180.003 143.375 183.75 140.98 187.591 138.747C191.709 136.352 195.827 136.588 199.898 139.041C208.51 144.237 217.152 149.385 225.777 154.558C238.094 161.939 250.405 169.324 262.713 176.713C273.584 183.237 284.446 189.767 295.311 196.297C298.425 198.172 301.527 200.068 304.642 201.943C307.473 203.645 308.784 206.176 308.756 209.895Z" fill="white"/>
<path fill-rule="evenodd" clip-rule="evenodd" d="M84.0742 210.456C88.706 207.628 93.206 204.881 97.7026 202.135C103.588 198.54 109.48 194.952 115.351 191.334C115.922 190.983 116.317 191 116.882 191.338C138.551 204.338 160.233 217.321 181.912 230.304C185.659 232.547 189.415 234.777 193.145 237.05C193.713 237.395 194.098 237.388 194.662 237.044C219.912 221.577 245.172 206.131 270.419 190.662C271.047 190.277 271.48 190.283 272.105 190.658C282.226 196.733 292.365 202.783 302.5 208.841C302.78 209.01 303.057 209.185 303.432 209.418C303.135 209.628 302.915 209.8 302.676 209.945C274.78 227.03 246.882 244.111 218.986 261.192C210.895 266.145 202.797 271.091 194.719 276.067C194.155 276.412 193.777 276.432 193.199 276.084C157.064 254.351 120.919 232.638 84.7735 210.918C84.5742 210.797 84.385 210.662 84.0742 210.456Z" fill="white"/>
<path fill-rule="evenodd" clip-rule="evenodd" d="M221.831 186.821C222.061 171.314 208.784 159.419 195.122 159.02C179.51 158.564 166.537 171.696 166.463 186.483C166.385 201.872 179.139 214.122 193.504 214.456C208.791 214.811 221.916 202.26 221.831 186.821ZM121.75 187.379C122.031 187.183 122.237 187.02 122.46 186.882C145.882 172.534 169.308 158.193 192.727 143.831C193.257 143.507 193.625 143.487 194.173 143.814C217.72 157.956 241.277 172.081 264.835 186.21C265.064 186.345 265.287 186.497 265.608 186.703C263.368 188.085 261.203 189.426 259.034 190.757C237.656 203.889 216.274 217.017 194.909 230.169C194.156 230.635 193.635 230.693 192.845 230.213C169.399 216.075 145.936 201.97 122.477 187.855C122.254 187.72 122.041 187.568 121.75 187.379Z" fill="white"/>
<path fill-rule="evenodd" clip-rule="evenodd" d="M194.416 164.99C182.541 167.993 175.267 175.341 172.402 186.997C169.7 175.497 179.308 162.507 194.416 164.99Z" fill="white"/>
</svg>
