<svg width="388" height="420" viewBox="0 0 388 420" fill="none" xmlns="http://www.w3.org/2000/svg">
<path d="M195.301 234.011C195.243 234.058 195.186 234.105 195.128 234.152C195.179 234.21 195.223 234.308 195.28 234.311C195.331 234.315 195.392 234.223 195.453 234.176C195.402 234.122 195.351 234.065 195.301 234.011ZM190.983 226.467L191.125 226.558L191.142 226.416L190.983 226.467ZM193.919 223.534C193.855 223.379 193.79 223.223 193.726 223.071C193.578 223.149 193.355 223.193 193.301 223.315C193.253 223.423 193.395 223.612 193.449 223.764C193.605 223.686 193.763 223.612 193.919 223.534ZM192.949 232.156C193.128 231.896 193.388 231.673 193.348 231.544C193.277 231.332 193.017 231.183 192.838 231.007C192.669 231.21 192.426 231.392 192.365 231.619C192.338 231.72 192.682 231.919 192.949 232.156ZM198.446 231.629C198.216 231.811 197.986 231.99 197.76 232.173C198.686 233.639 198.899 235.673 201.017 236.193C201.236 236.017 201.456 235.842 201.676 235.666C200.601 234.321 199.524 232.977 198.446 231.629ZM193.284 241.193C193.483 240.99 193.679 240.791 193.878 240.588C193.415 239.679 192.953 238.767 192.321 237.521C191.361 238.102 190.52 238.612 189.439 239.271C191.051 240.075 192.169 240.632 193.284 241.193ZM193.817 229.332C195.716 228.919 197.811 229.048 198.784 228.065C199.51 227.328 198.794 225.163 198.736 223.913C196.76 224.375 195.317 224.713 193.817 225.061L193.817 229.332ZM205.834 242.875C206.165 243.044 206.5 243.217 206.834 243.389C207.111 243.521 207.388 243.656 207.669 243.788C207.699 243.646 207.73 243.504 207.76 243.362C207.436 243.379 207.108 243.396 206.78 243.413C206.47 243.213 206.159 243.011 205.848 242.811C205.899 242.804 205.946 242.798 205.997 242.791C205.942 242.821 205.885 242.848 205.834 242.875ZM204.287 231.703C204.777 232.821 205.162 233.696 205.564 234.622C204.665 234.686 203.912 234.74 203.034 234.805C203.503 237.815 205.699 236.261 206.946 236.889C207.429 236.034 207.858 235.281 208.388 234.342C210.017 237.409 209.686 244.024 207.432 245.588C205.973 246.598 203.588 246.578 201.659 246.44C200.926 246.386 200.03 244.788 199.709 243.74C199.226 242.169 199.23 240.453 198.949 238.815C198.378 235.473 197.747 235.024 193.807 235.284C193.74 236.443 193.669 237.656 193.588 239.038C194.669 239.261 195.581 239.45 196.571 239.656V246.521H184.179V239.406C185.23 239.332 186.061 239.274 187.334 239.183C186.99 240.865 186.703 242.277 186.284 244.325C189.402 240.311 186.318 236.595 187.03 233.119C187.929 232.69 188.774 232.288 189.696 231.848C188.622 230.007 187.611 228.277 186.601 226.544C186.817 226.402 187.034 226.261 187.25 226.115C187.679 226.389 188.105 226.663 188.936 227.193C188.571 224.977 188.412 223.071 187.872 221.281C187.703 220.723 186.51 220.47 185.784 220.078C185.611 220.315 185.439 220.554 185.267 220.794C185.817 221.828 186.368 222.865 187.084 224.217C185.909 224.308 185.084 224.372 184.047 224.457V217.473C188.733 217.473 193.395 217.359 198.054 217.497C206.04 217.734 209.105 223.646 204.956 230.642C204.757 230.977 204.544 231.298 204.287 231.703Z" fill="white"/>
<path d="M108.016 236.98C107.894 237.061 107.665 237.146 107.668 237.22C107.675 237.392 107.796 237.558 107.867 237.723C107.986 237.639 108.195 237.555 108.202 237.46C108.209 237.305 108.087 237.142 108.016 236.98ZM104.496 240.821C104.462 240.984 104.432 241.142 104.398 241.301C104.85 241.389 105.307 241.473 105.763 241.561C105.793 241.413 105.823 241.264 105.854 241.115C105.401 241.017 104.948 240.919 104.496 240.821ZM121.85 225.419C122.063 225.386 122.279 225.352 122.496 225.315C122.347 224.842 122.202 224.369 122.053 223.896C121.867 223.953 121.678 224.007 121.492 224.061C121.611 224.514 121.729 224.967 121.85 225.419ZM124.573 243.615C124.31 243.413 124.046 243.207 123.779 243.004C123.698 243.355 123.557 243.707 123.546 244.065C123.536 244.43 123.654 244.801 123.715 245.169C123.847 245.169 123.979 245.166 124.111 245.166C124.266 244.649 124.421 244.132 124.573 243.615ZM119.952 227.44C119.634 227.484 119.317 227.527 118.999 227.571C119.185 228.19 119.367 228.808 119.553 229.423C119.719 229.392 119.881 229.359 120.046 229.325C120.016 228.696 119.982 228.068 119.952 227.44ZM120.665 235.977C120.519 235.619 120.377 235.257 120.236 234.899L117.577 235.929C117.719 236.294 117.864 236.659 118.006 237.024C118.891 236.676 119.776 236.325 120.665 235.977ZM116.874 218.95C113.043 219.886 113.043 219.886 113.932 222.22C114.871 221.176 115.685 220.274 116.874 218.95ZM111.225 224.163C111.367 225.845 111.489 227.274 111.617 228.808C114.526 228.892 115.127 230.646 114.749 233.531C115.996 233.159 116.894 232.892 117.881 232.598C116.975 231.281 116.391 230.426 115.654 229.352C117.232 228.142 118.256 226.48 116.394 225.271C115.073 224.413 113.121 224.524 111.225 224.163ZM113.786 234.592C113.587 233.068 113.384 231.541 113.117 229.497C112.114 230.396 111.513 230.936 110.911 231.477C111.107 231.524 111.303 231.571 111.499 231.619V238.99C112.462 239.217 113.371 239.433 114.479 239.693V246.244C113.877 245.825 113.32 245.44 112.861 245.122C109.533 248.142 105.685 245.852 102.252 246.794C101.195 241.041 101.644 239.666 104.82 238.757V233.636C105.394 233.906 105.834 234.115 106.175 234.274C105.557 231.244 104.932 228.166 104.219 224.666C103.861 224.585 102.962 224.386 101.965 224.169V217.115C103.121 217.994 103.938 218.615 104.756 219.233C104.688 219.014 104.621 218.798 104.553 218.578C106.168 218.21 107.766 217.612 109.394 217.524C112.1 217.379 114.83 217.467 117.54 217.615C122.638 217.899 125.283 221.122 124.428 226.2C124.111 228.078 123.198 229.858 122.435 232.038C122.817 233.136 123.357 234.676 123.915 236.264C127.192 237.321 127.671 238.129 127.08 241.706C126.486 245.325 125.178 246.649 122.175 246.676C118.337 246.71 117.661 246.108 117.171 242.23C117.013 240.963 117.057 239.622 116.631 238.453C116.117 237.061 115.202 235.818 114.459 234.514L113.786 234.592Z" fill="white"/>
<path d="M81.9285 182.716L81.8272 182.889C81.9488 182.896 82.0738 182.902 82.1954 182.909C82.1684 182.845 82.1549 182.767 82.1076 182.73C82.067 182.699 81.9893 182.72 81.9285 182.716ZM92.6819 190.973L92.5738 191.135L92.736 191.159L92.6819 190.973ZM86.6279 179.24C86.5974 179.308 86.5704 179.378 86.5434 179.449C86.6515 179.47 86.763 179.493 86.8744 179.517C86.861 179.436 86.871 179.341 86.8305 179.284C86.7967 179.243 86.6954 179.253 86.6279 179.24ZM98.8575 196.862C98.9825 196.872 99.1075 196.885 99.2325 196.895C99.2765 196.514 99.3237 196.132 99.4015 195.47C98.9961 195.835 98.7697 195.943 98.7528 196.074C98.7258 196.331 98.817 196.598 98.8575 196.862ZM97.6312 196.23C97.4319 196.176 97.2292 196.122 97.0298 196.064C96.6143 196.993 96.1954 197.922 95.7798 198.851C96.0974 198.966 96.4116 199.081 96.7292 199.196C97.0298 198.21 97.3305 197.22 97.6312 196.23ZM96.2325 190.983C98.4927 192.99 98.8035 191.172 99.4859 190.206C99.3609 189.953 99.2359 189.703 99.1109 189.449C98.219 189.926 97.3237 190.402 96.2325 190.983ZM95.6008 193.777C94.2663 193.493 93.4386 193.287 92.5974 193.142C91.8305 193.014 91.0569 192.949 90.2866 192.858L90.0704 193.73C90.567 194.372 91.0636 195.017 91.6177 195.737C92.9825 195.064 94.1312 194.5 95.6008 193.777ZM81.3812 196.314C81.9386 196.355 82.5433 196.399 83.1278 196.439C83.9589 191.855 83.9589 191.855 82.0501 191.655C81.8474 193.058 81.6481 194.466 81.3812 196.314ZM86.3238 174.973C86.4792 175.169 86.6346 175.368 86.4252 175.101C86.7089 175.189 86.4725 175.118 86.236 175.047C86.2325 174.926 86.229 174.801 86.2258 174.679C86.2563 174.777 86.29 174.875 86.3238 174.973ZM94.5941 189.686L94.7427 189.723L94.5299 189.649C94.4792 189.365 94.4286 189.078 94.3779 188.794C93.3306 187.605 92.2833 186.416 91.2326 185.227C90.9961 185.328 90.7562 185.426 90.5164 185.527C90.3745 186.348 90.2326 187.172 90.0671 188.135C91.7968 188.385 93.1076 188.574 94.415 188.764C94.4758 189.071 94.5367 189.378 94.5941 189.686ZM81.8846 200.727C80.9184 201.318 79.9488 201.912 78.6954 202.679V194.997C79.0367 194.922 79.8644 194.743 81.1887 194.453C80.3779 188.99 82.7833 183.189 79.2596 177.547C78.7968 178.26 78.5671 178.618 78.1617 179.24V173.578H90.1549C90.7495 175.004 91.4961 176.797 92.1752 178.429C91.3677 179.145 90.6448 179.787 89.7022 180.625C94.7731 181.156 94.3711 185.632 96.5198 188.757V180.595C95.7225 180.409 94.8171 180.203 93.7968 179.97V173.301H103.239V179.97C100.54 179.973 100.108 181.328 100.287 184.031C100.672 189.929 100.405 195.868 100.405 201.828H91.8846C89.7157 196.402 87.4488 190.73 85.1819 185.058C85.0502 185.074 84.9218 185.091 84.7934 185.112V194.561C85.7191 194.716 86.5603 194.858 87.5806 195.031V201.909C85.5198 201.686 83.3069 203.159 81.8103 200.649C81.7799 200.649 81.7495 200.652 81.7191 200.652C81.7765 200.676 81.8306 200.703 81.8846 200.727Z" fill="white"/>
<path d="M137.756 198.209C137.966 198.236 138.172 198.263 138.378 198.29C138.402 197.986 138.456 197.682 138.425 197.385C138.422 197.324 138.121 197.29 137.956 197.243C137.891 197.564 137.824 197.885 137.756 198.209ZM149.594 173.584C149.344 173.773 149.094 173.959 148.848 174.145C149.483 175.03 150.121 175.919 150.756 176.807C151.057 176.581 151.358 176.358 151.658 176.131L149.594 173.584ZM148.668 196.932C148.723 196.837 148.777 196.746 148.831 196.652C148.797 196.733 148.763 196.81 148.729 196.892C149.125 197.348 149.52 197.8 149.915 198.256L149.986 198.087L149.858 198.196C150.395 196.898 149.939 196.533 148.668 196.932ZM134.418 202.344V195.192C135.172 195.027 136.081 194.827 137.141 194.594V189.591C137.307 189.692 137.469 189.794 137.631 189.895C138.266 189.084 139.614 187.956 139.418 187.52C138.219 184.858 143.266 183.56 140.756 180.628C139.78 182.51 138.861 184.273 137.945 186.037C136.844 179.493 136.692 179.169 134.32 179.287V173.304H155.905V185.371C154.945 185.422 154.003 185.473 152.8 185.537C152.212 183.993 151.625 182.456 150.912 180.577H144.243C144.111 181.621 143.983 182.648 143.827 183.922C145.347 184.071 146.679 184.199 148.172 184.344V190.679C146.922 190.827 145.702 190.973 144.27 191.142V194.712H151.361C151.496 193.098 151.628 191.503 151.797 189.469C152.54 190.412 153.013 191.01 153.469 191.591C154.317 190.719 155.064 189.946 155.814 189.172C156.043 189.341 156.273 189.51 156.503 189.679V202.02C152.719 202.02 149.016 202.091 145.324 201.966C144.435 201.935 143.388 200.736 142.733 200.966C141.395 201.439 140.277 202.523 138.733 203.584C138.27 202.946 137.618 202.04 136.959 201.128C136.293 201.449 135.5 201.827 134.418 202.344Z" fill="white"/>
<path d="M119.456 197.031C119.395 196.862 119.334 196.689 119.277 196.517C119.105 196.591 118.936 196.666 118.763 196.74C118.851 196.926 118.936 197.112 119.02 197.301C119.162 197.213 119.304 197.125 119.456 197.031ZM115.99 191.196C115.078 190.939 114.426 190.757 113.439 190.48C113.551 191.858 113.628 192.858 113.75 194.392C114.682 193.061 115.206 192.314 115.99 191.196ZM126.642 189.635C126.517 188.71 126.429 188.058 126.341 187.409C126.084 187.409 125.831 187.413 125.578 187.416C125.463 189.038 125.348 190.659 125.186 192.933C126.601 192.375 127.642 192.264 128.135 191.686C128.591 191.152 128.456 190.119 128.622 189.051C127.814 189.291 127.351 189.426 126.642 189.635ZM116.355 194.777C119.794 195.196 123.186 193.223 123.105 191.125C123 188.429 122.615 185.73 122.111 183.075C121.682 180.815 120.071 179.581 117.767 179.497C117.307 179.48 116.422 180.071 116.415 180.396C116.328 185.152 116.355 189.909 116.355 194.777ZM107.213 201.906V195.436C108.159 195.264 108.997 195.109 110.186 194.889V180.078C109.061 179.848 108.226 179.676 107.243 179.477V173.436C112.574 172.609 114.263 172.852 115.726 174.612C116.598 173.054 120.057 172.49 122.655 173.521C125.551 174.669 127.595 176.818 128.706 179.622C130.885 185.136 130.875 190.788 128.557 196.247C126.365 201.409 120.689 203.453 115.578 201.511C114.463 201.085 112.936 201.808 111.595 201.889C110.236 201.97 108.872 201.906 107.213 201.906Z" fill="white"/>
<path d="M151.655 229.878C151.51 229.152 151.443 228.811 151.372 228.466C151.233 228.608 151.095 228.746 150.956 228.888C151.125 229.131 151.294 229.371 151.655 229.878ZM145.382 231.111C145.253 231.064 145.125 231.013 144.997 230.966L144.645 231.76C144.801 231.821 144.959 231.881 145.118 231.942C145.206 231.665 145.294 231.388 145.382 231.111ZM146.057 224.942H140.345C142.517 228.351 138.645 229.993 137.861 232.665L138.652 233.077C139.676 231.645 140.699 230.213 141.76 228.726C143.044 228.662 144.402 228.594 146.057 228.51V224.942ZM140.351 243.405C140.774 244.331 141.196 245.256 141.736 246.439H132.186C131.294 244.5 131.78 242.936 133.686 241.699C133.294 241.023 132.963 240.459 132.541 239.736C132.041 240.206 131.676 240.547 131.311 240.888C131.169 240.723 131.027 240.557 130.888 240.392C131.385 240.017 131.841 239.564 132.392 239.294C132.797 239.091 133.318 239.121 133.534 239.091C134.152 237.088 134.709 235.287 135.193 233.726C134.801 232.324 134.267 230.993 134.084 229.615C133.895 228.179 134.044 226.699 134.044 225.179C133.034 224.99 132.28 224.848 131.331 224.669C131.176 222.446 131.02 220.186 130.848 217.689H139.064C139.405 218.179 139.861 218.827 140.517 219.767C143.04 215.952 146.551 217.341 149.429 218.165C152.399 219.013 153.378 222.148 153.591 225.074C153.73 226.99 153.53 229.027 153 230.871C152.108 233.976 149.885 235.402 146.598 235.452C144.75 235.483 142.899 235.456 140.28 235.456C140.865 237.355 140.939 239.118 141.831 240.209C144.078 242.956 144.226 242.834 143.483 246.689C142.497 245.402 141.642 244.287 140.787 243.172C140.642 243.25 140.497 243.327 140.351 243.405Z" fill="white"/>
<path d="M94.2973 229.993L94.4594 230.108L94.4864 229.926L94.2973 229.993ZM93.8175 225.182C93.7466 225.226 93.6081 225.287 93.6114 225.314C93.6486 225.469 93.7162 225.618 93.7702 225.77C93.8378 225.716 93.9662 225.655 93.9628 225.615C93.9392 225.469 93.8716 225.328 93.8175 225.182ZM95.4594 238.341C95.5371 238.341 95.6182 238.341 95.6993 238.341C95.6993 238.111 95.6993 237.882 95.6892 237.652C95.6892 237.642 95.5642 237.642 95.4966 237.635C95.4831 237.868 95.473 238.105 95.4594 238.341ZM91.7195 240.037C91.9729 239.774 92.1756 239.632 92.2567 239.442C92.2939 239.355 92.0777 239.037 92.0033 239.044C91.7668 239.071 91.5405 239.203 91.3108 239.294C91.4189 239.49 91.527 239.689 91.7195 240.037ZM90.8986 234.26C90.6013 232.814 90.3209 231.422 90.0337 230.03C89.7973 228.888 89.6824 227.696 89.2804 226.611C88.5236 224.561 86.5236 223.713 85.5776 225.064C83.9695 227.368 82.7026 229.905 81.1452 232.598C81.9797 232.453 82.6452 232.334 83.1621 232.243C83.6959 234.162 84.027 236.007 84.7499 237.686C85.1148 238.534 86.1959 239.642 86.9222 239.618C87.706 239.591 88.6047 238.49 89.1722 237.662C89.9189 236.574 90.3885 235.297 90.8986 234.26ZM86.5675 246.426C80.1486 246.149 77.2364 242.716 75.956 234.192C76.6114 234.061 77.2804 233.926 78.7331 233.628C77.4087 232.899 76.6756 232.497 76.1249 232.192C76.2972 230.067 76.1519 227.885 76.706 225.899C77.6587 222.48 79.2871 219.162 82.9831 218.078C87.1959 216.844 91.3547 216.98 94.4695 220.888C95.6081 222.314 96.6081 223.709 95.2939 225.355C99.429 229.763 97.7162 234.564 96.4763 239.149C95.1317 244.098 92.9527 245.915 88.5641 246.49C89.375 244.297 87.8716 243.865 86.1182 243.395C86.2668 244.388 86.3986 245.284 86.5675 246.426Z" fill="white"/>
<path d="M193.986 196.851C194.057 196.615 194.125 196.378 194.02 196.733C193.939 196.388 194 196.642 194.061 196.898C193.916 196.882 193.767 196.861 193.622 196.851L193.986 196.851ZM207.74 197.105C207.574 196.625 207.537 196.02 207.213 195.699C206.571 195.054 205.77 194.567 204.912 193.925C204.162 194.821 203.199 195.976 202.088 197.3C201.385 196.638 200.78 196.067 200.182 195.507C203.77 191.358 203.915 186.892 202.078 182.226C201.24 180.091 200.605 179.855 197.551 179.77C197.061 180.51 196.537 181.297 196.054 182.03C197.598 185.821 197.544 186.351 195.53 187.77C197.169 189.253 197.169 189.253 196.993 193.321C196.233 193.632 195.456 193.952 194.287 194.429C196.105 195.034 198.341 195.246 198.5 195.936C198.848 197.446 198.142 199.199 197.865 200.855L197.966 200.784L197.284 201.473L197.331 201.382C195.351 201.682 193.368 201.983 191.263 202.3C191.476 201.091 191.615 200.294 191.753 199.496L191.196 198.831C190.003 199.635 188.811 200.439 187.517 201.311V195.527C188.345 195.334 189.179 195.142 190.28 194.885C190.351 193.544 190.429 192.111 190.54 189.949C191.54 191.098 192.152 191.797 193.01 192.787C193.375 191.777 193.669 190.949 194.04 189.915C192.787 189.449 191.804 189.084 190.449 188.581V180.05C189.301 179.831 188.47 179.672 187.503 179.486V173.088C192.017 173.665 196.706 171.878 201.314 174.476C201.399 174.321 201.693 173.773 202.034 173.145C205.821 174.48 208.23 177.088 209.426 180.672C211.02 185.446 210.919 190.317 209.297 195.094C209.044 195.841 208.223 196.398 207.665 197.04L207.74 197.105Z" fill="white"/>
<path d="M303.702 231.355C303.81 231.318 303.918 231.28 304.026 231.247C303.972 230.912 303.921 230.578 303.867 230.247C303.641 230.328 303.408 230.405 303.182 230.487C303.354 230.777 303.53 231.064 303.702 231.355ZM288.594 243.118L289.3 243.723C289.702 243.101 290.104 242.48 290.506 241.858C290.256 241.699 290.009 241.537 289.759 241.378C289.371 241.959 288.982 242.541 288.594 243.118ZM300.732 234.838C301.834 236.274 302.56 237.223 303.678 238.686C303.881 237.054 304.023 235.909 304.205 234.436C302.898 234.588 302.09 234.682 300.732 234.838ZM292.256 221.659C289.455 221.669 288.198 222.598 289.013 224.091C291.513 228.696 291.215 233.919 292.56 238.757C295.54 240.176 296.942 239.767 297.435 236.541C297.881 233.622 297.881 230.473 297.283 227.595C296.513 223.872 294.894 223.578 291.54 225.98C291.766 224.615 291.992 223.25 292.256 221.659ZM293.752 244.338C292.84 246.959 291.246 246.503 289.955 245.568C287.442 243.737 284.881 241.946 285.445 238.02C285.631 236.709 283.972 235.203 283.972 233.784C283.972 230.787 284.117 227.682 284.908 224.818C286.459 219.189 290.891 216.591 296.651 217.584C298.942 217.98 301.303 218.473 301.752 221.544C301.857 222.25 303.026 222.757 303.584 223.453C304.05 224.034 304.472 224.72 304.692 225.426C306.519 231.345 305.915 237.098 302.864 242.426C301.969 243.987 300.212 245.26 298.567 246.139C296.867 247.041 294.864 247.155 293.752 244.338Z" fill="white"/>
<path d="M171.31 242.388C171.111 242.442 170.912 242.493 170.716 242.544C170.797 242.919 170.881 243.297 170.966 243.672C171.097 243.655 171.233 243.638 171.364 243.625C171.344 243.213 171.327 242.8 171.31 242.388ZM162.803 225.081C162.557 224.875 162.307 224.669 162.057 224.459C161.672 225.159 161.283 225.858 160.898 226.554L161.506 226.922C161.939 226.307 162.371 225.696 162.803 225.081ZM161.807 229.446C161.912 229.746 162.02 230.047 162.124 230.344C162.983 230.209 163.915 230.226 164.658 229.858C164.915 229.726 164.699 228.645 164.699 227.24C163.32 228.29 162.564 228.868 161.807 229.446ZM166.523 225.213C166.814 221.148 166.814 221.148 163.901 220.246C162.526 222.905 165.584 223.199 166.523 225.213ZM174.182 236.219C174.493 236.29 174.803 236.361 175.114 236.432C175.506 234.513 175.898 232.594 176.287 230.672C175.891 230.594 175.496 230.517 175.097 230.442C174.716 232.351 172.459 233.878 174.182 236.219ZM165.57 236.452C165.804 236.26 166.033 236.064 166.263 235.871C167.077 237.53 167.891 239.186 168.706 240.841C168.922 240.591 169.141 240.338 169.358 240.088C170.459 239.378 171.557 238.669 172.064 238.341C172.064 236.321 171.658 234.608 172.148 233.209C173.189 230.246 171.766 227.919 170.604 225.594C169.679 223.743 167.925 223.838 167.111 225.817C166.277 227.841 165.952 230.094 165.611 232.28C165.398 233.642 165.57 235.061 165.57 236.452ZM158.638 232.395C157.493 229.307 158.881 226.51 159.418 223.557C159.736 221.794 162.246 222.591 162.02 220.351C161.945 219.635 164.442 218.331 165.939 217.868C167.476 217.398 169.243 217.452 170.888 217.581C175.493 217.939 180.172 225.101 179.722 229.709C179.685 230.108 179.378 230.52 179.111 230.855C177.733 232.577 177.459 234.179 179.614 235.517C179.429 236.253 179.256 236.915 179.097 237.577C177.564 243.956 174.594 246.726 169.341 246.675C163.55 246.621 159.685 243.277 158.537 237.061C158.26 235.574 158.608 233.969 158.668 232.419C158.722 232.395 158.78 232.375 158.834 232.351C158.766 232.365 158.702 232.382 158.638 232.395Z" fill="white"/>
<path d="M162.024 197.591C162.165 197.608 162.307 197.625 162.449 197.638C162.513 197.206 162.574 196.77 162.638 196.334C162.466 196.314 162.294 196.294 162.122 196.27C162.088 196.713 162.057 197.152 162.024 197.591ZM168.078 186.888C168.361 188.064 168.689 189.23 168.919 190.415C169.061 191.165 169.057 191.939 169.169 193.27C168.618 194.463 164.882 194.159 165.986 196.925C167.071 196.219 168.149 195.52 169.23 194.817C169.453 195.017 169.679 195.216 169.902 195.415V201.844H160.726V195.132C161.48 194.986 162.314 194.827 163.419 194.611C165.128 187.577 166.855 180.48 168.605 173.273H175.155C176.649 179.449 178.24 185.588 179.534 191.79C179.77 192.925 178.811 194.311 178.318 195.838C179.652 195.672 181.388 195.452 183.419 195.196V201.817H176.179C176.024 201.098 175.834 200.226 175.503 198.699C174.777 200.01 174.311 200.851 173.753 201.861H171.04C169.973 197.517 170.338 195.804 172.953 194.351C172.314 193.243 171.679 192.138 170.872 190.733C171.068 189.915 171.355 188.696 171.77 186.959H168.125L168.26 186.865L168.078 186.888Z" fill="white"/>
<path d="M226.877 240.243C226.698 240.561 226.455 240.818 226.509 240.943C226.594 241.145 226.881 241.26 227.084 241.412C227.222 241.223 227.489 241.017 227.469 240.845C227.445 240.662 227.154 240.51 226.877 240.243ZM223.09 224.662C222.803 224.365 222.516 224.068 222.225 223.77C221.796 224.179 221.367 224.588 220.935 224.993C221.256 225.324 221.577 225.652 221.898 225.983C222.293 225.54 222.692 225.101 223.09 224.662ZM223.945 232.74C223.57 231.236 223.313 230.193 222.901 228.534C222.263 230.149 221.857 231.165 221.367 232.405C222.225 232.517 222.837 232.595 223.945 232.74ZM228.023 232.493C227.469 233.088 226.915 233.679 226.357 234.274C226.624 234.459 226.888 234.649 227.154 234.834C227.418 234.081 227.681 233.324 227.945 232.571L228.04 232.649C228.033 232.598 228.029 232.544 228.023 232.493ZM218.286 245.845C216.705 246.118 215.127 246.388 213.371 246.692V239.26C214.421 240.213 215.121 240.848 215.496 241.186C215.85 239.912 216.236 238.655 216.55 237.378C217.989 231.49 219.442 225.601 220.81 219.699C221.121 218.358 221.34 217.203 222.844 217.554C223.192 219.02 223.117 220.692 223.891 221.314C224.502 221.811 226.151 221.017 227.344 220.797C227.32 220.48 227.3 220.162 227.276 219.848C226.388 219.743 225.499 219.638 224.631 219.534C224.78 217.355 224.78 217.355 227.796 217.807C229.573 224.986 231.374 232.26 233.188 239.578C234.185 239.72 235.036 239.834 236.063 239.976V243.899C235.391 243.574 234.746 243.26 234.1 242.949C233.959 243.095 233.82 243.236 233.682 243.378C234.516 244.206 235.347 245.03 236.722 246.392C232.053 246.919 227.881 246.595 223.462 246.628V239.997C223.932 239.817 224.543 239.591 225.334 239.294C225.161 238.345 224.996 237.426 224.81 236.395H220.932C220.685 237.243 220.428 238.135 220.124 239.179C221.019 239.5 221.712 239.747 222.567 240.051V246.801C221.002 246.47 219.634 246.182 218.266 245.895C218.07 245.932 217.877 245.969 218.185 245.912C217.935 246.074 218.111 245.959 218.286 245.845Z" fill="white"/>
<path d="M331.071 241.963C331.075 241.885 331.078 241.808 331.081 241.73H330.379C330.375 241.794 330.375 241.855 330.372 241.919C330.608 241.933 330.838 241.946 331.071 241.963ZM323.429 225.774C323.378 225.706 323.328 225.635 323.277 225.568C323.22 225.612 323.159 225.656 323.098 225.703C323.182 225.798 323.267 225.892 323.348 225.987C323.375 225.916 323.402 225.845 323.429 225.774ZM328.399 234.041C328.314 234.355 328.277 234.51 328.233 234.666C328.422 234.686 328.608 234.7 328.794 234.72C328.682 234.527 328.571 234.335 328.399 234.041ZM318.105 226.926C319.02 225.122 319.716 223.747 320.415 222.365C320.196 222.233 319.976 222.105 319.757 221.973C318.942 222.852 318.128 223.733 317.304 224.625C317.513 225.23 317.723 225.828 318.105 226.926ZM316.483 228.902C315.372 233.706 318.142 239.348 311.669 241.591C312.307 242.325 312.774 242.858 313.517 243.713C314.486 242.159 315.287 240.872 316.213 239.382H319.057V246.483H309.763V239.558C310.608 239.382 311.524 239.193 312.054 239.085C313.132 236.801 314.101 234.747 315.176 232.466C314.588 232.213 313.777 231.862 312.774 231.429V225.21C311.75 224.997 310.915 224.828 309.831 224.605V217.646H321.814C322.176 219.142 322.554 220.727 322.936 222.311C322.834 222.308 322.73 222.308 322.628 222.304C323.578 223.716 324.527 225.132 325.493 226.568C324.699 227.446 324.108 228.105 323.193 229.118C324.554 229.514 325.507 229.787 326.52 230.081C326.939 230.993 327.375 231.943 328.068 233.449C328.926 230.693 327.172 226.919 331.747 226.932V233.831C331.307 232.635 331.118 232.128 330.932 231.622C330.76 231.618 330.584 231.618 330.412 231.615C330.132 233.595 329.851 235.578 329.537 237.797C330.196 238.145 330.939 238.53 331.78 238.973V246.446H327.051C325.726 244.061 326.986 242.159 328.429 239.834C326.851 239.105 325.328 238.402 323.662 237.632C323.591 236.74 323.513 235.777 323.412 234.483C322.915 234.865 322.557 235.138 322.088 235.5C321.703 234.936 321.25 234.28 320.679 233.449C320.108 233.983 319.655 234.402 319.051 234.966C318.247 233.064 317.476 231.25 316.483 228.902Z" fill="white"/>
<path d="M253.689 227.473C253.709 227.402 253.75 227.331 253.747 227.26C253.747 227.237 253.649 227.213 253.598 227.193C253.578 227.264 253.544 227.331 253.547 227.399C253.551 227.426 253.638 227.449 253.689 227.473ZM255.294 220.689H258.051C257.986 219.568 257.932 218.632 257.872 217.605H262.743V229.713C260.057 230.895 260.456 228.375 260.078 227.274C259.632 225.976 259.726 224.497 259.564 222.851C257.912 223.669 256.611 224.314 255.034 225.091V239.03C255.932 239.226 256.848 239.426 257.959 239.669V246.48H245.226V239.868C247.243 237.463 248.703 243.541 250.784 240.101C251.449 240.649 252.088 241.172 252.726 241.696C252.966 241.639 253.206 241.581 253.449 241.524C253.25 240.635 253.172 239.696 252.821 238.875C252.567 238.284 251.953 237.848 251.24 237.058C250.973 238.885 250.247 239.933 248.132 238.507C248.132 235.537 248.23 232.314 248.091 229.101C248.017 227.382 248.915 225.419 247.03 223.96C246.763 223.75 247.257 222.561 247.388 221.875C248.473 221.953 249.301 222.014 250.125 222.071C250.182 221.943 250.243 221.811 250.301 221.683C249.253 220.946 248.209 220.21 247.233 219.52C246.307 220.612 245.355 221.733 244.415 222.845V229.284C243 229.402 241.645 229.52 240.145 229.649V218.693C244.753 216.213 249.909 218.166 254.99 217.382C255.098 218.558 255.176 219.399 255.294 220.689Z" fill="white"/>
<path d="M62.418 244.754L62.6106 244.879L62.6308 244.669L62.418 244.754ZM58.962 229.301C58.891 229.487 58.8099 229.649 58.7795 229.818C58.7694 229.882 58.891 229.967 58.9552 230.041C59.0532 229.913 59.2119 229.788 59.2288 229.646C59.239 229.544 59.0633 229.423 58.962 229.301ZM69.8065 223.044C69.6613 222.767 69.516 222.49 69.3741 222.213C68.8572 222.575 68.3369 222.933 67.8369 223.315C67.8167 223.332 67.9788 223.585 68.1376 223.879C68.6883 223.605 69.2491 223.325 69.8065 223.044ZM56.293 236.075C56.1309 236.237 55.9687 236.399 55.8065 236.561C56.3032 237.007 56.7998 237.453 57.2964 237.896C57.4146 237.761 57.5363 237.622 57.8369 237.277C57.3099 236.869 56.8032 236.473 56.293 236.075ZM55.5667 229.696C55.8369 229.68 56.1038 229.669 56.3707 229.652C56.3335 229.004 56.2931 228.355 56.2525 227.707C56.0261 227.72 55.7964 227.73 55.5667 227.74V229.696ZM59.6849 241.68C59.8775 242.058 60.0667 242.433 60.2559 242.808C60.9957 242.642 61.9957 242.71 62.3944 242.25C62.8032 241.777 62.6207 240.794 62.6951 240.038C62.4113 239.892 62.1241 239.75 61.8369 239.605C61.1207 240.298 60.4045 240.99 59.6849 241.68ZM69.5971 241.132C68.4045 244.467 65.5092 246.669 62.4687 246.555C58.0059 246.392 54.5025 244.115 53.5498 240.217C52.4417 235.683 51.6174 231.048 52.9484 226.375C53.8572 223.186 54.9552 220.095 58.6309 218.696C58.0126 220.156 57.3944 221.615 56.6815 223.301C57.1005 223.642 57.7457 224.166 58.5667 224.832C59.5836 223.237 60.4518 221.879 61.3809 220.423C62.1478 220.805 62.8775 221.169 63.6106 221.534C63.7795 221.419 63.945 221.304 64.1106 221.19C63.6647 220.21 63.2187 219.227 62.6951 218.075C61.4383 218.419 59.8268 219.977 59.5092 217.19C61.5059 216.21 63.364 215.815 65.3234 217.588C65.8606 218.071 67.0667 217.845 67.9687 217.882C69.043 217.919 70.1173 217.889 71.4282 217.889V230.149H67.4282C66.8437 228.916 66.3775 227.511 65.5802 226.328C64.2322 224.338 62.4146 224.447 61.1038 226.433C59.4484 228.943 59.4822 235.251 61.168 237.74C62.4754 239.67 64.4754 239.849 66.1072 238.115C66.6342 237.558 67.0464 236.862 67.4113 236.176C67.7761 235.494 68.016 234.747 68.391 233.832C69.4619 233.886 70.516 233.936 71.5667 233.99C71.5801 234.237 71.5903 234.487 71.6005 234.734C70.8876 234.903 70.1748 235.075 68.9957 235.359C69.7086 236.463 70.2457 237.295 70.9518 238.389C70.5599 239.183 70.0565 240.2 69.5532 241.213C68.8065 240.565 68.0599 239.916 67.3133 239.267C67.114 239.396 66.918 239.524 66.7221 239.656C67.0329 240.528 67.3471 241.399 67.7761 242.595C68.6038 241.926 69.1005 241.531 69.5971 241.132Z" fill="white"/>
<path d="M59.9966 180.868C60.1283 180.767 60.2567 180.665 60.3851 180.567C60.2634 180.459 60.1013 180.243 60.0337 180.27C59.858 180.337 59.7229 180.517 59.5709 180.652C59.7128 180.723 59.8513 180.794 59.9966 180.868ZM63.4999 178.287C63.581 178.24 63.6587 178.196 63.7364 178.148C63.6723 178.088 63.5743 177.963 63.5439 177.979C63.4357 178.03 63.3479 178.128 63.2533 178.209C63.3378 178.236 63.4189 178.26 63.4999 178.287ZM68.7398 198.283C68.9966 198.29 69.2567 198.297 69.5134 198.304V196.527C69.3209 196.52 69.1283 196.517 68.9358 196.51C68.8716 197.104 68.804 197.692 68.7398 198.283ZM59.8412 199.645C59.5844 198.587 59.3716 197.696 59.0776 196.473C58.0168 198.783 58.0168 198.783 59.8412 199.645ZM57.5878 190.246C57.0405 190.716 56.4966 191.185 55.9493 191.655L56.6722 192.145C56.9594 191.496 57.2466 190.844 57.5337 190.192C57.7297 189.996 57.9256 189.797 58.1216 189.601C60.7533 189.888 60.1993 188.121 60.4966 186.908C60.304 186.783 60.108 186.658 59.9121 186.533C59.331 187.571 58.7533 188.608 58.1722 189.645L57.5878 190.246ZM55.7026 198.145C55.956 197.864 56.3918 197.611 56.4357 197.3C56.8513 194.392 56.831 194.388 59.5945 194.473C58.4493 191.875 56.7026 194.591 55.0878 193.506V180.435C53.983 180.256 53.1385 180.118 52.0675 179.942V173.26H64.5439V179.648C63.5979 179.949 62.7128 180.229 61.3445 180.662V194.723C61.9256 194.273 62.5574 193.783 63.2871 193.216C63.8918 193.844 64.4155 194.392 65.2128 195.226C65.956 194.378 67.1959 193.584 67.4526 192.547C67.8648 190.871 67.5202 189.023 67.7094 187.273C67.8175 186.287 68.3547 185.344 68.6959 184.381L68.6283 184.435C69.1554 184.574 69.6824 184.709 70.2939 184.868C70.4695 184.321 70.6317 183.817 70.8277 183.202C70.9831 183.489 71.1283 183.631 71.125 183.767C70.9425 188.56 70.9695 193.375 70.4695 198.135C70.1216 201.469 69.0946 202.013 65.8175 202.027C64.0506 202.034 62.2837 202.023 60.5168 202.027C58.9932 202.034 57.5608 202.114 57.4256 199.881C57.3851 199.253 56.2635 198.689 55.6351 198.094L55.7026 198.145Z" fill="white"/>
<path d="M273.131 236.095C273.188 236.041 273.252 235.99 273.313 235.936C273.256 235.875 273.202 235.818 273.148 235.757C273.084 235.838 273.023 235.923 272.962 236.004C273.016 236.034 273.073 236.064 273.131 236.095ZM273.779 237.369L273.627 237.352L273.685 237.568L273.779 237.369ZM272.279 218.314C272.077 218.456 271.874 218.598 271.671 218.74L272.472 219.649C272.604 219.564 272.732 219.477 272.861 219.392L272.279 218.314ZM273.462 227.206C273.249 227.037 273.036 226.869 272.82 226.7C272.567 227.159 272.31 227.619 272.053 228.075C272.185 228.166 272.32 228.257 272.452 228.345C272.79 227.967 273.124 227.585 273.462 227.206ZM271.192 230.054C270.736 229.213 270.08 228.423 269.881 227.527C269.651 226.5 269.83 225.385 269.83 224.335H266.854V217.733H279.59V224.564C278.783 224.74 277.948 224.919 277.114 225.102C277.006 225.26 276.83 225.409 276.8 225.581C276.29 228.72 277.367 232.007 275.604 235.105C275.215 235.784 276.57 237.456 277.317 239.092C277.712 239.176 278.617 239.365 279.526 239.554V246.423C279.104 244.483 276.334 242.747 278.698 240.227C277.614 240.642 276.529 241.058 274.742 241.74C274.482 241.375 274.016 240.727 273.641 240.203C273.492 241.423 273.32 242.825 273.097 244.652C273.827 244.706 274.732 244.666 275.577 244.872C276.249 245.037 276.85 245.5 277.482 245.831C277.367 246.227 277.252 246.625 277.138 247.021L268.148 245.71L268.246 245.814C268.279 243.409 267.04 240.754 269.621 238.842C269.746 238.75 269.759 238.49 269.79 238.304C270.273 235.534 270.752 232.767 271.232 229.997L271.138 229.811L271.192 230.054Z" fill="white"/>
<path d="M68.6959 184.382C68.2094 183.193 67.7229 182.004 67.0574 180.375C66.8817 180.325 66.1756 180.119 65.304 179.865V173.301C66.2533 173.237 67.1891 173.173 68.1655 173.108C68.5506 174.054 68.9188 174.967 69.554 176.537C70.0236 175.031 70.2837 174.196 70.5878 173.23H74.1013V180.041H70.3344C69.7871 181.446 69.2094 182.943 68.6283 184.436L68.6959 184.382Z" fill="white"/>
<path d="M335.398 224.628C331.848 224.835 331.848 224.835 330.334 221.895C328.723 222.007 327.158 222.112 325.469 222.226V217.757H334.682V221.253C334.601 221.274 334.523 221.294 334.445 221.314C334.307 220.737 334.168 220.159 333.918 219.115C333.506 220.348 333.246 221.122 333.064 221.669C333.834 222.645 334.439 223.416 335.398 224.628Z" fill="white"/>
<path d="M320.193 236.686C323.017 237.75 323.193 240.767 324.571 242.868C324.966 243.47 324.193 244.838 323.953 245.855C323.679 245.899 323.405 245.946 323.132 245.993C322.176 242.872 321.22 239.757 320.267 236.639L320.193 236.686Z" fill="white"/>
<path d="M197.864 200.854C198.939 200.557 200.013 200.256 201.452 199.857C202.293 200.847 202.503 201.911 200.239 201.982C199.28 202.013 198.304 201.594 197.331 201.381L197.28 201.472L197.966 200.783L197.864 200.854Z" fill="white"/>
<path d="M207.665 197.04C207.371 199.584 205.675 201.023 202.621 201.195C204.388 199.783 206.064 198.442 207.739 197.104L207.665 197.04Z" fill="white"/>
<path d="M268.148 245.71C266.989 247.825 267.084 246.01 266.925 245.102C267.367 245.338 267.807 245.578 268.246 245.814L268.148 245.71Z" fill="white"/>
<path d="M266.793 243.261C266.837 242.919 266.877 242.581 266.921 242.24C267.117 242.45 267.35 242.642 267.496 242.886C267.536 242.956 267.32 243.176 267.225 243.328C267.08 243.308 266.938 243.281 266.793 243.261Z" fill="white"/>
<path d="M320.266 236.639C320.04 236.619 319.813 236.598 320.053 236.619C319.806 236.494 319.999 236.592 320.192 236.689L320.266 236.639Z" fill="white"/>
<path d="M55.6351 198.094L55.6621 197.922L55.7026 198.145L55.6351 198.094Z" fill="white"/>
</svg>
