<svg width="388" height="420" viewBox="0 0 388 420" fill="none" xmlns="http://www.w3.org/2000/svg">
<path d="M231.659 304.02C214.578 304.267 197.493 304.226 180.409 304.236C170.399 304.243 160.385 304.054 150.372 304.071C147.902 304.078 146.669 303.324 146.848 300.696C146.973 298.838 146.98 296.959 146.844 295.101C146.679 292.79 147.564 292.067 149.898 292.078C162.858 292.152 175.821 292.064 188.784 292.044C194.594 292.037 193.571 292.094 193.574 287.361C193.611 262.814 193.554 238.267 193.648 213.723C193.659 211.064 193.003 210.034 190.226 210.179C187.537 210.317 183.77 210.936 182.402 209.503C180.993 208.027 181.828 204.331 181.814 201.608C181.773 193.949 181.801 186.29 181.801 178.632V174.895C178.628 174.895 175.713 174.78 172.811 174.936C170.618 175.051 169.959 174.287 169.973 172.088C170.064 158.341 169.932 144.594 170.084 130.851C170.115 128 169.094 127.355 166.523 127.409C160.159 127.537 153.79 127.449 146.976 127.449C146.976 124.199 146.861 121.189 147.064 118.199C147.111 117.52 148.182 116.801 148.922 116.321C149.355 116.04 150.067 116.169 150.655 116.165C168.223 115.976 185.787 115.686 203.351 115.649C214.534 115.625 225.716 116.047 236.902 116.122C239.679 116.142 240.912 117.067 240.655 119.909C240.517 121.466 240.49 123.067 240.679 124.615C241.01 127.324 239.709 128.01 237.294 127.942C231.895 127.801 226.493 127.763 221.094 127.74C208.922 127.686 196.75 127.665 184.578 127.649C183.912 127.649 183.243 127.828 182.348 127.956V162.243H193.848V197.615H205.659V221.037H217.338V291.902H238.865C240.135 292.095 240.689 292.828 240.679 294.507C240.605 306.328 241.348 303.878 231.659 304.02ZM240.736 115.665V104.199H146.547V115.794H135.057V304.277H146.77V315.801H240.986V304.051H252.409V115.665L240.736 115.665Z" fill="white"/>
</svg>
