<svg width="388" height="420" viewBox="0 0 388 420" fill="none" xmlns="http://www.w3.org/2000/svg">
<path d="M245.678 222.226C245.118 222.311 244.608 222.429 244.158 222.534C243.996 222.574 243.831 222.611 243.665 222.648C242.361 222.932 241.283 223.851 240.797 225.094C240.314 226.341 240.483 227.743 241.256 228.838C241.939 229.807 242.635 230.757 243.331 231.702C244.787 233.682 246.162 235.554 247.324 237.5C251.678 244.804 254.395 253.338 255.624 263.581C256.013 266.811 256.104 270.071 256.199 273.523C256.219 274.172 256.236 274.821 256.256 275.469C253.587 275.027 250.908 274.645 248.3 274.273C245.993 273.946 243.608 273.604 241.287 273.229C239.246 272.898 237.885 273.534 237.097 274.125C235.405 275.395 235.175 277.243 235.077 278.03L235.05 278.243C234.82 279.665 234.587 281.091 234.351 282.513C233.722 286.324 233.077 290.25 232.523 294.172C229.01 293.561 225.398 292.172 221.02 289.76C211.175 284.338 204.26 277.169 199.874 267.841C199.324 266.675 198.858 265.405 198.317 263.939C198.033 263.169 197.736 262.361 197.405 261.507C196.831 260.02 195.425 259.023 193.834 258.966C193.783 258.966 193.739 258.963 193.692 258.963C192.155 258.963 190.746 259.851 190.091 261.246C186.638 268.571 181.408 274.716 173.135 281.182C166.415 286.429 160.493 290.135 154.479 292.821L153.293 285.307C153.172 284.55 153.047 283.794 152.925 283.037C152.655 281.415 152.402 279.881 152.192 278.327C151.962 276.611 151.253 275.307 150.081 274.449C148.297 273.145 146.266 273.5 145.604 273.618C142.432 274.172 139.182 274.692 136.043 275.192C134.081 275.506 132.114 275.821 130.155 276.145C130.145 273.77 130.162 271.523 130.533 269.439C133.026 255.473 138.844 244.371 148.314 235.5C148.675 235.162 149.047 234.78 149.435 234.351C150.118 233.598 150.331 232.824 150.432 232.456C150.8 231.381 150.689 230.199 150.128 229.209C149.567 228.219 148.611 227.517 147.499 227.28C146.888 227.145 146.273 227.023 145.662 226.895C144.378 226.635 143.162 226.388 141.983 226.081C131.584 223.395 122.172 217.425 112.364 207.3C110.641 205.523 109.084 203.55 107.432 201.459C107.212 201.179 106.993 200.902 106.773 200.621C110.094 198.963 113.381 197.28 116.824 195.517C118.395 194.709 119.979 193.898 121.581 193.081C123.537 192.084 124.317 189.692 123.324 187.733C122.496 186.101 121.682 184.479 120.868 182.871C119.057 179.277 117.324 175.844 115.543 172.408C115.574 172.398 115.608 172.388 115.641 172.378C118.52 171.564 121.243 170.797 123.952 170.439C132.901 169.267 141.439 169.81 149.317 172.067C151.871 172.797 154.378 173.919 157.03 175.108C158.155 175.611 159.277 176.115 160.408 176.587C160.658 176.692 161.013 176.908 161.462 177.175C161.78 177.368 162.124 177.574 162.513 177.794C163.898 178.577 165.618 178.459 166.885 177.493C168.151 176.53 168.722 174.902 168.334 173.358C164.374 157.547 167.655 142.81 178.976 126.064C179.182 126.273 179.391 126.483 179.601 126.689C182.972 130.054 186.155 133.233 189.27 136.49C189.77 137.017 191.293 138.608 193.597 138.615C195.885 138.635 197.361 137.098 197.989 136.449C200.851 133.486 203.837 130.513 206.726 127.645C207.405 126.966 208.087 126.287 208.77 125.608C210.989 128.783 213.189 132.054 214.793 135.405C219.895 146.044 221.662 155.962 220.199 165.729C220.128 166.189 219.989 166.726 219.841 167.294C219.658 168 219.452 168.797 219.32 169.662C219.077 171.27 219.577 173.074 220.635 174.371C222.537 176.696 225.722 175.929 227.283 174.902C234.388 170.216 242.729 168.395 254.327 169.003C260.026 169.3 265.682 170.348 271.547 172.192C270.266 174.581 269.054 177 267.874 179.358C266.837 181.425 265.766 183.564 264.679 185.621C264.368 186.206 263.425 187.99 264.094 190.077C264.76 192.155 266.557 193.05 267.233 193.388C269.219 194.378 271.189 195.398 273.162 196.415C275.932 197.848 278.78 199.317 281.662 200.706C279.851 203.8 277.206 206.74 273.435 209.861C265.449 216.473 256.108 220.632 245.678 222.226ZM289.695 194.179L286.8 192.74C282.797 190.75 278.685 188.702 274.618 186.638C276.496 182.875 278.567 178.79 281.162 173.74L281.206 173.655C282.054 172.01 282.925 170.307 282.162 168.226C281.388 166.128 279.557 165.378 277.79 164.652C270.712 161.743 262.895 160.118 253.888 159.685C244.506 159.236 236.753 160.354 229.817 163.182C229.854 162.692 229.885 162.196 229.901 161.699C230.249 150.111 227.388 138.858 221.145 127.29C218.655 122.679 216.026 118.287 211.266 115.223C210.624 114.81 209.874 114.591 209.111 114.591H208.006C206.918 114.591 205.878 115.033 205.124 115.821L202.807 118.26C200.986 120.175 199.165 122.087 197.324 123.983C195.972 125.371 194.776 126.574 193.665 127.652C190.179 124.199 186.692 120.685 183.3 117.266L182.858 116.821C182.206 115.489 180.841 114.591 179.28 114.591H178.175C176.868 114.591 175.641 115.233 174.898 116.307C174.05 117.54 173.138 118.79 172.256 120.003C170.216 122.807 168.108 125.706 166.344 128.868C160.084 140.091 157.074 151.537 157.395 162.881C157.415 163.571 157.459 164.253 157.516 164.929C157.327 164.854 157.138 164.783 156.945 164.716C145.692 160.685 133.452 159.625 120.574 161.567C116.993 162.108 113.635 163.266 110.385 164.385L109.175 164.8C107.297 165.439 105.912 166.696 105.27 168.334C104.8 169.54 104.523 171.489 105.861 173.949C107.222 176.456 108.543 179.071 109.824 181.601C110.76 183.456 111.722 185.361 112.716 187.253C110.506 188.341 108.31 189.466 106.172 190.557C103.831 191.756 101.408 192.996 99.0197 194.158C97.219 195.037 96.1042 196.3 95.7055 197.915C95.4353 199.006 95.4116 200.712 96.8271 202.635C97.2934 203.267 97.7528 203.905 98.2157 204.544C99.7494 206.669 101.334 208.864 103.141 210.932C111.331 220.307 120.101 227.05 129.952 231.547C132.206 232.577 134.52 233.408 136.8 234.179C128.864 243.506 123.726 254.706 121.499 267.54C120.905 270.966 121.033 274.358 121.155 277.635C121.185 278.415 121.212 279.192 121.233 279.966C121.276 281.864 122.026 283.503 123.347 284.581C124.33 285.385 126.087 286.236 128.844 285.743C131.871 285.196 134.986 284.706 137.996 284.229C139.827 283.939 141.709 283.645 143.584 283.334C143.928 285.739 144.317 288.135 144.699 290.469C145.016 292.432 145.337 294.391 145.628 296.358C145.993 298.807 146.405 301.581 148.888 302.952C151.385 304.331 153.969 303.192 156.249 302.189C166.557 297.655 176.178 291.307 184.854 283.327C187.922 280.506 190.584 277.584 192.898 274.493C193.249 275.158 193.614 275.824 194.003 276.479C200.199 286.929 209.256 294.831 220.922 299.976C224.385 301.503 228.016 302.294 231.53 303.06C232.168 303.202 232.807 303.341 233.442 303.483C234.053 303.621 234.618 303.682 235.138 303.682C236.722 303.682 237.891 303.135 238.655 302.598C239.716 301.854 241.053 300.375 241.405 297.557C241.793 294.466 242.31 291.297 242.81 288.236C243.091 286.52 243.381 284.76 243.648 282.993C245.685 283.3 247.722 283.594 249.763 283.888C252.776 284.321 255.891 284.766 258.928 285.253C260.797 285.554 262.341 285.199 263.52 284.202C264.692 283.212 265.293 281.773 265.31 279.919C265.32 278.736 265.368 277.557 265.412 276.375C265.496 274.108 265.587 271.763 265.452 269.375C264.635 254.78 261.131 242.503 254.746 231.848C254.374 231.223 253.986 230.618 253.587 230.027C267.256 226.199 282.506 219.071 291.459 201.783C291.749 201.219 291.905 200.591 291.905 199.952V197.743C291.905 196.233 291.05 194.854 289.695 194.179Z" fill="#F1F2F2"/>
</svg>
