<svg width="388" height="420" viewBox="0 0 388 420" fill="none" xmlns="http://www.w3.org/2000/svg">
<path d="M101.994 259.751C100.18 257.254 98.9466 255.561 97.5074 253.585C108.909 242.038 114.835 228.22 116.632 212.065C106.511 211.494 96.9635 210.95 86.7473 210.372C87.0514 207.544 87.2879 205.335 87.5142 203.213H118.433C116.366 189.024 114.352 175.213 112.23 160.663C113.687 160.197 115.815 159.514 119.595 158.298C121.987 173.487 124.261 187.936 126.714 203.521C135.372 201.767 144.491 199.919 154.045 197.987C154.791 199.433 155.747 201.284 157.595 204.862C148.45 206.828 140.112 209.142 131.612 210.254C126.474 210.923 124.504 212.561 123.707 217.811C121.271 233.842 114.855 248.044 101.994 259.751Z" fill="white"/>
<path d="M296.318 236.23C290.866 235.48 286.298 234.848 279.92 233.973C281.95 247.541 283.795 259.882 285.741 272.882C283.93 273.419 281.788 274.058 278.369 275.075C276.159 261.791 274.072 249.223 271.852 235.855C268.936 236.622 265.572 237.507 261.622 238.544C260.551 236.845 259.349 234.939 257.909 232.656C259.757 231.686 261.18 230.365 262.71 230.227C271.899 229.389 273.477 223.392 274.393 215.52C276.126 200.618 281.585 186.99 291.943 174.602C293.913 176.47 295.646 178.112 297.511 179.882C286.953 193.497 282.22 208.764 281.075 225.639C287.038 226.855 292.751 228.024 298.991 229.298C297.862 232.223 297.119 234.152 296.318 236.23Z" fill="white"/>
<path d="M260.278 153.791C262.186 156.068 263.642 157.801 265.119 159.561C253.666 178.223 249.23 191.291 249.778 205.186C255.227 206.264 260.778 207.362 267.095 208.612C266.004 211.538 265.234 213.598 264.504 215.551C259.159 214.872 254.392 214.267 248.034 213.46C250.099 227.102 251.97 239.45 253.896 252.173C252.078 252.774 250.099 253.43 246.632 254.578C244.376 241.335 242.203 228.588 239.916 215.153C236.835 216.024 233.453 216.987 229.771 218.031C228.632 216.213 227.524 214.443 225.947 211.923C228.578 210.761 230.757 209.119 233.068 208.903C240.22 208.237 241.551 203.838 242.119 197.663C243.349 184.237 247.744 171.74 255.2 160.426C256.578 158.335 258.24 156.436 260.278 153.791Z" fill="white"/>
<path d="M204.558 226.963C203.977 225.706 203.396 224.446 202.812 223.186C198.217 225.632 193.619 228.077 189.021 230.527C189.569 231.604 190.116 232.686 190.663 233.763C195.295 231.496 199.927 229.229 204.558 226.963ZM189.538 241.564C194.298 250.821 199.231 250.392 222.467 238.871C223.791 240.632 225.17 242.463 226.825 244.662C218.4 250.659 209.748 255.108 199.629 255.831C192.15 256.365 186.302 253.405 182.633 246.632C178.822 239.588 178.673 232.594 183.65 226.145C188.93 219.3 195.923 215.419 204.819 216.507C213.139 217.527 216.102 223.077 210.822 229.371C206.944 233.996 200.93 236.909 195.646 240.233C194.011 241.26 191.65 241.138 189.538 241.564Z" fill="white"/>
<path d="M141.109 219.25H147.869C149.281 235.209 156.568 247.081 172.879 252.28C172.106 254.905 171.47 257.047 170.856 259.132C152.967 255.615 138.923 236.628 141.109 219.25Z" fill="white"/>
<path d="M161.633 188.882C162.883 186.321 163.869 184.294 165.058 181.854C176.129 188.385 182.724 197.311 185.383 210.128C183.129 210.706 180.994 211.246 177.886 212.04C175.805 202.007 170.599 194.182 161.633 188.882Z" fill="white"/>
</svg>
