<svg width="388" height="420" viewBox="0 0 388 420" fill="none" xmlns="http://www.w3.org/2000/svg">
<path d="M244.899 296.409L251.541 251.162C251.956 248.047 252.476 245.037 253.514 241.926L236.699 245.554L234.831 232.169L255.693 224.801H277.382L267.314 296.409H244.899Z" fill="white"/>
<path d="M217.851 232.213C217.851 245.832 197.466 250.761 186.939 250.761C176.409 250.761 156.027 245.832 156.027 232.213C156.027 218.592 176.409 213.666 186.939 213.666C193.314 213.666 199.689 214.825 205.487 217.433V165.558L131.297 188.453V256.943C131.297 270.565 110.912 275.49 100.385 275.49C89.8549 275.49 69.4731 270.565 69.4731 256.943C69.4731 243.321 89.8549 238.396 100.385 238.396C106.76 238.396 113.135 239.554 118.933 242.163V148.75C118.933 144.693 121.635 141.119 125.5 139.862L205.872 115.132C206.74 114.842 207.612 114.747 208.578 114.747C213.696 114.747 217.851 118.899 217.851 124.021V232.213Z" fill="white"/>
</svg>
