<svg width="388" height="420" viewBox="0 0 388 420" fill="none" xmlns="http://www.w3.org/2000/svg">
<path d="M248.054 212.32L248.348 212.175L248.061 212.027L248.054 212.32ZM281.088 145.996C281.01 146.223 280.949 146.388 280.892 146.554C281.007 146.513 281.192 146.496 281.219 146.422C281.253 146.331 281.155 146.192 281.088 145.996ZM124.101 135.516L123.757 135.635C123.905 135.709 124.054 135.78 124.203 135.854C124.169 135.739 124.135 135.628 124.101 135.516ZM258.453 174.827L258.216 174.476L258.04 174.868L258.453 174.827ZM139.426 151.469L139.03 151.412L139.172 151.77L139.426 151.469ZM283.23 186.05L283.422 185.746L283.047 185.743L283.23 186.05ZM255.956 231.114L256 230.733L255.659 230.875L255.956 231.114ZM144.466 165.172L144.817 165.82C144.932 165.729 145.159 165.601 145.142 165.55C145.067 165.32 144.926 165.114 144.807 164.902C144.696 164.989 144.581 165.081 144.466 165.172ZM274.294 220.087C274.162 220 274.03 219.912 273.899 219.824C273.757 220.064 273.615 220.304 273.473 220.543C273.608 220.621 273.848 220.78 273.861 220.763C274.027 220.554 274.159 220.317 274.294 220.087ZM293.473 176.875C293.584 176.773 293.763 176.689 293.787 176.57C293.807 176.476 293.645 176.341 293.564 176.223C293.395 176.395 293.223 176.564 293.051 176.736C293.192 176.78 293.334 176.827 293.473 176.875ZM163.804 220.844C163.669 220.641 163.537 220.435 163.382 220.246C163.371 220.236 163.165 220.388 163.051 220.462C163.192 220.668 163.334 220.878 163.476 221.084C163.584 221.003 163.696 220.925 163.804 220.844ZM88.2431 163.956C88.3816 163.989 88.5201 164.023 88.6586 164.054C88.6688 163.864 88.6755 163.672 88.6856 163.479C88.5437 163.506 88.3647 163.496 88.2768 163.577C88.2093 163.645 88.2499 163.827 88.2431 163.956ZM261.618 148.861C261.844 148.753 262.013 148.672 262.179 148.594C262.061 148.54 261.915 148.418 261.834 148.452C261.743 148.489 261.713 148.665 261.618 148.861ZM268.675 164.361V163.918C268.459 164.013 268.246 164.111 268.034 164.206C268.118 164.32 268.186 164.503 268.29 164.53C268.398 164.554 268.54 164.425 268.675 164.361ZM274.73 163.175C274.507 163.027 274.284 162.878 274.061 162.729C273.969 162.969 273.844 163.206 273.8 163.452C273.787 163.516 274.084 163.726 274.128 163.699C274.348 163.557 274.534 163.358 274.73 163.175ZM192.007 162.773H191.77V163.608C191.848 163.608 191.929 163.608 192.007 163.608V162.773ZM238.189 180.621C238.439 179.689 238.314 180.155 238.189 180.621C239.037 180.733 238.615 180.675 238.189 180.621ZM140.246 160.283C139.969 160.29 139.692 160.293 139.415 160.3C139.344 160.834 139.274 161.371 139.203 161.905L140.537 161.898C140.439 161.361 140.341 160.824 140.246 160.283ZM146.976 167.378C146.665 167.648 146.351 167.918 146.04 168.192C146.473 168.591 146.905 168.986 147.338 169.384C147.547 169.205 147.757 169.023 147.966 168.844C147.638 168.354 147.307 167.864 146.976 167.378ZM252.571 169.736C252.459 169.401 252.348 169.067 252.236 168.736C251.699 169.006 251.159 169.28 250.621 169.55C250.723 169.787 250.828 170.023 250.929 170.259C251.476 170.084 252.024 169.908 252.571 169.736ZM142.385 147.354C142.233 147.131 142.081 146.908 141.929 146.685L140.338 147.753C140.5 147.986 140.659 148.222 140.821 148.459C141.341 148.091 141.865 147.722 142.385 147.354ZM270.551 190.104C270.676 190.476 270.801 190.851 270.926 191.222C271.507 190.959 272.088 190.692 272.672 190.428C272.598 190.199 272.524 189.966 272.446 189.739L270.551 190.104ZM276.155 151.705C275.865 151.3 275.689 151.053 275.51 150.803C275.162 151.07 274.78 151.31 274.49 151.628C274.446 151.678 274.868 152.33 274.973 152.303C275.378 152.199 275.74 151.935 276.155 151.705ZM123.905 129.685C123.699 129.445 123.524 129.054 123.311 129.033C123.084 129.013 122.824 129.344 122.581 129.52C122.844 129.824 123.111 130.131 123.375 130.439C123.551 130.185 123.73 129.935 123.905 129.685ZM136.138 156.246C135.871 156.412 135.605 156.577 135.338 156.743C135.763 157.439 136.186 158.135 136.611 158.827C136.888 158.655 137.169 158.483 137.446 158.31C137.01 157.625 136.574 156.935 136.138 156.246ZM270.192 157.918C269.875 157.834 269.554 157.753 269.233 157.668C269.054 158.334 268.875 159 268.696 159.662C269.02 159.75 269.344 159.834 269.669 159.918L270.192 157.918ZM148.828 159.53C149.01 159.814 149.192 160.098 149.371 160.381C150 159.976 150.625 159.574 151.25 159.168C151.074 158.895 150.899 158.618 150.723 158.344L148.828 159.53ZM141.426 133.719C141.794 134.006 142.162 134.297 142.534 134.584C142.841 133.949 143.152 133.31 143.459 132.675C143.199 132.51 142.936 132.348 142.672 132.182L141.426 133.719ZM138.078 135.939C138.5 135.959 138.926 135.983 139.351 136.006C139.405 135.074 139.456 134.141 139.51 133.212L138.679 133.104C138.48 134.047 138.277 134.993 138.078 135.939ZM284.652 177.212C284.436 176.827 284.219 176.442 284 176.06C283.361 176.381 282.719 176.706 282.081 177.03C282.307 177.456 282.534 177.881 282.763 178.307C283.392 177.942 284.024 177.577 284.652 177.212ZM269.753 144.905C269.453 144.766 269.152 144.628 268.851 144.486C268.405 145.138 267.959 145.79 267.513 146.442C268.044 146.692 268.578 146.945 269.108 147.195C269.324 146.432 269.537 145.668 269.753 144.905ZM161.402 215.314C161.047 215.084 160.689 214.858 160.331 214.631L158.804 217.354C159.128 217.554 159.453 217.75 159.777 217.949L161.402 215.314ZM132.946 148.584C133.128 148.175 133.311 147.766 133.493 147.358C132.713 146.996 131.929 146.631 131.145 146.27C130.963 146.689 130.777 147.104 130.591 147.523C131.378 147.878 132.162 148.229 132.946 148.584ZM135.605 212.263C135.341 212.54 135.078 212.82 134.814 213.101C135.871 214.111 136.929 215.121 137.986 216.131C138.179 215.929 138.368 215.726 138.557 215.527C137.574 214.439 136.591 213.351 135.605 212.263ZM306.922 198.641C307.003 198.236 307.088 197.827 307.172 197.422C305.574 197.26 303.973 197.101 302.371 196.939C302.328 197.253 302.284 197.564 302.24 197.878C303.801 198.135 305.361 198.388 306.922 198.641ZM254.804 171.979C255.118 172.351 255.432 172.726 255.746 173.098C257.037 172.074 258.331 171.054 259.621 170.03C259.206 169.55 258.79 169.067 258.375 168.587L254.804 171.979ZM181.922 176.266C182.257 176.76 182.591 177.256 182.922 177.75C184.135 176.915 185.344 176.077 186.554 175.239C186.243 174.78 185.932 174.32 185.621 173.858L181.922 176.266ZM109.811 167.314C109.442 167.648 109.071 167.986 108.703 168.32C110.088 169.837 111.473 171.351 112.861 172.868C113.213 172.547 113.564 172.229 113.915 171.908C112.547 170.378 111.179 168.844 109.811 167.314ZM287.723 173.172C287.54 172.489 287.358 171.807 287.172 171.125C285.942 171.429 284.709 171.736 283.473 172.04C283.659 172.736 283.844 173.435 284.03 174.135C285.26 173.814 286.49 173.493 287.723 173.172ZM261.605 179.131C261.77 179.827 261.936 180.52 262.101 181.216C263.605 180.743 265.111 180.27 266.615 179.797C266.483 179.3 266.348 178.804 266.213 178.307C264.676 178.581 263.138 178.854 261.605 179.131ZM125.942 141.141C125.554 141.233 125.169 141.327 124.78 141.418C125 142.766 125.138 144.138 125.551 145.425C125.598 145.581 127.135 145.26 128.415 145.104C127.382 143.449 126.662 142.293 125.942 141.141ZM265.176 154.483C266.078 154.388 266.983 154.29 267.885 154.195C267.594 152.543 267.304 150.895 267.017 149.246C266.236 149.358 265.459 149.473 264.682 149.584C264.848 151.219 265.013 152.851 265.176 154.483ZM129.429 134.023C128.503 134.527 127.578 135.03 126.649 135.533C127.527 136.986 128.399 138.435 129.274 139.888L131.665 138.584C130.919 137.064 130.176 135.543 129.429 134.023ZM240.892 208.25C239.875 208.081 238.858 207.915 237.844 207.746C237.564 209.564 237.29 211.381 237.01 213.199L239.463 213.665C239.939 211.858 240.415 210.054 240.892 208.25ZM156.057 226.348C159.067 227.891 161.412 229.094 163.757 230.297C163.973 230.003 164.192 229.709 164.412 229.415C162.682 227.513 160.956 225.614 159.213 223.692C158.165 224.574 157.402 225.216 156.057 226.348ZM114.851 138.101L113.814 139.949C116.044 140.908 118.274 141.871 120.503 142.831C120.807 142.104 121.115 141.381 121.422 140.655C119.233 139.804 117.044 138.952 114.851 138.101ZM121.118 135.844C119.358 133.216 118 131.182 116.361 128.736C114.088 135.216 115.078 136.831 121.118 135.844ZM240.091 221.378C238.429 224.331 236.919 227.013 235.199 230.067C239.118 229.871 242.27 229.716 246.324 229.516C243.74 226.138 241.98 223.837 240.091 221.378ZM245.547 225.03C248.226 225.371 251.821 225.831 255.517 226.304C255.767 220.611 251.909 217.006 245.547 215.574V225.03ZM173.625 212.8C177.49 212.591 177.223 212.631 176.594 208.699C175.642 202.719 173.064 196.618 179.132 191.253C181 189.598 180.892 185.709 181.98 181.783C168.635 190.432 175.01 202.483 173.625 212.8ZM240.361 183.983C243.689 184.78 246.024 185.344 248.953 186.047C250.581 187.483 253.013 189.635 255.382 191.726C261.294 187.185 256.983 184.229 255.054 181.5C252.692 178.152 246.821 178.996 240.361 183.983ZM116.405 176.098C115.956 176.243 115.503 176.385 115.054 176.53C114.105 189.351 117.608 202.702 123.75 204.26C122.865 200.128 122.179 196.591 121.331 193.094C120.689 190.452 119.834 187.861 119.074 185.25C118.186 182.199 117.294 179.148 116.405 176.098ZM175.939 219.337C176.236 218.949 176.53 218.557 176.828 218.165C175.267 217.192 173.706 216.216 172.03 215.168C168.547 223.493 171.216 237.787 177.557 240.206C177.557 236.378 177.767 233.043 177.5 229.75C177.216 226.26 176.48 222.807 175.939 219.337ZM216.858 226.537C221.483 227.341 226.013 228.131 230.777 228.959C233.111 224.206 235.051 220.256 237.101 216.081C228.855 214.618 218.655 219.594 216.858 226.537ZM145.274 157.027L145.219 157.084C145.655 156.175 146.088 155.266 146.121 155.192C150.297 156.074 153.946 156.844 157.615 157.621C155.466 159.402 153.534 161 150.513 163.506C155.76 161.858 159.382 160.723 163 159.584C152.723 164.527 152.584 164.729 154.49 174.878C164.257 175.513 161.584 186.554 167.578 192.439C170.784 187.422 173.882 183.223 176.182 178.625C176.956 177.077 176.385 174.023 175.277 172.496C168.412 163.064 161.544 153.594 153.946 144.77C151.659 142.111 147.098 140.462 143.466 140.239C140.912 140.084 138.162 143.121 135.5 144.733C135.861 145.341 136.219 145.952 136.578 146.56C139.513 145.094 142.453 143.625 146.024 141.841C145.524 144.733 145.169 146.777 144.746 149.222C148.027 148.976 150.52 148.79 153.774 148.547C149.915 152.381 142.385 149.29 141.591 157.027C143.067 157.027 144.172 157.027 145.274 157.027ZM146.412 173.763C146.094 174.983 145.78 176.202 145.466 177.422C146.044 177.418 146.621 177.415 147.203 177.408C146.912 176.209 146.625 175.01 146.338 173.81C144.642 171.966 142.946 170.121 141.138 168.158C139.422 169.628 138.297 170.587 136.834 171.837C137.371 169.02 137.773 166.905 138.294 164.152H131.094C130.922 159.912 127.983 159.273 125.53 160.996C123.226 162.611 120.449 165.824 120.574 168.195C120.949 175.425 122.625 182.587 123.946 190.712C127.794 188.591 131.371 187.175 134.263 184.895C138.567 181.503 142.388 177.503 146.412 173.763ZM261.733 175.915C268.99 176.817 274.848 173.317 281.635 170.385C275.635 167.104 265.524 170.361 261.801 175.983L261.733 175.915ZM262.821 185.375L262.774 185.429C265.76 185.675 268.79 186.348 271.73 186.064C275.341 185.716 278.878 184.574 282.446 183.777C282.344 183.037 282.24 182.297 282.135 181.56C279.625 181.337 276.959 180.476 274.642 181.037C270.591 182.02 266.75 183.881 262.821 185.375ZM264.926 228.449C264.037 229.736 263.149 231.016 262.206 232.381C268.28 235.449 268.736 235.337 269.588 231.084C268.024 230.199 266.459 229.31 264.899 228.422C266.537 227.82 268.179 227.216 269.821 226.614C269.294 225.912 268.767 225.206 268.24 224.503C267.135 225.817 266.03 227.135 264.926 228.449ZM130.703 151.631L130.375 151.601L130.412 151.929C130.645 154.503 128.054 158.182 134.709 159.361C133.024 156.108 131.865 153.868 130.703 151.631ZM243.932 190.655C242.159 191.023 240.388 191.391 238.615 191.76C239.78 190.145 240.949 188.527 242.057 186.986C238.476 185.861 238.034 186.402 238.686 191.665C241.108 194.756 242.459 192.456 243.905 190.628L243.932 190.655ZM280.676 190.608L281.013 190.77C280.878 190.743 280.743 190.716 280.608 190.689C280.426 189.506 280.243 188.331 280.061 187.148C279.351 187.912 278.638 188.675 277.929 189.435C278.844 189.827 279.76 190.219 280.676 190.608ZM292.196 187.456C292.48 186.638 292.767 185.817 293.054 185C292.591 184.935 292.128 184.868 291.665 184.804C291.865 185.716 292.071 186.628 292.27 187.537C291.932 187.675 291.598 187.81 292.057 187.625C291.743 188.013 291.969 187.733 292.196 187.456ZM261.787 226.293L261.74 226.344L258.621 222.168L258.655 222.131C259.699 223.52 260.743 224.908 261.787 226.293ZM149.402 133.888C149.746 133.523 150.091 133.155 149.608 133.668C149.888 133.027 149.686 133.493 149.483 133.959C149.422 134.087 149.361 134.212 149.301 134.341C149.334 134.189 149.368 134.04 149.402 133.888ZM133.733 138.199C133.382 138.888 133.034 139.574 132.686 140.263L132.645 140.219C132.983 139.52 133.324 138.82 133.662 138.118L133.733 138.199ZM252.341 176.973L252.29 177.027C252.29 177.027 252.344 176.973 252.341 176.973ZM140.013 219.996C140.371 220.354 140.73 220.712 141.088 221.07C144.395 222.263 147.706 223.462 151.013 224.655L152.28 222.875C151.287 220.277 150.294 217.679 149.297 215.077C149.581 215.067 149.865 215.05 150.149 215.04C149.632 212.013 149.111 208.983 148.561 205.766C150.652 208.32 152.537 210.621 154.716 213.277C154.52 214.709 154.172 217.273 153.824 219.837C154.371 220.006 154.919 220.172 155.463 220.337C156.824 216.875 158.182 213.408 159.54 209.945C159.828 209.716 160.115 209.486 160.402 209.26C161.388 209.854 162.375 210.452 163.436 211.091C164.149 208.986 164.74 207.243 165.331 205.5C165.611 205.601 165.888 205.699 166.165 205.797C166.24 207.358 166.311 208.918 166.436 211.621C169.878 205.003 167.797 200.486 164.49 196.067C161.811 192.483 159.344 188.736 156.784 185.064C156.696 183.743 155.449 183.567 154.426 182.993C147.706 179.222 141.716 179.145 136.733 185.956C135.953 187.02 134.524 187.638 133.334 188.371C126.821 192.395 126.378 193.533 128.49 201.182L128.415 201.108C128.159 202.773 127.902 204.439 127.422 207.547C132.753 208.408 137.554 209.185 142.263 209.945V216.611C144.618 218.368 146.665 219.898 148.716 221.429C148.534 221.716 148.351 222.003 148.169 222.287C145.79 221.902 143.412 221.513 141.034 221.125C140.676 220.766 140.317 220.408 139.959 220.047C139.611 219.696 139.26 219.348 138.912 218.996C138.912 218.996 138.963 218.942 138.966 218.945C139.314 219.293 139.662 219.645 140.013 219.996ZM210.304 152.82C216.28 153.756 222.26 154.692 228.976 155.743C229.584 152.361 230.23 148.763 230.878 145.165C231.284 145.196 231.692 145.229 232.101 145.26C232.351 146.861 232.598 148.462 233.152 151.996C235.132 148.743 236.392 146.679 237.652 144.611C238.149 145.06 238.645 145.51 239.142 145.959C238.561 147.074 237.976 148.189 237.294 149.496C238.27 150.344 239.26 151.206 240.54 152.32C238.686 153.304 237.199 154.094 235.676 154.905V159.165C231.686 158.53 228.084 157.922 224.469 157.391C220.703 156.837 216.926 156.02 213.149 156.02C211.709 156.02 210.267 157.959 208.672 159.128C209.872 160.986 210.672 162.233 211.736 163.885C206.784 164.885 201.986 165.442 197.5 166.935C195.084 167.736 192.419 169.719 191.226 171.908C187.831 178.145 185.132 184.756 182.294 190.932C184.665 193.479 186.057 194.969 187.784 196.82V234.189L189.605 234.841C194 231.888 199.165 229.621 202.584 225.797C206.263 221.682 209.547 220.459 215.145 223.31V214.912C222.301 222.223 225.834 213.087 231.263 211.655C231.53 211.763 231.797 211.871 232.064 211.979C231.78 211.881 231.497 211.793 231.209 211.702C231.986 210.32 232.76 208.935 233.534 207.55C234.064 207.206 234.594 206.861 235.128 206.516C234.963 206.327 234.797 206.141 234.632 205.952C234.199 206.412 233.77 206.871 233.338 207.331C230.98 206.753 228.622 206.175 226.263 205.598C226.361 204.935 226.459 204.273 226.557 203.611C230.892 204.114 235.223 204.665 239.567 205.07C240.277 205.138 241.047 204.567 241.79 204.29C241.834 204.192 241.882 204.098 241.926 204.003C241.909 204.121 241.888 204.239 241.872 204.361C241.236 203.864 240.605 203.368 238.76 201.925C241.797 201.206 243.611 200.773 245.429 200.341C245.591 200.841 245.757 201.337 245.919 201.834C244.983 203.587 244.047 205.344 243.024 207.256C249.848 207.503 250.149 205.246 252.209 193.695C248.76 191.395 248.76 191.395 239.801 195.763C238.405 194.192 236.831 192.415 235.679 191.121C233.581 190.449 231.723 189.854 229.865 189.263C229.966 188.739 230.067 188.216 230.169 187.695C231.726 187.483 233.284 187.273 235.49 186.973C234.645 185.702 233.986 184.712 233.189 183.513C233.784 183.064 234.52 182.51 236.061 181.351C233.152 179.739 230.73 178.398 226.909 176.28C231.294 176.611 234.182 176.827 237.179 177.054C237.551 175.219 237.875 173.625 238.172 172.162C239.824 174.27 241.314 176.165 242.804 178.064C243.054 178.175 243.307 178.287 243.554 178.405C243.284 178.31 243.017 178.209 242.747 178.108C242.828 176.668 242.909 175.229 242.986 173.793L242.929 173.851C244.432 173.641 245.936 173.432 248.044 173.138C247.895 170.405 247.763 168.027 247.652 165.989H264.824C264.824 163.04 265.5 160 264.676 157.442C263.28 153.114 259.067 152.087 254.25 154.516C250.845 156.233 247.804 157.175 245.605 153.885C249.963 153.114 254.412 152.324 260.611 151.226C257.182 149.05 255.125 147.743 252.402 146.02C252.949 144.476 253.547 142.783 254.02 141.449C257.584 143.094 260.47 144.425 263.571 145.858C264.75 142.141 265.713 139.098 266.554 136.442C270.108 137.03 273.189 137.54 276.973 138.168C275.588 140.121 274.439 141.743 273.287 143.364L273.334 143.334L273.125 145.195C273.294 145.432 273.463 145.668 273.628 145.905C280.061 145.29 286.49 144.675 292.919 144.06C293.057 144.878 293.199 145.695 293.341 146.513C288.676 147.645 284.007 148.777 279.044 149.979C278.946 151.658 278.855 153.131 278.73 155.253C281.689 154.347 284.118 153.608 287.311 152.631C287.713 154.05 288.598 156.415 288.375 156.523C285.267 158.057 282.007 159.28 278.551 160.672C278.632 161.56 278.797 163.351 279.067 166.293C283.209 165.624 287.274 164.969 291.422 164.3C290.797 166.837 290.226 169.158 289.382 172.567C292.449 171.577 293.875 171.114 295.544 170.574C296.024 171.983 296.459 173.26 296.939 174.679C297.824 174.236 298.679 173.807 299.905 173.195C299.78 174.702 299.686 175.868 299.591 177.03L299.524 176.962C299.922 179.253 300.318 181.54 300.787 184.222C302.253 183.844 303.834 183.439 305.699 182.959C305.861 184.462 306.02 185.915 306.27 188.229H294.885C294.821 188.726 294.753 189.219 294.686 189.716C295.966 190.148 297.247 190.581 298.608 191.04C298.365 192.185 298.081 193.527 297.797 194.868C298.172 195.118 298.551 195.368 298.926 195.618C300.199 194.25 301.476 192.878 303.415 190.793C304.814 191.851 306.341 193.006 307.966 194.236C308.534 193.219 309.274 191.895 310.091 190.429C311.159 190.912 312.057 191.32 313.176 191.827C312.263 193.054 311.415 194.192 310.105 195.956C313.02 196.922 315.399 197.709 317.774 198.496C317.777 198.814 317.777 199.131 317.781 199.449C315.429 199.341 313.078 199.233 310.649 199.121C308.919 200.125 307.041 201.212 304.922 202.442C305.125 203.331 305.392 204.483 305.436 204.665C297.429 201.064 289.301 197.206 280.993 193.8C278.699 192.858 275.828 192.942 273.277 193.175C272.135 193.28 271.128 194.908 269.311 196.503C269.426 196.567 268.172 195.868 266.72 195.054C265.77 195.898 264.899 196.675 264.027 197.452C263.753 197.273 263.463 197.118 263.213 196.912C262.034 195.942 260.112 193.929 259.811 194.148C257.97 195.483 255.892 197.077 255.061 199.07C254.044 201.506 254.179 204.422 253.743 207.662C254.257 208.077 255.122 208.783 256.331 209.77C255.041 210.472 253.838 211.128 251.787 212.246H258.308C258.152 211.817 257.993 211.388 257.835 210.959C261.791 209.466 265.743 207.972 269.699 206.479C269.906 206.939 270.108 207.402 270.311 207.861C266.926 209.662 263.541 211.459 260.159 213.26C260.362 213.76 260.568 214.263 260.77 214.763C262.007 214.648 263.243 214.533 265.172 214.354C264.064 215.787 263.216 216.878 262.433 217.885C260.47 217.226 258.902 216.699 256.983 216.057C258.443 218.986 258.443 218.986 270.865 219.337C271.166 218.29 271.487 217.172 271.672 216.516C274.189 215.672 276.429 214.918 279.547 213.871C278.392 215.253 277.733 216.037 276.889 217.05C281.128 220.405 285.358 223.753 290.324 227.685C284.463 226.212 279.253 224.905 272.395 223.179C272.943 226.864 273.264 229.01 273.794 232.587C269.824 238.51 267.993 238.78 258.821 234.006C257.456 233.3 255.52 233.682 253.851 233.56C253.605 234.054 253.362 234.54 253.118 235.033C255.395 236.614 257.672 238.195 259.922 239.756C255.304 242.56 253.848 236.841 250.149 235.206H234.902C234.906 235.547 234.909 235.888 234.909 236.229C226.463 234.341 218.017 232.449 209.095 230.452C206.186 231.945 202.463 233.689 198.906 235.719C188.848 241.459 185.693 252.26 191.598 262.199C194.139 266.476 197.504 270.405 201.071 273.902C206.216 278.949 212.841 276.949 216.051 271.114C218.973 268.706 221.662 265.895 224.896 264.013C227.615 262.432 230.963 261.932 234.436 261.79C227.848 267.033 219.953 270.516 216.97 278.483C220.436 281.54 223.693 284.094 226.517 287.064C227.76 288.371 228.97 290.726 228.608 292.229C228.304 293.496 225.716 294.216 224.264 295.101C214.129 281.945 214.129 281.945 203.902 281.621C204.25 285.861 204.602 290.101 204.95 294.344C204.26 294.54 203.575 294.743 202.889 294.942C200.244 290.324 197.595 285.709 194.95 281.094C194.564 281.243 194.176 281.395 193.791 281.547L193.24 276.672C192.889 276.699 192.537 276.729 192.186 276.756C192.801 287.631 193.517 298.506 193.946 309.388C194.034 311.604 193.244 315.712 192.51 315.793C188.345 316.253 183.906 316.354 179.923 315.26C178.483 314.861 177.257 310.804 177.284 308.435C177.423 297.27 178.318 286.108 178.26 274.949C178.244 272.236 175.642 269.537 173.828 266.071C177.203 258.476 174.088 251.57 167.993 245.148C162.588 239.459 156.659 235.348 148.936 232.885C143.068 231.013 138.027 226.425 132.764 222.837C130.808 221.506 129.26 219.584 127.494 217.898C125.385 218.875 123.693 219.655 123.483 219.753C117.064 216.959 111.811 214.668 106.74 212.459C97.6692 217.537 97.5442 217.733 97.9631 226.888C96.6151 225 95.703 223.723 94.9057 222.608C92.2097 222.864 89.6185 223.111 87.0273 223.354C92.9699 220.831 97.382 217.581 99.257 209.858H117.673C114.135 207.598 110.933 205.554 107.271 203.212C109.058 201.814 110.483 200.696 111.936 199.554C111.419 193.864 111.189 188.155 110.166 182.594C109.936 181.344 107.031 180.304 105.183 179.719C103.706 179.253 101.966 179.625 100.345 179.625C100.328 179.162 100.308 178.699 100.291 178.236C102.622 177.743 104.953 177.246 108.487 176.496C106.284 173.266 104.605 170.8 102.821 168.189C100.487 169.07 98.5813 169.793 95.7874 170.851C96.7604 169.091 97.3347 168.054 98.3381 166.239H78.1861C76.8989 164.52 75.8854 163.172 74.8753 161.824L75.3921 161.175C76.6117 162.081 77.8347 162.983 79.3347 164.094C80.8043 163.922 82.5104 163.723 84.605 163.479C84.3617 161.956 84.1624 160.706 83.9124 159.118C84.98 159.557 85.7367 159.864 86.4935 160.175C86.4935 160.172 86.4361 160.229 86.4361 160.229C88.0813 159.618 89.7232 159.006 91.7739 158.246C91.9766 160.388 92.1253 161.929 92.2705 163.469L93.3618 163.648C93.7976 162.361 94.23 161.074 94.3381 160.753C97.7131 160.027 100.646 159.391 102.95 158.895C103.777 156 104.443 153.658 105.112 151.317C105.693 151.412 106.271 151.506 106.848 151.598C107.412 155.101 107.977 158.604 108.602 162.489C109.943 161.638 111.004 160.962 111.291 160.78C112.156 163.189 112.99 165.52 114.186 168.848C117.301 164.236 119.48 161.01 122.264 156.881C121.551 155.834 120.385 154.131 119.034 152.155H125.206C125.46 151.753 125.713 151.351 125.966 150.949C124.392 149.371 123.088 147.185 121.189 146.327C115.875 143.932 110.196 142.348 104.902 139.912C102.308 138.719 100.166 136.449 97.9868 134.483C96.2131 132.881 94.6861 131.003 92.1624 128.293C94.4361 128.966 95.7199 129.348 97.007 129.726C97.0036 129.726 96.9294 129.797 96.9294 129.797V125.118C100.494 128.929 98.0814 135.986 105.149 136.858C103.96 132.844 102.869 129.158 101.777 125.469C102.429 125.155 103.085 124.844 103.737 124.53C105.818 127.246 107.896 129.962 110.568 133.456C110.483 133.463 111.818 133.371 113.369 133.266C113.602 130.243 113.818 127.483 114.048 124.513C111.227 122.111 108.456 119.76 104.507 116.398C109.193 115.898 112.882 115.51 115.196 115.263C116.872 119.165 118.463 122.875 120.054 126.581L120.021 126.614C120.76 120.317 121.49 114.02 122.264 107.726C122.362 106.952 122.713 106.206 123.771 105.459C124.115 107.331 124.46 109.202 124.696 110.496C127.2 108.307 129.737 106.094 132.271 103.878C132.666 104.233 133.058 104.587 133.45 104.939C131.041 108.351 128.338 111.598 126.301 115.216C124.281 118.81 121.696 122.75 125.909 127.324C127.112 125.831 127.99 124.743 129.048 123.429C129.72 126.905 130.308 129.949 130.896 132.993C131.372 132.983 131.848 132.969 132.321 132.956C132.716 131.983 133.108 131.01 133.605 129.777C134.588 130.003 135.777 130.283 135.598 130.239C137.612 126.395 139.291 123.182 140.97 119.969C141.558 120.108 142.146 120.246 142.73 120.385C140.558 124.138 139.521 127.614 144.507 130.057C146.7 126.645 148.794 123.381 151.233 119.587C151.676 122.135 152.021 124.111 152.531 127.054C153.669 125.027 154.372 123.777 155.399 121.945V127.922C156.183 128.023 156.97 128.128 156.443 128.057C158.595 131.962 160.321 135.091 162.051 138.216C160.244 137.344 158.433 136.469 156.152 135.364C154.294 139.918 155.848 143.077 159.923 147.57C160.801 143.543 161.389 140.844 161.977 138.145C163.284 137.77 164.591 137.395 165.885 137.027C166.487 138.087 167.061 139.108 167.311 139.547C164.72 142.824 162.362 145.807 159.686 149.189C162.605 151.219 164.558 152.577 166.841 154.165C168.301 152.125 169.561 150.364 170.818 148.604C168.362 155.945 171.97 161.733 175.916 167.027C177.338 168.935 181.308 170.773 183.166 170.084C185.679 169.152 188.615 165.945 188.987 163.371C189.686 158.52 188.679 153.422 188.352 147.868C191.267 153.28 193.994 158.337 197.085 164.077C200.713 157.712 197.835 150.01 202.311 144.405C201.96 148.756 201.608 153.108 201.267 157.347C202.899 158.202 204.091 158.827 206.831 160.266V152.111C207.091 151.885 207.348 151.658 207.608 151.432C208.5 150.314 209.389 149.195 210.281 148.081C210.581 148.118 210.882 148.155 211.179 148.192C210.909 149.763 210.642 151.334 210.375 152.902L210.304 152.82Z" fill="white"/>
<path d="M253.469 161.567C253.148 162.634 252.823 163.702 252.502 164.77C251.942 164.628 251.381 164.486 250.82 164.344C251.073 163.253 251.327 162.162 251.58 161.07C252.212 161.236 252.84 161.401 253.469 161.567Z" fill="white"/>
<path d="M186.404 144.318C186.36 143.558 186.313 142.798 186.269 142.037C186.553 141.99 186.837 141.943 187.121 141.896C187.317 142.625 187.512 143.355 187.708 144.085C187.273 144.162 186.84 144.24 186.404 144.318Z" fill="white"/>
<path d="M171.54 139.229C170.803 138.402 170.064 137.574 169.327 136.75C169.824 136.527 170.324 136.307 170.82 136.084C171.033 137.108 171.249 138.131 171.462 139.152L171.54 139.229Z" fill="white"/>
<path d="M219.213 170.202C219.493 171.006 219.773 171.814 220.057 172.618L219.05 173.084C218.648 172.26 218.25 171.439 217.848 170.614C218.3 170.476 218.757 170.341 219.213 170.202Z" fill="white"/>
<path d="M234.628 170.898C234.929 171.537 235.23 172.175 235.534 172.814C235.3 172.949 235.071 173.084 234.841 173.219C234.412 172.632 233.986 172.047 233.557 171.459C233.915 171.273 234.27 171.084 234.628 170.898Z" fill="white"/>
<path d="M219.435 167.774C218.716 167.821 217.999 167.865 217.283 167.912C217.226 167.635 217.172 167.358 217.114 167.078C217.834 166.902 218.553 166.723 219.276 166.544L219.435 167.774Z" fill="white"/>
<path d="M113.671 151.844C113.137 151.797 112.604 151.753 112.07 151.706C112.087 151.476 112.107 151.246 112.124 151.017C112.658 151.057 113.192 151.094 113.725 151.135C113.705 151.371 113.688 151.608 113.671 151.844Z" fill="white"/>
<path d="M165.702 149.97C165.564 149.686 165.432 149.423 165.303 149.162C165.58 149.054 165.895 148.821 166.128 148.882C166.314 148.929 166.401 149.341 166.533 149.591C166.263 149.716 165.993 149.838 165.702 149.97Z" fill="white"/>
<path d="M171.462 139.152C171.29 139.483 171.114 139.815 171.35 139.365C170.935 139.659 171.239 139.446 171.54 139.23L171.462 139.152Z" fill="white"/>
<path d="M214.698 159.615C214.435 159.709 214.269 159.827 214.144 159.79C214.056 159.767 214.026 159.537 213.969 159.398C214.181 159.463 214.391 159.523 214.698 159.615Z" fill="white"/>
<path d="M176.101 142.172C175.834 142.145 175.567 142.118 175.301 142.087C175.321 141.952 175.338 141.696 175.358 141.696C175.632 141.692 175.909 141.723 176.182 141.746C176.155 141.888 176.128 142.03 176.101 142.172Z" fill="white"/>
<path d="M273.287 143.364C273.402 144.209 273.513 145.057 273.628 145.905C273.463 145.668 273.294 145.432 273.125 145.195L273.334 143.334L273.287 143.364Z" fill="white"/>
<path d="M242.986 173.794C242.868 173.763 242.753 173.733 242.638 173.706C242.733 173.753 242.831 173.801 242.929 173.851L242.986 173.794Z" fill="white"/>
<path d="M267.851 217.571L267.861 217.243L268.185 217.412L267.851 217.571Z" fill="white"/>
<path d="M206.83 152.111C206.698 151.821 206.563 151.527 206.428 151.236C206.82 151.301 207.212 151.365 207.604 151.432C207.347 151.659 207.09 151.885 206.83 152.111Z" fill="white"/>
<path d="M159.54 209.943V207.206C159.976 207.263 160.409 207.324 160.844 207.382C160.696 208.007 160.547 208.635 160.402 209.26C160.115 209.486 159.828 209.716 159.54 209.943Z" fill="white"/>
<path d="M128.49 201.182L128.415 201.111C128.415 201.108 128.49 201.182 128.49 201.182Z" fill="white"/>
<path d="M148.375 146.118C148.159 146.189 148.044 146.23 147.926 146.27C147.895 146.159 147.865 146.047 147.834 145.933C147.986 145.987 148.142 146.037 148.375 146.118Z" fill="white"/>
<path d="M254.969 186.892C254.229 186.953 253.486 187.014 252.746 187.078C252.719 186.774 252.692 186.47 252.668 186.163C253.408 186.099 254.151 186.031 254.891 185.967C254.918 186.274 254.945 186.582 254.969 186.892Z" fill="white"/>
<path d="M250.665 221.29C250.473 221.517 250.321 221.848 250.084 221.922C249.932 221.966 249.665 221.628 249.449 221.463C249.628 221.233 249.77 220.885 249.996 220.814C250.148 220.767 250.426 221.108 250.665 221.29Z" fill="white"/>
</svg>
