<svg width="388" height="420" viewBox="0 0 388 420" fill="none" xmlns="http://www.w3.org/2000/svg">
<path d="M288.5 198.578C288.639 198.261 288.7 198.119 288.761 197.977C292.179 189.835 291.085 182.375 285.443 175.568C285.075 175.125 284.875 174.433 284.845 173.845C284.683 170.747 284.632 167.642 284.484 164.541C284.017 155.041 283.514 145.538 281.794 136.166C281.237 133.142 280.335 130.136 279.193 127.281C278.071 124.477 275.777 123.487 272.784 123.916C270.345 124.264 268.298 125.487 266.365 126.913C262.487 129.771 259.294 133.321 256.335 137.085C255.767 137.805 255.301 138.024 254.372 137.771C246.781 135.693 239.075 135.409 231.308 136.531C230.565 136.639 230.088 136.514 229.575 135.902C224.288 129.578 217.804 124.886 210.102 121.94C207.946 121.119 205.798 119.994 203.355 120.713C200.085 115.872 195.457 112.984 190.156 111.027C184.818 109.061 179.254 108.203 173.615 107.632C162.48 106.504 151.392 106.284 140.328 108.402C132.051 109.987 123.967 112.088 116.453 116.027C105.142 121.96 97.9227 130.879 95.9025 143.74C94.9126 150.051 94.4531 156.386 94.4227 162.757C94.4059 165.977 95.2876 168.97 97.0308 171.68C97.764 172.818 98.9565 173.788 99.2977 175.011C99.6525 176.277 99.166 177.761 99.1626 179.149C99.1356 184.723 99.1288 190.298 99.1727 195.872C99.1796 196.69 98.9126 197.058 98.1795 197.359C95.4227 198.484 92.693 199.686 89.943 200.838C88.4193 201.477 88.0916 201.889 88.1085 203.514C88.112 204.227 88.1592 204.946 88.2707 205.652C88.6727 208.125 89.1693 210.582 89.5139 213.061C89.8923 215.754 91.3856 217.551 93.7268 218.747C94.318 219.048 94.9396 219.288 95.5342 219.551C94.4565 223.7 94.8687 224.47 99.1491 226.335C99.1491 228.328 99.1964 230.355 99.1186 232.379C99.0984 232.899 98.8213 233.534 98.4463 233.886C95.5173 236.642 92.5071 239.311 89.5882 242.071C88.7605 242.852 88.0173 243.784 87.4531 244.771C85.5781 248.061 86.2301 251.821 89.0612 254.707C91.7639 257.46 95.0477 257.96 98.5274 256.146C98.6862 256.065 98.8754 256.038 99.1457 255.957C99.1118 262.46 99.4767 268.832 101.325 275.21C100.774 275.007 100.426 274.828 100.061 274.757C98.5882 274.477 97.1085 274.011 95.6321 274.011C92.068 274.011 89.2267 276.531 88.1085 280.402C87.1288 283.811 88.2538 286.94 91.2098 288.96C92.9159 290.129 94.6288 291.288 96.3585 292.423C101.517 295.808 106.74 299.082 112.541 301.298C115.703 302.507 118.933 303.267 122.342 302.612C124.446 302.203 126.558 301.811 128.639 301.291C131.108 300.676 133.541 300.139 136.139 300.169C145.811 300.288 155.487 300.261 165.159 300.271C181.321 300.291 197.487 300.321 213.649 300.284C216.595 300.274 219.396 300.582 222.065 301.953C223.683 302.788 225.446 303.342 227.109 304.105C228.348 304.676 229.521 304.69 230.788 304.196C233.973 302.957 237.179 301.771 240.386 300.582C240.821 300.419 241.304 300.288 241.767 300.288C246.423 300.271 251.081 300.332 255.737 300.281C259.196 300.243 262.656 300.105 266.115 299.953C270.808 299.747 274.588 297.466 278.071 294.558C284.092 289.531 289.102 283.544 294.034 277.497C294.615 276.787 295.004 275.828 295.21 274.923C296.423 269.551 291.477 264.179 285.997 264.841C285.585 264.892 285.173 264.943 284.913 264.973V248.517C287.396 248.943 289.666 249.342 291.94 249.716C294.771 250.186 297.166 249.331 298.95 247.095C302.031 243.23 302.436 236.608 295.744 233.602C292.484 232.139 289.129 230.875 285.801 229.561C285.149 229.304 284.848 228.98 284.916 228.264C284.977 227.602 284.926 226.929 284.926 226.264C286.527 225.919 287.923 225.45 288.69 224.007C289.467 222.541 289.014 221.081 288.538 219.629C289.284 219.294 289.987 219.024 290.649 218.673C292.328 217.787 293.811 216.544 294.19 214.679C294.94 210.987 295.423 207.24 295.97 203.51C296.166 202.166 295.477 201.372 294.22 200.902C292.328 200.193 290.47 199.386 288.5 198.578ZM294.534 196.031C295.038 196.237 295.473 196.419 295.916 196.595C299.24 197.906 300.943 200.271 300.652 203.899C300.396 207.135 299.717 210.341 299.254 213.561C298.754 217.048 297.146 219.855 294.257 221.909C294.054 222.051 293.872 222.304 293.808 222.541C293.386 224.051 293 225.571 292.565 227.227C294.075 227.855 295.808 228.524 297.5 229.284C301.453 231.051 304.22 233.899 305.355 238.162C307.183 245.024 302.666 252.679 295.777 254.183C294.227 254.524 292.548 254.281 290.926 254.281C290.541 254.281 290.152 254.166 289.538 254.068C289.538 256.108 289.507 258.037 289.575 259.963C289.585 260.179 290.098 260.46 290.426 260.571C295.521 262.321 298.679 265.852 299.831 271.068C300.558 274.369 299.936 277.581 297.808 280.216C292.554 286.72 287.183 293.135 280.646 298.433C277.213 301.213 273.548 303.588 269.061 304.25C263.771 305.031 258.443 305.064 253.105 304.939C249.49 304.852 245.865 304.936 242.247 304.977C241.825 304.98 241.396 305.166 240.99 305.314C237.936 306.453 234.889 307.598 231.838 308.744C229.848 309.49 227.879 309.446 225.916 308.625C223.315 307.534 220.713 306.436 218.095 305.389C217.524 305.162 216.872 305.034 216.257 305.027C206.625 304.987 196.997 304.96 187.365 304.953C175.348 304.94 163.328 304.963 151.311 304.943C145.899 304.936 140.484 304.74 135.078 304.879C132.936 304.933 130.801 305.625 128.679 306.095C125.382 306.825 122.092 307.625 118.676 307.453C114.669 307.254 110.99 305.845 107.416 304.176C100.359 300.875 93.8855 296.588 87.5984 292.044C82.9801 288.706 81.8281 282.193 84.6051 276.619C86.6828 272.45 89.9835 269.909 94.7031 269.389C94.8551 269.372 95.0038 269.311 95.2099 269.261C94.9835 266.835 94.7572 264.436 94.5241 261.94C93.872 261.855 93.2031 261.825 92.5612 261.683C87.2166 260.477 83.7538 257.108 82.2436 251.973C80.7099 246.761 82.5713 242.348 86.3686 238.7C88.7774 236.382 91.2943 234.176 93.7572 231.916C94.9497 230.818 94.9024 229.794 93.6423 228.842C91.6896 227.369 90.6862 225.365 90.3315 222.98C90.2741 222.588 90.1288 222.075 89.845 221.869C86.9835 219.784 85.3551 216.997 84.8551 213.511C84.4261 210.521 83.818 207.554 83.5173 204.554C83.0916 200.244 84.6119 197.967 88.6322 196.352C90.3653 195.656 92.0984 194.956 93.7876 194.166C94.1389 194.004 94.5139 193.443 94.5173 193.065C94.568 187.649 94.5646 182.237 94.5375 176.821C94.5341 176.429 94.3416 175.98 94.1051 175.656C91.1963 171.669 89.72 167.237 89.7639 162.288C89.8314 154.636 90.3517 147.034 92.0308 139.544C94.6389 127.94 101.494 119.507 111.531 113.473C118.977 108.997 127.119 106.355 135.575 104.612C142.747 103.132 149.983 101.956 157.328 102.088C167.152 102.264 176.977 102.663 186.575 105.065C192.865 106.642 198.757 109.095 203.44 113.747C204.821 115.119 206.294 115.872 208.139 116.406C217.176 119.017 224.828 123.94 231.244 130.791C231.852 131.44 232.423 131.679 233.304 131.595C239.956 130.96 246.571 131.23 253.132 132.581C253.5 132.659 254.102 132.386 254.365 132.078C257.24 128.761 260.247 125.585 263.828 123.011C266.271 121.261 268.865 119.825 271.896 119.352C277.149 118.538 281.298 120.713 283.585 125.538C285.483 129.538 286.24 133.848 286.869 138.176C288.338 148.304 288.95 158.507 289.294 168.727C289.338 170.038 289.399 171.352 289.5 172.659C289.527 172.99 289.659 173.358 289.858 173.619C294.892 180.2 296.413 187.521 294.538 195.568C294.511 195.679 294.534 195.804 294.534 196.031Z" fill="white"/>
<path d="M226.957 223.334C226.964 222.054 226.075 221.162 224.791 221.158C223.538 221.155 222.595 222.084 222.595 223.324C222.595 224.56 223.548 225.513 224.781 225.513C226.044 225.513 226.953 224.604 226.957 223.334ZM218.386 219.898C217.126 219.831 216.146 220.679 216.051 221.912C215.933 223.405 217.163 224.449 219.193 224.577C220.487 224.658 221.538 223.756 221.612 222.506C221.697 221.081 220.362 220.003 218.386 219.898ZM245.943 180.516C243.97 180.52 241.149 181.452 239.582 182.621C238.352 183.537 238.034 185.054 238.801 186.324C239.534 187.53 241.011 187.989 242.335 187.391C242.842 187.165 243.311 186.858 243.818 186.628C246.173 185.564 247.947 186.108 249.318 188.31C249.504 188.614 249.642 188.946 249.822 189.256C250.595 190.581 252.068 191.081 253.413 190.479C254.737 189.885 255.349 188.412 254.872 186.976C253.666 183.364 249.727 180.513 245.943 180.516ZM215.244 219.739C215.278 218.638 214.676 218.006 213.744 217.53C208.487 214.841 203.724 211.533 200.19 206.679C199.352 205.53 197.892 205.361 196.926 206.131C195.876 206.973 195.703 208.348 196.707 209.513C198.288 211.348 199.892 213.172 201.653 214.824C204.72 217.702 208.369 219.756 212.099 221.641C213.599 222.398 215.207 221.358 215.244 219.739ZM217.44 142.723C217.112 143.236 216.862 143.594 216.649 143.973C215.396 146.209 215.028 148.473 216.653 150.682C218.754 153.537 223.122 154.263 226.078 152.304C227.156 151.587 227.484 150.516 226.923 149.547C226.359 148.567 225.298 148.361 224.129 148.834C223.345 149.155 222.467 149.476 221.649 149.429C219.757 149.324 218.96 147.76 219.879 146.125C220.247 145.473 220.744 144.888 221.241 144.324C222.254 143.162 222.284 142.189 221.214 141.077C218.072 137.814 214.913 134.56 211.744 131.324C210.754 130.307 209.534 130.263 208.707 131.141C207.886 132.013 208.078 133.135 209.085 134.152C211.876 136.976 214.632 139.834 217.44 142.723ZM262.014 249.128C261.94 246.946 260.666 244.726 258.568 242.959C253.062 238.317 247.545 233.696 242.021 229.077C240.359 227.685 238.443 227.763 237.278 229.212C236.001 230.797 236.227 232.432 237.953 233.885C242.707 237.875 247.467 241.858 252.227 245.837C253.17 246.628 254.159 247.368 255.062 248.202C255.835 248.915 256.072 249.787 255.464 250.777C254.585 252.202 253.953 252.418 252.464 251.581C246.224 248.081 240.004 244.547 233.771 241.04C232.021 240.054 230.139 240.513 229.217 242.111C228.308 243.675 228.781 245.55 230.487 246.516C236.855 250.118 243.183 253.797 249.656 257.196C255.43 260.226 262.014 256.148 262.014 249.128ZM257.173 293.611C257.413 293.483 257.649 293.351 257.893 293.226C261.396 291.432 262.957 288.243 262.136 284.54C261.19 280.266 258.342 277.581 254.359 277.621C252.45 277.641 250.534 278.209 248.643 278.631C247.335 278.922 246.065 279.388 244.703 279.797C244.551 278.442 244.47 277.185 244.264 275.946C243.349 270.405 240.163 266.817 234.761 265.327C232.707 264.76 230.565 264.429 228.443 264.196C226.268 263.959 224.72 265.293 224.632 267.206C224.545 269.101 225.866 270.381 228.004 270.614C229.501 270.777 231.018 270.946 232.464 271.334C236.595 272.449 238.166 274.52 238.271 278.949C238.305 280.371 238.176 281.814 237.94 283.219C237.447 286.168 239.507 288.064 242.355 287.175C245.882 286.077 249.396 284.935 252.94 283.881C254.413 283.446 255.268 283.831 255.781 284.898C256.477 286.351 256.237 287.236 254.754 287.834C246.386 291.212 238.004 294.55 229.609 297.864C229.237 298.01 228.676 297.898 228.271 297.733C225.21 296.496 222.163 295.233 219.126 293.942C218.119 293.513 217.146 293.375 216.132 293.854C215.991 293.922 215.832 293.996 215.68 294C212.636 294.006 209.589 294.006 206.555 294.006C207.406 292.04 208.187 290.182 209.028 288.354C209.173 288.04 209.555 287.787 209.882 287.608C214.251 285.202 215.747 281.648 214.592 276.787C213.707 273.064 211.98 269.804 209.572 266.875C209.116 266.317 208.984 265.868 209.312 265.175C209.97 263.77 209.882 262.324 209.264 260.898C207.991 257.966 205.673 256.172 202.768 255.115C201.396 254.618 199.916 254.419 198.511 254.003C198.099 253.878 197.561 253.53 197.447 253.169C196.568 250.459 195.122 249.189 192.17 249C191.089 248.929 190.751 248.561 190.68 247.547C190.105 239.429 190.038 231.327 191.366 223.263C191.416 222.949 191.484 222.635 191.551 222.327C191.585 222.175 191.639 222.034 191.693 221.854C192.082 221.888 192.43 221.929 192.781 221.949C194.102 222.03 195.116 221.483 195.764 220.351C196.389 219.26 196.359 218.118 195.67 217.071C194.95 215.973 194.092 214.966 193.389 213.858C191.436 210.78 190.281 207.503 191.126 203.79C191.156 203.642 191.234 203.506 191.339 203.236C192.092 204.371 192.94 205.199 194.305 205.229C195.69 205.263 196.632 204.564 197.389 203.371C197.798 203.713 198.176 204.04 198.565 204.351C201.964 207.057 205.805 208.662 210.17 208.797C214.136 208.919 218.132 209.226 222.024 208.05C230.926 205.361 237.359 197.213 236.507 186.773C235.771 177.756 228.345 169.902 219.143 168.797C215.078 168.311 210.96 168.24 206.899 169.047C203.964 169.631 201.335 170.919 198.964 172.743C198.619 173.006 198.274 173.27 197.964 173.506C197.132 173.148 196.936 172.652 197.254 171.854C197.845 170.381 198.355 168.881 198.936 167.29C199.379 167.523 199.703 167.716 200.051 167.865C201.318 168.415 202.737 168.121 203.666 167.128C204.558 166.175 204.839 164.743 204.207 163.581C201.561 158.713 201.42 153.452 201.741 148.128C201.842 146.436 202.119 144.753 202.393 143.074C202.778 147.652 203.207 152.216 204.676 156.581C205.244 158.267 206.041 159.888 206.889 161.452C207.622 162.8 208.852 163.101 209.882 162.412C210.879 161.746 211.004 160.642 210.214 159.371C208.078 155.929 207.403 152.047 206.903 148.135C206.109 141.956 206.149 135.75 206.45 129.54C206.48 128.885 206.616 128.236 206.72 127.436C207.379 127.659 207.869 127.794 208.332 127.983C218.477 132.135 225.795 139.29 230.653 149.044C231.241 150.223 231.997 151.104 233.379 151.256C235.801 151.52 237.616 149.246 236.724 146.979C236.261 145.8 235.589 144.702 235.014 143.567C234.839 143.223 234.666 142.878 234.416 142.378C237.862 142.378 241.159 142.202 244.43 142.415C251.555 142.875 258.18 144.936 263.97 149.267C269.768 153.598 273.497 159.409 276.082 166.081C277.71 170.29 278.524 174.618 278.636 179.108C278.656 179.865 278.447 180.209 277.697 180.466C275.058 181.371 273.447 183.331 272.538 185.888C271.987 187.446 272.717 188.925 274.193 189.476C275.599 190 277.018 189.351 277.717 187.861C277.916 187.436 278.122 187.013 278.511 186.615V193.743C278.014 193.517 277.595 193.327 277.176 193.135C275.781 192.5 274.514 192.844 273.899 194.03C273.254 195.277 273.717 196.574 275.159 197.29C277.727 198.561 280.322 199.777 282.903 201.013C283.186 201.152 283.47 201.29 283.754 201.429C283.713 201.534 283.7 201.642 283.656 201.655C281.595 202.3 281.311 202.929 282.146 204.966C282.893 206.78 284.2 208.081 285.903 208.969C287.43 209.763 289.007 209.939 290.572 208.983C291.203 212.571 289.812 214.844 286.386 215.486C282.433 216.226 278.545 215.75 274.771 214.365C270.518 212.804 266.46 210.939 263.484 207.307C262.72 206.375 261.366 206.368 260.467 207.115C259.565 207.865 259.305 209.165 260.139 210.098C261.349 211.456 262.609 212.848 264.099 213.854C266.193 215.273 268.524 216.338 270.741 217.577C271.21 217.841 271.73 218.121 272.051 218.53C273.835 220.841 275.774 222.979 278.183 224.679C278.524 224.922 278.71 225.611 278.71 226.094C278.7 237.159 278.676 248.226 278.605 259.29C278.575 264.074 278.21 268.834 276.855 273.456C274.43 281.726 269.839 288.29 261.909 292.165C260.703 292.753 259.399 293.145 258.132 293.615C257.845 293.719 257.534 293.76 257.234 293.827C257.214 293.757 257.193 293.682 257.173 293.611Z" fill="white"/>
<path d="M161.507 223.199C161.48 221.933 160.572 221.095 159.247 221.125C157.95 221.152 157.089 222.051 157.132 223.338C157.17 224.558 158.173 225.503 159.386 225.466C160.602 225.426 161.534 224.433 161.507 223.199ZM164.764 224.524C166.683 224.5 168.112 223.419 168.099 222.003C168.089 220.838 167.055 219.797 165.889 219.784C163.98 219.764 162.464 220.939 162.514 222.402C162.555 223.632 163.518 224.541 164.764 224.524ZM137.869 180.487C133.568 180.385 130.399 183.97 129.244 186.943C128.697 188.351 129.393 189.824 130.73 190.419C132.021 190.993 133.467 190.52 134.241 189.264C134.487 188.858 134.683 188.416 134.947 188.02C136.264 186.061 137.926 185.564 140.102 186.49C140.646 186.723 141.156 187.044 141.693 187.294C143.068 187.929 144.595 187.473 145.325 186.22C146.068 184.949 145.761 183.382 144.487 182.544C142.565 181.281 140.477 180.46 137.869 180.487ZM123.474 222.868C123.457 225.706 124.099 227.324 125.68 228.909C127.899 231.135 130.126 233.358 132.393 235.537C135.524 238.537 138.69 241.507 141.859 244.466C142.805 245.351 143.893 245.875 145.227 245.331C146.393 244.855 147.102 243.997 147.278 242.753C147.457 241.5 146.889 240.551 145.997 239.703C140.798 234.777 135.629 229.821 130.423 224.902C129.622 224.145 129.437 223.446 130.072 222.51C130.869 221.335 131.653 220.936 132.751 221.433C133.616 221.824 134.42 222.355 135.217 222.875C140.835 226.564 146.433 230.287 152.082 233.933C152.693 234.328 153.589 234.49 154.332 234.443C155.656 234.362 156.707 233.274 156.967 232.034C157.298 230.493 156.612 229.412 155.382 228.605C152.322 226.595 149.257 224.591 146.19 222.598C143.021 220.537 139.886 218.422 136.659 216.463C133.909 214.794 130.943 214.362 128.048 216.051C125.227 217.699 123.683 220.257 123.474 222.868ZM140.318 271.041C138.578 269.645 136.869 268.233 135.112 266.885C133.048 265.297 130.734 264.416 128.095 264.872C124.71 265.453 122.585 267.632 121.389 270.689C120.278 273.537 120.862 276.216 123.001 278.409C127.781 283.308 132.619 288.149 137.45 292.997C137.717 293.26 138.122 293.385 138.46 293.574C138.355 293.716 138.251 293.858 138.146 293.997C136.332 293.997 134.514 293.912 132.707 294.014C122.697 294.578 115.893 289.453 110.764 281.541C107.744 276.882 106.359 271.591 105.818 266.115C105.497 262.835 105.399 259.524 105.382 256.223C105.325 246.193 105.372 236.159 105.342 226.125C105.338 225.274 105.676 224.835 106.288 224.274C108.186 222.534 109.936 220.635 111.778 218.831C112.328 218.294 112.926 217.73 113.609 217.422C117.122 215.848 120.44 213.997 123.095 211.142C123.42 210.794 123.741 210.433 124.001 210.037C124.724 208.949 124.518 207.699 123.521 206.966C122.605 206.291 121.355 206.456 120.504 207.341C114.686 213.389 107.497 215.953 99.2068 215.652C98.3081 215.618 97.3926 215.392 96.5277 215.122C94.9737 214.635 93.9027 213.706 93.798 211.909C93.7372 210.936 93.4737 209.973 93.2878 208.939C97.1797 210.253 101.001 208.223 102.17 204.335C102.683 202.635 102.44 202.26 100.176 201.453C101.089 201.02 101.889 200.642 102.686 200.257C104.764 199.257 106.855 198.274 108.916 197.24C110.362 196.517 110.845 195.24 110.224 193.997C109.612 192.77 108.301 192.429 106.852 193.108C106.47 193.291 106.085 193.466 105.578 193.696V186.659C105.636 186.632 105.693 186.601 105.754 186.571C105.974 187.003 106.207 187.429 106.416 187.865C107.112 189.318 108.558 189.956 109.967 189.419C111.369 188.882 112.085 187.416 111.585 185.909C110.72 183.321 109.102 181.368 106.491 180.429C105.69 180.142 105.409 179.753 105.507 178.97C105.845 176.213 106.176 173.456 106.507 170.699C106.595 169.97 106.947 169.551 107.727 169.51C111.852 169.297 115.974 168.882 120.099 168.882C127.616 168.885 135.139 169.051 142.656 169.301C149.95 169.547 157.132 170.76 164.244 172.362C169.051 173.443 173.825 174.679 178.616 175.838C179.224 175.987 179.734 176.118 179.639 176.97C178.896 183.669 182.501 188.277 187.109 192.395C187.626 192.858 188.538 193.389 188.514 193.845C188.453 194.953 188.203 196.223 187.572 197.095C185.795 199.561 184.683 202.193 184.531 205.233C184.511 205.625 184.301 206.054 184.065 206.385C180.558 211.311 175.805 214.713 170.477 217.395C169.572 217.851 168.876 218.426 168.852 219.541C168.818 221.071 170.203 222.169 171.659 221.703C172.261 221.514 172.822 221.189 173.379 220.889C177.734 218.527 181.859 215.845 185.335 212.01C186.011 213.693 186.852 215.014 186.274 216.98C184.146 224.226 183.788 231.71 183.896 239.206C183.947 242.703 184.241 246.199 184.484 249.693C184.531 250.355 184.426 250.703 183.801 250.976C177.197 253.882 172.612 258.828 169.433 265.206C169.166 265.74 168.595 266.237 168.045 266.5C165.288 267.828 163.815 269.96 163.855 273.017C163.94 279.277 166.791 284.237 171.332 288.311C172.862 289.686 174.622 290.808 176.244 292.091C176.798 292.534 177.241 293.122 177.737 293.642C177.68 293.757 177.626 293.875 177.572 293.99C176.832 293.99 176.092 293.993 175.352 293.99C166.474 293.983 157.599 293.99 148.717 293.936C148.122 293.932 147.389 293.642 146.96 293.233C141.636 288.145 136.352 283.017 131.072 277.882C129.964 276.804 128.933 275.639 127.832 274.554C127.021 273.757 126.849 272.997 127.619 272.064C128.551 270.929 129.393 270.601 130.497 271.291C131.568 271.96 132.561 272.777 133.534 273.591C135.703 275.399 137.798 277.301 140.004 279.061C141.903 280.581 144.409 279.652 145.085 277.291C145.447 276.03 145.747 274.743 146.227 273.53C148.217 268.527 150.987 267.047 156.247 268.139C157.335 268.365 158.399 268.706 159.46 269.041C161.325 269.628 163.018 268.889 163.663 267.176C164.301 265.487 163.491 263.733 161.676 263.037C158.362 261.767 154.936 261.172 151.379 261.51C147.22 261.905 144.379 264.301 142.21 267.649C141.521 268.713 140.967 269.862 140.318 271.041Z" fill="white"/>
<path d="M191.574 294.854H186.081C186.354 294.098 186.797 293.371 186.844 292.621C186.922 291.439 186.081 290.827 185.033 290.392C180.729 288.604 176.79 286.236 173.594 282.784C171.175 280.165 169.594 277.145 169.391 273.517C169.31 272.037 169.685 271.554 171.155 271.395C172.429 271.26 173.125 270.567 173.598 269.439C176.297 263.007 180.544 258.047 187.206 255.5C188.655 254.946 190.206 254.645 191.709 254.229C191.773 254.351 191.834 254.469 191.898 254.591C191.763 254.949 191.648 255.317 191.493 255.669C190.51 257.878 191.648 259.294 194.087 259.307C196.493 259.324 198.929 259.544 201.283 260.013C202.391 260.233 203.402 261.175 204.334 261.939C204.885 262.388 204.966 262.936 203.969 263.28C202.087 263.932 201.844 265.719 203.135 267.307C205.037 269.648 206.895 272.034 208.598 274.52C209.341 275.604 209.794 276.952 210.135 278.243C210.807 280.78 210.064 282.483 207.652 283.466C205.881 284.189 205.057 285.321 204.439 287.077C203.763 288.99 202.689 290.817 201.5 292.473C200.408 293.983 198.962 294.121 197.334 293.469C196.412 293.101 196.04 292.53 196.243 291.54C196.804 288.777 197.348 286.007 197.878 283.236C198.908 277.827 194.682 273.581 189.27 274.601C188.3 274.784 187.344 275.091 186.419 275.442C185.422 275.817 184.929 276.635 184.976 277.692C185.02 278.699 185.54 279.476 186.523 279.736C187.223 279.922 187.334 280.29 187.358 280.922C187.479 283.99 188.79 286.402 191.358 288.145C191.648 288.344 191.848 288.898 191.837 289.284C191.8 291.091 191.675 292.898 191.574 294.854Z" fill="white"/>
<path d="M277.636 154.473C275.322 151.773 273.136 149.223 270.808 146.507C272.031 144.912 273.342 143.182 274.676 141.469C275.288 140.686 275.592 139.861 275.065 138.942C274.595 138.128 273.808 137.743 272.937 138.04C272.383 138.23 271.855 138.703 271.484 139.176C270.237 140.763 269.065 142.409 267.801 144.118C267.062 143.601 266.423 143.155 265.545 142.54C268.379 138.763 271.163 135.061 273.947 131.361C274.072 131.395 274.197 131.429 274.318 131.463C276.386 138.946 276.93 146.655 277.636 154.473Z" fill="white"/>
<path d="M116.125 296.024C115.294 295.713 114.449 295.429 113.632 295.078C107.453 292.439 101.915 288.686 96.3648 284.966C95.9357 284.679 95.5337 284.338 95.081 284.098C94.0202 283.537 93.6891 282.79 94.2161 281.652C94.8175 280.358 95.5472 279.858 96.8445 280.226C97.9458 280.544 98.983 281.088 100.074 281.453C103.054 282.453 105.355 284.081 107.027 286.932C109.034 290.351 112.071 292.953 115.361 295.192C115.652 295.392 115.932 295.601 116.219 295.807C116.186 295.878 116.155 295.953 116.125 296.024Z" fill="white"/>
<path d="M284.976 242.206V236.091C285.104 236.071 285.229 236.01 285.317 236.044C288.003 237.125 290.702 238.179 293.365 239.321C294.753 239.916 295.108 240.777 294.713 242.085C294.3 243.453 293.76 243.781 292.338 243.524C289.915 243.088 287.493 242.656 284.976 242.206Z" fill="white"/>
<path d="M277.801 286.115C280.382 282.236 282.108 277.99 283.28 273.503C283.507 272.642 285.875 270.953 286.824 270.942C287.932 270.932 288.564 271.706 288.983 272.574C289.165 272.949 289.165 273.672 288.919 273.963C285.361 278.138 281.747 282.267 278.145 286.405C278.03 286.307 277.915 286.213 277.801 286.115Z" fill="white"/>
<path d="M99.1455 241.68C99.1455 244.007 99.1759 245.99 99.1185 247.974C99.105 248.318 98.7942 248.761 98.4901 248.967C97.6016 249.561 96.6219 250.024 95.73 250.615C94.8955 251.166 94.2097 251.146 93.5205 250.393C92.7773 249.578 92.2097 248.707 92.9293 247.639C93.3482 247.024 93.9192 246.504 94.4665 245.99C95.9327 244.612 97.4259 243.257 99.1455 241.68Z" fill="white"/>
</svg>
