<svg width="388" height="420" viewBox="0 0 388 420" fill="none" xmlns="http://www.w3.org/2000/svg">
<path d="M193.733 128.348C148.71 128.348 112.081 164.977 112.081 210C112.081 255.024 148.71 291.652 193.733 291.652C238.757 291.652 275.385 255.024 275.385 210C275.385 164.977 238.757 128.348 193.733 128.348ZM193.733 332.48C126.196 332.48 71.2534 277.534 71.2534 210C71.2534 142.466 126.196 87.5205 193.733 87.5205C261.27 87.5205 316.213 142.466 316.213 210C316.213 277.534 261.27 332.48 193.733 332.48Z" fill="white"/>
<path d="M126.03 231.943L130.426 201.247C130.615 199.679 130.865 198.172 131.365 196.605L120.946 199.365L120.446 193.027L132.246 188.632H141.659L135.571 231.943H126.03Z" fill="white"/>
<path d="M153.699 210.412C152.064 222.213 153.007 225.162 158.595 225.162C164.493 225.162 166.628 222.023 168.196 210.162C169.767 198.361 168.76 195.412 163.236 195.412C157.402 195.412 155.267 198.55 153.699 210.412ZM177.486 210.662C175.226 226.983 170.27 232.757 158.28 232.757C146.355 232.757 142.024 226.48 144.409 209.909C146.669 193.591 151.625 187.817 163.551 187.817C175.916 187.817 179.807 194.28 177.486 210.662Z" fill="white"/>
<path d="M190.567 210.412C188.932 222.213 189.875 225.162 195.463 225.162C201.361 225.162 203.497 222.023 205.064 210.162C206.635 198.361 205.628 195.412 200.108 195.412C194.27 195.412 192.135 198.55 190.567 210.412ZM214.355 210.662C212.094 226.983 207.138 232.757 195.149 232.757C183.223 232.757 178.892 226.48 181.277 209.909C183.537 193.591 188.493 187.817 200.419 187.817C212.784 187.817 216.676 194.28 214.355 210.662Z" fill="white"/>
<path d="M252.956 220.142C252.078 226.105 252.642 227.486 255.53 227.486C259.233 227.486 259.983 225.915 260.801 219.449C261.554 213.55 261.115 212.108 258.101 212.108C254.588 212.108 253.834 213.74 252.956 220.142ZM267.581 220.142C266.199 229.557 263.311 232.696 255.53 232.696C247.618 232.696 244.797 229.179 246.176 219.449C247.557 210.037 250.446 206.898 258.101 206.898C266.135 206.898 268.959 210.412 267.581 220.142ZM224.209 201.061C223.392 206.959 223.895 208.405 226.845 208.405C230.486 208.405 231.236 206.77 232.118 200.307C232.868 194.405 232.368 192.963 229.419 192.963C225.841 192.963 225.088 194.659 224.209 201.061ZM223.267 231.942L255.341 188.632H261.618L229.605 231.942H223.267ZM238.834 201.061C237.514 210.476 234.564 213.55 226.845 213.55C218.872 213.55 216.111 210.098 217.493 200.307C218.811 190.892 221.699 187.817 229.355 187.817C237.453 187.817 240.213 191.267 238.834 201.061Z" fill="white"/>
</svg>
