<svg width="388" height="420" viewBox="0 0 388 420" fill="none" xmlns="http://www.w3.org/2000/svg">
<path d="M244.898 296.409L251.54 251.162C251.956 248.047 252.476 245.037 253.513 241.926L236.699 245.554L234.831 232.169L255.692 224.801H277.382L267.314 296.409H244.898Z" fill="white"/>
<path d="M210.709 203.183C209.956 202.859 209.037 203.43 208.179 203.355C207.351 203.372 206.706 203.318 205.74 203.494C205.206 201.626 202.98 201.784 201.368 201.382C199.844 200.95 198.733 200.247 197.169 201.284C197.027 201.443 195.48 202.784 195.983 203C194.422 202.477 193.669 202.153 191.966 202.308C190.351 202.43 188.648 201.028 187.855 203.213C187.422 204.217 188.209 205.153 188.135 206.014C186.574 205.487 188.358 203.43 187.03 202.71C185.456 201.879 184.388 204.693 183.706 205.588C183.344 206.25 182.787 206.68 182.642 207.362C182.442 208.169 182.584 209.048 182.473 209.818C181.919 209.207 180.463 209.994 180.162 209.49C181.375 211.5 182.267 213.747 183.571 215.723C184.341 216.872 184.888 219.044 184.203 220.46C183.52 221.875 182.598 223.487 183.027 225.085C183.273 226.234 183.936 227.115 185.03 226.994C185.655 228.305 184.52 229.896 185.179 231.298C185.216 231.389 185.662 232.25 185.929 232.663C197.375 225.626 205.905 215.173 210.709 203.183ZM167.919 150.639C168.334 150.369 168.142 148.575 168.267 148.109C168.557 147.267 169.132 146.622 169.709 145.977C170.983 144.744 172.442 143.96 173.949 143.048C175.334 142.082 177.216 141.335 178.919 142.22C178.544 142.055 179.953 139.315 180.182 139.119C180.814 138.348 182.233 137.994 182.449 136.97C182.523 136.632 181.844 134.926 181.844 134.926C180.392 135.71 179.28 134.487 178.692 133.264C178.726 133.355 178.655 133.696 178.439 134.196C177.996 132.815 176.679 134.48 175.983 134.551C173.703 134.832 173.402 133.288 172.169 132.011C171.486 131.345 170.392 131.467 169.713 130.805C169.138 130.406 168.496 129.311 167.652 129.541C167.078 129.666 166.875 132.034 166.659 132.014C165.672 131.886 165.564 132.656 165.078 133.267C164.682 133.838 164.162 133.838 163.73 134.321C165.132 133.142 162.439 133.169 161.706 133.669C162.821 132.811 161.655 131.713 160.686 131.372C160.868 131.301 160.956 131.264 161.138 131.193C160.635 130.457 157.838 130.734 156.817 130.517C155.794 130.301 151.128 131.112 150.442 132.007C149.615 133.065 151.675 134.325 152.03 135.223C152.55 136.264 151.49 136.997 151.844 137.896C152.453 139.423 155.216 138.011 155.317 140.362C155.368 141.798 153.77 142.744 153.442 144.017C153.081 145.2 154.53 146.494 155.5 146.838C156.429 147.092 154.811 148.774 154.615 149.061C153.371 150.386 151.314 148.605 150.419 147.399C149.76 146.517 149.206 145.386 147.915 145.278C147.304 145.311 145.493 145.717 145.348 146.399C144.273 145.264 142.175 145.477 140.74 145.528C138.692 145.609 137.169 146.217 135.388 147.234C135.983 146.892 134.071 144.43 132.719 145.487C132.814 144.413 132.24 143.494 132.064 142.524C131.959 141.737 132.034 140.875 132.321 140.031C132.358 139.602 133.513 136.754 132.851 136.913C134.449 136.487 136.189 135.899 136.949 134.142C137.436 133.014 137.26 131.524 137.713 130.305C138.344 128.497 140.456 129.632 141.75 129.223C143.581 128.598 142.706 126.659 141.365 126.153C142.567 125.781 140.723 124.017 139.986 123.997C139.074 124.048 136.341 126.068 138.206 126.055C137.777 126.017 137.402 131.365 135.257 129.619C134.719 129.311 133.79 127.497 132.946 127.73C132.23 128.014 132.101 129.001 132.044 129.646C132.03 128.301 128.746 128.669 128.084 128.828C129.071 127.396 127.601 126.835 126.402 126.69C125.507 126.524 123.118 127.058 122.773 128.024C121.888 130.767 125.496 129.646 126.608 129.828C126.949 129.902 128.277 130.102 127.824 130.801C127.395 131.284 125.956 132.375 125.919 132.805C125.703 133.828 127.226 134.261 126.736 135.389C125.608 134.903 125.074 133.555 124.091 132.906C125.29 133.575 121.034 134.639 121.125 134.602C119.777 135.139 117.98 136.892 116.456 135.936C116.135 135.649 115.314 133.585 116.034 133.818C114.976 133.511 114.186 133.095 113.507 132.953C110.936 135.115 108.648 137.477 106.527 139.984C106.922 139.93 107.192 139.821 107.567 139.463C108.179 138.909 108.632 138.213 109.206 137.568C109.963 136.852 111.419 135.028 112.73 135.443C112.746 135.227 112.946 134.94 112.996 134.815C113.912 135.284 114.828 135.754 115.686 136.348C114.824 136.274 113.73 136.916 112.956 137.328C112.398 137.757 111.392 138.362 111.409 139.19C111.855 139.531 112.5 140.105 112.5 140.625C111.01 140.281 109.578 139.291 107.892 139.754C107.172 140.038 106.453 140.321 105.953 140.625C99.2228 148.808 94.6924 158.609 92.7633 168.936C93.2667 169.153 93.7329 169.278 94.1248 169.223C95.1316 169.139 95.2667 172.098 96.439 170.075C97.1552 170.308 97.4964 170.903 97.385 171.673C97.439 171.548 101.959 172.457 102.297 172.531C103.138 172.818 104.378 173.055 104.932 173.666C105.361 174.223 105.108 175.156 104.675 175.639C104.513 175.494 102.632 174.683 102.594 175.112C102.507 175.669 103.736 177.987 104.689 177.504C103.287 178.163 106.125 183.484 106.192 184.703C106.23 184.791 106.409 184.72 106.409 184.72C106.567 185.906 109.142 189.767 110.76 188.609C109.699 189.338 114.571 192.186 115.125 192.277C116.615 192.622 118.175 192.625 119.446 193.473C120.844 194.372 121.591 196.257 123.24 196.747C123.307 197.967 126.051 198.335 126.567 199.896C126.425 200.058 126.334 200.092 126.189 200.254C127.138 201.332 128.844 200.656 129.936 201.575C130.581 202.149 130.898 203.997 131.922 203.173C131.317 201.125 129.189 199.686 127.557 198.463C126.662 197.777 125.804 197.183 124.996 196.463C124.23 195.835 123.746 194.882 123.03 194.129C123.425 194.075 125.686 194.011 125.615 194.348C125.608 196.43 130.446 198.149 131.898 198.923C132.277 199.085 135.409 200.96 134.331 201.386C135.5 200.923 137.828 202.078 138.723 202.761C140.064 203.788 140.564 205.565 141.672 206.788C142.922 208.369 145.757 208.18 147.517 208.419C149.023 208.548 150.456 209.017 151.892 208.967C154.061 208.936 154.26 208.129 155.77 207.22C157.963 205.933 159.267 208.43 161.544 208.669C162.959 208.835 165.831 208.734 166.871 207.696C166.405 208.092 170.29 210.808 170.578 211.007C171.814 211.764 173.554 211.696 174.878 212.419C175.078 212.132 175.24 211.754 175.189 211.359C175.219 212.49 177.675 213.696 178.5 213.163C179.415 212.592 178.902 210.511 178.618 209.791C177.179 211.402 175.277 211.325 173.578 209.919C173.219 209.544 170.784 207.598 172.04 207.102C173.746 206.423 172.047 205.541 171.368 204.355C170.689 203.169 169.111 202.859 168.054 202.031C167.942 203.321 166.04 203.767 165.145 203.082C165.253 203.352 165.162 203.909 165.304 204.267C164.855 204.446 164.442 204.713 163.922 204.71C163.672 203.561 163.23 202.18 163.034 200.906C162.841 199.112 164.557 194.794 160.767 196.504C159.456 197.129 159.132 197.882 159.145 199.227C159.125 200.484 159.696 201.399 158.655 202.436C157.986 203.119 155.223 204.007 154.236 203.879C152.138 203.568 149.723 200.889 149.01 199.095C147.959 196.707 148.361 194.051 146.304 192.271C146.662 191.605 146.844 190.494 147.297 189.798C147.692 189.223 148.567 189.602 148.412 188.419C148.071 188.345 147.567 188.129 147.48 188.166C149.074 188.257 150.983 185.734 152.507 186.169C153.439 186.423 154.321 186.281 154.412 185.207C154.395 184.899 153.25 184.109 153.321 183.247C154.196 184.666 155.294 184.544 156.246 183.021C157 183.345 158.365 182.595 159.564 182.744C160.804 182.98 161.375 183.896 162.007 182.085C163.155 182.879 163.243 182.842 163.942 183.815C164.601 184.693 166.138 186.994 167.216 187.088C169.564 187.504 167.868 184.541 167.26 183.534C167.135 183.48 165.959 180.517 165.868 180.555C162.746 181.065 162.932 178.392 163.942 176.223C164.138 175.94 165.922 174.402 166.534 173.325C167.054 172.288 167.544 170.639 166.632 169.649C167.081 169.47 167.297 168.97 167.301 168.45C166.993 168.467 165.561 167.997 165.419 168.156C165.902 167.548 165.601 167.044 165.027 166.649C165.709 165.754 164.868 164.943 165.625 164.23C167.148 165.183 168.517 162.872 167.101 162.19C167.5 160.575 169.814 160.382 169.888 159C171.378 158.828 169.713 157.514 170.04 156.24C170.348 155.183 171.426 154.754 172.057 153.984C172.091 154.075 173.801 151.838 173.047 152.031C174.645 151.605 177.057 148.778 174.186 148.359C174.223 147.409 172.915 147.511 172.037 147.653C172.594 147.223 173.544 147.264 173.939 146.69C174.787 145.419 173.834 145.379 172.743 145.504C171.341 145.642 170.047 147.092 169.307 148.112C168.804 148.936 168.746 150.102 167.919 150.639ZM222.466 152.683C237.578 190.75 218.949 233.899 180.882 249.011C142.814 264.122 99.6654 245.497 84.5539 207.426C69.4424 169.359 88.0674 126.21 126.138 111.098C164.206 95.987 207.355 114.612 222.466 152.683Z" fill="white"/>
</svg>
