<svg width="388" height="420" viewBox="0 0 388 420" fill="none" xmlns="http://www.w3.org/2000/svg">
<path fill-rule="evenodd" clip-rule="evenodd" d="M190.424 301.751C178.449 301.126 166.647 296.518 157.021 288.7C154.35 286.546 150 282.067 147.911 279.375C141.601 271.212 137.552 261.65 136.109 251.593C135.657 248.362 135.506 241.643 135.807 238.197C136.804 227.253 140.674 217.229 147.316 208.353L144.25 207.228C144.185 207.228 143.238 206.797 142.161 206.28C134.106 202.425 128.292 197.428 128.292 194.349C128.292 192.863 129.433 191.807 131.328 191.57C132.088 191.454 138.524 191.601 160.38 192.204V189.138C160.1 189.051 162.362 188.362 166.087 187.436C180.323 183.818 196.798 183.086 212.261 185.39C216.719 186.036 222.836 187.436 226.281 188.556L227.897 189.094V192.218C251.248 191.564 255.251 191.473 256.217 191.549C260.955 191.893 260.762 195.813 255.808 200.056C253.784 201.779 249.864 204.234 246.332 206L243.662 207.314L240.672 208.353C246.926 216.691 250.785 226.377 252.018 236.948C252.384 240.049 252.427 246.489 252.125 249.331C250.553 263.373 244.76 275.39 234.875 285.125C226.002 293.847 215.19 299.274 202.807 301.234C200.933 301.514 194.386 302.031 193.654 301.945C193.546 301.923 192.082 301.859 190.424 301.751ZM175.865 256.417C175.628 256.654 169.426 258.054 167.38 258.334C164.365 258.764 161.069 258.915 159.368 258.7C156.633 258.377 153.166 255.922 152.003 253.466C151.507 252.433 150.926 249.547 151.184 249.31C151.357 249.138 152.412 249.418 158.657 251.227C161.328 252.002 166.044 253.38 169.167 254.263C175.025 255.965 175.994 256.288 175.865 256.417ZM236.619 251.399C236.059 254.371 233.647 257.041 230.438 258.269C228.629 258.958 224.193 258.958 219.928 258.291C217.947 257.967 212.068 256.525 212.068 256.352C212.068 256.266 212.628 256.051 213.317 255.857C214.415 255.555 219.864 253.983 226.928 251.916C234.875 249.59 236.188 249.224 236.49 249.224C236.899 249.224 236.921 249.762 236.619 251.399Z" fill="white"/>
<path d="M151.249 170.122C150.193 161.938 148.815 151.148 148.169 146.173C147.523 141.198 146.985 136.482 146.963 135.707C146.92 134.35 146.963 134.242 147.889 133.015C155.858 122.462 174.142 116.496 196.669 117.056C217.107 117.573 233.087 123.474 240.172 133.144C241.185 134.522 241.185 134.565 241.077 135.836C240.969 137.085 240.409 141.371 237.05 167.387C236.231 173.848 235.391 180.438 235.176 182.031C234.982 183.625 234.81 184.96 234.788 185.003C234.745 185.025 234.185 184.53 233.496 183.862C229.943 180.459 223.934 177.81 216.009 176.13C202.139 173.223 182.11 173.481 169.189 176.755C162.857 178.37 157.408 180.998 154.393 183.948C153.769 184.551 153.23 185.046 153.209 185.046C153.187 185.046 152.304 178.327 151.249 170.122Z" fill="white"/>
</svg>
