<svg width="388" height="420" viewBox="0 0 388 420" fill="none" xmlns="http://www.w3.org/2000/svg">
<path d="M246.885 231.885C239.551 232.503 232.662 232.848 225.848 233.743C221.473 234.317 217.098 235.375 212.919 236.79C206.912 238.824 205.825 240.767 206.497 247.159C206.825 250.277 207.619 253.351 208.287 256.429C209.767 263.213 214.162 266.932 220.936 267.25C230.801 267.713 240.7 268.03 250.568 267.75C255.206 267.618 259.814 265.983 264.419 264.953C267.173 264.334 268.936 262.571 269.71 259.855C271.578 253.314 272.45 246.649 271.585 239.878C271.027 235.557 269.514 234.04 265.284 233.561C259.021 232.851 252.73 232.405 246.885 231.885ZM150.612 236.145C150.605 236.243 150.598 236.341 150.592 236.442C149.156 236.442 147.72 236.382 146.287 236.449C137.997 236.848 129.662 236.622 121.578 239.24C118.632 240.193 117.132 241.753 117.162 244.683C117.213 249.402 117.183 254.149 117.659 258.835C118.507 267.193 121.483 270.416 129.7 271.345C141.581 272.686 153.514 272.598 165.291 270.385C178.291 267.939 181.44 264.318 183.122 251.176C183.159 250.892 183.193 250.605 183.203 250.318C183.534 240.297 180.504 238.612 173.342 237.804C165.798 236.953 158.189 236.672 150.612 236.145ZM126.754 190.96C126.46 192.716 126.254 193.48 126.223 194.253C126.183 195.223 127.717 196.774 125.146 196.743C124.902 196.74 124.612 197.943 124.399 198.605C121.514 207.679 119.838 217 119.507 226.493C119.21 234.973 119.135 233.797 126.534 233.132C146.443 231.338 166.294 229.912 186.041 234.936C192.635 236.615 199.352 235.922 205.973 233.726C211.669 231.838 217.571 230.453 223.477 229.345C236.26 226.939 249.203 227.436 262.122 227.804C265.821 227.909 265.73 227.889 265.889 224.108C266.294 214.365 263.885 205.058 261.862 195.652C258.223 178.726 249.146 165.51 235.463 155.135C226.196 148.108 215.983 144.659 204.439 146.598C198.896 147.527 193.649 146.946 188.271 145.882C174.939 143.25 162.588 144.973 151.906 154.237C149.666 156.179 148.227 158.139 148.598 161.169C148.642 161.534 148.453 161.929 148.274 162.767C147.649 161.51 147.21 160.632 146.774 159.753C146.446 159.811 146.119 159.872 145.791 159.933V169.524C145.575 169.52 145.358 169.514 145.139 169.51C144.48 167.652 143.818 165.797 143.156 163.939C142.855 164.017 142.554 164.091 142.254 164.166C142.105 165.108 142.223 166.237 141.73 166.929C141.308 167.52 139.845 167.372 139.429 167.966C137.061 171.328 134.139 174.497 134.828 179.162C135.01 180.405 134.855 181.699 134.855 183.514C134.108 181.737 133.564 180.436 132.754 178.497C131.139 181.936 129.189 184.551 128.787 187.389C128.385 190.21 129.534 193.253 130.01 196.243C129.088 194.747 128.162 193.25 126.754 190.96ZM181.091 289.804C182.534 281.335 183.798 272.983 183.889 264.362C183.287 264.524 182.838 264.534 182.787 264.676C180.956 269.987 176.659 271.716 171.649 272.835C157.345 276.02 142.926 276.277 128.385 275.291C122.227 274.872 118.115 271.622 115.612 266.47C113.622 262.389 111.771 257.993 111.122 253.554C109.463 242.21 107.649 230.774 107.487 219.348C107.25 202.723 108.629 186.081 108.896 169.439C109.081 157.919 113.213 147.983 120.564 139.612C130.412 128.402 140.696 117.476 153.771 109.838C158.075 107.321 162.781 105.497 167.291 103.328C168.96 102.52 170.642 101.713 172.227 100.757C179.548 96.3447 187.156 92.6487 195.868 92.2264C208.396 91.6183 218.375 97.115 226.723 105.905C228.781 108.074 230.848 109.686 233.75 110.443C246.436 113.753 254.331 121.831 257.473 134.568C258.227 137.632 259.017 140.686 259.909 143.71C260.277 144.953 260.95 146.108 261.825 148.071C262.429 146.476 262.669 145.848 263.166 144.551C263.632 147.122 263.99 149.101 264.453 151.655C265.281 150.46 265.855 149.635 266.527 148.662C266.629 149.014 266.791 149.321 266.798 149.632C266.912 153.71 266.909 153.71 271.105 153.926C269.831 154.676 268.892 155.233 267.5 156.054C269.754 157.247 271.112 157.963 273.004 158.963C271.659 159.324 270.764 159.568 269.733 159.845C272.561 165.993 275.365 171.922 278.004 177.926C279.01 180.22 279.527 182.72 280.443 185.058C284.578 195.618 283.669 206.503 282.396 217.345C281.156 227.878 279.781 238.412 277.916 248.848C277.044 253.713 274.983 258.389 273.247 263.071C272.365 265.443 270.49 266.916 267.953 267.723C261.352 269.818 254.659 271.294 247.71 271.514C237.075 271.855 226.48 271.818 215.943 269.895C212.078 269.189 209.112 267.456 207.466 264.037C205.358 259.662 203.561 255.125 201.821 250.588C200.777 247.868 199.412 245.767 196.298 245.22C192.223 244.503 189.652 245.767 188.129 249.656C186.554 253.662 185.669 257.753 185.47 262.162C185.142 269.446 184.118 276.703 183.156 283.939C182.889 285.953 181.801 287.851 181.091 289.804Z" fill="white"/>
<path d="M172.241 304.26C176.112 302.264 178.673 303.048 181.21 305.257C186.234 309.632 191.795 311.173 198.261 308.345C201.129 307.088 204.234 306.352 207.268 305.49C209.403 304.882 211.464 304.99 213.849 307.48C211.683 307.885 210.075 308.619 208.636 308.375C205.052 307.764 201.714 308.372 198.606 309.939C193.085 312.733 187.839 311.365 182.994 308.696C180.214 307.162 177.575 305.683 174.427 305.203C173.927 305.129 173.467 304.801 172.241 304.26Z" fill="white"/>
<path d="M170.963 288.902C170.281 292.088 169.504 295.26 168.936 298.467C167.815 304.815 169.467 307.078 175.845 308.24C176.886 308.429 177.909 308.7 179.43 309.041C172.892 311.375 167.345 308.017 167.102 301.926C166.916 297.281 168.234 292.923 170.963 288.902Z" fill="white"/>
<path d="M209.761 311.875C213.589 310.338 217.471 309.169 219.315 304.804C221.143 300.47 219.886 296.737 217.166 292.301C221.883 295.919 222.829 299.375 221.129 304.328C219.237 309.838 215.906 312.193 209.761 311.875Z" fill="white"/>
<path d="M259.207 225.817C257.173 223.848 254.977 222.01 253.136 219.871C249.173 215.266 244.163 214.462 238.67 215.746C229.889 217.8 221.163 220.094 212.406 222.253C211.014 222.598 209.393 223.959 208.362 221.692C207.562 219.939 207.028 218.3 208.879 216.669C218.376 208.29 229.312 204.324 241.808 207.192C249.224 208.895 254.829 213.665 257.744 221.047C258.322 222.51 258.964 223.946 259.575 225.395C259.45 225.537 259.332 225.679 259.207 225.817Z" fill="white"/>
<path d="M126.696 231.26C128.507 214.618 143.672 205.912 159.169 209.416C164.635 210.652 170.122 211.828 174.632 215.497C175.186 215.949 176.128 216.291 176.257 216.834C176.625 218.388 177.047 220.101 176.733 221.601C176.368 223.334 174.71 222.584 173.47 222.419C164.24 221.186 155.017 219.905 145.774 218.784C140.081 218.091 135.331 219.716 131.993 224.763C130.52 226.99 128.612 228.936 126.696 231.26Z" fill="white"/>
<path d="M216.679 186.054C216.551 185.54 216.379 184.696 216.118 183.881C215.473 181.865 214.145 180.706 211.949 181.006C209.747 181.307 208.797 182.821 208.683 184.902C208.635 185.75 208.706 186.628 208.882 187.459C209.426 190.02 211.287 191.567 213.301 191.233C215.318 190.898 216.774 188.814 216.679 186.054ZM216.757 192.675C211.973 195.395 208.429 195.084 206.091 191.959C203.476 188.476 203.601 182.395 206.585 179.611C207.659 178.608 209.254 177.824 210.699 177.642C213.176 177.324 215.764 178.963 218.291 177.331C218.429 177.243 219.868 178.425 219.943 179.101C220.527 184.375 221.071 189.662 221.328 194.956C221.49 198.324 219.656 200.547 216.436 201.76C212.838 203.111 208.899 202.49 206.929 199.949C206.281 199.115 206.331 197.733 206.064 196.601C207.203 196.8 208.372 196.898 209.476 197.226C210.895 197.648 212.294 198.767 213.635 198.672C216.48 198.469 217.308 196.699 216.757 192.675Z" fill="white"/>
<path d="M198.672 187.882C198.514 187.284 198.328 186.294 197.997 185.358C197.348 183.534 196.034 182.504 194.068 182.733C191.902 182.987 190.818 184.396 190.703 186.521C190.656 187.372 190.683 188.25 190.838 189.085C191.311 191.618 193.145 193.24 195.156 192.994C197.176 192.747 198.696 190.71 198.672 187.882ZM187.544 198.679C189.456 197.605 190.645 197.865 191.889 199.369C193.406 201.21 195.49 200.98 197.341 199.848C199.291 198.659 199.764 196.858 198.855 194.473C197.98 194.939 197.308 195.429 196.554 195.666C195.483 196.01 194.345 196.399 193.25 196.355C190.446 196.243 188.294 194.875 187.277 192.21C185.899 188.585 185.568 184.923 188.21 181.656C190.135 179.277 192.808 178.581 195.534 179.757C196.868 180.335 197.433 179.875 198.487 179.416C200.977 178.331 201.777 178.919 202.044 181.615C202.51 186.311 203.007 191.004 203.365 195.706C203.693 200.085 201.341 203.031 196.966 203.983C192.547 204.95 189.159 203.102 187.544 198.679Z" fill="white"/>
<path d="M179.25 170.629C179.068 168.45 178.818 166.257 176.341 165.409C173.179 164.325 170.737 167.281 171.439 171.281C171.929 174.071 173.743 175.953 175.764 175.764C177.862 175.571 179.297 173.453 179.25 170.629ZM169.956 156.727C170.301 158.929 170.652 161.156 171.061 163.77C172.135 163.135 172.895 162.595 173.726 162.213C176.922 160.737 180.176 161.588 181.919 164.608C183.804 167.879 184.047 171.453 182.666 174.96C181.365 178.254 178.041 179.652 174.537 178.544C173.46 178.2 172.882 177.909 171.615 178.774C169.568 180.176 168.274 179.237 167.99 176.629C167.389 171.071 166.899 165.504 166.358 159.943C166.051 156.781 166.051 156.781 169.956 156.727Z" fill="white"/>
<path d="M163.439 190.791C163.344 190.436 163.172 189.453 162.817 188.534C162.118 186.716 160.632 185.554 158.824 186.206C157.574 186.659 156.554 188.068 155.736 189.26C155.331 189.855 155.537 190.929 155.608 191.774C155.858 194.801 157.726 196.804 160 196.561C162.135 196.338 163.52 194.281 163.439 190.791ZM152.49 200.122C151.811 193.308 151.155 186.916 150.551 180.524C150.415 179.108 150.162 177.591 152.409 177.473C154.638 177.355 154.503 178.892 154.635 180.308C154.767 181.686 154.888 183.068 155.01 184.375C155.426 184.439 155.608 184.531 155.703 184.477C160.243 181.818 163.274 181.885 165.601 184.713C168.284 187.97 168.473 194.693 165.723 197.524C164.692 198.585 163.01 199.784 161.733 199.673C158.692 199.402 155.699 199.331 152.49 200.122Z" fill="white"/>
<path d="M189.42 167.368C191.9 167.077 194.048 166.824 196.298 166.56C195.94 163.993 194.609 163.006 192.747 163.104C190.842 163.209 189.741 164.493 189.42 167.368ZM200.984 170.986C199.092 176.125 195.599 178.091 191.315 177.155C187.237 176.263 184.734 172.189 185.153 167.114C185.514 162.75 188.704 159.81 193.17 159.723C197.548 159.642 199.893 162.223 200.974 168.625C197.349 169.094 193.731 169.567 190.102 170.04C190.954 174.131 192.758 174.946 195.987 173.074C197.352 172.287 198.91 171.837 200.984 170.986Z" fill="white"/>
<path d="M203.112 162.926C202.794 159.531 203.301 158.737 206.794 160.078C207.318 160.281 208.22 159.757 208.851 159.396C214 156.45 217.76 158.419 218.372 164.423C218.615 166.842 218.868 169.257 219.068 171.68C219.183 173.024 219.808 174.571 217.48 174.859C215.389 175.119 215.125 173.967 215.004 172.369C214.828 170.088 214.527 167.821 214.291 165.544C214.085 163.561 213.618 161.805 211.085 161.865C208.757 161.919 207.436 163.494 207.571 166.267C207.676 168.406 208.034 170.531 208.162 172.669C208.24 173.997 208.787 175.626 206.466 175.821C204.362 176 204.186 174.72 204.061 173.173C203.781 169.754 203.433 166.342 203.112 162.926Z" fill="white"/>
<path d="M235.787 180.594C234.409 180.203 233.027 179.828 231.656 179.412C230.983 179.209 230.237 178.598 229.689 178.753C228.561 179.074 227.541 179.787 226.477 180.338C227.311 180.963 228.058 181.841 228.993 182.159C230.612 182.706 232.358 182.858 234.027 183.267C235.99 183.753 237.368 184.804 237.548 187.04C237.716 189.125 237.004 190.767 235.206 191.753C231.997 193.51 228.575 193.794 225.311 192.121C224.274 191.591 222.902 189.456 223.183 189.03C224.132 187.574 225.662 187.777 227.193 188.817C228.173 189.483 229.524 189.976 230.669 189.905C231.591 189.848 232.453 188.828 233.345 188.233C232.568 187.544 231.899 186.55 230.993 186.233C229.247 185.621 227.335 185.51 225.558 184.976C223.591 184.388 222.406 182.936 222.314 180.861C222.22 178.73 223.521 177.463 225.348 176.598C229.855 174.466 234.152 175.659 236.25 179.655C236.095 179.969 235.943 180.28 235.787 180.594Z" fill="white"/>
<path d="M174.153 197.78C171.842 198.635 170.18 198.746 169.94 195.668C169.596 191.273 169.116 186.888 168.673 182.263C171.356 181.638 174.163 182.885 176.42 181.06C176.612 180.908 177.717 181.371 177.748 181.631C177.866 182.567 177.96 184.263 177.609 184.385C171.001 186.719 174.288 191.881 174.156 196.043C174.136 196.587 174.153 197.135 174.153 197.78Z" fill="white"/>
<path d="M179.821 184.206C179.821 183.493 179.592 182.665 179.879 182.098C180.24 181.375 180.984 180.432 181.632 180.378C182.308 180.317 183.632 181.132 183.7 181.686C184.257 186.203 184.588 190.75 184.987 195.287C185.119 196.801 184.257 197.24 182.913 197.307C181.413 197.382 180.94 196.608 180.832 195.267C180.528 191.578 180.163 187.895 179.821 184.206Z" fill="white"/>
</svg>
