<svg width="388" height="420" viewBox="0 0 388 420" fill="none" xmlns="http://www.w3.org/2000/svg">
<path d="M251.977 201.037C256.044 200.15 259.486 198.223 262.047 194.636C260.395 195.233 258.707 195.747 257.098 196.443C253.014 198.207 250.137 198.524 246.383 197.472C247.657 196.863 248.935 196.253 250.214 195.642C250.153 195.438 250.091 195.233 250.03 195.029C245.826 194.186 241.527 196.444 237.351 195.049C238.711 193.769 239.99 192.566 241.268 191.362C241.16 191.133 241.051 190.904 240.942 190.674C236.162 193.574 231.544 194.566 227.208 189.613C229.676 189.267 232.024 189.126 234.27 188.569C236.349 188.055 238.48 187.366 240.293 186.267C242.784 184.759 243.159 181.996 243.275 178.924C247.243 181.194 247.915 184.713 248.077 188.543C249.221 186.365 249.137 184.095 248.689 181.85C248.316 179.978 247.697 178.154 247.194 176.306C246.028 172.023 247.577 168.028 251.392 165.807C250.516 167.833 251.58 169.308 252.481 170.822C253.389 172.347 254.302 173.869 255.371 175.657C256.26 172.44 256.581 169.033 259.707 167.313C260.296 169.683 260.797 171.974 261.438 174.225C263.077 179.989 260.984 185.749 255.974 189.054C255.484 189.377 254.974 189.67 254.629 190.376C255.503 189.985 256.592 189.802 257.21 189.163C259.212 187.097 261.472 185.105 262.84 182.643C265.106 178.563 266.581 174.051 268.707 169.882C271.433 164.537 274.188 159.167 277.45 154.145C281.399 148.063 288.339 145.229 295.941 145.989C294.57 146.833 293.382 147.564 292.195 148.294C292.236 148.46 292.279 148.624 292.32 148.789C293.606 148.579 294.91 148.444 296.175 148.147C303.31 146.473 308.868 148.774 313.135 154.645C314.957 157.152 316.795 159.699 318.961 161.898C322.978 165.976 328.074 167.257 333.558 166.031C335.885 165.51 337.977 163.941 339.894 162.988C339.231 170.612 326.816 175.339 316.926 171.134C319.713 177.784 318.46 177.516 322.622 181.926C319.967 183.207 318.93 182.751 311.23 176.748C311.562 179.592 311.845 182.022 312.131 184.473C308.972 185.106 306.673 182.13 303.91 173.302C302.457 177.99 302.443 183.659 295.307 183.959C296.594 181.954 297.515 180.101 296.523 177.657C295.391 180.034 293.79 181.336 291.286 180.766C288.583 180.151 287.412 178.086 287.069 175.591C286.746 173.244 286.757 170.853 286.584 168.484C286.239 163.793 282.144 161.298 278.362 163.135C279.584 163.943 281.355 164.562 282.175 165.809C283.025 167.1 283.248 169.002 283.227 170.63C283.169 175.161 284.676 178.765 288.587 181.228C289.518 181.812 290.428 182.43 291.835 183.353C290.102 183.548 288.896 183.846 287.706 183.79C283.713 183.604 280.842 185.528 278.198 188.271C275.463 191.108 272.802 194.204 269.535 196.287C265.864 198.629 261.621 200.155 257.483 201.64C255.855 202.224 253.841 201.735 252.002 201.735C251.993 201.503 251.986 201.27 251.977 201.037Z" fill="white"/>
<path d="M139.713 188.565C139.693 184.715 140.376 181.209 144.031 179.096C144.201 179.292 144.353 179.384 144.355 179.48C144.464 185.351 147.695 187.733 153.347 188.614C155.623 188.969 157.913 189.239 160.221 189.552C158.094 193.42 154.196 193.796 146.773 190.909C146.637 191.043 146.501 191.177 146.364 191.312C147.605 192.511 148.845 193.711 150.211 195.031C146.074 196.453 141.788 194.181 137.601 195.005C137.527 195.197 137.453 195.39 137.38 195.582C138.646 196.208 139.912 196.834 141.467 197.603C138.535 198.041 135.844 198.437 133.178 197.47C130.656 196.555 128.176 195.526 125.356 194.422C126.549 196.914 127.278 197.377 135.641 201.249C135.646 201.438 135.651 201.627 135.656 201.816C133.957 201.816 132.179 202.146 130.573 201.76C123.226 199.996 116.696 196.702 111.636 190.897C110.506 189.603 109.389 188.291 108.185 187.068C106.102 184.956 103.603 183.802 100.564 183.83C99.1573 183.843 97.7467 183.597 96.2159 183.03C96.9631 182.551 97.6948 182.046 98.4593 181.597C102.773 179.063 104.637 175.297 104.346 170.324C104.102 166.128 105.561 164.284 109.582 163.359C106.379 161.498 102.126 163.251 101.326 166.84C101.057 168.052 101.123 169.335 101.002 170.582C100.806 172.617 100.784 174.697 100.315 176.668C99.78 178.917 98.3564 180.568 95.85 180.865C93.5218 181.141 92.1614 179.826 91.1556 177.712C90.0528 180.079 91.0596 181.904 92.3551 183.976C85.1932 183.656 85.1612 178.017 83.8319 173.626C82.9601 175.913 82.2466 178.368 81.1093 180.606C79.9556 182.878 78.1203 184.546 75.4193 184.724C75.767 182.117 76.0948 179.67 76.4944 176.675C74.3858 178.391 72.81 179.842 71.0647 181.048C69.2529 182.3 67.2299 182.979 64.6077 181.948C68.6967 179.281 68.8498 174.768 70.9705 171.034C60.5272 175.361 50.2985 171.514 47.5698 162.646C49.1655 163.612 50.7837 165.059 52.6699 165.646C58.5406 167.47 64.0023 166.35 68.4658 162.057C70.6842 159.924 72.5342 157.364 74.3262 154.838C78.628 148.776 84.2574 146.388 91.5612 148.147C92.7668 148.438 94.0087 148.579 95.466 148.364C94.2656 147.613 93.0643 146.863 91.8232 146.087C99.0829 145.012 106.292 148.315 109.986 153.808C114.156 160.007 117.786 166.511 120.521 173.519C122.025 177.375 123.951 181.099 126.017 184.693C127.565 187.385 129.835 189.518 132.647 190.256C130.916 188.316 128.797 186.369 127.213 184.057C125.215 181.141 124.944 177.835 126.1 174.384C126.865 172.098 127.29 169.698 127.892 167.243C130.982 168.947 131.45 172.323 132.397 175.584C133.312 172.169 137.218 170.066 136.359 165.961C139.937 167.597 141.54 171.978 140.39 176.518C139.664 179.38 139.134 182.302 138.726 185.226C138.576 186.3 139.031 187.457 139.21 188.576C139.378 188.572 139.546 188.568 139.713 188.565Z" fill="white"/>
<path d="M189.623 176.467C189.449 176.547 189.275 176.628 189.101 176.709C190.101 179.127 191.101 181.545 192.101 183.963C192.001 184.054 191.901 184.145 191.8 184.236C190.934 183.263 190.068 182.289 189.04 181.134C188.566 185.444 193.049 186.124 193.974 189.424C195.182 187.64 196.173 186.177 197.377 184.399C195.968 184.939 195.096 185.273 194.225 185.607C194.855 184.016 195.806 182.849 196.605 181.584C197.385 180.351 198.008 179.019 198.696 177.738C197.259 178.362 196.04 178.89 194.82 179.419C198.085 175.361 198.998 171.227 194.025 165.666C192.137 169.461 188.44 172.922 191.852 177.886C191.654 177.906 191.457 177.925 191.259 177.944L189.623 176.467ZM195.523 202.934C196.236 203.597 196.654 203.985 197.072 204.374L196.835 204.796C195.893 204.268 194.95 203.74 194.027 203.223C193.189 203.742 192.286 204.301 191.384 204.859C191.293 204.737 191.201 204.616 191.109 204.494C191.586 204.144 192.063 203.794 192.369 203.569C190.767 202.529 189.309 201.799 188.176 200.725C187.801 200.37 188.063 199.044 188.383 198.315C189.015 196.878 190.091 196.602 191.3 197.622C191.067 198.324 190.862 198.943 190.656 199.561C191.081 199.639 191.719 199.927 191.889 199.754C192.393 199.245 192.993 198.579 193.054 197.927C193.39 194.342 192.595 191.126 189.701 188.651C188.551 187.667 187.459 186.576 186.52 185.39C185.201 183.725 184.036 181.929 185.373 179.6C185.183 179.549 184.993 179.499 184.803 179.448C184.323 180.423 183.841 181.398 183.377 182.338C181.987 181.072 182.02 180.635 183.737 178.579C181.045 175.727 180.873 172.705 183.241 169.869C180.727 166.153 180.714 162.946 183.45 160.43C183.15 161.511 182.807 162.318 182.73 163.148C182.659 163.928 182.869 164.734 183.12 165.504C184.029 162.31 184.989 161.273 187.11 160.952C187.205 161.87 187.3 162.779 187.395 163.69C188.685 163.501 190.12 163.599 191.224 163.042C192.328 162.485 192.701 161.14 191.88 159.939C191.075 158.763 189.956 158.112 188.477 158.675C188.143 158.802 187.884 159.131 187.571 159.382C186.883 157.198 187.587 156.315 191.093 154.872C189.323 152.235 185.616 151.342 183.192 153.14C182.554 153.615 182.368 154.701 181.974 155.505C182.745 155.636 183.515 155.766 184.311 155.902C183.691 159.676 180.599 160.827 176.492 158.526C178.242 160.508 180.077 162.463 179.569 165.395C179.433 166.184 179.173 166.953 179.013 167.566C177.865 165.733 176.837 163.957 175.677 162.273C174.24 160.188 173.523 158.012 174.541 155.564C174.894 154.715 174.907 153.256 176.594 153.923C176.704 153.966 177.374 153.153 177.294 153.006C177.052 152.56 176.508 151.896 176.189 151.95C175.462 152.073 174.693 152.453 174.133 152.947C172.842 154.082 171.424 155.372 169.786 154.254C168.682 153.501 168.143 151.923 167.3 150.637C164.258 152.642 160.492 153.054 156.477 151.551C157.108 151.452 157.738 151.355 158.598 151.22C155.44 149.854 152.883 145.908 149.104 150.414C149.044 148.116 150.072 147.028 151.638 146.728C153.227 146.424 154.906 146.48 156.541 146.535C159.219 146.624 161.917 147.235 164.936 145.999C164.009 145.802 163.472 145.688 162.934 145.574C162.883 145.396 162.832 145.218 162.782 145.041C165.533 144.289 168.283 143.538 171.034 142.786C171.031 142.742 171.03 142.697 171.027 142.653C167.648 142.999 164.271 143.361 160.89 143.687C157.987 143.967 155.074 144.27 152.372 142.722C149.981 141.352 149.637 139.51 151.485 138.047C152.637 137.134 153.841 137.149 154.579 138.346C156.938 142.177 160.55 141.803 164.087 141.184C170.352 140.086 176.588 139.768 182.735 141.573C185.214 142.301 187.517 143.632 189.771 145.055C185.193 142.575 180.34 141.875 175.204 142.654C175.978 142.756 176.752 142.943 177.527 142.947C184.619 142.983 190.351 145.533 194.103 151.922C198.292 144.315 205.407 142.783 213.198 142.606C207.752 141.863 202.676 142.628 197.98 146.023C199.415 144.061 202.244 142.417 205.51 141.545C211.766 139.873 218.044 140.007 224.363 141.215C225.899 141.509 227.524 141.532 229.091 141.425C230.766 141.31 232.198 140.669 233.264 139.127C233.801 138.349 235.062 137.569 235.909 137.655C236.678 137.732 237.901 138.992 237.889 139.713C237.873 140.672 237.065 142.097 236.222 142.464C234.463 143.231 232.445 143.85 230.557 143.79C226.01 143.644 221.475 143.072 216.343 142.619C219.76 143.521 222.6 144.269 225.439 145.017C225.417 145.194 225.394 145.372 225.373 145.55C224.784 145.652 224.195 145.755 223.606 145.858C223.595 146.036 223.585 146.212 223.574 146.389C225.078 146.519 226.582 146.769 228.084 146.75C230.326 146.721 232.573 146.332 234.806 146.411C237.635 146.51 238.783 147.623 238.909 150.236C235.262 145.886 232.768 149.828 229.476 151.21C230.475 151.332 231.079 151.406 231.697 151.481C229.795 153.223 223.595 152.77 220.322 150.24C220.322 150.73 220.451 151.153 220.299 151.407C219.689 152.428 219.194 153.817 218.268 154.259C217.442 154.654 216.049 154.129 215.014 153.731C214.253 153.438 213.731 152.558 212.977 152.199C212.479 151.963 211.741 152.104 211.156 152.252C210.979 152.297 210.781 153.176 210.889 153.252C211.27 153.521 211.82 153.539 212.229 153.781C212.633 154.02 213.074 154.351 213.273 154.753C214.532 157.3 214.255 159.692 212.589 162.023C211.35 163.758 210.297 165.627 209.136 167.479C207.559 163.95 209.073 161.056 211.717 158.419C207.903 160.949 204.605 159.801 203.849 155.969C204.677 155.758 205.465 155.556 206.253 155.355C205.787 154.576 205.502 153.532 204.822 153.067C202.366 151.385 198.806 152.294 197.086 154.869C200.483 156.282 201.008 156.907 200.79 159.283C200.043 159.014 199.133 158.34 198.587 158.562C197.59 158.968 196.433 159.753 196.068 160.669C195.811 161.315 196.519 162.862 197.215 163.246C198.177 163.776 199.551 163.733 200.704 163.585C200.926 163.557 200.939 161.908 201.054 160.967C203.102 161.167 204.329 162.501 204.775 165.541C205.895 163.967 205.89 163.802 204.602 160.533C207.523 161.93 207.469 166.273 204.918 169.812C207.278 172.834 207.094 176.135 204.338 178.474C205.394 179.638 206.463 180.878 204.856 182.535C204.341 181.45 203.871 180.463 203.401 179.476C203.231 179.496 203.061 179.515 202.889 179.535C204.136 182.837 202.242 184.905 200.229 186.925C199.902 187.252 199.593 187.608 199.228 187.886C195.837 190.465 194.886 194.036 195.177 198.054C195.219 198.646 195.739 199.284 196.202 199.728C196.393 199.911 197.018 199.643 197.446 199.579C197.251 198.971 197.054 198.363 196.735 197.37C197.494 197.335 198.69 196.991 198.927 197.326C199.553 198.211 200.178 199.44 200.058 200.443C199.777 202.784 197.571 202.55 195.523 202.934Z" fill="white"/>
<path d="M271.746 240.68C274.702 238.505 277.737 236.424 280.556 234.084C281.226 233.528 281.173 232.1 281.453 231.073C280.559 231.05 279.6 230.802 278.783 231.039C274.069 232.409 272.848 236.48 271.746 240.68ZM254.385 269.001C254.112 268.897 253.878 268.761 253.628 268.72C245.37 267.364 237.122 265.926 228.839 264.744C227.168 264.506 225.336 265.148 223.616 265.548C220.122 266.359 219.658 268.655 220.192 271.788C220.883 275.851 224.07 277.731 227.642 278.574C234.833 280.272 241.888 279.605 248.711 276.594C252.076 275.109 253.706 272.486 254.385 269.001ZM259.774 273.035C258.885 271.826 258.23 270.933 257.539 269.992C255.692 272.069 254.064 273.87 252.468 275.699C247.679 281.19 241.399 283.449 234.362 283.842C229.542 284.111 224.691 284.203 220.305 281.543C217.109 279.605 215.188 276.953 215.554 273.086C215.669 271.871 215.911 270.477 216.6 269.535C221.03 263.492 226.414 259.04 234.571 260.277C240.71 261.208 246.813 262.365 252.933 263.422C253.627 263.542 254.323 263.662 255.258 263.824C256.615 257.482 257.935 251.32 259.254 245.158C259.138 245.106 259.023 245.053 258.907 245.001C257.272 246.773 255.744 248.664 253.971 250.284C252.081 252.01 250.095 253.715 247.901 255C245.12 256.627 243.403 255.574 243.756 252.403C244.243 248.022 245.216 243.697 245.945 239.341C246.408 236.567 246.803 233.781 247.229 231.001C247.018 230.865 246.807 230.729 246.596 230.593C245.135 231.606 243.674 232.619 242.214 233.631C242.043 233.403 241.874 233.174 241.703 232.946C244.288 230.772 246.752 228.424 249.511 226.5C250.867 225.555 251.584 226.983 251.469 228.215C251.2 231.097 250.802 233.973 250.327 236.831C249.678 240.735 248.754 244.601 248.246 248.522C247.903 251.18 249.065 251.926 251.308 250.414C253.174 249.157 254.668 247.317 256.237 245.651C259.948 241.709 260.972 236.708 261.688 231.584C261.909 230.002 264.438 227.394 266.459 226.698C265.032 234.511 263.634 242.169 262.128 250.412C264.232 247.682 266.415 245.969 267.328 242.821C269.417 235.622 274.653 230.728 280.928 226.959C282.351 226.105 284.119 225.238 285.675 226.799C286.652 227.781 286.112 230.434 284.413 231.975C280.557 235.473 276.593 238.854 272.589 242.182C270.748 243.713 270.344 246.733 271.881 249.421C272.995 251.37 274.915 251.805 277.403 250.626C278.383 250.163 279.323 249.614 280.462 249.008C279.631 252.1 274.339 256.048 271.593 255.865C269.758 255.743 268.427 254.744 267.756 253.137C267.053 251.456 266.665 249.645 266.061 247.633C264.034 250.12 261.929 252.587 261.015 255.791C260.51 257.563 260.248 259.41 259.953 261.235C259.599 263.419 260.595 264.658 262.681 265.133C270.245 266.857 277.513 265.887 284.606 262.944C287.597 261.703 290.618 260.537 293.63 259.347C294.151 259.142 294.694 258.985 295.524 259.178C295.205 259.597 294.9 260.029 294.564 260.435C288.823 267.359 280.97 269.67 272.458 270.475C270.623 270.648 268.753 270.689 266.915 270.562C264.301 270.382 261.608 269.629 259.774 273.035Z" fill="white"/>
<path d="M128.848 204.287C125.97 205.541 123.074 206.76 120.216 208.062C116.631 209.695 112.999 210.477 109.06 209.42C105.74 208.53 102.834 209.753 99.9639 211.545C100.224 211.16 100.485 210.776 100.746 210.392C102.453 207.876 103.522 205.167 103.486 202.061C103.457 199.564 102.725 197.479 100.376 196.304C97.8952 195.064 95.3879 195.021 93.0528 196.656C90.587 198.382 89.4203 200.818 89.6841 203.826C89.8597 205.816 90.9624 206.585 92.5365 206.427C92.1075 205.183 91.2288 203.844 91.2789 202.539C91.4009 199.351 94.6043 198.019 97.1894 199.889C100.837 202.528 100.735 208.893 96.8504 211.352C93.2206 213.649 89.1289 214.543 84.8781 213.865C80.2718 213.129 76.0738 206.441 77.0562 201.543C72.4188 201.591 68.8729 199.577 66.2705 195.848C68.6688 195.848 71.0498 196.16 73.2949 195.743C74.9122 195.442 76.9871 194.555 77.7611 193.269C82.4253 185.521 89.3797 184.869 97.1462 186.57C103.81 188.029 109.619 191.191 114.565 195.913C115.807 197.099 117.047 198.292 118.337 199.425C121.313 202.04 124.498 204.212 128.848 204.287Z" fill="white"/>
<path d="M294.2 206.391C296.742 206.516 297.787 205.735 297.944 203.748C298.169 200.904 297.095 198.563 294.841 196.829C292.579 195.089 290.078 195.028 287.539 196.126C285.312 197.091 284.28 198.92 284.136 201.29C283.898 205.189 285.341 208.513 287.745 211.514C287.554 211.571 287.386 211.673 287.329 211.63C284.088 209.155 280.568 208.968 276.625 209.647C274.35 210.039 271.755 209.511 269.49 208.805C266.1 207.751 262.871 206.183 259.583 204.809C259.261 204.674 259.012 204.366 258.331 203.82C264.421 204.238 268.101 200.745 271.658 197.21C277.048 191.855 283.288 188.009 290.757 186.579C293.871 185.983 297.184 186.037 300.367 186.295C303.658 186.561 306.512 188.279 308.173 191.165C311.084 196.221 315.501 196.637 320.504 195.746C320.632 195.722 320.75 195.642 320.878 195.619C320.999 195.596 321.128 195.614 321.556 195.614C318.795 199.483 315.356 201.601 310.623 201.508C311.589 206.378 308.903 209.569 305.716 212.45C304.929 213.162 303.771 213.691 302.718 213.841C298.456 214.449 294.382 213.651 290.753 211.338C287.47 209.247 286.805 204.255 289.214 201.135C290.27 199.766 291.705 198.53 293.403 199.139C294.568 199.557 295.693 200.85 296.247 202.03C297.035 203.71 296.225 205.223 294.2 206.391Z" fill="white"/>
<path d="M224.522 194.436C224.497 197.527 223.072 198.997 219.989 199.477C215.105 200.236 212.836 198.257 210.601 191.035C209.478 193.709 208.592 195.852 209.98 198.679C210.788 200.325 210.509 202.706 210.189 204.67C208.151 217.25 205.897 229.794 203.892 242.378C203.526 244.675 203.838 247.117 204.093 249.464C204.306 251.411 205.138 251.859 206.991 251.096C208.469 250.487 209.81 249.541 211.22 248.741C211.295 248.908 211.42 249.103 211.39 249.131C209.194 251.184 207.197 253.543 204.721 255.177C201.957 257.001 199.857 255.99 199.568 252.668C199.252 249.027 199.309 245.261 199.875 241.655C201.668 230.236 203.779 218.866 205.752 207.475C205.909 206.566 206.023 205.639 206.038 204.719C206.061 203.325 206.288 201.715 203.279 202.198C204.494 200.917 205.138 200.135 205.889 199.474C206.785 198.685 207.108 197.979 206.505 196.755C205.635 194.99 205.513 193.111 206.362 191.199C206.622 190.613 206.465 189.797 206.369 189.104C205.377 181.941 211.86 173.777 217.96 173.634C216.74 175.052 215.071 176.795 213.636 178.713C212.155 180.692 211.181 182.906 212.052 186.032C215.03 179.301 221.382 176.419 225.757 171.58C228.541 168.502 232.197 166.868 236.429 166.492C238.089 166.345 239.699 165.632 241.446 165.144C241.684 166.729 240.695 167.997 239.517 168.942C237.985 170.171 236.291 171.251 234.536 172.137C230.772 174.041 227.385 176.41 224.678 179.652C223.731 180.787 223.042 182.138 222.417 183.575C225.617 180.776 229.612 179.873 233.368 178.45C239.614 176.086 243.412 171.706 246.129 163.574C246.683 168.292 245.73 172.323 243.519 175.975C239.591 182.459 234.075 186.554 226.183 186.82C224.539 186.876 222.888 187.124 221.271 187.438C219.164 187.846 217.335 188.767 216.796 191.087C216.42 192.709 217.244 193.91 218.547 194.777C220.479 196.064 222.435 196.359 224.522 194.436Z" fill="white"/>
<path d="M104.975 216.247C104.777 216.173 104.579 216.099 104.382 216.025C99.4964 219.152 98.9091 224.963 96.0127 229.415C98.001 230.969 99.819 232.314 102.21 232.186C102.777 232.157 103.74 231.464 103.785 231.005C104.267 226.094 104.601 221.168 104.975 216.247ZM103.528 234.305C99.9686 237.926 96.7184 237.093 93.4345 234.752C91.3113 238.035 89.5158 241.454 87.1176 244.378C82.769 249.679 78.2761 254.899 73.4492 259.761C67.1565 266.1 60.5411 264.103 55.9781 260.493C51.8008 257.188 49.6386 248.28 55.0397 243.584C56.0845 242.675 56.9935 241.608 58.1714 240.404C58.3478 241.066 58.4931 241.314 58.4257 241.402C53.7848 247.566 57.0687 258.011 66.8304 259.136C69.4631 259.439 71.9729 259.133 73.9094 257.351C76.5212 254.947 79.2118 252.497 81.2469 249.626C84.9424 244.415 88.1788 238.879 91.7039 233.324C88.4546 230.283 85.6741 227.231 82.4412 224.772C78.494 221.77 73.873 221.01 69.1137 222.784C68.1217 223.154 67.0899 224.101 66.6125 225.052C64.4944 229.264 64.4737 233.418 67.4549 237.35C69.4856 240.028 73.5876 241.807 77.105 239.436C77.3826 239.248 77.7727 239.226 78.2951 239.073C74.4776 244.91 70.123 247.553 64.3491 242.577C59.8882 238.734 59.0553 231.991 62.6921 226.9C64.7703 223.99 67.4341 221.333 70.3037 219.191C74.7906 215.84 82.7128 217.006 87.2032 221.188C89.4164 223.25 91.5984 225.345 93.9586 227.581C97.2745 220.289 102.254 214.812 109.41 210.518C109.41 211.973 109.47 212.865 109.402 213.747C108.782 221.722 108.102 229.692 107.528 237.67C107.324 240.501 107.333 243.35 107.315 246.191C107.31 247.106 107.438 248.046 107.662 248.935C108.225 251.166 109.168 251.508 111.048 250.224C111.927 249.623 112.771 248.972 113.631 248.343C113.799 248.519 113.966 248.694 114.133 248.87C112.682 250.384 111.299 251.974 109.758 253.39C108.469 254.573 107.112 256.135 105.108 255.389C103.128 254.651 102.86 252.597 102.859 250.867C102.856 246.446 103.134 242.026 103.31 237.607C103.346 236.718 103.426 235.829 103.528 234.305Z" fill="white"/>
<path d="M175.537 185.557C176.49 179.883 172.632 176.847 169.116 173.36C170.374 173.797 171.686 174.12 172.881 174.689C178.772 177.488 181.954 183.352 181.176 189.724C181.103 190.331 181.279 190.997 181.454 191.603C182.231 194.309 181.666 196.715 179.806 198.779C179.343 199.293 178.599 199.554 177.812 199.802C178.905 196.783 178.656 194.035 177.268 191.633C176.192 193.713 175.433 196.167 173.882 197.921C172.111 199.924 169.342 199.854 166.805 199.295C164.048 198.688 162.886 197.144 163.087 194.429C164.654 195.791 166.326 196.264 168.189 195.311C169.67 194.555 170.926 193.564 170.914 191.741C170.903 189.873 169.79 188.484 168.105 188.064C165.498 187.414 162.805 186.972 160.124 186.783C149.384 186.024 139.958 174.52 141.466 164.187C142.566 166.357 143.593 168.831 145.003 171.064C147.367 174.807 150.719 177.374 155 178.754C158.558 179.899 162.214 180.917 164.977 183.733C165.104 183.634 165.231 183.534 165.359 183.434C164.62 182.239 164.001 180.947 163.12 179.867C160.41 176.536 156.984 174.113 153.162 172.174C151.409 171.285 149.648 170.273 148.193 168.977C147.12 168.023 146.538 166.518 145.662 165.139C148.268 165.73 150.34 166.34 152.456 166.649C156.743 167.274 160.01 169.595 162.986 172.527C164.489 174.009 166.033 175.457 167.648 176.814C170.678 179.36 173.863 181.749 175.537 185.557Z" fill="white"/>
<path d="M166.08 230.749C163.541 230.749 161.312 230.68 159.089 230.771C157.369 230.841 156.208 231.705 155.56 233.425C153.752 238.223 153.674 243.087 154.758 248.02C154.91 248.716 155.247 249.385 155.579 250.025C156.286 251.389 157.453 251.758 158.386 250.521C160.275 248.019 162.473 245.537 163.53 242.674C164.879 239.016 165.226 234.988 166.08 230.749ZM161.719 247.968C159.795 250.126 157.984 252.4 155.915 254.409C153.783 256.48 152.35 256.1 151.102 253.413C150.743 252.638 150.485 251.813 150.23 250.996C149.977 250.189 149.789 249.362 149.41 247.931C147.944 249.538 146.818 250.988 145.469 252.188C144.154 253.356 142.711 254.477 141.141 255.236C139.401 256.076 138.202 255.322 138.234 253.374C138.278 250.69 138.54 247.98 139.025 245.341C139.75 241.388 140.783 237.494 141.607 233.559C141.786 232.706 141.633 231.784 141.633 230.315C139.842 231.56 138.418 232.549 136.994 233.538C136.907 233.446 136.821 233.354 136.734 233.262C136.833 232.997 136.859 232.656 137.041 232.478C138.886 230.681 140.69 228.833 142.656 227.178C143.315 226.622 144.682 226.108 145.226 226.427C145.841 226.787 146.2 228.129 146.134 229.003C145.973 231.094 145.559 233.174 145.137 235.236C144.289 239.369 143.311 243.477 142.515 247.62C142.316 248.655 142.602 249.784 142.711 251.614C144.592 250.521 146.034 249.833 147.301 248.905C148.519 248.013 149.481 247.096 149.463 245.14C149.399 238.086 152.42 232.431 158.006 228.109C161.613 225.318 165.665 225.635 169.751 226.364C170.089 226.424 170.526 227.652 170.413 228.241C169.38 233.687 168.162 239.097 167.171 244.55C166.884 246.131 167.001 247.836 167.217 249.445C167.448 251.158 168.506 251.524 170.012 250.481C171.036 249.771 171.892 248.824 172.854 248.019C173.057 247.85 173.394 247.842 173.978 248.137C173.436 248.721 172.922 249.335 172.346 249.883C170.58 251.568 168.919 253.401 166.974 254.85C164.791 256.474 163.307 255.746 162.788 253.098C162.636 252.325 162.556 251.532 162.505 250.745C162.458 250.025 162.495 249.298 162.495 248.574C162.236 248.372 161.977 248.171 161.719 247.968Z" fill="white"/>
<path d="M309.442 222.822C310.13 221.922 310.819 221.021 311.763 219.786C308.94 218.328 306.182 217.587 303.187 218.103C300.227 218.613 298.709 221.251 300.075 223.958C301.158 226.104 302.767 228.001 304.25 229.926C306.424 232.748 308.938 235.338 310.872 238.31C314.41 243.747 313.745 247.957 309.082 252.448C308.083 253.411 307.088 254.382 306.035 255.282C301.47 259.184 296.268 259.504 290.979 257.374C285.318 255.095 284.119 248.368 288.351 244.04C289.385 242.982 290.46 241.963 291.919 240.531C291.875 241.471 291.974 241.866 291.828 242.119C288.615 247.675 291.267 253.169 297.669 253.722C300.169 253.938 302.759 253.463 305.271 253.068C307.215 252.763 308.03 251.239 308.325 249.386C308.819 246.277 307.67 243.617 305.897 241.253C303.721 238.35 301.299 235.63 299.023 232.799C298.032 231.567 297.088 230.289 296.21 228.974C294.345 226.178 294.673 223.368 296.72 220.912C298.445 218.843 300.384 216.897 302.476 215.203C305.491 212.762 312.049 212.757 315.058 215.063C315.584 215.466 315.964 216.554 315.836 217.213C315.539 218.744 311.526 222.433 309.442 222.822Z" fill="white"/>
<path d="M178.453 251.081C179.483 251.167 180.263 251.32 181.035 251.282C187.623 250.951 186.791 251.296 189.085 245.756C190.7 241.856 191.113 237.673 190.279 233.507C190.085 232.539 189.121 231.276 188.238 230.991C186.474 230.421 181.333 234.09 180.999 235.956C180.118 240.881 179.332 245.823 178.453 251.081ZM176.854 204.619C179.045 202.26 180.995 199.613 183.987 198.137C185.463 197.408 186.53 198.316 186.645 199.798C186.783 201.557 186.753 203.378 186.457 205.115C184.956 213.907 183.346 222.681 181.776 231.462C181.732 231.708 181.716 231.96 181.639 232.609C183.023 231.391 184.073 230.311 185.278 229.449C186.72 228.418 188.219 227.403 189.831 226.689C191.978 225.739 193.921 226.459 194.331 228.719C194.854 231.587 195.047 234.633 194.693 237.517C193.877 244.156 190.65 249.624 185.418 253.814C182.247 256.352 178.498 256.04 174.812 255.475C174.482 255.425 174.055 254.078 174.162 253.412C175.168 247.152 176.272 240.908 177.364 234.662C178.989 225.357 180.633 216.056 182.246 206.748C182.38 205.973 182.435 205.155 182.341 204.379C182.26 203.714 181.912 203.082 181.681 202.435C181.027 202.681 180.31 202.828 179.735 203.197C178.86 203.756 178.084 204.467 177.266 205.114C177.128 204.949 176.992 204.784 176.854 204.619Z" fill="white"/>
<path d="M226.238 240.389C226.38 240.54 226.522 240.691 226.664 240.844C229.583 238.7 232.513 236.573 235.406 234.397C235.801 234.1 236.168 233.598 236.275 233.128C236.441 232.403 236.371 231.625 236.402 230.869C235.664 230.849 234.866 230.635 234.197 230.841C229.435 232.303 227.942 236.44 226.238 240.389ZM237.624 246.252C237.81 246.861 237.918 247.046 237.874 247.095C235.11 250.181 232.55 253.536 228.486 255.06C225.46 256.193 223.287 255.237 222.158 252.214C220.907 248.863 220.978 245.414 222.397 242.157C224.989 236.204 229.116 231.447 234.457 227.785C235.573 227.02 236.924 226.486 238.245 226.156C240.084 225.696 241.385 226.793 240.999 228.622C240.704 230.023 240.034 231.608 239.014 232.548C235.186 236.071 231.173 239.393 227.173 242.724C225.79 243.875 225.428 245.797 226.431 248.437C227.074 250.129 228.234 251.504 230.135 250.934C231.963 250.385 233.65 249.302 235.321 248.318C236.124 247.843 236.745 247.057 237.624 246.252Z" fill="white"/>
<path d="M120.616 230.454C118.5 232.149 116.382 233.844 114.266 235.538C114.159 235.433 114.052 235.327 113.944 235.222C114.047 234.957 114.078 234.618 114.263 234.438C116.779 232.006 119.252 229.521 121.89 227.227C122.622 226.591 123.858 226.536 124.864 226.215C125.175 227.296 125.526 228.369 125.775 229.465C125.854 229.814 125.665 230.223 125.514 231.093C129.278 228.093 132.625 224.648 138.175 227.436C136.731 228.755 135.581 229.93 134.286 230.915C133.871 231.231 133.035 231.203 132.458 231.062C129.794 230.409 127.641 231.497 125.698 233.064C125.172 233.488 124.929 234.422 124.81 235.164C123.969 240.372 123.421 245.641 122.279 250.781C121.871 252.617 120.079 254.147 118.918 255.818C118.602 255.73 118.285 255.642 117.969 255.554C117.916 254.274 117.652 252.96 117.848 251.72C118.518 247.481 119.358 243.27 120.114 239.045C120.596 236.35 121.041 233.648 121.503 230.949C121.207 230.784 120.912 230.619 120.616 230.454Z" fill="white"/>
<path d="M146.294 207.548C149.007 209.656 149.638 212.361 149.249 215.398C148.752 219.277 145.679 221.182 142.961 223.495C145.318 219.311 146.096 215.336 142.452 211.713C143.761 210.295 144.989 208.963 146.294 207.548Z" fill="white"/>
<path d="M215.499 214.853C216.98 213.437 218.249 212.223 219.496 211.032C224.468 214.777 223.042 221.474 215.957 225.855C218.309 222.111 218.993 218.438 215.499 214.853Z" fill="white"/>
<path d="M191.664 136.03C193.187 137.902 194.485 139.498 195.873 141.205C196.257 140.615 196.462 140.301 196.654 140.005C198.027 140.033 197.711 143.828 196.259 145.863C195.622 146.755 195.109 147.735 194.621 148.541C193.695 147.219 192.786 145.92 191.684 144.346C192.109 144.597 192.302 144.809 192.48 144.798C192.857 144.773 193.227 144.632 193.601 144.538C193.383 144.193 193.22 143.61 192.939 143.546C191.859 143.296 190.741 143.213 189.437 143.042C189.72 142.618 189.899 142.35 190.007 142.187C189.071 141.447 188.156 140.723 187.24 140C187.321 139.878 187.402 139.756 187.484 139.634C188.221 139.777 188.958 139.921 189.897 140.104C189.288 139.22 188.778 138.479 188.27 137.74L188.486 137.588C189.777 138.383 191.069 139.178 192.64 140.144C192.272 138.596 191.993 137.417 191.664 136.03Z" fill="white"/>
<path d="M193.908 204.597C194.823 205.862 195.619 206.963 196.551 208.25H195.167C194.895 209.383 194.616 210.544 194.228 212.159C193.195 210.212 194.197 208.036 192.361 206.498C192.719 206.059 193.304 205.339 193.908 204.597Z" fill="white"/>
</svg>
