<svg width="388" height="420" viewBox="0 0 388 420" fill="none" xmlns="http://www.w3.org/2000/svg">
<path d="M244.899 296.409L251.541 251.162C251.957 248.047 252.477 245.037 253.514 241.926L236.7 245.554L234.832 232.169L255.693 224.801H277.382L267.315 296.409H244.899Z" fill="white"/>
<path fill-rule="evenodd" clip-rule="evenodd" d="M203.598 126.111C203.568 126.165 203.538 126.219 203.507 126.27C203.723 126.355 203.94 126.439 204.159 126.52C204.176 126.476 204.193 126.436 204.213 126.392C204.007 126.297 203.801 126.206 203.598 126.111ZM157.7 292.27C157.22 293.094 156.73 293.915 156.264 294.743C156.092 295.047 156.004 295.395 155.818 295.686C154.679 297.476 153.554 299.273 152.372 301.034C151.014 303.054 149.629 305.051 148.213 307.03C146.392 309.571 144.021 311.304 140.919 312.01C139.554 312.321 138.24 312.662 136.825 312.284C135.396 311.905 134.176 311.186 133.196 310.138C131.21 308.02 130.071 305.382 128.892 302.773C128.625 302.182 128.264 301.625 128.021 301.02C127.244 299.088 126.348 297.182 125.784 295.189C125.264 293.355 124.723 291.493 124.842 289.507C124.906 288.419 124.581 287.307 124.399 286.213C124.267 285.426 124.048 284.652 123.936 283.861C123.852 283.243 123.507 282.821 123.115 282.388C120.801 279.851 118.423 277.361 116.2 274.743C114.247 272.439 112.74 269.824 111.48 267.067C110.727 265.419 109.882 263.811 109.065 262.192C107.193 258.48 105.963 254.537 104.98 250.517C104.595 248.956 104.5 247.317 104.274 245.713C104.257 245.598 104.284 245.469 104.24 245.368C103.544 243.699 103.706 241.902 103.514 240.165C103.254 237.753 103.108 235.328 102.946 232.905C102.835 231.284 102.713 229.662 102.727 228.04C102.74 226.385 102.909 224.733 103.024 223.081C103.088 222.155 103.173 221.233 103.274 220.314C103.392 219.243 103.497 218.165 103.69 217.108C103.808 216.463 103.632 216.003 103.21 215.54C102.578 214.844 101.815 214.436 100.889 214.388C100.436 214.365 100.085 214.304 99.7875 213.909C99.5916 213.645 99.2673 213.449 98.9632 213.294C96.1423 211.861 93.345 210.365 90.47 209.047C89.1423 208.439 88.1963 207.358 86.9733 206.662C85.8551 207.456 85.6389 207.398 84.5173 206.638C83.6659 206.061 82.72 205.611 81.7977 205.149C79.8382 204.165 77.8754 203.192 75.899 202.25C73.8416 201.27 71.7402 200.388 69.7098 199.361C68.4058 198.703 67.1659 197.902 65.9463 197.091C65.0679 196.51 64.97 195.899 65.3821 194.77C68.3652 194.108 71.3315 193.287 74.3551 192.844C76.0713 192.594 77.4767 191.828 78.9767 191.159C80.7031 190.392 82.4429 189.649 84.1727 188.885C85.4429 188.331 86.6896 187.709 87.9835 187.216C89.7132 186.561 91.4666 185.959 93.2301 185.412C95.4733 184.716 97.7977 184.368 100.041 183.618C102.771 182.703 105.595 182.013 108.507 181.811C109.544 181.74 110.568 181.51 111.598 181.348C111.71 181.331 111.845 181.317 111.926 181.25C113.092 180.277 114.399 180.78 115.713 180.885C116.277 179.746 116.845 178.601 117.453 177.375C116.061 177.03 114.693 177.081 113.335 177.314C111.271 177.669 109.213 177.797 107.146 177.375C107.217 176.395 107.328 176.182 108.159 176.111C109.659 175.986 111.163 175.946 112.666 175.875C114.318 175.797 115.97 175.669 117.625 175.669C118.602 175.665 119.014 175.176 119.264 174.226C117.659 173.996 116.075 173.807 114.5 173.537C112.929 173.267 111.338 173.044 109.811 172.534C110.142 171.429 110.223 171.317 111.169 171.378C112.44 171.456 113.706 171.591 114.97 171.757C116.527 171.963 118.075 172.23 119.879 172.507C118.862 171.301 117.713 170.618 116.669 169.851C115.595 169.061 114.352 168.503 113.132 167.817C113.176 167.493 113.217 167.159 113.267 166.828C113.402 165.936 113.963 165.652 114.737 166.115C115.196 166.392 115.632 166.716 116.068 167.034C117.804 168.307 119.534 169.588 121.308 170.895C123.331 168.777 125.342 166.676 127.372 164.551C127.217 163.358 126.605 162.338 125.842 161.402C124.821 160.162 124.301 158.733 124.284 157.152C124.267 155.804 124.416 154.453 124.423 153.105C124.43 151.54 125.024 150.091 125.254 148.571C125.467 147.165 125.909 145.801 125.848 144.348C125.828 143.905 126.014 143.442 126.152 143.003C126.419 142.179 126.578 142.081 127.396 142.105C128.213 142.128 128.429 142.341 128.7 143.115C128.845 143.53 129.108 143.932 129.402 144.267C130.531 145.564 131.676 146.855 132.855 148.108C133.835 149.152 134.017 150.368 133.97 151.743C133.933 152.875 134.179 154.013 134.25 155.152C134.291 155.79 134.267 156.436 134.22 157.074C134.169 157.79 134.058 158.503 133.936 159.5C134.568 159.159 135.004 159.003 135.342 158.73C137.065 157.334 139.135 156.699 141.19 156.051C142.369 155.676 143.568 155.375 144.76 155.054C147.257 154.388 149.781 154.399 152.342 154.598C154.473 154.763 156.619 154.719 158.757 154.777C158.98 154.784 159.196 154.899 159.419 154.905C160.176 154.932 160.936 154.926 161.693 154.949C162.257 154.966 162.818 155.013 163.544 155.057C163.44 154.54 163.426 153.993 163.22 153.534C162.531 151.993 162.288 150.344 162.146 148.716C162.068 147.811 162.446 146.817 162.808 145.942C163.304 144.74 164 143.625 164.568 142.449C165.389 140.75 166.193 139.044 166.956 137.321C167.494 136.111 167.892 135.821 169.338 135.892C169.473 136.203 169.619 136.551 169.781 136.895C170.031 137.422 170.321 137.909 170.896 138.176C171.132 138.284 171.389 138.466 171.504 138.686C172.115 139.834 172.693 141 173.271 142.169C174.254 144.152 173.804 146.091 173.304 148.128C172.74 150.426 171.446 152.365 170.625 154.524C170.301 155.385 169.872 156.209 169.45 157.132C169.73 157.277 169.943 157.415 170.179 157.507C171.152 157.878 172.152 158.206 172.892 159C173.257 159.392 173.679 159.466 174.159 159.257C175.355 158.723 176.548 158.182 177.747 157.655C178.095 157.503 178.453 157.385 178.815 157.27C179.652 157.007 180.531 156.834 181.331 156.476C182.389 156.007 183.264 156.24 183.879 157.331C183.615 157.932 183.281 158.223 182.504 158.26C181.612 158.304 180.72 158.706 179.869 159.057C178.73 159.527 177.629 160.088 176.521 160.628C176.152 160.807 175.818 161.051 175.409 161.304C176.271 162.071 177.044 162.76 177.774 163.409C179.909 162.723 181.96 162.037 184.024 161.412C185.568 160.942 187.129 160.5 188.7 160.138C189.75 159.895 190.402 160.351 190.774 161.419C190.426 161.814 190.125 162.111 189.456 162.277C186.477 162.996 183.544 163.909 180.602 164.77C180.284 164.865 180 165.081 179.652 165.263C180.342 166.29 181.098 166.855 182.416 166.841C184.217 166.824 186.031 167.061 187.828 167.29C189.436 167.493 191.024 167.709 192.639 167.388C193.453 167.23 194.693 167.915 195.004 168.621C195.21 169.084 194.548 170.013 193.983 170.037C193.791 170.044 193.592 170.02 193.409 169.966C191.156 169.314 188.838 169.328 186.521 169.267C185.483 169.24 184.45 169.111 183.203 169.013C184.896 171.426 186.47 173.682 188.061 175.929C189.666 178.192 191.288 180.439 192.831 182.601C197.416 182.219 201.906 181.834 206.392 181.49C207.338 181.415 208.298 181.486 209.25 181.483C212.298 181.469 215.345 181.432 218.389 181.446C221.017 181.456 223.615 181.811 226.186 182.321C227.578 182.594 228.95 182.986 230.335 183.304C230.706 183.392 231.092 183.439 231.473 183.449C234.088 183.53 236.703 183.581 239.318 183.679C240.044 183.706 240.764 183.871 241.558 183.983C241.642 183.125 241.737 182.338 241.592 181.493C241.369 180.199 240.99 178.895 241.284 177.554C240.615 176.929 241.534 175.892 240.703 175.311C241.119 174.486 240.443 173.74 240.544 172.892C240.639 172.091 240.308 171.236 240.166 170.405C240.122 170.142 239.967 169.831 240.051 169.618C240.551 168.361 239.94 167.277 239.554 166.165C239.325 165.493 238.642 164.787 238.761 164.223C238.983 163.172 238.406 162.25 238.609 161.253C238.706 160.763 238.45 160.385 237.963 160.206C238.081 159.736 238.237 159.273 238.315 158.797C238.396 158.287 237.923 158.115 237.663 157.797C237.409 157.49 238.375 157.169 237.774 156.726C237.72 156.689 237.656 156.577 237.659 156.574C238.426 155.932 237.23 155.888 237.321 155.456C236.686 155.334 236.754 154.844 236.767 154.388C236.804 153.202 236.862 152.017 236.865 150.831C236.865 150.604 236.581 150.388 236.558 150.155C236.355 147.925 236.024 145.696 236.041 143.469C236.054 141.604 235.798 139.773 235.781 137.929C235.767 136.439 235.98 134.946 236.085 133.456C236.142 132.574 236.19 131.692 236.223 130.807C236.244 130.314 236.257 129.817 236.213 129.327C236.166 128.797 236.044 128.273 235.97 127.746C235.838 126.8 235.683 125.854 235.602 124.905C235.544 124.182 235.592 123.449 235.592 122.588C235.027 122.658 234.554 122.75 234.078 122.777C231.321 122.932 228.673 123.584 226.031 124.341C223.913 124.946 221.818 125.581 219.777 126.425C218.896 126.794 217.94 127.023 216.869 126.811C215.727 126.581 214.609 127.135 213.527 127.554C212.578 127.922 211.615 128.267 210.666 128.628C210.531 128.679 210.362 128.763 210.304 128.881C209.788 129.854 209.021 129.54 208.294 129.26C206.963 128.75 205.669 128.152 204.328 127.675C202.875 127.165 201.386 126.756 199.913 126.304C198.45 125.854 197.041 126.206 195.754 126.834C193.734 127.817 191.859 129.057 190.544 130.959C190.281 131.338 189.97 131.432 189.554 131.368C189.058 131.29 188.558 131.348 188.051 131.594C187.946 131.236 187.723 130.881 187.777 130.577C188.051 128.983 188.443 127.439 189.325 126.017C189.987 124.949 190.355 123.702 190.889 122.55C191.629 120.966 192.612 119.544 193.74 118.206C194.933 116.787 196.021 115.277 197.244 113.888C199.149 111.729 201.186 109.682 203.061 107.5C204.757 105.52 206.811 103.952 208.767 102.277C210.132 101.104 211.622 100.077 213.051 98.9794C213.875 98.3477 214.679 97.6923 215.504 97.0605C216.963 95.9355 218.713 95.3781 220.362 94.6281C221.514 94.1044 222.75 93.7531 223.872 93.1754C226.379 91.8882 229.095 91.3376 231.801 90.7193C232.136 90.6416 232.473 90.5639 232.929 90.4625C232.95 89.5065 232.967 88.5538 232.984 87.5977C233.004 86.5875 233.825 86.047 234.774 86.449C235.173 86.618 235.318 86.9524 235.311 87.3882C235.294 88.2734 235.304 89.1585 235.304 89.993C235.531 90.1146 235.629 90.2159 235.727 90.2159C237.828 90.2362 239.835 90.7936 241.872 91.2058C244.284 91.699 246.73 92.0166 249.159 92.4254C251.264 92.7801 253.23 93.5571 255.173 94.4186C258.997 96.118 262.578 98.172 265.615 101.094C267.176 102.594 268.841 103.986 270.352 105.537C271.747 106.976 273.041 108.52 274.294 110.084C275.693 111.831 277.078 113.598 277.97 115.682C278.558 117.061 279.112 118.456 279.693 119.838C279.993 120.547 280.298 121.253 280.642 121.942C280.872 122.405 280.879 122.811 280.588 123.243C280.284 123.692 279.892 123.55 279.456 123.534C278.426 123.5 277.521 123.172 276.598 122.736C275.247 122.098 273.747 122.213 272.294 122.084C268.564 121.753 265.352 123.199 262.243 124.979C261.419 125.452 260.632 125.895 259.659 125.571C259.338 125.463 259.014 125.304 258.75 125.091C257.828 124.351 256.76 124.108 255.619 124.061C255.429 124.05 255.196 124.104 255.061 124.013C253.406 122.929 251.446 123.013 249.622 122.686C246.818 122.179 243.966 122.047 241.105 122.287C240.119 122.368 239.122 122.3 238.112 122.3C238.007 123.358 237.899 124.3 237.835 125.243C237.808 125.652 237.825 126.081 237.923 126.476C238.176 127.517 238.527 128.533 238.76 129.577C238.879 130.121 238.906 130.713 238.838 131.263C238.652 132.756 238.274 134.233 238.2 135.726C238.129 137.179 238.335 138.645 238.416 140.104C238.443 140.564 238.453 141.02 238.477 141.476C238.578 143.584 238.669 145.692 238.794 147.797C238.939 150.182 239.088 152.571 239.284 154.952C239.416 156.564 239.602 158.175 239.828 159.78C240.054 161.381 240.355 162.973 240.635 164.564C240.72 165.017 240.794 165.49 240.973 165.905C241.777 167.736 242.091 169.645 242.142 171.638C242.166 172.665 242.466 173.682 242.608 174.709C242.879 176.655 243.186 178.598 243.358 180.554C243.47 181.848 243.382 183.158 243.382 184.469C244.99 185.25 246.585 185.652 248.237 185.834C248.507 185.865 248.811 185.702 249.081 185.588C249.963 185.216 251.318 185.672 251.659 186.473C252.054 187.408 251.659 188.209 250.703 188.547C249.071 189.118 247.527 189.848 246.206 191.023C245.554 191.601 244.754 192.013 244.037 192.49C244.362 193.537 244.71 194.655 245.058 195.777C245.091 195.888 245.105 196.003 245.132 196.118C245.635 198.199 247.243 198.996 249.105 199.206C251.172 199.436 253.206 199.115 254.902 197.729C255.372 197.344 255.845 196.922 256.196 196.429C256.963 195.361 257.541 194.185 257.804 192.878C257.936 192.223 258 191.618 257.598 190.99C257.24 190.425 257.656 189.8 258.338 189.827C258.973 189.854 259.544 190.081 259.895 190.682C260.402 191.55 260.656 192.479 260.368 193.463C259.909 195.02 259.335 196.537 258.301 197.831C257.625 198.665 255.531 200.027 254.456 200.273C253.331 200.533 252.206 200.844 251.068 200.963C249.581 201.118 248.058 201.027 246.662 200.493C245.132 199.908 243.845 198.908 243.25 197.287C242.879 196.277 242.615 195.226 242.294 194.196C242.23 193.983 242.125 193.783 242.007 193.503C239.504 194.733 237.054 195.946 234.601 197.138C233.598 197.628 232.585 198.084 231.571 198.54C228.72 199.814 225.868 201.088 223.01 202.351C221.324 203.098 219.642 203.854 217.943 204.567C215.936 205.408 213.973 206.361 211.787 206.733C210.551 206.942 209.352 207.385 208.139 207.733C207.953 207.787 207.774 207.868 207.612 207.969C206.889 208.402 206.172 208.844 205.422 209.304C205.781 210.425 206.095 211.621 206.537 212.763C207.473 215.165 207.801 217.682 208.139 220.209C208.453 222.581 208.845 224.936 209.196 227.3C209.24 227.604 209.264 227.915 209.257 228.226C209.216 230.179 209.159 232.131 209.122 234.084C209.098 235.236 209.193 236.395 209.091 237.54C208.764 241.31 208.389 245.081 207.253 248.713C206.446 251.287 205.446 253.8 204.612 256.368C203.362 260.202 201.054 263.463 199.024 266.878C197.858 268.841 196.683 270.794 195.145 272.49C193.875 273.895 192.595 275.294 191.27 276.645C190.128 277.81 189.081 279.01 188.591 280.621C188.368 281.354 188.027 282.054 187.723 282.767C187.108 284.213 186.906 285.713 186.922 287.29C186.943 288.983 186.767 290.679 186.672 292.371C186.615 293.449 186.544 294.523 186.487 295.601C186.48 295.756 186.463 295.932 186.524 296.06C187.132 297.368 186.929 298.797 187.172 300.162C187.237 300.527 187.21 300.959 187.071 301.3C186.504 302.675 186.328 304.135 186.105 305.581C185.818 307.466 184.899 308.915 183.507 310.223C181.395 312.206 178.926 313.138 176.118 312.888C172.476 312.567 169.156 311.412 166.51 308.638C165.074 307.131 164.007 305.425 163.004 303.652C161.77 301.469 160.564 299.267 159.801 296.865C159.615 296.277 158.777 295.915 159.193 295.121C159.01 295.033 158.706 294.979 158.662 294.844C158.416 294.057 157.797 293.388 157.899 292.49C158.031 292.527 158.159 292.564 158.324 292.608C158.125 291.915 158.125 291.915 157.7 292.27Z" fill="white"/>
</svg>
