<svg width="388" height="420" viewBox="0 0 388 420" fill="none" xmlns="http://www.w3.org/2000/svg">
<path d="M268.711 261.02C266.41 261.01 264.109 261.003 261.809 260.983C258.576 260.952 258.383 260.756 258.38 257.381C258.373 241.993 258.38 226.608 258.376 211.223C258.373 207.175 258.363 207.175 254.258 207.162C252.832 207.155 251.4 207.104 249.977 207.162C248.116 207.236 247.447 206.337 247.464 204.557C247.505 199.243 247.407 193.929 247.501 188.618C247.538 186.577 246.812 185.696 244.761 185.773C242.859 185.841 240.954 185.76 239.052 185.746C237.589 185.736 236.859 184.99 236.836 183.544C236.809 181.719 236.751 179.895 236.795 178.074C236.842 176.067 235.974 175.263 233.937 175.267C220.849 175.287 207.761 175.209 194.673 175.209C177.937 175.209 161.2 175.253 144.464 175.283C140.099 175.29 140.102 175.294 140.086 179.631C140.059 186.388 140.687 185.736 133.94 185.777C129.974 185.8 126.008 185.831 122.045 185.885C118.903 185.929 118.667 186.158 118.66 189.314C118.613 208.27 118.575 227.223 118.538 246.179C118.531 250.317 118.535 250.263 114.521 250.199C106.717 250.081 107.934 249.868 107.815 256.763C107.792 258.189 107.812 259.618 107.808 261.044L107.832 261.02C105.217 261.006 102.599 260.902 99.9874 261.013C97.9198 261.101 97.2273 260.324 97.2374 258.253C97.3083 245.26 97.278 232.263 97.278 219.27C97.278 206.04 97.2745 192.807 97.2814 179.574C97.2849 175.591 97.5281 175.344 101.41 175.334C108.403 175.314 107.829 175.827 107.846 168.918C107.853 164.878 107.886 160.837 107.846 156.797C107.829 154.817 108.673 153.861 110.694 153.912C112.433 153.956 114.18 153.871 115.923 153.895C117.795 153.922 118.707 153.06 118.69 151.168C118.673 149.348 118.734 147.527 118.721 145.702C118.711 143.939 119.535 143.064 121.315 143.067C123.059 143.074 124.802 143.013 126.545 143.037C128.447 143.064 129.298 142.148 129.261 140.277C129.231 138.77 129.248 137.263 129.281 135.76C129.342 132.972 129.734 132.567 132.45 132.5C133.876 132.462 135.302 132.503 136.727 132.476C139.636 132.415 140.052 132.01 140.119 129.179C140.153 127.834 140.119 126.486 140.14 125.138C140.187 122.057 140.542 121.685 143.545 121.638C145.923 121.601 148.298 121.604 150.677 121.587C150.65 124.361 150.589 127.135 150.606 129.908C150.613 131.591 149.886 132.398 148.177 132.368C146.275 132.337 144.369 132.425 142.471 132.371C140.785 132.324 139.974 133 140.028 134.743C140.082 136.564 140.153 138.398 139.994 140.209C139.785 142.577 140.717 143.5 143.082 143.452C151.876 143.273 160.67 143.169 169.464 143.084C171.39 143.064 172.167 142.185 172.153 140.317C172.123 135.006 172.112 129.696 172.16 124.385C172.177 122.452 171.285 121.669 169.423 121.669C163.163 121.672 156.903 121.642 150.643 121.625C150.663 119.087 150.724 116.554 150.694 114.02C150.67 112.084 151.417 111.054 153.478 111.067C158.944 111.104 164.41 111.094 169.876 111.081C171.646 111.074 172.508 111.908 172.501 113.682C172.494 115.425 172.559 117.169 172.532 118.912C172.505 120.817 173.427 121.655 175.295 121.618C176.802 121.587 178.309 121.604 179.812 121.638C182.599 121.699 183.011 122.074 183.032 124.824C183.072 129.733 183.032 134.645 183.062 139.557C183.079 142.652 183.434 143.027 186.464 143.033C194.785 143.06 203.103 143.057 211.424 143.037C214.572 143.027 214.9 142.655 214.944 139.415C214.961 138.071 214.994 136.723 214.954 135.375C214.893 133.398 215.775 132.442 217.795 132.489C220.484 132.554 223.18 132.54 225.873 132.56L225.853 132.54C225.812 134.993 225.748 137.446 225.745 139.898C225.745 143.239 225.893 143.449 229.204 143.419C237.913 143.344 246.623 143.162 255.329 143.101C257.383 143.087 258.17 142.192 258.16 140.229C258.126 135.003 258.119 129.777 258.16 124.55C258.174 122.574 257.346 121.655 255.322 121.658C248.988 121.675 242.653 121.618 236.319 121.591L236.349 121.621C236.363 119.084 236.424 116.547 236.37 114.013C236.326 111.878 237.312 111.033 239.403 111.057C244.711 111.111 250.022 111.104 255.332 111.064C257.339 111.051 258.244 111.946 258.194 113.939C258.157 115.442 258.177 116.949 258.211 118.456C258.278 121.172 258.677 121.557 261.471 121.618C262.819 121.645 264.167 121.608 265.511 121.638C268.282 121.703 268.724 122.101 268.748 124.831C268.788 129.743 268.744 134.655 268.775 139.567C268.795 142.655 269.157 142.993 272.19 143.04C273.457 143.061 274.728 143.037 275.994 143.054C279.315 143.091 279.606 143.375 279.616 146.79C279.636 151.466 279.609 156.138 279.633 160.814C279.65 164.125 279.978 164.425 283.369 164.463C290.19 164.544 290.19 164.544 290.19 171.459C290.19 199.824 290.194 228.192 290.187 256.557C290.187 260.888 290.089 260.973 285.819 260.986C283.758 260.993 281.697 261.01 279.636 261.02L279.656 261.047C279.653 258.351 279.599 255.659 279.656 252.966C279.694 251.091 278.933 250.148 277.008 250.186C275.106 250.223 273.2 250.223 271.302 250.189C269.379 250.155 268.609 251.078 268.656 252.966C268.731 255.659 268.683 258.351 268.687 261.047L268.711 261.02Z" fill="white"/>
<path d="M279.63 282.436C279.62 285.209 279.593 287.983 279.613 290.756C279.623 292.544 278.785 293.361 277.005 293.358C264.478 293.344 251.947 293.344 239.42 293.354C237.583 293.358 236.92 292.435 236.937 290.675C236.981 285.364 236.995 280.054 236.93 274.743C236.907 272.767 237.772 272.04 239.664 272.114C241.562 272.189 243.471 272.087 245.373 272.108C246.859 272.124 247.535 271.469 247.495 269.952C247.441 267.972 247.566 265.986 247.478 264.01C247.39 261.932 248.326 261.199 250.332 261.233C259.322 261.374 257.941 260.141 258.072 268.648C258.123 271.648 258.363 271.915 261.336 271.966C263.792 272.006 266.251 271.986 268.707 271.996L268.684 271.972C268.684 274.641 268.704 277.307 268.674 279.976C268.657 281.706 269.353 282.611 271.187 282.56C274.012 282.486 276.839 282.493 279.664 282.466L279.63 282.436Z" fill="white"/>
<path d="M118.761 271.997C124.947 272.044 131.133 272.132 137.319 272.109C139.275 272.102 140.069 272.879 139.984 274.798C139.913 276.46 140.069 278.136 139.954 279.794C139.805 281.896 140.514 282.886 142.761 282.707C144.575 282.565 146.41 282.723 148.234 282.69C149.805 282.659 150.589 283.281 150.531 284.943C150.464 286.842 150.457 288.751 150.531 290.653C150.609 292.592 149.724 293.382 147.835 293.372C143.075 293.342 138.315 293.372 133.555 293.372C126.099 293.376 118.643 293.386 111.183 293.359C108.261 293.349 107.896 292.96 107.856 290.048C107.822 287.511 107.842 284.974 107.839 282.433L107.808 282.467C110.633 282.497 113.457 282.487 116.281 282.565C118.119 282.612 118.815 281.707 118.795 279.977C118.764 277.311 118.785 274.643 118.785 271.974L118.761 271.997Z" fill="white"/>
<path d="M151.001 218.412C157.177 218.412 163.356 218.429 169.535 218.398C171.241 218.391 172.001 219.132 171.954 220.834C171.907 222.655 171.924 224.479 171.944 226.3C171.964 227.905 171.163 228.598 169.603 228.584C167.782 228.567 165.957 228.662 164.14 228.594C162.136 228.52 161.326 229.294 161.37 231.381C161.478 236.53 161.413 241.679 161.397 246.827C161.386 249.726 161.13 249.983 158.302 250.027C156.876 250.047 155.447 249.969 154.025 250.037C152.008 250.135 151.157 249.26 151.18 247.226C151.241 242.158 151.214 237.088 151.18 232.02C151.16 228.858 150.93 228.628 147.812 228.608C142.741 228.577 137.67 228.55 132.599 228.611C130.592 228.632 129.721 227.848 129.738 225.807C129.812 217.148 128.893 218.507 136.741 218.415C141.099 218.361 145.457 218.398 149.812 218.395C150.207 218.395 150.606 218.395 151.001 218.395C151.001 218.402 151.001 218.405 151.001 218.412Z" fill="white"/>
<path d="M215.193 218.405C221.217 218.405 227.24 218.476 233.264 218.371C235.565 218.331 236.44 219.24 236.291 221.463C236.193 222.885 236.213 224.317 236.281 225.74C236.375 227.733 235.568 228.689 233.5 228.605C231.679 228.53 229.855 228.642 228.034 228.615C226.338 228.591 225.649 229.334 225.666 231.064C225.73 236.371 225.609 241.682 225.717 246.99C225.764 249.263 224.909 250.091 222.659 250.057C214.389 249.929 215.609 250.898 215.521 243.01C215.477 239.209 215.419 235.402 215.541 231.604C215.615 229.307 214.676 228.534 212.463 228.574C207.392 228.662 202.318 228.611 197.247 228.588C194.372 228.571 194.119 228.3 194.081 225.446C194.061 224.02 194.149 222.588 194.065 221.169C193.946 219.108 194.859 218.358 196.889 218.381C202.99 218.452 209.092 218.409 215.193 218.405Z" fill="white"/>
<path d="M183.014 261.013C182.973 263.945 182.946 266.874 182.875 269.804C182.842 271.276 183.48 272.03 184.973 272.027C187.274 272.027 189.575 272.02 191.872 272.037C193.416 272.05 193.963 271.182 193.973 269.783C193.987 267.722 194.031 265.658 194.021 263.597C194.011 262.026 194.737 261.246 196.321 261.256C198.223 261.27 200.129 261.266 202.031 261.256C203.467 261.253 204.257 261.864 204.254 263.388C204.24 268.939 204.237 274.486 204.257 280.037C204.264 281.668 203.463 282.283 201.903 282.28C192.943 282.26 183.984 282.256 175.021 282.283C173.271 282.29 172.629 281.449 172.639 279.793C172.666 274.402 172.669 269.013 172.639 263.621C172.629 261.871 173.49 261.26 175.139 261.239C177.744 261.206 180.349 261.057 182.95 260.959L183.014 261.013Z" fill="white"/>
<path d="M279.635 261.021C279.585 263.771 279.494 266.517 279.5 269.26C279.504 271.051 278.69 271.818 276.923 271.821C274.176 271.825 271.429 271.919 268.686 271.973C268.683 271.973 268.706 271.997 268.706 271.997C268.706 268.338 268.706 264.679 268.706 261.021L268.686 261.047H279.656L279.635 261.021Z" fill="white"/>
<path d="M107.808 261.044C110.572 261.081 113.335 261.159 116.096 261.135C117.9 261.121 118.67 261.915 118.656 263.709C118.633 266.473 118.72 269.233 118.761 271.996L118.785 271.973C116.089 271.915 113.396 271.817 110.704 271.821C108.822 271.824 107.95 271.02 107.964 269.101C107.981 266.409 107.879 263.716 107.832 261.023L107.808 261.044Z" fill="white"/>
<path d="M225.873 132.56C225.87 129.817 225.893 127.071 225.853 124.327C225.826 122.432 226.735 121.618 228.583 121.635C231.17 121.662 233.758 121.628 236.35 121.621L236.319 121.591C236.333 124.28 236.309 126.973 236.366 129.662C236.404 131.544 235.61 132.405 233.674 132.385C231.069 132.358 228.458 132.479 225.853 132.54L225.873 132.56Z" fill="white"/>
<path d="M182.95 260.956C183.038 258.524 183.241 256.085 183.177 253.652C183.126 251.551 183.835 250.544 186.038 250.686C187.69 250.794 189.352 250.737 191.008 250.706C192.552 250.679 193.393 251.318 193.379 252.936C193.362 254.828 193.359 256.723 193.383 258.615C193.4 260.203 192.633 260.895 191.062 260.899C188.379 260.902 185.697 260.973 183.018 261.014C183.014 261.014 182.95 260.956 182.95 260.956Z" fill="white"/>
<path d="M107.839 282.436C105.305 282.456 102.772 282.453 100.241 282.51C98.302 282.551 97.3831 281.74 97.2716 279.716C96.8324 271.892 96.9574 271.781 104.775 271.953C107.039 272.004 107.907 272.906 107.826 275.105C107.738 277.558 107.805 280.014 107.809 282.466L107.839 282.436Z" fill="white"/>
<path d="M279.663 282.466C279.663 279.932 279.714 277.402 279.653 274.868C279.605 272.892 280.416 271.875 282.457 271.993C282.535 271.996 282.616 271.99 282.693 271.99C290.511 271.723 290.636 271.892 290.2 279.712C290.085 281.74 289.166 282.55 287.227 282.51C284.697 282.452 282.163 282.456 279.629 282.435L279.663 282.466Z" fill="white"/>
</svg>
