<svg width="388" height="420" viewBox="0 0 388 420" fill="none" xmlns="http://www.w3.org/2000/svg">
<path d="M269.328 249.852C269.227 249.862 269.125 249.872 269.021 249.885C268.923 251.031 268.842 252.176 268.723 253.321C268.274 257.767 266.97 261.902 264.196 265.487C259.044 272.142 249.977 272.713 244.021 266.777C241.129 263.895 239.575 260.331 238.602 256.453C238.524 256.139 238.426 255.831 238.267 255.287C238.061 255.706 237.94 255.868 237.892 256.051C236.663 260.939 237.869 266.186 242.088 269.635C246.886 273.554 252.443 274.578 258.389 273.213C263.284 272.088 266.94 269.233 268.926 264.52C270.429 260.953 270.615 257.22 270.021 253.433C269.831 252.23 269.561 251.044 269.328 249.852ZM256.899 223.024C256.869 222.47 256.858 221.362 256.727 220.264C256.338 217 255.301 213.99 252.355 212.176C250.609 211.098 248.625 210.406 246.744 209.554C246.595 209.487 246.399 209.46 246.24 209.49C244.612 209.794 242.987 210.105 241.372 210.446C241.139 210.493 240.875 210.686 240.757 210.889C240.095 212.01 239.592 213.247 238.821 214.277C235.267 219.014 234.348 224.183 235.987 229.852C236.703 232.331 237.548 234.737 239.538 236.517C244.554 241.007 253.058 238.825 255.484 232.429C256.565 229.578 256.801 226.588 256.899 223.024ZM255.007 283.152C264.25 283.051 273.098 281.926 281.889 279.382C279.065 281.52 265.619 284.706 256.112 285.304C247.122 285.868 238.423 284.409 230.132 280.737C232.95 281.196 235.757 281.73 238.585 282.105C241.45 282.483 244.338 282.706 247.234 282.912C241.206 281.828 236.017 279.227 231.953 274.595C228.389 270.531 226.2 265.747 224.943 260.544C222.19 249.156 222.345 237.872 226.436 226.784C228.301 221.743 230.97 217.173 234.703 213.254C234.855 213.095 234.977 212.902 235.051 212.649C230.511 214.395 226.44 216.946 222.389 219.966C223.74 215.284 225.862 211.264 228.821 207.669C228.764 207.605 228.71 207.541 228.652 207.477C227.98 207.943 227.257 208.352 226.642 208.885C225.852 209.571 225.213 209.169 224.632 208.673C224.024 208.159 224.277 207.527 224.663 207C225.152 206.331 225.7 205.706 226.22 205.061C227.47 203.5 227.321 202.916 225.298 202.098C226.257 201.341 227.102 200.602 228.017 199.966C232.541 196.841 237.639 195.142 242.994 194.21C253.301 192.412 263.423 193.206 273.169 197.075C287.318 202.689 296.092 212.946 299.075 227.946C299.896 232.071 300.473 236.25 301.044 240.423C301.443 243.335 301.007 246.129 299.386 248.686C298.801 249.608 298.426 250.659 297.889 251.784V246.294C297.808 246.277 297.727 246.26 297.646 246.247C297.416 247.004 297.186 247.764 296.936 248.598C291.193 234.004 282.801 221.672 268.909 213.821C268.835 213.879 268.761 213.939 268.686 213.997C268.781 214.102 268.862 214.22 268.97 214.308C275 219.152 278.345 225.575 279.284 233.102C280.673 244.223 279.723 255.193 275.764 265.76C273.7 271.27 270.463 275.993 265.457 279.325C262.433 281.331 259.071 282.412 255.524 283C255.433 283.017 255.342 283.054 255.007 283.152Z" fill="white"/>
<path d="M151.695 251.926C151.554 251.956 151.415 251.983 151.273 252.014C151.273 252.385 151.283 252.76 151.273 253.132C151.175 257.064 150.087 260.689 147.851 263.939C143.476 270.287 136.094 272.189 129.547 268.666C126.915 267.254 124.814 265.213 122.912 262.946C122.412 262.352 121.939 261.733 121.398 261.058C121.304 261.281 121.219 261.379 121.236 261.456C121.976 265.169 123.442 268.517 126.304 271.098C132.486 276.676 141.793 275.858 147.726 270.352C151.841 266.531 153.162 261.652 152.598 256.203C152.445 254.764 152.003 253.352 151.695 251.926ZM120.469 212.558C121.084 213.848 120.391 214.558 119.739 215.21C116.293 218.659 114.993 227.26 117.716 232.183C119.915 236.162 123.033 238.75 127.746 238.723C132.202 238.7 135.057 236.105 136.868 232.298C139.76 226.216 138.756 220.321 135.628 214.659C134.408 212.453 132.29 211.46 129.807 211.176C128.837 211.068 127.777 211.166 127.037 210.271C126.945 210.162 126.641 210.129 126.483 210.186C124.496 210.953 122.52 211.743 120.469 212.558ZM116.756 215.007C115.996 215.544 115.297 216.004 114.631 216.514C107.611 221.926 102.348 228.811 98.0299 236.466C97.0604 238.179 96.2799 240 95.2799 241.693C94.1651 243.588 93.9151 245.568 94.307 247.673C94.7968 250.284 95.3036 252.892 95.8002 255.5C95.8408 255.696 95.8745 255.895 95.9522 256.335C92.986 252.368 91.7327 247.781 89.6212 243.645C89.4624 243.666 89.307 243.689 89.1482 243.71C88.8577 244.629 88.5671 245.551 88.1786 246.787C88.0435 245.716 87.9185 244.929 87.8475 244.139C85.8576 221.591 99.4218 203.412 118.266 196.507C132.848 191.166 146.783 192.504 159.706 201.531C160.141 201.835 160.554 202.183 161.131 202.629C159.969 202.311 159.013 202.044 158.054 201.794C157.932 201.764 157.787 201.811 157.452 201.835C157.672 202.264 157.797 202.632 158.02 202.923C158.723 203.818 159.479 204.676 160.189 205.571C160.506 205.977 160.804 206.409 161.033 206.868C161.364 207.534 161.614 208.237 160.959 208.872C160.314 209.497 159.712 209.267 159.04 208.73C161.162 212.727 162.831 216.835 163.881 221.412C159.682 217.581 155.344 214.281 150.084 211.875C150.27 212.169 150.294 212.264 150.354 212.304C156.486 216.382 159.783 222.328 161.544 229.281C163.253 236.031 163.297 242.889 162.902 249.784C162.594 255.152 161.929 260.446 160.057 265.524C158.071 270.909 155.128 275.673 150.01 278.554C141.766 283.189 133.364 282.933 125.209 278.338C118.425 274.52 114.05 268.497 111.665 261.243C107.294 247.956 107.304 234.683 113.003 221.7C114.006 219.419 115.439 217.328 116.756 215.007Z" fill="white"/>
<path d="M223.642 146.963C225.74 145.54 227.767 144 229.946 142.713C237.013 138.544 244.73 136.26 252.834 135.257C258.402 134.564 263.993 134.263 269.584 135.027C282.206 136.757 293.547 141.29 302.699 150.422C304.446 152.162 305.818 154.277 307.328 156.247C307.601 156.605 307.709 157.088 307.895 157.513C307.818 157.578 307.74 157.645 307.665 157.713C307.236 157.358 306.777 157.04 306.385 156.652C302.841 153.152 299.27 149.689 295.206 146.774C286.861 140.78 277.611 137.01 267.372 136.165C253.851 135.051 241.047 137.844 229.051 144.199C227.27 145.142 225.561 146.213 223.818 147.226L223.642 146.963Z" fill="white"/>
<path d="M79.571 163.996C79.7231 163.533 79.8312 163.05 80.0373 162.611C81.6015 159.297 83.7839 156.398 86.2737 153.74C93.6217 145.885 102.527 140.733 113.118 138.675C118.821 137.567 124.605 137.53 130.385 138C136.426 138.49 142.368 139.594 148.237 141.108C148.463 141.169 148.683 141.263 148.875 141.483C147.112 141.094 145.351 140.682 143.581 140.321C136.466 138.878 129.274 138.064 122.027 138.638C105.142 139.973 91.6082 147.327 81.9596 161.439C81.3143 162.381 80.5947 163.277 79.9089 164.192C79.794 164.128 79.6825 164.064 79.571 163.996Z" fill="white"/>
<path d="M155.733 280.801C142.618 285.318 129.415 285.588 116.145 281.402C129.361 282.781 142.56 283.128 155.733 280.801Z" fill="white"/>
</svg>
