<svg width="388" height="420" viewBox="0 0 388 420" fill="none" xmlns="http://www.w3.org/2000/svg">
<path d="M193.733 128.348C148.71 128.348 112.081 164.977 112.081 210C112.081 255.024 148.71 291.652 193.733 291.652C238.757 291.652 275.385 255.024 275.385 210C275.385 164.977 238.757 128.348 193.733 128.348ZM193.733 332.48C126.196 332.48 71.2534 277.534 71.2534 210C71.2534 142.466 126.196 87.5205 193.733 87.5205C261.27 87.5205 316.213 142.466 316.213 210C316.213 277.534 261.27 332.48 193.733 332.48Z" fill="white"/>
<path d="M238.45 227.324C235.622 234.216 230.993 239.703 226.446 238.916C221.902 238.128 208.571 229.108 205.436 224.27C202.297 219.429 210.983 202.936 218.889 200.375C226.791 197.811 243.321 215.429 238.45 227.324ZM199.939 245.527C201.487 251.932 201.409 257 199.77 256.784C198.132 256.568 192.811 255.875 190.767 257.22C188.723 258.564 187.487 251.932 189.034 245.527C190.581 239.118 192.791 232.054 192.956 231.807C193.122 231.561 193.747 230.96 193.872 230.838C194.004 230.716 194.436 230.649 194.446 230.649C194.456 230.652 194.497 230.645 194.507 230.645C194.517 230.645 194.683 230.669 194.848 230.696C195.01 230.723 195.507 231.22 195.71 231.419C195.916 231.611 198.389 239.118 199.939 245.527ZM185.814 223.574C183.007 228.615 174.868 234.946 171.007 238.875C167.142 242.804 153.75 236.189 151.172 229.199C146.821 217.405 159.662 202.787 168.044 201.361C176.426 199.939 188.622 218.537 185.814 223.574ZM193.835 135.956C154.629 135.956 141.142 169.645 141.142 169.645C134.287 192.25 132.541 216.459 133.919 221.328C135.294 226.196 138.808 241.226 138.068 245.466C137.328 249.706 143.237 259.916 145.693 262.162C148.152 264.412 159.034 268.057 163.554 267.699C168.078 267.341 171.672 280.253 172.473 280.551C173.27 280.845 175.46 280.388 175.46 278.98C175.46 277.568 175.875 276.416 176.379 276.416C176.889 276.416 177.304 277.682 177.304 279.233C177.304 280.78 178.446 282.301 179.841 282.608C181.24 282.916 185.088 281.902 185.088 279.956C185.088 278.01 185.504 276.416 186.007 276.416C186.514 276.416 186.929 278.051 186.929 280.047C186.929 282.041 189.213 283.841 192.007 284.044H194.669C194.693 284.044 194.713 282.328 194.713 280.226C194.713 278.128 195.129 276.412 195.639 276.412C196.142 276.412 196.561 278.122 196.561 280.209C196.561 282.297 197.73 283.959 199.159 283.899C200.591 283.841 204.24 281.899 204.24 279.953C204.24 278.007 204.659 276.412 205.166 276.412C205.673 276.412 206.091 277.946 206.091 279.821C206.091 281.693 207.223 283.024 208.615 282.777C210.004 282.527 213.49 280.473 213.49 279.034C213.49 277.595 213.909 276.416 214.416 276.416C214.919 276.416 215.338 277.466 215.338 278.75C215.338 280.03 215.804 280.919 216.379 280.723C216.953 280.527 221.645 276.916 225.578 273.209C229.517 269.5 237.791 265.253 241.129 263.206C244.47 261.152 251.652 252.709 253.504 248.341C255.355 243.97 251.284 235.284 251.176 235.206C251.064 235.125 251.645 232.095 252.703 228.672C253.757 225.253 254.402 192.314 247.764 169.645C247.764 169.645 233.037 135.956 193.835 135.956Z" fill="white"/>
</svg>
