<svg width="388" height="420" viewBox="0 0 388 420" fill="none" xmlns="http://www.w3.org/2000/svg">
<path d="M279.905 202.378L195.057 206.074L143.472 186.679C139.206 185.074 134.445 187.233 132.841 191.5C131.239 195.767 133.398 200.527 137.662 202.128L190.827 222.118C191.756 222.469 192.743 222.645 193.733 222.645C193.851 222.645 193.972 222.645 194.091 222.638L280.625 218.868C285.179 218.669 288.709 214.817 288.51 210.263C288.31 205.709 284.439 202.182 279.905 202.378Z" fill="white"/>
<path d="M193.733 316.406C135.3 316.406 87.7597 268.865 87.7597 210.433C87.7597 152 135.3 104.46 193.733 104.46C252.165 104.46 299.706 152 299.706 210.433C299.706 268.865 252.165 316.406 193.733 316.406ZM193.733 87.9531C126.195 87.9531 71.2529 142.899 71.2529 210.433C71.2529 277.967 126.195 332.913 193.733 332.913C261.27 332.913 316.212 277.967 316.212 210.433C316.212 142.899 261.27 87.9531 193.733 87.9531Z" fill="white"/>
<path d="M195.726 120.784C196.364 120.811 197.101 120.845 197.919 120.939C198.739 121.024 199.645 121.111 200.631 121.209C201.611 121.321 202.672 121.503 203.797 121.666C204.929 121.811 206.115 122.078 207.368 122.324C208.621 122.551 209.919 122.888 211.27 123.236C213.973 123.912 216.837 124.868 219.804 125.976C222.736 127.182 225.797 128.493 228.78 130.189C229.155 130.392 229.533 130.598 229.912 130.801C230.283 131.017 230.652 131.247 231.023 131.473C231.763 131.922 232.506 132.378 233.253 132.838C234.706 133.828 236.192 134.78 237.594 135.882C239.037 136.919 240.385 138.105 241.767 139.24C243.081 140.459 244.425 141.638 245.658 142.939C248.165 145.483 250.483 148.193 252.496 151.027C254.527 153.845 256.334 156.733 257.8 159.655C257.989 160.017 258.175 160.378 258.364 160.736C258.544 161.098 258.702 161.47 258.871 161.831C259.202 162.557 259.53 163.277 259.854 163.99C260.415 165.449 261.037 166.838 261.473 168.253C261.706 168.956 261.956 169.638 262.165 170.324C262.358 171.013 262.547 171.693 262.733 172.358C262.827 172.689 262.919 173.02 263.01 173.348C263.084 173.679 263.158 174.007 263.229 174.331C263.378 174.98 263.52 175.615 263.662 176.236C263.902 177.49 264.087 178.696 264.28 179.831C264.412 180.98 264.533 182.068 264.652 183.088C264.712 184.111 264.77 185.068 264.821 185.953C264.868 186.828 264.831 187.554 264.844 188.247C264.848 188.588 264.848 188.909 264.851 189.213C264.855 189.355 264.851 189.524 264.841 189.703C264.834 189.875 264.828 190.041 264.821 190.199C264.794 190.841 264.774 191.388 264.753 191.831C264.719 192.716 264.699 193.189 264.699 193.189L281.199 192.736C281.199 192.736 281.155 192.267 281.071 191.385C281.027 190.943 280.976 190.399 280.912 189.76C280.899 189.601 280.882 189.436 280.865 189.263C280.851 189.098 280.831 188.912 280.801 188.686C280.74 188.257 280.679 187.801 280.615 187.321C280.473 186.372 280.351 185.27 280.142 184.172C279.926 183.088 279.689 181.916 279.436 180.662C279.122 179.426 278.784 178.111 278.429 176.726C278.003 175.361 277.567 173.929 277.064 172.453C276.79 171.723 276.513 170.98 276.226 170.22C276.084 169.841 275.939 169.459 275.794 169.074C275.632 168.696 275.466 168.314 275.301 167.929C274.966 167.166 274.625 166.385 274.28 165.595C273.919 164.814 273.51 164.037 273.122 163.243C272.361 161.645 271.412 160.095 270.513 158.483C270.03 157.693 269.52 156.912 269.017 156.118C268.76 155.723 268.513 155.321 268.25 154.929C267.976 154.541 267.699 154.152 267.422 153.763C265.253 150.618 262.726 147.595 259.993 144.726C259.294 144.02 258.635 143.28 257.902 142.605C257.176 141.926 256.446 141.243 255.72 140.561C254.976 139.892 254.203 139.26 253.446 138.611C252.696 137.953 251.902 137.348 251.108 136.743C249.554 135.5 247.895 134.395 246.274 133.274C244.595 132.23 242.956 131.155 241.236 130.243C239.561 129.267 237.814 128.453 236.122 127.611C235.257 127.22 234.392 126.855 233.537 126.48C233.108 126.297 232.686 126.105 232.26 125.932C231.828 125.77 231.395 125.608 230.966 125.446C227.564 124.091 224.155 123.149 220.939 122.321C217.692 121.591 214.611 121.013 211.747 120.703C210.314 120.537 208.949 120.375 207.638 120.318C206.334 120.24 205.101 120.138 203.936 120.149C202.774 120.142 201.689 120.101 200.686 120.128C199.682 120.166 198.763 120.199 197.932 120.233C197.105 120.25 196.365 120.314 195.723 120.375C195.081 120.429 194.537 120.48 194.095 120.517C193.213 120.595 192.743 120.635 192.743 120.635C192.743 120.635 193.216 120.659 194.101 120.703C194.54 120.723 195.087 120.75 195.726 120.784Z" fill="white"/>
<path d="M195.297 141.095C196.523 141.277 198.003 141.446 199.692 141.767C201.378 142.051 203.27 142.446 205.304 142.939C206.317 143.203 207.378 143.439 208.452 143.777C208.989 143.939 209.537 144.098 210.091 144.264C210.641 144.433 211.195 144.635 211.756 144.825C214.006 145.571 216.307 146.531 218.601 147.618C220.898 148.713 223.148 150.034 225.31 151.49C227.473 152.946 229.479 154.645 231.31 156.45C233.138 158.264 234.777 160.22 236.138 162.287C237.506 164.352 238.652 166.48 239.564 168.615C240.445 170.774 241.148 172.899 241.645 174.973C241.79 175.48 241.868 176.01 241.979 176.514C242.074 177.024 242.206 177.507 242.27 178.01C242.405 179.014 242.598 179.953 242.665 180.892C242.756 181.825 242.861 182.706 242.885 183.568C242.925 184.426 242.986 185.22 242.973 185.993C242.969 186.76 242.993 187.46 242.973 188.125C242.946 188.791 242.922 189.379 242.902 189.933C242.868 191.031 242.75 192.014 242.719 192.602C242.668 193.193 242.645 193.568 242.645 193.568H259.152C259.152 193.568 259.111 193.118 259.037 192.385C258.949 191.649 258.881 190.602 258.675 189.233C258.577 188.551 258.466 187.76 258.344 186.939C258.219 186.118 258.027 185.213 257.854 184.27C257.689 183.328 257.432 182.314 257.179 181.26C256.946 180.21 256.611 179.105 256.277 177.963C255.969 176.818 255.513 175.639 255.101 174.426C254.898 173.818 254.621 173.213 254.381 172.595C254.118 171.98 253.895 171.345 253.591 170.727C252.469 168.22 251.067 165.666 249.442 163.159C247.78 160.669 245.834 158.257 243.669 156.031C241.51 153.791 239.074 151.787 236.516 150.047C233.956 148.311 231.283 146.801 228.554 145.612C225.827 144.422 223.098 143.443 220.418 142.72C217.736 142.007 215.135 141.45 212.655 141.102C212.037 141.017 211.429 140.912 210.827 140.841C210.226 140.777 209.635 140.716 209.05 140.652C207.891 140.51 206.76 140.463 205.685 140.385C203.527 140.267 201.557 140.22 199.814 140.25C198.077 140.24 196.554 140.341 195.314 140.385C194.071 140.449 193.101 140.544 192.439 140.588C191.777 140.639 191.422 140.666 191.422 140.666C191.422 140.666 191.773 140.703 192.435 140.774C193.094 140.851 194.067 140.933 195.297 141.095Z" fill="white"/>
<path d="M220.246 190.831C220.199 191.24 220.155 191.594 220.115 191.936C220.047 192.611 219.942 193.355 219.895 193.716C219.841 194.078 219.814 194.432 219.814 194.432H236.321C236.321 194.432 236.284 194.013 236.216 193.53C236.142 193.047 236.064 192.311 235.899 191.412C235.818 190.963 235.73 190.405 235.632 189.868C235.52 189.331 235.395 188.719 235.263 188.098C234.983 186.861 234.625 185.456 234.172 183.959C233.942 183.209 233.679 182.426 233.402 181.628C233.095 180.831 232.817 180.01 232.449 179.179C231.77 177.513 230.902 175.801 229.929 174.088C228.949 172.378 227.774 170.689 226.47 169.081C225.172 167.466 223.686 165.963 222.084 164.625C220.48 163.29 218.78 162.098 217 161.155C215.226 160.209 213.426 159.446 211.652 158.892C209.872 158.358 208.152 157.946 206.507 157.74C204.872 157.493 203.328 157.419 201.919 157.388C200.507 157.381 199.23 157.426 198.105 157.527C196.983 157.591 196 157.763 195.209 157.851C194.422 157.969 193.807 158.088 193.388 158.159C192.966 158.233 192.743 158.27 192.743 158.27C192.743 158.27 192.97 158.297 193.392 158.344C193.814 158.395 194.439 158.453 195.226 158.557C196.01 158.699 196.946 158.801 198.013 159.047C199.081 159.257 200.27 159.561 201.53 159.939C202.79 160.338 204.128 160.801 205.466 161.426C206.817 162.01 208.149 162.784 209.449 163.628C210.743 164.49 211.959 165.507 213.081 166.608C214.206 167.706 215.179 168.956 216.04 170.243C216.895 171.54 217.622 172.902 218.189 174.304C218.76 175.706 219.226 177.108 219.551 178.513C219.868 179.922 220.122 181.28 220.243 182.608C220.334 183.26 220.348 183.919 220.402 184.534C220.426 185.162 220.449 185.76 220.453 186.341C220.456 187.507 220.415 188.571 220.351 189.517C220.314 189.99 220.277 190.422 220.246 190.831Z" fill="white"/>
</svg>
