<svg width="388" height="420" viewBox="0 0 388 420" fill="none" xmlns="http://www.w3.org/2000/svg">
<path d="M177.9 305.229C176.346 257.689 174.792 210.189 173.238 162.584C153.36 152.729 133.488 142.878 113.617 133.026C113.657 132.891 113.698 132.756 113.738 132.621H274.039C273.009 133.206 272.428 133.567 271.819 133.868C253.512 142.945 235.242 152.091 216.857 160.996C214.245 162.263 213.738 163.868 213.671 166.368C213.198 183.841 212.654 201.317 212.086 218.79C211.39 240.32 210.657 261.851 209.887 283.378C209.86 284.111 209.461 285.128 208.9 285.496C198.792 292.141 188.637 298.706 178.488 305.283C178.441 305.314 178.343 305.273 177.9 305.229Z" fill="white"/>
<path d="M221.632 164.297C246.439 152.115 271.25 139.932 296.652 127.463C296.064 128.588 295.78 129.169 295.463 129.726C289.162 140.764 282.824 151.784 276.585 162.855C275.747 164.338 274.838 164.875 273.132 164.868C256.5 164.797 239.868 164.824 223.233 164.824C222.723 164.821 222.21 164.821 221.696 164.821C221.676 164.649 221.652 164.473 221.632 164.297Z" fill="white"/>
<path d="M91.1573 127.797C115.945 139.969 140.732 152.138 165.519 164.31C165.488 164.483 165.455 164.652 165.424 164.821H163.698C147.14 164.824 130.58 164.797 114.022 164.868C112.319 164.875 111.387 164.371 110.546 162.875C104.306 151.797 97.9749 140.777 91.6742 129.736C91.3736 129.209 91.0999 128.665 90.8127 128.131C90.9276 128.02 91.0425 127.908 91.1573 127.797Z" fill="white"/>
</svg>
