<svg width="388" height="420" viewBox="0 0 388 420" fill="none" xmlns="http://www.w3.org/2000/svg">
<path d="M284.851 279.804L277.692 281.878H277.378L275.303 296.409H254.858L256.83 281.878H229.121C221.962 281.878 218.952 276.274 221.651 270.774L245.52 224.801H266.793L246.455 265.378C245.624 266.933 245.52 267.558 247.077 267.558H258.803L261.192 249.916L266.276 238.916H283.398L279.351 267.558H286.513L284.851 279.804Z" fill="white"/>
<path d="M217.851 232.213C217.851 245.832 197.466 250.761 186.939 250.761C176.408 250.761 156.027 245.832 156.027 232.213C156.027 218.592 176.408 213.666 186.939 213.666C193.314 213.666 199.689 214.825 205.486 217.433V165.558L131.297 188.453V256.943C131.297 270.565 110.912 275.49 100.385 275.49C89.8543 275.49 69.4725 270.565 69.4725 256.943C69.4725 243.321 89.8543 238.396 100.385 238.396C106.76 238.396 113.135 239.554 118.932 242.163V148.75C118.932 144.693 121.635 141.119 125.5 139.862L205.871 115.132C206.739 114.842 207.611 114.747 208.577 114.747C213.696 114.747 217.851 118.899 217.851 124.021V232.213Z" fill="white"/>
</svg>
