<svg width="388" height="420" viewBox="0 0 388 420" fill="none" xmlns="http://www.w3.org/2000/svg">
<path d="M214.801 117.237C214.443 117.548 214.082 117.855 213.72 118.166C214.95 119.345 216.18 120.521 217.409 121.696C217.609 121.521 217.808 121.345 218.007 121.173C216.94 119.858 215.869 118.548 214.801 117.237ZM174.487 133.372C174.369 133.176 174.254 132.977 174.139 132.781C171.794 134.19 169.45 135.602 167.105 137.01C167.2 137.176 167.298 137.338 167.392 137.5C169.757 136.125 172.122 134.75 174.487 133.372ZM224.409 127.112C224.859 126.99 225.305 126.872 225.751 126.75C224.96 125.429 227.163 123.125 223.544 122.426C223.865 124.156 224.139 125.632 224.409 127.112ZM258.254 174.031C258.764 173.879 259.274 173.727 259.784 173.575C259.2 171.808 258.615 170.044 258.034 168.277C257.585 168.419 257.136 168.558 256.69 168.696C257.21 170.473 257.734 172.254 258.254 174.031ZM234.176 144.088L233.413 144.879C235.379 145.997 235.193 149.686 239.2 149.115C237.311 147.227 235.744 145.656 234.176 144.088ZM240.338 164.068C240.609 164.081 240.882 164.095 241.156 164.108C241.443 160.423 241.734 156.737 242.024 153.051C241.724 152.987 241.423 152.923 241.122 152.858C242.254 156.619 240.906 159.538 238.467 162.024C239.176 161.72 239.882 161.413 240.761 161.031C240.599 162.19 240.467 163.129 240.338 164.068ZM224.136 139.456C224.717 139.396 225.301 139.335 226.038 139.26C225.757 139.815 225.595 140.132 225.619 140.085C227.021 140.186 228.365 140.129 229.629 140.419C230.95 140.72 232.193 141.355 234.082 142.078C230.734 139.46 227.825 137.676 224.136 139.456ZM116.284 163.284C114.94 167.517 115.568 169.483 118.842 171.815C117.994 168.983 117.203 166.358 116.284 163.284ZM221.49 128.777C222.46 123.061 221.943 121.152 219.322 120.97C219.487 121.554 219.467 122.298 219.818 122.571C221.761 124.105 221.656 124.149 220.298 125.983C219.663 126.842 219.794 128.271 219.578 129.44C219.666 129.453 219.754 129.467 219.842 129.48C220.058 128.855 220.278 128.227 220.578 127.358C220.974 127.973 221.183 128.298 221.49 128.777ZM282.592 185.534C285.257 183.575 287.274 181.504 286.953 178.048C283.48 178.129 281.517 181.433 282.592 185.534ZM136.078 143.808C136.078 144.081 136.078 144.355 136.078 144.632C137.555 144.831 139.031 145.034 140.507 145.237C140.524 145.108 140.541 144.98 140.558 144.852C139.957 144.639 139.352 144.426 138.751 144.21C138.778 144.075 138.805 143.94 138.828 143.804H149.061C146.828 143.328 144.592 143.048 142.362 143.102C140.261 143.152 138.173 143.558 136.078 143.808ZM205.159 114.625C205.183 114.977 205.203 115.321 205.227 115.669C208.251 111.024 210.876 115.173 213.73 115.338C213.146 112.507 207.815 109.96 205.629 111.416C206.507 111.676 207.321 111.919 208.409 112.244C207.146 113.173 206.153 113.899 205.159 114.625ZM290.467 197.233C288.639 196.011 286.811 194.791 284.946 193.548C286.058 192.784 287.102 192.065 288.203 191.304C286.19 189.024 283.994 189.808 281.859 190.355C281.696 189.534 281.544 188.788 281.369 187.916C277.446 191.054 277.626 196.477 281.71 198.544C281.575 197.19 281.453 195.983 281.298 194.467C283.896 196.956 286.744 198.264 290.467 197.233ZM148.886 221.855C149.994 224.369 150.936 226.977 152.251 229.379C154.193 232.929 156.531 236.267 158.463 239.825C163.609 249.284 171.943 254.973 181.896 257.419C187.761 258.858 194.335 257.963 200.521 257.396C206.943 256.801 211.987 252.997 216.477 248.561C219.818 245.264 222.2 241.315 224.626 237.304C227.68 232.261 230.784 227.321 232.288 221.429C233.967 225.254 236.784 225.919 240.031 223.416C242.159 221.774 244.443 220.308 246.416 218.5C248.73 216.375 251.352 214.277 252.808 211.605C254.693 208.139 256.132 204.2 256.683 200.311C257.129 197.146 256.413 193.615 255.376 190.527C254.818 188.865 252.696 187.071 250.946 186.602C247.109 185.575 242.463 188.5 241.088 192.355C240.166 194.95 239.653 197.683 238.896 200.338C238.443 201.933 237.879 203.497 237.362 205.075C236.946 203.99 237.065 203.044 237.2 202.102C237.865 197.511 237.859 192.676 239.396 188.396C240.869 184.284 240.501 180.825 239.061 177.061C237.166 172.112 235.615 167.203 237.595 161.747C238.676 158.781 238.825 155.477 237.301 152.406C235.031 147.835 231.528 144.669 226.754 142.808C224.386 141.886 221.619 141.436 220.632 138.511C219.764 138.862 219.085 139.139 218.186 139.507C218.531 138.862 218.767 138.419 219.146 137.706C218.085 138.47 217.305 139.034 215.963 140C217.119 137.784 217.588 135.963 218.751 134.896C220.051 133.703 220.325 134 219.156 132.761C217.663 134.896 216.132 137.078 214.602 139.264L214.048 138.906C214.085 138.179 214.125 137.456 214.166 136.636C213.369 137.247 212.717 137.747 212.119 138.203C211.234 137.642 210.504 137.173 209.781 136.713C210.031 135.96 210.264 135.267 210.494 134.578C209.636 138.831 206.254 134.477 204.808 136.203C204.862 135.443 204.916 134.632 204.987 133.588C204.474 134.365 204.22 135.159 203.696 135.419C203.136 135.703 202.321 135.483 201.534 135.483C201.582 135.233 201.663 134.761 201.764 134.176C201.18 134.693 200.754 135.071 200.041 135.703C200.311 134.875 200.436 134.494 200.561 134.112C198.764 134.967 197.254 136.078 195.899 137.355C194.251 138.906 192.865 140.761 191.119 142.179C189.021 143.882 186.845 145.774 184.372 146.69C177.673 149.163 171.122 152.233 163.791 152.669C158.696 152.973 153.605 154.088 148.544 153.906C145.69 153.804 144.065 154.44 143.18 156.808C142.156 159.534 140.524 162.146 142.011 165.396C143.325 168.274 145.251 171.206 143.321 174.686C142.592 175.997 141.582 177.821 141.994 178.929C142.548 180.423 142.2 181.487 141.99 182.811C141.727 184.446 141.534 186.183 141.798 187.801C143.021 195.369 144.406 202.913 145.737 210.463C145.352 209.646 144.855 208.862 144.598 208.007C143.207 203.358 142.017 198.646 140.484 194.048C138.642 188.531 137.514 188.244 131.487 188.095C125.413 187.943 122.818 192.49 122.74 197.338C122.527 210.676 130.355 219.108 140.801 225.771C141.416 226.166 142.21 226.294 142.926 226.521C148.463 228.301 149.494 227.49 148.886 221.855ZM104.375 165.014C107.551 163.673 108.332 162.173 107.352 158.595C105.845 160.247 104.511 161.71 103.014 163.352V155.896C102.859 155.892 102.7 155.892 102.541 155.889C102.456 157.831 102.372 159.77 102.284 161.75C101.166 160.537 100.142 159.429 98.8653 158.048C98.0376 160.875 98.5308 163.071 100.338 164.243C103.446 166.26 102.848 169.368 103.555 172.142C101.727 171.45 100.021 170.804 98.3146 170.156C98.139 170.429 97.9633 170.703 97.7876 170.977C99.4059 172.493 100.791 174.723 102.696 175.341C105.136 176.132 106.058 177.693 107.041 179.595C107.598 180.679 108.288 181.696 108.94 182.781C106.879 182.271 104.869 181.777 102.22 181.125C104.075 184.152 105.997 186.034 108.869 185.541C111.389 185.108 112.659 186.277 113.811 188.014C114.666 189.301 115.396 190.669 116.413 192.402C114.386 191.868 112.859 191.466 111.328 191.068C111.2 191.396 111.071 191.723 110.946 192.051C112.602 192.767 114.277 193.45 115.913 194.213C116.44 194.46 117.132 194.825 117.294 195.294C117.798 196.764 118.082 198.311 118.487 199.966C116.774 199.206 115.352 198.571 113.926 197.936C113.734 198.227 113.541 198.517 113.348 198.804C114.879 200.085 116.457 201.311 117.916 202.666C118.46 203.169 118.818 203.939 119.092 204.649C119.318 205.23 119.291 205.906 119.311 206.044C119.984 204.25 120.882 202.308 121.416 200.274C121.73 199.058 121.473 197.693 121.473 196.395C121.176 196.409 120.879 196.422 120.585 196.436V199.287C119.754 198.632 118.845 198.227 118.865 197.879C118.98 196.068 116.615 194.456 118.511 192.514C119.984 191.007 120.744 189.267 119.061 187.051C118.45 188.76 117.838 190.473 117.25 192.115C115.636 189.676 113.96 187.149 112.237 184.551C114.875 182.656 114.551 180.122 113.855 177.514C113.554 177.409 113.254 177.304 112.95 177.2C112.173 179.23 111.392 181.26 110.487 183.615C109.196 181.477 107.957 179.331 106.619 177.25C105.865 176.071 106.011 175.247 106.923 174.146C108.382 172.382 109.338 170.355 107.504 167.308C106.541 169.618 105.798 171.406 104.923 173.504C104.548 172.051 104.173 170.868 103.953 169.659C103.666 168.075 102.865 166.409 104.392 164.98L104.375 165.014ZM103.365 198.889C104 198.115 104.541 197.23 105.288 196.588C107.163 194.967 106.514 193.119 106.284 191.288C106.051 191.25 105.815 191.217 105.582 191.179C105.335 192.592 105.088 194 104.821 195.538C103.335 192.929 101.25 191.095 97.5511 190.467C98.7775 192.264 99.6829 193.595 100.524 194.831H92.2302C93.2234 195.673 93.6592 196.041 94.095 196.409L95.139 197.467C95.9194 198.146 96.6998 198.828 97.4734 199.5C96.666 200.048 95.8079 200.629 94.8755 201.264C98.1727 203.791 101.254 202.848 103.379 198.896L103.365 198.889ZM266.43 188.406C265.196 190.078 263.963 191.75 262.757 193.389C262.355 192.669 261.926 191.892 261.494 191.119C261.25 191.122 261.004 191.126 260.757 191.126C260.538 192.338 259.75 193.842 260.196 194.703C261.592 197.365 260.328 199.642 259.791 202.186C259.284 201.588 258.855 201.082 258.734 200.94C258.582 204.291 258.423 207.822 258.264 211.355C258.386 207.467 260.791 204.879 263.683 202.565C263.541 202.406 263.399 202.247 263.257 202.088C262.375 202.338 261.494 202.588 260.484 202.876C260.669 202.028 260.848 201.224 261.021 200.423C261.436 198.494 261.973 196.889 264.467 196.582C265.625 196.44 266.646 195.159 267.73 194.392L267.284 193.487C265.953 193.801 264.622 194.119 263.183 194.46C264.375 192.49 265.534 190.571 266.696 188.656C268.679 188.697 270.879 190.132 272.929 187.369C271.568 187.183 270.555 187.109 269.582 186.879C269.234 186.798 268.977 186.349 268.676 186.068C269.463 185.213 270.315 184.409 271.024 183.49C272.305 181.835 273.531 180.399 275.879 179.96C277.298 179.696 278.49 178.217 279.784 177.281C279.625 177.031 279.47 176.778 279.315 176.524C277.957 176.872 276.602 177.22 275.163 177.588C275.683 176.186 276.342 174.899 276.622 173.534C276.97 171.828 277.744 171.007 279.534 170.73C280.71 170.548 281.777 169.666 282.896 169.099L282.514 168.203C280.929 168.676 279.348 169.149 278.004 169.548C277.504 165.423 277.041 161.588 276.578 157.757C276.365 157.784 276.156 157.811 275.943 157.838C276.223 160.97 276.615 164.102 276.72 167.237C276.75 168.159 275.98 169.105 275.426 170.389C276.568 172.281 276.149 174.842 273.99 177.46C273.105 176.058 272.19 174.609 271.277 173.156C270.987 173.294 270.696 173.43 270.406 173.565C270.622 174.751 270.723 175.973 271.092 177.112C271.463 178.274 272.098 179.348 272.541 180.298C271.136 182.271 269.835 184.095 268.534 185.916C267.872 184.598 267.217 183.274 266.43 181.7V188.406ZM231.693 136.453L231.629 136.382C233.267 137.673 234.94 138.923 236.534 140.264C240.47 143.578 240.457 143.598 241.457 143.102C240.45 142.227 239.487 141.392 238.524 140.554C238.595 140.433 238.663 140.308 238.734 140.183C239.609 140.477 240.484 140.774 241.663 141.169C238.227 137.065 232.74 134.061 229.825 134.217C230.342 134.835 231.017 135.646 231.693 136.453ZM165.811 133.44H163.652C165.055 132.413 165.879 131.811 166.7 131.206C166.652 130.98 166.605 130.754 166.558 130.524C165.399 130.761 164.24 130.994 163.078 131.23C158.973 134.48 154.595 137.122 149.183 137.463C147.757 137.588 146.328 137.71 145.271 137.804C144.041 138.277 142.977 139.085 142.007 138.984C139.169 138.693 136.372 137.987 133.541 137.575C132.913 137.484 132.203 137.933 131.527 138.132C131.592 138.382 131.652 138.629 131.713 138.879C133.264 138.761 135.396 137.95 136.244 138.663C138.18 140.294 140.068 139.541 141.852 139.767C142.386 140.497 143.065 141.355 143.75 141.362C144.916 141.369 146.088 140.842 147.257 140.538C150.119 140.281 153.051 140.338 155.821 139.7C161.115 138.477 166.159 136.534 170.152 132.592C170.504 131.97 170.852 131.348 171.203 130.73C171.902 129.842 172.676 129 173.284 128.051C174.676 125.886 175.99 123.669 177.335 121.473C177.058 121.304 176.777 121.136 176.5 120.963C175.997 121.676 175.416 122.348 175 123.112C174.207 124.565 173.636 126.149 172.737 127.524C171.862 128.865 170.693 130.011 169.652 131.24C168.372 131.973 167.092 132.706 165.811 133.44ZM236.666 142.598C236.713 142.369 236.875 142.021 236.784 141.929C234.031 139.176 231.075 136.808 227.588 136.737C230.048 138.49 232.899 140.521 235.747 142.551C235.663 142.818 235.426 143.22 235.521 143.331C237.257 145.342 239.034 147.315 240.798 149.294C240.315 148.25 239.805 147.146 239.294 146.038C240.335 148.071 241.96 150.014 242.281 152.152C242.784 155.531 242.416 159.041 242.416 162.497C242.558 162.507 242.7 162.521 242.845 162.531C243.237 160.298 243.629 158.065 244.021 155.832C244.487 157.247 244.484 158.625 244.305 159.984C244.115 161.409 243.761 162.811 243.477 164.227C246.582 160.443 247.575 155.122 246.055 152.47C245.923 153.396 245.788 154.362 245.652 155.328C245.446 155.308 245.24 155.291 245.038 155.274C244.967 153.923 244.896 152.571 244.821 151.223C244.703 151.22 244.585 151.216 244.467 151.216C244.396 151.804 244.321 152.392 244.25 152.98C243.659 152.233 243.619 151.392 243.291 150.686C242.186 148.294 241.788 145.375 238.811 144.291C238.095 143.727 237.382 143.163 236.666 142.598ZM112.159 211.176C111.673 211.548 111.186 211.919 110.21 212.662C110.078 213.453 109.882 215.021 109.531 216.551C109.183 218.081 108.68 219.575 108.213 221.189C109.078 221.048 109.835 220.926 110 220.899C109.348 222.176 108.602 223.642 107.855 225.108C108.923 225.382 109.99 225.652 111.308 225.987C110.291 226.227 109.348 226.443 108.47 226.649C110.99 233.649 113.507 240.629 116.092 247.808C116.521 247.598 117.534 247.078 118.585 246.652C118.686 246.612 119.031 247.173 119.264 247.453C119.085 247.858 118.909 248.267 118.73 248.673L118.784 248.629C118.416 248.828 118.051 249.024 117.686 249.22L117.798 249.159C117.423 249.22 117.051 249.277 116.68 249.335C116.757 249.531 116.835 249.723 116.909 249.919C114.277 249.412 113.842 246.703 112.22 245.162C109.98 243.037 108.342 240.237 105.984 238.281C102.342 235.26 101.021 231.899 102.169 227.23C103.281 222.703 102.328 218.257 100.372 213.534C99.9633 214.764 99.6998 215.558 99.389 216.494C99.3214 215.095 99.4329 213.855 99.1356 212.723C98.9903 212.162 98.0984 211.798 97.5444 211.345C97.1998 211.916 96.5917 212.466 96.5579 213.054C96.318 217.22 96.3248 221.399 95.9869 225.551C95.7606 228.325 95.0984 231.064 94.6153 233.902C95.041 233.794 95.4329 233.693 96.5849 233.396C95.5342 234.652 94.943 235.358 94.3518 236.064C94.1288 236.017 93.9059 235.966 93.6829 235.919C94.0207 233.767 94.4329 231.629 94.6761 229.47C94.9903 226.727 95.3214 223.97 95.3349 221.216C95.3418 219.71 94.7876 218.119 92.5849 218.689C82.0984 176.102 99.639 131.727 136.338 107.994C173.085 84.23 220.652 86.2841 255.19 113.392C290.426 141.054 301.011 185.237 290.615 221.429C289.825 221.017 289.055 220.615 287.818 219.97C288.892 219.808 289.48 219.716 290.18 219.608C289.832 217.497 289.484 215.412 289.136 213.328C288.899 213.294 288.663 213.264 288.426 213.23C288.082 214.051 287.737 214.872 287.44 215.578C287.386 214.994 287.311 214.22 287.237 213.446C287.075 213.45 286.913 213.45 286.75 213.45V218.173C285.909 217.267 284.882 216.169 283.673 214.865C284.061 214.659 284.784 214.271 285.791 213.733C285.686 212.538 285.656 211.027 285.382 209.561C285.23 208.744 284.68 207.997 284.308 207.22C283.72 207.902 283.129 208.581 282.514 209.291C282.477 209.176 282.362 208.811 282.247 208.45L281.571 208.365C281.382 210.507 281 212.652 281.044 214.787C281.142 219.396 281.605 224 281.595 228.608C281.592 229.804 280.615 231.233 279.69 232.156C276.119 235.706 272.389 239.092 268.757 242.507C268.494 241.963 268.122 241.203 267.713 240.355C268.068 240.473 268.386 240.578 268.328 240.558C270.031 235.379 271.73 230.213 273.413 225.088C271.815 224.146 270.22 223.21 268.625 222.271C268.703 222.125 268.784 221.98 268.862 221.835C270.49 222.558 272.115 223.284 273.96 224.105C273.923 223.355 273.902 222.919 273.886 222.598C272.71 222.375 271.568 222.159 270.426 221.943C270.453 221.781 270.48 221.619 270.507 221.456C271.7 221.619 272.892 221.781 274.359 221.977C274.446 221.065 274.517 220.301 274.602 219.406C273.693 219.321 272.98 219.257 272.082 219.176C272.538 218.875 272.832 218.683 273.193 218.443C272.652 218.311 272.2 218.2 271.007 217.909C272.487 217.821 273.2 217.777 273.622 217.754C272.473 212.571 271.345 207.487 270.139 202.037C266.017 206.058 266.625 210.666 267.46 214.896C268.136 218.318 268.24 221.092 266.494 224.318C264.075 228.781 262.767 233.845 260.379 238.328C258.882 241.142 256.254 243.345 254.166 245.852C251.767 248.727 249.372 251.608 247.038 254.541C245.561 256.392 244.2 258.335 242.788 260.23C240.484 259.088 240.409 257.554 241.044 255.487C241.892 252.71 242.832 249.831 242.899 246.977C242.994 242.808 241.656 239.048 237.328 237.156C236.879 236.96 236.669 236.22 236.473 235.916C234.183 236.521 233.987 237.906 234.257 239.399C234.734 242.037 235.328 244.652 235.946 247.622C235.619 249.176 235.419 251.45 234.629 253.497C233.832 255.561 232.45 257.399 231.311 259.362C232.865 259.983 233.99 260.436 235.119 260.889C235.098 260.967 235.075 261.044 235.055 261.122C233.845 260.845 232.632 260.571 231.423 260.294L231.2 261.392C233.342 261.791 235.487 262.193 237.629 262.592C237.625 262.767 237.622 262.946 237.615 263.125C235.609 262.899 233.598 262.669 231.686 262.456C229.784 265.875 227.73 269.399 225.838 273.007C223.318 277.818 221.835 282.923 221.632 288.402C221.538 290.96 221.068 293.5 220.821 295.608C220.761 294.953 220.653 293.825 220.524 292.507C211.186 295.071 201.926 296.49 192.47 296.534C183.095 296.581 173.903 295.25 164.514 292.815C163.568 298.771 162.555 304.656 157.602 307.73C158.936 305.365 161.092 302.612 162.146 299.487C165.392 289.882 163.781 280.781 158.23 272.365C156.936 270.402 155.375 268.615 154.109 266.639C153.342 265.446 152.903 264.044 152.105 262.271H147.538C147.534 262.078 147.534 261.885 147.531 261.693H152.575C152.595 261.453 152.619 261.217 152.639 260.973C151.585 260.821 150.534 260.673 149.267 260.49C149.656 260.331 149.95 260.213 150.24 260.098C150.237 259.98 150.23 259.858 150.227 259.74C149.102 259.835 147.983 259.929 146.862 260.027C146.828 259.872 146.798 259.713 146.767 259.561C148.429 259.22 150.095 258.879 152.119 258.463C150.5 257.436 148.98 256.473 147.784 255.713C147.791 255.713 148.456 255.629 148.902 255.575C148.622 253.19 148.342 250.798 148.041 248.203C147.25 248.159 146.274 248.102 145.277 248.044C146.365 247.517 148.311 246.943 148.277 246.531C148.058 243.882 149.561 240.892 147.22 238.537C141.713 241.098 141.223 245.933 141.223 250.885C141.22 252.879 141.392 255.004 142.088 256.835C143.183 259.713 143.115 262.328 141.585 265.125C137.612 259.98 133.652 254.896 129.744 249.777C126.74 245.838 123.632 241.963 120.882 237.852C119.271 235.433 118.25 232.615 116.994 229.963C116.565 229.051 116.416 227.956 115.825 227.186C113.092 223.622 113.845 219.842 114.862 215.98C115.608 213.139 115.507 210.348 114.027 207.798C113.507 208.798 112.99 209.794 112.473 210.791C112.706 209.575 113.176 208.342 113.081 207.152C113.031 206.527 111.99 205.98 111.396 205.399C111.065 206.544 110.487 207.683 110.48 208.828C110.473 209.771 110.21 211.412 112.159 211.176Z" fill="white"/>
<path d="M294.197 239.084C295.477 244.507 297.991 249.73 297.244 255.483C297.065 256.861 296.214 258.304 295.298 259.399C292.629 262.595 289.778 265.638 286.97 268.723C286.352 269.402 285.697 270.071 284.957 270.611C281.815 272.915 278.558 275.067 275.508 277.483C274.021 278.659 272.727 280.169 271.639 281.733C266.903 288.53 260.204 293.236 254.038 298.517C252.977 299.426 251.862 300.274 250.653 300.993C260.849 291.007 271.045 281.02 281.268 271.007C280.92 270.72 280.085 270.186 279.454 269.47C278.822 268.76 278.393 267.868 278.204 267.571C278.899 268.118 280.004 269.024 281.146 269.878C282.72 271.064 283.913 270.314 284.984 269.057H284.98C287.156 266.659 289.315 264.243 291.524 261.872C292.143 261.206 292.913 260.676 293.673 260.03C293.21 259.662 292.805 259.338 292.521 259.111C293.45 258.993 294.41 258.872 295.372 258.747C295.403 258.47 295.437 258.196 295.47 257.919C294.214 257.23 292.96 256.54 291.612 255.801C293.602 254.544 294.599 256.395 296.592 257.442C296.592 254.909 296.855 252.679 296.535 250.537C295.957 246.672 295.035 242.858 294.257 239.024C294.261 239.02 294.197 239.084 294.197 239.084Z" fill="white"/>
<path d="M286.207 255.203C285.102 255.977 284.051 256.868 282.855 257.46C282.487 257.642 281.717 257.01 281.133 256.75C281.133 256.754 281.197 256.811 281.197 256.811L277.531 252.608C277.717 252.328 277.899 252.048 278.082 251.764C279.937 252.534 281.791 253.301 283.869 254.162C284.075 253.48 284.366 252.534 284.751 251.264C283.545 250.835 282.339 250.406 281.136 249.977L281.224 249.585C282.362 249.885 283.497 250.186 284.764 250.524C286.788 247.517 288.916 244.362 291.149 241.051C290.393 240.689 289.548 240.284 288.014 239.548C289.997 239.652 291.268 239.72 292.535 239.787C292.565 239.541 292.595 239.298 292.626 239.051C291.21 238.581 289.798 238.112 288.386 237.642C288.45 237.423 288.514 237.203 288.582 236.983C290.105 237.419 291.632 237.855 293.156 238.294C293.315 238.193 293.474 238.091 293.632 237.99C293.193 237.45 292.849 236.764 292.295 236.409C291.69 236.017 290.886 235.933 290.17 235.713C290.247 235.466 290.325 235.216 290.403 234.966C291.278 235.23 292.156 235.497 292.788 235.689C292.035 231.527 291.244 227.186 290.457 222.845C290.643 222.808 290.828 222.767 291.014 222.727C291.166 223.314 291.335 223.899 291.47 224.49C292.355 228.284 293.278 232.071 294.085 235.882C294.305 236.912 294.176 238.014 294.2 239.081C294.197 239.085 294.261 239.02 294.257 239.024C291.504 241.169 289.693 243.77 290.136 247.477C290.227 248.22 290.301 248.97 290.325 249.716C290.45 254.014 290.443 254.014 286.132 255.277C286.399 254.987 286.622 254.504 286.937 254.443C289.93 253.825 289.943 251.696 289.609 249.355C289.44 248.189 289.281 247.017 289.119 245.852C288.879 245.787 288.639 245.727 288.399 245.662C286.933 248.879 285.467 252.091 283.825 255.686C285.116 255.426 285.663 255.314 286.207 255.203Z" fill="white"/>
<path d="M90.9328 247.078C90.0409 246.132 89.1524 245.186 88.2268 244.2C87.6524 247.997 87.068 251.848 86.4835 255.703C86.7234 255.716 86.9632 255.73 87.1997 255.744C86.6018 256.311 86.0038 256.882 84.899 257.936C87.1727 257.656 88.6963 257.467 90.2774 257.271C89.1186 259.233 85.0105 258.186 85.8146 261.906H85.095C85.095 260.186 84.9126 258.443 85.1254 256.75C85.8383 251.132 86.5917 245.51 87.5444 239.926C87.8281 238.271 88.8248 236.737 89.9937 235.233C89.6254 237.291 89.2538 239.348 88.8518 241.571C90.2234 240.47 91.3991 239.527 93.0309 238.22C91.9329 240.821 88.2775 241.25 89.6221 244.669C90.7268 244.085 91.7099 243.568 92.693 243.051C92.7707 243.173 92.8484 243.294 92.9261 243.416C92.1221 244.034 91.3146 244.649 90.3653 245.375C90.5376 245.882 90.7437 246.473 90.9464 247.064L90.9328 247.078Z" fill="white"/>
<path d="M98.4531 236.781C97.7909 237.254 97.1254 237.723 96.3348 238.284C99.8517 244.325 106.426 248.247 108.527 255.456C109.088 255.301 109.656 255.142 110.017 255.044C109.913 256.362 109.815 257.662 109.656 259.74C104.673 252.173 99.926 244.963 95.1456 237.7C96.1456 237.314 97.22 236.899 98.2977 236.483C98.3483 236.585 98.4024 236.683 98.4531 236.781Z" fill="white"/>
<path d="M142.027 306.763C135.929 301.807 128.061 299.652 122.791 293.145C119.838 289.496 115.176 287.233 111.281 284.354C110.554 283.817 109.811 283.307 109.213 282.591C114.541 285.449 120.223 287.908 124.011 292.858C126.923 296.662 130.72 299.081 134.757 301.348C137.386 302.827 139.902 304.51 142.47 306.101C142.321 306.321 142.173 306.54 142.027 306.763Z" fill="white"/>
<path d="M99.467 260.713C97.8488 257.666 96.4467 255.021 94.7913 251.902C93.4265 258.416 93.7136 258.96 99.467 260.713ZM103.798 265.483C101.065 263.618 98.2846 261.821 95.6258 259.855C94.7103 259.176 93.3792 257.98 93.4839 257.179C93.9704 253.402 93.663 249.977 90.9332 247.078L90.9467 247.064C94.2237 251.372 97.5041 255.676 100.781 259.98C100.619 260.186 100.453 260.385 100.291 260.588C100.842 260.369 101.389 260.146 102.254 259.798C101.964 260.828 101.747 261.588 101.609 262.088C102.491 262.929 103.288 263.686 104.274 264.629C104.278 264.625 104.038 265.058 103.798 265.49L103.798 265.483Z" fill="white"/>
<path d="M282.048 241.831C281.027 244.013 280.173 246.297 278.926 248.338C278.247 249.449 277 250.692 275.838 250.902C274.139 251.206 273.122 251.672 272.544 253.348C272.311 254.023 271.423 254.469 270.831 255.023C270.639 254.858 270.443 254.696 270.25 254.534C271.757 252.726 273.264 250.922 275 248.841C273.767 247.713 272.223 246.3 270.679 244.888C270.794 244.746 270.909 244.608 271.024 244.466C272.551 245.662 274.075 246.855 275.896 248.273C277.828 246.071 279.825 243.797 281.821 241.523C281.896 241.625 281.973 241.73 282.048 241.831Z" fill="white"/>
<path d="M87.9869 263.338C91.3957 265.966 94.8045 268.591 98.2166 271.223C98.8957 270.213 99.5376 269.257 100.179 268.301C100.298 268.358 100.419 268.419 100.538 268.476C99.9734 269.878 99.4058 271.277 98.5545 273.375C99.5004 272.737 99.818 272.52 100.352 272.159C100.217 272.872 100.102 273.47 99.9869 274.064C100.085 274.105 100.183 274.149 100.281 274.189C101.075 272.811 101.872 271.436 102.666 270.057C102.761 270.095 102.859 270.132 102.953 270.169C102.375 272.095 101.798 274.024 101.25 275.848C97.0916 272.03 92.4903 267.804 87.8889 263.578C87.9194 263.5 87.9531 263.419 87.9869 263.338Z" fill="white"/>
<path d="M91.7943 220.808C92.1017 225.091 92.2166 225.517 93.9159 226.274H91.7571C91.4869 228.524 91.22 230.713 90.9565 232.902L90.2098 232.811C90.7369 228.811 91.2639 224.811 91.7943 220.808Z" fill="white"/>
<path d="M287.116 235.831C286.244 234.777 285.373 233.72 284.082 232.152C285.582 233.078 286.609 233.713 288.184 234.682V226.588C290.309 231.085 289.775 234.436 287.052 235.774L287.116 235.831Z" fill="white"/>
<path d="M123.819 262.04C119.18 255.253 118.241 254.652 119.065 253.148C120.606 256.03 122.089 258.807 123.819 262.04Z" fill="white"/>
<path d="M287.052 235.771C286.288 237.007 285.528 238.244 284.768 239.477C284.599 239.365 284.43 239.257 284.258 239.146C284.694 238.514 285.133 237.879 285.569 237.244C285.366 237.429 285.16 237.615 284.954 237.801C283.768 236.585 282.582 235.372 281.396 234.159C281.734 233.811 282.072 233.46 282.413 233.108C283.059 233.899 283.569 234.916 284.393 235.409C285.126 235.855 286.204 235.723 287.126 235.838C287.116 235.831 287.052 235.771 287.052 235.771Z" fill="white"/>
<path d="M284.984 269.057C284.481 268.919 283.764 268.943 283.508 268.608C282.082 266.767 280.771 264.834 279.416 262.936C279.575 262.804 279.734 262.669 279.889 262.537L284.977 269.057C284.981 269.057 284.984 269.057 284.984 269.057Z" fill="white"/>
<path d="M103.798 265.489C104.373 265.624 105.221 265.57 105.474 265.928C106.771 267.78 107.917 269.736 108.63 271.982C107.589 270.378 106.586 268.746 105.484 267.182C105.032 266.54 104.369 266.043 103.798 265.482V265.489Z" fill="white"/>
<path d="M119.612 248.364L118.73 248.672C118.909 248.266 119.085 247.861 119.264 247.452C119.379 247.756 119.497 248.06 119.612 248.364Z" fill="white"/>
<path d="M281.197 256.811C281.197 256.811 281.133 256.753 281.133 256.75L281.197 256.811Z" fill="white"/>
<path d="M149.184 137.463C154.592 137.122 158.974 134.483 163.079 131.23C163.535 131.135 163.988 131.041 164.505 130.933C163.778 132.571 163.177 133.922 162.579 135.27C159.062 136.517 155.549 137.767 152.035 139.014C151.251 139.429 150.464 139.845 149.484 140.365C148.92 140.102 148.025 138.527 147.248 140.581C146.17 140.243 145.092 139.906 144.015 139.568C145.582 138.825 147.109 138.639 148.616 138.345C148.853 138.297 148.998 137.77 149.184 137.463Z" fill="white"/>
<path d="M170.152 132.591C164.973 134.868 159.815 137.196 154.588 139.368C153.906 139.652 152.896 139.152 152.034 139.013C155.548 137.767 159.061 136.517 162.578 135.27C163.656 134.659 164.734 134.047 165.811 133.439C167.092 132.706 168.372 131.973 169.652 131.24C170.169 131.071 170.686 130.898 171.203 130.729C170.852 131.351 170.504 131.969 170.152 132.591Z" fill="white"/>
<path d="M94.0953 196.409C95.2203 196.003 96.3859 195.183 97.4636 195.281C99.5109 195.473 101.507 196.193 103.558 196.703C101.389 198.912 99.2305 199.318 96.7372 198.058C96.2338 197.801 95.673 197.659 95.1392 197.466L94.0953 196.409Z" fill="white"/>
<path d="M118.784 248.628C118.419 248.827 118.051 249.023 117.686 249.219C118.051 249.023 118.416 248.827 118.784 248.628Z" fill="white"/>
<path d="M146.96 173.085C149.943 168.689 152.43 163.608 159.281 165.041C159.085 165.173 158.866 165.325 158.48 165.588C158.855 165.845 159.143 166.135 159.494 166.271C163.788 167.926 168.163 169.406 172.366 171.264C174.176 172.064 175.916 173.409 177.193 174.926C178.896 176.943 176.014 177.987 175.558 179.622C175.474 179.923 173.889 180.189 173.264 179.899C167.572 177.247 161.889 174.568 156.318 171.673C154.383 170.666 153.038 170.676 151.379 172.118C150.214 173.132 148.869 174.781 146.96 173.085Z" fill="white"/>
<path d="M235.677 178.013C234.947 177.804 234.086 177.77 233.515 177.344C231.903 176.155 230.17 174.996 228.937 173.459C227.677 171.892 226.613 172.081 225.062 172.746C220.231 174.814 215.37 176.827 210.471 178.74C208.238 179.615 206.589 178.334 207.015 175.99C207.332 174.216 207.633 172.361 209.978 171.598C215.218 169.892 220.332 167.797 225.562 166.064C226.434 165.777 228.099 166.155 228.62 166.827C231.234 170.229 233.593 173.831 236.039 177.365C235.917 177.581 235.799 177.797 235.677 178.013Z" fill="white"/>
<path d="M201.038 158.685C195.443 161.033 189.737 161.074 183.997 159.378C182.19 158.844 180.467 158.013 178.612 156.696C181.329 155.564 184.041 154.432 186.744 153.31C184.565 154.469 182.396 155.621 179.602 157.108C182.433 158.02 184.494 158.685 186.717 159.402V153.317C191.251 151.831 195.676 151.408 199.933 154.273C201.224 155.141 202.791 155.581 204.19 156.3C205.301 156.871 204.981 157.368 203.991 157.702C201.741 156.402 199.491 155.101 197.018 153.672C196.913 155.902 196.839 157.513 196.758 159.239C198.271 159.044 199.653 158.864 201.038 158.685Z" fill="white"/>
<path d="M168.487 187.236C168.339 189.168 168.224 190.651 168.092 192.347C170.622 192.118 173.308 191.871 175.997 191.628C176.024 191.418 176.052 191.209 176.078 190.996C173.589 189.763 171.095 188.526 168.487 187.236ZM150.555 188.158C150.227 187.979 149.903 187.8 149.453 187.553C158.426 183.307 170.372 185.121 177.866 191.824C177.616 192.111 177.369 192.655 177.112 192.658C168.197 192.783 159.041 194.31 151.095 188.438C153.443 189.226 155.788 190.013 157.869 190.709C158.339 189.145 158.818 187.54 159.356 185.749C156.315 186.114 153.153 185.986 150.555 188.158Z" fill="white"/>
<path d="M209.99 188.52C214.345 185.061 219.453 183.72 224.862 183.52C227.7 183.419 230.554 183.824 233.355 184.524C230.544 184.382 227.734 184.237 224.973 184.098C224.973 185.98 224.973 187.429 224.97 188.875C225.568 188.774 226.169 188.676 226.771 188.574C221.44 190.544 216.119 192.574 210.304 191.706C209.531 191.588 208.815 191.074 208.071 190.743C210.875 190.946 213.679 191.149 216.382 191.345C215.771 189.405 215.308 187.949 214.828 186.436C213.304 187.091 211.649 187.807 209.99 188.52Z" fill="white"/>
<path d="M208.338 234.581C204.527 232.901 200.737 231.178 196.892 229.587C196.291 229.337 195.446 229.736 194.713 229.756C193.004 229.807 191.291 229.807 189.581 229.82C188.693 229.83 187.73 229.594 186.933 229.861C183.514 230.993 180.156 232.293 176.754 233.472C175.98 233.739 175.119 233.756 174.301 233.888C174.247 233.57 174.193 233.253 174.139 232.932C175.038 232.689 175.953 232.496 176.831 232.195C179.044 231.439 181.23 230.608 183.446 229.861C185.879 229.04 188.25 227.871 190.923 229.337C191.622 229.719 192.967 229.716 193.592 229.28C195.642 227.844 197.392 228.847 199.22 229.584C202.017 230.709 204.825 231.824 207.588 233.033C208.136 233.27 208.507 233.895 208.963 234.344C208.754 234.422 208.544 234.499 208.338 234.581Z" fill="white"/>
<path d="M190.244 197.52C192.733 197.182 195.227 196.841 197.872 196.48C198.257 193.672 197.537 190.436 199.602 188C199.392 190.524 199.132 193.01 198.987 195.503C198.774 199.236 198.608 202.973 198.5 206.709C198.463 207.976 198.662 209.253 198.382 210.72C198.102 209.439 197.524 208.142 197.598 206.882C197.76 203.99 198.244 201.118 198.659 197.716C195.625 197.868 193.017 198 190.409 198.128L190.244 197.52Z" fill="white"/>
<path d="M178.831 215.646C179.176 216.024 179.571 216.366 179.855 216.784C180.923 218.366 181.733 220.23 184.24 220.278C184.365 219.227 184.487 218.203 184.646 216.869C187.96 219.139 190.348 223.71 195.524 220.058C192.629 223.382 191.436 223.099 185.345 218.271C184.98 219.153 184.585 220.109 184.19 221.061C183.041 220.494 181.646 220.166 180.811 219.298C179.889 218.335 179.477 216.882 178.845 215.643L178.831 215.646Z" fill="white"/>
<path d="M240.552 197.196C243.184 192.422 248.363 189.824 252.667 192.051C247.839 191.26 244.822 193.328 242.359 196.402C243.173 197.561 243.91 198.608 244.521 199.48C243.265 198.757 242.011 198.034 240.552 197.196Z" fill="white"/>
<path d="M243.095 202.76C242.402 203.452 241.713 204.145 240.98 204.878C243.74 207.935 247.429 210.422 247.886 214.462C245.382 211.287 242.605 207.756 239.865 204.273C240.565 203.821 241.642 203.121 242.72 202.422C242.845 202.537 242.97 202.648 243.095 202.76Z" fill="white"/>
<path d="M174.537 185.953C170.027 182.314 164.956 180.361 159.098 180.841C165.088 179.824 170.26 181.446 174.537 185.953Z" fill="white"/>
<path d="M221.727 179.581C218.581 180.824 214.375 182.483 210.554 183.993C212.69 181.432 218.048 179.443 221.727 179.581Z" fill="white"/>
<path d="M204.43 159.764C200.585 161.852 196.66 163.662 191.626 162.645C194.2 162.308 196.318 162.186 198.359 161.716C200.423 161.243 202.41 160.429 204.43 159.764Z" fill="white"/>
<path d="M178.845 215.642C178.619 213.291 180.599 213.352 181.977 212.885C184.791 211.933 184.808 211.987 185.001 209.189C185.697 212.294 185.558 212.426 182.693 213.548C181.342 214.075 180.122 214.929 178.835 215.642C178.832 215.646 178.845 215.642 178.845 215.642Z" fill="white"/>
<path d="M181.481 190.909C180.369 189.01 179.113 186.855 177.998 184.949C180.457 185.932 181.866 188.358 181.481 190.909Z" fill="white"/>
<path d="M178.622 153.192C181.727 151.996 184.835 150.8 187.94 149.604L188.095 150.027C185.055 151.263 182.014 152.503 178.974 153.743C178.856 153.561 178.741 153.378 178.622 153.192Z" fill="white"/>
<path d="M126.903 195.399C127.987 193.207 129.714 191.92 132.136 191.984C137.106 192.112 139.129 195.869 141.399 199.791C140.548 199.727 139.95 199.686 139.349 199.643C139.47 196.477 137.278 194.659 135.004 193.683C132.251 192.501 129.122 192.416 126.903 195.399Z" fill="white"/>
<path d="M142.163 206.942C139.532 210.419 136.903 213.895 134.356 217.267C135.815 213.078 138.619 209.686 142.163 206.942Z" fill="white"/>
<path d="M109.481 185.347L104.052 183.162C104.16 182.885 104.265 182.611 104.369 182.334C106.184 182.959 107.994 183.584 109.809 184.209C109.701 184.591 109.589 184.969 109.481 185.347Z" fill="white"/>
<path d="M100.095 171.064C101.622 172.223 103.146 173.382 104.67 174.537C104.45 174.828 104.234 175.119 104.018 175.409C102.464 174.25 100.91 173.091 99.3555 171.933C99.6021 171.646 99.8487 171.355 100.095 171.064Z" fill="white"/>
<path d="M104.393 164.98C103.93 162.801 105.285 161.595 106.66 160.396C106.913 160.568 107.166 160.74 107.42 160.909C106.406 162.274 105.396 163.642 104.379 165.01C104.376 165.014 104.393 164.98 104.393 164.98Z" fill="white"/>
<path d="M99.7715 159.686C100.599 161.216 101.43 162.75 102.258 164.284C101.984 164.439 101.711 164.598 101.437 164.753L98.6499 160.172C99.0249 160.01 99.3965 159.848 99.7715 159.686Z" fill="white"/>
<path d="M103.379 198.895C102.767 199.409 102.129 199.895 101.548 200.443C99.9497 201.936 98.2132 202.531 95.9767 200.777C98.4395 200.149 100.899 199.517 103.365 198.889L103.379 198.895Z" fill="white"/>
<path d="M286.987 191.895C284.994 192.257 283.004 192.618 281.014 192.983L280.872 192.24C282.571 190.47 284.541 189.976 286.825 190.936L286.987 191.895Z" fill="white"/>
<path d="M288.008 197.642L282.126 194.747C282.295 194.389 282.464 194.027 282.633 193.669C284.606 194.601 286.579 195.53 288.552 196.463C288.369 196.858 288.19 197.25 288.008 197.642Z" fill="white"/>
<path d="M231.694 136.452C231.93 136.152 232.315 135.56 232.376 135.594C234.319 136.594 236.228 137.658 238.143 138.709C238.011 138.929 237.876 139.145 237.745 139.364C235.707 138.371 233.67 137.378 231.633 136.385C231.63 136.381 231.694 136.452 231.694 136.452Z" fill="white"/>
<path d="M286.592 179.372C285.535 181.054 284.478 182.737 283.42 184.419C283.217 184.291 283.011 184.166 282.805 184.038C282.934 181.781 283.525 179.811 285.91 178.946C286.136 179.088 286.363 179.23 286.592 179.372Z" fill="white"/>
</svg>
