<svg width="388" height="420" viewBox="0 0 388 420" fill="none" xmlns="http://www.w3.org/2000/svg">
<path d="M217.463 272.521C228.344 261.862 238.878 250.811 250.24 240.693C256.716 234.926 259.162 228.764 258.581 220.264C257.898 210.304 258.172 200.25 258.537 190.257C258.699 185.841 257.162 183.014 253.946 180.223C241.55 169.466 229.358 158.473 215.807 146.426C228.064 146.426 238.713 146.362 249.358 146.521C250.496 146.537 251.73 147.73 252.723 148.605C263.017 157.689 273.385 166.7 283.436 176.051C285.297 177.784 286.767 180.936 286.811 183.463C287.105 201.118 287.088 218.781 286.851 236.439C286.821 238.818 285.642 241.841 283.936 243.436C274.047 252.673 263.98 261.737 253.632 270.453C251.203 272.504 247.5 273.838 244.294 274.021C235.713 274.504 227.081 274.186 218.469 274.186C218.135 273.629 217.801 273.075 217.463 272.521Z" fill="white"/>
<path d="M169.044 274.118C159.287 274.118 149.531 274.243 139.784 273.996C138.078 273.956 136.159 272.631 134.767 271.412C124.007 261.989 113.281 252.52 102.744 242.851C101.402 241.618 100.581 239.152 100.564 237.246C100.402 219.016 100.379 200.783 100.585 182.554C100.605 180.527 101.798 177.966 103.301 176.587C113.835 166.912 124.581 157.466 135.304 147.996C136.139 147.256 137.294 146.425 138.308 146.415C148.784 146.3 159.26 146.344 171.608 146.344C159.919 156.766 150.044 166.5 139.173 174.952C131.287 181.087 127.869 187.773 128.811 197.807C129.727 207.523 128.733 217.405 129.176 227.185C129.304 230.114 130.747 233.604 132.76 235.723C142.483 245.949 152.578 255.824 162.615 265.746C164.956 268.06 167.591 270.081 170.091 272.239C169.744 272.864 169.392 273.489 169.044 274.118Z" fill="white"/>
<path d="M154.739 252.398H232.864C224.736 259.909 217.567 266.621 210.253 273.172C209.378 273.956 207.699 274.081 206.391 274.094C197.955 274.172 189.516 274.223 181.084 274.054C179.479 274.023 177.533 273.375 176.358 272.324C169.496 266.213 162.82 259.892 154.739 252.398Z" fill="white"/>
<path d="M154.996 167.608C162.594 160.564 169.246 154.24 176.118 148.162C177.426 147.007 179.564 146.395 181.365 146.28C185.659 146.013 190.061 146.716 194.277 146.091C205.382 144.439 213.936 148.22 220.983 156.736C224.067 160.459 227.983 163.5 232.324 167.608H154.996Z" fill="white"/>
<path d="M233.06 246.72H220.922V173.592H233.06V246.72Z" fill="white"/>
<path d="M154.696 173.53H166.618V246.625H154.696V173.53Z" fill="white"/>
</svg>
