<svg width="388" height="420" viewBox="0 0 388 420" fill="none" xmlns="http://www.w3.org/2000/svg">
<path d="M306.912 155.838C304.442 161.338 302.131 166.908 299.716 172.557C301.641 173.307 301.952 171.885 302.479 171.091C304.942 167.395 307.76 163.851 309.635 159.868C312.658 153.446 317.094 150.689 324.155 152.773C324.158 152.797 324.374 153.213 324.253 153.392C315.493 165.935 306.871 178.581 297.864 190.942C292.31 198.564 283.834 197.723 275.344 197.456C276.466 194.267 277.037 191.115 281.459 191.118C283.702 191.121 284.026 188.831 284.648 187.202C288.506 177.077 292.307 166.932 296.128 156.79C296.922 154.682 297.668 152.537 299.783 151.314C294.04 150.956 288.27 150.848 282.567 150.155C279.02 149.726 277.074 150.902 275.712 154.033C274.699 156.361 273.27 158.51 272.337 161.05C274.932 159.067 280.482 153.273 280.482 153.273L289.77 153.06C289.77 153.06 285.624 158.297 283.222 160.611C278.351 165.304 275.118 170.817 273.611 177.412C273.026 179.963 272.118 182.442 271.33 184.946C269.003 192.361 269.425 192.78 269.425 192.78L259.209 192.898C259.209 192.898 261.776 183.503 261.29 180.304C259.716 180.912 255.756 191.777 255.361 192.898H242.58C250.422 179.273 258.361 163.804 266.739 149.246C258.54 148.905 250.935 148.513 243.324 148.283C220.584 147.598 197.908 148.588 175.303 151.185C172.803 151.473 172.8 151.446 171.712 156.081C174.567 154.976 176.645 152.206 180.641 152.344C178.303 156.439 176.138 160.185 174.023 163.959C173.398 165.071 172.533 165.665 171.28 165.706C166.526 165.861 163.996 168.969 161.881 172.696C159.368 177.125 156.398 181.348 154.341 185.976C152.138 190.929 151.239 192.49 151.239 192.49L139.371 192.226C146.601 179.648 153.979 166.01 161.658 152.645C142.155 155.669 123.482 158.442 106.391 167.216C102.766 169.077 98.3676 171.375 98.9555 176.108C99.5129 180.635 104.408 181.547 108.067 182.537C116.344 184.78 124.881 185.604 133.449 186.017C135.199 186.101 137.057 185.692 138.648 186.925C137.624 190.76 135.439 191.726 131.415 191.405C112.726 189.922 93.9453 189.435 75.4588 185.908C70.4453 184.952 65.5771 183.466 61.0602 180.966C57.371 178.925 57.273 176.385 59.8507 173.415C62.0636 170.868 64.9893 169.385 68.023 168.06C93.5568 156.908 120.493 151.108 147.939 147.483C176.857 143.658 205.989 142.696 235.111 142.429C264.878 142.155 294.564 144.78 324.307 145.557C324.401 145.979 324.496 146.398 324.594 146.821C318.466 148.324 312.337 149.824 306.209 151.324C307.952 152.598 307.716 154.05 306.912 155.838ZM232.064 192.838C232.064 192.838 219.05 193.006 219.097 192.78C223.178 185.685 228.32 177.077 232.452 169.898C234.094 167.05 235.756 164.209 237.371 161.344C237.766 160.642 238.229 159.723 237.482 159.094C236.587 158.338 235.533 158.848 234.881 159.557C234.003 160.513 233.283 161.642 232.624 162.773C228.064 170.574 223.239 178.246 219.114 186.273L215.523 192.608C215.523 192.608 204.266 192.78 203.503 192.78C211.037 179.726 218.557 166.672 225.651 154.476C226.834 152.446 235.432 150.81 237.222 152.925C239.074 155.111 239.993 153.642 241.263 153.148C242.972 152.483 244.662 152.013 246.52 152.044C251.226 152.125 252.709 154.04 250.496 158.283C246.543 165.851 242.141 173.185 237.928 180.618C237.361 181.618 232.064 192.838 232.064 192.838ZM192.283 192.76L182.077 192.756C181.55 192.645 184.202 189.875 183.712 189.797C182.635 189.631 180.83 190.719 179.574 191.26C178.08 191.905 176.493 192.55 174.901 192.702C170.03 193.169 168.445 190.635 170.084 186.013C173.655 175.935 181.476 171.283 191.189 168.864C195.651 168.439 197.357 165 199.064 161.601C199.489 160.756 200.043 159.652 198.935 158.956C197.692 158.172 196.726 158.983 196.077 160C194.401 162.625 192.807 165.3 191.182 167.956H181.283C184.493 156.804 196.773 149.618 207.645 152.267C211.726 153.26 213.087 155.976 211.118 160.142C206.205 170.544 200.249 180.402 194.138 190.108C193.354 191.348 192.114 192.594 192.283 192.76ZM345.087 144.459C337.837 143.952 331.476 143.402 325.104 143.077C273.489 140.479 221.891 138.084 170.209 142.074C134.783 144.81 100.091 150.709 66.6987 163.152C61.1447 165.219 55.7629 167.773 51.5568 172.179C45.6683 178.341 46.7021 186.074 54.0636 190.381C55.746 191.364 57.6379 192.033 59.4926 192.679C71.8879 196.979 84.8338 198.233 97.7764 199.419C128.982 202.27 160.293 201.547 191.564 201.949C221.209 202.324 250.861 202.27 280.51 202.3C285.273 202.304 290.047 201.888 294.79 201.415C299.084 200.989 302.391 199.071 304.712 195.081C309.175 187.412 314.239 180.091 318.692 172.419C322.462 165.925 326.341 159.78 334.06 157.422C334.344 157.337 334.459 156.706 334.844 155.946H325.047C328.591 146.587 338.466 149.452 345.087 144.459Z" fill="white"/>
<path d="M182.81 182.822C182.317 183.781 181.432 185.048 182.827 185.768C183.908 186.322 185.081 185.561 185.719 184.518C187.81 181.102 189.837 177.649 192.452 173.268C186.841 175.369 184.76 179.045 182.81 182.822Z" fill="white"/>
<path d="M212.787 276.003H174.679V265.956L192.699 252.196C197.172 248.689 198.895 246.416 198.895 243.524C198.895 240.5 196.76 238.645 193.527 238.645C190.29 238.645 187.746 240.5 183.962 244.838L174.952 237.341C180.111 230.662 185.202 227.024 194.557 227.024C205.084 227.024 212.307 233.28 212.307 242.362V242.497C212.307 250.203 208.317 254.189 201.162 259.355L192.908 265.132H212.787V276.003ZM193.733 216.919C173.195 216.919 156.543 233.571 156.543 254.108C156.543 274.649 173.195 291.297 193.733 291.297C214.273 291.297 230.922 274.649 230.922 254.108C230.922 233.571 214.273 216.919 193.733 216.919Z" fill="white"/>
</svg>
