<svg width="388" height="420" viewBox="0 0 388 420" fill="none" xmlns="http://www.w3.org/2000/svg">
<path d="M121.304 141.831C122.632 141.872 123.953 141.878 125.267 141.828C125.274 141.736 125.281 141.635 125.284 141.544C123.338 140.976 122.135 141.199 121.304 141.831Z" fill="white"/>
<path d="M115.997 141.122C115.818 140.73 114.76 140.453 114.206 140.582C113.625 140.713 113.054 140.906 112.487 141.112C113.71 141.257 114.929 141.392 116.145 141.504C116.095 141.375 116.054 141.247 115.997 141.122Z" fill="white"/>
<path d="M103.062 137.078C102.764 138.024 102.372 138.916 102.021 139.747C102.67 139.825 103.318 139.909 103.967 139.994C103.656 139.054 103.372 138.068 103.062 137.078Z" fill="white"/>
<path d="M85.6021 155.648C85.6257 155.652 85.6427 155.658 85.6663 155.662C85.6528 155.591 85.6427 155.516 85.6325 155.445C85.6224 155.513 85.6123 155.577 85.6021 155.648Z" fill="white"/>
<path d="M87.1798 252.041C86.646 252.47 86.1663 252.933 85.798 253.477C85.3082 254.196 85.4872 255.372 85.6089 256.507C85.8251 256.2 86.0278 255.889 86.2034 255.561C86.8149 254.426 87.1257 253.237 87.1798 252.041Z" fill="white"/>
<path d="M79.8727 140.628C80.4031 138.209 82.2612 138.972 83.9842 139.3C84.7207 139.202 85.4605 139.128 86.2038 139.07C86.4133 138.915 86.6024 138.702 86.7612 138.405C84.8997 137.739 83.3389 137.179 81.8997 136.665C79.5551 138.483 77.1565 140.341 74.7916 142.168C77.0551 142.287 79.3423 142.408 81.6058 142.527C81.3423 141.891 81.0788 141.263 80.8119 140.635C80.4977 140.631 80.1869 140.628 79.8727 140.628Z" fill="white"/>
<path d="M130.494 141.328C130.994 141.25 131.491 141.155 131.987 141.054V136.398C133.457 136.973 133.916 138.429 133.139 140.797C134.545 140.466 135.936 140.061 137.311 139.537C138.656 139.027 139.97 138.422 141.281 137.811C141.798 137.186 142.359 136.257 142.774 136.317C144.467 136.561 144.136 135.679 143.947 134.736H130.359C130.403 135.449 130.487 136.162 130.487 136.875C130.491 138.358 130.49 139.841 130.494 141.328Z" fill="white"/>
<path d="M223.957 139.477C224.041 140.091 224.146 140.632 224.203 141.007C225.139 141.017 226.078 141.02 227.014 141.024C226.031 140.527 225.024 140.017 223.957 139.477Z" fill="white"/>
<path d="M174.278 135.76C174.004 136.212 173.7 136.719 173.393 137.233C174.021 137.321 174.649 137.412 175.274 137.493C174.964 136.952 174.636 136.388 174.278 135.76Z" fill="white"/>
<path d="M180.872 138.203C180.399 137.635 179.673 137.186 178.876 136.75C178.187 136.371 177.812 135.422 177.295 134.736H176.676C176.727 135.723 176.774 136.709 176.822 137.696C178.173 137.871 179.521 138.044 180.872 138.203Z" fill="white"/>
<path d="M127.849 141.652C127.656 139.348 127.464 137.04 127.271 134.736H126.653C126.555 137.081 126.315 139.436 126.319 141.77C126.829 141.74 127.339 141.699 127.849 141.652Z" fill="white"/>
<path d="M217.961 140.888C218.94 140.915 219.923 140.939 220.903 140.956C220.94 140.655 220.977 140.358 221.015 140.057C219.423 139.878 218.521 140.233 217.961 140.888Z" fill="white"/>
<path d="M204.727 138.824C204.274 138.692 203.74 138.679 203.277 138.777C201.581 139.128 199.892 139.51 198.2 139.885C202.264 140.189 206.335 140.442 210.406 140.625C208.494 140.189 206.629 139.382 204.727 138.824Z" fill="white"/>
<path d="M91.3283 275.463C91.6729 275.409 92.0209 275.355 92.3655 275.301C91.9432 275.203 91.5243 275.094 91.1053 274.986C91.183 275.145 91.2607 275.301 91.3283 275.463Z" fill="white"/>
<path d="M254.027 138.933C253.987 139.243 253.943 139.561 253.902 139.889C255.764 139.642 257.615 139.328 259.453 138.933H254.027Z" fill="white"/>
<path d="M157.298 295.986C159.788 296.483 161.518 295.246 163.43 294.023C162.095 293.365 160.724 292.828 159.254 292.621C157.528 292.385 155.771 292.625 154.031 292.544C153.562 292.52 153.102 292.469 152.646 292.405C153.237 295.858 154.987 295.523 157.298 295.986Z" fill="white"/>
<path d="M84.3423 253.267C84.4673 251.754 84.5991 250.196 84.7342 248.571C83.0281 248.879 81.3592 249.179 80.1193 249.406C80.0348 250.429 79.9504 251.467 79.893 252.166C77.9808 252.342 76.5551 252.473 75.1261 252.605C75.1936 252.946 75.2646 253.288 75.3356 253.629C78.3964 253.561 81.5281 255.453 84.3423 253.267Z" fill="white"/>
<path d="M78.4601 165.439C78.227 165.578 77.9906 165.72 77.7574 165.858V170.801C78.7608 169.48 79.2406 168.852 79.9872 167.869C80.2676 168.774 80.45 169.362 80.6325 169.946C81.0345 169.537 81.4365 169.125 81.8385 168.713C80.7102 167.622 79.5851 166.531 78.4601 165.439Z" fill="white"/>
<path d="M127.821 276.463C127.794 276.334 127.764 276.203 127.737 276.074H122.936C122.041 276.233 121.146 276.378 120.25 276.507C120.27 276.77 120.291 277.034 120.311 277.297C122.814 277.02 125.318 276.74 127.821 276.463Z" fill="white"/>
<path d="M283.561 237.037C280.601 239.895 280.358 239.881 277.824 237.037H283.561ZM296.284 189.452C295.75 189.662 295.115 190.047 294.885 190.523C293.473 193.442 291.966 196.337 290.865 199.378C289.183 204.02 288.159 208.986 282.699 210.979C282.054 211.216 281.814 212.395 281.186 212.864C276.422 216.415 273.098 222.601 265.534 220.979C259.872 219.763 254.078 219.152 248.422 217.902C245.027 217.152 242.753 218.381 242.568 221.78C242.51 222.797 242.128 223.797 242.115 224.81C242.061 228.79 242.091 232.77 242.091 237.317C243.943 236.638 245.22 236.172 246.48 235.709C246.507 235.685 246.53 235.662 246.557 235.638C246.557 235.638 246.564 235.645 246.571 235.648C246.926 235.601 247.277 235.554 247.628 235.506C247.682 235.49 247.74 235.473 247.787 235.446C253.324 232.27 259.926 233.537 265.652 231.165C265.868 231.077 266.199 231.256 266.608 231.824C264.716 232.442 262.861 233.3 260.922 233.628C256.517 234.375 252.074 234.915 247.628 235.506C247.318 235.621 246.932 235.611 246.591 235.669C246.568 235.679 246.544 235.685 246.52 235.696C246.007 236.148 245.561 236.716 245.007 237.064C244.926 237.114 244.841 237.162 244.757 237.202C243.101 237.986 242.135 238.962 242.395 241C242.534 242.071 242.091 243.219 241.895 244.334C241.49 246.618 241.926 248.577 244.081 249.864C241.487 251.158 241.487 251.158 242.324 253.952C243.5 257.871 242.324 260.364 239.152 260.946C238.382 259.79 237.659 258.702 236.932 257.611C236.514 257.912 236.091 258.209 235.672 258.506C235.53 260.625 235.449 262.75 235.233 264.861C234.929 267.824 236.551 269.209 239.159 269.01C241.321 268.841 241.588 269.766 241.659 271.432C241.726 273.04 241.953 274.645 242.142 276.614C244.314 275.503 245.821 274.733 247.824 273.709C243.291 272.081 243.291 272.081 244.264 265.706C244.696 265.273 245.132 264.841 245.568 264.408C246.061 265.932 246.551 267.459 247.041 268.983C247.372 268.685 247.703 268.385 248.037 268.084C247.544 266.077 247.051 264.067 246.557 262.06C246.858 261.973 247.155 261.888 247.456 261.804C247.699 262.196 247.966 262.577 248.186 262.986C250.145 266.665 249.274 270.591 249.196 274.456C249.142 276.976 249.186 279.496 249.186 282.016C249.449 282.071 249.71 282.131 249.973 282.185C250.824 280.935 251.676 279.682 252.571 278.361C253.267 279.297 253.78 279.993 254.297 280.689C253.318 276.196 251.625 271.912 257.007 268.888C253.432 268.206 252.926 265.537 255.03 262.05C254.213 259.986 253.524 258.243 252.831 256.5C253.169 256.341 253.507 256.185 253.845 256.027C255.794 258.462 257.743 260.902 259.693 263.334C259.949 263.114 260.21 262.891 260.47 262.669C259.507 261.564 258.473 260.513 257.605 259.337C256.659 258.064 256.081 256.432 254.939 255.402C253.75 254.331 252.605 253.611 253.818 251.321C257.72 256.364 261.335 261.033 265.098 265.898C265.524 265.746 266.355 265.452 266.855 265.273C266.949 263.885 267.23 262.723 267.041 261.645C266.878 260.706 266.23 259.831 265.72 258.973C265.311 258.283 264.666 257.716 264.341 257C263.628 255.425 262.976 254.013 261.405 252.881C260.027 251.891 259.321 249.966 258.314 248.452C258.652 248.098 258.993 247.743 259.331 247.388C261.179 248.456 263.841 249.084 264.71 250.685C266.48 253.952 267.26 257.75 268.517 261.304C268.696 261.817 269.166 262.391 269.649 262.601C271.284 263.307 272.983 263.861 274.655 264.469C274.49 264.885 274.321 265.3 274.155 265.716C273.095 265.27 272.034 264.827 270.693 264.263C272.324 268.625 275.551 266.114 277.983 266.429C278.017 266.432 278.088 266.111 278.162 265.888C277.324 265.614 276.49 265.341 275.122 264.891C275.97 263.307 276.679 261.976 277.605 260.239C276.757 260.098 275.399 259.81 274.02 259.641C272.132 259.412 271.135 258.804 272.085 256.652C272.476 255.76 272.554 254.598 272.399 253.621C271.976 251 271.348 248.405 270.801 245.804C271.689 246.131 272.618 246.844 272.858 247.739C273.432 249.854 274.777 250.432 276.743 250.435C281.358 250.442 285.983 250.729 290.585 250.513C293.807 250.361 297.003 249.567 300.21 249.057C300.172 248.783 300.132 248.51 300.095 248.236H281.095C281.118 248.375 281.139 248.513 281.166 248.652C278.669 247.902 276.169 247.152 272.845 246.155C274.426 244.824 275.017 244.006 275.801 243.723C279.855 242.263 283.98 241.081 287.182 237.854C287.797 237.236 289.524 237.591 290.72 237.696C293.534 237.946 296.338 238.408 299.155 238.598C300.608 238.696 302.125 238.412 303.571 238.429C303.72 237.76 303.865 237.091 304.024 236.422C298.949 236.155 293.882 235.696 288.814 235.273C288.733 235.266 288.676 234.946 288.517 234.537C291.267 234.824 293.919 235.101 296.571 235.378C296.612 235.023 296.649 234.665 296.689 234.307C295.338 234.175 293.973 233.837 292.649 233.956C290.794 234.128 289.666 233.949 290.537 232.013C288.632 231.567 286.885 231.152 285.135 230.739C287.652 228.29 289.841 227.317 292.041 230.206C292.507 230.817 293.865 230.75 294.959 230.604C293.476 229.516 291.99 228.429 289.858 226.868C290.145 226.824 290.419 226.783 290.679 226.743C292.23 226.503 293.368 226.327 294.503 226.148C296.014 224.723 297.537 223.31 299.017 221.854C300.091 220.797 301.057 219.689 298.527 219.429L298.503 219.466L298.5 219.462C298.459 219.462 298.412 219.459 298.368 219.459C290.324 223.341 282.051 226.641 273.747 229.858C273.554 229.354 273.361 228.854 273.169 228.351C281.003 225.408 288.831 222.456 296.676 219.547C297.182 219.361 297.794 219.459 298.368 219.459L298.456 219.418C298.48 219.422 298.5 219.425 298.524 219.428C299.274 218.28 300.017 217.131 300.713 216.06C302.686 215.685 304.807 215.28 306.932 214.878C306.976 214.51 307.024 214.141 307.071 213.773C305.706 213.489 304.311 213.31 302.993 212.895C301.996 212.58 300.034 214.037 300.152 211.486V211.489H300.142C298.919 212.861 297.692 214.236 295.757 216.408V204.381C299.24 205.064 299.165 207.101 298.787 208.999C298.507 210.415 298.236 211.439 300.142 211.489C300.145 211.482 300.149 211.479 300.152 211.476C300.152 211.479 300.152 211.483 300.152 211.486C300.584 211.026 301.132 210.618 301.52 210.138C301.591 210.054 301.659 209.962 301.716 209.871C301.77 209.787 301.817 209.699 301.858 209.604C302.821 207.439 304.682 206.837 306.719 206.577C309.399 206.229 311.838 206.844 314.176 207.837C314.554 207.043 314.929 206.239 315.081 205.378C315.358 203.804 314.882 202.209 314.473 200.665C314.257 199.844 314.064 199.013 313.885 198.182C311.446 198.489 308.966 198.8 306.341 199.131C306.436 198.02 306.5 197.29 306.591 196.239C309.071 197.8 311.368 197.516 313.628 196.922C313.405 195.756 313.213 194.584 313.064 193.408H307.149C306.659 190.925 308.115 191.043 309.621 191.05C310.686 191.057 311.75 191.043 312.814 191.027C312.621 188.76 312.561 186.483 312.642 184.209C311.382 184.253 310.142 184.364 308.959 184.692C304.628 185.895 300.487 187.8 296.284 189.452Z" fill="white"/>
<path d="M298.501 219.463H298.505L298.454 219.419C298.454 219.419 298.504 219.466 298.501 219.463Z" fill="white"/>
<path d="M246.572 235.648C246.572 235.648 246.572 235.648 246.568 235.652C246.582 235.659 246.592 235.669 246.592 235.669C246.592 235.669 246.558 235.638 246.572 235.648Z" fill="white"/>
<path d="M300.152 211.487V211.477C300.152 211.477 300.152 211.487 300.149 211.49C300.152 211.49 300.152 211.487 300.152 211.487Z" fill="white"/>
<path d="M246.572 235.649C246.565 235.645 246.559 235.639 246.559 235.639C246.532 235.662 246.508 235.686 246.481 235.71C246.494 235.706 246.508 235.699 246.521 235.696C246.538 235.679 246.552 235.666 246.572 235.649Z" fill="white"/>
<path d="M246.592 235.669C246.592 235.669 246.579 235.659 246.572 235.652C246.552 235.666 246.538 235.683 246.521 235.696C246.545 235.686 246.569 235.679 246.592 235.669Z" fill="white"/>
<path d="M86.2038 139.071C85.4606 139.129 84.7207 139.203 83.9843 139.301C84.8086 139.456 85.6025 139.51 86.2038 139.071Z" fill="white"/>
<path d="M89.7474 174.976C88.244 172.841 89.7676 169.979 94.3758 166.861C92.8656 169.51 91.3555 172.162 89.7474 174.976ZM90.7575 227.094C90.9467 229.358 90.7947 231.648 90.7947 233.929C90.5177 233.976 90.244 234.023 89.967 234.074C89.1359 230.412 88.3048 226.749 87.6258 223.749C90.8251 223.108 93.0177 222.668 95.494 222.168C94.0582 224.128 90.4805 223.76 90.7575 227.094ZM121.305 141.831C119.474 143.226 119.467 146.614 117.268 147.854C116.808 146.638 116.903 145.506 116.781 144.398C116.673 143.418 116.497 142.412 116.146 141.503C114.93 141.388 113.71 141.256 112.487 141.111C111.754 141.378 111.028 141.672 110.291 141.939C111.051 143.081 111.839 144.26 112.609 145.418C106.95 146.733 105.231 143.783 103.967 139.993C103.318 139.908 102.67 139.824 102.021 139.746C101.41 141.172 100.92 142.408 101.22 143.405C102.791 148.587 100.862 153.635 101.535 158.081C97.119 160.77 93.1224 163.206 89.0684 165.679C90.869 163.216 92.6393 160.956 94.2238 158.57C95.5819 156.523 96.8657 154.621 100.116 156.432C100.116 154.033 99.8589 152.067 100.163 150.192C101.193 143.895 98.8691 139.82 90.8488 140.57C87.5549 140.878 84.2136 140.672 80.8116 140.635C81.0785 141.263 81.342 141.891 81.6055 142.526C86.2272 142.766 90.7407 143.003 94.6866 143.209C96.0413 146.52 96.9434 148.729 97.8454 150.935C97.6157 151.179 97.3893 151.418 97.1596 151.662C95.5447 148.057 93.0988 146.182 89.0346 147.151C89.6968 148.699 90.3082 150.131 91.0109 151.776C89.1461 151.895 87.6224 151.989 86.1123 152.084C85.9569 153.179 85.8015 154.263 85.6326 155.445C85.6427 155.516 85.6528 155.591 85.6664 155.662C86.9164 155.942 88.065 156.202 88.9941 156.412C87.9333 159.239 86.9839 161.972 85.8826 164.638C84.5718 167.817 83.7812 170.996 84.7644 174.439C84.9434 175.07 84.9164 176.016 84.5583 176.506C81.8826 180.155 81.9502 184.253 82.315 188.462C82.4806 190.391 82.9502 192.591 82.2643 194.246C80.3218 198.952 81.413 203.378 82.6224 207.885C82.6294 207.885 82.6393 207.885 82.6494 207.885C82.7744 205.3 82.8994 202.712 83.0312 200.128C83.0819 199.148 83.1528 198.168 83.2136 197.189C83.5515 197.165 83.8859 197.141 84.2238 197.121C84.5278 200.499 84.8319 203.881 85.1325 207.263C85.3724 207.32 85.6089 207.381 85.8454 207.442C86.2846 206.652 86.7204 205.864 87.2204 204.962C87.6325 205.304 88.1123 205.695 88.8859 206.334C89.2711 202.192 89.619 198.418 89.9704 194.645C90.369 194.655 90.7677 194.658 91.1663 194.665V207.885C90.3792 207.885 89.3589 207.885 88.3352 207.885C86.4433 207.888 84.5481 207.892 82.6494 207.885C82.646 207.912 82.646 207.935 82.6425 207.962L82.6324 207.949C82.6155 207.925 82.5817 207.878 82.5851 207.885C81.4601 207.807 80.3418 207.739 78.8824 207.651V210.567C79.9804 210.28 80.7101 210.091 81.4398 209.901C81.5243 210.192 81.6087 210.483 81.6932 210.776C80.4533 211.145 78.8216 212.175 78.0648 211.726C77.0581 211.131 76.7337 209.385 75.9533 207.807C75.1391 208.037 73.7236 208.442 72.3047 208.847V213.787C73.8621 214.04 75.4229 214.293 77.2844 214.594C75.4128 215.682 73.8587 216.587 72.3047 217.493V219.347C73.8182 219.506 75.3317 219.668 77.0412 219.851C77.2067 221.557 77.3756 223.304 77.5445 225.05C77.8418 225.043 78.1391 225.04 78.4331 225.033L79.2878 219.807C80.325 220.638 80.6256 221.472 81.0277 222.253C82.5006 225.111 85.7709 227.189 84.7979 231.131C84.7304 231.402 85.6222 231.868 85.9939 232.304C86.4297 232.81 86.852 233.351 87.1527 233.942C87.8148 235.236 88.3891 236.577 89.0175 237.895C89.352 238.604 90.0074 239.29 90.0277 240.003C90.1358 243.526 90.0783 247.05 90.0783 249.969C89.1493 250.692 88.0851 251.317 87.1797 252.04C87.1256 253.236 86.8148 254.422 86.2033 255.56C86.0276 255.888 85.825 256.199 85.6087 256.506C85.6493 256.881 85.6864 257.256 85.6864 257.608C87.0243 257.601 88.3655 257.594 89.7033 257.587L95.0682 256.787C95.5175 256.577 95.9668 256.364 96.4195 256.155C97.4263 255.682 98.4533 255.202 99.5513 254.689C100.082 254.442 100.629 254.189 101.193 253.922C100.484 249.381 99.2641 244.675 99.1526 239.942C99.0513 235.864 99.5749 231.817 98.0648 227.875C97.9195 227.493 98.406 226.912 98.4364 226.412C98.5378 224.908 98.6188 223.402 98.5952 221.898C98.531 217.864 96.5715 214.023 97.781 209.804C98.5175 207.239 98.5006 204.445 98.6999 201.746C98.781 200.638 98.433 199.503 98.4533 198.381C98.558 192.597 98.683 186.81 98.8857 181.027C98.9499 179.172 98.1391 178.5 96.3824 178.344C93.9803 178.131 91.5952 177.709 89.2033 177.374C89.2202 177.165 89.2439 176.952 89.2641 176.739H98.8587C98.6864 173.344 98.5614 170.189 98.3553 167.033C98.2236 165.074 98.2438 163.692 100.318 162.175C101.947 160.983 102.754 160.081 104.646 161.148C105.031 161.368 105.761 160.989 106.328 160.871C110.609 159.996 114.896 159.168 119.159 158.222C121.362 157.733 123.517 157.04 126.099 156.327C126.359 156.364 127.251 156.489 128.139 156.614C128.406 154.516 128.67 152.415 128.977 149.996C125.801 151.141 124.788 150.239 124.92 147.233C125.004 145.347 125.156 143.476 125.267 141.827C123.953 141.878 122.633 141.871 121.305 141.831Z" fill="white"/>
<path d="M82.6426 207.963C82.6426 207.963 82.6391 207.959 82.6324 207.949L82.6426 207.963Z" fill="white"/>
<path d="M295.65 151.527C295.714 151.717 295.781 151.902 295.849 152.088C294.68 153.264 293.65 154.662 292.278 155.504C291.714 155.848 290.417 154.994 289.454 154.683C289.917 153.977 290.234 152.885 290.876 152.639C292.383 152.054 294.048 151.872 295.65 151.527ZM300.839 173.183C301.913 176.325 303.048 179.639 304.18 182.95C304.096 182.98 304.004 183.007 303.92 183.037C302.042 179.879 300.163 176.72 298.366 173.703C298.987 173.571 299.819 173.396 300.839 173.183ZM302.167 167.717C304.025 168.355 305.832 169.875 308.129 167.774C308.569 168.193 309.187 168.784 310.342 169.889C307.464 170.027 305.275 170.186 303.082 170.227C300.548 170.277 301.288 169.061 302.167 167.717ZM284.731 138.095C284.173 137.943 283.265 138.369 282.778 138.811C280.839 140.568 278.825 140.338 276.46 139.754C274.947 139.382 273.075 139.761 271.555 140.311C270.177 140.815 269.075 142.048 267.808 142.892C264.856 144.872 261.873 146.811 258.812 148.825C258.427 148.679 257.518 148.132 256.582 148.081C256.129 148.054 255.143 149.065 255.224 149.419C255.511 150.686 256.153 151.872 256.781 153.385C256.133 153.521 255.065 153.747 254.021 153.967C253.917 152.169 253.835 150.818 253.761 149.541C248.315 152.156 243.369 154.51 238.454 156.933C238.028 157.142 237.471 157.933 237.575 158.254C238.575 161.264 236.92 160.206 235.417 159.818C230.183 158.467 227.69 160.017 227.471 164.271C228.589 165.135 229.538 165.869 230.484 166.598C230.085 167.085 229.464 168.048 229.322 167.98C227.737 167.237 226.227 166.335 224.025 165.095C223.64 166.037 222.302 167.71 222.44 169.25C222.93 174.669 225.038 180.021 222.525 185.463C222.373 185.794 222.46 186.291 222.552 186.679C223.565 190.926 224.717 195.159 222.545 199.544C229.078 199.068 230.139 197.723 229.379 191.983C229.214 190.737 229.754 189.402 229.943 188.102C230.075 187.223 230.254 186.342 230.261 185.456C230.305 181.517 230.224 177.575 230.349 173.635C230.379 172.669 230.778 171.527 231.403 170.798C233.575 168.26 235.832 165.777 238.217 163.436C244.714 157.054 252.987 154.284 261.693 154.139C265.93 154.068 269.923 154.075 273.953 152.774C274.585 152.571 275.636 153.385 276.376 153.899C276.832 154.22 276.96 155.034 277.426 155.328C280.035 156.987 282.7 158.554 285.17 160.048C288.676 158.348 292.457 156.514 296.241 154.683L296.879 155.774C295.437 156.787 294.038 157.875 292.538 158.801C288.285 161.426 286.93 164.301 290.112 167.869C293.23 171.365 294.518 175 295.024 179.284C295.176 180.578 295.312 181.885 295.305 183.183C295.291 184.872 295.126 186.558 295.001 188.679C301.031 185.97 307.268 184.889 312.099 179.787C309.653 179.649 307.845 179.544 306.038 179.439C306.058 179.129 306.075 178.818 306.095 178.507C307.072 178.507 308.251 178.858 308.98 178.433C310.295 177.669 311.342 176.443 312.501 175.406C311.109 175.098 309.724 174.69 308.315 174.534C307.795 174.473 307.197 175.25 306.66 175.22C305.683 175.163 304.73 174.791 303.768 174.548C303.781 174.203 303.798 173.855 303.815 173.51C305.065 172.906 306.335 171.757 307.558 171.804C309.771 171.896 311.977 172.213 314.183 172.544C314.318 171.848 314.45 171.152 314.572 170.456C313.771 170.186 313.011 169.713 312.234 169.027C310.443 167.453 308.129 166.477 305.957 165.19C307.21 164.693 310.078 165.669 308.906 162.568C308.872 162.568 308.839 162.568 308.801 162.568C308.815 162.537 308.828 162.504 308.842 162.47C308.075 162.315 307.325 162.169 306.592 161.977C304.96 161.548 303.43 160.892 302.102 159.409C300.244 157.331 298.656 159.517 297.251 160.733C296.818 161.108 296.758 162.004 296.312 162.237C295.565 162.622 294.643 162.669 293.791 162.858C293.95 162.075 293.842 161.038 294.308 160.544C296.964 157.737 300.129 155.777 304.085 155.355C304.355 155.328 304.605 155.081 305.258 154.72C304.788 153.869 304.345 153.058 303.896 152.247C303.318 152.679 302.798 153.318 302.149 153.49C301.47 153.673 300.673 153.406 299.835 153.325C299.589 150.075 303.055 150.659 304.207 148.94C304.548 148.433 305.487 148.355 306.112 148.01C306.558 147.76 307.004 147.51 307.45 147.257C305.619 145.298 303.572 143.538 301.362 142.007C301.247 142.115 301.129 142.233 301.008 142.362C299.761 143.679 296.818 143.399 294.643 143.842L294.524 142.129H300.71C300.741 141.96 300.768 141.794 300.795 141.625C299.2 140.561 297.524 139.612 295.788 138.791C292.112 139.092 288.43 139.105 284.731 138.095Z" fill="white"/>
<path d="M145.68 146.406C147.464 147.98 149.011 149.345 150.555 150.71C149.41 151.936 148.265 153.162 147.116 154.389C146.869 154.169 146.619 153.949 146.373 153.73C146.599 153.21 146.836 152.693 147.055 152.169C147.282 151.622 147.498 151.071 147.836 150.23C146.636 149.851 145.602 149.524 144.325 149.118C144.67 148.426 145.001 147.764 145.68 146.406ZM133.14 140.797C132.886 141.568 132.508 142.433 131.988 143.395V141.054C131.491 141.156 130.994 141.25 130.494 141.328C130.498 146.375 130.494 151.483 130.494 156.889C132.099 156.75 133.836 156.601 135.626 156.446C135.332 155.314 135.13 154.527 134.859 153.473C139.13 154.639 142.957 155.683 146.886 156.75C146.221 156.97 145.623 157.166 145.096 157.338C150.687 164.385 153.842 172.172 154.744 180.919C155.278 180.878 155.812 180.835 156.346 180.794C156.295 174.713 156.795 168.622 155.025 162.193C154.251 162.781 153.788 163.132 153.075 163.672V157.321H158.582L158.721 156.112C155.667 155.406 152.552 155.074 148.579 155.591C149.771 154.375 150.552 153.554 151.363 152.757C153.069 151.071 152.839 149.72 150.778 148.46C149.302 147.558 147.673 146.683 146.606 145.389C145.538 144.095 143.998 142.237 146.775 140.608C147.423 141.669 147.95 142.531 148.163 142.882C149.282 141.615 150.143 140.406 151.241 139.466C152.359 138.503 153.711 137.808 155.177 136.855C153.42 136.514 151.646 136.169 149.099 135.676C151.116 138.679 149.423 138.892 147.714 139.024C146.194 139.145 144.657 139.328 143.15 139.203C142.44 139.142 141.788 138.426 141.109 138.01C141.167 137.949 141.224 137.878 141.282 137.811C139.971 138.422 138.657 139.027 137.312 139.537C135.937 140.061 134.545 140.466 133.14 140.797Z" fill="white"/>
<path d="M226.366 146.909C225.528 145.737 224.69 144.564 223.855 143.392C224.247 143.091 224.639 142.791 225.028 142.493C225.943 143.615 226.859 144.737 227.778 145.862C227.305 146.21 226.835 146.558 226.366 146.909ZM245.251 140.858C242.71 142.166 238.953 142.101 235.916 140.96C234.474 140.987 233.028 141.004 231.585 141.014C231.747 141.699 231.714 142.466 231.447 143.267C230.018 142.544 228.551 141.801 227.014 141.024C226.078 141.02 225.143 141.017 224.203 141.007C224.254 141.321 224.278 141.524 224.227 141.544C221.595 142.551 222.514 145.01 222.078 146.848C221.589 148.926 221.555 151.115 221.045 153.186C220.193 156.635 221.382 158.933 224.882 159.233C226.531 159.375 228.268 158.497 230.038 158.061C229.234 156.037 228.683 154.656 227.896 152.686C227.551 154.122 227.352 154.963 227.149 155.808C226.957 155.767 226.761 155.73 226.568 155.693C226.747 153.595 226.926 151.497 227.146 148.946C227.798 149.858 228.153 150.351 229.045 151.598C229.737 149.419 230.214 147.933 230.781 146.152C231.703 146.997 232.541 147.767 233.71 148.835C233.413 147.52 233.2 146.585 232.991 145.656C238.47 144.676 238.467 144.676 236.68 150.058C236.42 150.835 235.977 151.632 235.994 152.409C236.024 153.659 236.369 154.902 236.609 156.301C237.024 156.105 237.43 155.909 237.828 155.72C240.592 154.402 242.926 153.287 245.257 152.172C244.109 151.473 241.98 151.615 242.656 149.358C242.872 148.642 243.751 148.122 244.328 147.514C245.399 146.041 246.092 144.22 247.295 142.845C247.974 142.071 248.369 139.767 250.399 141.193C250.585 140.916 250.882 140.517 251.085 140.22C249.257 140.402 247.423 140.541 245.589 140.639C245.48 140.723 245.369 140.797 245.251 140.858Z" fill="white"/>
<path d="M245.261 152.175C245.261 152.172 245.257 152.172 245.254 152.172C242.926 153.287 240.592 154.402 237.828 155.719C240.592 154.402 242.93 153.287 245.261 152.175Z" fill="white"/>
<path d="M245.261 152.176C245.298 152.196 245.338 152.22 245.372 152.244L245.298 152.159C245.284 152.163 245.274 152.169 245.261 152.176Z" fill="white"/>
<path d="M217.886 298.737C218.007 298.862 218.119 298.98 218.23 299.101C221.325 298.541 224.413 297.943 227.497 297.341C228.176 297.206 228.859 297.074 229.538 296.943C228.727 296.868 227.916 296.808 227.105 296.791C223.788 296.716 220.666 296.46 217.886 298.737Z" fill="white"/>
<path d="M304.687 221.5C305.934 221.909 307.042 222.274 308.079 222.615C308.2 222.253 308.329 221.895 308.457 221.537C307.406 221.568 306.251 221.5 304.687 221.5Z" fill="white"/>
<path d="M176.852 138.283C176.564 138.432 176.277 138.584 175.99 138.732C175.754 138.327 175.517 137.915 175.274 137.493C174.649 137.412 174.02 137.32 173.392 137.232C173.203 137.55 173.01 137.871 172.821 138.189C174.423 139.401 175.723 140.388 176.895 141.28C177.466 140.3 178.044 139.317 178.618 138.337C179.051 138.418 179.483 138.499 179.919 138.58C179.848 139.878 180.213 141.435 179.625 142.425C178.105 144.969 178.977 145.756 181.514 145.824C182.277 145.844 183.044 145.827 183.737 145.827V141.874C182.862 141.749 182.108 141.638 180.936 141.469C181.693 139.969 181.514 138.976 180.872 138.202C179.521 138.043 178.173 137.871 176.821 137.695C176.831 137.891 176.841 138.087 176.852 138.283Z" fill="white"/>
<path d="M302.832 218.259C303.352 218.259 303.754 218.266 304.156 218.259C306.004 218.239 307.852 218.219 309.7 218.199C309.971 217.51 310.227 216.814 310.504 216.128C307.869 216.091 305.268 216.412 302.832 218.259Z" fill="white"/>
<path d="M308.842 162.469C308.852 162.473 308.866 162.476 308.876 162.476C308.89 162.51 308.896 162.537 308.907 162.568C310.38 162.581 311.853 162.608 313.325 162.605C313.93 162.601 314.532 162.588 315.133 162.578C315.102 162.21 315.065 161.841 315.015 161.473C314.961 161.105 314.89 160.743 314.815 160.382C313.038 160.598 311.261 160.821 309.498 161.112C309.214 161.159 309.048 161.956 308.842 162.469Z" fill="white"/>
<path d="M308.842 162.47C308.829 162.504 308.815 162.537 308.802 162.568L308.876 162.477C308.866 162.477 308.853 162.473 308.842 162.47Z" fill="white"/>
<path d="M308.802 162.568C308.839 162.568 308.873 162.568 308.906 162.568C308.896 162.537 308.89 162.51 308.876 162.477L308.802 162.568Z" fill="white"/>
<path d="M127.042 147.452C127.471 147.415 127.9 147.381 128.329 147.344C128.167 145.445 128.008 143.55 127.849 141.651C127.339 141.699 126.829 141.739 126.319 141.77C126.322 143.685 126.491 145.587 127.042 147.452Z" fill="white"/>
<path d="M311.778 183.595C312.075 183.558 312.376 183.524 312.673 183.487C312.697 183.024 312.724 182.558 312.758 182.095C312.305 182.254 311.859 182.409 311.406 182.568L311.778 183.595Z" fill="white"/>
<path d="M206.48 150.608C206.453 150.385 206.426 150.159 206.396 149.932C208.372 149.649 210.352 149.365 212.328 149.081C212.345 149.591 212.369 150.101 212.386 150.608H206.48ZM203.764 155.28C204.504 155.831 204.963 156.176 205.869 156.855C204.21 156.966 202.977 157.051 201.115 157.176C201.622 158.557 202.031 159.666 202.669 161.405C201.359 160.831 200.369 160.419 199.399 159.966C198.375 159.493 197.372 158.986 196.183 158.405C196.21 156.463 195.23 154.051 198.355 153.77C198.74 151.868 199.092 150.122 199.446 148.372C199.788 148.436 200.129 148.497 200.473 148.561C200.345 150.355 200.217 152.152 200.058 154.368C201.49 154.23 202.487 154.135 203.48 154.041C203.484 153.855 203.487 153.672 203.487 153.486C202.97 153.247 202.453 153.003 201.933 152.764C201.943 152.608 201.953 152.456 201.96 152.301C203.599 152.389 205.237 152.476 206.852 152.561C207.565 155.328 207.565 155.328 203.764 155.28ZM191.899 173.929C193.994 177.885 193.004 181.128 191.322 183.946C189.474 187.044 189.791 190.26 190.129 193.395C190.514 196.919 190.139 200.088 187.943 203.051C187.98 193.395 190.034 184.02 191.899 173.929ZM200.811 209.007C199.835 209.466 198.865 209.953 197.876 210.378C194.075 212.014 192.757 214.311 193.21 218.483C193.274 219.084 193.281 219.73 193.146 220.314C192.271 224.169 191.507 228.068 190.325 231.831C190.031 232.767 188.403 233.628 187.261 233.841C186.48 233.983 185.48 232.939 184.582 232.422C184.697 231.986 184.815 231.551 184.93 231.115C188.295 233.524 188.541 231.51 189.511 229.115C191.436 224.355 189.882 219.537 191.112 214.574C188.805 215.034 187.065 215.378 185.328 215.726C185.2 215.365 185.072 215.007 184.94 214.649C190.082 212.439 195.224 210.226 200.365 208.014C200.514 208.345 200.663 208.676 200.811 209.007ZM197.957 220.75C197.923 220.78 197.882 220.811 197.845 220.841C197.528 223.618 197.338 226.426 196.855 229.169C196.784 229.568 196.707 229.966 196.622 230.365C196.426 231.287 194.832 231.909 193.879 232.669C193.642 232.493 193.403 232.318 193.166 232.142C193.372 231.449 193.463 230.696 193.805 230.081C195.085 227.767 196.386 225.537 195.764 222.652C195.67 222.22 197.031 221.476 197.832 220.851C197.839 220.784 197.845 220.72 197.852 220.652C197.876 220.652 197.899 220.655 197.926 220.655C197.129 218.301 197.156 218.274 199.305 216.497C199.538 217.983 199.734 219.23 199.974 220.764C199.18 220.72 198.548 220.689 197.926 220.659C197.936 220.693 197.947 220.72 197.957 220.75ZM216.487 145.355C215.882 141.885 214.075 141.169 211.585 140.845C211.19 140.791 210.798 140.713 210.406 140.625C206.335 140.443 202.264 140.189 198.203 139.882C196.73 140.21 195.254 140.527 193.774 140.811C191.014 141.338 188.22 141.71 185.446 142.145C185.943 145.112 186.497 145.426 189.612 145.449C190.838 145.46 192.061 145.976 193.284 146.264C193.193 146.672 193.102 147.085 193.014 147.493C191.055 147.358 189.098 147.22 186.585 147.041C186.47 148.014 186.163 149.122 186.261 150.193C186.409 151.868 186.832 153.52 187.142 155.179C187.25 155.76 187.318 156.818 187.494 156.838C188.254 156.919 189.166 156.895 189.784 156.517C190.207 156.26 190.446 155.331 190.386 154.743C190.298 153.895 189.865 153.085 189.571 152.243C193.419 151.199 194.919 152.615 194.379 156.446C193.778 156.318 193.176 156.186 192.5 156.041V159.574C191.436 159.433 190.551 159.365 189.686 159.193C186.862 158.622 186.139 159.196 186.129 161.963C186.112 164.946 186.041 167.926 185.973 170.909C185.879 174.936 184.48 176.311 180.261 176.845C178.028 177.125 175.784 177.493 173.622 178.095C172.291 178.463 170.355 179.058 169.98 180.044C168.362 184.287 166.889 188.649 166.014 193.091C165.355 196.449 165.659 199.997 165.585 203.463C165.551 205.095 165.636 206.733 165.68 208.368C165.73 210.155 165.835 211.943 165.852 213.733C165.865 215.24 165.261 217.01 165.852 218.21C167.494 221.53 169.619 224.615 171.642 227.943C172.842 226.953 173.882 226.095 174.919 225.237C174.565 226.987 173.173 228.409 173.21 229.791C173.291 232.659 173.889 235.574 174.717 238.338C175.946 242.449 181.234 244.662 185.284 243.081C186.234 242.71 187.217 242.189 188.193 242.172C191.872 242.105 194.723 240.378 196.967 237.72C198.71 235.655 199.734 232.912 201.663 231.085C205.805 227.155 207.45 221.987 208.865 216.889C209.558 214.389 208.406 211.253 207.598 208.554C207.409 207.929 205.207 207.909 203.619 207.537C204.375 207.058 204.973 206.537 205.669 206.26C207.798 205.422 208.555 203.77 208.582 201.649C208.626 197.75 208.703 193.851 208.676 189.953C208.656 186.892 207.98 184.112 209.555 180.814C210.909 177.97 209.636 173.872 209.531 170.328C209.47 168.284 208.477 168.02 206.666 168.551C201.568 170.047 196.43 171.405 191.294 172.774C190.649 172.946 189.933 172.858 189.25 172.889C195.054 170.179 200.957 168.274 206.757 166.108C208.582 165.426 210.139 164.034 211.818 162.966C211.649 162.672 211.48 162.378 211.311 162.085C209.723 162.466 208.139 162.848 205.777 163.419C206.774 162.284 207.125 161.507 207.68 161.318C210.541 160.338 213.409 159.25 216.369 158.713C218.382 158.345 218.875 157.314 219.078 155.655C219.669 150.791 220.284 145.929 220.902 140.956C219.923 140.939 218.94 140.916 217.96 140.889C217.075 141.919 217.031 143.699 216.487 145.355Z" fill="white"/>
<path d="M197.852 220.653C197.845 220.717 197.839 220.784 197.832 220.852C197.836 220.848 197.839 220.845 197.842 220.842C197.852 220.781 197.859 220.72 197.866 220.663C197.862 220.659 197.859 220.656 197.859 220.656C197.879 220.656 197.906 220.659 197.927 220.659V220.656C197.903 220.656 197.876 220.653 197.852 220.653Z" fill="white"/>
<path d="M173.609 295.287C171.947 293.824 170.596 292.628 169.227 291.419C170.849 286.98 172.461 282.402 174.234 277.889C174.555 277.074 175.555 276.531 176.761 275.358C175.609 282.632 174.629 288.831 173.609 295.287ZM190.606 294.071C191.653 289.824 192.548 286.203 193.444 282.581C193.694 282.632 193.944 282.683 194.194 282.733C193.974 285.5 193.755 288.267 193.532 291.037C193.92 291.058 194.309 291.085 194.697 291.108C194.849 289.324 194.822 287.5 195.207 285.77C195.586 284.064 196.383 282.449 196.998 280.794C197.282 280.892 197.562 280.993 197.846 281.095C197.623 283.652 197.396 286.21 197.17 288.767C197.437 288.784 197.7 288.797 197.964 288.814L199.798 279.422C200.025 279.443 200.251 279.463 200.477 279.487C200.717 280.801 200.957 282.118 201.197 283.433C201.417 283.385 201.633 283.338 201.852 283.291C201.95 281.216 202.048 279.139 202.143 277.064C202.349 277.041 202.555 277.02 202.758 276.997C203.187 277.72 203.619 278.443 204.265 279.534C204.42 278.429 204.511 277.764 204.606 277.081C207.869 277.199 207.065 279.848 208.018 281.909C207.207 281.686 206.812 281.574 205.95 281.335C208.099 284.054 210.015 286.473 211.93 288.892C212.082 288.858 212.238 288.824 212.39 288.791C211.582 286.335 210.771 283.882 209.961 281.426C210.184 281.328 210.407 281.237 210.629 281.142C211.491 282.551 212.356 283.963 213.254 285.429C213.609 285.115 214.052 284.862 214.018 284.737C213.018 281.071 212.852 276.716 210.67 273.976C208.67 271.466 208.43 271.355 211.383 270.669C212.004 270.527 212.498 269.831 212.937 269.483C213.964 270.683 214.782 271.642 216.001 273.068V278.051C218.69 276.291 221.386 275.483 221.626 271.966C221.782 269.72 222.771 267.531 223.42 265.203C222.907 265.074 221.765 264.791 220.42 264.456C220.619 263.318 220.788 262.351 220.961 261.368C222.589 261.622 223.95 261.831 225.491 262.074C226.488 268.23 223.15 273.503 222.126 279.223C226.136 274.75 228.616 269.679 228.673 263.544C229.711 263.351 230.569 263.193 231.295 263.058C231.934 264.5 232.474 265.72 233.015 266.943C233.295 266.885 233.572 266.835 233.849 266.781C234.126 264.027 234.359 261.27 234.684 258.524C234.998 255.868 234.64 253.743 231.2 253.75C230.454 249.608 230.379 245.311 227.521 241.963C224.075 243.172 220.937 244.27 217.991 245.304C217.258 243.683 216.714 242.48 216.025 240.953C212.004 247.206 208.305 252.963 204.535 258.835C204.302 258.378 203.94 257.679 203.42 256.669C201.015 260.75 198.133 259.26 195.379 258.868C193.559 258.608 191.562 258.179 189.876 258.652C185.059 259.997 180.572 262.436 175.227 261.625C172.518 261.216 166.937 258.088 165.876 255.558C165.204 253.953 164.413 252.399 163.738 250.794C161.265 244.919 156.95 239.662 157.694 232.689C157.785 231.811 157.312 230.889 157.244 229.976C157.069 227.642 156.177 226.787 153.839 227.922C152.91 228.372 151.761 228.375 150.714 228.581C151.018 227.892 151.393 227.743 151.778 227.645C155.849 226.635 156.167 225.895 155.079 221.818C154.42 219.348 153.917 216.777 153.815 214.233C153.677 210.679 153.981 207.105 154.092 203.537C154.211 199.77 154.231 195.997 154.481 192.237C154.646 189.74 155.14 187.264 155.488 184.78C155.177 184.622 154.863 184.46 154.552 184.301C153.988 185.027 153.241 185.672 152.886 186.487C151.136 190.497 149.626 194.615 147.754 198.561C146.623 200.946 144.974 203.085 143.565 205.338C142.934 206.351 142.417 207.449 141.673 208.372C140.407 209.943 138.873 211.308 137.68 212.929C135.879 215.375 134.096 217.679 130.748 218.031C130.008 218.108 129.322 218.679 128.315 219.166C130.535 222.517 132.559 225.689 134.707 228.777C137.025 232.112 139.184 232.517 142.771 230.71C143.977 230.101 145.39 229.895 147.407 229.294C146.555 231.956 145.977 233.76 145.383 235.605C146.322 235.743 147.173 235.868 148.032 235.99C147.038 241.139 147.241 241.517 150.609 240.781C150.609 242.551 150.559 244.287 150.633 246.02C150.667 246.868 150.934 247.706 151.092 248.551C151.846 248.365 152.606 248.21 153.352 247.993C154.893 247.551 156.423 247.078 157.961 246.615C158.072 247.044 158.184 247.473 158.295 247.902C156.106 248.449 153.805 248.73 151.771 249.625C150.295 250.27 148.207 251.642 148.102 252.841C147.91 255.047 148.589 257.713 152.163 256.885C152.863 256.72 153.694 257.112 155.167 257.372C152.052 264.108 155.464 269.933 157.265 276.669C158.575 274.926 159.474 273.46 160.653 272.274C161.251 271.666 162.349 271.558 163.224 271.226C163.383 272.095 163.795 273.02 163.626 273.824C163.45 274.662 162.896 275.76 162.197 276.098C157.778 278.22 158.788 283.037 156.136 286.27C157.937 286.706 159.004 286.966 159.504 287.088C162.417 285.588 160.011 280.77 164.498 280.693C165.238 278.014 165.974 275.345 166.711 272.676C167.342 273.75 167.45 274.811 167.325 275.848C166.832 279.946 166.052 284.02 165.822 288.132C165.711 290.105 166.396 292.199 167.062 294.122C168.136 297.226 171.038 295.885 173.184 296.253C175.254 296.612 176.248 296.335 175.704 293.453C175.089 290.189 175.349 286.564 177.825 283.706C177.548 287.98 177.285 292.027 177.025 296.034C178.94 296.257 180.099 296.392 181.471 296.551C181.133 295.791 180.906 295.284 180.636 294.679C183.248 294.422 185.606 297.193 188.258 295.128C186.893 292.723 184.798 292.963 182.731 293.068C180.126 293.196 179.146 291.591 180.079 289.145C180.944 286.872 181.555 284.497 182.238 282.159C182.525 281.172 182.572 280.091 182.994 279.179C183.366 278.378 184.109 277.753 184.687 277.051C184.758 277.902 185.065 278.821 184.856 279.598C184.156 282.166 183.221 284.669 182.504 287.233C182.352 287.784 182.744 288.487 182.883 289.118C183.065 289.081 183.251 289.047 183.434 289.01C184.075 287.132 184.714 285.253 185.342 283.416C186.045 284.047 186.616 284.561 187.43 285.294C187.724 282.976 187.944 281.25 188.16 279.524C188.511 279.51 188.866 279.493 189.217 279.48C189.4 280.314 189.741 281.152 189.738 281.99C189.724 285.845 188.805 289.659 189.697 293.568C190.241 295.96 191.751 296.655 193.684 296.314C194.569 296.159 195.241 294.794 196.464 293.497C193.947 293.743 192.525 293.882 190.606 294.071Z" fill="white"/>
<path d="M254.572 184.034C257.136 185.264 259.319 186.311 261.501 187.358C261.258 187.825 261.018 188.291 260.778 188.757C258.731 188.115 256.687 187.47 254.261 186.703C254.346 185.977 254.45 185.061 254.572 184.034ZM250.92 191.7C250.91 191.7 250.9 191.7 250.89 191.7C253.278 194.761 258.41 195.25 259.356 200.075C257.9 200.331 256.954 200.5 255.808 200.703C256.329 202.683 256.785 204.416 257.261 206.22C258.011 206.068 258.403 205.956 258.798 205.909C264.788 205.23 269.028 200.865 274.251 198.622C277.109 197.396 278.292 195.348 279.052 192.733C279.592 190.872 280.163 188.987 280.383 187.075C280.586 185.301 280.538 183.446 280.241 181.69C279.832 179.321 279.464 176.811 278.369 174.737C277.231 172.581 275.437 170.636 273.515 169.119C272.947 168.673 270.933 169.899 269.667 170.531C266.69 172.021 263.761 173.615 260.815 175.163C260.633 174.872 260.444 174.581 260.261 174.291C262.582 172.75 264.906 171.21 267.785 169.301C261.241 166.142 255.731 168.869 250.221 170.078C247.994 170.565 245.937 171.825 243.795 172.74C244.947 179.105 243.893 185.825 242.873 193.22C245.261 191.666 247.275 190.358 249.221 189.092C247.802 186.943 246.572 185.497 245.869 183.828C245.555 183.081 245.994 181.304 246.602 180.997C250.156 179.179 253.863 177.656 257.515 176.038C257.711 176.419 257.903 176.801 258.096 177.186C254.356 179.206 250.616 181.227 247.086 183.136C248.437 186.152 249.68 188.926 250.92 191.703L250.92 191.7Z" fill="white"/>
<path d="M250.801 191.595C250.801 191.595 250.811 191.602 250.821 191.612L250.801 191.595Z" fill="white"/>
<path d="M125.281 188.247C126.257 187.868 127.443 187.01 127.744 186.111C128.477 183.922 128.747 181.578 129.203 179.294C129.581 179.368 129.96 179.439 130.335 179.513C130.068 182.274 129.838 185.04 129.49 187.79C129.446 188.142 128.842 188.567 128.416 188.706C124.007 190.145 119.585 191.53 115.166 192.932C115.041 192.605 114.912 192.28 114.787 191.953C118.291 190.733 121.828 189.598 125.281 188.247ZM113.443 198.247C113.416 200.858 113.169 203.466 112.987 206.564C114.764 206.186 116.774 206.172 116.916 205.649C117.233 204.466 116.632 203.037 116.308 201.135C117.548 202.554 118.473 203.618 119.358 204.632C126.004 201.375 129.889 198.243 133.801 193.044C135.558 190.709 135.365 187.976 133.679 186.841C134.612 185.844 136.2 184.939 136.456 183.747C137.632 178.267 135.923 171.199 127.845 169.476C124.281 168.716 121.477 169.73 120.544 172.277C118.24 171.561 115.936 170.844 113.108 169.966C113.193 171.507 113.311 172.48 113.284 173.446C113.223 175.665 113.467 177.986 112.906 180.081C111.852 184.024 111.298 187.716 112.997 191.713C113.804 193.615 113.467 196.054 113.443 198.247Z" fill="white"/>
<path d="M132.028 229.419C132.399 231.875 132.7 233.858 133.001 235.841C132.747 235.925 132.497 236.007 132.244 236.091C131.423 234.098 130.602 232.105 129.629 229.74C130.396 229.638 131.17 229.534 132.028 229.419ZM117.433 232.507C117.335 232.115 117.237 231.723 117.139 231.327C119.011 230.922 120.879 230.517 122.747 230.111C122.865 230.496 122.987 230.878 123.109 231.263C121.217 231.679 119.325 232.094 117.433 232.507ZM124.335 219.699C121.227 221.121 118.47 224.074 114.43 221.888C112.592 229.02 112.146 235.871 113.159 242.594C114.355 250.55 113.058 250.216 121.561 247.534C126.619 245.942 131.477 243.723 136.47 241.922C139.936 240.672 142.136 241.584 143.936 244.78C144.926 246.537 145.825 248.348 146.815 250.219C147.615 247.429 148.311 245.017 149.132 242.175C147.548 242.567 146.528 242.821 145.088 243.182C144.159 240.898 143.396 238.642 142.335 236.53C141.572 235.003 140.865 233.284 138.44 233.49C137.504 233.571 136.136 232.827 135.551 232.03C132.96 228.493 130.274 224.966 128.247 221.108C127.102 218.925 126.315 218.79 124.335 219.699Z" fill="white"/>
<path d="M171.352 144.997C171.89 146.429 172.373 147.713 172.954 149.267C170.45 149.473 170.167 148.676 171.352 144.997ZM176.18 150.064L176.964 150.084V157.149C176.704 157.142 176.44 157.139 176.18 157.135V150.064ZM164.325 158.213C165.444 157.622 167.15 158.139 168.586 158.152C168.552 159.304 168.518 160.456 168.488 161.608C168.474 162.169 168.288 162.818 168.498 163.284C169.552 165.652 171.18 166.618 174.207 165.23C173.17 169.338 172.133 173.446 171.153 177.321C174.775 176.28 178.373 175.274 181.95 174.199C182.494 174.037 183.352 173.601 183.386 173.237C183.727 169.179 184.146 165.105 184.079 161.044C184.052 159.304 182.94 157.581 182.322 155.851C182.555 155.77 182.792 155.689 183.025 155.608C182.234 154.983 181.447 154.355 180.657 153.73C180.771 153.584 180.89 153.443 181.005 153.297C182.109 153.503 183.214 153.709 184.687 153.983C183.636 152.547 182.714 150.571 182.184 150.672C179.19 151.247 179.488 148.939 179.015 147.355C175.099 148.568 175.099 148.568 174.738 141.909C172.589 141.409 170.461 140.912 168.329 140.419C171.775 143.743 167.677 145.926 167.42 148.51C167.224 147.845 167.028 147.182 166.832 146.517L166.748 146.612C166.748 146.612 166.748 146.612 166.748 146.608C166.748 146.567 166.741 146.53 166.741 146.49C163.896 145.615 162.038 146.513 161.278 149.645C160.133 147.216 161.443 145.358 163.143 144.419C164.67 143.578 166.612 143.99 166.741 146.49C166.748 146.493 166.758 146.497 166.768 146.5C166.937 145.524 167.261 144.034 167.352 143.328C167.366 143.216 167.372 143.125 167.376 143.057C167.376 143.057 167.376 143.054 167.376 143.05C167.376 143.017 167.372 142.986 167.369 142.966C167.365 142.949 167.359 142.936 167.349 142.932C165.261 142.317 163.078 142.017 160.214 141.517C160.214 147.057 160.163 151.625 160.23 156.189C160.291 160.27 160.511 160.233 164.325 158.213Z" fill="white"/>
<path d="M166.748 146.611L166.832 146.517C166.832 146.517 166.748 146.611 166.748 146.608C166.748 146.611 166.748 146.611 166.748 146.611Z" fill="white"/>
<path d="M146.599 261.054C147.261 259.645 148.133 258.639 147.903 258.145C145.825 253.656 143.555 249.254 141.339 244.828C141.102 245.196 140.862 245.564 140.626 245.933C139.085 245.507 137.562 245 136.001 244.679C134.987 244.473 133.812 244.223 132.893 244.537C127.981 246.213 123.136 248.098 118.244 249.835C115.329 250.868 112.305 251.713 113.562 256.304C112.095 255.196 111.068 254.416 109.156 252.97C108.923 256.652 108.704 259.531 108.599 262.416C108.585 262.787 109.173 263.5 109.47 263.493C109.977 263.483 110.602 263.135 110.947 262.73C111.528 262.048 111.93 261.21 112.406 260.436C112.687 260.531 112.967 260.622 113.248 260.716V267.129C115.447 265.973 117.133 265.088 118.818 264.206C118.673 263.912 118.531 263.615 118.389 263.321C117.663 263.196 116.937 263.068 115.798 262.868C117.484 258.649 116.633 253.825 120.795 250.284C120.981 251.298 121.217 251.855 121.153 252.379C120.771 255.504 120.281 258.618 119.92 261.747C119.849 262.379 120.119 263.091 120.383 263.7C120.45 263.848 121.4 263.868 121.481 263.713C122.048 262.602 122.65 261.47 122.937 260.274C123.258 258.939 123.082 257.483 123.433 256.166C123.991 254.051 124.805 252.004 125.585 249.703C126.001 249.767 126.852 249.895 127.839 250.044C128.092 253.902 124.805 257.936 128.241 261.2C127.67 264.382 127.143 267.348 126.612 270.314C127.106 270.443 127.599 270.568 128.095 270.693C129.741 266.524 131.386 262.362 133.062 258.122C135.481 258.595 134.623 255.237 136.197 254.287C136.92 254.287 137.731 254.372 138.518 254.27C142.082 253.818 143.545 255.186 143.582 258.696C143.602 260.575 144.177 262.443 144.332 264.331C144.42 265.402 144.17 266.5 144.028 268.081C142.318 267.166 141.288 266.618 139.967 265.912C140.845 265.081 141.396 264.561 142.136 263.858C140.041 263.341 139.677 262.537 141.812 261.477C140.903 260.997 140.258 260.652 139.47 260.237C139.47 261.916 139.47 263.338 139.47 264.76C139.47 268.615 140.646 269.558 144.342 268.622C145.183 268.409 145.991 268.068 146.822 267.77C147.967 265.132 148.109 262.578 146.599 261.054Z" fill="white"/>
<path d="M146.818 267.781C146.808 267.801 146.801 267.818 146.794 267.838C146.794 267.838 146.852 267.777 146.868 267.764L146.818 267.781Z" fill="white"/>
<path d="M144.341 268.622C145.183 268.409 145.993 268.068 146.818 267.781C146.818 267.777 146.821 267.774 146.821 267.771C145.99 268.068 145.183 268.409 144.341 268.622Z" fill="white"/>
<path d="M224.129 241.601C224.423 241.54 224.697 241.371 224.977 241.243C229.2 239.331 229.997 238.203 228.997 233.476C228.362 230.483 228.518 227.719 228.974 224.74C229.555 220.949 228.582 217.287 226.045 214.186C224.109 211.817 225.727 205.145 228.551 203.949C228.659 202.703 228.768 201.426 228.92 199.655C226.477 200.314 224.494 200.763 222.578 201.422C222.051 201.601 221.274 202.578 221.393 202.878C222.805 206.412 221.703 209.733 221.129 213.246C219.93 220.578 220.139 228.084 217.362 235.243C216.599 237.213 218.129 240.243 219.146 242.551C219.301 242.902 222.396 241.966 224.129 241.601Z" fill="white"/>
<path d="M248.602 191.649C248.497 191.666 248.396 191.693 248.298 191.726C244.237 193.098 241.943 196.51 241.997 200.862C242.061 206.085 243.402 207.091 248.734 206.341C250.088 206.149 251.568 206.531 252.936 206.868C255.186 207.422 255.929 206.585 255.244 204.503C253.831 200.216 252.315 195.963 250.838 191.696C250.092 191.683 249.298 191.52 248.602 191.649Z" fill="white"/>
<path d="M250.801 191.595C250.814 191.629 250.825 191.662 250.838 191.696C250.855 191.696 250.872 191.696 250.889 191.696C250.858 191.662 250.828 191.632 250.801 191.595Z" fill="white"/>
<path d="M250.889 191.7C250.889 191.7 250.889 191.7 250.886 191.696C250.872 191.696 250.852 191.696 250.835 191.696H250.839C250.855 191.7 250.872 191.7 250.889 191.7Z" fill="white"/>
<path d="M250.916 191.699C250.912 191.696 250.855 191.642 250.821 191.611L250.916 191.699Z" fill="white"/>
<path d="M250.916 191.699L250.821 191.612C250.811 191.601 250.801 191.595 250.801 191.595C250.828 191.632 250.862 191.662 250.889 191.699C250.899 191.699 250.906 191.699 250.916 191.699Z" fill="white"/>
<path d="M95.068 256.787L89.7031 257.591C89.4227 258.433 88.8383 259.301 88.9126 260.112C89.3113 264.5 89.845 268.875 90.416 273.247C90.4936 273.848 90.818 274.416 91.1052 274.987C91.5241 275.095 91.943 275.203 92.3653 275.301C92.4329 275.291 92.5004 275.281 92.568 275.27V261.642C94.2268 262.034 95.7133 261.99 96.6525 262.686C98.8788 264.335 100.788 266.409 102.96 268.135C103.588 268.635 105.335 268.892 105.46 268.662C106.22 267.25 106.771 265.693 107.152 264.125C107.271 263.628 106.774 262.845 106.355 262.375C104.612 260.432 102.794 258.561 100.46 256.088C100.173 256.125 99.8248 256.169 99.4295 256.22C98.5849 256.331 97.5275 256.466 96.4092 256.612C95.97 256.669 95.5207 256.73 95.068 256.787Z" fill="white"/>
<path d="M95.0682 256.787C95.5209 256.73 95.9703 256.669 96.4094 256.611C95.9703 256.669 95.5209 256.726 95.0682 256.787Z" fill="white"/>
<path d="M149.839 264.088C149.63 265.77 149.359 267.98 149.086 270.186C148.731 270.142 148.376 270.095 148.021 270.051C148.119 269.064 148.217 268.074 148.339 266.889C147.7 267.28 147.288 267.534 146.886 267.78C147.133 268.662 147.055 269.257 146.704 269.635C146.444 269.916 146.032 270.081 145.494 270.166C145.295 270.199 145.082 270.223 144.852 270.233C143.7 270.287 142.569 270.686 141.43 270.926C141.481 271.324 141.535 271.723 141.589 272.118C143.751 271.943 145.917 271.767 148.332 271.568C148.231 273.132 148.167 274.085 148.086 275.314C149.008 274.642 149.717 274.125 150.427 273.605L151.177 274.422C150.099 275.612 148.714 276.645 148.021 278.027C147.001 280.068 146.477 282.351 145.741 284.53C148.667 285.203 148.258 287.936 149.065 291.047C150.234 288.963 150.92 287.743 151.667 286.409C150.832 286.037 150.309 285.804 149.704 285.537C150.616 283.649 151.079 281.362 152.474 280.108C154.393 278.389 155.086 276.557 154.305 274.436C152.944 270.73 151.19 267.166 149.839 264.088Z" fill="white"/>
<path d="M146.889 267.78C146.885 267.78 146.882 267.784 146.879 267.784C147.129 268.665 147.054 269.257 146.703 269.635C147.054 269.257 147.132 268.662 146.889 267.78Z" fill="white"/>
<path d="M146.868 267.764L146.794 267.838C146.821 267.821 146.852 267.801 146.879 267.784C146.879 267.774 146.879 267.767 146.875 267.757C146.872 267.757 146.868 267.76 146.868 267.764Z" fill="white"/>
<path d="M146.868 267.764C146.852 267.777 146.794 267.838 146.794 267.838L146.868 267.764Z" fill="white"/>
<path d="M270.075 140.054C269.971 139.679 269.869 139.308 269.768 138.933H259.454C257.616 139.328 255.765 139.642 253.903 139.889C253.616 142.034 253.278 144.575 252.856 147.774C259.204 144.929 264.64 142.49 270.075 140.054Z" fill="white"/>
<path d="M159.254 292.622C160.724 292.828 162.095 293.365 163.43 294.024C163.977 293.673 164.534 293.325 165.136 293.017C163.528 290.369 161.697 292.163 159.845 292.68C158.676 289.007 155.859 292.267 153.828 291.362C154.092 289.021 154.345 286.74 154.605 284.46C154.291 284.429 153.98 284.399 153.67 284.372C153.433 286.906 152.163 288.892 152.582 292.024C152.602 292.159 152.626 292.281 152.646 292.406C153.102 292.47 153.561 292.521 154.031 292.544C155.771 292.625 157.528 292.386 159.254 292.622Z" fill="white"/>
<path d="M301.815 244.189C301.845 244.571 301.876 244.952 301.909 245.334C302.095 245.334 302.284 245.334 302.474 245.338C302.481 244.915 302.504 244.486 302.541 244.061C302.298 244.104 302.055 244.145 301.815 244.189Z" fill="white"/>
<path d="M289.402 240.736C289.379 241.203 289.352 241.665 289.325 242.128H302.794C302.831 241.912 302.872 241.696 302.912 241.483C302.852 241.476 302.787 241.469 302.72 241.466C298.284 241.223 293.845 240.98 289.402 240.736Z" fill="white"/>
<path d="M261.812 207.456C269.089 209.405 276.703 204.878 275.828 199.672C271.278 202.199 266.707 204.736 261.812 207.456Z" fill="white"/>
<path d="M117.808 267.696C116.822 267.851 115.876 268.358 114.96 268.814C114.207 269.189 113.521 269.696 112.667 270.226C112.467 269.094 112.335 268.341 112.17 267.398C110.839 269.307 109.667 270.986 108.339 272.888C109.058 273.24 109.744 273.885 110.248 273.767C112.515 273.223 114.812 272.645 116.923 271.689C117.866 271.267 118.467 269.966 119.035 268.956C119.126 268.794 118.163 267.638 117.808 267.696Z" fill="white"/>
<path d="M215.014 292.827C216.081 293.739 217.149 294.652 218.217 295.567C218.443 295.324 218.666 295.084 218.889 294.841C217.247 293.162 215.605 291.483 213.467 289.297C212.693 291.172 212.112 292.581 211.527 293.989C211.845 294.614 212.159 295.239 212.477 295.864C213.585 296.523 214.69 297.179 215.794 297.837C215.919 297.604 216.041 297.375 216.166 297.141C215.517 295.871 214.865 294.604 214.217 293.334C214.483 293.165 214.747 292.996 215.014 292.827Z" fill="white"/>
<path d="M159.261 176.74C158.788 174.044 159.657 171.881 161.224 169.669C161.93 168.672 161.484 166.861 161.589 164.892C158.39 167.142 157.15 174.807 158.896 178.679C159.065 177.844 159.352 177.26 159.261 176.74Z" fill="white"/>
<path d="M200.95 293.726C200.268 293.5 199.548 293.199 198.862 293.237C198.254 293.27 197.653 293.487 197.051 293.693C196.852 293.76 196.653 293.824 196.45 293.885C196.514 293.959 196.575 294.044 196.639 294.135C196.7 294.223 196.761 294.318 196.822 294.412C196.943 294.601 197.065 294.794 197.186 294.973C197.436 295.331 197.69 295.622 197.984 295.666C201.301 296.159 204.656 296.412 207.997 296.75C207.963 296.527 207.933 296.307 207.899 296.085C205.585 295.294 203.274 294.497 200.95 293.726Z" fill="white"/>
<path d="M265.102 272.213C265.403 272.987 266.461 273.463 267.173 274.078C263.231 266.49 263.231 266.49 258.42 267.578C262.464 266.652 263.903 269.156 265.102 272.213Z" fill="white"/>
<path d="M209.129 287.986C209.089 290.635 209.501 293.105 210.156 295.503C210.545 296.926 211.305 298.348 212.477 295.865C212.163 295.24 211.845 294.615 211.528 293.99C210.731 291.99 209.93 289.986 209.129 287.986Z" fill="white"/>
<path d="M232.973 276.922C233.629 281.476 234.287 286.03 234.943 290.584C235.129 290.571 235.314 290.557 235.5 290.544C234.963 285.993 234.426 281.446 233.885 276.898C233.581 276.905 233.277 276.912 232.973 276.922Z" fill="white"/>
<path d="M258.605 274.878C261 275.422 262.73 275.818 264.46 276.21C263.095 272.405 262.23 272.243 258.605 274.878Z" fill="white"/>
<path d="M247.964 144.878C247.69 144.8 247.42 144.719 247.15 144.642C246.569 147.128 245.988 149.615 245.406 152.098C248.9 150.561 247.913 147.55 247.964 144.878Z" fill="white"/>
<path d="M245.407 152.098C245.366 152.118 245.336 152.135 245.295 152.152C245.299 152.159 245.373 152.243 245.373 152.243C245.383 152.196 245.396 152.148 245.407 152.098Z" fill="white"/>
<path d="M293.261 257.209C290.768 257.55 289.021 257.79 287.011 258.067C289.636 261.135 291.214 259.594 293.261 257.209Z" fill="white"/>
<path d="M120.217 276.074C120.227 276.219 120.238 276.361 120.251 276.507C121.146 276.378 122.042 276.236 122.937 276.074H120.217Z" fill="white"/>
<path d="M285.132 260.997C284.595 260.554 283.997 259.686 283.531 259.754C282.48 259.906 281.497 260.517 280.49 260.943L281.21 262.331C282.518 261.885 283.825 261.443 285.132 260.997Z" fill="white"/>
<path d="M143.447 280.943C143.2 282.99 143.048 285.051 142.869 287.108C143.011 287.122 143.15 287.135 143.292 287.149C143.849 285.47 144.471 283.808 144.927 282.102C145.045 281.659 144.653 281.081 144.494 280.564C144.13 280.689 143.467 280.777 143.447 280.943Z" fill="white"/>
<path d="M298.119 228.146C299.42 227.903 300.764 227.876 302.092 227.838C304.666 227.764 306.058 226.267 307.298 223.467C303.849 223.649 300.872 223.805 297.778 223.963V226.23H294.548C295.193 227.852 296.322 228.484 298.119 228.146Z" fill="white"/>
<path d="M294.552 226.229C294.538 226.203 294.525 226.179 294.515 226.148C294.508 226.148 294.42 226.229 294.42 226.229H294.552Z" fill="white"/>
<path d="M297.659 230.023C297.7 230.391 297.74 230.756 297.781 231.121L303.173 230.635L303.014 229.209C301.23 229.483 299.443 229.753 297.659 230.023Z" fill="white"/>
<path d="M305.46 158.004C309.825 159.386 310.929 159.338 313.102 157.203H305.463C305.463 157.47 305.46 157.737 305.46 158.004Z" fill="white"/>
</svg>
