<svg width="388" height="420" viewBox="0 0 388 420" fill="none" xmlns="http://www.w3.org/2000/svg">
<path d="M242.918 207.55C235.54 220.027 228.428 232.067 221.306 244.094C218.583 248.685 215.918 253.314 213.023 257.793C212.404 258.749 210.904 259.702 209.806 259.706C174.955 259.804 140.1 259.82 105.249 259.756C97.651 259.739 92.4888 254.033 92.4449 246.033C92.4044 238.324 97.8132 232.652 105.587 232.631C133.898 232.564 162.208 232.503 190.519 232.716C194.445 232.743 196.344 231.395 198.178 228.151C206.124 214.108 214.391 200.246 222.425 186.253C223.56 184.276 224.702 183.381 227.104 183.415C237.33 183.567 247.563 183.55 257.79 183.422C260.012 183.395 261.205 184.199 262.273 186.037C272.573 203.797 282.992 221.486 293.273 239.256C297.036 245.763 294.472 254.449 287.952 258.145C280.958 262.111 273.333 259.979 269.279 252.979C260.604 238 251.904 223.033 242.918 207.55Z" fill="white"/>
<path d="M257.813 177.624C256.641 177.695 256.07 177.759 255.502 177.759C232.695 177.763 209.884 177.881 187.08 177.614C183.864 177.577 180.273 176.273 177.556 174.489C173.06 171.526 171.759 166.3 173.333 161.587C175.225 155.938 180.232 151.337 185.31 151.303C203.722 151.172 222.138 151.226 240.546 151.317C241.496 151.324 242.83 152.097 243.317 152.911C248.124 160.922 252.793 169.016 257.813 177.624Z" fill="white"/>
<path d="M211.624 192.456C206.455 201.246 201.641 209.534 196.678 217.726C196.208 218.503 194.786 219.098 193.803 219.105C176.918 219.186 160.033 219.263 143.148 219.115C135.742 219.051 130.127 213.192 129.931 205.915C129.749 199.071 135.188 192.598 142.073 192.534C165.006 192.324 187.938 192.456 211.624 192.456Z" fill="white"/>
</svg>
