<svg width="388" height="420" viewBox="0 0 388 420" fill="none" xmlns="http://www.w3.org/2000/svg">
<path d="M161.869 139.088C170.97 140.037 180.071 140.983 189.173 141.932C209.652 144.074 230.132 146.22 250.612 148.358C262.412 149.595 274.213 150.824 286.01 152.068C286.936 152.166 287.858 152.318 288.774 152.497C294.021 153.52 295.51 156.551 292.76 161.105C290.97 164.071 288.835 166.835 286.791 169.649C264.291 200.666 241.781 231.676 219.247 262.666C218.159 264.162 216.926 265.612 215.524 266.807C213.318 268.693 210.855 268.429 209.071 266.142C207.994 264.753 207.125 263.155 206.406 261.541C189.814 224.385 173.254 187.213 156.703 150.037C156.085 148.645 155.487 147.223 155.108 145.753C154.058 141.659 155.818 139.395 160.078 139.203C160.673 139.176 161.267 139.199 161.858 139.199L161.869 139.088Z" fill="white"/>
<path d="M178.504 218.851C178.376 219.402 178.2 220.317 177.95 221.212C172.224 241.608 166.511 262.003 160.751 282.385C158.879 289.017 157.285 289.419 152.515 284.537C137.768 269.452 123.035 254.354 108.309 239.246C104.001 234.831 104.481 233.087 110.434 231.56C131.113 226.263 151.798 220.99 172.484 215.712C173.302 215.503 174.129 215.294 174.967 215.192C177.525 214.881 178.667 215.959 178.504 218.851Z" fill="white"/>
<path d="M167.021 202.352C158.099 201.298 149.17 200.287 140.258 199.162C137.994 198.879 137.619 197.929 138.997 196.058C144.325 188.818 149.7 181.615 155.126 174.446C156.491 172.642 157.497 172.77 158.43 174.895C162.041 183.125 165.592 191.382 169.082 199.666C169.957 201.737 169.322 202.433 167.021 202.352Z" fill="white"/>
</svg>
