<svg width="388" height="420" viewBox="0 0 388 420" fill="none" xmlns="http://www.w3.org/2000/svg">
<path d="M127.613 147.161C134.375 146.76 140.393 149.173 146.798 150.921C153.024 152.619 159.415 154.748 165.647 156.355C174.877 158.763 184.381 159.967 193.919 159.938C203.165 159.939 212.373 158.763 221.322 156.439C227.454 154.907 234.026 152.71 240.17 151.03C248.468 148.761 254.368 146.127 263.211 147.485C271.88 148.816 279.614 153.493 284.82 160.515C287.864 164.637 289.894 169.418 290.75 174.471C291.409 178.489 291.19 184.523 291.189 188.75L291.194 232.008C291.196 235.886 291.382 241.808 290.812 245.472C289.427 254.118 284.668 261.861 277.582 267C271.874 271.164 263.762 273.829 256.622 273.044C253.793 272.733 251.172 270.971 249.526 268.653C247.891 266.325 247.254 263.441 247.757 260.64C248.7 255.321 253.262 251.778 258.475 251.839C260.634 251.863 263.127 250.957 264.894 249.711C267.354 248.004 269.033 245.387 269.56 242.437C269.916 240.391 269.779 234.495 269.779 232.023V183.186C269.778 181.769 269.819 179.927 269.661 178.542C269.45 176.681 268.764 174.906 267.671 173.385C265.791 170.744 263.101 169.167 259.927 168.634C258.874 168.491 257.389 168.476 256.357 168.734C244.762 171.625 233.317 175.821 221.648 178.359C212.483 180.328 203.138 181.331 193.764 181.352C184.131 181.34 174.527 180.291 165.118 178.222C153.697 175.621 142.509 171.657 131.184 168.752C125.212 167.219 118.176 172.314 117.684 178.451C117.415 181.81 117.529 185.52 117.532 188.955L117.533 230.469C117.533 234.129 117.441 238.223 117.66 241.785C117.927 246.112 121.943 250.556 126.126 251.463C129.869 252.273 132.198 251.332 135.742 254.193C137.937 255.956 139.339 258.522 139.639 261.323C139.933 264.335 139.206 267.042 137.258 269.39C135.479 271.537 132.917 272.883 130.141 273.129C122.382 273.788 113.576 270.391 107.717 265.384C101.33 259.923 96.8975 251.786 96.2564 243.368C95.9541 239.397 96.1193 234.008 96.1191 229.925L96.1185 188.005C96.1185 183.669 95.8914 177.89 96.6981 173.765C97.7708 168.172 100.281 162.956 103.982 158.629C110.327 151.283 118.121 147.884 127.613 147.161Z" fill="white"/>
<path d="M192.523 225.969C194.789 225.924 196.731 226.148 198.7 227.373C200.728 228.635 202.302 230.728 202.845 233.066C203.282 234.954 203.291 247.553 202.966 249.657C202.767 250.885 202.322 252.06 201.657 253.11C200.029 255.704 197.825 256.776 194.944 257.427C192.381 257.459 190.533 257.346 188.291 255.834C186.263 254.437 184.868 252.297 184.409 249.877C184.061 248.072 184.059 235.342 184.411 233.491C184.659 232.205 185.176 230.984 185.927 229.911C187.594 227.518 189.734 226.484 192.523 225.969Z" fill="white"/>
<path d="M160.893 241.842C166.043 241.518 170.485 245.423 170.827 250.575C171.169 255.726 167.282 260.184 162.134 260.545C156.959 260.907 152.475 256.994 152.132 251.816C151.788 246.638 155.716 242.167 160.893 241.842Z" fill="white"/>
<path d="M225.096 241.86C230.267 241.456 234.781 245.333 235.163 250.508C235.546 255.683 231.65 260.182 226.476 260.541C221.334 260.899 216.87 257.03 216.49 251.888C216.111 246.745 219.957 242.263 225.096 241.86Z" fill="white"/>
<path d="M224.789 217.417C229.954 216.84 234.599 220.581 235.138 225.75C235.678 230.92 231.906 235.54 226.734 236.042C221.617 236.539 217.056 232.811 216.522 227.695C215.988 222.579 219.68 217.989 224.789 217.417Z" fill="white"/>
<path d="M160.761 217.4C165.9 217.004 170.391 220.84 170.806 225.98C171.221 231.12 167.403 235.627 162.266 236.061C157.103 236.498 152.568 232.654 152.152 227.486C151.735 222.319 155.594 217.797 160.761 217.4Z" fill="white"/>
</svg>
