<svg width="388" height="420" viewBox="0 0 388 420" fill="none" xmlns="http://www.w3.org/2000/svg">
<path d="M160.157 220.946C161.039 224.382 160.329 226.804 159.779 227.99L159.772 228.01C164.103 237.024 164.248 245.585 164.248 245.585C164.248 245.585 173.143 238.473 182.522 227.953C174.515 227.571 166.606 224.987 160.157 220.946Z" fill="white"/>
<path d="M186.752 157.088C172.914 155.537 163.225 171.601 163.225 171.601C163.225 171.601 152.681 154.105 135.11 159.973C124.421 163.544 119.806 175.426 123.147 187.591C126.63 185.554 130.475 184.473 134.414 184.473C138.924 184.473 143.634 185.916 147.539 188.422C148.144 187.145 148.853 185.885 149.708 184.655C152.742 180.284 157.559 178.071 164.026 178.071C170.461 178.071 178.107 180.253 186.201 182.564C192.313 184.311 198.566 186.095 204.428 187.014C206.661 171.574 201.09 158.699 186.752 157.088Z" fill="white"/>
<path d="M202.221 326.364C200.508 331.834 192.708 334.26 184.796 331.787C176.88 329.31 171.853 322.871 173.562 317.402C175.272 311.932 183.076 309.506 190.988 311.979C198.9 314.456 203.931 320.895 202.221 326.364Z" fill="white"/>
<path d="M183.19 346.021C182.159 350.098 177.561 352.453 172.923 351.277C168.284 350.105 165.359 345.845 166.393 341.767C167.423 337.69 172.021 335.335 176.659 336.511C181.298 337.683 184.224 341.94 183.19 346.021Z" fill="white"/>
<path d="M153.498 225.091C153.498 225.091 154.765 222.351 150.008 216.706C147.069 213.22 152.177 201.257 145.677 195.635C141.66 192.166 133.066 188.645 125.039 194.601C119.593 198.645 119.539 208.071 125.846 214.395C138.735 227.314 153.498 225.091 153.498 225.091Z" fill="white"/>
<path d="M215.876 128.953C206.934 134 205.734 142.973 205.734 142.973C205.734 142.973 205.322 130.287 213.299 123.244C222.755 114.892 234.032 126.676 234.032 126.676C234.032 126.676 223.481 124.662 215.876 128.953ZM179.174 142.659C170.707 144.804 164.461 153.541 164.461 153.541C164.461 153.541 164.491 137.23 177.099 136.75C187.731 136.342 196.187 145.808 196.187 145.808C196.187 145.808 189.126 140.142 179.174 142.659ZM183.099 86.6287C147.464 92.3381 126.38 121.412 128.4 154.321C128.42 154.683 128.454 155.034 128.481 155.389C129.88 154.598 131.363 153.929 132.92 153.412C136.018 152.375 139.153 151.852 142.234 151.852C151.461 151.852 158.491 156.436 163.052 160.73C167.829 155.75 175.363 150.064 184.863 150.064C185.748 150.064 186.64 150.115 187.522 150.213C195.285 151.085 201.657 154.646 205.954 160.507C210.947 167.325 212.805 176.869 211.315 187.635C211.451 187.639 211.586 187.642 211.717 187.642C212.788 187.642 213.815 187.592 214.775 187.49C222.859 186.639 232.035 179.392 232.086 179.315L246.592 167.575C242.734 172.379 228.194 189.7 215.501 194.372C196.525 201.359 163.309 177.19 155.393 188.598C144.241 204.666 164.839 220.169 184.761 221.092C200.815 221.835 216.579 217.014 228.403 211.963C223.863 216.723 212.63 225.835 191.903 227.673L190.005 229.902C179.552 242.166 169.008 250.636 168.565 250.99L157.559 259.815L157.329 245.727C157.329 245.649 157.113 239.065 153.984 232C153.511 232.051 152.761 232.115 151.785 232.142C152.184 234.44 152.542 236.821 152.846 239.305C156.393 268.007 141.751 267.578 143.68 294.906C144.765 310.294 161.677 326.994 161.677 326.994C161.677 326.994 155.94 314.673 176.815 297.859C202.018 277.558 252.42 249.436 267.839 213.784C292.407 156.984 267.839 73.0577 183.099 86.6287Z" fill="white"/>
</svg>
