<svg width="388" height="420" viewBox="0 0 388 420" fill="none" xmlns="http://www.w3.org/2000/svg">
<path d="M142.61 88.7268C140.66 88.6337 137.518 89.82 134.577 91.4744C134.572 91.4775 134.567 91.4799 134.562 91.4827C133.655 91.9933 132.77 92.5464 131.944 93.1226C98.813 113.627 76.6719 150.228 76.6719 192.016C76.6719 251.992 122.181 301.417 180.517 307.643C182.119 320.671 192.076 343.603 197.559 343.603C203.244 343.603 213.736 318.957 214.742 306.25C226.548 303.984 237.719 299.92 247.983 294.386C252.576 292.238 257.486 288.494 257.486 286.163C257.486 282.333 244.216 274.672 240.899 276.587C238.708 277.852 237.966 284.962 238.669 290.198C224.781 296.674 209.32 300.347 192.972 300.347C133.094 300.347 84.6415 251.895 84.6415 192.016C84.6415 155.267 102.935 122.879 130.879 103.298C135.062 106.527 141.596 109.442 143.788 108.177C147.105 106.261 147.105 90.9391 143.788 89.0239C143.477 88.8443 143.077 88.7491 142.61 88.7268ZM193.536 99.3799C181.095 99.2921 168.508 101.707 156.551 106.834C155.052 107.476 153.564 108.161 152.086 108.889C150.61 109.617 149.145 110.385 147.693 111.199C147.693 111.198 147.692 111.199 147.693 111.199C147.345 111.394 146.989 111.57 146.643 111.77C146.298 111.969 145.97 112.186 145.628 112.389C144.196 113.241 142.797 114.127 141.427 115.043C140.058 115.958 138.721 116.906 137.415 117.883C101.457 144.777 89.725 194.288 110.744 234.71C112.134 234.535 113.464 234.374 115.227 234.139C115.853 234.056 116.591 233.939 117.273 233.84C109.93 220.558 106.42 206.172 106.438 191.966C113.913 194.027 121.747 195.213 129.828 195.415C129.722 194.902 129.615 194.389 129.512 193.876C129.41 193.362 129.312 192.848 129.223 192.332C121.362 192.079 113.749 190.866 106.49 188.801C106.841 179.535 108.684 170.397 111.912 161.745C115.121 162.129 118.367 162.395 121.679 162.395C124.05 162.395 126.389 162.271 128.709 162.073C127.402 172.096 127.497 182.307 129.223 192.332C129.401 193.363 129.616 194.389 129.828 195.415C131.762 204.779 135.083 213.942 140.062 222.565C141.121 224.4 142.258 226.165 143.428 227.897C144.48 227.704 145.435 227.199 146.271 226.645C144.761 224.508 144.045 223.336 142.715 221.032C138.022 212.904 134.82 204.281 132.932 195.459C142.102 195.4 150.963 194.056 159.365 191.622C161.638 196.81 164.215 201.927 167.113 206.946C169.045 210.293 171.096 213.527 173.235 216.672C174.191 216.262 175.137 215.833 176.087 215.412C173.874 212.185 171.754 208.861 169.764 205.415C166.984 200.6 164.521 195.692 162.328 190.719C179.135 185.259 193.925 175.343 205.323 162.364C209.231 167.482 212.874 172.891 216.18 178.618C217.678 181.212 219.08 183.835 220.407 186.478C221.177 185.735 221.941 184.983 222.699 184.226C221.476 181.827 220.199 179.442 218.837 177.082C215.354 171.05 211.505 165.363 207.368 159.992C212.916 153.249 217.554 145.736 221.141 137.653C229.579 144.283 236.921 152.424 242.635 162.025C243.328 161.199 244.023 160.379 244.716 159.549C238.733 149.772 231.094 141.514 222.366 134.775C225.159 127.889 227.207 120.62 228.36 113.055C239.371 117.98 249.428 125.227 257.717 134.588C258.179 132.909 258.644 131.11 259.196 128.788C259.222 128.628 259.371 127.918 259.446 127.502C241.956 109.474 218.039 99.5529 193.536 99.3799ZM192.719 105.464C193.886 105.462 195.052 105.491 196.216 105.536C194.746 109.958 192.947 114.231 190.752 118.265C180.101 114.84 168.959 113.028 157.907 112.91C169.146 107.909 180.994 105.493 192.719 105.464ZM199.417 105.725C208.358 106.398 217.138 108.456 225.435 111.809C224.382 119.135 222.477 126.181 219.84 132.859C211.818 127.072 202.958 122.551 193.668 119.272C195.975 114.973 197.901 110.441 199.417 105.725ZM158.046 115.937C168.474 116.088 179.004 117.798 189.104 120.978C186.577 125.206 183.675 129.169 180.424 132.833C172.025 126.264 163.03 120.616 153.584 115.968C155.068 115.926 156.556 115.916 158.046 115.937ZM150.05 117.669C160.035 122.388 169.54 128.217 178.365 135.098C170.811 142.976 161.658 149.287 151.39 153.483C149.513 141.551 149.073 129.53 150.05 117.669ZM146.812 119.874C146.047 131.377 146.586 143.012 148.45 154.559C143.292 156.429 137.917 157.838 132.32 158.595C134.633 144.821 139.626 131.536 146.812 119.874ZM192.096 121.919C201.545 125.202 210.52 129.869 218.624 135.813C215.211 143.661 210.762 150.951 205.444 157.512C198.627 149.025 191.022 141.425 182.808 134.733C186.302 130.78 189.412 126.497 192.096 121.919ZM142.001 122.093C135.63 133.404 131.196 145.988 129.119 158.972C126.669 159.202 124.189 159.332 121.679 159.332C118.759 159.332 115.887 159.137 113.05 158.827C118.984 144.519 128.785 131.698 142.001 122.093ZM268.075 123.108C267.558 123.101 267.022 123.281 266.666 123.879C266.159 124.732 264.613 139.335 256.056 153.972C254.701 156.516 259.003 161.052 260.939 164.605C260.939 164.605 268.84 176.594 271.069 176.722C274.64 176.927 285.877 156.838 285.41 141.214C284.752 138.942 275.517 128.151 269.364 123.452C269.089 123.306 268.592 123.114 268.075 123.108ZM180.735 137.014C188.984 143.719 196.608 151.358 203.421 159.909C192.274 172.767 177.709 182.572 161.122 187.9C156.857 177.673 153.782 167.181 151.888 156.594C162.898 152.202 172.691 145.454 180.735 137.014ZM274.06 142.341C274.505 142.281 277.491 148.744 277.616 151.746C276.704 152.845 269.223 155.42 268.533 155.002C268.298 153.84 267.796 153.074 268.029 152.797C268.551 152.176 272.095 150.754 274.225 150.226C273.58 148.238 272.192 143.678 272.235 143.169C272.276 142.676 273.615 142.402 274.06 142.341ZM148.985 157.696C150.906 168.207 153.962 178.622 158.175 188.782C149.976 191.121 141.33 192.4 132.38 192.408C130.563 182.254 130.434 171.895 131.824 161.745C137.765 161.007 143.51 159.64 148.985 157.696ZM252.158 160.993C251.473 161.017 250.785 161.339 250.288 161.921C240.629 173.515 230.855 185.105 219.572 195.174C217.146 197.416 214.474 199.395 212.232 201.831C211.122 203.647 211.681 206.086 213.084 207.581C216.791 212.798 220.509 218.007 224.239 223.208C225.863 224.467 228.334 224.015 229.697 222.577C239.102 214.667 247.88 207.107 256.023 197.899C259.538 193.967 263.072 188.972 266.373 184.862C267.679 182.701 266.76 180.347 265.433 177.976C261.658 172.577 258.132 166.99 254.013 161.849C253.526 161.242 252.844 160.969 252.158 160.993ZM283.22 171.032C282.973 171.44 282.736 171.852 282.473 172.251C282.358 172.424 282.233 172.591 282.1 172.751C281.852 173.049 280.624 175.076 279.27 177.054C279.003 177.444 278.708 177.844 278.403 178.245C279.78 186.81 279.856 195.458 278.678 203.905C272.262 215.353 264.188 225.736 254.782 234.749C257.376 224.56 258.512 213.977 258.001 203.44C257.017 204.517 256.04 205.6 255.038 206.659C255.227 217.49 253.652 228.325 250.538 238.646C246.97 241.779 243.233 244.721 239.34 247.459C239.014 239.717 238.094 231.964 236.576 224.265C235.682 225.039 234.804 225.833 233.901 226.596C235.308 234.212 236.118 241.876 236.341 249.524C231.451 252.766 226.341 255.703 221.022 258.281C214.895 254.497 209.019 250.247 203.437 245.568C202.431 246.062 201.422 246.546 200.411 247.023C205.895 251.708 211.665 255.981 217.682 259.808C213.27 261.797 208.736 263.559 204.082 265.061C195.617 263.032 187.376 259.957 179.638 255.897C178.466 256.361 177.291 256.845 176.122 257.303C176.057 257.334 175.985 257.349 175.92 257.379C183.047 261.349 190.627 264.482 198.448 266.733C187.316 269.781 175.61 271.441 163.509 271.441C161.772 271.441 160.051 271.377 158.33 271.31C154.756 269.751 151.287 267.933 147.936 265.895C147.213 266.088 146.183 266.378 145.774 266.483C144.833 266.723 142.374 267.365 139.948 267.979C165.637 285.862 199.474 290.022 229.394 277.194C230.89 276.552 232.376 275.87 233.85 275.143C233.854 275.141 233.856 275.141 233.86 275.139C233.861 275.138 233.863 275.137 233.865 275.137C235.338 274.41 236.801 273.643 238.25 272.831C238.253 272.829 238.256 272.828 238.259 272.826C238.604 272.632 238.956 272.457 239.3 272.259C239.646 272.059 239.975 271.842 240.317 271.638C240.322 271.635 240.327 271.63 240.332 271.627C241.756 270.781 243.147 269.901 244.509 268.991C244.511 268.989 244.514 268.988 244.517 268.986C244.523 268.982 244.529 268.977 244.535 268.973C245.897 268.062 247.226 267.119 248.526 266.147C248.527 266.147 248.528 266.146 248.529 266.145C278.245 243.92 291.402 206.254 283.22 171.032ZM245.212 184.787C245.935 184.801 246.671 185.132 247.141 185.835C247.237 186.285 245.653 194.13 244.817 198.03C241.455 199.561 236.398 199.841 232.528 200.299C231.372 199.92 231.503 196.356 232.543 196.363C234.682 195.698 240.513 195.579 240.782 194.873C241.519 194.194 243.003 187.203 243.357 185.643C243.777 185.077 244.488 184.773 245.212 184.787ZM205.481 206.876C204.61 206.946 203.565 207.561 201.898 208.564C179.481 222.266 157.096 228.796 153.393 231.119C152.149 231.88 154.053 234.152 154.899 235.495C158.762 240.813 166.074 251.067 167.224 252.098C169.302 253.77 171.535 253.182 173.838 251.976C187.72 246.548 201.568 240.809 214.345 233.062C216.327 231.873 218.266 230.601 220.061 229.141C221.035 227.603 220.468 225.527 219.248 224.301C215.521 219.007 211.805 213.705 208.023 208.451C207.052 207.278 206.353 206.805 205.481 206.876ZM277.024 212.547C272.296 231.882 260.954 249.572 243.944 261.935C247.768 255.147 250.855 247.887 253.196 240.372C262.341 232.236 270.361 222.874 277.024 212.547ZM193.56 224.454C194.769 224.325 196.075 224.998 196.55 226.146C195.331 229.333 193.739 232.358 192.152 235.373C190.543 236.484 188.483 236.161 186.671 235.891L178.598 234.717C177.27 234.172 176.739 231.96 178.107 231.153C181.231 231.31 184.344 231.629 187.452 231.97C188.147 232.306 189.067 231.776 189.147 231.014L192.418 224.862C192.765 224.629 193.157 224.497 193.56 224.454ZM147.076 232.996C146.617 232.976 146.097 233.11 145.391 233.189C143.98 233.347 123.038 238.331 110.27 239.77C104.543 241.318 124.678 264.355 126.593 264.664C128.373 264.951 149.472 260.492 159.727 256.689C162.761 255.564 162.427 254.559 160.565 251.283C156.753 245.811 152.241 239.181 148.392 233.736C147.931 233.194 147.534 233.017 147.076 232.996ZM248.683 244.223C246.158 251.206 242.976 257.916 239.137 264.147C239.424 259.824 239.507 255.481 239.429 251.132C242.615 248.961 245.7 246.652 248.683 244.223ZM138.261 245.017C139.467 244.851 141.171 245.871 141.221 246.325C141.268 246.753 137.945 252.456 137.519 252.988C137.079 253.536 136.483 254.057 135.177 253.663C130.53 252.095 126.648 250.238 126.535 249.739C126.42 249.237 127.33 247.941 127.712 247.697C128.197 247.388 134.118 250.007 134.811 249.842C135.485 249.682 137.219 247.517 138.261 245.017ZM236.382 253.117C236.405 257.545 236.258 261.964 235.896 266.359C231.886 264.465 227.965 262.37 224.122 260.122C228.341 257.997 232.43 255.657 236.382 253.117ZM220.832 261.734C224.596 264.003 228.437 266.128 232.365 268.06C224.923 268.273 217.392 267.65 209.96 266.297C213.667 264.939 217.285 263.4 220.832 261.734ZM204.235 268.236C212.074 270.042 220.079 271.033 228.039 271.118C208.1 279.991 186.24 280.726 166.562 274.426C179.662 274.135 192.309 272.007 204.235 268.236Z" fill="white"/>
</svg>
