<svg width="388" height="420" viewBox="0 0 388 420" fill="none" xmlns="http://www.w3.org/2000/svg">
<g clip-path="url(#clip0_2052_638)">
<path d="M193.312 58.9717L175.368 77.0594L189.871 91.6745L138.465 143.486L112.548 117.367C112.439 117.257 112.304 117.169 112.157 117.107C112.01 117.044 111.851 117.013 111.695 117.013C111.538 117.013 111.382 117.043 111.231 117.107L111.2 117.116L111.182 117.124L111.173 117.129L111.11 117.165L111.15 117.147C111.033 117.207 110.928 117.286 110.845 117.372C110.623 117.598 110.499 117.903 110.499 118.216C110.499 118.532 110.622 118.835 110.841 119.06H110.845L136.771 145.192L133.905 148.094L92.384 106.241C92.0969 105.952 91.7033 105.788 91.2931 105.788C90.8827 105.788 90.4902 105.955 90.2021 106.246C89.9156 106.535 89.7564 106.924 89.7564 107.333C89.7564 107.742 89.9139 108.138 90.2021 108.429L131.731 150.283L128.861 153.17L102.944 127.047C102.719 126.823 102.412 126.696 102.096 126.696C101.78 126.696 101.474 126.825 101.251 127.047C101.176 127.122 101.119 127.199 101.081 127.258L101.067 127.281L101.053 127.307C101.035 127.341 101.019 127.366 101.008 127.388L100.995 127.424L100.981 127.455C100.94 127.563 100.892 127.711 100.892 127.9C100.892 128.039 100.926 128.204 100.995 128.363C101.061 128.522 101.15 128.649 101.251 128.75H101.246L127.163 154.882L72.3198 210.164L127.163 265.448L101.238 291.576L101.251 291.567C101.17 291.644 101.155 291.673 101.165 291.66L101.157 291.67L101.147 291.679C101.078 291.768 101.031 291.857 100.995 291.931L100.986 291.958L100.973 291.981C100.93 292.092 100.887 292.237 100.887 292.426C100.887 292.564 100.916 292.727 100.986 292.888C101.052 293.049 101.142 293.18 101.241 293.279C101.468 293.507 101.773 293.629 102.091 293.629C102.408 293.629 102.715 293.504 102.94 293.279L128.857 267.151L131.731 270.044L90.2009 311.901V311.906C89.9154 312.197 89.7564 312.587 89.7564 312.993C89.7564 313.399 89.9137 313.789 90.1961 314.079L90.201 314.084L90.2058 314.089C90.4948 314.377 90.885 314.538 91.2932 314.538C91.7016 314.538 92.0951 314.377 92.3842 314.089V314.084L133.905 272.235L136.771 275.128L110.85 301.255C110.625 301.484 110.504 301.791 110.504 302.104C110.504 302.419 110.624 302.723 110.845 302.949H110.85L110.855 302.954C111.077 303.176 111.379 303.304 111.695 303.308H111.7C111.84 303.308 112.002 303.282 112.162 303.214C112.316 303.15 112.448 303.058 112.558 302.944L138.465 276.839L189.872 328.659L175.369 343.266L193.318 361.354L211.262 343.266L196.758 328.651L248.164 276.839L274.086 302.962C274.159 303.035 274.225 303.082 274.283 303.12L274.293 303.129L274.316 303.143L274.329 303.148L274.339 303.157C274.357 303.168 274.37 303.173 274.383 303.18C274.403 303.194 274.387 303.179 274.406 303.189C274.427 303.2 274.446 303.213 274.487 303.229C274.487 303.228 274.538 303.248 274.523 303.243L274.536 303.248L274.55 303.252C274.691 303.3 274.808 303.315 274.933 303.315H274.937H274.942C275.254 303.311 275.553 303.185 275.774 302.97L275.783 302.96L275.792 302.956C276.009 302.731 276.133 302.425 276.133 302.112C276.133 301.793 276.008 301.493 275.797 301.272L275.788 301.267L249.863 275.13L252.728 272.238L294.249 314.087C294.538 314.376 294.932 314.541 295.34 314.541C295.748 314.541 296.138 314.375 296.427 314.087H296.432L296.436 314.082C296.721 313.79 296.876 313.402 296.876 312.996C296.876 312.59 296.716 312.194 296.432 311.904L254.898 270.043L257.768 267.15L283.685 293.274C283.805 293.396 283.945 293.475 284.071 293.53L284.075 293.534H284.08C284.219 293.591 284.369 293.625 284.534 293.625C284.849 293.625 285.155 293.499 285.379 293.279C285.502 293.158 285.587 293.025 285.644 292.892L285.649 292.879V292.869C285.707 292.72 285.733 292.573 285.733 292.425C285.733 292.281 285.707 292.131 285.649 291.981C285.581 291.804 285.482 291.676 285.384 291.576H285.388L259.469 265.448L314.313 210.164L259.469 154.882L285.391 128.75L285.338 128.798C285.421 128.73 285.466 128.663 285.485 128.637C285.556 128.547 285.616 128.448 285.656 128.341V128.331C285.696 128.226 285.742 128.086 285.742 127.9C285.742 127.763 285.711 127.596 285.638 127.433C285.573 127.277 285.488 127.148 285.386 127.047C285.162 126.824 284.858 126.696 284.541 126.696C284.226 126.696 283.918 126.823 283.693 127.047L257.768 153.17L254.898 150.283L296.427 108.429C296.716 108.138 296.876 107.742 296.876 107.333C296.876 106.924 296.714 106.535 296.427 106.246C296.139 105.956 295.746 105.788 295.336 105.788C295.142 105.788 294.957 105.824 294.783 105.892C294.585 105.968 294.399 106.088 294.244 106.246L252.723 148.095L249.853 145.197L275.788 119.065L275.797 119.056C275.869 118.978 275.939 118.886 275.999 118.768L276.008 118.742L276.022 118.719C276.027 118.706 276.082 118.614 276.108 118.422C276.109 118.415 276.126 118.348 276.126 118.225C276.126 117.906 276.001 117.606 275.784 117.38V117.377H275.779C275.664 117.26 275.53 117.171 275.392 117.112V117.116C275.243 117.053 275.081 117.017 274.925 117.017C274.767 117.017 274.613 117.051 274.467 117.112H274.462V117.117C274.322 117.176 274.189 117.262 274.076 117.377L248.164 143.486L196.757 91.6745L211.26 77.0594L193.312 58.9717ZM193.316 65.7718L204.518 77.0594L193.316 88.3505L182.114 77.0594L193.316 65.7718ZM193.245 95.071L193.316 95.1423L193.384 95.0746L249.355 151.49L247.886 152.968L193.231 97.8781L138.657 152.888L137.256 151.472L193.245 95.071ZM193.236 102.266L245.716 155.16L237.053 163.892L239.231 166.071L247.894 157.343L300.299 210.164L247.886 262.978L239.231 254.255L237.053 256.433L245.721 265.174L216.62 294.491L193.235 318.045L169.852 294.491L140.836 265.25L149.581 256.438L147.398 254.25L138.657 263.059L86.1864 210.164L138.657 157.267L147.398 166.074L149.581 163.892L140.836 155.074L193.236 102.266ZM135.105 153.678L136.492 155.074L81.8333 210.164L136.492 265.25L135.086 266.665L79.0619 210.164L135.105 153.678ZM251.524 153.678L307.566 210.164L251.528 266.648L250.06 265.166L304.62 210.164L250.06 155.16L251.524 153.678ZM204.455 175.507C202.365 175.507 200.604 176.166 199.174 177.487C197.744 178.807 197.029 180.512 197.029 182.603V237.724C197.029 239.814 197.744 241.52 199.174 242.84C200.604 244.16 202.365 244.82 204.455 244.82C206.656 244.82 208.415 244.16 209.735 242.84C211.166 241.52 211.882 239.814 211.882 237.724V226.006C211.882 224.356 212.046 222.981 212.376 221.881C212.706 220.781 213.476 219.625 214.686 218.414L216.007 217.094L236.471 242.179C238.232 243.94 240.157 244.82 242.247 244.82C244.227 244.82 245.988 244.105 247.528 242.675C249.069 241.134 249.839 239.374 249.839 237.393C249.839 236.513 249.728 235.633 249.508 234.753C249.288 233.873 248.793 233.047 248.023 232.277L226.074 207.192L245.712 187.554C247.143 186.123 247.859 184.528 247.859 182.768C247.859 180.787 247.087 179.082 245.547 177.652C244.007 176.221 242.192 175.507 240.102 175.507C238.121 175.507 236.25 176.387 234.49 178.147L215.182 198.776C214.522 199.546 213.916 199.931 213.366 199.931C212.376 199.931 211.882 198.996 211.882 197.125V182.603C211.882 180.512 211.166 178.807 209.735 177.487C208.415 176.166 206.656 175.507 204.455 175.507ZM144.218 176.331C142.128 176.331 140.367 176.992 138.937 178.313C137.506 179.523 136.792 181.173 136.792 183.263C136.792 185.244 137.506 186.894 138.937 188.214C140.367 189.425 142.128 190.029 144.218 190.029H165.507C167.158 190.029 167.983 190.635 167.983 191.845C167.983 192.505 167.872 193.054 167.652 193.495L146.859 234.918C146.419 235.798 146.198 236.789 146.198 237.889C146.198 239.979 146.969 241.685 148.509 243.005C150.16 244.215 151.919 244.82 153.79 244.82C155.11 244.82 156.375 244.435 157.585 243.665C158.906 242.895 159.896 241.684 160.556 240.034L184.156 192.505C185.036 190.194 185.476 188.104 185.476 186.233C185.476 183.153 184.486 180.732 182.505 178.972C180.525 177.212 177.885 176.331 174.584 176.331H144.218ZM247.894 267.352L249.363 268.826L193.394 325.241L193.316 325.165L193.24 325.246L137.274 268.835L138.68 267.42L193.235 322.438L247.894 267.352ZM193.316 331.974L204.518 343.266L193.316 354.554L182.114 343.266L193.316 331.974Z" fill="white"/>
</g>
<defs>
<clipPath id="clip0_2052_638">
<rect width="304.235" height="304.235" fill="white" transform="translate(41.199 58.0449)"/>
</clipPath>
</defs>
</svg>
