<svg width="388" height="420" viewBox="0 0 388 420" fill="none" xmlns="http://www.w3.org/2000/svg">
<path fill-rule="evenodd" clip-rule="evenodd" d="M228.867 144.877H263.751V153.648H281.193V162.42H316.077V171.191H263.751V179.963H255.03V188.734H263.751V197.506H289.914V206.277H255.03V215.049H263.751V223.82H246.309V241.363H255.03V258.906H263.751V267.678H281.193V276.449H298.635V285.221H237.588V276.449H228.867V267.678H220.146V285.221H211.425V250.135H220.146V241.363H159.098V267.678H176.54V285.221H159.098V276.449H150.377V285.221H115.493V276.449H132.935V250.135H141.656V267.678H150.377V250.135H141.656V241.363H124.214V232.592H115.493V188.734H98.0513V171.191H124.214V162.42H132.935V153.648H141.656V144.877H159.098V136.105H228.867V144.877ZM132.935 215.049H150.377V201.892H132.935V215.049ZM193.983 215.049H211.425V201.892H193.983V215.049Z" fill="white"/>
<path d="M202.704 285.221H185.261V267.678H202.704V285.221Z" fill="white"/>
<path d="M307.356 197.506H289.914V188.734H307.356V197.506Z" fill="white"/>
<path d="M98.0513 171.191H80.6093V162.42H98.0513V171.191Z" fill="white"/>
<path d="M80.6093 162.42H71.8883V153.648H80.6093V162.42Z" fill="white"/>
</svg>
