<svg width="388" height="420" viewBox="0 0 388 420" fill="none" xmlns="http://www.w3.org/2000/svg">
<g clip-path="url(#clip0_2011_63164)">
<path d="M193.74 23.7842C204.774 23.7842 215.27 26.1896 222.537 30.3855L334.885 95.2504C350.226 104.109 363.686 127.419 363.686 145.136V274.865C363.686 292.581 350.226 315.892 334.885 324.75L222.537 389.615C215.27 393.811 204.774 396.217 193.736 396.217C182.699 396.217 172.203 393.811 164.936 389.615L52.5844 324.75C37.2432 315.892 23.7837 292.581 23.7837 274.865V145.136C23.7837 127.419 37.2432 104.109 52.5844 95.2504L164.936 30.3855C172.203 26.1896 182.699 23.7842 193.74 23.7842Z" fill="#FFCC22"/>
<g opacity="0.2">
<mask id="mask0_2011_63164" style="mask-type:alpha" maskUnits="userSpaceOnUse" x="23" y="23" width="341" height="374">
<path d="M193.74 23.7842C204.774 23.7842 215.27 26.1896 222.537 30.3855L334.885 95.2504C350.226 104.109 363.686 127.419 363.686 145.136V274.865C363.686 292.581 350.226 315.892 334.885 324.75L222.537 389.615C215.27 393.811 204.774 396.217 193.736 396.217C182.699 396.217 172.203 393.811 164.936 389.615L52.5844 324.75C37.2432 315.892 23.7837 292.581 23.7837 274.865V145.136C23.7837 127.419 37.2432 104.109 52.5844 95.2504L164.936 30.3855C172.203 26.1896 182.699 23.7842 193.74 23.7842Z" fill="white"/>
</mask>
<g mask="url(#mask0_2011_63164)">
<path d="M-591.355 378.818L-230.055 -246.956L131.222 378.818H-591.355Z" fill="#808184"/>
<path d="M-230.068 219.703L131.236 -406.071L492.509 219.703H-230.068Z" fill="#221F1F"/>
<path d="M-154.548 778.541L206.756 152.767L568.03 778.541H-154.548Z" fill="#59595C"/>
<path d="M155.394 189.335L292.597 -48.3074L429.793 189.335H155.394Z" fill="#59595C"/>
<path d="M51.7361 430.399L188.942 192.76L326.138 430.399H51.7361Z" fill="#221F1F"/>
<path d="M55.0295 328.153L192.232 90.5106L329.425 328.153H55.0295Z" fill="#59595C"/>
<path d="M292.486 262.483L360.314 145.004L428.134 262.483H292.486Z" fill="#221F1F"/>
<path d="M74.5266 207.781L108.442 149.048L142.351 207.781H74.5266Z" fill="#808184"/>
<path d="M123.286 336.477L191.111 218.997L258.932 336.477H123.286Z" fill="#D1D2D3"/>
<path d="M305.857 277.733L339.773 218.997L373.682 277.733H305.857Z" fill="#A7A8AB"/>
<path d="M14.7932 125.355L82.6209 7.87177L150.442 125.355H14.7932Z" fill="#A7A8AB"/>
<path d="M6.2832 250.125L32.1312 205.355L57.9825 250.125H6.2832Z" fill="#59595C"/>
<path d="M348.607 163.487L374.455 118.717L400.303 163.487H348.607Z" fill="#A7A8AB"/>
<path d="M135.526 272.51L161.374 227.737L187.218 272.51H135.526Z" fill="#A7A8AB"/>
<path d="M322.759 374.307L348.611 329.537L374.455 374.307H322.759Z" fill="#59595C"/>
<path d="M118.885 186.899L144.736 142.129L170.58 186.899H118.885Z" fill="#59595C"/>
<path d="M152.502 67.1116L165.425 44.7265L178.347 67.1116H152.502Z" fill="#59595C"/>
<path d="M83.8269 374.307L109.678 329.537L135.526 374.307H83.8269Z" fill="#221F1F"/>
<path d="M244.688 141.105L270.54 96.3312L296.384 141.105H244.688Z" fill="#D1D2D3"/>
</g>
</g>
<path fill-rule="evenodd" clip-rule="evenodd" d="M193.737 420C178.429 420 163.976 416.524 153.044 410.213L40.6926 345.348C18.2568 332.392 0 300.774 0 274.865V145.135C0 119.226 18.2568 87.6081 40.6926 74.652L153.044 9.78716C163.976 3.47635 178.426 0 193.737 0C209.044 0 223.497 3.47635 234.429 9.78716L346.777 74.652C369.216 87.6081 387.47 119.226 387.47 145.135V274.865C387.47 300.774 369.216 332.392 346.777 345.348L234.429 410.213C223.497 416.524 209.044 420 193.737 420ZM168.179 36.0034C174.49 32.3615 183.804 30.2703 193.74 30.2703C203.669 30.2703 212.983 32.3581 219.294 36.0034L331.642 100.868C345.017 108.591 357.199 129.689 357.199 145.135V274.865C357.199 290.311 345.017 311.409 331.642 319.132L219.294 383.997C212.983 387.642 203.669 389.73 193.737 389.73C183.804 389.73 174.49 387.642 168.179 383.997L55.8277 319.132C42.4527 311.409 30.2703 290.311 30.2703 274.865V145.135C30.2703 129.689 42.4527 108.591 55.8277 100.868L168.179 36.0034Z" fill="white"/>
</g>
<defs>
<clipPath id="clip0_2011_63164">
<rect width="387.47" height="420" fill="white"/>
</clipPath>
</defs>
</svg>
