<svg width="388" height="420" viewBox="0 0 388 420" fill="none" xmlns="http://www.w3.org/2000/svg">
<path d="M193.732 78.958C203.961 78.9583 212.254 95.5438 212.254 116.003C212.254 116.583 212.968 116.879 213.378 116.469C227.845 102.002 245.437 96.1377 252.67 103.371C259.904 110.605 254.04 128.196 239.573 142.663C239.163 143.073 239.459 143.787 240.039 143.787C260.498 143.787 277.083 152.08 277.083 162.31C277.083 172.539 260.498 180.832 240.039 180.832C239.458 180.832 239.162 181.545 239.573 181.956C254.039 196.423 259.904 214.015 252.67 221.248C245.437 228.481 227.845 222.617 213.378 208.15C212.968 207.74 212.254 208.035 212.254 208.615C212.254 229.074 203.962 245.66 193.732 245.66C183.502 245.66 175.209 229.075 175.209 208.615C175.209 208.036 174.495 207.74 174.085 208.149C159.618 222.616 142.027 228.481 134.793 221.247C127.56 214.014 133.424 196.422 147.891 181.955C148.301 181.545 148.005 180.832 147.425 180.832C126.966 180.832 110.381 172.539 110.38 162.31C110.38 152.08 126.966 143.787 147.425 143.787C148.005 143.787 148.301 143.073 147.891 142.663C133.424 128.196 127.56 110.605 134.793 103.371C142.027 96.1377 159.618 102.002 174.085 116.469C174.495 116.878 175.209 116.582 175.209 116.003C175.21 95.5436 183.502 78.9581 193.732 78.958ZM193.732 86.3672C192.935 86.3672 190.219 87.2061 187.261 93.1221C184.525 98.5951 182.619 106.674 182.619 116.003C182.619 117.384 182.661 118.738 182.741 120.06C182.906 122.77 181.196 125.283 178.674 126.287C176.22 127.263 173.384 126.647 171.634 124.67C170.755 123.676 169.825 122.686 168.846 121.707C162.25 115.111 155.189 110.746 149.384 108.811C143.109 106.719 140.596 108.047 140.033 108.61C139.469 109.174 138.142 111.687 140.233 117.961C142.168 123.766 146.534 130.827 153.13 137.424C153.803 138.096 154.48 138.745 155.16 139.37C157.317 141.354 157.882 144.555 156.663 147.219C155.525 149.707 152.995 151.371 150.261 151.256C149.33 151.217 148.384 151.196 147.425 151.196C138.096 151.196 130.016 153.102 124.543 155.839C118.628 158.797 117.79 161.513 117.79 162.31C117.79 163.107 118.628 165.823 124.543 168.78C130.016 171.517 138.096 173.423 147.425 173.423C147.754 173.423 148.081 173.42 148.407 173.416C151.587 173.37 154.451 175.492 155.568 178.47C156.611 181.249 155.98 184.417 153.849 186.485C153.609 186.719 153.369 186.955 153.129 187.194C146.533 193.791 142.168 200.852 140.233 206.657C138.142 212.932 139.469 215.444 140.033 216.008C140.596 216.571 143.109 217.899 149.383 215.808C155.188 213.873 162.25 209.508 168.846 202.911C171.041 200.716 174.434 200.194 177.273 201.449C177.488 201.543 177.704 201.636 177.92 201.728C180.698 202.898 182.619 205.601 182.619 208.615C182.619 217.944 184.525 226.024 187.261 231.497C190.219 237.413 192.935 238.251 193.732 238.251C194.529 238.251 197.245 237.412 200.203 231.497C202.939 226.024 204.845 217.944 204.845 208.615C204.845 205.601 206.764 202.898 209.542 201.728C209.758 201.636 209.974 201.544 210.188 201.449C213.028 200.194 216.421 200.716 218.617 202.911C225.213 209.507 232.274 213.872 238.079 215.808C244.354 217.899 246.868 216.572 247.431 216.009C247.995 215.445 249.322 212.931 247.23 206.656C245.295 200.851 240.93 193.791 234.333 187.194C234.094 186.955 233.855 186.719 233.615 186.486C231.483 184.418 230.851 181.25 231.895 178.47C233.012 175.492 235.876 173.369 239.056 173.416C239.382 173.42 239.71 173.423 240.039 173.423C249.367 173.423 257.446 171.517 262.919 168.78C268.835 165.823 269.674 163.107 269.674 162.31C269.674 161.513 268.835 158.797 262.919 155.839C257.446 153.103 249.367 151.196 240.039 151.196C239.079 151.196 238.133 151.217 237.201 151.256C234.468 151.371 231.938 149.707 230.8 147.22C229.58 144.555 230.146 141.354 232.303 139.371C232.984 138.745 233.661 138.096 234.333 137.424C240.93 130.827 245.295 123.767 247.23 117.962C249.321 111.688 247.995 109.174 247.431 108.61C246.868 108.047 244.354 106.72 238.079 108.812C232.274 110.747 225.213 115.111 218.617 121.707C217.638 122.686 216.708 123.676 215.828 124.67C214.078 126.646 211.242 127.262 208.789 126.286C206.266 125.283 204.557 122.769 204.722 120.06C204.803 118.738 204.845 117.384 204.845 116.003C204.845 106.674 202.939 98.5951 200.203 93.1221C197.245 87.2065 194.529 86.3674 193.732 86.3672Z" fill="white"/>
<circle cx="193.732" cy="164.162" r="33.3405" stroke="white" stroke-width="7.40901"/>
<path d="M127.945 260.783C134.179 256.02 142.989 255.6 149.239 260.62L149.535 260.864L149.901 261.181C157.356 267.818 157.758 279.291 151.111 286.454L150.784 286.797L127.251 310.807C125.476 312.617 122.59 312.617 120.815 310.807L97.2812 286.797V286.796C90.1739 279.548 90.5891 267.551 98.5186 260.864L99.0146 260.462C104.187 256.438 111.046 256.069 116.752 258.748C119.014 259.809 119.092 262.657 117.467 264.261C116.151 265.56 114.181 265.649 112.595 265.082C109.368 263.927 105.86 264.462 103.395 266.537C98.823 270.394 98.5606 277.408 102.681 281.609H102.682L124.032 303.392L145.383 281.61C149.494 277.408 149.23 270.396 144.659 266.538L144.315 266.263C140.704 263.533 135.118 263.889 131.362 267.725L131.361 267.726L126.75 272.42C125.259 273.939 122.794 273.939 121.303 272.42C119.849 270.94 119.876 268.576 121.361 267.127L123.574 264.969L125.96 262.54C126.585 261.901 127.249 261.314 127.945 260.783Z" fill="white" stroke="white" stroke-width="1.2973"/>
<mask id="path-4-outside-1_2016_116354" maskUnits="userSpaceOnUse" x="169.785" y="265.152" width="132" height="38" fill="black">
<rect fill="white" x="169.785" y="265.152" width="132" height="38"/>
<path d="M171.224 279.046C171.224 277.212 171.535 275.569 172.158 274.116C172.815 272.629 173.697 271.349 174.804 270.276C175.946 269.204 177.278 268.391 178.8 267.837C180.357 267.249 182.017 266.955 183.781 266.955C185.615 266.955 187.275 267.266 188.763 267.889C190.285 268.477 191.583 269.325 192.655 270.432C193.727 271.504 194.558 272.802 195.146 274.324C195.768 275.811 196.08 277.472 196.08 279.305C196.08 283.733 193.848 287.556 189.386 290.773L183.055 295.34H192.966C193.866 295.34 194.592 295.617 195.146 296.17C195.734 296.689 196.028 297.381 196.028 298.246C196.028 299.111 195.734 299.82 195.146 300.373C194.592 300.892 193.866 301.152 192.966 301.152H175.167C174.06 301.152 173.195 300.702 172.573 299.803C172.158 299.215 171.985 298.54 172.054 297.779C172.123 297.018 172.486 296.395 173.144 295.911L186.065 285.999C187.379 284.996 188.365 283.993 189.023 282.99C189.68 281.986 190.008 280.741 190.008 279.253C190.008 277.282 189.438 275.69 188.296 274.479C187.154 273.269 185.58 272.663 183.574 272.663C181.671 272.663 180.132 273.199 178.955 274.272C177.779 275.344 177.191 276.832 177.191 278.735C177.191 280.084 177.624 281.295 178.488 282.367C179.561 283.889 179.544 285.204 178.437 286.311C177.779 286.968 177.122 287.297 176.465 287.297C175.773 287.297 175.046 286.951 174.285 286.259C173.282 285.325 172.521 284.27 172.002 283.093C171.483 281.917 171.224 280.568 171.224 279.046ZM204.603 284.183C204.603 281.969 204.897 279.824 205.485 277.749C206.073 275.638 206.972 273.788 208.183 272.196C209.394 270.57 210.899 269.273 212.698 268.304C214.531 267.336 216.659 266.851 219.08 266.851C221.537 266.851 223.664 267.336 225.463 268.304C227.262 269.273 228.767 270.57 229.978 272.196C231.189 273.788 232.088 275.638 232.676 277.749C233.264 279.824 233.558 281.969 233.558 284.183C233.558 286.397 233.264 288.559 232.676 290.67C232.088 292.745 231.189 294.596 229.978 296.222C228.767 297.813 227.262 299.093 225.463 300.062C223.664 301.031 221.537 301.532 219.08 301.567C216.659 301.602 214.531 301.135 212.698 300.166C210.899 299.163 209.394 297.848 208.183 296.222C206.972 294.562 206.073 292.693 205.485 290.618C204.897 288.508 204.603 286.363 204.603 284.183ZM210.933 284.183C210.933 287.954 211.643 290.825 213.061 292.797C214.479 294.735 216.486 295.686 219.08 295.651C221.606 295.617 223.595 294.631 225.048 292.693C226.501 290.756 227.228 287.919 227.228 284.183C227.228 280.412 226.518 277.576 225.1 275.673C223.682 273.736 221.675 272.767 219.08 272.767C216.486 272.767 214.479 273.736 213.061 275.673C211.643 277.576 210.933 280.412 210.933 284.183ZM242.086 279.046C242.086 277.212 242.398 275.569 243.02 274.116C243.678 272.629 244.56 271.349 245.667 270.276C246.809 269.204 248.14 268.391 249.663 267.837C251.219 267.249 252.88 266.955 254.644 266.955C256.478 266.955 258.138 267.266 259.626 267.889C261.148 268.477 262.445 269.325 263.518 270.432C264.59 271.504 265.42 272.802 266.009 274.324C266.631 275.811 266.943 277.472 266.943 279.305C266.943 283.733 264.711 287.556 260.249 290.773L253.918 295.34H263.829C264.729 295.34 265.455 295.617 266.009 296.17C266.597 296.689 266.891 297.381 266.891 298.246C266.891 299.111 266.597 299.82 266.009 300.373C265.455 300.892 264.729 301.152 263.829 301.152H246.03C244.923 301.152 244.058 300.702 243.436 299.803C243.02 299.215 242.848 298.54 242.917 297.779C242.986 297.018 243.349 296.395 244.006 295.911L256.928 285.999C258.242 284.996 259.228 283.993 259.885 282.99C260.543 281.986 260.871 280.741 260.871 279.253C260.871 277.282 260.3 275.69 259.159 274.479C258.017 273.269 256.443 272.663 254.437 272.663C252.534 272.663 250.995 273.199 249.818 274.272C248.642 275.344 248.054 276.832 248.054 278.735C248.054 280.084 248.486 281.295 249.351 282.367C250.424 283.889 250.406 285.204 249.299 286.311C248.642 286.968 247.985 287.297 247.328 287.297C246.636 287.297 245.909 286.951 245.148 286.259C244.145 285.325 243.384 284.27 242.865 283.093C242.346 281.917 242.086 280.568 242.086 279.046ZM275.465 279.046C275.465 277.212 275.777 275.569 276.4 274.116C277.057 272.629 277.939 271.349 279.046 270.276C280.188 269.204 281.52 268.391 283.042 267.837C284.598 267.249 286.259 266.955 288.023 266.955C289.857 266.955 291.517 267.266 293.005 267.889C294.527 268.477 295.824 269.325 296.897 270.432C297.969 271.504 298.8 272.802 299.388 274.324C300.01 275.811 300.322 277.472 300.322 279.305C300.322 283.733 298.09 287.556 293.628 290.773L287.297 295.34H297.208C298.108 295.34 298.834 295.617 299.388 296.17C299.976 296.689 300.27 297.381 300.27 298.246C300.27 299.111 299.976 299.82 299.388 300.373C298.834 300.892 298.108 301.152 297.208 301.152H279.409C278.302 301.152 277.437 300.702 276.815 299.803C276.4 299.215 276.227 298.54 276.296 297.779C276.365 297.018 276.728 296.395 277.385 295.911L290.307 285.999C291.621 284.996 292.607 283.993 293.264 282.99C293.922 281.986 294.25 280.741 294.25 279.253C294.25 277.282 293.68 275.69 292.538 274.479C291.396 273.269 289.822 272.663 287.816 272.663C285.913 272.663 284.374 273.199 283.197 274.272C282.021 275.344 281.433 276.832 281.433 278.735C281.433 280.084 281.865 281.295 282.73 282.367C283.803 283.889 283.785 285.204 282.678 286.311C282.021 286.968 281.364 287.297 280.707 287.297C280.015 287.297 279.288 286.951 278.527 286.259C277.524 285.325 276.763 284.27 276.244 283.093C275.725 281.917 275.465 280.568 275.465 279.046Z"/>
</mask>
<path d="M171.224 279.046C171.224 277.212 171.535 275.569 172.158 274.116C172.815 272.629 173.697 271.349 174.804 270.276C175.946 269.204 177.278 268.391 178.8 267.837C180.357 267.249 182.017 266.955 183.781 266.955C185.615 266.955 187.275 267.266 188.763 267.889C190.285 268.477 191.583 269.325 192.655 270.432C193.727 271.504 194.558 272.802 195.146 274.324C195.768 275.811 196.08 277.472 196.08 279.305C196.08 283.733 193.848 287.556 189.386 290.773L183.055 295.34H192.966C193.866 295.34 194.592 295.617 195.146 296.17C195.734 296.689 196.028 297.381 196.028 298.246C196.028 299.111 195.734 299.82 195.146 300.373C194.592 300.892 193.866 301.152 192.966 301.152H175.167C174.06 301.152 173.195 300.702 172.573 299.803C172.158 299.215 171.985 298.54 172.054 297.779C172.123 297.018 172.486 296.395 173.144 295.911L186.065 285.999C187.379 284.996 188.365 283.993 189.023 282.99C189.68 281.986 190.008 280.741 190.008 279.253C190.008 277.282 189.438 275.69 188.296 274.479C187.154 273.269 185.58 272.663 183.574 272.663C181.671 272.663 180.132 273.199 178.955 274.272C177.779 275.344 177.191 276.832 177.191 278.735C177.191 280.084 177.624 281.295 178.488 282.367C179.561 283.889 179.544 285.204 178.437 286.311C177.779 286.968 177.122 287.297 176.465 287.297C175.773 287.297 175.046 286.951 174.285 286.259C173.282 285.325 172.521 284.27 172.002 283.093C171.483 281.917 171.224 280.568 171.224 279.046ZM204.603 284.183C204.603 281.969 204.897 279.824 205.485 277.749C206.073 275.638 206.972 273.788 208.183 272.196C209.394 270.57 210.899 269.273 212.698 268.304C214.531 267.336 216.659 266.851 219.08 266.851C221.537 266.851 223.664 267.336 225.463 268.304C227.262 269.273 228.767 270.57 229.978 272.196C231.189 273.788 232.088 275.638 232.676 277.749C233.264 279.824 233.558 281.969 233.558 284.183C233.558 286.397 233.264 288.559 232.676 290.67C232.088 292.745 231.189 294.596 229.978 296.222C228.767 297.813 227.262 299.093 225.463 300.062C223.664 301.031 221.537 301.532 219.08 301.567C216.659 301.602 214.531 301.135 212.698 300.166C210.899 299.163 209.394 297.848 208.183 296.222C206.972 294.562 206.073 292.693 205.485 290.618C204.897 288.508 204.603 286.363 204.603 284.183ZM210.933 284.183C210.933 287.954 211.643 290.825 213.061 292.797C214.479 294.735 216.486 295.686 219.08 295.651C221.606 295.617 223.595 294.631 225.048 292.693C226.501 290.756 227.228 287.919 227.228 284.183C227.228 280.412 226.518 277.576 225.1 275.673C223.682 273.736 221.675 272.767 219.08 272.767C216.486 272.767 214.479 273.736 213.061 275.673C211.643 277.576 210.933 280.412 210.933 284.183ZM242.086 279.046C242.086 277.212 242.398 275.569 243.02 274.116C243.678 272.629 244.56 271.349 245.667 270.276C246.809 269.204 248.14 268.391 249.663 267.837C251.219 267.249 252.88 266.955 254.644 266.955C256.478 266.955 258.138 267.266 259.626 267.889C261.148 268.477 262.445 269.325 263.518 270.432C264.59 271.504 265.42 272.802 266.009 274.324C266.631 275.811 266.943 277.472 266.943 279.305C266.943 283.733 264.711 287.556 260.249 290.773L253.918 295.34H263.829C264.729 295.34 265.455 295.617 266.009 296.17C266.597 296.689 266.891 297.381 266.891 298.246C266.891 299.111 266.597 299.82 266.009 300.373C265.455 300.892 264.729 301.152 263.829 301.152H246.03C244.923 301.152 244.058 300.702 243.436 299.803C243.02 299.215 242.848 298.54 242.917 297.779C242.986 297.018 243.349 296.395 244.006 295.911L256.928 285.999C258.242 284.996 259.228 283.993 259.885 282.99C260.543 281.986 260.871 280.741 260.871 279.253C260.871 277.282 260.3 275.69 259.159 274.479C258.017 273.269 256.443 272.663 254.437 272.663C252.534 272.663 250.995 273.199 249.818 274.272C248.642 275.344 248.054 276.832 248.054 278.735C248.054 280.084 248.486 281.295 249.351 282.367C250.424 283.889 250.406 285.204 249.299 286.311C248.642 286.968 247.985 287.297 247.328 287.297C246.636 287.297 245.909 286.951 245.148 286.259C244.145 285.325 243.384 284.27 242.865 283.093C242.346 281.917 242.086 280.568 242.086 279.046ZM275.465 279.046C275.465 277.212 275.777 275.569 276.4 274.116C277.057 272.629 277.939 271.349 279.046 270.276C280.188 269.204 281.52 268.391 283.042 267.837C284.598 267.249 286.259 266.955 288.023 266.955C289.857 266.955 291.517 267.266 293.005 267.889C294.527 268.477 295.824 269.325 296.897 270.432C297.969 271.504 298.8 272.802 299.388 274.324C300.01 275.811 300.322 277.472 300.322 279.305C300.322 283.733 298.09 287.556 293.628 290.773L287.297 295.34H297.208C298.108 295.34 298.834 295.617 299.388 296.17C299.976 296.689 300.27 297.381 300.27 298.246C300.27 299.111 299.976 299.82 299.388 300.373C298.834 300.892 298.108 301.152 297.208 301.152H279.409C278.302 301.152 277.437 300.702 276.815 299.803C276.4 299.215 276.227 298.54 276.296 297.779C276.365 297.018 276.728 296.395 277.385 295.911L290.307 285.999C291.621 284.996 292.607 283.993 293.264 282.99C293.922 281.986 294.25 280.741 294.25 279.253C294.25 277.282 293.68 275.69 292.538 274.479C291.396 273.269 289.822 272.663 287.816 272.663C285.913 272.663 284.374 273.199 283.197 274.272C282.021 275.344 281.433 276.832 281.433 278.735C281.433 280.084 281.865 281.295 282.73 282.367C283.803 283.889 283.785 285.204 282.678 286.311C282.021 286.968 281.364 287.297 280.707 287.297C280.015 287.297 279.288 286.951 278.527 286.259C277.524 285.325 276.763 284.27 276.244 283.093C275.725 281.917 275.465 280.568 275.465 279.046Z" fill="white"/>
<path d="M172.158 274.116L170.971 273.592L170.968 273.598L170.965 273.605L172.158 274.116ZM174.804 270.276L173.916 269.331L173.909 269.337L173.901 269.344L174.804 270.276ZM178.8 267.837L179.243 269.056L179.251 269.054L179.258 269.051L178.8 267.837ZM188.763 267.889L188.262 269.086L188.279 269.093L188.296 269.099L188.763 267.889ZM192.655 270.432L191.723 271.335L191.73 271.342L191.738 271.349L192.655 270.432ZM195.146 274.324L193.936 274.791L193.942 274.808L193.949 274.825L195.146 274.324ZM189.386 290.773L188.627 289.721L188.627 289.721L189.386 290.773ZM183.055 295.34L182.296 294.288L179.039 296.637H183.055V295.34ZM195.146 296.17L194.228 297.088L194.257 297.116L194.287 297.143L195.146 296.17ZM195.146 300.373L196.033 301.32L196.035 301.318L195.146 300.373ZM172.573 299.803L173.639 299.064L173.633 299.055L172.573 299.803ZM172.054 297.779L170.762 297.661V297.661L172.054 297.779ZM173.144 295.911L173.913 296.955L173.923 296.948L173.933 296.94L173.144 295.911ZM186.065 285.999L185.278 284.968L185.275 284.97L186.065 285.999ZM189.023 282.99L187.937 282.279V282.279L189.023 282.99ZM188.296 274.479L187.352 275.369V275.369L188.296 274.479ZM178.955 274.272L179.83 275.23H179.83L178.955 274.272ZM178.488 282.367L179.549 281.62L179.525 281.585L179.498 281.553L178.488 282.367ZM178.437 286.311L179.354 287.228L178.437 286.311ZM174.285 286.259L173.401 287.208L173.407 287.214L173.413 287.219L174.285 286.259ZM172.002 283.093L170.815 283.617V283.617L172.002 283.093ZM171.224 279.046H172.521C172.521 277.36 172.807 275.895 173.35 274.627L172.158 274.116L170.965 273.605C170.263 275.243 169.926 277.065 169.926 279.046H171.224ZM172.158 274.116L173.344 274.64C173.938 273.297 174.726 272.158 175.707 271.208L174.804 270.276L173.901 269.344C172.668 270.539 171.692 271.96 170.971 273.592L172.158 274.116ZM174.804 270.276L175.692 271.222C176.701 270.274 177.881 269.552 179.243 269.056L178.8 267.837L178.356 266.618C176.675 267.23 175.19 268.134 173.916 269.331L174.804 270.276ZM178.8 267.837L179.258 269.051C180.66 268.521 182.164 268.252 183.781 268.252V266.955V265.658C181.87 265.658 180.053 265.977 178.341 266.624L178.8 267.837ZM183.781 266.955V268.252C185.466 268.252 186.953 268.538 188.262 269.086L188.763 267.889L189.264 266.692C187.597 265.995 185.763 265.658 183.781 265.658V266.955ZM188.763 267.889L188.296 269.099C189.653 269.624 190.789 270.37 191.723 271.335L192.655 270.432L193.587 269.529C192.376 268.279 190.917 267.331 189.231 266.679L188.763 267.889ZM192.655 270.432L191.738 271.349C192.673 272.284 193.408 273.425 193.936 274.791L195.146 274.324L196.356 273.856C195.708 272.178 194.782 270.724 193.572 269.515L192.655 270.432ZM195.146 274.324L193.949 274.825C194.497 276.133 194.783 277.62 194.783 279.305H196.08H197.377C197.377 277.323 197.04 275.489 196.342 273.823L195.146 274.324ZM196.08 279.305H194.783C194.783 283.215 192.843 286.682 188.627 289.721L189.386 290.773L190.144 291.826C194.854 288.431 197.377 284.252 197.377 279.305H196.08ZM189.386 290.773L188.627 289.721L182.296 294.288L183.055 295.34L183.814 296.392L190.145 291.826L189.386 290.773ZM183.055 295.34V296.637H192.966V295.34V294.043H183.055V295.34ZM192.966 295.34V296.637C193.577 296.637 193.955 296.814 194.228 297.088L195.146 296.17L196.063 295.253C195.23 294.419 194.154 294.043 192.966 294.043V295.34ZM195.146 296.17L194.287 297.143C194.566 297.389 194.731 297.71 194.731 298.246H196.028H197.325C197.325 297.052 196.902 295.99 196.004 295.197L195.146 296.17ZM196.028 298.246H194.731C194.731 298.781 194.564 299.139 194.257 299.429L195.146 300.373L196.035 301.318C196.903 300.501 197.325 299.44 197.325 298.246H196.028ZM195.146 300.373L194.258 299.427C193.989 299.68 193.601 299.855 192.966 299.855V301.152V302.449C194.13 302.449 195.195 302.105 196.033 301.32L195.146 300.373ZM192.966 301.152V299.855H175.167V301.152V302.449H192.966V301.152ZM175.167 301.152V299.855C174.48 299.855 174.016 299.609 173.639 299.064L172.573 299.803L171.506 300.541C172.375 301.796 173.641 302.449 175.167 302.449V301.152ZM172.573 299.803L173.633 299.055C173.407 298.735 173.303 298.371 173.346 297.896L172.054 297.779L170.762 297.661C170.667 298.709 170.909 299.695 171.513 300.551L172.573 299.803ZM172.054 297.779L173.346 297.896C173.379 297.532 173.531 297.236 173.913 296.955L173.144 295.911L172.374 294.866C171.441 295.554 170.867 296.503 170.762 297.661L172.054 297.779ZM173.144 295.911L173.933 296.94L186.854 287.029L186.065 285.999L185.275 284.97L172.354 294.881L173.144 295.911ZM186.065 285.999L186.852 287.031C188.242 285.97 189.346 284.864 190.108 283.701L189.023 282.99L187.937 282.279C187.385 283.122 186.516 284.023 185.278 284.968L186.065 285.999ZM189.023 282.99L190.108 283.701C190.933 282.44 191.306 280.933 191.306 279.253H190.008H188.711C188.711 280.549 188.426 281.532 187.937 282.279L189.023 282.99ZM190.008 279.253H191.306C191.306 277.016 190.65 275.085 189.24 273.589L188.296 274.479L187.352 275.369C188.226 276.296 188.711 277.547 188.711 279.253H190.008ZM188.296 274.479L189.24 273.589C187.804 272.066 185.858 271.366 183.574 271.366V272.663V273.961C185.302 273.961 186.505 274.471 187.352 275.369L188.296 274.479ZM183.574 272.663V271.366C181.415 271.366 179.542 271.982 178.081 273.313L178.955 274.272L179.83 275.23C180.722 274.417 181.928 273.961 183.574 273.961V272.663ZM178.955 274.272L178.081 273.313C176.583 274.679 175.894 276.545 175.894 278.735H177.191H178.488C178.488 277.119 178.975 276.009 179.83 275.23L178.955 274.272ZM177.191 278.735H175.894C175.894 280.387 176.432 281.884 177.479 283.181L178.488 282.367L179.498 281.553C178.815 280.706 178.488 279.781 178.488 278.735H177.191ZM178.488 282.367L177.428 283.114C177.87 283.742 177.986 284.186 177.983 284.477C177.979 284.733 177.882 285.03 177.519 285.393L178.437 286.311L179.354 287.228C180.098 286.484 180.563 285.57 180.577 284.512C180.59 283.488 180.179 282.514 179.549 281.62L178.488 282.367ZM178.437 286.311L177.519 285.393C177.003 285.909 176.657 285.999 176.465 285.999V287.297V288.594C177.587 288.594 178.555 288.027 179.354 287.228L178.437 286.311ZM176.465 287.297V285.999C176.222 285.999 175.794 285.877 175.158 285.299L174.285 286.259L173.413 287.219C174.299 288.024 175.324 288.594 176.465 288.594V287.297ZM174.285 286.259L175.169 285.309C174.286 284.487 173.632 283.575 173.189 282.57L172.002 283.093L170.815 283.617C171.41 284.965 172.278 286.162 173.401 287.208L174.285 286.259ZM172.002 283.093L173.189 282.57C172.755 281.586 172.521 280.42 172.521 279.046H171.224H169.926C169.926 280.716 170.211 282.248 170.815 283.617L172.002 283.093ZM205.485 277.749L206.733 278.102L206.734 278.097L205.485 277.749ZM208.183 272.196L209.216 272.982L209.224 272.971L208.183 272.196ZM212.698 268.304L212.092 267.157L212.083 267.162L212.698 268.304ZM225.463 268.304L224.848 269.447L225.463 268.304ZM229.978 272.196L228.937 272.971L228.945 272.982L229.978 272.196ZM232.676 277.749L231.426 278.097L231.428 278.102L232.676 277.749ZM232.676 290.67L233.924 291.023L233.926 291.018L232.676 290.67ZM229.978 296.222L231.01 297.008L231.018 296.997L229.978 296.222ZM225.463 300.062L224.848 298.92V298.92L225.463 300.062ZM219.08 301.567L219.062 300.27L219.062 300.27L219.08 301.567ZM212.698 300.166L212.066 301.299L212.079 301.306L212.092 301.313L212.698 300.166ZM208.183 296.222L207.135 296.986L207.143 296.997L208.183 296.222ZM205.485 290.618L204.235 290.966L204.237 290.971L205.485 290.618ZM213.061 292.797L212.008 293.555L212.014 293.564L213.061 292.797ZM219.08 295.651L219.098 296.948L219.098 296.948L219.08 295.651ZM225.048 292.693L226.086 293.472V293.472L225.048 292.693ZM225.1 275.673L224.053 276.439L224.06 276.448L225.1 275.673ZM213.061 275.673L214.101 276.448L214.108 276.439L213.061 275.673ZM204.603 284.183H205.9C205.9 282.086 206.178 280.06 206.733 278.102L205.485 277.749L204.237 277.395C203.615 279.589 203.305 281.853 203.305 284.183H204.603ZM205.485 277.749L206.734 278.097C207.283 276.13 208.113 274.43 209.216 272.982L208.183 272.196L207.151 271.411C205.831 273.145 204.863 275.147 204.235 277.4L205.485 277.749ZM208.183 272.196L209.224 272.971C210.32 271.498 211.68 270.326 213.313 269.447L212.698 268.304L212.083 267.162C210.118 268.22 208.468 269.642 207.143 271.421L208.183 272.196ZM212.698 268.304L213.304 269.451C214.921 268.597 216.835 268.149 219.08 268.149V266.851V265.554C216.483 265.554 214.141 266.075 212.092 267.157L212.698 268.304ZM219.08 266.851V268.149C221.365 268.149 223.273 268.598 224.848 269.447L225.463 268.304L226.078 267.162C224.056 266.073 221.708 265.554 219.08 265.554V266.851ZM225.463 268.304L224.848 269.447C226.481 270.326 227.841 271.498 228.937 272.971L229.978 272.196L231.018 271.421C229.693 269.642 228.043 268.22 226.078 267.162L225.463 268.304ZM229.978 272.196L228.945 272.982C230.048 274.43 230.878 276.13 231.426 278.097L232.676 277.749L233.926 277.4C233.298 275.147 232.33 273.145 231.01 271.411L229.978 272.196ZM232.676 277.749L231.428 278.102C231.983 280.06 232.261 282.086 232.261 284.183H233.558H234.856C234.856 281.853 234.546 279.589 233.924 277.395L232.676 277.749ZM233.558 284.183H232.261C232.261 286.281 231.983 288.326 231.426 290.321L232.676 290.67L233.926 291.018C234.546 288.793 234.856 286.514 234.856 284.183H233.558ZM232.676 290.67L231.428 290.316C230.88 292.25 230.048 293.956 228.937 295.447L229.978 296.222L231.018 296.997C232.329 295.236 233.296 293.241 233.924 291.023L232.676 290.67ZM229.978 296.222L228.945 295.437C227.849 296.877 226.488 298.037 224.848 298.92L225.463 300.062L226.078 301.204C228.036 300.15 229.685 298.75 231.01 297.008L229.978 296.222ZM225.463 300.062L224.848 298.92C223.266 299.772 221.352 300.238 219.062 300.27L219.08 301.567L219.099 302.864C221.722 302.827 224.062 302.29 226.078 301.204L225.463 300.062ZM219.08 301.567L219.062 300.27C216.821 300.302 214.915 299.87 213.304 299.019L212.698 300.166L212.092 301.313C214.148 302.399 216.497 302.901 219.099 302.864L219.08 301.567ZM212.698 300.166L213.33 299.033C211.688 298.117 210.323 296.924 209.224 295.447L208.183 296.222L207.143 296.997C208.465 298.772 210.11 300.208 212.066 301.299L212.698 300.166ZM208.183 296.222L209.231 295.458C208.115 293.927 207.281 292.2 206.733 290.264L205.485 290.618L204.237 290.971C204.864 293.187 205.829 295.196 207.135 296.986L208.183 296.222ZM205.485 290.618L206.734 290.27C206.178 288.272 205.9 286.244 205.9 284.183H204.603H203.305C203.305 286.481 203.616 288.743 204.235 290.966L205.485 290.618ZM210.933 284.183H209.636C209.636 288.086 210.365 291.271 212.008 293.555L213.061 292.797L214.114 292.04C212.92 290.38 212.231 287.822 212.231 284.183H210.933ZM213.061 292.797L212.014 293.564C213.703 295.87 216.123 296.988 219.098 296.948L219.08 295.651L219.063 294.354C216.849 294.384 215.256 293.599 214.108 292.031L213.061 292.797ZM219.08 295.651L219.098 296.948C222.006 296.909 224.38 295.747 226.086 293.472L225.048 292.693L224.01 291.915C222.81 293.515 221.206 294.325 219.063 294.354L219.08 295.651ZM225.048 292.693L226.086 293.472C227.777 291.218 228.525 288.057 228.525 284.183H227.228H225.93C225.93 287.782 225.225 290.295 224.01 291.915L225.048 292.693ZM227.228 284.183H228.525C228.525 280.286 227.798 277.122 226.14 274.898L225.1 275.673L224.06 276.448C225.239 278.03 225.93 280.539 225.93 284.183H227.228ZM225.1 275.673L226.147 274.907C224.462 272.605 222.05 271.47 219.08 271.47V272.767V274.064C221.3 274.064 222.901 274.866 224.053 276.439L225.1 275.673ZM219.08 272.767V271.47C216.111 271.47 213.699 272.605 212.014 274.907L213.061 275.673L214.108 276.439C215.26 274.866 216.861 274.064 219.08 274.064V272.767ZM213.061 275.673L212.021 274.898C210.363 277.122 209.636 280.286 209.636 284.183H210.933H212.231C212.231 280.539 212.922 278.03 214.101 276.448L213.061 275.673ZM243.02 274.116L241.834 273.592L241.831 273.598L241.828 273.605L243.02 274.116ZM245.667 270.276L244.779 269.331L244.771 269.337L244.764 269.344L245.667 270.276ZM249.663 267.837L250.106 269.056L250.114 269.054L250.121 269.051L249.663 267.837ZM259.626 267.889L259.125 269.086L259.142 269.093L259.158 269.099L259.626 267.889ZM263.518 270.432L262.586 271.335L262.593 271.342L262.6 271.349L263.518 270.432ZM266.009 274.324L264.798 274.791L264.805 274.808L264.812 274.825L266.009 274.324ZM260.249 290.773L259.49 289.721L259.49 289.721L260.249 290.773ZM253.918 295.34L253.159 294.288L249.902 296.637H253.918V295.34ZM266.009 296.17L265.091 297.088L265.12 297.116L265.15 297.143L266.009 296.17ZM266.009 300.373L266.896 301.32L266.898 301.318L266.009 300.373ZM243.436 299.803L244.502 299.064L244.495 299.055L243.436 299.803ZM242.917 297.779L241.625 297.661V297.661L242.917 297.779ZM244.006 295.911L244.776 296.955L244.786 296.948L244.796 296.94L244.006 295.911ZM256.928 285.999L256.14 284.968L256.138 284.97L256.928 285.999ZM259.885 282.99L258.8 282.279V282.279L259.885 282.99ZM259.159 274.479L258.215 275.369V275.369L259.159 274.479ZM249.818 274.272L250.692 275.23V275.23L249.818 274.272ZM249.351 282.367L250.412 281.62L250.388 281.585L250.361 281.553L249.351 282.367ZM249.299 286.311L250.217 287.228L249.299 286.311ZM245.148 286.259L244.264 287.208L244.27 287.214L244.275 287.219L245.148 286.259ZM242.865 283.093L241.678 283.617V283.617L242.865 283.093ZM242.086 279.046H243.384C243.384 277.36 243.67 275.895 244.213 274.627L243.02 274.116L241.828 273.605C241.126 275.243 240.789 277.065 240.789 279.046H242.086ZM243.02 274.116L244.207 274.64C244.801 273.297 245.589 272.158 246.57 271.208L245.667 270.276L244.764 269.344C243.531 270.539 242.555 271.96 241.834 273.592L243.02 274.116ZM245.667 270.276L246.555 271.222C247.564 270.274 248.743 269.552 250.106 269.056L249.663 267.837L249.219 266.618C247.538 267.23 246.053 268.134 244.779 269.331L245.667 270.276ZM249.663 267.837L250.121 269.051C251.523 268.521 253.027 268.252 254.644 268.252V266.955V265.658C252.733 265.658 250.916 265.977 249.204 266.624L249.663 267.837ZM254.644 266.955V268.252C256.329 268.252 257.816 268.538 259.125 269.086L259.626 267.889L260.127 266.692C258.46 265.995 256.626 265.658 254.644 265.658V266.955ZM259.626 267.889L259.158 269.099C260.516 269.624 261.652 270.37 262.586 271.335L263.518 270.432L264.45 269.529C263.239 268.279 261.78 267.331 260.093 266.679L259.626 267.889ZM263.518 270.432L262.6 271.349C263.536 272.284 264.271 273.425 264.798 274.791L266.009 274.324L267.219 273.856C266.57 272.178 265.645 270.724 264.435 269.515L263.518 270.432ZM266.009 274.324L264.812 274.825C265.36 276.133 265.645 277.62 265.645 279.305H266.943H268.24C268.24 277.323 267.903 275.489 267.205 273.823L266.009 274.324ZM266.943 279.305H265.645C265.645 283.215 263.706 286.682 259.49 289.721L260.249 290.773L261.007 291.826C265.716 288.431 268.24 284.252 268.24 279.305H266.943ZM260.249 290.773L259.49 289.721L253.159 294.288L253.918 295.34L254.677 296.392L261.008 291.826L260.249 290.773ZM253.918 295.34V296.637H263.829V295.34V294.043H253.918V295.34ZM263.829 295.34V296.637C264.44 296.637 264.818 296.814 265.091 297.088L266.009 296.17L266.926 295.253C266.092 294.419 265.017 294.043 263.829 294.043V295.34ZM266.009 296.17L265.15 297.143C265.429 297.389 265.593 297.71 265.593 298.246H266.891H268.188C268.188 297.052 267.765 295.99 266.867 295.197L266.009 296.17ZM266.891 298.246H265.593C265.593 298.781 265.427 299.139 265.119 299.429L266.009 300.373L266.898 301.318C267.766 300.501 268.188 299.44 268.188 298.246H266.891ZM266.009 300.373L265.121 299.427C264.852 299.68 264.464 299.855 263.829 299.855V301.152V302.449C264.993 302.449 266.058 302.105 266.896 301.32L266.009 300.373ZM263.829 301.152V299.855H246.03V301.152V302.449H263.829V301.152ZM246.03 301.152V299.855C245.343 299.855 244.879 299.609 244.502 299.064L243.436 299.803L242.369 300.541C243.237 301.796 244.504 302.449 246.03 302.449V301.152ZM243.436 299.803L244.495 299.055C244.27 298.735 244.166 298.371 244.209 297.896L242.917 297.779L241.625 297.661C241.529 298.709 241.771 299.695 242.376 300.551L243.436 299.803ZM242.917 297.779L244.209 297.896C244.242 297.532 244.394 297.236 244.776 296.955L244.006 295.911L243.237 294.866C242.304 295.554 241.73 296.503 241.625 297.661L242.917 297.779ZM244.006 295.911L244.796 296.94L257.717 287.029L256.928 285.999L256.138 284.97L243.217 294.881L244.006 295.911ZM256.928 285.999L257.715 287.031C259.105 285.97 260.209 284.864 260.97 283.701L259.885 282.99L258.8 282.279C258.248 283.122 257.379 284.023 256.14 284.968L256.928 285.999ZM259.885 282.99L260.97 283.701C261.796 282.44 262.169 280.933 262.169 279.253H260.871H259.574C259.574 280.549 259.289 281.532 258.8 282.279L259.885 282.99ZM260.871 279.253H262.169C262.169 277.016 261.512 275.085 260.103 273.589L259.159 274.479L258.215 275.369C259.089 276.296 259.574 277.547 259.574 279.253H260.871ZM259.159 274.479L260.103 273.589C258.666 272.066 256.721 271.366 254.437 271.366V272.663V273.961C256.165 273.961 257.368 274.471 258.215 275.369L259.159 274.479ZM254.437 272.663V271.366C252.277 271.366 250.405 271.982 248.944 273.313L249.818 274.272L250.692 275.23C251.584 274.417 252.791 273.961 254.437 273.961V272.663ZM249.818 274.272L248.944 273.313C247.446 274.679 246.757 276.545 246.757 278.735H248.054H249.351C249.351 277.119 249.838 276.009 250.692 275.23L249.818 274.272ZM248.054 278.735H246.757C246.757 280.387 247.295 281.884 248.341 283.181L249.351 282.367L250.361 281.553C249.678 280.706 249.351 279.781 249.351 278.735H248.054ZM249.351 282.367L248.291 283.114C248.733 283.742 248.849 284.186 248.845 284.477C248.842 284.733 248.745 285.03 248.382 285.393L249.299 286.311L250.217 287.228C250.961 286.484 251.426 285.57 251.44 284.512C251.453 283.488 251.042 282.514 250.412 281.62L249.351 282.367ZM249.299 286.311L248.382 285.393C247.866 285.909 247.519 285.999 247.328 285.999V287.297V288.594C248.45 288.594 249.418 288.027 250.217 287.228L249.299 286.311ZM247.328 287.297V285.999C247.085 285.999 246.657 285.877 246.021 285.299L245.148 286.259L244.275 287.219C245.162 288.024 246.187 288.594 247.328 288.594V287.297ZM245.148 286.259L246.032 285.309C245.149 284.487 244.495 283.575 244.052 282.57L242.865 283.093L241.678 283.617C242.272 284.965 243.141 286.162 244.264 287.208L245.148 286.259ZM242.865 283.093L244.052 282.57C243.618 281.586 243.384 280.42 243.384 279.046H242.086H240.789C240.789 280.716 241.074 282.248 241.678 283.617L242.865 283.093ZM276.4 274.116L275.213 273.592L275.21 273.598L275.207 273.605L276.4 274.116ZM279.046 270.276L278.158 269.331L278.151 269.337L278.143 269.344L279.046 270.276ZM283.042 267.837L283.485 269.056L283.493 269.054L283.5 269.051L283.042 267.837ZM293.005 267.889L292.504 269.086L292.521 269.093L292.537 269.099L293.005 267.889ZM296.897 270.432L295.965 271.335L295.972 271.342L295.98 271.349L296.897 270.432ZM299.388 274.324L298.178 274.791L298.184 274.808L298.191 274.825L299.388 274.324ZM293.628 290.773L292.869 289.721L292.869 289.721L293.628 290.773ZM287.297 295.34L286.538 294.288L283.281 296.637H287.297V295.34ZM299.388 296.17L298.47 297.088L298.499 297.116L298.529 297.143L299.388 296.17ZM299.388 300.373L300.275 301.32L300.277 301.318L299.388 300.373ZM276.815 299.803L277.881 299.064L277.875 299.055L276.815 299.803ZM276.296 297.779L275.004 297.661V297.661L276.296 297.779ZM277.385 295.911L278.155 296.955L278.165 296.948L278.175 296.94L277.385 295.911ZM290.307 285.999L289.52 284.968L289.517 284.97L290.307 285.999ZM293.264 282.99L292.179 282.279V282.279L293.264 282.99ZM292.538 274.479L291.594 275.369V275.369L292.538 274.479ZM283.197 274.272L284.071 275.23V275.23L283.197 274.272ZM282.73 282.367L283.791 281.62L283.767 281.585L283.74 281.553L282.73 282.367ZM282.678 286.311L283.596 287.228L282.678 286.311ZM278.527 286.259L277.643 287.208L277.649 287.214L277.654 287.219L278.527 286.259ZM276.244 283.093L275.057 283.617V283.617L276.244 283.093ZM275.465 279.046H276.763C276.763 277.36 277.049 275.895 277.592 274.627L276.4 274.116L275.207 273.605C274.505 275.243 274.168 277.065 274.168 279.046H275.465ZM276.4 274.116L277.586 274.64C278.18 273.297 278.968 272.158 279.949 271.208L279.046 270.276L278.143 269.344C276.91 270.539 275.934 271.96 275.213 273.592L276.4 274.116ZM279.046 270.276L279.934 271.222C280.943 270.274 282.122 269.552 283.485 269.056L283.042 267.837L282.598 266.618C280.917 267.23 279.432 268.134 278.158 269.331L279.046 270.276ZM283.042 267.837L283.5 269.051C284.902 268.521 286.406 268.252 288.023 268.252V266.955V265.658C286.112 265.658 284.295 265.977 282.583 266.624L283.042 267.837ZM288.023 266.955V268.252C289.708 268.252 291.195 268.538 292.504 269.086L293.005 267.889L293.506 266.692C291.839 265.995 290.005 265.658 288.023 265.658V266.955ZM293.005 267.889L292.537 269.099C293.895 269.624 295.031 270.37 295.965 271.335L296.897 270.432L297.829 269.529C296.618 268.279 295.159 267.331 293.472 266.679L293.005 267.889ZM296.897 270.432L295.98 271.349C296.915 272.284 297.65 273.425 298.178 274.791L299.388 274.324L300.598 273.856C299.949 272.178 299.024 270.724 297.814 269.515L296.897 270.432ZM299.388 274.324L298.191 274.825C298.739 276.133 299.024 277.62 299.024 279.305H300.322H301.619C301.619 277.323 301.282 275.489 300.584 273.823L299.388 274.324ZM300.322 279.305H299.024C299.024 283.215 297.085 286.682 292.869 289.721L293.628 290.773L294.386 291.826C299.095 288.431 301.619 284.252 301.619 279.305H300.322ZM293.628 290.773L292.869 289.721L286.538 294.288L287.297 295.34L288.056 296.392L294.387 291.826L293.628 290.773ZM287.297 295.34V296.637H297.208V295.34V294.043H287.297V295.34ZM297.208 295.34V296.637C297.819 296.637 298.197 296.814 298.47 297.088L299.388 296.17L300.305 295.253C299.471 294.419 298.396 294.043 297.208 294.043V295.34ZM299.388 296.17L298.529 297.143C298.808 297.389 298.973 297.71 298.973 298.246H300.27H301.567C301.567 297.052 301.144 295.99 300.246 295.197L299.388 296.17ZM300.27 298.246H298.973C298.973 298.781 298.806 299.139 298.499 299.429L299.388 300.373L300.277 301.318C301.145 300.501 301.567 299.44 301.567 298.246H300.27ZM299.388 300.373L298.5 299.427C298.231 299.68 297.843 299.855 297.208 299.855V301.152V302.449C298.372 302.449 299.437 302.105 300.275 301.32L299.388 300.373ZM297.208 301.152V299.855H279.409V301.152V302.449H297.208V301.152ZM279.409 301.152V299.855C278.722 299.855 278.258 299.609 277.881 299.064L276.815 299.803L275.748 300.541C276.617 301.796 277.883 302.449 279.409 302.449V301.152ZM276.815 299.803L277.875 299.055C277.649 298.735 277.545 298.371 277.588 297.896L276.296 297.779L275.004 297.661C274.909 298.709 275.15 299.695 275.755 300.551L276.815 299.803ZM276.296 297.779L277.588 297.896C277.621 297.532 277.773 297.236 278.155 296.955L277.385 295.911L276.616 294.866C275.683 295.554 275.109 296.503 275.004 297.661L276.296 297.779ZM277.385 295.911L278.175 296.94L291.096 287.029L290.307 285.999L289.517 284.97L276.596 294.881L277.385 295.911ZM290.307 285.999L291.094 287.031C292.484 285.97 293.588 284.864 294.35 283.701L293.264 282.99L292.179 282.279C291.627 283.122 290.758 284.023 289.52 284.968L290.307 285.999ZM293.264 282.99L294.35 283.701C295.175 282.44 295.548 280.933 295.548 279.253H294.25H292.953C292.953 280.549 292.668 281.532 292.179 282.279L293.264 282.99ZM294.25 279.253H295.548C295.548 277.016 294.891 275.085 293.482 273.589L292.538 274.479L291.594 275.369C292.468 276.296 292.953 277.547 292.953 279.253H294.25ZM292.538 274.479L293.482 273.589C292.046 272.066 290.1 271.366 287.816 271.366V272.663V273.961C289.544 273.961 290.747 274.471 291.594 275.369L292.538 274.479ZM287.816 272.663V271.366C285.656 271.366 283.784 271.982 282.323 273.313L283.197 274.272L284.071 275.23C284.964 274.417 286.17 273.961 287.816 273.961V272.663ZM283.197 274.272L282.323 273.313C280.825 274.679 280.136 276.545 280.136 278.735H281.433H282.73C282.73 277.119 283.217 276.009 284.071 275.23L283.197 274.272ZM281.433 278.735H280.136C280.136 280.387 280.674 281.884 281.721 283.181L282.73 282.367L283.74 281.553C283.057 280.706 282.73 279.781 282.73 278.735H281.433ZM282.73 282.367L281.67 283.114C282.112 283.742 282.228 284.186 282.225 284.477C282.221 284.733 282.124 285.03 281.761 285.393L282.678 286.311L283.596 287.228C284.34 286.484 284.805 285.57 284.819 284.512C284.832 283.488 284.421 282.514 283.791 281.62L282.73 282.367ZM282.678 286.311L281.761 285.393C281.245 285.909 280.898 285.999 280.707 285.999V287.297V288.594C281.829 288.594 282.797 288.027 283.596 287.228L282.678 286.311ZM280.707 287.297V285.999C280.464 285.999 280.036 285.877 279.4 285.299L278.527 286.259L277.654 287.219C278.541 288.024 279.566 288.594 280.707 288.594V287.297ZM278.527 286.259L279.411 285.309C278.528 284.487 277.874 283.575 277.431 282.57L276.244 283.093L275.057 283.617C275.652 284.965 276.52 286.162 277.643 287.208L278.527 286.259ZM276.244 283.093L277.431 282.57C276.997 281.586 276.763 280.42 276.763 279.046H275.465H274.168C274.168 280.716 274.453 282.248 275.057 283.617L276.244 283.093Z" fill="white" mask="url(#path-4-outside-1_2016_116354)"/>
</svg>
