<svg width="388" height="420" viewBox="0 0 388 420" fill="none" xmlns="http://www.w3.org/2000/svg">
<circle cx="195.584" cy="164.162" r="33.3405" stroke="white" stroke-width="7.40901"/>
<path d="M199.288 241.957C199.288 244.003 197.629 245.661 195.583 245.661C193.538 245.661 191.879 244.003 191.879 241.957V212.168C191.879 210.172 193.586 208.615 195.583 208.615C197.58 208.615 199.288 210.172 199.288 212.169V241.957ZM228.924 216.681C229.947 218.452 229.34 220.718 227.568 221.741C225.797 222.764 223.531 222.157 222.508 220.385L215.432 208.129C214.417 206.372 215.167 204.128 216.945 203.152C218.666 202.207 220.866 202.722 221.848 204.423L228.924 216.681ZM169.318 204.423C170.3 202.723 172.5 202.207 174.221 203.152C176 204.128 176.749 206.372 175.735 208.129L171.504 215.457C170.482 217.229 168.216 217.836 166.444 216.813C164.672 215.79 164.065 213.524 165.088 211.752L169.318 204.423ZM151.616 184.01C153.372 182.995 155.616 183.745 156.592 185.523C157.537 187.244 157.022 189.443 155.322 190.425L138.346 200.226C136.574 201.25 134.308 200.642 133.285 198.87C132.263 197.098 132.87 194.833 134.642 193.81L151.616 184.01ZM243.174 188.24C244.946 189.263 245.553 191.529 244.53 193.301C243.507 195.073 241.241 195.68 239.469 194.657L234.924 192.033C233.174 191.022 232.687 188.731 233.727 186.999C234.742 185.308 236.921 184.63 238.629 185.616L243.174 188.24ZM273.378 160.457C275.424 160.457 277.083 162.116 277.083 164.162C277.083 166.208 275.424 167.866 273.378 167.866H243.592C241.595 167.866 240.037 166.158 240.037 164.161C240.037 162.164 241.594 160.457 243.591 160.457H273.378ZM147.576 160.457C149.573 160.457 151.13 162.164 151.13 164.161C151.13 166.158 149.572 167.866 147.575 167.866H114.084C112.038 167.866 110.38 166.208 110.38 164.162C110.38 162.116 112.038 160.457 114.084 160.457H147.576ZM155.478 137.61C157.188 138.597 157.698 140.812 156.736 142.535C155.752 144.298 153.52 145.034 151.772 144.025L143.224 139.09C141.452 138.067 140.845 135.801 141.868 134.029C142.891 132.257 145.157 131.65 146.929 132.673L155.478 137.61ZM249.68 131.669C250.704 133.441 250.097 135.707 248.325 136.73L238.459 142.426C236.76 143.407 234.592 142.742 233.571 141.066C232.514 139.332 232.996 137.024 234.755 136.009L244.62 130.314C246.392 129.291 248.657 129.898 249.68 131.669ZM173.847 121.285C174.828 122.984 174.163 125.152 172.488 126.173C170.754 127.23 168.446 126.749 167.431 124.99L157.678 108.098C156.655 106.326 157.263 104.06 159.035 103.037C160.807 102.014 163.073 102.621 164.096 104.393L173.847 121.285ZM225.716 114.151C227.487 115.174 228.094 117.439 227.071 119.211L223.734 124.99C222.719 126.748 220.412 127.229 218.678 126.173C217.003 125.152 216.338 122.984 217.319 121.285L220.656 115.506C221.679 113.735 223.944 113.128 225.716 114.151ZM199.288 116.153C199.288 118.15 197.58 119.708 195.583 119.708C193.586 119.708 191.879 118.151 191.879 116.154V82.6626C191.879 80.6166 193.538 78.958 195.583 78.958C197.629 78.958 199.288 80.6166 199.288 82.6626V116.153Z" fill="white"/>
<path d="M127.945 260.783C134.178 256.02 142.989 255.6 149.239 260.62L149.535 260.864L149.901 261.181C157.355 267.818 157.757 279.291 151.111 286.454L150.784 286.797L127.25 310.807C125.476 312.617 122.589 312.617 120.815 310.807L97.2808 286.797V286.796C90.1734 279.548 90.5887 267.551 98.5181 260.864L99.0142 260.462C104.187 256.438 111.045 256.069 116.751 258.748C119.013 259.809 119.092 262.657 117.466 264.261C116.151 265.56 114.18 265.649 112.594 265.082C109.368 263.927 105.859 264.462 103.394 266.537C98.8225 270.394 98.5601 277.408 102.68 281.609H102.681L124.032 303.392L145.382 281.61C149.494 277.408 149.23 270.396 144.659 266.538L144.315 266.263C140.704 263.533 135.117 263.889 131.362 267.725L131.361 267.726L126.75 272.42C125.258 273.939 122.794 273.939 121.302 272.42C119.848 270.94 119.875 268.576 121.361 267.127L123.574 264.969L125.959 262.54C126.585 261.901 127.249 261.314 127.945 260.783Z" fill="white" stroke="white" stroke-width="1.2973"/>
<mask id="path-4-outside-1_2016_116829" maskUnits="userSpaceOnUse" x="169.784" y="265.152" width="132" height="38" fill="black">
<rect fill="white" x="169.784" y="265.152" width="132" height="38"/>
<path d="M171.223 279.046C171.223 277.212 171.534 275.569 172.157 274.116C172.814 272.629 173.697 271.349 174.804 270.276C175.945 269.204 177.277 268.391 178.799 267.837C180.356 267.249 182.017 266.955 183.781 266.955C185.614 266.955 187.275 267.266 188.763 267.889C190.285 268.477 191.582 269.325 192.654 270.432C193.727 271.504 194.557 272.802 195.145 274.324C195.768 275.811 196.079 277.472 196.079 279.305C196.079 283.733 193.848 287.556 189.385 290.773L183.054 295.34H192.966C193.865 295.34 194.592 295.617 195.145 296.17C195.733 296.689 196.027 297.381 196.027 298.246C196.027 299.111 195.733 299.82 195.145 300.373C194.592 300.892 193.865 301.152 192.966 301.152H175.167C174.06 301.152 173.195 300.702 172.572 299.803C172.157 299.215 171.984 298.54 172.053 297.779C172.123 297.018 172.486 296.395 173.143 295.911L186.064 285.999C187.379 284.996 188.365 283.993 189.022 282.99C189.679 281.986 190.008 280.741 190.008 279.253C190.008 277.282 189.437 275.69 188.296 274.479C187.154 273.269 185.58 272.663 183.573 272.663C181.671 272.663 180.131 273.199 178.955 274.272C177.779 275.344 177.191 276.832 177.191 278.735C177.191 280.084 177.623 281.295 178.488 282.367C179.56 283.889 179.543 285.204 178.436 286.311C177.779 286.968 177.121 287.297 176.464 287.297C175.772 287.297 175.046 286.951 174.285 286.259C173.281 285.325 172.52 284.27 172.001 283.093C171.483 281.917 171.223 280.568 171.223 279.046ZM204.602 284.183C204.602 281.969 204.896 279.824 205.484 277.749C206.072 275.638 206.972 273.788 208.183 272.196C209.394 270.57 210.898 269.273 212.697 268.304C214.531 267.336 216.658 266.851 219.08 266.851C221.536 266.851 223.664 267.336 225.463 268.304C227.262 269.273 228.766 270.57 229.977 272.196C231.188 273.788 232.088 275.638 232.676 277.749C233.264 279.824 233.558 281.969 233.558 284.183C233.558 286.397 233.264 288.559 232.676 290.67C232.088 292.745 231.188 294.596 229.977 296.222C228.766 297.813 227.262 299.093 225.463 300.062C223.664 301.031 221.536 301.532 219.08 301.567C216.658 301.602 214.531 301.135 212.697 300.166C210.898 299.163 209.394 297.848 208.183 296.222C206.972 294.562 206.072 292.693 205.484 290.618C204.896 288.508 204.602 286.363 204.602 284.183ZM210.933 284.183C210.933 287.954 211.642 290.825 213.061 292.797C214.479 294.735 216.485 295.686 219.08 295.651C221.605 295.617 223.595 294.631 225.048 292.693C226.501 290.756 227.227 287.919 227.227 284.183C227.227 280.412 226.518 277.576 225.099 275.673C223.681 273.736 221.675 272.767 219.08 272.767C216.485 272.767 214.479 273.736 213.061 275.673C211.642 277.576 210.933 280.412 210.933 284.183ZM242.086 279.046C242.086 277.212 242.397 275.569 243.02 274.116C243.677 272.629 244.559 271.349 245.666 270.276C246.808 269.204 248.14 268.391 249.662 267.837C251.219 267.249 252.879 266.955 254.644 266.955C256.477 266.955 258.138 267.266 259.625 267.889C261.148 268.477 262.445 269.325 263.517 270.432C264.59 271.504 265.42 272.802 266.008 274.324C266.631 275.811 266.942 277.472 266.942 279.305C266.942 283.733 264.711 287.556 260.248 290.773L253.917 295.34H263.829C264.728 295.34 265.455 295.617 266.008 296.17C266.596 296.689 266.89 297.381 266.89 298.246C266.89 299.111 266.596 299.82 266.008 300.373C265.455 300.892 264.728 301.152 263.829 301.152H246.03C244.923 301.152 244.058 300.702 243.435 299.803C243.02 299.215 242.847 298.54 242.916 297.779C242.985 297.018 243.349 296.395 244.006 295.911L256.927 285.999C258.242 284.996 259.228 283.993 259.885 282.99C260.542 281.986 260.871 280.741 260.871 279.253C260.871 277.282 260.3 275.69 259.158 274.479C258.017 273.269 256.443 272.663 254.436 272.663C252.534 272.663 250.994 273.199 249.818 274.272C248.642 275.344 248.054 276.832 248.054 278.735C248.054 280.084 248.486 281.295 249.351 282.367C250.423 283.889 250.406 285.204 249.299 286.311C248.642 286.968 247.984 287.297 247.327 287.297C246.635 287.297 245.909 286.951 245.148 286.259C244.144 285.325 243.383 284.27 242.864 283.093C242.345 281.917 242.086 280.568 242.086 279.046ZM277.852 293.524C278.475 292.901 279.132 292.59 279.824 292.59C280.55 292.59 281.242 292.901 281.9 293.524C282.384 293.939 282.816 294.302 283.197 294.613C283.612 294.925 284.027 295.167 284.442 295.34C284.857 295.513 285.307 295.651 285.791 295.755C286.31 295.824 286.899 295.859 287.556 295.859C291.603 295.859 293.627 294.302 293.627 291.189C293.627 289.736 293.16 288.611 292.226 287.816C291.327 286.985 289.943 286.57 288.075 286.57H287.296C286.431 286.57 285.722 286.311 285.169 285.792C284.65 285.273 284.39 284.581 284.39 283.716C284.39 282.886 284.65 282.229 285.169 281.744C285.722 281.225 286.431 280.966 287.296 280.966H287.66C289.009 280.966 290.133 280.603 291.033 279.876C291.967 279.15 292.434 278.129 292.434 276.815C292.434 275.742 292.036 274.773 291.24 273.909C290.444 273.009 289.32 272.559 287.867 272.559C286.76 272.559 285.826 272.819 285.065 273.338C284.339 273.857 283.664 274.549 283.041 275.413C282.419 276.278 281.709 276.711 280.914 276.711C280.326 276.711 279.72 276.503 279.097 276.088C277.506 275.05 277.212 273.666 278.215 271.937C279.046 270.484 280.308 269.273 282.003 268.304C283.733 267.336 285.705 266.851 287.919 266.851C289.476 266.851 290.894 267.076 292.174 267.526C293.454 267.976 294.596 268.702 295.599 269.705C297.571 271.608 298.557 273.788 298.557 276.244C298.557 278.769 297.554 281.035 295.547 283.042C298.349 285.048 299.75 287.85 299.75 291.448C299.75 293.005 299.456 294.406 298.868 295.651C298.315 296.897 297.502 297.969 296.429 298.869C295.391 299.733 294.129 300.408 292.641 300.892C291.188 301.342 289.545 301.567 287.711 301.567C285.532 301.567 283.543 301.238 281.744 300.581C279.945 299.889 278.579 298.938 277.644 297.727C276.468 296.239 276.537 294.838 277.852 293.524Z"/>
</mask>
<path d="M171.223 279.046C171.223 277.212 171.534 275.569 172.157 274.116C172.814 272.629 173.697 271.349 174.804 270.276C175.945 269.204 177.277 268.391 178.799 267.837C180.356 267.249 182.017 266.955 183.781 266.955C185.614 266.955 187.275 267.266 188.763 267.889C190.285 268.477 191.582 269.325 192.654 270.432C193.727 271.504 194.557 272.802 195.145 274.324C195.768 275.811 196.079 277.472 196.079 279.305C196.079 283.733 193.848 287.556 189.385 290.773L183.054 295.34H192.966C193.865 295.34 194.592 295.617 195.145 296.17C195.733 296.689 196.027 297.381 196.027 298.246C196.027 299.111 195.733 299.82 195.145 300.373C194.592 300.892 193.865 301.152 192.966 301.152H175.167C174.06 301.152 173.195 300.702 172.572 299.803C172.157 299.215 171.984 298.54 172.053 297.779C172.123 297.018 172.486 296.395 173.143 295.911L186.064 285.999C187.379 284.996 188.365 283.993 189.022 282.99C189.679 281.986 190.008 280.741 190.008 279.253C190.008 277.282 189.437 275.69 188.296 274.479C187.154 273.269 185.58 272.663 183.573 272.663C181.671 272.663 180.131 273.199 178.955 274.272C177.779 275.344 177.191 276.832 177.191 278.735C177.191 280.084 177.623 281.295 178.488 282.367C179.56 283.889 179.543 285.204 178.436 286.311C177.779 286.968 177.121 287.297 176.464 287.297C175.772 287.297 175.046 286.951 174.285 286.259C173.281 285.325 172.52 284.27 172.001 283.093C171.483 281.917 171.223 280.568 171.223 279.046ZM204.602 284.183C204.602 281.969 204.896 279.824 205.484 277.749C206.072 275.638 206.972 273.788 208.183 272.196C209.394 270.57 210.898 269.273 212.697 268.304C214.531 267.336 216.658 266.851 219.08 266.851C221.536 266.851 223.664 267.336 225.463 268.304C227.262 269.273 228.766 270.57 229.977 272.196C231.188 273.788 232.088 275.638 232.676 277.749C233.264 279.824 233.558 281.969 233.558 284.183C233.558 286.397 233.264 288.559 232.676 290.67C232.088 292.745 231.188 294.596 229.977 296.222C228.766 297.813 227.262 299.093 225.463 300.062C223.664 301.031 221.536 301.532 219.08 301.567C216.658 301.602 214.531 301.135 212.697 300.166C210.898 299.163 209.394 297.848 208.183 296.222C206.972 294.562 206.072 292.693 205.484 290.618C204.896 288.508 204.602 286.363 204.602 284.183ZM210.933 284.183C210.933 287.954 211.642 290.825 213.061 292.797C214.479 294.735 216.485 295.686 219.08 295.651C221.605 295.617 223.595 294.631 225.048 292.693C226.501 290.756 227.227 287.919 227.227 284.183C227.227 280.412 226.518 277.576 225.099 275.673C223.681 273.736 221.675 272.767 219.08 272.767C216.485 272.767 214.479 273.736 213.061 275.673C211.642 277.576 210.933 280.412 210.933 284.183ZM242.086 279.046C242.086 277.212 242.397 275.569 243.02 274.116C243.677 272.629 244.559 271.349 245.666 270.276C246.808 269.204 248.14 268.391 249.662 267.837C251.219 267.249 252.879 266.955 254.644 266.955C256.477 266.955 258.138 267.266 259.625 267.889C261.148 268.477 262.445 269.325 263.517 270.432C264.59 271.504 265.42 272.802 266.008 274.324C266.631 275.811 266.942 277.472 266.942 279.305C266.942 283.733 264.711 287.556 260.248 290.773L253.917 295.34H263.829C264.728 295.34 265.455 295.617 266.008 296.17C266.596 296.689 266.89 297.381 266.89 298.246C266.89 299.111 266.596 299.82 266.008 300.373C265.455 300.892 264.728 301.152 263.829 301.152H246.03C244.923 301.152 244.058 300.702 243.435 299.803C243.02 299.215 242.847 298.54 242.916 297.779C242.985 297.018 243.349 296.395 244.006 295.911L256.927 285.999C258.242 284.996 259.228 283.993 259.885 282.99C260.542 281.986 260.871 280.741 260.871 279.253C260.871 277.282 260.3 275.69 259.158 274.479C258.017 273.269 256.443 272.663 254.436 272.663C252.534 272.663 250.994 273.199 249.818 274.272C248.642 275.344 248.054 276.832 248.054 278.735C248.054 280.084 248.486 281.295 249.351 282.367C250.423 283.889 250.406 285.204 249.299 286.311C248.642 286.968 247.984 287.297 247.327 287.297C246.635 287.297 245.909 286.951 245.148 286.259C244.144 285.325 243.383 284.27 242.864 283.093C242.345 281.917 242.086 280.568 242.086 279.046ZM277.852 293.524C278.475 292.901 279.132 292.59 279.824 292.59C280.55 292.59 281.242 292.901 281.9 293.524C282.384 293.939 282.816 294.302 283.197 294.613C283.612 294.925 284.027 295.167 284.442 295.34C284.857 295.513 285.307 295.651 285.791 295.755C286.31 295.824 286.899 295.859 287.556 295.859C291.603 295.859 293.627 294.302 293.627 291.189C293.627 289.736 293.16 288.611 292.226 287.816C291.327 286.985 289.943 286.57 288.075 286.57H287.296C286.431 286.57 285.722 286.311 285.169 285.792C284.65 285.273 284.39 284.581 284.39 283.716C284.39 282.886 284.65 282.229 285.169 281.744C285.722 281.225 286.431 280.966 287.296 280.966H287.66C289.009 280.966 290.133 280.603 291.033 279.876C291.967 279.15 292.434 278.129 292.434 276.815C292.434 275.742 292.036 274.773 291.24 273.909C290.444 273.009 289.32 272.559 287.867 272.559C286.76 272.559 285.826 272.819 285.065 273.338C284.339 273.857 283.664 274.549 283.041 275.413C282.419 276.278 281.709 276.711 280.914 276.711C280.326 276.711 279.72 276.503 279.097 276.088C277.506 275.05 277.212 273.666 278.215 271.937C279.046 270.484 280.308 269.273 282.003 268.304C283.733 267.336 285.705 266.851 287.919 266.851C289.476 266.851 290.894 267.076 292.174 267.526C293.454 267.976 294.596 268.702 295.599 269.705C297.571 271.608 298.557 273.788 298.557 276.244C298.557 278.769 297.554 281.035 295.547 283.042C298.349 285.048 299.75 287.85 299.75 291.448C299.75 293.005 299.456 294.406 298.868 295.651C298.315 296.897 297.502 297.969 296.429 298.869C295.391 299.733 294.129 300.408 292.641 300.892C291.188 301.342 289.545 301.567 287.711 301.567C285.532 301.567 283.543 301.238 281.744 300.581C279.945 299.889 278.579 298.938 277.644 297.727C276.468 296.239 276.537 294.838 277.852 293.524Z" fill="white"/>
<path d="M172.157 274.116L170.971 273.592L170.968 273.598L170.965 273.605L172.157 274.116ZM174.804 270.276L173.915 269.331L173.908 269.337L173.901 269.344L174.804 270.276ZM178.799 267.837L179.243 269.056L179.25 269.054L179.258 269.051L178.799 267.837ZM188.763 267.889L188.262 269.086L188.278 269.093L188.295 269.099L188.763 267.889ZM192.654 270.432L191.723 271.335L191.73 271.342L191.737 271.349L192.654 270.432ZM195.145 274.324L193.935 274.791L193.942 274.808L193.949 274.825L195.145 274.324ZM189.385 290.773L188.627 289.721L188.626 289.721L189.385 290.773ZM183.054 295.34L182.296 294.288L179.038 296.637H183.054V295.34ZM195.145 296.17L194.228 297.088L194.257 297.116L194.287 297.143L195.145 296.17ZM195.145 300.373L196.033 301.32L196.034 301.318L195.145 300.373ZM172.572 299.803L173.639 299.064L173.632 299.055L172.572 299.803ZM172.053 297.779L170.761 297.661V297.661L172.053 297.779ZM173.143 295.911L173.913 296.955L173.923 296.948L173.933 296.94L173.143 295.911ZM186.064 285.999L185.277 284.968L185.275 284.97L186.064 285.999ZM189.022 282.99L187.937 282.279V282.279L189.022 282.99ZM188.296 274.479L187.352 275.369V275.369L188.296 274.479ZM178.955 274.272L179.829 275.23H179.829L178.955 274.272ZM178.488 282.367L179.548 281.62L179.524 281.585L179.498 281.553L178.488 282.367ZM178.436 286.311L179.353 287.228L178.436 286.311ZM174.285 286.259L173.401 287.208L173.406 287.214L173.412 287.219L174.285 286.259ZM172.001 283.093L170.815 283.617V283.617L172.001 283.093ZM171.223 279.046H172.52C172.52 277.36 172.806 275.895 173.35 274.627L172.157 274.116L170.965 273.605C170.263 275.243 169.926 277.065 169.926 279.046H171.223ZM172.157 274.116L173.344 274.64C173.937 273.297 174.726 272.158 175.706 271.208L174.804 270.276L173.901 269.344C172.667 270.539 171.692 271.96 170.971 273.592L172.157 274.116ZM174.804 270.276L175.692 271.222C176.701 270.274 177.88 269.552 179.243 269.056L178.799 267.837L178.356 266.618C176.674 267.23 175.19 268.134 173.915 269.331L174.804 270.276ZM178.799 267.837L179.258 269.051C180.659 268.521 182.164 268.252 183.781 268.252V266.955V265.658C181.87 265.658 180.053 265.977 178.341 266.624L178.799 267.837ZM183.781 266.955V268.252C185.466 268.252 186.953 268.538 188.262 269.086L188.763 267.889L189.263 266.692C187.597 265.995 185.763 265.658 183.781 265.658V266.955ZM188.763 267.889L188.295 269.099C189.653 269.624 190.789 270.37 191.723 271.335L192.654 270.432L193.586 269.529C192.376 268.279 190.917 267.331 189.23 266.679L188.763 267.889ZM192.654 270.432L191.737 271.349C192.672 272.284 193.407 273.425 193.935 274.791L195.145 274.324L196.355 273.856C195.707 272.178 194.782 270.724 193.572 269.515L192.654 270.432ZM195.145 274.324L193.949 274.825C194.496 276.133 194.782 277.62 194.782 279.305H196.079H197.377C197.377 277.323 197.04 275.489 196.342 273.823L195.145 274.324ZM196.079 279.305H194.782C194.782 283.215 192.843 286.682 188.627 289.721L189.385 290.773L190.144 291.826C194.853 288.431 197.377 284.252 197.377 279.305H196.079ZM189.385 290.773L188.626 289.721L182.296 294.288L183.054 295.34L183.813 296.392L190.144 291.826L189.385 290.773ZM183.054 295.34V296.637H192.966V295.34V294.043H183.054V295.34ZM192.966 295.34V296.637C193.577 296.637 193.954 296.814 194.228 297.088L195.145 296.17L196.063 295.253C195.229 294.419 194.154 294.043 192.966 294.043V295.34ZM195.145 296.17L194.287 297.143C194.565 297.389 194.73 297.71 194.73 298.246H196.027H197.325C197.325 297.052 196.901 295.99 196.004 295.197L195.145 296.17ZM196.027 298.246H194.73C194.73 298.781 194.564 299.139 194.256 299.429L195.145 300.373L196.034 301.318C196.903 300.501 197.325 299.44 197.325 298.246H196.027ZM195.145 300.373L194.258 299.427C193.989 299.68 193.601 299.855 192.966 299.855V301.152V302.449C194.13 302.449 195.195 302.105 196.033 301.32L195.145 300.373ZM192.966 301.152V299.855H175.167V301.152V302.449H192.966V301.152ZM175.167 301.152V299.855C174.479 299.855 174.016 299.609 173.639 299.064L172.572 299.803L171.506 300.541C172.374 301.796 173.64 302.449 175.167 302.449V301.152ZM172.572 299.803L173.632 299.055C173.406 298.735 173.302 298.371 173.345 297.896L172.053 297.779L170.761 297.661C170.666 298.709 170.908 299.695 171.512 300.551L172.572 299.803ZM172.053 297.779L173.345 297.896C173.378 297.532 173.531 297.236 173.913 296.955L173.143 295.911L172.374 294.866C171.441 295.554 170.867 296.503 170.761 297.661L172.053 297.779ZM173.143 295.911L173.933 296.94L186.854 287.029L186.064 285.999L185.275 284.97L172.354 294.881L173.143 295.911ZM186.064 285.999L186.851 287.031C188.242 285.97 189.345 284.864 190.107 283.701L189.022 282.99L187.937 282.279C187.384 283.122 186.516 284.023 185.277 284.968L186.064 285.999ZM189.022 282.99L190.107 283.701C190.933 282.44 191.305 280.933 191.305 279.253H190.008H188.711C188.711 280.549 188.426 281.532 187.937 282.279L189.022 282.99ZM190.008 279.253H191.305C191.305 277.016 190.649 275.085 189.239 273.589L188.296 274.479L187.352 275.369C188.225 276.296 188.711 277.547 188.711 279.253H190.008ZM188.296 274.479L189.239 273.589C187.803 272.066 185.858 271.366 183.573 271.366V272.663V273.961C185.302 273.961 186.505 274.471 187.352 275.369L188.296 274.479ZM183.573 272.663V271.366C181.414 271.366 179.541 271.982 178.081 273.313L178.955 274.272L179.829 275.23C180.721 274.417 181.927 273.961 183.573 273.961V272.663ZM178.955 274.272L178.081 273.313C176.583 274.679 175.893 276.545 175.893 278.735H177.191H178.488C178.488 277.119 178.975 276.009 179.829 275.23L178.955 274.272ZM177.191 278.735H175.893C175.893 280.387 176.432 281.884 177.478 283.181L178.488 282.367L179.498 281.553C178.815 280.706 178.488 279.781 178.488 278.735H177.191ZM178.488 282.367L177.427 283.114C177.87 283.742 177.986 284.186 177.982 284.477C177.979 284.733 177.882 285.03 177.519 285.393L178.436 286.311L179.353 287.228C180.097 286.484 180.563 285.57 180.577 284.512C180.59 283.488 180.179 282.514 179.548 281.62L178.488 282.367ZM178.436 286.311L177.519 285.393C177.003 285.909 176.656 285.999 176.464 285.999V287.297V288.594C177.587 288.594 178.555 288.027 179.353 287.228L178.436 286.311ZM176.464 287.297V285.999C176.221 285.999 175.793 285.877 175.157 285.299L174.285 286.259L173.412 287.219C174.298 288.024 175.323 288.594 176.464 288.594V287.297ZM174.285 286.259L175.169 285.309C174.286 284.487 173.632 283.575 173.188 282.57L172.001 283.093L170.815 283.617C171.409 284.965 172.277 286.162 173.401 287.208L174.285 286.259ZM172.001 283.093L173.188 282.57C172.754 281.586 172.52 280.42 172.52 279.046H171.223H169.926C169.926 280.716 170.211 282.248 170.815 283.617L172.001 283.093ZM205.484 277.749L206.732 278.102L206.734 278.097L205.484 277.749ZM208.183 272.196L209.215 272.982L209.223 272.971L208.183 272.196ZM212.697 268.304L212.091 267.157L212.082 267.162L212.697 268.304ZM225.463 268.304L224.848 269.447L225.463 268.304ZM229.977 272.196L228.937 272.971L228.945 272.982L229.977 272.196ZM232.676 277.749L231.426 278.097L231.428 278.102L232.676 277.749ZM232.676 290.67L233.924 291.023L233.925 291.018L232.676 290.67ZM229.977 296.222L231.01 297.008L231.018 296.997L229.977 296.222ZM225.463 300.062L224.848 298.92V298.92L225.463 300.062ZM219.08 301.567L219.062 300.27L219.061 300.27L219.08 301.567ZM212.697 300.166L212.065 301.299L212.078 301.306L212.091 301.313L212.697 300.166ZM208.183 296.222L207.134 296.986L207.142 296.997L208.183 296.222ZM205.484 290.618L204.235 290.966L204.236 290.971L205.484 290.618ZM213.061 292.797L212.007 293.555L212.014 293.564L213.061 292.797ZM219.08 295.651L219.097 296.948L219.098 296.948L219.08 295.651ZM225.048 292.693L226.085 293.472V293.472L225.048 292.693ZM225.099 275.673L224.053 276.439L224.059 276.448L225.099 275.673ZM213.061 275.673L214.101 276.448L214.107 276.439L213.061 275.673ZM204.602 284.183H205.899C205.899 282.086 206.178 280.06 206.732 278.102L205.484 277.749L204.236 277.395C203.615 279.589 203.305 281.853 203.305 284.183H204.602ZM205.484 277.749L206.734 278.097C207.282 276.13 208.113 274.43 209.215 272.982L208.183 272.196L207.15 271.411C205.831 273.145 204.863 275.147 204.235 277.4L205.484 277.749ZM208.183 272.196L209.223 272.971C210.32 271.498 211.679 270.326 213.312 269.447L212.697 268.304L212.082 267.162C210.118 268.22 208.467 269.642 207.142 271.421L208.183 272.196ZM212.697 268.304L213.303 269.451C214.921 268.597 216.834 268.149 219.08 268.149V266.851V265.554C216.483 265.554 214.141 266.075 212.091 267.157L212.697 268.304ZM219.08 266.851V268.149C221.365 268.149 223.272 268.598 224.848 269.447L225.463 268.304L226.078 267.162C224.055 266.073 221.708 265.554 219.08 265.554V266.851ZM225.463 268.304L224.848 269.447C226.481 270.326 227.84 271.498 228.937 272.971L229.977 272.196L231.018 271.421C229.693 269.642 228.042 268.22 226.078 267.162L225.463 268.304ZM229.977 272.196L228.945 272.982C230.047 274.43 230.878 276.13 231.426 278.097L232.676 277.749L233.925 277.4C233.297 275.147 232.329 273.145 231.01 271.411L229.977 272.196ZM232.676 277.749L231.428 278.102C231.982 280.06 232.261 282.086 232.261 284.183H233.558H234.855C234.855 281.853 234.545 279.589 233.924 277.395L232.676 277.749ZM233.558 284.183H232.261C232.261 286.281 231.982 288.326 231.426 290.321L232.676 290.67L233.925 291.018C234.545 288.793 234.855 286.514 234.855 284.183H233.558ZM232.676 290.67L231.428 290.316C230.88 292.25 230.047 293.956 228.937 295.447L229.977 296.222L231.018 296.997C232.329 295.236 233.295 293.241 233.924 291.023L232.676 290.67ZM229.977 296.222L228.945 295.437C227.849 296.877 226.487 298.037 224.848 298.92L225.463 300.062L226.078 301.204C228.036 300.15 229.684 298.75 231.01 297.008L229.977 296.222ZM225.463 300.062L224.848 298.92C223.266 299.772 221.351 300.238 219.062 300.27L219.08 301.567L219.098 302.864C221.721 302.827 224.062 302.29 226.078 301.204L225.463 300.062ZM219.08 301.567L219.061 300.27C216.821 300.302 214.914 299.87 213.303 299.019L212.697 300.166L212.091 301.313C214.147 302.399 216.496 302.901 219.099 302.864L219.08 301.567ZM212.697 300.166L213.329 299.033C211.688 298.117 210.323 296.924 209.223 295.447L208.183 296.222L207.142 296.997C208.464 298.772 210.109 300.208 212.065 301.299L212.697 300.166ZM208.183 296.222L209.231 295.458C208.115 293.927 207.281 292.2 206.732 290.264L205.484 290.618L204.236 290.971C204.864 293.187 205.829 295.196 207.134 296.986L208.183 296.222ZM205.484 290.618L206.734 290.27C206.177 288.272 205.899 286.244 205.899 284.183H204.602H203.305C203.305 286.481 203.615 288.743 204.235 290.966L205.484 290.618ZM210.933 284.183H209.636C209.636 288.086 210.364 291.271 212.007 293.555L213.061 292.797L214.114 292.04C212.92 290.38 212.23 287.822 212.23 284.183H210.933ZM213.061 292.797L212.014 293.564C213.703 295.87 216.123 296.988 219.097 296.948L219.08 295.651L219.063 294.354C216.848 294.384 215.255 293.599 214.107 292.031L213.061 292.797ZM219.08 295.651L219.098 296.948C222.005 296.909 224.379 295.747 226.085 293.472L225.048 292.693L224.01 291.915C222.81 293.515 221.206 294.325 219.062 294.354L219.08 295.651ZM225.048 292.693L226.085 293.472C227.776 291.218 228.524 288.057 228.524 284.183H227.227H225.93C225.93 287.782 225.225 290.295 224.01 291.915L225.048 292.693ZM227.227 284.183H228.524C228.524 280.286 227.798 277.122 226.14 274.898L225.099 275.673L224.059 276.448C225.238 278.03 225.93 280.539 225.93 284.183H227.227ZM225.099 275.673L226.146 274.907C224.461 272.605 222.049 271.47 219.08 271.47V272.767V274.064C221.3 274.064 222.901 274.866 224.053 276.439L225.099 275.673ZM219.08 272.767V271.47C216.111 271.47 213.699 272.605 212.014 274.907L213.061 275.673L214.107 276.439C215.259 274.866 216.86 274.064 219.08 274.064V272.767ZM213.061 275.673L212.02 274.898C210.362 277.122 209.636 280.286 209.636 284.183H210.933H212.23C212.23 280.539 212.922 278.03 214.101 276.448L213.061 275.673ZM243.02 274.116L241.833 273.592L241.83 273.598L241.828 273.605L243.02 274.116ZM245.666 270.276L244.778 269.331L244.771 269.337L244.764 269.344L245.666 270.276ZM249.662 267.837L250.105 269.056L250.113 269.054L250.121 269.051L249.662 267.837ZM259.625 267.889L259.124 269.086L259.141 269.093L259.158 269.099L259.625 267.889ZM263.517 270.432L262.586 271.335L262.593 271.342L262.6 271.349L263.517 270.432ZM266.008 274.324L264.798 274.791L264.804 274.808L264.811 274.825L266.008 274.324ZM260.248 290.773L259.489 289.721L259.489 289.721L260.248 290.773ZM253.917 295.34L253.158 294.288L249.901 296.637H253.917V295.34ZM266.008 296.17L265.091 297.088L265.119 297.116L265.15 297.143L266.008 296.17ZM266.008 300.373L266.895 301.32L266.897 301.318L266.008 300.373ZM243.435 299.803L244.502 299.064L244.495 299.055L243.435 299.803ZM242.916 297.779L241.624 297.661V297.661L242.916 297.779ZM244.006 295.911L244.775 296.955L244.786 296.948L244.796 296.94L244.006 295.911ZM256.927 285.999L256.14 284.968L256.137 284.97L256.927 285.999ZM259.885 282.99L258.8 282.279V282.279L259.885 282.99ZM259.158 274.479L258.214 275.369V275.369L259.158 274.479ZM249.818 274.272L250.692 275.23V275.23L249.818 274.272ZM249.351 282.367L250.411 281.62L250.387 281.585L250.361 281.553L249.351 282.367ZM249.299 286.311L250.216 287.228L249.299 286.311ZM245.148 286.259L244.264 287.208L244.269 287.214L244.275 287.219L245.148 286.259ZM242.864 283.093L241.677 283.617V283.617L242.864 283.093ZM242.086 279.046H243.383C243.383 277.36 243.669 275.895 244.212 274.627L243.02 274.116L241.828 273.605C241.126 275.243 240.789 277.065 240.789 279.046H242.086ZM243.02 274.116L244.207 274.64C244.8 273.297 245.589 272.158 246.569 271.208L245.666 270.276L244.764 269.344C243.53 270.539 242.554 271.96 241.833 273.592L243.02 274.116ZM245.666 270.276L246.555 271.222C247.564 270.274 248.743 269.552 250.105 269.056L249.662 267.837L249.219 266.618C247.537 267.23 246.052 268.134 244.778 269.331L245.666 270.276ZM249.662 267.837L250.121 269.051C251.522 268.521 253.027 268.252 254.644 268.252V266.955V265.658C252.732 265.658 250.916 265.977 249.204 266.624L249.662 267.837ZM254.644 266.955V268.252C256.329 268.252 257.816 268.538 259.124 269.086L259.625 267.889L260.126 266.692C258.46 265.995 256.626 265.658 254.644 265.658V266.955ZM259.625 267.889L259.158 269.099C260.515 269.624 261.651 270.37 262.586 271.335L263.517 270.432L264.449 269.529C263.238 268.279 261.78 267.331 260.093 266.679L259.625 267.889ZM263.517 270.432L262.6 271.349C263.535 272.284 264.27 273.425 264.798 274.791L266.008 274.324L267.218 273.856C266.57 272.178 265.644 270.724 264.435 269.515L263.517 270.432ZM266.008 274.324L264.811 274.825C265.359 276.133 265.645 277.62 265.645 279.305H266.942H268.239C268.239 277.323 267.902 275.489 267.205 273.823L266.008 274.324ZM266.942 279.305H265.645C265.645 283.215 263.706 286.682 259.489 289.721L260.248 290.773L261.007 291.826C265.716 288.431 268.239 284.252 268.239 279.305H266.942ZM260.248 290.773L259.489 289.721L253.158 294.288L253.917 295.34L254.676 296.392L261.007 291.826L260.248 290.773ZM253.917 295.34V296.637H263.829V295.34V294.043H253.917V295.34ZM263.829 295.34V296.637C264.44 296.637 264.817 296.814 265.091 297.088L266.008 296.17L266.925 295.253C266.092 294.419 265.017 294.043 263.829 294.043V295.34ZM266.008 296.17L265.15 297.143C265.428 297.389 265.593 297.71 265.593 298.246H266.89H268.188C268.188 297.052 267.764 295.99 266.866 295.197L266.008 296.17ZM266.89 298.246H265.593C265.593 298.781 265.427 299.139 265.119 299.429L266.008 300.373L266.897 301.318C267.766 300.501 268.188 299.44 268.188 298.246H266.89ZM266.008 300.373L265.121 299.427C264.851 299.68 264.464 299.855 263.829 299.855V301.152V302.449C264.993 302.449 266.058 302.105 266.895 301.32L266.008 300.373ZM263.829 301.152V299.855H246.03V301.152V302.449H263.829V301.152ZM246.03 301.152V299.855C245.342 299.855 244.879 299.609 244.502 299.064L243.435 299.803L242.368 300.541C243.237 301.796 244.503 302.449 246.03 302.449V301.152ZM243.435 299.803L244.495 299.055C244.269 298.735 244.165 298.371 244.208 297.896L242.916 297.779L241.624 297.661C241.529 298.709 241.771 299.695 242.375 300.551L243.435 299.803ZM242.916 297.779L244.208 297.896C244.241 297.532 244.394 297.236 244.775 296.955L244.006 295.911L243.236 294.866C242.303 295.554 241.73 296.503 241.624 297.661L242.916 297.779ZM244.006 295.911L244.796 296.94L257.717 287.029L256.927 285.999L256.137 284.97L243.216 294.881L244.006 295.911ZM256.927 285.999L257.714 287.031C259.104 285.97 260.208 284.864 260.97 283.701L259.885 282.99L258.8 282.279C258.247 283.122 257.379 284.023 256.14 284.968L256.927 285.999ZM259.885 282.99L260.97 283.701C261.796 282.44 262.168 280.933 262.168 279.253H260.871H259.574C259.574 280.549 259.289 281.532 258.8 282.279L259.885 282.99ZM260.871 279.253H262.168C262.168 277.016 261.512 275.085 260.102 273.589L259.158 274.479L258.214 275.369C259.088 276.296 259.574 277.547 259.574 279.253H260.871ZM259.158 274.479L260.102 273.589C258.666 272.066 256.721 271.366 254.436 271.366V272.663V273.961C256.165 273.961 257.368 274.471 258.214 275.369L259.158 274.479ZM254.436 272.663V271.366C252.277 271.366 250.404 271.982 248.944 273.313L249.818 274.272L250.692 275.23C251.584 274.417 252.79 273.961 254.436 273.961V272.663ZM249.818 274.272L248.944 273.313C247.446 274.679 246.756 276.545 246.756 278.735H248.054H249.351C249.351 277.119 249.838 276.009 250.692 275.23L249.818 274.272ZM248.054 278.735H246.756C246.756 280.387 247.294 281.884 248.341 283.181L249.351 282.367L250.361 281.553C249.678 280.706 249.351 279.781 249.351 278.735H248.054ZM249.351 282.367L248.29 283.114C248.732 283.742 248.849 284.186 248.845 284.477C248.842 284.733 248.745 285.03 248.382 285.393L249.299 286.311L250.216 287.228C250.96 286.484 251.425 285.57 251.439 284.512C251.453 283.488 251.042 282.514 250.411 281.62L249.351 282.367ZM249.299 286.311L248.382 285.393C247.866 285.909 247.519 285.999 247.327 285.999V287.297V288.594C248.45 288.594 249.418 288.027 250.216 287.228L249.299 286.311ZM247.327 287.297V285.999C247.084 285.999 246.656 285.877 246.02 285.299L245.148 286.259L244.275 287.219C245.161 288.024 246.186 288.594 247.327 288.594V287.297ZM245.148 286.259L246.032 285.309C245.148 284.487 244.494 283.575 244.051 282.57L242.864 283.093L241.677 283.617C242.272 284.965 243.14 286.162 244.264 287.208L245.148 286.259ZM242.864 283.093L244.051 282.57C243.617 281.586 243.383 280.42 243.383 279.046H242.086H240.789C240.789 280.716 241.074 282.248 241.677 283.617L242.864 283.093ZM277.852 293.524L278.769 294.441V294.441L277.852 293.524ZM281.9 293.524L281.007 294.466L281.031 294.488L281.055 294.509L281.9 293.524ZM283.197 294.613L282.375 295.618L282.397 295.635L282.419 295.651L283.197 294.613ZM284.442 295.34L283.943 296.537V296.537L284.442 295.34ZM285.791 295.755L285.52 297.024L285.569 297.034L285.62 297.041L285.791 295.755ZM292.226 287.816L291.346 288.769L291.365 288.786L291.385 288.803L292.226 287.816ZM285.169 285.792L284.251 286.709L284.266 286.724L284.282 286.738L285.169 285.792ZM285.169 281.744L286.054 282.693L286.056 282.691L285.169 281.744ZM291.033 279.876L290.236 278.852L290.227 278.859L290.217 278.867L291.033 279.876ZM291.24 273.909L290.268 274.768L290.277 274.778L290.285 274.787L291.24 273.909ZM285.065 273.338L284.334 272.266L284.322 272.274L284.311 272.282L285.065 273.338ZM283.041 275.413L281.988 274.655V274.655L283.041 275.413ZM279.097 276.088L279.817 275.009L279.806 275.001L279.097 276.088ZM278.215 271.937L279.337 272.588L279.342 272.58L278.215 271.937ZM282.003 268.304L281.369 267.172L281.36 267.178L282.003 268.304ZM292.174 267.526L291.744 268.75H291.744L292.174 267.526ZM295.599 269.705L294.682 270.623L294.69 270.631L294.698 270.639L295.599 269.705ZM295.547 283.042L294.63 282.124L293.548 283.206L294.792 284.096L295.547 283.042ZM298.868 295.651L297.695 295.097L297.689 295.111L297.683 295.124L298.868 295.651ZM296.429 298.869L297.26 299.865L297.263 299.863L296.429 298.869ZM292.641 300.892L293.025 302.132L293.034 302.129L293.043 302.126L292.641 300.892ZM281.744 300.581L281.278 301.792L281.288 301.796L281.299 301.8L281.744 300.581ZM277.644 297.727L278.672 296.935L278.667 296.928L278.662 296.922L277.644 297.727ZM277.852 293.524L278.769 294.441C279.218 293.992 279.563 293.887 279.824 293.887V292.59V291.292C278.701 291.292 277.731 291.81 276.935 292.606L277.852 293.524ZM279.824 292.59V293.887C280.142 293.887 280.529 294.012 281.007 294.466L281.9 293.524L282.792 292.582C281.956 291.79 280.959 291.292 279.824 291.292V292.59ZM281.9 293.524L281.055 294.509C281.545 294.929 281.985 295.298 282.375 295.618L283.197 294.613L284.018 293.609C283.647 293.306 283.223 292.949 282.744 292.539L281.9 293.524ZM283.197 294.613L282.419 295.651C282.907 296.018 283.415 296.317 283.943 296.537L284.442 295.34L284.941 294.142C284.639 294.017 284.317 293.832 283.975 293.576L283.197 294.613ZM284.442 295.34L283.943 296.537C284.439 296.744 284.965 296.905 285.52 297.024L285.791 295.755L286.063 294.487C285.649 294.398 285.276 294.282 284.941 294.142L284.442 295.34ZM285.791 295.755L285.62 297.041C286.208 297.119 286.855 297.156 287.556 297.156V295.859V294.562C286.942 294.562 286.413 294.529 285.963 294.469L285.791 295.755ZM287.556 295.859V297.156C289.71 297.156 291.563 296.748 292.9 295.72C294.302 294.641 294.924 293.05 294.924 291.189H293.627H292.33C292.33 292.441 291.94 293.185 291.318 293.663C290.632 294.191 289.45 294.562 287.556 294.562V295.859ZM293.627 291.189H294.924C294.924 289.433 294.345 287.916 293.067 286.828L292.226 287.816L291.385 288.803C291.975 289.306 292.33 290.038 292.33 291.189H293.627ZM292.226 287.816L293.106 286.862C291.868 285.719 290.103 285.273 288.075 285.273V286.57V287.868C289.783 287.868 290.786 288.251 291.346 288.769L292.226 287.816ZM288.075 286.57V285.273H287.296V286.57V287.868H288.075V286.57ZM287.296 286.57V285.273C286.711 285.273 286.335 285.107 286.056 284.845L285.169 285.792L284.282 286.738C285.109 287.514 286.152 287.868 287.296 287.868V286.57ZM285.169 285.792L286.086 284.875C285.854 284.642 285.688 284.303 285.688 283.716H284.39H283.093C283.093 284.859 283.446 285.904 284.251 286.709L285.169 285.792ZM284.39 283.716H285.688C285.688 283.179 285.843 282.89 286.054 282.693L285.169 281.744L284.284 280.796C283.457 281.568 283.093 282.593 283.093 283.716H284.39ZM285.169 281.744L286.056 282.691C286.335 282.429 286.711 282.263 287.296 282.263V280.966V279.669C286.152 279.669 285.109 280.022 284.281 280.798L285.169 281.744ZM287.296 280.966V282.263H287.66V280.966V279.669H287.296V280.966ZM287.66 280.966V282.263C289.254 282.263 290.68 281.828 291.848 280.885L291.033 279.876L290.217 278.867C289.586 279.377 288.764 279.669 287.66 279.669V280.966ZM291.033 279.876L291.829 280.9C293.117 279.898 293.731 278.479 293.731 276.815H292.434H291.136C291.136 277.78 290.816 278.401 290.236 278.852L291.033 279.876ZM292.434 276.815H293.731C293.731 275.384 293.188 274.11 292.195 273.03L291.24 273.909L290.285 274.787C290.884 275.437 291.136 276.1 291.136 276.815H292.434ZM291.24 273.909L292.212 273.049C291.119 271.813 289.607 271.262 287.867 271.262V272.559V273.857C289.033 273.857 289.77 274.205 290.268 274.768L291.24 273.909ZM287.867 272.559V271.262C286.553 271.262 285.351 271.573 284.334 272.266L285.065 273.338L285.796 274.41C286.301 274.065 286.967 273.857 287.867 273.857V272.559ZM285.065 273.338L284.311 272.282C283.449 272.897 282.678 273.697 281.988 274.655L283.041 275.413L284.094 276.171C284.65 275.4 285.228 274.816 285.819 274.393L285.065 273.338ZM283.041 275.413L281.988 274.655C281.519 275.307 281.158 275.413 280.914 275.413V276.711V278.008C282.26 278.008 283.318 277.25 284.094 276.171L283.041 275.413ZM280.914 276.711V275.413C280.643 275.413 280.284 275.32 279.817 275.009L279.097 276.088L278.378 277.167C279.156 277.686 280.008 278.008 280.914 278.008V276.711ZM279.097 276.088L279.806 275.001C279.196 274.604 279.006 274.256 278.952 274.002C278.895 273.734 278.931 273.289 279.337 272.588L278.215 271.937L277.093 271.286C276.497 272.314 276.177 273.426 276.414 274.542C276.655 275.672 277.407 276.535 278.389 277.175L279.097 276.088ZM278.215 271.937L279.342 272.58C280.039 271.36 281.119 270.304 282.647 269.431L282.003 268.304L281.36 267.178C279.497 268.242 278.052 269.608 277.089 271.293L278.215 271.937ZM282.003 268.304L282.637 269.436C284.151 268.588 285.9 268.149 287.919 268.149V266.851V265.554C285.509 265.554 283.315 266.083 281.37 267.172L282.003 268.304ZM287.919 266.851V268.149C289.351 268.149 290.621 268.355 291.744 268.75L292.174 267.526L292.604 266.302C291.167 265.797 289.601 265.554 287.919 265.554V266.851ZM292.174 267.526L291.744 268.75C292.832 269.132 293.809 269.75 294.682 270.623L295.599 269.705L296.516 268.788C295.382 267.654 294.076 266.819 292.604 266.302L292.174 267.526ZM295.599 269.705L294.698 270.639C296.449 272.328 297.26 274.182 297.26 276.244H298.557H299.854C299.854 273.393 298.693 270.888 296.5 268.772L295.599 269.705ZM298.557 276.244H297.26C297.26 278.381 296.426 280.328 294.63 282.124L295.547 283.042L296.464 283.959C298.681 281.742 299.854 279.157 299.854 276.244H298.557ZM295.547 283.042L294.792 284.096C297.237 285.847 298.453 288.247 298.453 291.448H299.75H301.048C301.048 287.454 299.462 284.249 296.302 281.987L295.547 283.042ZM299.75 291.448H298.453C298.453 292.838 298.191 294.046 297.695 295.097L298.868 295.651L300.041 296.205C300.721 294.765 301.048 293.171 301.048 291.448H299.75ZM298.868 295.651L297.683 295.124C297.212 296.184 296.521 297.099 295.596 297.875L296.429 298.869L297.263 299.863C298.482 298.84 299.418 297.609 300.054 296.178L298.868 295.651ZM296.429 298.869L295.599 297.872C294.706 298.616 293.595 299.218 292.24 299.659L292.641 300.892L293.043 302.126C294.663 301.599 296.077 300.851 297.26 299.865L296.429 298.869ZM292.641 300.892L292.258 299.653C290.951 300.057 289.441 300.27 287.711 300.27V301.567V302.864C289.649 302.864 291.425 302.627 293.025 302.132L292.641 300.892ZM287.711 301.567V300.27C285.663 300.27 283.827 299.961 282.189 299.363L281.744 300.581L281.299 301.8C283.258 302.516 285.401 302.864 287.711 302.864V301.567ZM281.744 300.581L282.21 299.37C280.575 298.742 279.427 297.914 278.672 296.935L277.644 297.727L276.617 298.519C277.73 299.962 279.315 301.037 281.278 301.792L281.744 300.581ZM277.644 297.727L278.662 296.922C278.2 296.338 278.096 295.916 278.11 295.624C278.124 295.338 278.264 294.946 278.769 294.441L277.852 293.524L276.935 292.606C276.125 293.416 275.574 294.382 275.518 295.497C275.464 296.606 275.913 297.629 276.627 298.532L277.644 297.727Z" fill="white" mask="url(#path-4-outside-1_2016_116829)"/>
</svg>
