<svg width="388" height="420" viewBox="0 0 388 420" fill="none" xmlns="http://www.w3.org/2000/svg">
<path d="M175.106 116.895C172.326 119.653 168.009 119.959 164.313 118.63C155.513 115.465 145.855 116.904 139.018 122.687C126.514 133.29 125.8 152.539 137.067 164.083L193.163 221.592L249.255 164.086C260.5 152.54 259.78 133.289 247.274 122.686C237.307 114.257 221.337 115.066 210.817 125.865L198.961 137.996C195.779 141.25 190.514 141.25 187.333 137.996C184.241 134.832 184.296 129.789 187.456 126.692L193.147 121.116L199.308 114.813C200.86 113.219 202.509 111.757 204.236 110.432C219.972 98.349 242.221 97.5233 257.664 110.59C277.304 127.233 278.336 157.103 260.76 175.143L200.246 237.181C196.337 241.187 189.988 241.187 186.079 237.181L125.565 175.143C107.958 157.103 108.99 127.233 128.63 110.59C141.51 99.692 159.106 98.4576 173.732 105.358C178.262 107.495 178.654 113.377 175.106 116.895Z" fill="white"/>
<mask id="path-2-outside-1_2052_643" maskUnits="userSpaceOnUse" x="118.09" y="266.191" width="151" height="45" fill="black">
<rect fill="white" x="118.09" y="266.191" width="151" height="45"/>
<path d="M145.552 303.508C147.053 303.508 148.014 304.408 148.014 305.85C148.014 307.291 147.053 308.191 145.552 308.191H123.996C123.755 308.191 122.615 308.131 121.894 307.051C121.294 306.09 121.294 304.769 122.434 303.928L137.746 291.619C140.929 289.037 143.271 286.635 143.271 282.311C143.271 277.027 139.788 273.304 134.324 273.304C129.1 273.304 125.137 276.667 125.137 282.011C125.137 284.233 125.977 286.034 127.178 287.415C128.079 288.616 128.139 289.817 127.298 290.658C126.097 291.979 124.896 291.559 123.876 290.658C120.873 288.076 120.333 284.173 120.333 282.311C120.333 274.505 126.398 268.681 134.444 268.681C142.79 268.681 148.134 274.866 148.134 282.432C148.134 287.596 145.612 291.499 140.208 295.702L130.301 303.508H145.552ZM175.051 268.621C184.238 268.621 191.203 276.427 191.203 288.556C191.203 300.746 184.238 308.552 175.051 308.612C165.864 308.672 158.899 300.746 158.899 288.556C158.899 276.427 165.864 268.621 175.051 268.621ZM175.051 273.304C168.506 273.304 163.942 278.709 163.942 288.556C163.942 298.404 168.506 303.928 175.051 303.868C181.596 303.808 186.16 298.404 186.16 288.556C186.16 278.709 181.596 273.304 175.051 273.304ZM227.14 303.508C228.641 303.508 229.602 304.408 229.602 305.85C229.602 307.291 228.641 308.191 227.14 308.191H205.584C205.343 308.191 204.203 308.131 203.482 307.051C202.882 306.09 202.882 304.769 204.022 303.928L219.334 291.619C222.517 289.037 224.858 286.635 224.858 282.311C224.858 277.027 221.376 273.304 215.912 273.304C210.688 273.304 206.724 276.667 206.724 282.011C206.724 284.233 207.565 286.034 208.766 287.415C209.667 288.616 209.727 289.817 208.886 290.658C207.685 291.979 206.484 291.559 205.464 290.658C202.461 288.076 201.921 284.173 201.921 282.311C201.921 274.505 207.985 268.681 216.032 268.681C224.378 268.681 229.722 274.866 229.722 282.432C229.722 287.596 227.2 291.499 221.796 295.702L211.888 303.508H227.14ZM254.177 281.711C261.443 281.711 266.547 286.875 266.547 294.921C266.547 303.328 260.722 308.612 252.796 308.612C247.632 308.612 243.189 306.33 241.207 303.748C240.246 302.427 240.306 301.346 241.387 300.325C242.408 299.305 243.549 299.184 245.11 300.686C246.551 302.247 248.953 304.048 252.676 304.048C257.84 304.048 261.683 300.686 261.683 294.921C261.683 289.577 258.56 286.335 253.336 286.335C249.674 286.335 247.692 288.196 246.671 289.217C245.41 290.298 244.149 290.598 243.008 290.117C241.807 289.637 241.267 288.676 241.567 286.875L243.549 271.383C243.789 269.822 244.99 269.041 246.251 269.041H261.202C262.704 269.041 263.664 269.942 263.664 271.383C263.664 272.764 262.704 273.665 261.202 273.665H247.692L246.071 285.434C247.332 283.933 249.614 281.711 254.177 281.711Z"/>
</mask>
<path d="M145.552 303.508C147.053 303.508 148.014 304.408 148.014 305.85C148.014 307.291 147.053 308.191 145.552 308.191H123.996C123.755 308.191 122.615 308.131 121.894 307.051C121.294 306.09 121.294 304.769 122.434 303.928L137.746 291.619C140.929 289.037 143.271 286.635 143.271 282.311C143.271 277.027 139.788 273.304 134.324 273.304C129.1 273.304 125.137 276.667 125.137 282.011C125.137 284.233 125.977 286.034 127.178 287.415C128.079 288.616 128.139 289.817 127.298 290.658C126.097 291.979 124.896 291.559 123.876 290.658C120.873 288.076 120.333 284.173 120.333 282.311C120.333 274.505 126.398 268.681 134.444 268.681C142.79 268.681 148.134 274.866 148.134 282.432C148.134 287.596 145.612 291.499 140.208 295.702L130.301 303.508H145.552ZM175.051 268.621C184.238 268.621 191.203 276.427 191.203 288.556C191.203 300.746 184.238 308.552 175.051 308.612C165.864 308.672 158.899 300.746 158.899 288.556C158.899 276.427 165.864 268.621 175.051 268.621ZM175.051 273.304C168.506 273.304 163.942 278.709 163.942 288.556C163.942 298.404 168.506 303.928 175.051 303.868C181.596 303.808 186.16 298.404 186.16 288.556C186.16 278.709 181.596 273.304 175.051 273.304ZM227.14 303.508C228.641 303.508 229.602 304.408 229.602 305.85C229.602 307.291 228.641 308.191 227.14 308.191H205.584C205.343 308.191 204.203 308.131 203.482 307.051C202.882 306.09 202.882 304.769 204.022 303.928L219.334 291.619C222.517 289.037 224.858 286.635 224.858 282.311C224.858 277.027 221.376 273.304 215.912 273.304C210.688 273.304 206.724 276.667 206.724 282.011C206.724 284.233 207.565 286.034 208.766 287.415C209.667 288.616 209.727 289.817 208.886 290.658C207.685 291.979 206.484 291.559 205.464 290.658C202.461 288.076 201.921 284.173 201.921 282.311C201.921 274.505 207.985 268.681 216.032 268.681C224.378 268.681 229.722 274.866 229.722 282.432C229.722 287.596 227.2 291.499 221.796 295.702L211.888 303.508H227.14ZM254.177 281.711C261.443 281.711 266.547 286.875 266.547 294.921C266.547 303.328 260.722 308.612 252.796 308.612C247.632 308.612 243.189 306.33 241.207 303.748C240.246 302.427 240.306 301.346 241.387 300.325C242.408 299.305 243.549 299.184 245.11 300.686C246.551 302.247 248.953 304.048 252.676 304.048C257.84 304.048 261.683 300.686 261.683 294.921C261.683 289.577 258.56 286.335 253.336 286.335C249.674 286.335 247.692 288.196 246.671 289.217C245.41 290.298 244.149 290.598 243.008 290.117C241.807 289.637 241.267 288.676 241.567 286.875L243.549 271.383C243.789 269.822 244.99 269.041 246.251 269.041H261.202C262.704 269.041 263.664 269.942 263.664 271.383C263.664 272.764 262.704 273.665 261.202 273.665H247.692L246.071 285.434C247.332 283.933 249.614 281.711 254.177 281.711Z" fill="white"/>
<path d="M121.894 307.051L120.197 308.111L120.212 308.136L120.229 308.161L121.894 307.051ZM122.434 303.928L123.622 305.539L123.656 305.514L123.689 305.488L122.434 303.928ZM137.746 291.619L139 293.179L139.007 293.173L137.746 291.619ZM127.178 287.415L128.779 286.214L128.736 286.157L128.688 286.102L127.178 287.415ZM127.298 290.658L125.883 289.243L125.849 289.276L125.817 289.311L127.298 290.658ZM123.876 290.658L125.2 289.157L125.19 289.149L125.181 289.14L123.876 290.658ZM140.208 295.702L138.979 294.122L138.969 294.13L140.208 295.702ZM130.301 303.508L129.062 301.936L124.526 305.509H130.301V303.508ZM145.552 303.508V305.509C145.729 305.509 145.84 305.536 145.9 305.557C145.93 305.568 145.948 305.577 145.958 305.583C145.963 305.586 145.966 305.588 145.967 305.589C145.969 305.591 145.97 305.591 145.97 305.591C145.97 305.591 145.969 305.591 145.969 305.591C145.969 305.59 145.969 305.59 145.969 305.591C145.97 305.592 145.974 305.598 145.979 305.612C145.99 305.639 146.013 305.712 146.013 305.85H148.014H150.016C150.016 304.669 149.61 303.526 148.723 302.685C147.848 301.856 146.701 301.506 145.552 301.506V303.508ZM148.014 305.85H146.013C146.013 305.987 145.99 306.061 145.979 306.087C145.974 306.101 145.97 306.107 145.969 306.108C145.969 306.109 145.969 306.109 145.969 306.108C145.969 306.108 145.97 306.108 145.97 306.108C145.97 306.108 145.969 306.109 145.967 306.11C145.966 306.111 145.963 306.113 145.958 306.116C145.948 306.122 145.93 306.131 145.9 306.142C145.84 306.163 145.729 306.19 145.552 306.19V308.191V310.193C146.701 310.193 147.848 309.843 148.723 309.014C149.61 308.173 150.016 307.031 150.016 305.85H148.014ZM145.552 308.191V306.19H123.996V308.191V310.193H145.552V308.191ZM123.996 308.191V306.19C124.024 306.19 123.933 306.191 123.82 306.149C123.77 306.131 123.726 306.107 123.687 306.078C123.65 306.051 123.606 306.01 123.559 305.94L121.894 307.051L120.229 308.161C121.52 310.098 123.551 310.193 123.996 310.193V308.191ZM121.894 307.051L123.591 305.99C123.501 305.845 123.493 305.729 123.498 305.686C123.5 305.67 123.504 305.66 123.51 305.65C123.516 305.639 123.542 305.599 123.622 305.539L122.434 303.928L121.247 302.317C119.074 303.918 119.177 306.479 120.197 308.111L121.894 307.051ZM122.434 303.928L123.689 305.488L139 293.179L137.746 291.619L136.492 290.059L121.18 302.368L122.434 303.928ZM137.746 291.619L139.007 293.173C142.27 290.526 145.272 287.604 145.272 282.311H143.271H141.269C141.269 285.666 139.587 287.548 136.485 290.064L137.746 291.619ZM143.271 282.311H145.272C145.272 279.224 144.248 276.445 142.278 274.428C140.302 272.404 137.526 271.303 134.324 271.303V273.304V275.306C136.586 275.306 138.283 276.066 139.414 277.225C140.552 278.39 141.269 280.114 141.269 282.311H143.271ZM134.324 273.304V271.303C131.285 271.303 128.482 272.284 126.418 274.179C124.335 276.091 123.135 278.815 123.135 282.011H125.137H127.138C127.138 279.863 127.92 278.234 129.124 277.128C130.347 276.006 132.138 275.306 134.324 275.306V273.304ZM125.137 282.011H123.135C123.135 284.778 124.194 287.034 125.668 288.729L127.178 287.415L128.688 286.102C127.761 285.035 127.138 283.688 127.138 282.011H125.137ZM127.178 287.415L125.577 288.616C125.86 288.994 125.89 289.213 125.891 289.253C125.892 289.267 125.89 289.254 125.899 289.231C125.908 289.207 125.913 289.212 125.883 289.243L127.298 290.658L128.714 292.073C129.522 291.265 129.937 290.215 129.891 289.091C129.848 288.02 129.397 287.038 128.779 286.214L127.178 287.415ZM127.298 290.658L125.817 289.311C125.662 289.482 125.58 289.516 125.587 289.513C125.606 289.505 125.654 289.493 125.701 289.498C125.732 289.501 125.705 289.506 125.608 289.454C125.509 289.402 125.372 289.309 125.2 289.157L123.876 290.658L122.551 292.159C123.192 292.724 124.141 293.376 125.338 293.484C126.675 293.606 127.856 293.02 128.779 292.004L127.298 290.658ZM123.876 290.658L125.181 289.14C122.833 287.121 122.334 283.945 122.334 282.311H120.333H118.331C118.331 284.4 118.913 289.03 122.57 292.175L123.876 290.658ZM120.333 282.311H122.334C122.334 275.679 127.434 270.682 134.444 270.682V268.681V266.679C125.361 266.679 118.331 273.332 118.331 282.311H120.333ZM134.444 268.681V270.682C141.599 270.682 146.133 275.883 146.133 282.432H148.134H150.136C150.136 273.848 143.982 266.679 134.444 266.679V268.681ZM148.134 282.432H146.133C146.133 286.731 144.131 290.115 138.979 294.122L140.208 295.702L141.437 297.282C147.094 292.882 150.136 288.46 150.136 282.432H148.134ZM140.208 295.702L138.969 294.13L129.062 301.936L130.301 303.508L131.539 305.08L141.447 297.274L140.208 295.702ZM130.301 303.508V305.509H145.552V303.508V301.506H130.301V303.508ZM175.051 308.612L175.064 310.613L175.051 308.612ZM175.051 268.621V270.622C179.038 270.622 182.517 272.3 185.035 275.321C187.57 278.364 189.202 282.866 189.202 288.556H191.203H193.205C193.205 282.117 191.354 276.652 188.11 272.759C184.848 268.845 180.251 266.619 175.051 266.619V268.621ZM191.203 288.556H189.202C189.202 294.278 187.569 298.797 185.032 301.854C182.512 304.891 179.029 306.584 175.038 306.61L175.051 308.612L175.064 310.613C180.26 310.579 184.853 308.339 188.113 304.411C191.355 300.503 193.205 295.024 193.205 288.556H191.203ZM175.051 308.612L175.038 306.61C167.314 306.661 160.9 300.024 160.9 288.556H158.899H156.897C156.897 301.467 164.413 310.683 175.064 310.613L175.051 308.612ZM158.899 288.556H160.9C160.9 282.866 162.532 278.364 165.067 275.321C167.585 272.3 171.064 270.622 175.051 270.622V268.621V266.619C169.851 266.619 165.254 268.845 161.992 272.759C158.748 276.652 156.897 282.117 156.897 288.556H158.899ZM175.051 273.304V271.303C171.168 271.303 167.795 272.934 165.448 276.028C163.144 279.064 161.941 283.351 161.941 288.556H163.942H165.944C165.944 283.914 167.022 280.575 168.637 278.447C170.208 276.377 172.389 275.306 175.051 275.306V273.304ZM163.942 288.556H161.941C161.941 293.761 163.144 298.074 165.443 301.131C167.786 304.246 171.165 305.905 175.069 305.87L175.051 303.868L175.033 301.867C172.392 301.891 170.217 300.818 168.642 298.724C167.023 296.572 165.944 293.199 165.944 288.556H163.942ZM175.051 303.868L175.069 305.87C178.946 305.834 182.313 304.188 184.656 301.09C186.957 298.048 188.161 293.763 188.161 288.556H186.16H184.158C184.158 293.198 183.08 296.538 181.463 298.675C179.889 300.756 177.701 301.842 175.033 301.867L175.051 303.868ZM186.16 288.556H188.161C188.161 283.351 186.958 279.064 184.654 276.028C182.307 272.934 178.934 271.303 175.051 271.303V273.304V275.306C177.713 275.306 179.894 276.377 181.465 278.447C183.079 280.575 184.158 283.914 184.158 288.556H186.16ZM203.482 307.051L201.785 308.111L201.8 308.136L201.817 308.161L203.482 307.051ZM204.022 303.928L205.21 305.539L205.244 305.514L205.276 305.488L204.022 303.928ZM219.334 291.619L220.588 293.179L220.595 293.173L219.334 291.619ZM208.766 287.415L210.367 286.214L210.324 286.157L210.276 286.102L208.766 287.415ZM208.886 290.658L207.471 289.243L207.437 289.276L207.405 289.311L208.886 290.658ZM205.464 290.658L206.788 289.157L206.778 289.149L206.769 289.14L205.464 290.658ZM221.796 295.702L220.567 294.122L220.557 294.13L221.796 295.702ZM211.888 303.508L210.65 301.936L206.114 305.509H211.888V303.508ZM227.14 303.508V305.509C227.317 305.509 227.428 305.536 227.488 305.557C227.518 305.568 227.536 305.577 227.546 305.583C227.55 305.586 227.554 305.588 227.555 305.589C227.557 305.591 227.558 305.591 227.558 305.591C227.558 305.591 227.557 305.591 227.557 305.591C227.557 305.59 227.557 305.59 227.557 305.591C227.558 305.592 227.562 305.598 227.567 305.612C227.578 305.639 227.601 305.712 227.601 305.85H229.602H231.604C231.604 304.669 231.198 303.526 230.311 302.685C229.436 301.856 228.289 301.506 227.14 301.506V303.508ZM229.602 305.85H227.601C227.601 305.987 227.578 306.061 227.567 306.087C227.562 306.101 227.558 306.107 227.557 306.108C227.557 306.109 227.557 306.109 227.557 306.108C227.557 306.108 227.558 306.108 227.558 306.108C227.558 306.108 227.557 306.109 227.555 306.11C227.554 306.111 227.55 306.113 227.546 306.116C227.536 306.122 227.518 306.131 227.488 306.142C227.428 306.163 227.317 306.19 227.14 306.19V308.191V310.193C228.289 310.193 229.436 309.843 230.311 309.014C231.198 308.173 231.604 307.031 231.604 305.85H229.602ZM227.14 308.191V306.19H205.584V308.191V310.193H227.14V308.191ZM205.584 308.191V306.19C205.612 306.19 205.52 306.191 205.408 306.149C205.358 306.131 205.314 306.107 205.275 306.078C205.238 306.051 205.194 306.01 205.147 305.94L203.482 307.051L201.817 308.161C203.108 310.098 205.139 310.193 205.584 310.193V308.191ZM203.482 307.051L205.179 305.99C205.089 305.845 205.081 305.729 205.086 305.686C205.088 305.67 205.092 305.66 205.098 305.65C205.104 305.639 205.13 305.599 205.21 305.539L204.022 303.928L202.835 302.317C200.662 303.918 200.765 306.479 201.785 308.111L203.482 307.051ZM204.022 303.928L205.276 305.488L220.588 293.179L219.334 291.619L218.08 290.059L202.768 302.368L204.022 303.928ZM219.334 291.619L220.595 293.173C223.858 290.526 226.86 287.604 226.86 282.311H224.858H222.857C222.857 285.666 221.175 287.548 218.073 290.064L219.334 291.619ZM224.858 282.311H226.86C226.86 279.224 225.836 276.445 223.866 274.428C221.89 272.404 219.114 271.303 215.912 271.303V273.304V275.306C218.174 275.306 219.871 276.066 221.002 277.225C222.14 278.39 222.857 280.114 222.857 282.311H224.858ZM215.912 273.304V271.303C212.873 271.303 210.07 272.284 208.006 274.179C205.923 276.091 204.723 278.815 204.723 282.011H206.724H208.726C208.726 279.863 209.508 278.234 210.712 277.128C211.935 276.006 213.726 275.306 215.912 275.306V273.304ZM206.724 282.011H204.723C204.723 284.778 205.782 287.034 207.256 288.729L208.766 287.415L210.276 286.102C209.349 285.035 208.726 283.688 208.726 282.011H206.724ZM208.766 287.415L207.165 288.616C207.448 288.994 207.478 289.213 207.479 289.253C207.48 289.267 207.478 289.254 207.487 289.231C207.496 289.207 207.501 289.212 207.471 289.243L208.886 290.658L210.301 292.073C211.11 291.265 211.525 290.215 211.479 289.091C211.436 288.02 210.985 287.038 210.367 286.214L208.766 287.415ZM208.886 290.658L207.405 289.311C207.25 289.482 207.168 289.516 207.175 289.513C207.194 289.505 207.242 289.493 207.288 289.498C207.32 289.501 207.293 289.506 207.196 289.454C207.097 289.402 206.96 289.309 206.788 289.157L205.464 290.658L204.139 292.159C204.78 292.724 205.729 293.376 206.926 293.484C208.263 293.606 209.444 293.02 210.367 292.004L208.886 290.658ZM205.464 290.658L206.769 289.14C204.421 287.121 203.922 283.945 203.922 282.311H201.921H199.919C199.919 284.4 200.501 289.03 204.158 292.175L205.464 290.658ZM201.921 282.311H203.922C203.922 275.679 209.022 270.682 216.032 270.682V268.681V266.679C206.949 266.679 199.919 273.332 199.919 282.311H201.921ZM216.032 268.681V270.682C223.186 270.682 227.721 275.883 227.721 282.432H229.722H231.724C231.724 273.848 225.57 266.679 216.032 266.679V268.681ZM229.722 282.432H227.721C227.721 286.731 225.719 290.115 220.567 294.122L221.796 295.702L223.025 297.282C228.682 292.882 231.724 288.46 231.724 282.432H229.722ZM221.796 295.702L220.557 294.13L210.65 301.936L211.888 303.508L213.127 305.08L223.035 297.274L221.796 295.702ZM211.888 303.508V305.509H227.14V303.508V301.506H211.888V303.508ZM241.207 303.748L239.588 304.925L239.603 304.946L239.619 304.967L241.207 303.748ZM241.387 300.325L242.761 301.78L242.782 301.761L242.802 301.741L241.387 300.325ZM245.11 300.686L246.581 299.328L246.54 299.284L246.497 299.243L245.11 300.686ZM246.671 289.217L247.974 290.736L248.032 290.686L248.087 290.632L246.671 289.217ZM243.008 290.117L243.785 288.273L243.769 288.266L243.752 288.259L243.008 290.117ZM241.567 286.875L243.542 287.204L243.548 287.167L243.553 287.129L241.567 286.875ZM243.549 271.383L241.571 271.079L241.567 271.104L241.563 271.129L243.549 271.383ZM247.692 273.665V271.663H245.947L245.709 273.392L247.692 273.665ZM246.071 285.434L244.088 285.161L243.141 292.033L247.603 286.721L246.071 285.434ZM254.177 281.711V283.713C257.318 283.713 259.867 284.818 261.636 286.678C263.411 288.545 264.545 291.325 264.545 294.921H266.547H268.548C268.548 290.471 267.13 286.646 264.537 283.919C261.937 281.186 258.301 279.709 254.177 279.709V281.711ZM266.547 294.921H264.545C264.545 298.644 263.267 301.527 261.25 303.482C259.225 305.445 256.31 306.61 252.796 306.61V308.612V310.613C257.208 310.613 261.168 309.137 264.037 306.356C266.914 303.567 268.548 299.605 268.548 294.921H266.547ZM252.796 308.612V306.61C248.134 306.61 244.33 304.53 242.795 302.529L241.207 303.748L239.619 304.967C242.047 308.13 247.13 310.613 252.796 310.613V308.612ZM241.207 303.748L242.826 302.571C242.492 302.111 242.534 301.961 242.53 302.031C242.528 302.065 242.517 302.078 242.531 302.052C242.55 302.017 242.61 301.924 242.761 301.78L241.387 300.325L240.013 298.87C239.232 299.608 238.599 300.584 238.533 301.817C238.469 303.013 238.962 304.063 239.588 304.925L241.207 303.748ZM241.387 300.325L242.802 301.741C242.945 301.598 243.026 301.554 243.043 301.546C243.044 301.545 243.003 301.562 242.947 301.559C242.858 301.554 243.096 301.525 243.723 302.128L245.11 300.686L246.497 299.243C245.563 298.345 244.45 297.625 243.145 297.561C241.766 297.493 240.708 298.174 239.972 298.91L241.387 300.325ZM245.11 300.686L243.639 302.043C245.321 303.865 248.218 306.05 252.676 306.05V304.048V302.047C249.688 302.047 247.782 300.629 246.581 299.328L245.11 300.686ZM252.676 304.048V306.05C255.694 306.05 258.474 305.061 260.511 303.082C262.558 301.092 263.684 298.265 263.684 294.921H261.683H259.681C259.681 297.342 258.886 299.079 257.721 300.211C256.545 301.354 254.822 302.047 252.676 302.047V304.048ZM261.683 294.921H263.684C263.684 291.863 262.785 289.169 260.906 287.231C259.019 285.284 256.369 284.333 253.336 284.333V286.335V288.336C255.527 288.336 257.051 289.006 258.032 290.017C259.02 291.036 259.681 292.635 259.681 294.921H261.683ZM253.336 286.335V284.333C248.87 284.333 246.4 286.657 245.256 287.801L246.671 289.217L248.087 290.632C248.984 289.735 250.477 288.336 253.336 288.336V286.335ZM246.671 289.217L245.369 287.697C244.469 288.468 244.001 288.364 243.785 288.273L243.008 290.117L242.232 291.962C244.298 292.832 246.351 292.127 247.974 290.736L246.671 289.217ZM243.008 290.117L243.752 288.259C243.616 288.205 243.559 288.161 243.543 288.147C243.534 288.14 243.537 288.141 243.535 288.138C243.526 288.119 243.428 287.885 243.542 287.204L241.567 286.875L239.593 286.546C239.406 287.666 239.428 288.814 239.914 289.845C240.427 290.933 241.314 291.595 242.265 291.976L243.008 290.117ZM241.567 286.875L243.553 287.129L245.534 271.637L243.549 271.383L241.563 271.129L239.582 286.621L241.567 286.875ZM243.549 271.383L245.527 271.687C245.575 271.379 245.69 271.252 245.767 271.19C245.865 271.112 246.027 271.043 246.251 271.043V269.041V267.04C244.125 267.04 241.979 268.424 241.571 271.079L243.549 271.383ZM246.251 269.041V271.043H261.202V269.041V267.04H246.251V269.041ZM261.202 269.041V271.043C261.379 271.043 261.491 271.069 261.551 271.091C261.58 271.101 261.599 271.111 261.608 271.116C261.613 271.119 261.616 271.121 261.617 271.123C261.619 271.124 261.62 271.125 261.62 271.125C261.62 271.125 261.62 271.125 261.619 271.124C261.619 271.124 261.619 271.124 261.619 271.124C261.62 271.125 261.624 271.131 261.629 271.145C261.64 271.172 261.663 271.245 261.663 271.383H263.664H265.666C265.666 270.202 265.26 269.059 264.373 268.219C263.498 267.39 262.351 267.04 261.202 267.04V269.041ZM263.664 271.383H261.663C261.663 271.495 261.644 271.551 261.637 271.567C261.634 271.576 261.632 271.578 261.632 271.578C261.633 271.577 261.634 271.576 261.633 271.576C261.633 271.576 261.629 271.58 261.618 271.587C261.607 271.593 261.587 271.603 261.556 271.614C261.492 271.637 261.379 271.663 261.202 271.663V273.665V275.666C262.351 275.666 263.489 275.317 264.359 274.508C265.244 273.685 265.666 272.558 265.666 271.383H263.664ZM261.202 273.665V271.663H247.692V273.665V275.666H261.202V273.665ZM247.692 273.665L245.709 273.392L244.088 285.161L246.071 285.434L248.054 285.707L249.675 273.938L247.692 273.665ZM246.071 285.434L247.603 286.721C248.657 285.467 250.429 283.713 254.177 283.713V281.711V279.709C248.798 279.709 246.007 282.398 244.538 284.146L246.071 285.434Z" fill="white" mask="url(#path-2-outside-1_2052_643)"/>
</svg>
