<svg width="388" height="420" viewBox="0 0 388 420" fill="none" xmlns="http://www.w3.org/2000/svg">
<path d="M113.16 153.396L123.018 163.253L113.16 173.111" stroke="white" stroke-width="7.40901" stroke-linecap="round"/>
<path d="M274.306 173.11L264.449 163.253L274.306 153.396" stroke="white" stroke-width="7.40901" stroke-linecap="round"/>
<path d="M203.59 82.6802L193.733 92.5376L183.876 82.6802" stroke="white" stroke-width="7.40901" stroke-linecap="round"/>
<path d="M126.722 139.834L150.141 163.253L126.722 186.673M260.744 186.673L237.325 163.253L260.744 139.834M217.153 96.2422L193.733 119.661L170.314 96.2422M170.314 230.264L193.733 206.845L217.153 230.264" stroke="white" stroke-width="7.40901" stroke-linecap="round"/>
<path d="M183.876 243.826L193.733 233.969L203.591 243.826" stroke="white" stroke-width="7.40901" stroke-linecap="round"/>
<path d="M119.143 163.253H192.764M268.323 163.253L194.702 163.253M193.733 88.6626V162.284M193.733 237.843L193.733 164.222" stroke="white" stroke-width="7.40901"/>
<path d="M119.143 163.253H192.764M268.323 163.253L194.702 163.253M193.733 88.6631V162.285M193.733 237.844L193.733 164.222" stroke="white" stroke-width="7.40901"/>
<path fill-rule="evenodd" clip-rule="evenodd" d="M179.601 174.367C181.268 174.367 182.62 175.718 182.62 177.385C182.62 178.186 182.302 178.954 181.736 179.52L157.317 203.939C155.871 205.386 153.525 205.385 152.079 203.938C150.632 202.492 150.632 200.147 152.079 198.7L175.126 175.653C175.949 174.83 177.066 174.367 178.23 174.367H179.601ZM235.388 198.7C236.834 200.146 236.834 202.492 235.387 203.938C233.941 205.385 231.595 205.386 230.148 203.939L205.731 179.521C205.165 178.955 204.847 178.187 204.847 177.386C204.847 175.719 206.199 174.367 207.866 174.367H209.236C210.4 174.367 211.517 174.83 212.34 175.653L235.388 198.7ZM193.734 162.285C194.269 162.285 194.703 162.719 194.703 163.254C194.703 163.789 194.269 164.223 193.734 164.223C193.199 164.223 192.765 163.789 192.765 163.254C192.765 162.719 193.199 162.285 193.734 162.285ZM235.387 122.567C236.834 124.014 236.834 126.359 235.388 127.806L212.338 150.854C211.515 151.677 210.399 152.14 209.235 152.14H207.867C206.199 152.14 204.847 150.788 204.847 149.12C204.847 148.319 205.165 147.551 205.732 146.985L230.149 122.567C231.595 121.121 233.941 121.121 235.387 122.567ZM181.735 146.986C182.301 147.552 182.62 148.32 182.62 149.121C182.62 150.788 181.268 152.14 179.601 152.14H178.231C177.066 152.14 175.95 151.677 175.127 150.854L152.079 127.806C150.632 126.359 150.632 124.014 152.079 122.567C153.525 121.121 155.87 121.121 157.317 122.567L181.735 146.986Z" fill="white"/>
<path d="M127.947 260.782C134.18 256.019 142.991 255.599 149.241 260.619L149.537 260.863L149.903 261.181C157.358 267.818 157.76 279.29 151.113 286.453L150.786 286.797L127.253 310.807C125.478 312.616 122.592 312.616 120.817 310.807L97.2832 286.797V286.796C90.1759 279.548 90.5911 267.551 98.5205 260.863L99.0166 260.462C104.189 256.437 111.048 256.068 116.754 258.747C119.016 259.809 119.094 262.656 117.469 264.261C116.153 265.559 114.183 265.649 112.597 265.081C109.37 263.926 105.862 264.461 103.396 266.536C98.825 270.394 98.5625 277.407 102.683 281.608H102.684L124.034 303.392L145.385 281.609C149.496 277.408 149.232 270.395 144.661 266.537L144.317 266.263C140.706 263.533 135.12 263.888 131.364 267.725L131.363 267.726L126.752 272.42C125.261 273.938 122.796 273.938 121.305 272.42C119.851 270.939 119.878 268.576 121.363 267.127L123.576 264.969L125.962 262.539C126.587 261.9 127.251 261.314 127.947 260.782Z" fill="white" stroke="white" stroke-width="1.2973"/>
<mask id="path-10-outside-1_2016_116259" maskUnits="userSpaceOnUse" x="169.787" y="265.151" width="121" height="38" fill="black">
<rect fill="white" x="169.787" y="265.151" width="121" height="38"/>
<path d="M171.226 279.045C171.226 277.212 171.537 275.569 172.16 274.116C172.817 272.628 173.699 271.348 174.806 270.276C175.948 269.203 177.28 268.39 178.802 267.837C180.359 267.249 182.019 266.955 183.783 266.955C185.617 266.955 187.277 267.266 188.765 267.889C190.287 268.477 191.584 269.324 192.657 270.431C193.729 271.504 194.56 272.801 195.148 274.323C195.77 275.811 196.082 277.471 196.082 279.305C196.082 283.733 193.85 287.556 189.388 290.773L183.057 295.339H192.968C193.868 295.339 194.594 295.616 195.148 296.17C195.736 296.689 196.03 297.381 196.03 298.245C196.03 299.11 195.736 299.819 195.148 300.373C194.594 300.892 193.868 301.151 192.968 301.151H175.169C174.062 301.151 173.197 300.702 172.575 299.802C172.16 299.214 171.987 298.539 172.056 297.778C172.125 297.017 172.488 296.395 173.146 295.91L186.067 285.999C187.381 284.996 188.367 283.992 189.024 282.989C189.682 281.986 190.01 280.741 190.01 279.253C190.01 277.281 189.44 275.69 188.298 274.479C187.156 273.268 185.582 272.663 183.576 272.663C181.673 272.663 180.134 273.199 178.957 274.271C177.781 275.344 177.193 276.831 177.193 278.734C177.193 280.083 177.626 281.294 178.49 282.367C179.563 283.889 179.546 285.203 178.439 286.31C177.781 286.968 177.124 287.296 176.467 287.296C175.775 287.296 175.048 286.95 174.287 286.258C173.284 285.324 172.523 284.269 172.004 283.093C171.485 281.917 171.226 280.568 171.226 279.045ZM204.605 284.183C204.605 281.969 204.899 279.824 205.487 277.748C206.075 275.638 206.974 273.787 208.185 272.196C209.396 270.57 210.901 269.272 212.7 268.304C214.533 267.335 216.661 266.851 219.082 266.851C221.539 266.851 223.666 267.335 225.465 268.304C227.264 269.272 228.769 270.57 229.98 272.196C231.191 273.787 232.09 275.638 232.678 277.748C233.266 279.824 233.56 281.969 233.56 284.183C233.56 286.397 233.266 288.559 232.678 290.669C232.09 292.745 231.191 294.596 229.98 296.222C228.769 297.813 227.264 299.093 225.465 300.062C223.666 301.03 221.539 301.532 219.082 301.567C216.661 301.601 214.533 301.134 212.7 300.165C210.901 299.162 209.396 297.848 208.185 296.222C206.974 294.561 206.075 292.693 205.487 290.617C204.899 288.507 204.605 286.362 204.605 284.183ZM210.935 284.183C210.935 287.954 211.645 290.825 213.063 292.797C214.481 294.734 216.488 295.685 219.082 295.651C221.608 295.616 223.597 294.63 225.05 292.693C226.503 290.756 227.229 287.919 227.229 284.183C227.229 280.412 226.52 277.575 225.102 275.672C223.684 273.735 221.677 272.766 219.082 272.766C216.488 272.766 214.481 273.735 213.063 275.672C211.645 277.575 210.935 280.412 210.935 284.183ZM242.088 279.045C242.088 277.212 242.4 275.569 243.022 274.116C243.68 272.628 244.562 271.348 245.669 270.276C246.811 269.203 248.142 268.39 249.665 267.837C251.221 267.249 252.882 266.955 254.646 266.955C256.48 266.955 258.14 267.266 259.628 267.889C261.15 268.477 262.447 269.324 263.52 270.431C264.592 271.504 265.422 272.801 266.011 274.323C266.633 275.811 266.945 277.471 266.945 279.305C266.945 283.733 264.713 287.556 260.251 290.773L253.92 295.339H263.831C264.731 295.339 265.457 295.616 266.011 296.17C266.599 296.689 266.893 297.381 266.893 298.245C266.893 299.11 266.599 299.819 266.011 300.373C265.457 300.892 264.731 301.151 263.831 301.151H246.032C244.925 301.151 244.06 300.702 243.438 299.802C243.022 299.214 242.849 298.539 242.919 297.778C242.988 297.017 243.351 296.395 244.008 295.91L256.929 285.999C258.244 284.996 259.23 283.992 259.887 282.989C260.545 281.986 260.873 280.741 260.873 279.253C260.873 277.281 260.302 275.69 259.161 274.479C258.019 273.268 256.445 272.663 254.439 272.663C252.536 272.663 250.996 273.199 249.82 274.271C248.644 275.344 248.056 276.831 248.056 278.734C248.056 280.083 248.488 281.294 249.353 282.367C250.426 283.889 250.408 285.203 249.301 286.31C248.644 286.968 247.987 287.296 247.329 287.296C246.638 287.296 245.911 286.95 245.15 286.258C244.147 285.324 243.386 284.269 242.867 283.093C242.348 281.917 242.088 280.568 242.088 279.045ZM275.052 272.87L277.128 270.795C278.097 269.826 279.1 268.996 280.138 268.304C281.176 267.577 282.438 267.214 283.926 267.214C285.206 267.214 286.313 267.681 287.247 268.615C288.181 269.549 288.648 271.019 288.648 273.026V298.09C288.648 299.024 288.354 299.802 287.766 300.425C287.212 301.048 286.469 301.359 285.534 301.359C284.6 301.359 283.839 301.048 283.251 300.425C282.698 299.802 282.421 299.024 282.421 298.09V274.635C282.421 274.427 282.317 274.289 282.11 274.219C281.937 274.116 281.746 274.168 281.539 274.375C281.504 274.41 281.418 274.514 281.279 274.686C281.141 274.825 280.899 275.067 280.553 275.413C280.207 275.759 279.913 276.07 279.671 276.347C279.463 276.589 279.273 276.797 279.1 276.97C278.408 277.662 277.664 278.008 276.869 278.008C276.142 278.008 275.485 277.714 274.897 277.125C274.309 276.537 274.014 275.845 274.014 275.05C274.049 274.254 274.395 273.528 275.052 272.87Z"/>
</mask>
<path d="M171.226 279.045C171.226 277.212 171.537 275.569 172.16 274.116C172.817 272.628 173.699 271.348 174.806 270.276C175.948 269.203 177.28 268.39 178.802 267.837C180.359 267.249 182.019 266.955 183.783 266.955C185.617 266.955 187.277 267.266 188.765 267.889C190.287 268.477 191.584 269.324 192.657 270.431C193.729 271.504 194.56 272.801 195.148 274.323C195.77 275.811 196.082 277.471 196.082 279.305C196.082 283.733 193.85 287.556 189.388 290.773L183.057 295.339H192.968C193.868 295.339 194.594 295.616 195.148 296.17C195.736 296.689 196.03 297.381 196.03 298.245C196.03 299.11 195.736 299.819 195.148 300.373C194.594 300.892 193.868 301.151 192.968 301.151H175.169C174.062 301.151 173.197 300.702 172.575 299.802C172.16 299.214 171.987 298.539 172.056 297.778C172.125 297.017 172.488 296.395 173.146 295.91L186.067 285.999C187.381 284.996 188.367 283.992 189.024 282.989C189.682 281.986 190.01 280.741 190.01 279.253C190.01 277.281 189.44 275.69 188.298 274.479C187.156 273.268 185.582 272.663 183.576 272.663C181.673 272.663 180.134 273.199 178.957 274.271C177.781 275.344 177.193 276.831 177.193 278.734C177.193 280.083 177.626 281.294 178.49 282.367C179.563 283.889 179.546 285.203 178.439 286.31C177.781 286.968 177.124 287.296 176.467 287.296C175.775 287.296 175.048 286.95 174.287 286.258C173.284 285.324 172.523 284.269 172.004 283.093C171.485 281.917 171.226 280.568 171.226 279.045ZM204.605 284.183C204.605 281.969 204.899 279.824 205.487 277.748C206.075 275.638 206.974 273.787 208.185 272.196C209.396 270.57 210.901 269.272 212.7 268.304C214.533 267.335 216.661 266.851 219.082 266.851C221.539 266.851 223.666 267.335 225.465 268.304C227.264 269.272 228.769 270.57 229.98 272.196C231.191 273.787 232.09 275.638 232.678 277.748C233.266 279.824 233.56 281.969 233.56 284.183C233.56 286.397 233.266 288.559 232.678 290.669C232.09 292.745 231.191 294.596 229.98 296.222C228.769 297.813 227.264 299.093 225.465 300.062C223.666 301.03 221.539 301.532 219.082 301.567C216.661 301.601 214.533 301.134 212.7 300.165C210.901 299.162 209.396 297.848 208.185 296.222C206.974 294.561 206.075 292.693 205.487 290.617C204.899 288.507 204.605 286.362 204.605 284.183ZM210.935 284.183C210.935 287.954 211.645 290.825 213.063 292.797C214.481 294.734 216.488 295.685 219.082 295.651C221.608 295.616 223.597 294.63 225.05 292.693C226.503 290.756 227.229 287.919 227.229 284.183C227.229 280.412 226.52 277.575 225.102 275.672C223.684 273.735 221.677 272.766 219.082 272.766C216.488 272.766 214.481 273.735 213.063 275.672C211.645 277.575 210.935 280.412 210.935 284.183ZM242.088 279.045C242.088 277.212 242.4 275.569 243.022 274.116C243.68 272.628 244.562 271.348 245.669 270.276C246.811 269.203 248.142 268.39 249.665 267.837C251.221 267.249 252.882 266.955 254.646 266.955C256.48 266.955 258.14 267.266 259.628 267.889C261.15 268.477 262.447 269.324 263.52 270.431C264.592 271.504 265.422 272.801 266.011 274.323C266.633 275.811 266.945 277.471 266.945 279.305C266.945 283.733 264.713 287.556 260.251 290.773L253.92 295.339H263.831C264.731 295.339 265.457 295.616 266.011 296.17C266.599 296.689 266.893 297.381 266.893 298.245C266.893 299.11 266.599 299.819 266.011 300.373C265.457 300.892 264.731 301.151 263.831 301.151H246.032C244.925 301.151 244.06 300.702 243.438 299.802C243.022 299.214 242.849 298.539 242.919 297.778C242.988 297.017 243.351 296.395 244.008 295.91L256.929 285.999C258.244 284.996 259.23 283.992 259.887 282.989C260.545 281.986 260.873 280.741 260.873 279.253C260.873 277.281 260.302 275.69 259.161 274.479C258.019 273.268 256.445 272.663 254.439 272.663C252.536 272.663 250.996 273.199 249.82 274.271C248.644 275.344 248.056 276.831 248.056 278.734C248.056 280.083 248.488 281.294 249.353 282.367C250.426 283.889 250.408 285.203 249.301 286.31C248.644 286.968 247.987 287.296 247.329 287.296C246.638 287.296 245.911 286.95 245.15 286.258C244.147 285.324 243.386 284.269 242.867 283.093C242.348 281.917 242.088 280.568 242.088 279.045ZM275.052 272.87L277.128 270.795C278.097 269.826 279.1 268.996 280.138 268.304C281.176 267.577 282.438 267.214 283.926 267.214C285.206 267.214 286.313 267.681 287.247 268.615C288.181 269.549 288.648 271.019 288.648 273.026V298.09C288.648 299.024 288.354 299.802 287.766 300.425C287.212 301.048 286.469 301.359 285.534 301.359C284.6 301.359 283.839 301.048 283.251 300.425C282.698 299.802 282.421 299.024 282.421 298.09V274.635C282.421 274.427 282.317 274.289 282.11 274.219C281.937 274.116 281.746 274.168 281.539 274.375C281.504 274.41 281.418 274.514 281.279 274.686C281.141 274.825 280.899 275.067 280.553 275.413C280.207 275.759 279.913 276.07 279.671 276.347C279.463 276.589 279.273 276.797 279.1 276.97C278.408 277.662 277.664 278.008 276.869 278.008C276.142 278.008 275.485 277.714 274.897 277.125C274.309 276.537 274.014 275.845 274.014 275.05C274.049 274.254 274.395 273.528 275.052 272.87Z" fill="white"/>
<path d="M172.16 274.116L170.973 273.591L170.97 273.598L170.967 273.605L172.16 274.116ZM174.806 270.276L173.918 269.33L173.911 269.337L173.903 269.344L174.806 270.276ZM178.802 267.837L179.245 269.056L179.253 269.053L179.26 269.05L178.802 267.837ZM188.765 267.889L188.264 269.085L188.281 269.092L188.297 269.099L188.765 267.889ZM192.657 270.431L191.725 271.334L191.732 271.341L191.74 271.349L192.657 270.431ZM195.148 274.323L193.938 274.791L193.944 274.808L193.951 274.824L195.148 274.323ZM189.388 290.773L188.629 289.721L188.629 289.721L189.388 290.773ZM183.057 295.339L182.298 294.287L179.041 296.637H183.057V295.339ZM195.148 296.17L194.23 297.087L194.259 297.116L194.289 297.143L195.148 296.17ZM195.148 300.373L196.035 301.319L196.037 301.318L195.148 300.373ZM172.575 299.802L173.641 299.064L173.635 299.054L172.575 299.802ZM172.056 297.778L170.764 297.661V297.661L172.056 297.778ZM173.146 295.91L173.915 296.955L173.925 296.947L173.935 296.94L173.146 295.91ZM186.067 285.999L185.28 284.968L185.277 284.97L186.067 285.999ZM189.024 282.989L187.939 282.278V282.278L189.024 282.989ZM188.298 274.479L187.354 275.369V275.369L188.298 274.479ZM178.957 274.271L179.831 275.23H179.831L178.957 274.271ZM178.49 282.367L179.551 281.619L179.527 281.585L179.5 281.552L178.49 282.367ZM178.439 286.31L179.356 287.228L178.439 286.31ZM174.287 286.258L173.403 287.208L173.409 287.213L173.415 287.218L174.287 286.258ZM172.004 283.093L170.817 283.617V283.617L172.004 283.093ZM171.226 279.045H172.523C172.523 277.36 172.809 275.894 173.352 274.627L172.16 274.116L170.967 273.605C170.265 275.243 169.928 277.064 169.928 279.045H171.226ZM172.16 274.116L173.346 274.64C173.94 273.297 174.728 272.157 175.709 271.207L174.806 270.276L173.903 269.344C172.67 270.539 171.694 271.96 170.973 273.591L172.16 274.116ZM174.806 270.276L175.694 271.221C176.703 270.273 177.882 269.551 179.245 269.056L178.802 267.837L178.358 266.618C176.677 267.229 175.192 268.133 173.918 269.33L174.806 270.276ZM178.802 267.837L179.26 269.05C180.662 268.521 182.166 268.252 183.783 268.252V266.955V265.657C181.872 265.657 180.055 265.976 178.343 266.623L178.802 267.837ZM183.783 266.955V268.252C185.468 268.252 186.955 268.538 188.264 269.085L188.765 267.889L189.266 266.692C187.599 265.994 185.765 265.657 183.783 265.657V266.955ZM188.765 267.889L188.297 269.099C189.655 269.623 190.791 270.37 191.725 271.334L192.657 270.431L193.589 269.529C192.378 268.279 190.919 267.33 189.233 266.679L188.765 267.889ZM192.657 270.431L191.74 271.349C192.675 272.284 193.41 273.424 193.938 274.791L195.148 274.323L196.358 273.856C195.71 272.178 194.784 270.724 193.574 269.514L192.657 270.431ZM195.148 274.323L193.951 274.824C194.499 276.133 194.784 277.62 194.784 279.305H196.082H197.379C197.379 277.323 197.042 275.489 196.344 273.822L195.148 274.323ZM196.082 279.305H194.784C194.784 283.214 192.845 286.681 188.629 289.721L189.388 290.773L190.146 291.825C194.856 288.43 197.379 284.251 197.379 279.305H196.082ZM189.388 290.773L188.629 289.721L182.298 294.287L183.057 295.339L183.816 296.392L190.147 291.825L189.388 290.773ZM183.057 295.339V296.637H192.968V295.339V294.042H183.057V295.339ZM192.968 295.339V296.637C193.579 296.637 193.957 296.814 194.23 297.087L195.148 296.17L196.065 295.252C195.232 294.419 194.156 294.042 192.968 294.042V295.339ZM195.148 296.17L194.289 297.143C194.568 297.388 194.733 297.71 194.733 298.245H196.03H197.327C197.327 297.051 196.904 295.989 196.006 295.197L195.148 296.17ZM196.03 298.245H194.733C194.733 298.781 194.566 299.139 194.259 299.428L195.148 300.373L196.037 301.318C196.905 300.5 197.327 299.44 197.327 298.245H196.03ZM195.148 300.373L194.26 299.427C193.991 299.679 193.603 299.854 192.968 299.854V301.151V302.449C194.132 302.449 195.197 302.105 196.035 301.319L195.148 300.373ZM192.968 301.151V299.854H175.169V301.151V302.449H192.968V301.151ZM175.169 301.151V299.854C174.482 299.854 174.018 299.608 173.641 299.064L172.575 299.802L171.508 300.541C172.377 301.795 173.643 302.449 175.169 302.449V301.151ZM172.575 299.802L173.635 299.054C173.409 298.734 173.305 298.37 173.348 297.896L172.056 297.778L170.764 297.661C170.669 298.708 170.91 299.694 171.515 300.55L172.575 299.802ZM172.056 297.778L173.348 297.896C173.381 297.532 173.533 297.236 173.915 296.955L173.146 295.91L172.376 294.866C171.443 295.553 170.869 296.503 170.764 297.661L172.056 297.778ZM173.146 295.91L173.935 296.94L186.856 287.028L186.067 285.999L185.277 284.97L172.356 294.881L173.146 295.91ZM186.067 285.999L186.854 287.03C188.244 285.969 189.348 284.863 190.11 283.7L189.024 282.989L187.939 282.278C187.387 283.122 186.518 284.022 185.28 284.968L186.067 285.999ZM189.024 282.989L190.11 283.7C190.935 282.44 191.308 280.932 191.308 279.253H190.01H188.713C188.713 280.549 188.428 281.532 187.939 282.278L189.024 282.989ZM190.01 279.253H191.308C191.308 277.015 190.652 275.084 189.242 273.589L188.298 274.479L187.354 275.369C188.228 276.295 188.713 277.547 188.713 279.253H190.01ZM188.298 274.479L189.242 273.589C187.806 272.066 185.86 271.365 183.576 271.365V272.663V273.96C185.304 273.96 186.507 274.471 187.354 275.369L188.298 274.479ZM183.576 272.663V271.365C181.416 271.365 179.544 271.981 178.083 273.313L178.957 274.271L179.831 275.23C180.724 274.417 181.93 273.96 183.576 273.96V272.663ZM178.957 274.271L178.083 273.313C176.585 274.679 175.896 276.544 175.896 278.734H177.193H178.49C178.49 277.119 178.977 276.009 179.831 275.23L178.957 274.271ZM177.193 278.734H175.896C175.896 280.386 176.434 281.883 177.481 283.181L178.49 282.367L179.5 281.552C178.817 280.705 178.49 279.78 178.49 278.734H177.193ZM178.49 282.367L177.43 283.114C177.872 283.741 177.988 284.186 177.985 284.477C177.981 284.733 177.884 285.03 177.521 285.393L178.439 286.31L179.356 287.228C180.1 286.484 180.565 285.57 180.579 284.511C180.592 283.488 180.181 282.514 179.551 281.619L178.49 282.367ZM178.439 286.31L177.521 285.393C177.005 285.909 176.659 285.999 176.467 285.999V287.296V288.594C177.589 288.594 178.557 288.026 179.356 287.228L178.439 286.31ZM176.467 287.296V285.999C176.224 285.999 175.796 285.877 175.16 285.298L174.287 286.258L173.415 287.218C174.301 288.024 175.326 288.594 176.467 288.594V287.296ZM174.287 286.258L175.171 285.309C174.288 284.487 173.634 283.574 173.191 282.569L172.004 283.093L170.817 283.617C171.412 284.964 172.28 286.162 173.403 287.208L174.287 286.258ZM172.004 283.093L173.191 282.569C172.757 281.586 172.523 280.42 172.523 279.045H171.226H169.928C169.928 280.715 170.213 282.248 170.817 283.617L172.004 283.093ZM205.487 277.748L206.735 278.102L206.736 278.096L205.487 277.748ZM208.185 272.196L209.218 272.981L209.226 272.971L208.185 272.196ZM212.7 268.304L212.094 267.157L212.085 267.162L212.7 268.304ZM225.465 268.304L224.85 269.446L225.465 268.304ZM229.98 272.196L228.939 272.971L228.947 272.981L229.98 272.196ZM232.678 277.748L231.428 278.096L231.43 278.102L232.678 277.748ZM232.678 290.669L233.926 291.023L233.928 291.017L232.678 290.669ZM229.98 296.222L231.012 297.007L231.02 296.996L229.98 296.222ZM225.465 300.062L224.85 298.919V298.919L225.465 300.062ZM219.082 301.567L219.064 300.269L219.064 300.269L219.082 301.567ZM212.7 300.165L212.068 301.298L212.081 301.306L212.094 301.312L212.7 300.165ZM208.185 296.222L207.137 296.986L207.145 296.996L208.185 296.222ZM205.487 290.617L204.237 290.966L204.239 290.971L205.487 290.617ZM213.063 292.797L212.01 293.554L212.016 293.563L213.063 292.797ZM219.082 295.651L219.1 296.948L219.1 296.948L219.082 295.651ZM225.05 292.693L226.088 293.471V293.471L225.05 292.693ZM225.102 275.672L224.055 276.439L224.062 276.448L225.102 275.672ZM213.063 275.672L214.103 276.448L214.11 276.439L213.063 275.672ZM204.605 284.183H205.902C205.902 282.085 206.18 280.059 206.735 278.102L205.487 277.748L204.239 277.394C203.617 279.588 203.307 281.852 203.307 284.183H204.605ZM205.487 277.748L206.736 278.096C207.285 276.129 208.115 274.43 209.218 272.981L208.185 272.196L207.153 271.41C205.833 273.144 204.865 275.147 204.237 277.4L205.487 277.748ZM208.185 272.196L209.226 272.971C210.322 271.498 211.681 270.326 213.315 269.446L212.7 268.304L212.085 267.162C210.12 268.219 208.47 269.642 207.145 271.421L208.185 272.196ZM212.7 268.304L213.306 269.451C214.923 268.596 216.837 268.148 219.082 268.148V266.851V265.554C216.485 265.554 214.143 266.074 212.094 267.157L212.7 268.304ZM219.082 266.851V268.148C221.367 268.148 223.275 268.598 224.85 269.446L225.465 268.304L226.08 267.162C224.058 266.072 221.71 265.554 219.082 265.554V266.851ZM225.465 268.304L224.85 269.446C226.483 270.326 227.843 271.498 228.939 272.971L229.98 272.196L231.02 271.421C229.695 269.642 228.045 268.219 226.08 267.162L225.465 268.304ZM229.98 272.196L228.947 272.981C230.05 274.43 230.88 276.129 231.428 278.096L232.678 277.748L233.928 277.4C233.3 275.147 232.332 273.144 231.012 271.41L229.98 272.196ZM232.678 277.748L231.43 278.102C231.985 280.059 232.263 282.085 232.263 284.183H233.56H234.858C234.858 281.852 234.548 279.588 233.926 277.394L232.678 277.748ZM233.56 284.183H232.263C232.263 286.28 231.985 288.325 231.428 290.321L232.678 290.669L233.928 291.017C234.548 288.793 234.858 286.513 234.858 284.183H233.56ZM232.678 290.669L231.43 290.316C230.882 292.249 230.05 293.955 228.939 295.447L229.98 296.222L231.02 296.996C232.331 295.236 233.298 293.241 233.926 291.023L232.678 290.669ZM229.98 296.222L228.947 295.436C227.851 296.877 226.49 298.037 224.85 298.919L225.465 300.062L226.08 301.204C228.038 300.149 229.687 298.749 231.012 297.007L229.98 296.222ZM225.465 300.062L224.85 298.919C223.268 299.771 221.354 300.237 219.064 300.269L219.082 301.567L219.101 302.864C221.724 302.827 224.064 302.289 226.08 301.204L225.465 300.062ZM219.082 301.567L219.064 300.269C216.823 300.301 214.917 299.87 213.306 299.018L212.7 300.165L212.094 301.312C214.15 302.399 216.499 302.901 219.101 302.864L219.082 301.567ZM212.7 300.165L213.332 299.032C211.69 298.117 210.325 296.923 209.226 295.447L208.185 296.222L207.145 296.996C208.467 298.772 210.112 300.207 212.068 301.298L212.7 300.165ZM208.185 296.222L209.233 295.457C208.117 293.927 207.283 292.199 206.735 290.264L205.487 290.617L204.239 290.971C204.866 293.187 205.831 295.195 207.137 296.986L208.185 296.222ZM205.487 290.617L206.736 290.269C206.18 288.272 205.902 286.244 205.902 284.183H204.605H203.307C203.307 286.481 203.618 288.743 204.237 290.966L205.487 290.617ZM210.935 284.183H209.638C209.638 288.085 210.367 291.27 212.01 293.554L213.063 292.797L214.116 292.039C212.922 290.38 212.233 287.822 212.233 284.183H210.935ZM213.063 292.797L212.016 293.563C213.705 295.87 216.125 296.988 219.1 296.948L219.082 295.651L219.065 294.354C216.851 294.383 215.258 293.598 214.11 292.03L213.063 292.797ZM219.082 295.651L219.1 296.948C222.008 296.908 224.382 295.746 226.088 293.471L225.05 292.693L224.012 291.915C222.812 293.514 221.208 294.324 219.065 294.354L219.082 295.651ZM225.05 292.693L226.088 293.471C227.779 291.217 228.527 288.056 228.527 284.183H227.229H225.932C225.932 287.781 225.227 290.294 224.012 291.915L225.05 292.693ZM227.229 284.183H228.527C228.527 280.285 227.8 277.121 226.142 274.897L225.102 275.672L224.062 276.448C225.241 278.029 225.932 280.539 225.932 284.183H227.229ZM225.102 275.672L226.149 274.906C224.464 272.605 222.052 271.469 219.082 271.469V272.766V274.064C221.302 274.064 222.903 274.865 224.055 276.439L225.102 275.672ZM219.082 272.766V271.469C216.113 271.469 213.701 272.605 212.016 274.906L213.063 275.672L214.11 276.439C215.262 274.865 216.863 274.064 219.082 274.064V272.766ZM213.063 275.672L212.023 274.897C210.365 277.121 209.638 280.285 209.638 284.183H210.935H212.233C212.233 280.539 212.924 278.029 214.103 276.448L213.063 275.672ZM243.022 274.116L241.836 273.591L241.833 273.598L241.83 273.605L243.022 274.116ZM245.669 270.276L244.781 269.33L244.773 269.337L244.766 269.344L245.669 270.276ZM249.665 267.837L250.108 269.056L250.116 269.053L250.123 269.05L249.665 267.837ZM259.628 267.889L259.127 269.085L259.144 269.092L259.16 269.099L259.628 267.889ZM263.52 270.431L262.588 271.334L262.595 271.341L262.602 271.349L263.52 270.431ZM266.011 274.323L264.8 274.791L264.807 274.808L264.814 274.824L266.011 274.323ZM260.251 290.773L259.492 289.721L259.492 289.721L260.251 290.773ZM253.92 295.339L253.161 294.287L249.904 296.637H253.92V295.339ZM266.011 296.17L265.093 297.087L265.122 297.116L265.152 297.143L266.011 296.17ZM266.011 300.373L266.898 301.319L266.9 301.318L266.011 300.373ZM243.438 299.802L244.504 299.064L244.497 299.054L243.438 299.802ZM242.919 297.778L241.627 297.661V297.661L242.919 297.778ZM244.008 295.91L244.778 296.955L244.788 296.947L244.798 296.94L244.008 295.91ZM256.929 285.999L256.142 284.968L256.14 284.97L256.929 285.999ZM259.887 282.989L258.802 282.278V282.278L259.887 282.989ZM259.161 274.479L258.217 275.369V275.369L259.161 274.479ZM249.82 274.271L250.694 275.23V275.23L249.82 274.271ZM249.353 282.367L250.414 281.619L250.39 281.585L250.363 281.552L249.353 282.367ZM249.301 286.31L250.219 287.228L249.301 286.31ZM245.15 286.258L244.266 287.208L244.272 287.213L244.277 287.218L245.15 286.258ZM242.867 283.093L241.68 283.617V283.617L242.867 283.093ZM242.088 279.045H243.386C243.386 277.36 243.672 275.894 244.215 274.627L243.022 274.116L241.83 273.605C241.128 275.243 240.791 277.064 240.791 279.045H242.088ZM243.022 274.116L244.209 274.64C244.803 273.297 245.591 272.157 246.572 271.207L245.669 270.276L244.766 269.344C243.533 270.539 242.557 271.96 241.836 273.591L243.022 274.116ZM245.669 270.276L246.557 271.221C247.566 270.273 248.745 269.551 250.108 269.056L249.665 267.837L249.221 266.618C247.54 267.229 246.055 268.133 244.781 269.33L245.669 270.276ZM249.665 267.837L250.123 269.05C251.525 268.521 253.029 268.252 254.646 268.252V266.955V265.657C252.735 265.657 250.918 265.976 249.206 266.623L249.665 267.837ZM254.646 266.955V268.252C256.331 268.252 257.818 268.538 259.127 269.085L259.628 267.889L260.129 266.692C258.462 265.994 256.628 265.657 254.646 265.657V266.955ZM259.628 267.889L259.16 269.099C260.518 269.623 261.654 270.37 262.588 271.334L263.52 270.431L264.452 269.529C263.241 268.279 261.782 267.33 260.095 266.679L259.628 267.889ZM263.52 270.431L262.602 271.349C263.537 272.284 264.272 273.424 264.8 274.791L266.011 274.323L267.221 273.856C266.572 272.178 265.647 270.724 264.437 269.514L263.52 270.431ZM266.011 274.323L264.814 274.824C265.362 276.133 265.647 277.62 265.647 279.305H266.945H268.242C268.242 277.323 267.905 275.489 267.207 273.822L266.011 274.323ZM266.945 279.305H265.647C265.647 283.214 263.708 286.681 259.492 289.721L260.251 290.773L261.009 291.825C265.718 288.43 268.242 284.251 268.242 279.305H266.945ZM260.251 290.773L259.492 289.721L253.161 294.287L253.92 295.339L254.679 296.392L261.009 291.825L260.251 290.773ZM253.92 295.339V296.637H263.831V295.339V294.042H253.92V295.339ZM263.831 295.339V296.637C264.442 296.637 264.82 296.814 265.093 297.087L266.011 296.17L266.928 295.252C266.094 294.419 265.019 294.042 263.831 294.042V295.339ZM266.011 296.17L265.152 297.143C265.431 297.388 265.595 297.71 265.595 298.245H266.893H268.19C268.19 297.051 267.767 295.989 266.869 295.197L266.011 296.17ZM266.893 298.245H265.595C265.595 298.781 265.429 299.139 265.121 299.428L266.011 300.373L266.9 301.318C267.768 300.5 268.19 299.44 268.19 298.245H266.893ZM266.011 300.373L265.123 299.427C264.854 299.679 264.466 299.854 263.831 299.854V301.151V302.449C264.995 302.449 266.06 302.105 266.898 301.319L266.011 300.373ZM263.831 301.151V299.854H246.032V301.151V302.449H263.831V301.151ZM246.032 301.151V299.854C245.345 299.854 244.881 299.608 244.504 299.064L243.438 299.802L242.371 300.541C243.239 301.795 244.506 302.449 246.032 302.449V301.151ZM243.438 299.802L244.497 299.054C244.272 298.734 244.167 298.37 244.211 297.896L242.919 297.778L241.627 297.661C241.531 298.708 241.773 299.694 242.378 300.55L243.438 299.802ZM242.919 297.778L244.211 297.896C244.244 297.532 244.396 297.236 244.778 296.955L244.008 295.91L243.239 294.866C242.306 295.553 241.732 296.503 241.627 297.661L242.919 297.778ZM244.008 295.91L244.798 296.94L257.719 287.028L256.929 285.999L256.14 284.97L243.219 294.881L244.008 295.91ZM256.929 285.999L257.716 287.03C259.107 285.969 260.211 284.863 260.972 283.7L259.887 282.989L258.802 282.278C258.249 283.122 257.381 284.022 256.142 284.968L256.929 285.999ZM259.887 282.989L260.972 283.7C261.798 282.44 262.171 280.932 262.171 279.253H260.873H259.576C259.576 280.549 259.291 281.532 258.802 282.278L259.887 282.989ZM260.873 279.253H262.171C262.171 277.015 261.514 275.084 260.105 273.589L259.161 274.479L258.217 275.369C259.09 276.295 259.576 277.547 259.576 279.253H260.873ZM259.161 274.479L260.105 273.589C258.668 272.066 256.723 271.365 254.439 271.365V272.663V273.96C256.167 273.96 257.37 274.471 258.217 275.369L259.161 274.479ZM254.439 272.663V271.365C252.279 271.365 250.407 271.981 248.946 273.313L249.82 274.271L250.694 275.23C251.586 274.417 252.793 273.96 254.439 273.96V272.663ZM249.82 274.271L248.946 273.313C247.448 274.679 246.759 276.544 246.759 278.734H248.056H249.353C249.353 277.119 249.84 276.009 250.694 275.23L249.82 274.271ZM248.056 278.734H246.759C246.759 280.386 247.297 281.883 248.343 283.181L249.353 282.367L250.363 281.552C249.68 280.705 249.353 279.78 249.353 278.734H248.056ZM249.353 282.367L248.293 283.114C248.735 283.741 248.851 284.186 248.847 284.477C248.844 284.733 248.747 285.03 248.384 285.393L249.301 286.31L250.219 287.228C250.963 286.484 251.428 285.57 251.442 284.511C251.455 283.488 251.044 282.514 250.414 281.619L249.353 282.367ZM249.301 286.31L248.384 285.393C247.868 285.909 247.521 285.999 247.329 285.999V287.296V288.594C248.452 288.594 249.42 288.026 250.219 287.228L249.301 286.31ZM247.329 287.296V285.999C247.087 285.999 246.659 285.877 246.023 285.298L245.15 286.258L244.277 287.218C245.164 288.024 246.189 288.594 247.329 288.594V287.296ZM245.15 286.258L246.034 285.309C245.151 284.487 244.497 283.574 244.054 282.569L242.867 283.093L241.68 283.617C242.274 284.964 243.143 286.162 244.266 287.208L245.15 286.258ZM242.867 283.093L244.054 282.569C243.62 281.586 243.386 280.42 243.386 279.045H242.088H240.791C240.791 280.715 241.076 282.248 241.68 283.617L242.867 283.093ZM275.052 272.87L275.97 273.788V273.788L275.052 272.87ZM277.128 270.795L276.211 269.877V269.877L277.128 270.795ZM280.138 268.304L280.857 269.383L280.87 269.375L280.882 269.367L280.138 268.304ZM287.766 300.425L286.823 299.534L286.809 299.548L286.796 299.563L287.766 300.425ZM283.251 300.425L282.282 301.287L282.295 301.301L282.308 301.316L283.251 300.425ZM282.11 274.219L281.442 275.332L281.564 275.405L281.699 275.45L282.11 274.219ZM281.539 274.375L282.456 275.292L282.456 275.292L281.539 274.375ZM281.279 274.686L282.197 275.604L282.247 275.553L282.292 275.497L281.279 274.686ZM280.553 275.413L281.47 276.33L281.47 276.33L280.553 275.413ZM279.671 276.347L278.694 275.493L278.686 275.503L279.671 276.347ZM279.1 276.97L278.183 276.052V276.052L279.1 276.97ZM274.897 277.125L275.814 276.208V276.208L274.897 277.125ZM274.014 275.05L272.718 274.993L272.717 275.022V275.05H274.014ZM275.052 272.87L275.97 273.788L278.045 271.712L277.128 270.795L276.211 269.877L274.135 271.953L275.052 272.87ZM277.128 270.795L278.045 271.712C278.959 270.798 279.897 270.023 280.857 269.383L280.138 268.304L279.418 267.224C278.303 267.968 277.234 268.854 276.211 269.877L277.128 270.795ZM280.138 268.304L280.882 269.367C281.665 268.818 282.657 268.511 283.926 268.511V267.214V265.917C282.22 265.917 280.686 266.337 279.394 267.241L280.138 268.304ZM283.926 267.214V268.511C284.85 268.511 285.63 268.833 286.33 269.532L287.247 268.615L288.164 267.698C286.996 266.529 285.562 265.917 283.926 265.917V267.214ZM287.247 268.615L286.33 269.532C286.919 270.122 287.351 271.188 287.351 273.026H288.648H289.945C289.945 270.851 289.443 268.976 288.164 267.698L287.247 268.615ZM288.648 273.026H287.351V298.09H288.648H289.945V273.026H288.648ZM288.648 298.09H287.351C287.351 298.725 287.162 299.175 286.823 299.534L287.766 300.425L288.709 301.316C289.546 300.429 289.945 299.322 289.945 298.09H288.648ZM287.766 300.425L286.796 299.563C286.52 299.873 286.148 300.062 285.534 300.062V301.359V302.656C286.789 302.656 287.904 302.222 288.735 301.287L287.766 300.425ZM285.534 301.359V300.062C284.921 300.062 284.514 299.872 284.194 299.534L283.251 300.425L282.308 301.316C283.165 302.223 284.279 302.656 285.534 302.656V301.359ZM283.251 300.425L284.221 299.563C283.904 299.207 283.718 298.747 283.718 298.09H282.421H281.124C281.124 299.3 281.491 300.397 282.282 301.287L283.251 300.425ZM282.421 298.09H283.718V274.635H282.421H281.124V298.09H282.421ZM282.421 274.635H283.718C283.718 274.308 283.633 273.933 283.381 273.597C283.133 273.267 282.808 273.085 282.52 272.989L282.11 274.219L281.699 275.45C281.619 275.423 281.449 275.345 281.305 275.154C281.157 274.956 281.124 274.754 281.124 274.635H282.421ZM282.11 274.219L282.777 273.107C282.395 272.878 281.941 272.808 281.496 272.929C281.102 273.036 280.813 273.267 280.621 273.458L281.539 274.375L282.456 275.292C282.473 275.276 282.382 275.377 282.179 275.432C282.068 275.462 281.936 275.475 281.793 275.455C281.651 275.435 281.532 275.386 281.442 275.332L282.11 274.219ZM281.539 274.375L280.621 273.458C280.524 273.556 280.384 273.729 280.266 273.876L281.279 274.686L282.292 275.497C282.359 275.414 282.409 275.352 282.445 275.309C282.462 275.288 282.474 275.275 282.479 275.268C282.489 275.257 282.478 275.27 282.456 275.292L281.539 274.375ZM281.279 274.686L280.362 273.769C280.224 273.908 279.981 274.15 279.636 274.496L280.553 275.413L281.47 276.33C281.816 275.984 282.058 275.742 282.197 275.604L281.279 274.686ZM280.553 275.413L279.636 274.496C279.275 274.856 278.96 275.189 278.694 275.493L279.671 276.347L280.647 277.201C280.865 276.952 281.138 276.662 281.47 276.33L280.553 275.413ZM279.671 276.347L278.686 275.503C278.494 275.727 278.326 275.909 278.183 276.052L279.1 276.97L280.017 277.887C280.219 277.685 280.433 277.452 280.656 277.191L279.671 276.347ZM279.1 276.97L278.183 276.052C277.675 276.56 277.244 276.71 276.869 276.71V278.008V279.305C278.084 279.305 279.141 278.763 280.017 277.887L279.1 276.97ZM276.869 278.008V276.71C276.537 276.71 276.197 276.591 275.814 276.208L274.897 277.125L273.979 278.043C274.772 278.836 275.747 279.305 276.869 279.305V278.008ZM274.897 277.125L275.814 276.208C275.457 275.851 275.312 275.484 275.312 275.05H274.014H272.717C272.717 276.206 273.16 277.224 273.979 278.043L274.897 277.125ZM274.014 275.05L275.311 275.106C275.329 274.688 275.501 274.256 275.97 273.788L275.052 272.87L274.135 271.953C273.289 272.799 272.769 273.82 272.718 274.993L274.014 275.05Z" fill="white" mask="url(#path-10-outside-1_2016_116259)"/>
</svg>
