<svg width="388" height="420" viewBox="0 0 388 420" fill="none" xmlns="http://www.w3.org/2000/svg">
<path d="M113.16 153.396L123.018 163.253L113.16 173.111" stroke="white" stroke-width="7.40901" stroke-linecap="round"/>
<path d="M274.306 173.11L264.449 163.253L274.306 153.396" stroke="white" stroke-width="7.40901" stroke-linecap="round"/>
<path d="M203.59 82.6802L193.733 92.5376L183.876 82.6802" stroke="white" stroke-width="7.40901" stroke-linecap="round"/>
<path d="M126.722 139.834L150.141 163.253L126.722 186.673M260.744 186.673L237.325 163.253L260.744 139.834M217.153 96.2422L193.733 119.661L170.314 96.2422M170.314 230.264L193.733 206.845L217.153 230.264" stroke="white" stroke-width="7.40901" stroke-linecap="round"/>
<path d="M183.876 243.826L193.733 233.969L203.591 243.826" stroke="white" stroke-width="7.40901" stroke-linecap="round"/>
<path d="M119.143 163.253H192.764M268.323 163.253L194.702 163.253M193.733 88.6626V162.284M193.733 237.843L193.733 164.222" stroke="white" stroke-width="7.40901"/>
<path d="M119.143 163.253H192.764M268.323 163.253L194.702 163.253M193.733 88.6631V162.285M193.733 237.844L193.733 164.222" stroke="white" stroke-width="7.40901"/>
<path fill-rule="evenodd" clip-rule="evenodd" d="M179.601 174.367C181.268 174.367 182.62 175.718 182.62 177.385C182.62 178.186 182.302 178.954 181.736 179.52L157.317 203.939C155.871 205.386 153.525 205.385 152.079 203.938C150.632 202.492 150.632 200.147 152.079 198.7L175.126 175.653C175.949 174.83 177.066 174.367 178.23 174.367H179.601ZM235.388 198.7C236.834 200.146 236.834 202.492 235.387 203.938C233.941 205.385 231.595 205.386 230.148 203.939L205.731 179.521C205.165 178.955 204.847 178.187 204.847 177.386C204.847 175.719 206.199 174.367 207.866 174.367H209.236C210.4 174.367 211.517 174.83 212.34 175.653L235.388 198.7ZM193.734 162.285C194.269 162.285 194.703 162.719 194.703 163.254C194.703 163.789 194.269 164.223 193.734 164.223C193.199 164.223 192.765 163.789 192.765 163.254C192.765 162.719 193.199 162.285 193.734 162.285ZM235.387 122.567C236.834 124.014 236.834 126.359 235.388 127.806L212.338 150.854C211.515 151.677 210.399 152.14 209.235 152.14H207.867C206.199 152.14 204.847 150.788 204.847 149.12C204.847 148.319 205.165 147.551 205.732 146.985L230.149 122.567C231.595 121.121 233.941 121.121 235.387 122.567ZM181.735 146.986C182.301 147.552 182.62 148.32 182.62 149.121C182.62 150.788 181.268 152.14 179.601 152.14H178.231C177.066 152.14 175.95 151.677 175.127 150.854L152.079 127.806C150.632 126.359 150.632 124.014 152.079 122.567C153.525 121.121 155.87 121.121 157.317 122.567L181.735 146.986Z" fill="white"/>
<path d="M127.945 260.782C134.179 256.019 142.989 255.599 149.239 260.619L149.535 260.863L149.901 261.181C157.356 267.818 157.758 279.29 151.111 286.453L150.784 286.797L127.251 310.807C125.476 312.616 122.59 312.616 120.815 310.807L97.2812 286.797V286.796C90.1739 279.548 90.5891 267.551 98.5186 260.863L99.0146 260.462C104.187 256.437 111.046 256.068 116.752 258.747C119.014 259.809 119.092 262.656 117.467 264.261C116.151 265.559 114.181 265.649 112.595 265.081C109.368 263.926 105.86 264.461 103.395 266.536C98.823 270.394 98.5606 277.407 102.681 281.608H102.682L124.032 303.392L145.383 281.609C149.494 277.408 149.23 270.395 144.659 266.537L144.315 266.263C140.704 263.533 135.118 263.888 131.362 267.725L131.361 267.726L126.75 272.42C125.259 273.938 122.794 273.938 121.303 272.42C119.849 270.939 119.876 268.576 121.361 267.127L123.574 264.969L125.96 262.539C126.585 261.9 127.249 261.314 127.945 260.782Z" fill="white" stroke="white" stroke-width="1.2973"/>
<mask id="path-10-outside-1_2016_116639" maskUnits="userSpaceOnUse" x="169.785" y="265.151" width="132" height="38" fill="black">
<rect fill="white" x="169.785" y="265.151" width="132" height="38"/>
<path d="M171.224 279.045C171.224 277.212 171.535 275.569 172.158 274.116C172.815 272.628 173.697 271.348 174.804 270.276C175.946 269.203 177.278 268.39 178.8 267.837C180.357 267.249 182.017 266.955 183.781 266.955C185.615 266.955 187.275 267.266 188.763 267.889C190.285 268.477 191.583 269.324 192.655 270.431C193.727 271.504 194.558 272.801 195.146 274.323C195.768 275.811 196.08 277.471 196.08 279.305C196.08 283.733 193.848 287.556 189.386 290.773L183.055 295.339H192.966C193.866 295.339 194.592 295.616 195.146 296.17C195.734 296.689 196.028 297.381 196.028 298.245C196.028 299.11 195.734 299.819 195.146 300.373C194.592 300.892 193.866 301.151 192.966 301.151H175.167C174.06 301.151 173.195 300.702 172.573 299.802C172.158 299.214 171.985 298.539 172.054 297.778C172.123 297.017 172.486 296.395 173.144 295.91L186.065 285.999C187.379 284.996 188.365 283.992 189.023 282.989C189.68 281.986 190.008 280.741 190.008 279.253C190.008 277.281 189.438 275.69 188.296 274.479C187.154 273.268 185.58 272.663 183.574 272.663C181.671 272.663 180.132 273.199 178.955 274.271C177.779 275.344 177.191 276.831 177.191 278.734C177.191 280.083 177.624 281.294 178.488 282.367C179.561 283.889 179.544 285.203 178.437 286.31C177.779 286.968 177.122 287.296 176.465 287.296C175.773 287.296 175.046 286.95 174.285 286.258C173.282 285.324 172.521 284.269 172.002 283.093C171.483 281.917 171.224 280.568 171.224 279.045ZM204.603 284.183C204.603 281.969 204.897 279.824 205.485 277.748C206.073 275.638 206.972 273.787 208.183 272.196C209.394 270.57 210.899 269.272 212.698 268.304C214.531 267.335 216.659 266.851 219.08 266.851C221.537 266.851 223.664 267.335 225.463 268.304C227.262 269.272 228.767 270.57 229.978 272.196C231.189 273.787 232.088 275.638 232.676 277.748C233.264 279.824 233.558 281.969 233.558 284.183C233.558 286.397 233.264 288.559 232.676 290.669C232.088 292.745 231.189 294.596 229.978 296.222C228.767 297.813 227.262 299.093 225.463 300.062C223.664 301.03 221.537 301.532 219.08 301.567C216.659 301.601 214.531 301.134 212.698 300.165C210.899 299.162 209.394 297.848 208.183 296.222C206.972 294.561 206.073 292.693 205.485 290.617C204.897 288.507 204.603 286.362 204.603 284.183ZM210.933 284.183C210.933 287.954 211.643 290.825 213.061 292.797C214.479 294.734 216.486 295.685 219.08 295.651C221.606 295.616 223.595 294.63 225.048 292.693C226.501 290.756 227.228 287.919 227.228 284.183C227.228 280.412 226.518 277.575 225.1 275.672C223.682 273.735 221.675 272.766 219.08 272.766C216.486 272.766 214.479 273.735 213.061 275.672C211.643 277.575 210.933 280.412 210.933 284.183ZM242.086 279.045C242.086 277.212 242.398 275.569 243.02 274.116C243.678 272.628 244.56 271.348 245.667 270.276C246.809 269.203 248.14 268.39 249.663 267.837C251.219 267.249 252.88 266.955 254.644 266.955C256.478 266.955 258.138 267.266 259.626 267.889C261.148 268.477 262.445 269.324 263.518 270.431C264.59 271.504 265.42 272.801 266.009 274.323C266.631 275.811 266.943 277.471 266.943 279.305C266.943 283.733 264.711 287.556 260.249 290.773L253.918 295.339H263.829C264.729 295.339 265.455 295.616 266.009 296.17C266.597 296.689 266.891 297.381 266.891 298.245C266.891 299.11 266.597 299.819 266.009 300.373C265.455 300.892 264.729 301.151 263.829 301.151H246.03C244.923 301.151 244.058 300.702 243.436 299.802C243.02 299.214 242.848 298.539 242.917 297.778C242.986 297.017 243.349 296.395 244.006 295.91L256.928 285.999C258.242 284.996 259.228 283.992 259.885 282.989C260.543 281.986 260.871 280.741 260.871 279.253C260.871 277.281 260.3 275.69 259.159 274.479C258.017 273.268 256.443 272.663 254.437 272.663C252.534 272.663 250.995 273.199 249.818 274.271C248.642 275.344 248.054 276.831 248.054 278.734C248.054 280.083 248.486 281.294 249.351 282.367C250.424 283.889 250.406 285.203 249.299 286.31C248.642 286.968 247.985 287.296 247.328 287.296C246.636 287.296 245.909 286.95 245.148 286.258C244.145 285.324 243.384 284.269 242.865 283.093C242.346 281.917 242.086 280.568 242.086 279.045ZM275.465 279.045C275.465 277.212 275.777 275.569 276.4 274.116C277.057 272.628 277.939 271.348 279.046 270.276C280.188 269.203 281.52 268.39 283.042 267.837C284.598 267.249 286.259 266.955 288.023 266.955C289.857 266.955 291.517 267.266 293.005 267.889C294.527 268.477 295.824 269.324 296.897 270.431C297.969 271.504 298.8 272.801 299.388 274.323C300.01 275.811 300.322 277.471 300.322 279.305C300.322 283.733 298.09 287.556 293.628 290.773L287.297 295.339H297.208C298.108 295.339 298.834 295.616 299.388 296.17C299.976 296.689 300.27 297.381 300.27 298.245C300.27 299.11 299.976 299.819 299.388 300.373C298.834 300.892 298.108 301.151 297.208 301.151H279.409C278.302 301.151 277.437 300.702 276.815 299.802C276.4 299.214 276.227 298.539 276.296 297.778C276.365 297.017 276.728 296.395 277.385 295.91L290.307 285.999C291.621 284.996 292.607 283.992 293.264 282.989C293.922 281.986 294.25 280.741 294.25 279.253C294.25 277.281 293.68 275.69 292.538 274.479C291.396 273.268 289.822 272.663 287.816 272.663C285.913 272.663 284.374 273.199 283.197 274.271C282.021 275.344 281.433 276.831 281.433 278.734C281.433 280.083 281.865 281.294 282.73 282.367C283.803 283.889 283.785 285.203 282.678 286.31C282.021 286.968 281.364 287.296 280.707 287.296C280.015 287.296 279.288 286.95 278.527 286.258C277.524 285.324 276.763 284.269 276.244 283.093C275.725 281.917 275.465 280.568 275.465 279.045Z"/>
</mask>
<path d="M171.224 279.045C171.224 277.212 171.535 275.569 172.158 274.116C172.815 272.628 173.697 271.348 174.804 270.276C175.946 269.203 177.278 268.39 178.8 267.837C180.357 267.249 182.017 266.955 183.781 266.955C185.615 266.955 187.275 267.266 188.763 267.889C190.285 268.477 191.583 269.324 192.655 270.431C193.727 271.504 194.558 272.801 195.146 274.323C195.768 275.811 196.08 277.471 196.08 279.305C196.08 283.733 193.848 287.556 189.386 290.773L183.055 295.339H192.966C193.866 295.339 194.592 295.616 195.146 296.17C195.734 296.689 196.028 297.381 196.028 298.245C196.028 299.11 195.734 299.819 195.146 300.373C194.592 300.892 193.866 301.151 192.966 301.151H175.167C174.06 301.151 173.195 300.702 172.573 299.802C172.158 299.214 171.985 298.539 172.054 297.778C172.123 297.017 172.486 296.395 173.144 295.91L186.065 285.999C187.379 284.996 188.365 283.992 189.023 282.989C189.68 281.986 190.008 280.741 190.008 279.253C190.008 277.281 189.438 275.69 188.296 274.479C187.154 273.268 185.58 272.663 183.574 272.663C181.671 272.663 180.132 273.199 178.955 274.271C177.779 275.344 177.191 276.831 177.191 278.734C177.191 280.083 177.624 281.294 178.488 282.367C179.561 283.889 179.544 285.203 178.437 286.31C177.779 286.968 177.122 287.296 176.465 287.296C175.773 287.296 175.046 286.95 174.285 286.258C173.282 285.324 172.521 284.269 172.002 283.093C171.483 281.917 171.224 280.568 171.224 279.045ZM204.603 284.183C204.603 281.969 204.897 279.824 205.485 277.748C206.073 275.638 206.972 273.787 208.183 272.196C209.394 270.57 210.899 269.272 212.698 268.304C214.531 267.335 216.659 266.851 219.08 266.851C221.537 266.851 223.664 267.335 225.463 268.304C227.262 269.272 228.767 270.57 229.978 272.196C231.189 273.787 232.088 275.638 232.676 277.748C233.264 279.824 233.558 281.969 233.558 284.183C233.558 286.397 233.264 288.559 232.676 290.669C232.088 292.745 231.189 294.596 229.978 296.222C228.767 297.813 227.262 299.093 225.463 300.062C223.664 301.03 221.537 301.532 219.08 301.567C216.659 301.601 214.531 301.134 212.698 300.165C210.899 299.162 209.394 297.848 208.183 296.222C206.972 294.561 206.073 292.693 205.485 290.617C204.897 288.507 204.603 286.362 204.603 284.183ZM210.933 284.183C210.933 287.954 211.643 290.825 213.061 292.797C214.479 294.734 216.486 295.685 219.08 295.651C221.606 295.616 223.595 294.63 225.048 292.693C226.501 290.756 227.228 287.919 227.228 284.183C227.228 280.412 226.518 277.575 225.1 275.672C223.682 273.735 221.675 272.766 219.08 272.766C216.486 272.766 214.479 273.735 213.061 275.672C211.643 277.575 210.933 280.412 210.933 284.183ZM242.086 279.045C242.086 277.212 242.398 275.569 243.02 274.116C243.678 272.628 244.56 271.348 245.667 270.276C246.809 269.203 248.14 268.39 249.663 267.837C251.219 267.249 252.88 266.955 254.644 266.955C256.478 266.955 258.138 267.266 259.626 267.889C261.148 268.477 262.445 269.324 263.518 270.431C264.59 271.504 265.42 272.801 266.009 274.323C266.631 275.811 266.943 277.471 266.943 279.305C266.943 283.733 264.711 287.556 260.249 290.773L253.918 295.339H263.829C264.729 295.339 265.455 295.616 266.009 296.17C266.597 296.689 266.891 297.381 266.891 298.245C266.891 299.11 266.597 299.819 266.009 300.373C265.455 300.892 264.729 301.151 263.829 301.151H246.03C244.923 301.151 244.058 300.702 243.436 299.802C243.02 299.214 242.848 298.539 242.917 297.778C242.986 297.017 243.349 296.395 244.006 295.91L256.928 285.999C258.242 284.996 259.228 283.992 259.885 282.989C260.543 281.986 260.871 280.741 260.871 279.253C260.871 277.281 260.3 275.69 259.159 274.479C258.017 273.268 256.443 272.663 254.437 272.663C252.534 272.663 250.995 273.199 249.818 274.271C248.642 275.344 248.054 276.831 248.054 278.734C248.054 280.083 248.486 281.294 249.351 282.367C250.424 283.889 250.406 285.203 249.299 286.31C248.642 286.968 247.985 287.296 247.328 287.296C246.636 287.296 245.909 286.95 245.148 286.258C244.145 285.324 243.384 284.269 242.865 283.093C242.346 281.917 242.086 280.568 242.086 279.045ZM275.465 279.045C275.465 277.212 275.777 275.569 276.4 274.116C277.057 272.628 277.939 271.348 279.046 270.276C280.188 269.203 281.52 268.39 283.042 267.837C284.598 267.249 286.259 266.955 288.023 266.955C289.857 266.955 291.517 267.266 293.005 267.889C294.527 268.477 295.824 269.324 296.897 270.431C297.969 271.504 298.8 272.801 299.388 274.323C300.01 275.811 300.322 277.471 300.322 279.305C300.322 283.733 298.09 287.556 293.628 290.773L287.297 295.339H297.208C298.108 295.339 298.834 295.616 299.388 296.17C299.976 296.689 300.27 297.381 300.27 298.245C300.27 299.11 299.976 299.819 299.388 300.373C298.834 300.892 298.108 301.151 297.208 301.151H279.409C278.302 301.151 277.437 300.702 276.815 299.802C276.4 299.214 276.227 298.539 276.296 297.778C276.365 297.017 276.728 296.395 277.385 295.91L290.307 285.999C291.621 284.996 292.607 283.992 293.264 282.989C293.922 281.986 294.25 280.741 294.25 279.253C294.25 277.281 293.68 275.69 292.538 274.479C291.396 273.268 289.822 272.663 287.816 272.663C285.913 272.663 284.374 273.199 283.197 274.271C282.021 275.344 281.433 276.831 281.433 278.734C281.433 280.083 281.865 281.294 282.73 282.367C283.803 283.889 283.785 285.203 282.678 286.31C282.021 286.968 281.364 287.296 280.707 287.296C280.015 287.296 279.288 286.95 278.527 286.258C277.524 285.324 276.763 284.269 276.244 283.093C275.725 281.917 275.465 280.568 275.465 279.045Z" fill="white"/>
<path d="M172.158 274.116L170.971 273.591L170.968 273.598L170.965 273.605L172.158 274.116ZM174.804 270.276L173.916 269.33L173.909 269.337L173.901 269.344L174.804 270.276ZM178.8 267.837L179.243 269.056L179.251 269.053L179.258 269.05L178.8 267.837ZM188.763 267.889L188.262 269.085L188.279 269.092L188.296 269.099L188.763 267.889ZM192.655 270.431L191.723 271.334L191.73 271.341L191.738 271.349L192.655 270.431ZM195.146 274.323L193.936 274.791L193.942 274.808L193.949 274.824L195.146 274.323ZM189.386 290.773L188.627 289.721L188.627 289.721L189.386 290.773ZM183.055 295.339L182.296 294.287L179.039 296.637H183.055V295.339ZM195.146 296.17L194.228 297.087L194.257 297.116L194.287 297.143L195.146 296.17ZM195.146 300.373L196.033 301.319L196.035 301.318L195.146 300.373ZM172.573 299.802L173.639 299.064L173.633 299.054L172.573 299.802ZM172.054 297.778L170.762 297.661V297.661L172.054 297.778ZM173.144 295.91L173.913 296.955L173.923 296.947L173.933 296.94L173.144 295.91ZM186.065 285.999L185.278 284.968L185.275 284.97L186.065 285.999ZM189.023 282.989L187.937 282.278V282.278L189.023 282.989ZM188.296 274.479L187.352 275.369V275.369L188.296 274.479ZM178.955 274.271L179.83 275.23H179.83L178.955 274.271ZM178.488 282.367L179.549 281.619L179.525 281.585L179.498 281.552L178.488 282.367ZM178.437 286.31L179.354 287.228L178.437 286.31ZM174.285 286.258L173.401 287.208L173.407 287.213L173.413 287.218L174.285 286.258ZM172.002 283.093L170.815 283.617V283.617L172.002 283.093ZM171.224 279.045H172.521C172.521 277.36 172.807 275.894 173.35 274.627L172.158 274.116L170.965 273.605C170.263 275.243 169.926 277.064 169.926 279.045H171.224ZM172.158 274.116L173.344 274.64C173.938 273.297 174.726 272.157 175.707 271.207L174.804 270.276L173.901 269.344C172.668 270.539 171.692 271.96 170.971 273.591L172.158 274.116ZM174.804 270.276L175.692 271.221C176.701 270.273 177.881 269.551 179.243 269.056L178.8 267.837L178.356 266.618C176.675 267.229 175.19 268.133 173.916 269.33L174.804 270.276ZM178.8 267.837L179.258 269.05C180.66 268.521 182.164 268.252 183.781 268.252V266.955V265.657C181.87 265.657 180.053 265.976 178.341 266.623L178.8 267.837ZM183.781 266.955V268.252C185.466 268.252 186.953 268.538 188.262 269.085L188.763 267.889L189.264 266.692C187.597 265.994 185.763 265.657 183.781 265.657V266.955ZM188.763 267.889L188.296 269.099C189.653 269.623 190.789 270.37 191.723 271.334L192.655 270.431L193.587 269.529C192.376 268.279 190.917 267.33 189.231 266.679L188.763 267.889ZM192.655 270.431L191.738 271.349C192.673 272.284 193.408 273.424 193.936 274.791L195.146 274.323L196.356 273.856C195.708 272.178 194.782 270.724 193.572 269.514L192.655 270.431ZM195.146 274.323L193.949 274.824C194.497 276.133 194.783 277.62 194.783 279.305H196.08H197.377C197.377 277.323 197.04 275.489 196.342 273.822L195.146 274.323ZM196.08 279.305H194.783C194.783 283.214 192.843 286.681 188.627 289.721L189.386 290.773L190.144 291.825C194.854 288.43 197.377 284.251 197.377 279.305H196.08ZM189.386 290.773L188.627 289.721L182.296 294.287L183.055 295.339L183.814 296.392L190.145 291.825L189.386 290.773ZM183.055 295.339V296.637H192.966V295.339V294.042H183.055V295.339ZM192.966 295.339V296.637C193.577 296.637 193.955 296.814 194.228 297.087L195.146 296.17L196.063 295.252C195.23 294.419 194.154 294.042 192.966 294.042V295.339ZM195.146 296.17L194.287 297.143C194.566 297.388 194.731 297.71 194.731 298.245H196.028H197.325C197.325 297.051 196.902 295.989 196.004 295.197L195.146 296.17ZM196.028 298.245H194.731C194.731 298.781 194.564 299.139 194.257 299.428L195.146 300.373L196.035 301.318C196.903 300.5 197.325 299.44 197.325 298.245H196.028ZM195.146 300.373L194.258 299.427C193.989 299.679 193.601 299.854 192.966 299.854V301.151V302.449C194.13 302.449 195.195 302.105 196.033 301.319L195.146 300.373ZM192.966 301.151V299.854H175.167V301.151V302.449H192.966V301.151ZM175.167 301.151V299.854C174.48 299.854 174.016 299.608 173.639 299.064L172.573 299.802L171.506 300.541C172.375 301.795 173.641 302.449 175.167 302.449V301.151ZM172.573 299.802L173.633 299.054C173.407 298.734 173.303 298.37 173.346 297.896L172.054 297.778L170.762 297.661C170.667 298.708 170.909 299.694 171.513 300.55L172.573 299.802ZM172.054 297.778L173.346 297.896C173.379 297.532 173.531 297.236 173.913 296.955L173.144 295.91L172.374 294.866C171.441 295.553 170.867 296.503 170.762 297.661L172.054 297.778ZM173.144 295.91L173.933 296.94L186.854 287.028L186.065 285.999L185.275 284.97L172.354 294.881L173.144 295.91ZM186.065 285.999L186.852 287.03C188.242 285.969 189.346 284.863 190.108 283.7L189.023 282.989L187.937 282.278C187.385 283.122 186.516 284.022 185.278 284.968L186.065 285.999ZM189.023 282.989L190.108 283.7C190.933 282.44 191.306 280.932 191.306 279.253H190.008H188.711C188.711 280.549 188.426 281.532 187.937 282.278L189.023 282.989ZM190.008 279.253H191.306C191.306 277.015 190.65 275.084 189.24 273.589L188.296 274.479L187.352 275.369C188.226 276.295 188.711 277.547 188.711 279.253H190.008ZM188.296 274.479L189.24 273.589C187.804 272.066 185.858 271.365 183.574 271.365V272.663V273.96C185.302 273.96 186.505 274.471 187.352 275.369L188.296 274.479ZM183.574 272.663V271.365C181.415 271.365 179.542 271.981 178.081 273.313L178.955 274.271L179.83 275.23C180.722 274.417 181.928 273.96 183.574 273.96V272.663ZM178.955 274.271L178.081 273.313C176.583 274.679 175.894 276.544 175.894 278.734H177.191H178.488C178.488 277.119 178.975 276.009 179.83 275.23L178.955 274.271ZM177.191 278.734H175.894C175.894 280.386 176.432 281.883 177.479 283.181L178.488 282.367L179.498 281.552C178.815 280.705 178.488 279.78 178.488 278.734H177.191ZM178.488 282.367L177.428 283.114C177.87 283.741 177.986 284.186 177.983 284.477C177.979 284.733 177.882 285.03 177.519 285.393L178.437 286.31L179.354 287.228C180.098 286.484 180.563 285.57 180.577 284.511C180.59 283.488 180.179 282.514 179.549 281.619L178.488 282.367ZM178.437 286.31L177.519 285.393C177.003 285.909 176.657 285.999 176.465 285.999V287.296V288.594C177.587 288.594 178.555 288.026 179.354 287.228L178.437 286.31ZM176.465 287.296V285.999C176.222 285.999 175.794 285.877 175.158 285.298L174.285 286.258L173.413 287.218C174.299 288.024 175.324 288.594 176.465 288.594V287.296ZM174.285 286.258L175.169 285.309C174.286 284.487 173.632 283.574 173.189 282.569L172.002 283.093L170.815 283.617C171.41 284.964 172.278 286.162 173.401 287.208L174.285 286.258ZM172.002 283.093L173.189 282.569C172.755 281.586 172.521 280.42 172.521 279.045H171.224H169.926C169.926 280.715 170.211 282.248 170.815 283.617L172.002 283.093ZM205.485 277.748L206.733 278.102L206.734 278.096L205.485 277.748ZM208.183 272.196L209.216 272.981L209.224 272.971L208.183 272.196ZM212.698 268.304L212.092 267.157L212.083 267.162L212.698 268.304ZM225.463 268.304L224.848 269.446L225.463 268.304ZM229.978 272.196L228.937 272.971L228.945 272.981L229.978 272.196ZM232.676 277.748L231.426 278.096L231.428 278.102L232.676 277.748ZM232.676 290.669L233.924 291.023L233.926 291.017L232.676 290.669ZM229.978 296.222L231.01 297.007L231.018 296.996L229.978 296.222ZM225.463 300.062L224.848 298.919V298.919L225.463 300.062ZM219.08 301.567L219.062 300.269L219.062 300.269L219.08 301.567ZM212.698 300.165L212.066 301.298L212.079 301.306L212.092 301.312L212.698 300.165ZM208.183 296.222L207.135 296.986L207.143 296.996L208.183 296.222ZM205.485 290.617L204.235 290.966L204.237 290.971L205.485 290.617ZM213.061 292.797L212.008 293.554L212.014 293.563L213.061 292.797ZM219.08 295.651L219.098 296.948L219.098 296.948L219.08 295.651ZM225.048 292.693L226.086 293.471V293.471L225.048 292.693ZM225.1 275.672L224.053 276.439L224.06 276.448L225.1 275.672ZM213.061 275.672L214.101 276.448L214.108 276.439L213.061 275.672ZM204.603 284.183H205.9C205.9 282.085 206.178 280.059 206.733 278.102L205.485 277.748L204.237 277.394C203.615 279.588 203.305 281.852 203.305 284.183H204.603ZM205.485 277.748L206.734 278.096C207.283 276.129 208.113 274.43 209.216 272.981L208.183 272.196L207.151 271.41C205.831 273.144 204.863 275.147 204.235 277.4L205.485 277.748ZM208.183 272.196L209.224 272.971C210.32 271.498 211.68 270.326 213.313 269.446L212.698 268.304L212.083 267.162C210.118 268.219 208.468 269.642 207.143 271.421L208.183 272.196ZM212.698 268.304L213.304 269.451C214.921 268.596 216.835 268.148 219.08 268.148V266.851V265.554C216.483 265.554 214.141 266.074 212.092 267.157L212.698 268.304ZM219.08 266.851V268.148C221.365 268.148 223.273 268.598 224.848 269.446L225.463 268.304L226.078 267.162C224.056 266.072 221.708 265.554 219.08 265.554V266.851ZM225.463 268.304L224.848 269.446C226.481 270.326 227.841 271.498 228.937 272.971L229.978 272.196L231.018 271.421C229.693 269.642 228.043 268.219 226.078 267.162L225.463 268.304ZM229.978 272.196L228.945 272.981C230.048 274.43 230.878 276.129 231.426 278.096L232.676 277.748L233.926 277.4C233.298 275.147 232.33 273.144 231.01 271.41L229.978 272.196ZM232.676 277.748L231.428 278.102C231.983 280.059 232.261 282.085 232.261 284.183H233.558H234.856C234.856 281.852 234.546 279.588 233.924 277.394L232.676 277.748ZM233.558 284.183H232.261C232.261 286.28 231.983 288.325 231.426 290.321L232.676 290.669L233.926 291.017C234.546 288.793 234.856 286.513 234.856 284.183H233.558ZM232.676 290.669L231.428 290.316C230.88 292.249 230.048 293.955 228.937 295.447L229.978 296.222L231.018 296.996C232.329 295.236 233.296 293.241 233.924 291.023L232.676 290.669ZM229.978 296.222L228.945 295.436C227.849 296.877 226.488 298.037 224.848 298.919L225.463 300.062L226.078 301.204C228.036 300.149 229.685 298.749 231.01 297.007L229.978 296.222ZM225.463 300.062L224.848 298.919C223.266 299.771 221.352 300.237 219.062 300.269L219.08 301.567L219.099 302.864C221.722 302.827 224.062 302.289 226.078 301.204L225.463 300.062ZM219.08 301.567L219.062 300.269C216.821 300.301 214.915 299.87 213.304 299.018L212.698 300.165L212.092 301.312C214.148 302.399 216.497 302.901 219.099 302.864L219.08 301.567ZM212.698 300.165L213.33 299.032C211.688 298.117 210.323 296.923 209.224 295.447L208.183 296.222L207.143 296.996C208.465 298.772 210.11 300.207 212.066 301.298L212.698 300.165ZM208.183 296.222L209.231 295.457C208.115 293.927 207.281 292.199 206.733 290.264L205.485 290.617L204.237 290.971C204.864 293.187 205.829 295.195 207.135 296.986L208.183 296.222ZM205.485 290.617L206.734 290.269C206.178 288.272 205.9 286.244 205.9 284.183H204.603H203.305C203.305 286.481 203.616 288.743 204.235 290.966L205.485 290.617ZM210.933 284.183H209.636C209.636 288.085 210.365 291.27 212.008 293.554L213.061 292.797L214.114 292.039C212.92 290.38 212.231 287.822 212.231 284.183H210.933ZM213.061 292.797L212.014 293.563C213.703 295.87 216.123 296.988 219.098 296.948L219.08 295.651L219.063 294.354C216.849 294.383 215.256 293.598 214.108 292.03L213.061 292.797ZM219.08 295.651L219.098 296.948C222.006 296.908 224.38 295.746 226.086 293.471L225.048 292.693L224.01 291.915C222.81 293.514 221.206 294.324 219.063 294.354L219.08 295.651ZM225.048 292.693L226.086 293.471C227.777 291.217 228.525 288.056 228.525 284.183H227.228H225.93C225.93 287.781 225.225 290.294 224.01 291.915L225.048 292.693ZM227.228 284.183H228.525C228.525 280.285 227.798 277.121 226.14 274.897L225.1 275.672L224.06 276.448C225.239 278.029 225.93 280.539 225.93 284.183H227.228ZM225.1 275.672L226.147 274.906C224.462 272.605 222.05 271.469 219.08 271.469V272.766V274.064C221.3 274.064 222.901 274.865 224.053 276.439L225.1 275.672ZM219.08 272.766V271.469C216.111 271.469 213.699 272.605 212.014 274.906L213.061 275.672L214.108 276.439C215.26 274.865 216.861 274.064 219.08 274.064V272.766ZM213.061 275.672L212.021 274.897C210.363 277.121 209.636 280.285 209.636 284.183H210.933H212.231C212.231 280.539 212.922 278.029 214.101 276.448L213.061 275.672ZM243.02 274.116L241.834 273.591L241.831 273.598L241.828 273.605L243.02 274.116ZM245.667 270.276L244.779 269.33L244.771 269.337L244.764 269.344L245.667 270.276ZM249.663 267.837L250.106 269.056L250.114 269.053L250.121 269.05L249.663 267.837ZM259.626 267.889L259.125 269.085L259.142 269.092L259.158 269.099L259.626 267.889ZM263.518 270.431L262.586 271.334L262.593 271.341L262.6 271.349L263.518 270.431ZM266.009 274.323L264.798 274.791L264.805 274.808L264.812 274.824L266.009 274.323ZM260.249 290.773L259.49 289.721L259.49 289.721L260.249 290.773ZM253.918 295.339L253.159 294.287L249.902 296.637H253.918V295.339ZM266.009 296.17L265.091 297.087L265.12 297.116L265.15 297.143L266.009 296.17ZM266.009 300.373L266.896 301.319L266.898 301.318L266.009 300.373ZM243.436 299.802L244.502 299.064L244.495 299.054L243.436 299.802ZM242.917 297.778L241.625 297.661V297.661L242.917 297.778ZM244.006 295.91L244.776 296.955L244.786 296.947L244.796 296.94L244.006 295.91ZM256.928 285.999L256.14 284.968L256.138 284.97L256.928 285.999ZM259.885 282.989L258.8 282.278V282.278L259.885 282.989ZM259.159 274.479L258.215 275.369V275.369L259.159 274.479ZM249.818 274.271L250.692 275.23V275.23L249.818 274.271ZM249.351 282.367L250.412 281.619L250.388 281.585L250.361 281.552L249.351 282.367ZM249.299 286.31L250.217 287.228L249.299 286.31ZM245.148 286.258L244.264 287.208L244.27 287.213L244.275 287.218L245.148 286.258ZM242.865 283.093L241.678 283.617V283.617L242.865 283.093ZM242.086 279.045H243.384C243.384 277.36 243.67 275.894 244.213 274.627L243.02 274.116L241.828 273.605C241.126 275.243 240.789 277.064 240.789 279.045H242.086ZM243.02 274.116L244.207 274.64C244.801 273.297 245.589 272.157 246.57 271.207L245.667 270.276L244.764 269.344C243.531 270.539 242.555 271.96 241.834 273.591L243.02 274.116ZM245.667 270.276L246.555 271.221C247.564 270.273 248.743 269.551 250.106 269.056L249.663 267.837L249.219 266.618C247.538 267.229 246.053 268.133 244.779 269.33L245.667 270.276ZM249.663 267.837L250.121 269.05C251.523 268.521 253.027 268.252 254.644 268.252V266.955V265.657C252.733 265.657 250.916 265.976 249.204 266.623L249.663 267.837ZM254.644 266.955V268.252C256.329 268.252 257.816 268.538 259.125 269.085L259.626 267.889L260.127 266.692C258.46 265.994 256.626 265.657 254.644 265.657V266.955ZM259.626 267.889L259.158 269.099C260.516 269.623 261.652 270.37 262.586 271.334L263.518 270.431L264.45 269.529C263.239 268.279 261.78 267.33 260.093 266.679L259.626 267.889ZM263.518 270.431L262.6 271.349C263.536 272.284 264.271 273.424 264.798 274.791L266.009 274.323L267.219 273.856C266.57 272.178 265.645 270.724 264.435 269.514L263.518 270.431ZM266.009 274.323L264.812 274.824C265.36 276.133 265.645 277.62 265.645 279.305H266.943H268.24C268.24 277.323 267.903 275.489 267.205 273.822L266.009 274.323ZM266.943 279.305H265.645C265.645 283.214 263.706 286.681 259.49 289.721L260.249 290.773L261.007 291.825C265.716 288.43 268.24 284.251 268.24 279.305H266.943ZM260.249 290.773L259.49 289.721L253.159 294.287L253.918 295.339L254.677 296.392L261.008 291.825L260.249 290.773ZM253.918 295.339V296.637H263.829V295.339V294.042H253.918V295.339ZM263.829 295.339V296.637C264.44 296.637 264.818 296.814 265.091 297.087L266.009 296.17L266.926 295.252C266.092 294.419 265.017 294.042 263.829 294.042V295.339ZM266.009 296.17L265.15 297.143C265.429 297.388 265.593 297.71 265.593 298.245H266.891H268.188C268.188 297.051 267.765 295.989 266.867 295.197L266.009 296.17ZM266.891 298.245H265.593C265.593 298.781 265.427 299.139 265.119 299.428L266.009 300.373L266.898 301.318C267.766 300.5 268.188 299.44 268.188 298.245H266.891ZM266.009 300.373L265.121 299.427C264.852 299.679 264.464 299.854 263.829 299.854V301.151V302.449C264.993 302.449 266.058 302.105 266.896 301.319L266.009 300.373ZM263.829 301.151V299.854H246.03V301.151V302.449H263.829V301.151ZM246.03 301.151V299.854C245.343 299.854 244.879 299.608 244.502 299.064L243.436 299.802L242.369 300.541C243.237 301.795 244.504 302.449 246.03 302.449V301.151ZM243.436 299.802L244.495 299.054C244.27 298.734 244.166 298.37 244.209 297.896L242.917 297.778L241.625 297.661C241.529 298.708 241.771 299.694 242.376 300.55L243.436 299.802ZM242.917 297.778L244.209 297.896C244.242 297.532 244.394 297.236 244.776 296.955L244.006 295.91L243.237 294.866C242.304 295.553 241.73 296.503 241.625 297.661L242.917 297.778ZM244.006 295.91L244.796 296.94L257.717 287.028L256.928 285.999L256.138 284.97L243.217 294.881L244.006 295.91ZM256.928 285.999L257.715 287.03C259.105 285.969 260.209 284.863 260.97 283.7L259.885 282.989L258.8 282.278C258.248 283.122 257.379 284.022 256.14 284.968L256.928 285.999ZM259.885 282.989L260.97 283.7C261.796 282.44 262.169 280.932 262.169 279.253H260.871H259.574C259.574 280.549 259.289 281.532 258.8 282.278L259.885 282.989ZM260.871 279.253H262.169C262.169 277.015 261.512 275.084 260.103 273.589L259.159 274.479L258.215 275.369C259.089 276.295 259.574 277.547 259.574 279.253H260.871ZM259.159 274.479L260.103 273.589C258.666 272.066 256.721 271.365 254.437 271.365V272.663V273.96C256.165 273.96 257.368 274.471 258.215 275.369L259.159 274.479ZM254.437 272.663V271.365C252.277 271.365 250.405 271.981 248.944 273.313L249.818 274.271L250.692 275.23C251.584 274.417 252.791 273.96 254.437 273.96V272.663ZM249.818 274.271L248.944 273.313C247.446 274.679 246.757 276.544 246.757 278.734H248.054H249.351C249.351 277.119 249.838 276.009 250.692 275.23L249.818 274.271ZM248.054 278.734H246.757C246.757 280.386 247.295 281.883 248.341 283.181L249.351 282.367L250.361 281.552C249.678 280.705 249.351 279.78 249.351 278.734H248.054ZM249.351 282.367L248.291 283.114C248.733 283.741 248.849 284.186 248.845 284.477C248.842 284.733 248.745 285.03 248.382 285.393L249.299 286.31L250.217 287.228C250.961 286.484 251.426 285.57 251.44 284.511C251.453 283.488 251.042 282.514 250.412 281.619L249.351 282.367ZM249.299 286.31L248.382 285.393C247.866 285.909 247.519 285.999 247.328 285.999V287.296V288.594C248.45 288.594 249.418 288.026 250.217 287.228L249.299 286.31ZM247.328 287.296V285.999C247.085 285.999 246.657 285.877 246.021 285.298L245.148 286.258L244.275 287.218C245.162 288.024 246.187 288.594 247.328 288.594V287.296ZM245.148 286.258L246.032 285.309C245.149 284.487 244.495 283.574 244.052 282.569L242.865 283.093L241.678 283.617C242.272 284.964 243.141 286.162 244.264 287.208L245.148 286.258ZM242.865 283.093L244.052 282.569C243.618 281.586 243.384 280.42 243.384 279.045H242.086H240.789C240.789 280.715 241.074 282.248 241.678 283.617L242.865 283.093ZM276.4 274.116L275.213 273.591L275.21 273.598L275.207 273.605L276.4 274.116ZM279.046 270.276L278.158 269.33L278.151 269.337L278.143 269.344L279.046 270.276ZM283.042 267.837L283.485 269.056L283.493 269.053L283.5 269.05L283.042 267.837ZM293.005 267.889L292.504 269.085L292.521 269.092L292.537 269.099L293.005 267.889ZM296.897 270.431L295.965 271.334L295.972 271.341L295.98 271.349L296.897 270.431ZM299.388 274.323L298.178 274.791L298.184 274.808L298.191 274.824L299.388 274.323ZM293.628 290.773L292.869 289.721L292.869 289.721L293.628 290.773ZM287.297 295.339L286.538 294.287L283.281 296.637H287.297V295.339ZM299.388 296.17L298.47 297.087L298.499 297.116L298.529 297.143L299.388 296.17ZM299.388 300.373L300.275 301.319L300.277 301.318L299.388 300.373ZM276.815 299.802L277.881 299.064L277.875 299.054L276.815 299.802ZM276.296 297.778L275.004 297.661V297.661L276.296 297.778ZM277.385 295.91L278.155 296.955L278.165 296.947L278.175 296.94L277.385 295.91ZM290.307 285.999L289.52 284.968L289.517 284.97L290.307 285.999ZM293.264 282.989L292.179 282.278V282.278L293.264 282.989ZM292.538 274.479L291.594 275.369V275.369L292.538 274.479ZM283.197 274.271L284.071 275.23V275.23L283.197 274.271ZM282.73 282.367L283.791 281.619L283.767 281.585L283.74 281.552L282.73 282.367ZM282.678 286.31L283.596 287.228L282.678 286.31ZM278.527 286.258L277.643 287.208L277.649 287.213L277.654 287.218L278.527 286.258ZM276.244 283.093L275.057 283.617V283.617L276.244 283.093ZM275.465 279.045H276.763C276.763 277.36 277.049 275.894 277.592 274.627L276.4 274.116L275.207 273.605C274.505 275.243 274.168 277.064 274.168 279.045H275.465ZM276.4 274.116L277.586 274.64C278.18 273.297 278.968 272.157 279.949 271.207L279.046 270.276L278.143 269.344C276.91 270.539 275.934 271.96 275.213 273.591L276.4 274.116ZM279.046 270.276L279.934 271.221C280.943 270.273 282.122 269.551 283.485 269.056L283.042 267.837L282.598 266.618C280.917 267.229 279.432 268.133 278.158 269.33L279.046 270.276ZM283.042 267.837L283.5 269.05C284.902 268.521 286.406 268.252 288.023 268.252V266.955V265.657C286.112 265.657 284.295 265.976 282.583 266.623L283.042 267.837ZM288.023 266.955V268.252C289.708 268.252 291.195 268.538 292.504 269.085L293.005 267.889L293.506 266.692C291.839 265.994 290.005 265.657 288.023 265.657V266.955ZM293.005 267.889L292.537 269.099C293.895 269.623 295.031 270.37 295.965 271.334L296.897 270.431L297.829 269.529C296.618 268.279 295.159 267.33 293.472 266.679L293.005 267.889ZM296.897 270.431L295.98 271.349C296.915 272.284 297.65 273.424 298.178 274.791L299.388 274.323L300.598 273.856C299.949 272.178 299.024 270.724 297.814 269.514L296.897 270.431ZM299.388 274.323L298.191 274.824C298.739 276.133 299.024 277.62 299.024 279.305H300.322H301.619C301.619 277.323 301.282 275.489 300.584 273.822L299.388 274.323ZM300.322 279.305H299.024C299.024 283.214 297.085 286.681 292.869 289.721L293.628 290.773L294.386 291.825C299.095 288.43 301.619 284.251 301.619 279.305H300.322ZM293.628 290.773L292.869 289.721L286.538 294.287L287.297 295.339L288.056 296.392L294.387 291.825L293.628 290.773ZM287.297 295.339V296.637H297.208V295.339V294.042H287.297V295.339ZM297.208 295.339V296.637C297.819 296.637 298.197 296.814 298.47 297.087L299.388 296.17L300.305 295.252C299.471 294.419 298.396 294.042 297.208 294.042V295.339ZM299.388 296.17L298.529 297.143C298.808 297.388 298.973 297.71 298.973 298.245H300.27H301.567C301.567 297.051 301.144 295.989 300.246 295.197L299.388 296.17ZM300.27 298.245H298.973C298.973 298.781 298.806 299.139 298.499 299.428L299.388 300.373L300.277 301.318C301.145 300.5 301.567 299.44 301.567 298.245H300.27ZM299.388 300.373L298.5 299.427C298.231 299.679 297.843 299.854 297.208 299.854V301.151V302.449C298.372 302.449 299.437 302.105 300.275 301.319L299.388 300.373ZM297.208 301.151V299.854H279.409V301.151V302.449H297.208V301.151ZM279.409 301.151V299.854C278.722 299.854 278.258 299.608 277.881 299.064L276.815 299.802L275.748 300.541C276.617 301.795 277.883 302.449 279.409 302.449V301.151ZM276.815 299.802L277.875 299.054C277.649 298.734 277.545 298.37 277.588 297.896L276.296 297.778L275.004 297.661C274.909 298.708 275.15 299.694 275.755 300.55L276.815 299.802ZM276.296 297.778L277.588 297.896C277.621 297.532 277.773 297.236 278.155 296.955L277.385 295.91L276.616 294.866C275.683 295.553 275.109 296.503 275.004 297.661L276.296 297.778ZM277.385 295.91L278.175 296.94L291.096 287.028L290.307 285.999L289.517 284.97L276.596 294.881L277.385 295.91ZM290.307 285.999L291.094 287.03C292.484 285.969 293.588 284.863 294.35 283.7L293.264 282.989L292.179 282.278C291.627 283.122 290.758 284.022 289.52 284.968L290.307 285.999ZM293.264 282.989L294.35 283.7C295.175 282.44 295.548 280.932 295.548 279.253H294.25H292.953C292.953 280.549 292.668 281.532 292.179 282.278L293.264 282.989ZM294.25 279.253H295.548C295.548 277.015 294.891 275.084 293.482 273.589L292.538 274.479L291.594 275.369C292.468 276.295 292.953 277.547 292.953 279.253H294.25ZM292.538 274.479L293.482 273.589C292.046 272.066 290.1 271.365 287.816 271.365V272.663V273.96C289.544 273.96 290.747 274.471 291.594 275.369L292.538 274.479ZM287.816 272.663V271.365C285.656 271.365 283.784 271.981 282.323 273.313L283.197 274.271L284.071 275.23C284.964 274.417 286.17 273.96 287.816 273.96V272.663ZM283.197 274.271L282.323 273.313C280.825 274.679 280.136 276.544 280.136 278.734H281.433H282.73C282.73 277.119 283.217 276.009 284.071 275.23L283.197 274.271ZM281.433 278.734H280.136C280.136 280.386 280.674 281.883 281.721 283.181L282.73 282.367L283.74 281.552C283.057 280.705 282.73 279.78 282.73 278.734H281.433ZM282.73 282.367L281.67 283.114C282.112 283.741 282.228 284.186 282.225 284.477C282.221 284.733 282.124 285.03 281.761 285.393L282.678 286.31L283.596 287.228C284.34 286.484 284.805 285.57 284.819 284.511C284.832 283.488 284.421 282.514 283.791 281.619L282.73 282.367ZM282.678 286.31L281.761 285.393C281.245 285.909 280.898 285.999 280.707 285.999V287.296V288.594C281.829 288.594 282.797 288.026 283.596 287.228L282.678 286.31ZM280.707 287.296V285.999C280.464 285.999 280.036 285.877 279.4 285.298L278.527 286.258L277.654 287.218C278.541 288.024 279.566 288.594 280.707 288.594V287.296ZM278.527 286.258L279.411 285.309C278.528 284.487 277.874 283.574 277.431 282.569L276.244 283.093L275.057 283.617C275.652 284.964 276.52 286.162 277.643 287.208L278.527 286.258ZM276.244 283.093L277.431 282.569C276.997 281.586 276.763 280.42 276.763 279.045H275.465H274.168C274.168 280.715 274.453 282.248 275.057 283.617L276.244 283.093Z" fill="white" mask="url(#path-10-outside-1_2016_116639)"/>
</svg>
