<svg width="388" height="420" viewBox="0 0 388 420" fill="none" xmlns="http://www.w3.org/2000/svg">
<path d="M175.21 116.805C172.428 119.56 168.108 119.867 164.41 118.538C155.604 115.376 145.941 116.814 139.1 122.593C126.589 133.187 125.874 152.421 137.148 163.956L193.276 221.42L249.402 163.96C260.653 152.423 259.933 133.186 247.42 122.592C237.446 114.168 221.467 114.978 210.941 125.768L199.078 137.889C195.895 141.141 190.627 141.141 187.444 137.889C184.35 134.728 184.405 129.689 187.567 126.594L193.261 121.022L199.425 114.724C200.979 113.132 202.628 111.671 204.356 110.346C220.102 98.273 242.364 97.4479 257.816 110.504C277.467 127.134 278.5 156.982 260.914 175.008L200.364 236.998C196.453 241.001 190.1 241.001 186.189 236.998L125.639 175.008C108.022 156.982 109.054 127.134 128.706 110.504C141.593 99.615 159.2 98.3815 173.834 105.276C178.367 107.412 178.759 113.289 175.21 116.805Z" fill="white"/>
<mask id="path-2-outside-1_2016_112146" maskUnits="userSpaceOnUse" x="118.16" y="266.337" width="153" height="45" fill="black">
<rect fill="white" x="118.16" y="266.337" width="153" height="45"/>
<path d="M145.639 303.651C147.141 303.651 148.102 304.552 148.102 305.994C148.102 307.436 147.141 308.337 145.639 308.337H124.07C123.829 308.337 122.688 308.277 121.967 307.195C121.366 306.234 121.366 304.912 122.507 304.071L137.828 291.754C141.013 289.171 143.356 286.768 143.356 282.442C143.356 277.155 139.871 273.43 134.404 273.43C129.176 273.43 125.211 276.794 125.211 282.141C125.211 284.364 126.052 286.167 127.254 287.549C128.155 288.75 128.215 289.952 127.374 290.793C126.172 292.115 124.971 291.694 123.949 290.793C120.945 288.21 120.405 284.304 120.405 282.442C120.405 274.631 126.473 268.803 134.524 268.803C142.875 268.803 148.222 274.992 148.222 282.562C148.222 287.729 145.699 291.634 140.292 295.84L130.378 303.651H145.639ZM175.155 268.743C184.347 268.743 191.317 276.554 191.317 288.69C191.317 300.887 184.347 308.697 175.155 308.757C165.962 308.818 158.993 300.887 158.993 288.69C158.993 276.554 165.962 268.743 175.155 268.743ZM175.155 273.43C168.606 273.43 164.04 278.837 164.04 288.69C164.04 298.544 168.606 304.071 175.155 304.011C181.704 303.951 186.27 298.544 186.27 288.69C186.27 278.837 181.704 273.43 175.155 273.43ZM227.275 303.651C228.777 303.651 229.738 304.552 229.738 305.994C229.738 307.436 228.777 308.337 227.275 308.337H205.705C205.465 308.337 204.323 308.277 203.602 307.195C203.002 306.234 203.002 304.912 204.143 304.071L219.464 291.754C222.648 289.171 224.991 286.768 224.991 282.442C224.991 277.155 221.507 273.43 216.039 273.43C210.812 273.43 206.847 276.794 206.847 282.141C206.847 284.364 207.688 286.167 208.89 287.549C209.791 288.75 209.851 289.952 209.01 290.793C207.808 292.115 206.607 291.694 205.585 290.793C202.581 288.21 202.04 284.304 202.04 282.442C202.04 274.631 208.109 268.803 216.16 268.803C224.511 268.803 229.858 274.992 229.858 282.562C229.858 287.729 227.335 291.634 221.927 295.84L212.014 303.651H227.275ZM265.803 293.497C267.305 293.497 268.266 294.398 268.266 295.78C268.266 297.222 267.305 298.123 265.803 298.123H262.679C260.335 298.123 259.554 299.144 259.554 302.149V306.114C259.554 307.616 258.653 308.517 257.151 308.517C255.709 308.517 254.808 307.616 254.808 306.114V302.149C254.808 299.144 254.027 298.123 251.684 298.123H241.59C240.088 298.123 239.127 297.162 239.127 295.78C239.127 295.059 239.367 294.578 239.848 293.797L254.327 270.245C255.168 268.923 256.55 268.443 257.812 269.284C259.074 270.065 259.254 271.507 258.473 272.709L245.255 293.557H250.542C252.224 293.557 253.606 293.677 254.868 294.758V289.111C254.868 287.549 255.709 286.708 257.151 286.708C258.653 286.708 259.434 287.549 259.434 289.111V294.578C260.576 293.617 262.018 293.497 263.099 293.497H265.803Z"/>
</mask>
<path d="M145.639 303.651C147.141 303.651 148.102 304.552 148.102 305.994C148.102 307.436 147.141 308.337 145.639 308.337H124.07C123.829 308.337 122.688 308.277 121.967 307.195C121.366 306.234 121.366 304.912 122.507 304.071L137.828 291.754C141.013 289.171 143.356 286.768 143.356 282.442C143.356 277.155 139.871 273.43 134.404 273.43C129.176 273.43 125.211 276.794 125.211 282.141C125.211 284.364 126.052 286.167 127.254 287.549C128.155 288.75 128.215 289.952 127.374 290.793C126.172 292.115 124.971 291.694 123.949 290.793C120.945 288.21 120.405 284.304 120.405 282.442C120.405 274.631 126.473 268.803 134.524 268.803C142.875 268.803 148.222 274.992 148.222 282.562C148.222 287.729 145.699 291.634 140.292 295.84L130.378 303.651H145.639ZM175.155 268.743C184.347 268.743 191.317 276.554 191.317 288.69C191.317 300.887 184.347 308.697 175.155 308.757C165.962 308.818 158.993 300.887 158.993 288.69C158.993 276.554 165.962 268.743 175.155 268.743ZM175.155 273.43C168.606 273.43 164.04 278.837 164.04 288.69C164.04 298.544 168.606 304.071 175.155 304.011C181.704 303.951 186.27 298.544 186.27 288.69C186.27 278.837 181.704 273.43 175.155 273.43ZM227.275 303.651C228.777 303.651 229.738 304.552 229.738 305.994C229.738 307.436 228.777 308.337 227.275 308.337H205.705C205.465 308.337 204.323 308.277 203.602 307.195C203.002 306.234 203.002 304.912 204.143 304.071L219.464 291.754C222.648 289.171 224.991 286.768 224.991 282.442C224.991 277.155 221.507 273.43 216.039 273.43C210.812 273.43 206.847 276.794 206.847 282.141C206.847 284.364 207.688 286.167 208.89 287.549C209.791 288.75 209.851 289.952 209.01 290.793C207.808 292.115 206.607 291.694 205.585 290.793C202.581 288.21 202.04 284.304 202.04 282.442C202.04 274.631 208.109 268.803 216.16 268.803C224.511 268.803 229.858 274.992 229.858 282.562C229.858 287.729 227.335 291.634 221.927 295.84L212.014 303.651H227.275ZM265.803 293.497C267.305 293.497 268.266 294.398 268.266 295.78C268.266 297.222 267.305 298.123 265.803 298.123H262.679C260.335 298.123 259.554 299.144 259.554 302.149V306.114C259.554 307.616 258.653 308.517 257.151 308.517C255.709 308.517 254.808 307.616 254.808 306.114V302.149C254.808 299.144 254.027 298.123 251.684 298.123H241.59C240.088 298.123 239.127 297.162 239.127 295.78C239.127 295.059 239.367 294.578 239.848 293.797L254.327 270.245C255.168 268.923 256.55 268.443 257.812 269.284C259.074 270.065 259.254 271.507 258.473 272.709L245.255 293.557H250.542C252.224 293.557 253.606 293.677 254.868 294.758V289.111C254.868 287.549 255.709 286.708 257.151 286.708C258.653 286.708 259.434 287.549 259.434 289.111V294.578C260.576 293.617 262.018 293.497 263.099 293.497H265.803Z" fill="white"/>
<path d="M121.967 307.195L120.268 308.257L120.284 308.282L120.3 308.306L121.967 307.195ZM122.507 304.071L123.695 305.683L123.729 305.658L123.762 305.632L122.507 304.071ZM137.828 291.754L139.083 293.315L139.09 293.31L137.828 291.754ZM127.254 287.549L128.856 286.347L128.813 286.289L128.765 286.235L127.254 287.549ZM127.374 290.793L125.958 289.377L125.924 289.411L125.892 289.446L127.374 290.793ZM123.949 290.793L125.274 289.291L125.265 289.283L125.255 289.275L123.949 290.793ZM140.292 295.84L139.062 294.259L139.052 294.267L140.292 295.84ZM130.378 303.651L129.139 302.077L124.6 305.653H130.378V303.651ZM145.639 303.651V305.653C145.815 305.653 145.927 305.68 145.987 305.701C146.017 305.712 146.035 305.721 146.044 305.727C146.049 305.73 146.052 305.732 146.054 305.733C146.056 305.735 146.056 305.735 146.056 305.735C146.056 305.735 146.056 305.735 146.056 305.735C146.056 305.734 146.056 305.734 146.056 305.735C146.057 305.736 146.061 305.742 146.066 305.756C146.077 305.783 146.099 305.856 146.099 305.994H148.102H150.105C150.105 304.812 149.699 303.669 148.811 302.828C147.936 301.998 146.788 301.648 145.639 301.648V303.651ZM148.102 305.994H146.099C146.099 306.131 146.077 306.205 146.066 306.232C146.061 306.246 146.057 306.252 146.056 306.252C146.056 306.253 146.056 306.253 146.056 306.253C146.056 306.252 146.056 306.252 146.056 306.252C146.056 306.252 146.056 306.253 146.054 306.254C146.052 306.255 146.049 306.258 146.044 306.26C146.035 306.266 146.017 306.276 145.987 306.286C145.927 306.308 145.815 306.334 145.639 306.334V308.337V310.34C146.788 310.34 147.936 309.989 148.811 309.16C149.699 308.319 150.105 307.175 150.105 305.994H148.102ZM145.639 308.337V306.334H124.07V308.337V310.34H145.639V308.337ZM124.07 308.337V306.334C124.098 306.334 124.006 306.335 123.894 306.294C123.844 306.275 123.799 306.252 123.76 306.223C123.724 306.196 123.68 306.155 123.633 306.084L121.967 307.195L120.3 308.306C121.592 310.244 123.625 310.34 124.07 310.34V308.337ZM121.967 307.195L123.665 306.134C123.574 305.989 123.567 305.873 123.572 305.83C123.574 305.814 123.577 305.804 123.584 305.794C123.589 305.783 123.615 305.743 123.695 305.683L122.507 304.071L121.319 302.459C119.145 304.061 119.248 306.624 120.268 308.257L121.967 307.195ZM122.507 304.071L123.762 305.632L139.083 293.315L137.828 291.754L136.573 290.194L121.253 302.51L122.507 304.071ZM137.828 291.754L139.09 293.31C142.355 290.661 145.358 287.737 145.358 282.442H143.356H141.353C141.353 285.798 139.67 287.681 136.566 290.199L137.828 291.754ZM143.356 282.442H145.358C145.358 279.353 144.334 276.572 142.363 274.554C140.386 272.529 137.608 271.427 134.404 271.427V273.43V275.432C136.667 275.432 138.365 276.193 139.497 277.352C140.635 278.518 141.353 280.243 141.353 282.442H143.356ZM134.404 273.43V271.427C131.363 271.427 128.559 272.409 126.493 274.305C124.409 276.218 123.208 278.944 123.208 282.141H125.211H127.214C127.214 279.992 127.996 278.362 129.201 277.256C130.425 276.133 132.217 275.432 134.404 275.432V273.43ZM125.211 282.141H123.208C123.208 284.91 124.268 287.167 125.743 288.863L127.254 287.549L128.765 286.235C127.837 285.167 127.214 283.819 127.214 282.141H125.211ZM127.254 287.549L125.652 288.75C125.935 289.128 125.965 289.347 125.966 289.387C125.967 289.401 125.965 289.388 125.974 289.365C125.983 289.342 125.988 289.347 125.958 289.377L127.374 290.793L128.79 292.209C129.599 291.4 130.014 290.35 129.968 289.225C129.925 288.154 129.474 287.171 128.856 286.347L127.254 287.549ZM127.374 290.793L125.892 289.446C125.737 289.616 125.655 289.651 125.662 289.648C125.681 289.639 125.729 289.628 125.775 289.632C125.807 289.635 125.78 289.64 125.683 289.589C125.584 289.537 125.447 289.443 125.274 289.291L123.949 290.793L122.624 292.295C123.266 292.861 124.215 293.512 125.413 293.621C126.75 293.743 127.932 293.156 128.856 292.14L127.374 290.793ZM123.949 290.793L125.255 289.275C122.906 287.255 122.407 284.077 122.407 282.442H120.405H118.402C118.402 284.532 118.984 289.165 122.644 292.312L123.949 290.793ZM120.405 282.442H122.407C122.407 275.805 127.51 270.806 134.524 270.806V268.803V266.801C125.436 266.801 118.402 273.457 118.402 282.442H120.405ZM134.524 268.803V270.806C141.683 270.806 146.22 276.009 146.22 282.562H148.222H150.225C150.225 273.974 144.067 266.801 134.524 266.801V268.803ZM148.222 282.562H146.22C146.22 286.864 144.216 290.25 139.062 294.259L140.292 295.84L141.521 297.421C147.181 293.018 150.225 288.594 150.225 282.562H148.222ZM140.292 295.84L139.052 294.267L129.139 302.077L130.378 303.651L131.618 305.224L141.531 297.413L140.292 295.84ZM130.378 303.651V305.653H145.639V303.651V301.648H130.378V303.651ZM175.155 308.757L175.168 310.76L175.155 308.757ZM175.155 268.743V270.746C179.144 270.746 182.625 272.425 185.144 275.448C187.681 278.492 189.314 282.997 189.314 288.69H191.317H193.319C193.319 282.247 191.468 276.779 188.221 272.883C184.958 268.967 180.358 266.74 175.155 266.74V268.743ZM191.317 288.69H189.314C189.314 294.415 187.68 298.937 185.142 301.996C182.62 305.035 179.135 306.729 175.142 306.755L175.155 308.757L175.168 310.76C180.367 310.726 184.963 308.485 188.224 304.554C191.469 300.644 193.319 295.162 193.319 288.69H191.317ZM175.155 308.757L175.142 306.755C167.414 306.805 160.996 300.165 160.996 288.69H158.993H156.99C156.99 301.609 164.511 310.83 175.168 310.76L175.155 308.757ZM158.993 288.69H160.996C160.996 282.997 162.628 278.492 165.165 275.448C167.684 272.425 171.166 270.746 175.155 270.746V268.743V266.74C169.951 266.74 165.352 268.967 162.088 272.883C158.842 276.779 156.99 282.247 156.99 288.69H158.993ZM175.155 273.43V271.427C171.27 271.427 167.894 273.059 165.546 276.154C163.241 279.192 162.037 283.482 162.037 288.69H164.04H166.042C166.042 284.045 167.122 280.704 168.737 278.575C170.309 276.504 172.491 275.432 175.155 275.432V273.43ZM164.04 288.69H162.037C162.037 293.898 163.241 298.214 165.541 301.272C167.885 304.389 171.266 306.05 175.173 306.014L175.155 304.011L175.136 302.008C172.494 302.033 170.318 300.959 168.742 298.864C167.122 296.711 166.042 293.336 166.042 288.69H164.04ZM175.155 304.011L175.173 306.014C179.052 305.978 182.421 304.331 184.765 301.231C187.068 298.187 188.273 293.9 188.273 288.69H186.27H184.267C184.267 293.334 183.188 296.677 181.571 298.815C179.995 300.897 177.807 301.984 175.136 302.008L175.155 304.011ZM186.27 288.69H188.273C188.273 283.482 187.069 279.192 184.764 276.154C182.415 273.059 179.04 271.427 175.155 271.427V273.43V275.432C177.819 275.432 180.001 276.504 181.573 278.575C183.188 280.704 184.267 284.045 184.267 288.69H186.27ZM203.602 307.195L201.904 308.257L201.92 308.282L201.936 308.306L203.602 307.195ZM204.143 304.071L205.331 305.683L205.365 305.658L205.398 305.632L204.143 304.071ZM219.464 291.754L220.719 293.315L220.726 293.31L219.464 291.754ZM208.89 287.549L210.492 286.347L210.448 286.289L210.401 286.235L208.89 287.549ZM209.01 290.793L207.594 289.377L207.56 289.411L207.528 289.446L209.01 290.793ZM205.585 290.793L206.91 289.291L206.901 289.283L206.891 289.275L205.585 290.793ZM221.927 295.84L220.698 294.259L220.688 294.267L221.927 295.84ZM212.014 303.651L210.774 302.077L206.236 305.653H212.014V303.651ZM227.275 303.651V305.653C227.451 305.653 227.563 305.68 227.623 305.701C227.653 305.712 227.671 305.721 227.68 305.727C227.685 305.73 227.688 305.732 227.69 305.733C227.691 305.735 227.692 305.735 227.692 305.735C227.692 305.735 227.692 305.735 227.692 305.735C227.691 305.734 227.691 305.734 227.692 305.735C227.692 305.736 227.696 305.742 227.702 305.756C227.713 305.783 227.735 305.856 227.735 305.994H229.738H231.741C231.741 304.812 231.335 303.669 230.447 302.828C229.571 301.998 228.424 301.648 227.275 301.648V303.651ZM229.738 305.994H227.735C227.735 306.131 227.713 306.205 227.702 306.232C227.696 306.246 227.692 306.252 227.692 306.252C227.691 306.253 227.691 306.253 227.692 306.253C227.692 306.252 227.692 306.252 227.692 306.252C227.692 306.252 227.691 306.253 227.69 306.254C227.688 306.255 227.685 306.258 227.68 306.26C227.671 306.266 227.653 306.276 227.623 306.286C227.563 306.308 227.451 306.334 227.275 306.334V308.337V310.34C228.424 310.34 229.571 309.989 230.447 309.16C231.335 308.319 231.741 307.175 231.741 305.994H229.738ZM227.275 308.337V306.334H205.705V308.337V310.34H227.275V308.337ZM205.705 308.337V306.334C205.734 306.334 205.642 306.335 205.53 306.294C205.48 306.275 205.435 306.252 205.396 306.223C205.36 306.196 205.316 306.155 205.269 306.084L203.602 307.195L201.936 308.306C203.228 310.244 205.261 310.34 205.705 310.34V308.337ZM203.602 307.195L205.301 306.134C205.21 305.989 205.202 305.873 205.208 305.83C205.21 305.814 205.213 305.804 205.219 305.794C205.225 305.783 205.251 305.743 205.331 305.683L204.143 304.071L202.955 302.459C200.78 304.061 200.884 306.624 201.904 308.257L203.602 307.195ZM204.143 304.071L205.398 305.632L220.719 293.315L219.464 291.754L218.209 290.194L202.888 302.51L204.143 304.071ZM219.464 291.754L220.726 293.31C223.991 290.661 226.994 287.737 226.994 282.442H224.991H222.989C222.989 285.798 221.306 287.681 218.202 290.199L219.464 291.754ZM224.991 282.442H226.994C226.994 279.353 225.969 276.572 223.999 274.554C222.022 272.529 219.243 271.427 216.039 271.427V273.43V275.432C218.303 275.432 220.001 276.193 221.133 277.352C222.271 278.518 222.989 280.243 222.989 282.442H224.991ZM216.039 273.43V271.427C212.999 271.427 210.195 272.409 208.129 274.305C206.044 276.218 204.844 278.944 204.844 282.141H206.847H208.85C208.85 279.992 209.632 278.362 210.837 277.256C212.061 276.133 213.852 275.432 216.039 275.432V273.43ZM206.847 282.141H204.844C204.844 284.91 205.903 287.167 207.378 288.863L208.89 287.549L210.401 286.235C209.473 285.167 208.85 283.819 208.85 282.141H206.847ZM208.89 287.549L207.287 288.75C207.571 289.128 207.6 289.347 207.602 289.387C207.603 289.401 207.601 289.388 207.61 289.365C207.619 289.342 207.624 289.347 207.594 289.377L209.01 290.793L210.426 292.209C211.235 291.4 211.65 290.35 211.604 289.225C211.561 288.154 211.11 287.171 210.492 286.347L208.89 287.549ZM209.01 290.793L207.528 289.446C207.373 289.616 207.291 289.651 207.297 289.648C207.317 289.639 207.365 289.628 207.411 289.632C207.443 289.635 207.416 289.64 207.319 289.589C207.22 289.537 207.083 289.443 206.91 289.291L205.585 290.793L204.26 292.295C204.902 292.861 205.851 293.512 207.049 293.621C208.386 293.743 209.568 293.156 210.492 292.14L209.01 290.793ZM205.585 290.793L206.891 289.275C204.542 287.255 204.043 284.077 204.043 282.442H202.04H200.038C200.038 284.532 200.62 289.165 204.279 292.312L205.585 290.793ZM202.04 282.442H204.043C204.043 275.805 209.145 270.806 216.16 270.806V268.803V266.801C207.072 266.801 200.038 273.457 200.038 282.442H202.04ZM216.16 268.803V270.806C223.319 270.806 227.855 276.009 227.855 282.562H229.858H231.861C231.861 273.974 225.703 266.801 216.16 266.801V268.803ZM229.858 282.562H227.855C227.855 286.864 225.852 290.25 220.698 294.259L221.927 295.84L223.157 297.421C228.817 293.018 231.861 288.594 231.861 282.562H229.858ZM221.927 295.84L220.688 294.267L210.774 302.077L212.014 303.651L213.253 305.224L223.167 297.413L221.927 295.84ZM212.014 303.651V305.653H227.275V303.651V301.648H212.014V303.651ZM239.848 293.797L241.553 294.847L241.554 294.846L239.848 293.797ZM254.327 270.245L252.638 269.17L252.629 269.183L252.621 269.196L254.327 270.245ZM257.812 269.284L256.701 270.95L256.729 270.969L256.758 270.987L257.812 269.284ZM258.473 272.709L256.794 271.617L256.788 271.627L256.781 271.636L258.473 272.709ZM245.255 293.557L243.564 292.484L241.614 295.56H245.255V293.557ZM254.868 294.758L253.565 296.279L256.871 299.113V294.758H254.868ZM259.434 294.578H257.431V298.883L260.724 296.11L259.434 294.578ZM265.803 293.497V295.499C265.979 295.499 266.093 295.526 266.156 295.548C266.188 295.559 266.208 295.57 266.219 295.576C266.23 295.583 266.234 295.587 266.234 295.587C266.234 295.587 266.233 295.586 266.233 295.585C266.232 295.584 266.234 295.587 266.238 295.596C266.244 295.612 266.263 295.668 266.263 295.78H268.266H270.269C270.269 294.604 269.847 293.477 268.961 292.653C268.091 291.844 266.952 291.494 265.803 291.494V293.497ZM268.266 295.78H266.263C266.263 295.918 266.241 295.991 266.23 296.018C266.225 296.032 266.221 296.038 266.22 296.039C266.22 296.039 266.22 296.039 266.22 296.039C266.22 296.039 266.22 296.038 266.22 296.038C266.22 296.038 266.22 296.039 266.218 296.04C266.216 296.042 266.213 296.044 266.208 296.047C266.199 296.052 266.181 296.062 266.151 296.072C266.091 296.094 265.979 296.12 265.803 296.12V298.123V300.126C266.952 300.126 268.1 299.775 268.975 298.946C269.863 298.105 270.269 296.962 270.269 295.78H268.266ZM265.803 298.123V296.12H262.679V298.123V300.126H265.803V298.123ZM262.679 298.123V296.12C261.271 296.12 259.707 296.423 258.654 297.784C257.723 298.986 257.552 300.602 257.552 302.149H259.554H261.557C261.557 301.47 261.602 300.997 261.672 300.667C261.741 300.343 261.817 300.241 261.822 300.235C261.823 300.233 261.818 300.239 261.812 300.243C261.808 300.246 261.822 300.234 261.871 300.217C261.981 300.178 262.221 300.126 262.679 300.126V298.123ZM259.554 302.149H257.552V306.114H259.554H261.557V302.149H259.554ZM259.554 306.114H257.552C257.552 306.291 257.525 306.392 257.509 306.436C257.494 306.476 257.487 306.476 257.5 306.463C257.513 306.449 257.513 306.457 257.473 306.472C257.429 306.488 257.328 306.514 257.151 306.514V308.517V310.52C258.304 310.52 259.461 310.166 260.332 309.295C261.203 308.424 261.557 307.266 261.557 306.114H259.554ZM257.151 308.517V306.514C256.998 306.514 256.914 306.491 256.881 306.478C256.852 306.467 256.856 306.463 256.868 306.476C256.908 306.517 256.811 306.464 256.811 306.114H254.808H252.805C252.805 307.266 253.158 308.414 254.01 309.282C254.865 310.153 256.007 310.52 257.151 310.52V308.517ZM254.808 306.114H256.811V302.149H254.808H252.805V306.114H254.808ZM254.808 302.149H256.811C256.811 300.602 256.639 298.986 255.708 297.784C254.656 296.423 253.091 296.12 251.684 296.12V298.123V300.126C252.141 300.126 252.381 300.178 252.492 300.217C252.54 300.234 252.554 300.246 252.55 300.243C252.544 300.239 252.539 300.233 252.541 300.235C252.546 300.241 252.621 300.343 252.69 300.667C252.76 300.997 252.805 301.47 252.805 302.149H254.808ZM251.684 298.123V296.12H241.59V298.123V300.126H251.684V298.123ZM241.59 298.123V296.12C241.428 296.12 241.325 296.095 241.268 296.073C241.212 296.053 241.191 296.034 241.186 296.028C241.181 296.024 241.171 296.014 241.16 295.986C241.149 295.957 241.129 295.892 241.129 295.78H239.127H237.124C237.124 296.95 237.541 298.078 238.404 298.911C239.263 299.74 240.406 300.126 241.59 300.126V298.123ZM239.127 295.78H241.129C241.129 295.671 241.142 295.618 241.173 295.539C241.222 295.414 241.317 295.231 241.553 294.847L239.848 293.797L238.142 292.748C237.631 293.579 237.124 294.467 237.124 295.78H239.127ZM239.848 293.797L241.554 294.846L256.033 271.294L254.327 270.245L252.621 269.196L238.142 292.748L239.848 293.797ZM254.327 270.245L256.017 271.32C256.238 270.973 256.432 270.888 256.481 270.874C256.503 270.867 256.515 270.867 256.529 270.87C256.544 270.872 256.602 270.884 256.701 270.95L257.812 269.284L258.923 267.618C257.829 266.889 256.557 266.674 255.343 267.033C254.175 267.379 253.258 268.195 252.638 269.17L254.327 270.245ZM257.812 269.284L256.758 270.987C256.854 271.046 256.894 271.096 256.909 271.117C256.924 271.139 256.931 271.157 256.935 271.18C256.942 271.222 256.949 271.378 256.794 271.617L258.473 272.709L260.152 273.8C260.778 272.837 261.085 271.671 260.882 270.497C260.674 269.295 259.958 268.257 258.866 267.581L257.812 269.284ZM258.473 272.709L256.781 271.636L243.564 292.484L245.255 293.557L246.946 294.629L260.164 273.781L258.473 272.709ZM245.255 293.557V295.56H250.542V293.557V291.554H245.255V293.557ZM250.542 293.557V295.56C252.168 295.56 252.892 295.703 253.565 296.279L254.868 294.758L256.171 293.238C254.32 291.651 252.281 291.554 250.542 291.554V293.557ZM254.868 294.758H256.871V289.111H254.868H252.865V294.758H254.868ZM254.868 289.111H256.871C256.871 288.676 256.984 288.637 256.911 288.713C256.882 288.743 256.859 288.75 256.875 288.744C256.899 288.735 256.983 288.71 257.151 288.71V286.708V284.705C256.042 284.705 254.89 285.037 254.026 285.934C253.173 286.821 252.865 287.984 252.865 289.111H254.868ZM257.151 286.708V288.71C257.344 288.71 257.435 288.738 257.458 288.746C257.472 288.751 257.439 288.74 257.4 288.699C257.314 288.607 257.431 288.639 257.431 289.111H259.434H261.437C261.437 288.021 261.164 286.851 260.312 285.948C259.441 285.026 258.271 284.705 257.151 284.705V286.708ZM259.434 289.111H257.431V294.578H259.434H261.437V289.111H259.434ZM259.434 294.578L260.724 296.11C261.289 295.635 262.098 295.499 263.099 295.499V293.497V291.494C261.938 291.494 259.863 291.599 258.144 293.046L259.434 294.578ZM263.099 293.497V295.499H265.803V293.497V291.494H263.099V293.497Z" fill="white" mask="url(#path-2-outside-1_2016_112146)"/>
</svg>
