<svg width="388" height="420" viewBox="0 0 388 420" fill="none" xmlns="http://www.w3.org/2000/svg">
<path d="M187.885 255.48H293.243C301.483 255.48 305.284 245.237 299.037 239.865L223.419 146.028C221.753 144.595 219.689 143.879 217.625 143.879C215.564 143.879 213.5 144.595 211.834 146.028L164.25 205.078L184.709 233.494C189.872 238.599 191.568 246.126 189.007 253.024C188.689 253.882 188.307 254.7 187.885 255.48Z" fill="white"/>
<path d="M171.682 255.479C179.919 255.479 183.719 245.236 177.473 239.864L141.159 189.432C139.493 187.999 137.429 187.283 135.365 187.283C133.3 187.283 131.236 187.999 129.571 189.432L93.2565 239.864C87.0099 245.236 90.8106 255.479 99.047 255.479H171.682Z" fill="white"/>
</svg>
