<svg width="388" height="420" viewBox="0 0 388 420" fill="none" xmlns="http://www.w3.org/2000/svg">
<path d="M248.46 242.433C230.548 242.433 216.027 227.913 216.027 210.001C216.027 192.089 230.548 177.568 248.46 177.568C266.372 177.568 280.892 192.089 280.892 210.001C280.892 227.913 266.372 242.433 248.46 242.433Z" fill="white"/>
<path d="M172.784 176.486C154.872 176.486 140.352 161.966 140.352 144.054C140.352 126.141 154.872 111.621 172.784 111.621C190.696 111.621 205.216 126.141 205.216 144.054C205.216 161.966 190.696 176.486 172.784 176.486Z" fill="white"/>
<path d="M172.784 308.379C154.872 308.379 140.352 293.858 140.352 275.946C140.352 258.034 154.872 243.514 172.784 243.514C190.696 243.514 205.216 258.034 205.216 275.946C205.216 293.858 190.696 308.379 172.784 308.379Z" fill="white"/>
</svg>
