<svg width="388" height="420" viewBox="0 0 388 420" fill="none" xmlns="http://www.w3.org/2000/svg">
<path d="M193.263 340.595C181.321 340.595 171.642 330.916 171.642 318.974V101.028C171.642 89.0853 181.321 79.4062 193.263 79.4062C205.206 79.4062 214.885 89.0853 214.885 101.028V318.974C214.885 330.916 205.206 340.595 193.263 340.595Z" fill="white"/>
<path d="M124.074 279.189C112.131 279.189 102.452 269.51 102.452 257.567V162.432C102.452 150.49 112.131 140.811 124.074 140.811C136.016 140.811 145.695 150.49 145.695 162.432V257.567C145.695 269.51 136.016 279.189 124.074 279.189Z" fill="white"/>
<path d="M262.453 279.189C250.51 279.189 240.831 269.51 240.831 257.567V162.432C240.831 150.49 250.51 140.811 262.453 140.811C274.395 140.811 284.074 150.49 284.074 162.432V257.567C284.074 269.51 274.395 279.189 262.453 279.189Z" fill="white"/>
</svg>
