<svg width="388" height="420" viewBox="0 0 388 420" fill="none" xmlns="http://www.w3.org/2000/svg">
<path d="M69.9221 174.952C81.1281 172.983 90.0538 172.773 95.243 172.773C113.3 172.773 121.912 176.304 120.358 191.456C119.632 198.409 117.037 204.013 107.905 211.797L88.7058 228.297C92.2329 227.05 95.3444 226.74 98.6653 226.74H117.554L115.064 245.628H59.8545L61.5133 234.003C62.0335 230.371 62.6552 227.777 65.145 225.081L82.27 210.446C93.3748 200.277 97.0065 197.682 97.8376 194.05C98.3545 191.871 97.0065 191.351 93.1687 191.351C84.9694 191.351 79.5707 191.351 69.5065 191.557L69.9221 174.952Z" fill="white"/>
<path d="M148.689 209.616C146.304 228.298 146.925 230.372 154.087 230.372C161.56 230.372 163.013 228.298 165.192 210.031C167.476 191.352 166.749 189.278 159.898 189.278C152.53 189.278 151.077 191.352 148.689 209.616ZM187.297 210.656C183.354 238.676 175.26 247.082 152.945 247.082C131.773 247.082 122.537 237.845 126.584 208.994C130.53 180.974 139.04 172.568 160.935 172.568C183.25 172.568 191.344 181.805 187.297 210.656Z" fill="white"/>
<path d="M216.773 209.616C214.385 228.298 215.006 230.372 222.168 230.372C229.641 230.372 231.094 228.298 233.273 210.031C235.557 191.352 234.831 189.278 227.979 189.278C220.611 189.278 219.158 191.352 216.773 209.616ZM255.378 210.656C251.432 238.676 243.341 247.082 221.027 247.082C199.854 247.082 190.618 237.845 194.665 208.994C198.611 180.974 207.121 172.568 229.016 172.568C251.331 172.568 259.425 181.805 255.378 210.656Z" fill="white"/>
<path d="M284.851 209.616C282.466 228.298 283.087 230.372 290.249 230.372C297.722 230.372 299.175 228.298 301.354 210.031C303.638 191.352 302.911 189.278 296.06 189.278C288.692 189.278 287.239 191.352 284.851 209.616ZM323.459 210.656C319.513 238.676 311.422 247.082 289.107 247.082C267.935 247.082 258.702 237.845 262.746 208.994C266.692 180.974 275.202 172.568 297.097 172.568C319.411 172.568 327.506 181.805 323.459 210.656Z" fill="white"/>
</svg>
