<svg width="388" height="420" viewBox="0 0 388 420" fill="none" xmlns="http://www.w3.org/2000/svg">
<path d="M114.834 111.02C90.9523 111.02 71.5908 130.382 71.5908 154.264C71.5908 178.149 90.9523 197.507 114.834 197.507C138.716 197.507 158.077 178.149 158.077 154.264C158.077 130.382 138.716 111.02 114.834 111.02ZM114.834 124.858C131.047 124.858 144.239 138.051 144.239 154.264C144.239 170.48 131.047 183.669 114.834 183.669C98.6178 183.669 85.4287 170.48 85.4287 154.264C85.4287 138.051 98.6178 124.858 114.834 124.858Z" fill="white"/>
<path d="M272.632 222.493C248.75 222.493 229.388 241.852 229.388 265.737C229.388 289.618 248.75 308.98 272.632 308.98C296.513 308.98 315.875 289.618 315.875 265.737C315.875 241.852 296.513 222.493 272.632 222.493ZM272.632 236.331C288.848 236.331 302.037 249.52 302.037 265.737C302.037 281.95 288.848 295.142 272.632 295.142C256.419 295.142 243.226 281.95 243.226 265.737C243.226 249.52 256.419 236.331 272.632 236.331Z" fill="white"/>
<path d="M193.733 98.9392V321.061" stroke="white" stroke-width="19.8919" stroke-miterlimit="10" stroke-linecap="round"/>
</svg>
