<svg width="388" height="420" viewBox="0 0 388 420" fill="none" xmlns="http://www.w3.org/2000/svg">
<g clip-path="url(#clip0_2011_36487)">
<path d="M77.0005 179.321L120.487 165.657L165.525 291.176L119.076 306.904L77.0005 179.321ZM165.864 128.01L221.78 131.752L273.187 253.539L213.879 251.237L165.864 128.01ZM124.238 163.844L161.898 129.24L210.007 252.706L169.055 288.746L124.238 163.844ZM324.16 233.159L277.544 253.207L225.804 130.632L269.055 112.031L324.16 233.159ZM273.236 101.214L221.57 123.434L160.426 119.342L118.942 157.459L66.5005 173.936L113.823 317.429L171.001 298.07L214.756 259.562L278.028 262.018L335.204 237.428L273.236 101.214Z" fill="white"/>
<mask id="mask0_2011_36487" style="mask-type:luminance" maskUnits="userSpaceOnUse" x="-34" y="-17" width="455" height="454">
<path d="M-33.0573 -16.8521H420.646V436.852H-33.0573V-16.8521Z" fill="white"/>
</mask>
<g mask="url(#mask0_2011_36487)">
<path d="M115.168 235.394C115.518 236.323 115.817 237.258 116.105 238.195L114.99 238.342C115.025 237.362 115.071 236.381 115.168 235.394Z" fill="white"/>
</g>
<mask id="mask1_2011_36487" style="mask-type:luminance" maskUnits="userSpaceOnUse" x="-34" y="-17" width="455" height="454">
<path d="M-33.0573 -16.8521H420.646V436.852H-33.0573V-16.8521Z" fill="white"/>
</mask>
<g mask="url(#mask1_2011_36487)">
<path d="M117.567 243.56C118.073 245.655 118.528 247.757 118.921 249.866L115.298 250.345C115.13 248.205 115.025 246.058 114.969 243.903L117.567 243.56Z" fill="white"/>
</g>
<mask id="mask2_2011_36487" style="mask-type:luminance" maskUnits="userSpaceOnUse" x="-34" y="-17" width="455" height="454">
<path d="M-33.0573 -16.8521H420.646V436.852H-33.0573V-16.8521Z" fill="white"/>
</mask>
<g mask="url(#mask2_2011_36487)">
<path d="M119.849 255.302C120.171 257.421 120.451 259.547 120.694 261.676L116.651 262.21C116.333 260.09 116.051 257.966 115.812 255.836L119.849 255.302Z" fill="white"/>
</g>
<mask id="mask3_2011_36487" style="mask-type:luminance" maskUnits="userSpaceOnUse" x="-34" y="-17" width="455" height="454">
<path d="M-33.0573 -16.8521H420.646V436.852H-33.0573V-16.8521Z" fill="white"/>
</mask>
<g mask="url(#mask3_2011_36487)">
<path d="M121.211 267.166C121.38 269.305 121.484 271.453 121.54 273.608L118.931 273.952C118.426 271.857 117.969 269.756 117.577 267.646L121.211 267.166Z" fill="white"/>
</g>
<mask id="mask4_2011_36487" style="mask-type:luminance" maskUnits="userSpaceOnUse" x="-34" y="-17" width="455" height="454">
<path d="M-33.0573 -16.8521H420.646V436.852H-33.0573V-16.8521Z" fill="white"/>
</mask>
<g mask="url(#mask4_2011_36487)">
<path d="M121.519 279.169C121.482 280.149 121.436 281.129 121.337 282.117C120.986 281.189 120.686 280.253 120.396 279.317L121.519 279.169Z" fill="white"/>
</g>
<mask id="mask5_2011_36487" style="mask-type:luminance" maskUnits="userSpaceOnUse" x="-34" y="-17" width="455" height="454">
<path d="M-33.0573 -16.8521H420.646V436.852H-33.0573V-16.8521Z" fill="white"/>
</mask>
<g mask="url(#mask5_2011_36487)">
<path d="M162.306 242.501C161.318 242.577 160.336 242.604 159.356 242.619L159.522 241.518C160.454 241.822 161.383 242.137 162.306 242.501Z" fill="white"/>
</g>
<mask id="mask6_2011_36487" style="mask-type:luminance" maskUnits="userSpaceOnUse" x="-34" y="-17" width="455" height="454">
<path d="M-33.0573 -16.8521H420.646V436.852H-33.0573V-16.8521Z" fill="white"/>
</mask>
<g mask="url(#mask6_2011_36487)">
<path d="M153.724 242.529C151.542 242.432 149.37 242.282 147.206 242.071L147.75 238.459C149.88 238.896 152 239.394 154.113 239.944L153.724 242.529Z" fill="white"/>
</g>
<mask id="mask7_2011_36487" style="mask-type:luminance" maskUnits="userSpaceOnUse" x="-34" y="-17" width="455" height="454">
<path d="M-33.0573 -16.8521H420.646V436.852H-33.0573V-16.8521Z" fill="white"/>
</mask>
<g mask="url(#mask7_2011_36487)">
<path d="M141.653 241.446C139.5 241.164 137.353 240.84 135.213 240.478L135.82 236.446C137.973 236.732 140.12 237.054 142.26 237.42L141.653 241.446Z" fill="white"/>
</g>
<mask id="mask8_2011_36487" style="mask-type:luminance" maskUnits="userSpaceOnUse" x="-34" y="-17" width="455" height="454">
<path d="M-33.0573 -16.8521H420.646V436.852H-33.0573V-16.8521Z" fill="white"/>
</mask>
<g mask="url(#mask8_2011_36487)">
<path d="M129.723 239.441C127.593 239.005 125.473 238.506 123.36 237.957L123.751 235.359C125.932 235.458 128.105 235.606 130.269 235.818L129.723 239.441Z" fill="white"/>
</g>
<mask id="mask9_2011_36487" style="mask-type:luminance" maskUnits="userSpaceOnUse" x="-34" y="-17" width="455" height="454">
<path d="M-33.0573 -16.8521H420.646V436.852H-33.0573V-16.8521Z" fill="white"/>
</mask>
<g mask="url(#mask9_2011_36487)">
<path d="M117.952 236.38C117.02 236.075 116.09 235.76 115.168 235.394C116.157 235.316 117.138 235.289 118.118 235.272L117.952 236.38Z" fill="white"/>
</g>
<mask id="mask10_2011_36487" style="mask-type:luminance" maskUnits="userSpaceOnUse" x="-34" y="-17" width="455" height="454">
<path d="M-33.0573 -16.8521H420.646V436.852H-33.0573V-16.8521Z" fill="white"/>
</mask>
<g mask="url(#mask10_2011_36487)">
<path d="M149.225 181.231C149.588 182.142 149.937 183.055 150.258 183.976L149.403 184.158C149.32 183.188 149.265 182.211 149.225 181.231Z" fill="white"/>
</g>
<mask id="mask11_2011_36487" style="mask-type:luminance" maskUnits="userSpaceOnUse" x="-34" y="-17" width="455" height="454">
<path d="M-33.0573 -16.8521H420.646V436.852H-33.0573V-16.8521Z" fill="white"/>
</mask>
<g mask="url(#mask11_2011_36487)">
<path d="M151.809 188.557C152.098 189.451 152.36 190.35 152.636 191.247C152.906 192.144 153.192 193.038 153.442 193.94L150.566 194.554C150.425 193.629 150.322 192.696 150.201 191.766C150.088 190.835 149.959 189.907 149.858 188.974L151.809 188.557Z" fill="white"/>
</g>
<mask id="mask12_2011_36487" style="mask-type:luminance" maskUnits="userSpaceOnUse" x="-34" y="-17" width="455" height="454">
<path d="M-33.0573 -16.8521H420.646V436.852H-33.0573V-16.8521Z" fill="white"/>
</mask>
<g mask="url(#mask12_2011_36487)">
<path d="M154.725 198.579C155.202 200.388 155.661 202.2 156.101 204.016L152.254 204.838C151.913 203 151.592 201.158 151.288 199.312L154.725 198.579Z" fill="white"/>
</g>
<mask id="mask13_2011_36487" style="mask-type:luminance" maskUnits="userSpaceOnUse" x="-34" y="-17" width="455" height="454">
<path d="M-33.0573 -16.8521H420.646V436.852H-33.0573V-16.8521Z" fill="white"/>
</mask>
<g mask="url(#mask13_2011_36487)">
<path d="M157.188 208.697C157.596 210.52 157.989 212.346 158.359 214.178L154.341 215.036C153.932 213.213 153.544 211.385 153.172 209.554L157.188 208.697Z" fill="white"/>
</g>
<mask id="mask14_2011_36487" style="mask-type:luminance" maskUnits="userSpaceOnUse" x="-34" y="-17" width="455" height="454">
<path d="M-33.0573 -16.8521H420.646V436.852H-33.0573V-16.8521Z" fill="white"/>
</mask>
<g mask="url(#mask14_2011_36487)">
<path d="M159.281 218.894C159.62 220.732 159.944 222.573 160.247 224.418L156.8 225.155C156.322 223.346 155.866 221.533 155.425 219.717L159.281 218.894Z" fill="white"/>
</g>
<mask id="mask15_2011_36487" style="mask-type:luminance" maskUnits="userSpaceOnUse" x="-34" y="-17" width="455" height="454">
<path d="M-33.0573 -16.8521H420.646V436.852H-33.0573V-16.8521Z" fill="white"/>
</mask>
<g mask="url(#mask15_2011_36487)">
<path d="M160.971 229.177C161.111 230.103 161.216 231.035 161.336 231.965C161.449 232.896 161.576 233.824 161.679 234.757L159.716 235.176C159.429 234.282 159.166 233.383 158.889 232.487C158.618 231.59 158.333 230.695 158.084 229.793L160.971 229.177Z" fill="white"/>
</g>
<mask id="mask16_2011_36487" style="mask-type:luminance" maskUnits="userSpaceOnUse" x="-34" y="-17" width="455" height="454">
<path d="M-33.0573 -16.8521H420.646V436.852H-33.0573V-16.8521Z" fill="white"/>
</mask>
<g mask="url(#mask16_2011_36487)">
<path d="M162.13 239.573C162.212 240.544 162.266 241.521 162.305 242.501C161.942 241.59 161.592 240.677 161.27 239.757L162.13 239.573Z" fill="white"/>
</g>
<mask id="mask17_2011_36487" style="mask-type:luminance" maskUnits="userSpaceOnUse" x="-34" y="-17" width="455" height="454">
<path d="M-33.0573 -16.8521H420.646V436.852H-33.0573V-16.8521Z" fill="white"/>
</mask>
<g mask="url(#mask17_2011_36487)">
<path d="M176.638 201.057C176.158 200.897 175.682 200.73 175.224 200.539C174.765 200.349 174.298 200.17 173.849 199.965L174.728 198.751C175.063 199.112 175.379 199.5 175.703 199.876C176.028 200.252 176.336 200.651 176.638 201.057Z" fill="white"/>
</g>
<mask id="mask18_2011_36487" style="mask-type:luminance" maskUnits="userSpaceOnUse" x="-34" y="-17" width="455" height="454">
<path d="M-33.0573 -16.8521H420.646V436.852H-33.0573V-16.8521Z" fill="white"/>
</mask>
<g mask="url(#mask18_2011_36487)">
<path d="M169.096 197.568C168.202 197.06 167.32 196.537 166.448 195.999C165.582 195.452 164.718 194.902 163.874 194.325L166.247 191.044C167.059 191.664 167.853 192.312 168.643 192.963C169.426 193.623 170.201 194.298 170.962 194.988L169.096 197.568Z" fill="white"/>
</g>
<mask id="mask19_2011_36487" style="mask-type:luminance" maskUnits="userSpaceOnUse" x="-34" y="-17" width="455" height="454">
<path d="M-33.0573 -16.8521H420.646V436.852H-33.0573V-16.8521Z" fill="white"/>
</mask>
<g mask="url(#mask19_2011_36487)">
<path d="M159.613 191.247C157.991 190.003 156.417 188.692 154.897 187.305L156.769 184.717C158.563 185.725 160.3 186.811 161.99 187.962L159.613 191.247Z" fill="white"/>
</g>
<mask id="mask20_2011_36487" style="mask-type:luminance" maskUnits="userSpaceOnUse" x="-34" y="-17" width="455" height="454">
<path d="M-33.0573 -16.8521H420.646V436.852H-33.0573V-16.8521Z" fill="white"/>
</mask>
<g mask="url(#mask20_2011_36487)">
<path d="M151.134 183.541C150.799 183.18 150.484 182.792 150.16 182.414C149.835 182.039 149.528 181.638 149.226 181.232C149.707 181.392 150.184 181.557 150.642 181.748C151.102 181.937 151.568 182.116 152.017 182.321L151.134 183.541Z" fill="white"/>
</g>
<mask id="mask21_2011_36487" style="mask-type:luminance" maskUnits="userSpaceOnUse" x="-34" y="-17" width="455" height="454">
<path d="M-33.0573 -16.8521H420.646V436.852H-33.0573V-16.8521Z" fill="white"/>
</mask>
<g mask="url(#mask21_2011_36487)">
<path d="M189.963 154.845C189.907 155.834 189.807 156.81 189.694 157.783L188.646 157.485C189.062 156.598 189.491 155.715 189.963 154.845Z" fill="white"/>
</g>
<mask id="mask22_2011_36487" style="mask-type:luminance" maskUnits="userSpaceOnUse" x="-34" y="-17" width="455" height="454">
<path d="M-33.0573 -16.8521H420.646V436.852H-33.0573V-16.8521Z" fill="white"/>
</mask>
<g mask="url(#mask22_2011_36487)">
<path d="M189.068 162.236C188.786 163.957 188.468 165.667 188.113 167.367L184.945 166.465C185.538 164.833 186.168 163.212 186.833 161.6L189.068 162.236Z" fill="white"/>
</g>
<mask id="mask23_2011_36487" style="mask-type:luminance" maskUnits="userSpaceOnUse" x="-34" y="-17" width="455" height="454">
<path d="M-33.0573 -16.8521H420.646V436.852H-33.0573V-16.8521Z" fill="white"/>
</mask>
<g mask="url(#mask23_2011_36487)">
<path d="M187.145 171.721C186.745 173.408 186.314 175.086 185.863 176.758L181.915 175.635C182.411 173.976 182.928 172.322 183.476 170.677L187.145 171.721Z" fill="white"/>
</g>
<mask id="mask24_2011_36487" style="mask-type:luminance" maskUnits="userSpaceOnUse" x="-34" y="-17" width="455" height="454">
<path d="M-33.0573 -16.8521H420.646V436.852H-33.0573V-16.8521Z" fill="white"/>
</mask>
<g mask="url(#mask24_2011_36487)">
<path d="M184.645 181.042C184.151 182.703 183.634 184.357 183.086 186.001L179.409 184.955C179.809 183.268 180.241 181.59 180.694 179.918L184.645 181.042Z" fill="white"/>
</g>
<mask id="mask25_2011_36487" style="mask-type:luminance" maskUnits="userSpaceOnUse" x="-34" y="-17" width="455" height="454">
<path d="M-33.0573 -16.8521H420.646V436.852H-33.0573V-16.8521Z" fill="white"/>
</mask>
<g mask="url(#mask25_2011_36487)">
<path d="M181.62 190.214C181.028 191.847 180.395 193.467 179.731 195.079L177.485 194.44C177.769 192.72 178.084 191.009 178.44 189.309L181.62 190.214Z" fill="white"/>
</g>
<mask id="mask26_2011_36487" style="mask-type:luminance" maskUnits="userSpaceOnUse" x="-34" y="-17" width="455" height="454">
<path d="M-33.0573 -16.8521H420.646V436.852H-33.0573V-16.8521Z" fill="white"/>
</mask>
<g mask="url(#mask26_2011_36487)">
<path d="M177.916 199.193C177.498 200.08 177.07 200.962 176.595 201.833C176.65 200.843 176.749 199.866 176.861 198.893L177.916 199.193Z" fill="white"/>
</g>
<mask id="mask27_2011_36487" style="mask-type:luminance" maskUnits="userSpaceOnUse" x="-34" y="-17" width="455" height="454">
<path d="M-33.0573 -16.8521H420.646V436.852H-33.0573V-16.8521Z" fill="white"/>
</mask>
<g mask="url(#mask27_2011_36487)">
<path d="M216.657 227.658C216.195 226.799 215.752 225.931 215.316 225.062L216.005 224.809C216.233 225.755 216.455 226.704 216.657 227.658Z" fill="white"/>
</g>
<mask id="mask28_2011_36487" style="mask-type:luminance" maskUnits="userSpaceOnUse" x="-34" y="-17" width="455" height="454">
<path d="M-33.0573 -16.8521H420.646V436.852H-33.0573V-16.8521Z" fill="white"/>
</mask>
<g mask="url(#mask28_2011_36487)">
<path d="M213.105 220.475C212.247 218.691 211.464 216.879 210.652 215.078L213.123 214.174C213.666 216.073 214.237 217.963 214.734 219.879L213.105 220.475Z" fill="white"/>
</g>
<mask id="mask29_2011_36487" style="mask-type:luminance" maskUnits="userSpaceOnUse" x="-34" y="-17" width="455" height="454">
<path d="M-33.0573 -16.8521H420.646V436.852H-33.0573V-16.8521Z" fill="white"/>
</mask>
<g mask="url(#mask29_2011_36487)">
<path d="M208.631 210.422C207.863 208.605 207.11 206.782 206.373 204.954L209.852 203.681C210.47 205.553 211.071 207.431 211.659 209.314L208.631 210.422Z" fill="white"/>
</g>
<mask id="mask30_2011_36487" style="mask-type:luminance" maskUnits="userSpaceOnUse" x="-34" y="-17" width="455" height="454">
<path d="M-33.0573 -16.8521H420.646V436.852H-33.0573V-16.8521Z" fill="white"/>
</mask>
<g mask="url(#mask30_2011_36487)">
<path d="M204.506 200.242C203.803 198.401 203.086 196.566 202.407 194.716L206.272 193.301C206.949 195.152 207.585 197.017 208.237 198.877L204.506 200.242Z" fill="white"/>
</g>
<mask id="mask31_2011_36487" style="mask-type:luminance" maskUnits="userSpaceOnUse" x="-34" y="-17" width="455" height="454">
<path d="M-33.0573 -16.8521H420.646V436.852H-33.0573V-16.8521Z" fill="white"/>
</mask>
<g mask="url(#mask31_2011_36487)">
<path d="M200.665 189.958C199.989 188.107 199.348 186.244 198.698 184.383L202.435 183.015C203.14 184.856 203.853 186.693 204.531 188.542L200.665 189.958Z" fill="white"/>
</g>
<mask id="mask32_2011_36487" style="mask-type:luminance" maskUnits="userSpaceOnUse" x="-34" y="-17" width="455" height="454">
<path d="M-33.0573 -16.8521H420.646V436.852H-33.0573V-16.8521Z" fill="white"/>
</mask>
<g mask="url(#mask32_2011_36487)">
<path d="M197.08 179.58C196.464 177.707 195.86 175.83 195.274 173.946L198.311 172.834C199.081 174.651 199.831 176.475 200.569 178.303L197.08 179.58Z" fill="white"/>
</g>
<mask id="mask33_2011_36487" style="mask-type:luminance" maskUnits="userSpaceOnUse" x="-34" y="-17" width="455" height="454">
<path d="M-33.0573 -16.8521H420.646V436.852H-33.0573V-16.8521Z" fill="white"/>
</mask>
<g mask="url(#mask33_2011_36487)">
<path d="M193.809 169.086C193.268 167.186 192.695 165.298 192.2 163.381L193.837 162.781C194.696 164.565 195.478 166.377 196.292 168.178L193.809 169.086Z" fill="white"/>
</g>
<mask id="mask34_2011_36487" style="mask-type:luminance" maskUnits="userSpaceOnUse" x="-34" y="-17" width="455" height="454">
<path d="M-33.0573 -16.8521H420.646V436.852H-33.0573V-16.8521Z" fill="white"/>
</mask>
<g mask="url(#mask34_2011_36487)">
<path d="M190.931 158.45C190.704 157.504 190.482 156.556 190.281 155.6C190.743 156.46 191.188 157.326 191.624 158.196L190.931 158.45Z" fill="white"/>
</g>
<mask id="mask35_2011_36487" style="mask-type:luminance" maskUnits="userSpaceOnUse" x="-34" y="-17" width="455" height="454">
<path d="M-33.0573 -16.8521H420.646V436.852H-33.0573V-16.8521Z" fill="white"/>
</mask>
<g mask="url(#mask35_2011_36487)">
<path d="M227.4 186.777C227.398 187.776 227.331 188.758 227.263 189.74L226.062 189.424C226.486 188.536 226.911 187.648 227.4 186.777Z" fill="white"/>
</g>
<mask id="mask36_2011_36487" style="mask-type:luminance" maskUnits="userSpaceOnUse" x="-34" y="-17" width="455" height="454">
<path d="M-33.0573 -16.8521H420.646V436.852H-33.0573V-16.8521Z" fill="white"/>
</mask>
<g mask="url(#mask36_2011_36487)">
<path d="M226.719 194.624C226.591 195.568 226.436 196.505 226.279 197.441C226.119 198.377 225.948 199.31 225.76 200.238L222.21 199.305C222.504 198.404 222.813 197.508 223.134 196.614C223.457 195.722 223.783 194.83 224.135 193.945L226.719 194.624Z" fill="white"/>
</g>
<mask id="mask37_2011_36487" style="mask-type:luminance" maskUnits="userSpaceOnUse" x="-34" y="-17" width="455" height="454">
<path d="M-33.0573 -16.8521H420.646V436.852H-33.0573V-16.8521Z" fill="white"/>
</mask>
<g mask="url(#mask37_2011_36487)">
<path d="M224.719 204.992C224.278 206.831 223.796 208.66 223.281 210.48L219.334 209.443C219.78 207.605 220.259 205.775 220.78 203.957L224.719 204.992Z" fill="white"/>
</g>
<mask id="mask38_2011_36487" style="mask-type:luminance" maskUnits="userSpaceOnUse" x="-34" y="-17" width="455" height="454">
<path d="M-33.0573 -16.8521H420.646V436.852H-33.0573V-16.8521Z" fill="white"/>
</mask>
<g mask="url(#mask38_2011_36487)">
<path d="M221.852 215.132C221.267 216.934 220.616 218.718 219.927 220.492L217.331 219.81C217.603 217.926 217.914 216.052 218.29 214.196L221.852 215.132Z" fill="white"/>
</g>
<mask id="mask39_2011_36487" style="mask-type:luminance" maskUnits="userSpaceOnUse" x="-34" y="-17" width="455" height="454">
<path d="M-33.0573 -16.8521H420.646V436.852H-33.0573V-16.8521Z" fill="white"/>
</mask>
<g mask="url(#mask39_2011_36487)">
<path d="M217.999 225.013C217.573 225.9 217.148 226.788 216.658 227.658C216.658 226.659 216.724 225.677 216.79 224.695L217.999 225.013Z" fill="white"/>
</g>
<mask id="mask40_2011_36487" style="mask-type:luminance" maskUnits="userSpaceOnUse" x="-34" y="-17" width="455" height="454">
<path d="M-33.0573 -16.8521H420.646V436.852H-33.0573V-16.8521Z" fill="white"/>
</mask>
<g mask="url(#mask40_2011_36487)">
<path d="M247.417 139.015C247.231 139.985 247.01 140.941 246.773 141.89L245.819 141.49C246.33 140.656 246.856 139.829 247.417 139.015Z" fill="white"/>
</g>
<mask id="mask41_2011_36487" style="mask-type:luminance" maskUnits="userSpaceOnUse" x="-34" y="-17" width="455" height="454">
<path d="M-33.0573 -16.8521H420.646V436.852H-33.0573V-16.8521Z" fill="white"/>
</mask>
<g mask="url(#mask41_2011_36487)">
<path d="M245.515 146.521C244.988 148.306 244.423 150.075 243.825 151.83L240.799 150.563C241.631 148.905 242.496 147.261 243.4 145.634L245.515 146.521Z" fill="white"/>
</g>
<mask id="mask42_2011_36487" style="mask-type:luminance" maskUnits="userSpaceOnUse" x="-34" y="-17" width="455" height="454">
<path d="M-33.0573 -16.8521H420.646V436.852H-33.0573V-16.8521Z" fill="white"/>
</mask>
<g mask="url(#mask42_2011_36487)">
<path d="M242.23 156.32C241.586 158.056 240.914 159.78 240.221 161.496L236.435 159.909C237.172 158.212 237.93 156.524 238.716 154.847L242.23 156.32Z" fill="white"/>
</g>
<mask id="mask43_2011_36487" style="mask-type:luminance" maskUnits="userSpaceOnUse" x="-34" y="-17" width="455" height="454">
<path d="M-33.0573 -16.8521H420.646V436.852H-33.0573V-16.8521Z" fill="white"/>
</mask>
<g mask="url(#mask43_2011_36487)">
<path d="M238.383 165.884C237.649 167.582 236.891 169.271 236.104 170.946L232.583 169.471C233.227 167.735 233.9 166.011 234.595 164.296L238.383 165.884Z" fill="white"/>
</g>
<mask id="mask44_2011_36487" style="mask-type:luminance" maskUnits="userSpaceOnUse" x="-34" y="-17" width="455" height="454">
<path d="M-33.0573 -16.8521H420.646V436.852H-33.0573V-16.8521Z" fill="white"/>
</mask>
<g mask="url(#mask44_2011_36487)">
<path d="M234.024 175.233C233.193 176.89 232.326 178.533 231.423 180.16L229.298 179.27C229.825 177.485 230.388 175.715 230.987 173.96L234.024 175.233Z" fill="white"/>
</g>
<mask id="mask45_2011_36487" style="mask-type:luminance" maskUnits="userSpaceOnUse" x="-34" y="-17" width="455" height="454">
<path d="M-33.0573 -16.8521H420.646V436.852H-33.0573V-16.8521Z" fill="white"/>
</mask>
<g mask="url(#mask45_2011_36487)">
<path d="M229.001 184.304C228.489 185.137 227.963 185.965 227.4 186.777C227.585 185.806 227.805 184.851 228.041 183.902L229.001 184.304Z" fill="white"/>
</g>
<mask id="mask46_2011_36487" style="mask-type:luminance" maskUnits="userSpaceOnUse" x="-34" y="-17" width="455" height="454">
<path d="M-33.0573 -16.8521H420.646V436.852H-33.0573V-16.8521Z" fill="white"/>
</mask>
<g mask="url(#mask46_2011_36487)">
<path d="M280.945 177.401C280.153 176.809 279.392 176.191 278.642 175.562L279.433 174.872C279.955 175.7 280.464 176.537 280.945 177.401Z" fill="white"/>
</g>
<mask id="mask47_2011_36487" style="mask-type:luminance" maskUnits="userSpaceOnUse" x="-34" y="-17" width="455" height="454">
<path d="M-33.0573 -16.8521H420.646V436.852H-33.0573V-16.8521Z" fill="white"/>
</mask>
<g mask="url(#mask47_2011_36487)">
<path d="M275.098 172.455C273.75 171.22 272.432 169.958 271.141 168.673L273.615 166.512C274.716 167.964 275.788 169.439 276.831 170.941L275.098 172.455Z" fill="white"/>
</g>
<mask id="mask48_2011_36487" style="mask-type:luminance" maskUnits="userSpaceOnUse" x="-34" y="-17" width="455" height="454">
<path d="M-33.0573 -16.8521H420.646V436.852H-33.0573V-16.8521Z" fill="white"/>
</mask>
<g mask="url(#mask48_2011_36487)">
<path d="M267.868 165.327C266.614 164.009 265.385 162.671 264.171 161.318L267.263 158.617C268.44 160.002 269.601 161.401 270.738 162.82L267.868 165.327Z" fill="white"/>
</g>
<mask id="mask49_2011_36487" style="mask-type:luminance" maskUnits="userSpaceOnUse" x="-34" y="-17" width="455" height="454">
<path d="M-33.0573 -16.8521H420.646V436.852H-33.0573V-16.8521Z" fill="white"/>
</mask>
<g mask="url(#mask49_2011_36487)">
<path d="M261.098 157.8C259.918 156.417 258.757 155.019 257.62 153.6L260.497 151.087C261.75 152.405 262.98 153.743 264.191 155.097L261.098 157.8Z" fill="white"/>
</g>
<mask id="mask50_2011_36487" style="mask-type:luminance" maskUnits="userSpaceOnUse" x="-34" y="-17" width="455" height="454">
<path d="M-33.0573 -16.8521H420.646V436.852H-33.0573V-16.8521Z" fill="white"/>
</mask>
<g mask="url(#mask50_2011_36487)">
<path d="M254.743 149.908C253.642 148.457 252.57 146.98 251.527 145.479L253.269 143.958C254.617 145.193 255.935 146.454 257.226 147.74L254.743 149.908Z" fill="white"/>
</g>
<mask id="mask51_2011_36487" style="mask-type:luminance" maskUnits="userSpaceOnUse" x="-34" y="-17" width="455" height="454">
<path d="M-33.0573 -16.8521H420.646V436.852H-33.0573V-16.8521Z" fill="white"/>
</mask>
<g mask="url(#mask51_2011_36487)">
<path d="M248.927 141.547C248.406 140.719 247.896 139.88 247.417 139.015C248.21 139.607 248.972 140.224 249.723 140.853L248.927 141.547Z" fill="white"/>
</g>
<mask id="mask52_2011_36487" style="mask-type:luminance" maskUnits="userSpaceOnUse" x="-34" y="-17" width="455" height="454">
<path d="M-33.0573 -16.8521H420.646V436.852H-33.0573V-16.8521Z" fill="white"/>
</mask>
<g mask="url(#mask52_2011_36487)">
<path d="M196.302 155.928C196.121 159.253 193.279 161.802 189.953 161.622C186.627 161.44 184.079 158.598 184.259 155.273C184.44 151.947 187.282 149.398 190.608 149.579C193.933 149.76 196.482 152.602 196.302 155.928Z" fill="white"/>
</g>
<mask id="mask53_2011_36487" style="mask-type:luminance" maskUnits="userSpaceOnUse" x="-34" y="-17" width="455" height="454">
<path d="M-33.0573 -16.8521H420.646V436.852H-33.0573V-16.8521Z" fill="white"/>
</mask>
<g mask="url(#mask53_2011_36487)">
<path d="M168.328 242.829C168.147 246.154 165.305 248.703 161.979 248.523C158.653 248.341 156.104 245.499 156.285 242.173C156.466 238.848 159.308 236.299 162.633 236.48C165.959 236.661 168.508 239.503 168.328 242.829Z" fill="white"/>
</g>
<mask id="mask54_2011_36487" style="mask-type:luminance" maskUnits="userSpaceOnUse" x="-34" y="-17" width="455" height="454">
<path d="M-33.0573 -16.8521H420.646V436.852H-33.0573V-16.8521Z" fill="white"/>
</mask>
<g mask="url(#mask54_2011_36487)">
<path d="M121.189 235.721C121.008 239.047 118.166 241.596 114.84 241.415C111.514 241.234 108.966 238.391 109.146 235.066C109.327 231.741 112.169 229.191 115.495 229.373C118.82 229.553 121.369 232.396 121.189 235.721Z" fill="white"/>
</g>
<mask id="mask55_2011_36487" style="mask-type:luminance" maskUnits="userSpaceOnUse" x="-34" y="-17" width="455" height="454">
<path d="M-33.0573 -16.8521H420.646V436.852H-33.0573V-16.8521Z" fill="white"/>
</mask>
<g mask="url(#mask55_2011_36487)">
<path d="M127.358 282.445C127.177 285.77 124.335 288.32 121.009 288.139C117.683 287.958 115.134 285.115 115.315 281.79C115.496 278.464 118.338 275.915 121.663 276.097C124.989 276.277 127.538 279.12 127.358 282.445Z" fill="white"/>
</g>
<mask id="mask56_2011_36487" style="mask-type:luminance" maskUnits="userSpaceOnUse" x="-34" y="-17" width="455" height="454">
<path d="M-33.0573 -16.8521H420.646V436.852H-33.0573V-16.8521Z" fill="white"/>
</mask>
<g mask="url(#mask56_2011_36487)">
<path d="M155.247 181.559C155.066 184.884 152.224 187.434 148.899 187.253C145.572 187.071 143.024 184.229 143.204 180.904C143.385 177.578 146.227 175.029 149.553 175.21C152.878 175.391 155.428 178.233 155.247 181.559Z" fill="white"/>
</g>
<mask id="mask57_2011_36487" style="mask-type:luminance" maskUnits="userSpaceOnUse" x="-34" y="-17" width="455" height="454">
<path d="M-33.0573 -16.8521H420.646V436.852H-33.0573V-16.8521Z" fill="white"/>
</mask>
<g mask="url(#mask57_2011_36487)">
<path d="M182.659 201.385C182.478 204.71 179.636 207.259 176.311 207.079C172.984 206.897 170.436 204.055 170.616 200.73C170.797 197.404 173.639 194.855 176.965 195.036C180.29 195.217 182.84 198.059 182.659 201.385Z" fill="white"/>
</g>
<mask id="mask58_2011_36487" style="mask-type:luminance" maskUnits="userSpaceOnUse" x="-34" y="-17" width="455" height="454">
<path d="M-33.0573 -16.8521H420.646V436.852H-33.0573V-16.8521Z" fill="white"/>
</mask>
<g mask="url(#mask58_2011_36487)">
<path d="M222.678 227.986C222.498 231.311 219.655 233.861 216.33 233.68C213.004 233.499 210.455 230.656 210.636 227.331C210.816 224.005 213.659 221.456 216.984 221.638C220.31 221.818 222.859 224.661 222.678 227.986Z" fill="white"/>
</g>
<mask id="mask59_2011_36487" style="mask-type:luminance" maskUnits="userSpaceOnUse" x="-34" y="-17" width="455" height="454">
<path d="M-33.0573 -16.8521H420.646V436.852H-33.0573V-16.8521Z" fill="white"/>
</mask>
<g mask="url(#mask59_2011_36487)">
<path d="M233.422 187.104C233.242 190.43 230.399 192.979 227.074 192.799C223.748 192.617 221.199 189.775 221.38 186.449C221.56 183.124 224.403 180.575 227.728 180.756C231.053 180.937 233.603 183.779 233.422 187.104Z" fill="white"/>
</g>
<mask id="mask60_2011_36487" style="mask-type:luminance" maskUnits="userSpaceOnUse" x="-34" y="-17" width="455" height="454">
<path d="M-33.0573 -16.8521H420.646V436.852H-33.0573V-16.8521Z" fill="white"/>
</mask>
<g mask="url(#mask60_2011_36487)">
<path d="M253.438 139.343C253.257 142.668 250.415 145.218 247.089 145.037C243.763 144.856 241.214 142.013 241.395 138.688C241.576 135.362 244.418 132.813 247.743 132.995C251.069 133.175 253.618 136.017 253.438 139.343Z" fill="white"/>
</g>
<mask id="mask61_2011_36487" style="mask-type:luminance" maskUnits="userSpaceOnUse" x="-34" y="-17" width="455" height="454">
<path d="M-33.0573 -16.8521H420.646V436.852H-33.0573V-16.8521Z" fill="white"/>
</mask>
<g mask="url(#mask61_2011_36487)">
<path d="M267.966 172.341C270.509 172.243 272.868 172.606 275.172 173.108C277.469 173.628 279.694 174.33 281.858 175.186C284.021 176.042 286.121 177.059 288.148 178.257C290.169 179.472 292.134 180.829 293.914 182.65C291.369 182.754 289.009 182.393 286.705 181.889C284.409 181.369 282.183 180.668 280.023 179.805C277.861 178.943 275.761 177.926 273.734 176.728C271.714 175.512 269.748 174.156 267.966 172.341Z" fill="white"/>
</g>
<mask id="mask62_2011_36487" style="mask-type:luminance" maskUnits="userSpaceOnUse" x="-34" y="-17" width="455" height="454">
<path d="M-33.0573 -16.8521H420.646V436.852H-33.0573V-16.8521Z" fill="white"/>
</mask>
<g mask="url(#mask62_2011_36487)">
<path d="M286.078 163.101C286.192 165.832 285.839 168.396 285.345 170.909C284.833 173.415 284.137 175.857 283.284 178.241C282.433 180.625 281.418 182.951 280.219 185.212C279.003 187.465 277.644 189.668 275.813 191.702C275.694 188.968 276.045 186.404 276.54 183.891C277.052 181.385 277.748 178.944 278.607 176.562C279.465 174.179 280.48 171.854 281.679 169.593C282.896 167.34 284.254 165.136 286.078 163.101Z" fill="white"/>
</g>
</g>
<defs>
<clipPath id="clip0_2011_36487">
<rect width="387.593" height="420" fill="white"/>
</clipPath>
</defs>
</svg>
