<svg width="388" height="420" viewBox="0 0 388 420" fill="none" xmlns="http://www.w3.org/2000/svg">
<path d="M193.732 146.453C144.154 146.453 103.962 186.645 103.962 236.223C103.962 285.801 144.154 325.99 193.732 325.99C243.31 325.99 283.502 285.801 283.502 236.223C283.502 186.645 243.31 146.453 193.732 146.453ZM193.732 165.48C232.739 165.48 264.475 197.216 264.475 236.223C264.475 275.23 232.739 306.963 193.732 306.963C154.725 306.963 122.989 275.23 122.989 236.223C122.989 197.216 154.725 165.48 193.732 165.48Z" fill="white"/>
<path d="M193.368 173.584V222.757" stroke="white" stroke-width="8.64865" stroke-miterlimit="10" stroke-linecap="round"/>
<path d="M212.192 184.355L199.398 223.223" stroke="white" stroke-width="8.64865" stroke-miterlimit="10" stroke-linecap="round"/>
<path d="M162.614 242.206C168.405 230.328 180.516 222.757 193.732 222.757C206.948 222.757 219.06 230.328 224.854 242.206" stroke="white" stroke-width="8.64865" stroke-miterlimit="10" stroke-linecap="round"/>
<path d="M224.854 242.206C219.06 254.088 206.948 261.659 193.732 261.659C180.516 261.659 168.405 254.088 162.614 242.206" stroke="white" stroke-width="8.64865" stroke-miterlimit="10" stroke-linecap="round"/>
<path d="M206.002 242.206C206.002 248.983 200.509 254.476 193.732 254.476C186.955 254.476 181.465 248.983 181.465 242.206C181.465 235.432 186.955 229.939 193.732 229.939C200.509 229.939 206.002 235.432 206.002 242.206Z" fill="white"/>
<path d="M206.122 128.5H181.345C178.017 128.5 175.291 125.774 175.291 122.446V120.987C175.291 117.659 178.017 114.933 181.345 114.933H206.122C209.449 114.933 212.176 117.659 212.176 120.987V122.446C212.176 125.774 209.449 128.5 206.122 128.5Z" stroke="white" stroke-width="8.64865" stroke-miterlimit="10"/>
<path d="M202.213 155.828H185.253V128.5H202.213V155.828Z" stroke="white" stroke-width="6.91892" stroke-miterlimit="10"/>
<path d="M193.733 73.0002C169.729 73.0002 150.202 89.4192 150.202 109.598C150.202 127.338 165.297 142.166 185.256 145.493V137.304C169.78 134.237 158.266 122.983 158.266 109.598C158.266 93.8651 174.175 81.0644 193.733 81.0644C213.29 81.0644 229.199 93.8651 229.199 109.598C229.199 122.983 217.685 134.237 202.212 137.304V145.493C222.168 142.166 237.263 127.338 237.263 109.598C237.263 89.4192 217.736 73.0002 193.733 73.0002Z" fill="white"/>
</svg>
