<svg width="388" height="420" viewBox="0 0 388 420" fill="none" xmlns="http://www.w3.org/2000/svg">
<path d="M285.696 210.406C285.696 261.2 244.524 302.372 193.733 302.372C142.943 302.372 101.767 261.2 101.767 210.406C101.767 159.619 142.943 118.443 193.733 118.443C244.524 118.443 285.696 159.619 285.696 210.406Z" stroke="white" stroke-width="12.973" stroke-miterlimit="10" stroke-linecap="round" stroke-dasharray="0.87 15.64"/>
<path d="M185.034 217.395C196.223 228.581 196.223 246.72 185.034 257.909C173.845 269.095 155.71 269.095 144.521 257.909C133.335 246.72 133.335 228.581 144.521 217.395C155.71 206.206 173.845 206.206 185.034 217.395Z" stroke="white" stroke-width="12.973" stroke-miterlimit="10" stroke-linecap="round" stroke-dasharray="0.86 15.5"/>
<path d="M240.216 162.213C251.402 173.402 251.402 191.541 240.216 202.727C229.027 213.916 210.889 213.916 199.703 202.727C188.514 191.541 188.514 173.402 199.703 162.213C210.889 151.027 229.027 151.027 240.216 162.213Z" stroke="white" stroke-width="12.973" stroke-miterlimit="10" stroke-linecap="round" stroke-dasharray="0.86 15.5"/>
</svg>
