<svg width="388" height="420" viewBox="0 0 388 420" fill="none" xmlns="http://www.w3.org/2000/svg">
<path d="M147.392 126.199C150.612 126.199 153.223 128.811 153.223 132.027C153.223 135.25 150.612 137.858 147.392 137.858C144.172 137.858 141.564 135.25 141.564 132.027C141.564 128.811 144.172 126.199 147.392 126.199ZM189.571 135.111V102.027C186.115 102.388 182.71 102.912 179.362 103.591C141.909 111.176 111.436 137.993 98.6926 173.287C94.5271 184.824 92.2568 197.267 92.2568 210.243C92.2568 226.361 95.7602 241.659 102.051 255.419H171.882C181.652 255.419 189.571 247.5 189.571 237.733V210.061L203.22 205.638C207.814 204.152 210.331 199.219 208.845 194.625L189.571 135.111Z" fill="white"/>
<path d="M282.672 262.328C278.432 262.328 274.726 264.611 272.71 268.014C270.696 264.611 266.99 262.328 262.75 262.328C258.51 262.328 254.804 264.611 252.791 268.014C250.777 264.611 247.071 262.328 242.828 262.328C239.544 262.328 236.581 263.699 234.473 265.899V230.108C234.473 223.72 229.294 218.541 222.905 218.541C216.517 218.541 211.338 223.72 211.338 230.108V318.581C218.186 317.939 224.845 316.666 231.26 314.814C232.338 314.507 233.409 314.179 234.473 313.834C240.27 311.966 245.855 309.625 251.182 306.858C252.264 306.297 253.335 305.716 254.395 305.118C260.335 301.774 265.926 297.888 271.105 293.53C272.196 292.615 273.264 291.676 274.318 290.72C281.463 284.213 287.737 276.767 292.946 268.578C291.02 264.865 287.145 262.328 282.672 262.328Z" fill="white"/>
</svg>
