<svg width="388" height="420" viewBox="0 0 388 420" fill="none" xmlns="http://www.w3.org/2000/svg">
<path d="M146.658 233.987L135.016 202.909L139.543 205.625C143.553 208.051 148.178 209.311 152.833 209.311C162.117 209.311 170.719 204.331 175.31 196.281L197.982 156.598L211.127 179.605L219.935 163.754L207.779 142.466C211.239 139.622 213.506 135.352 213.506 130.5C213.506 121.929 206.55 114.977 197.982 114.977C189.411 114.977 182.458 121.929 182.458 130.5C182.458 135.352 184.722 139.622 188.181 142.466L161.827 188.581C159.918 191.946 156.425 193.791 152.833 193.791C151.023 193.791 149.181 193.304 147.529 192.301L124.148 178.267C125.023 176.325 125.573 174.159 125.573 171.862C125.573 163.294 118.621 156.341 110.05 156.341C101.479 156.341 94.4922 163.325 94.4922 171.895C94.4922 180.463 101.445 187.419 110.016 187.419C110.857 187.419 111.698 187.287 112.506 187.159L135.887 249.51H172.276L180.904 233.987H146.658Z" fill="white"/>
<path d="M276.381 175.5C267.81 175.5 260.858 182.456 260.858 191.024C260.858 193.321 261.375 195.456 262.28 197.429L238.868 211.463C237.185 212.466 235.375 212.953 233.564 212.953C229.973 212.953 226.483 211.078 224.574 207.743L219.375 198.642L210.564 214.493L211.088 215.409C215.679 223.463 224.283 228.443 233.564 228.443C238.253 228.443 242.844 227.182 246.854 224.753L251.381 222.041L239.74 253.118H189.098L180.473 268.639H250.51L273.892 206.291C274.699 206.419 275.54 206.547 276.381 206.547C284.949 206.547 291.905 199.595 291.905 191.024C291.905 182.456 284.949 175.5 276.381 175.5Z" fill="white"/>
<path d="M130.716 265.034C127.868 265.034 125.54 267.361 125.54 270.206V275.382C125.54 278.23 127.868 280.557 130.716 280.557H155.023L163.652 265.034H130.716Z" fill="white"/>
<path d="M255.685 299.686C258.53 299.686 260.857 297.358 260.857 294.514V289.338C260.857 286.49 258.53 284.166 255.685 284.166H171.844L163.219 299.686H255.685Z" fill="white"/>
</svg>
