<svg width="388" height="420" viewBox="0 0 388 420" fill="none" xmlns="http://www.w3.org/2000/svg">
<path d="M318.068 267.74H290.156C293.054 257.233 295.862 242.899 295.929 225.797C295.993 210.149 293.75 196.878 291.277 186.855H319.193C321.662 196.878 323.906 210.149 323.841 225.797C323.774 242.899 320.966 257.233 318.068 267.74Z" fill="white"/>
<path d="M174.15 267.537C190.555 268.959 208.376 269.858 227.43 269.889C247.302 269.922 265.842 269.014 282.852 267.537C286.021 258.392 289.508 245.108 290.075 228.811C290.694 211.081 287.626 196.554 284.781 186.861C281.856 186.861 274.065 186.622 268.994 185.358C246.599 179.777 233.613 159.973 224.863 146.632C221.069 140.848 216.187 132.476 211.808 121.598C211.339 120.905 210.44 119.416 206.781 118.733C203.035 118.037 196.947 119.351 193.836 121.598C186.238 127.081 186.927 139.524 188.619 147.757C190.268 155.777 193.64 158.946 197.9 164.608C201.683 169.635 205.44 173.311 208.173 175.736C203.298 175.321 196.042 174.821 187.2 174.666C174.673 174.446 168.41 174.334 165.802 175.52C151.17 182.186 151.859 210.105 152.535 237.578C152.738 245.831 153.484 253.834 159.366 260.057C164.2 265.166 170.423 266.878 174.15 267.537Z" fill="white"/>
<path d="M131.98 173.659C126.45 173.659 123.197 173.882 121.497 174.656C106.866 181.321 107.555 209.24 108.23 236.713C108.433 244.966 109.18 252.97 115.061 259.193C119.896 264.301 126.119 266.014 129.842 266.672C140.889 267.629 152.585 268.341 164.855 268.72C161.288 267.574 157.112 265.547 153.616 261.852C147.335 255.21 146.541 246.666 146.325 237.855C145.673 211.392 145.014 184.547 156.366 174.324C152.494 174.091 147.957 173.889 142.896 173.801C138.534 173.723 134.933 173.659 131.98 173.659ZM131.98 177.983C134.893 177.983 138.565 178.051 142.822 178.125C144.551 178.156 146.291 178.199 148.034 178.26C140.866 191.841 141.42 214.355 142.001 237.96C142.22 246.831 142.994 256.102 149.494 263.73C143.082 263.375 136.703 262.922 130.413 262.379C125.295 261.446 121.186 259.375 118.203 256.22C113.305 251.041 112.734 243.987 112.555 236.605C111.947 211.983 111.261 184.071 123.291 178.591C124.176 178.189 127.099 177.983 131.98 177.983Z" fill="white"/>
<path d="M158.498 116.818C154.883 116.818 150.345 118.03 147.802 119.865C140.204 125.355 140.893 137.794 142.585 146.027C144.234 154.044 147.606 157.216 151.866 162.878C154.241 166.03 156.602 168.652 158.707 170.767C158.724 170.757 158.741 170.747 158.758 170.74C160.572 169.912 164.045 169.676 169.947 169.676C173.102 169.676 176.947 169.743 181.602 169.824C188.548 169.946 194.579 170.27 199.352 170.608C190.413 162.554 183.906 152.645 178.829 144.902C175.035 139.118 170.153 130.747 165.775 119.865C165.302 119.176 164.406 117.686 160.748 117.003C160.065 116.878 159.305 116.818 158.498 116.818ZM158.498 121.142C159.052 121.142 159.555 121.183 159.957 121.257C161.258 121.497 161.751 121.787 161.981 122.014C165.592 130.899 170.045 139.395 175.214 147.274C178.7 152.591 183.082 159.274 188.585 165.693C186.281 165.608 183.974 165.541 181.677 165.503C177.096 165.422 173.139 165.351 169.947 165.351C165.254 165.351 162.224 165.503 160.025 165.895C158.359 164.101 156.785 162.22 155.322 160.277C154.612 159.335 153.937 158.473 153.285 157.642C150.102 153.574 147.998 150.889 146.822 145.156C146.011 141.223 143.879 128.034 150.332 123.372C152.035 122.142 155.7 121.142 158.498 121.142Z" fill="white"/>
<path d="M109.294 260.986C103.014 254.345 102.217 245.801 102.001 236.99C101.349 210.527 100.693 183.682 112.044 173.459C108.169 173.226 103.632 173.024 98.5749 172.936C86.0445 172.716 79.781 172.605 77.1762 173.79C62.5445 180.456 63.2303 208.375 63.9093 235.848C64.112 244.101 64.8553 252.105 70.7404 258.328C75.5749 263.436 81.7979 265.149 85.5208 265.807C96.5648 266.763 108.264 267.476 120.531 267.855C116.963 266.709 112.791 264.682 109.294 260.986Z" fill="white"/>
<path d="M107.545 162.014C109.916 165.166 112.278 167.787 114.382 169.902C114.403 169.892 114.416 169.882 114.436 169.875C117.217 168.608 123.906 168.726 137.281 168.96C144.227 169.085 150.257 169.406 155.031 169.743C146.092 161.689 139.582 151.781 134.507 144.037C130.713 138.254 125.832 129.882 121.453 119.004C120.98 118.311 120.085 116.821 116.426 116.139C112.68 115.446 106.592 116.754 103.477 119.004C95.879 124.487 96.5715 136.929 98.2641 145.162C99.9094 153.179 103.281 156.351 107.545 162.014Z" fill="white"/>
</svg>
