<svg width="388" height="420" viewBox="0 0 388 420" fill="none" xmlns="http://www.w3.org/2000/svg">
<path d="M208.438 220.821L221.496 239.26L203.057 226.203C201.925 261.693 222.533 289.311 257.661 298.679C258.432 289.973 257.911 281.703 256.229 273.993C263.938 275.676 272.209 276.196 280.915 275.426C271.546 240.298 243.932 219.689 208.438 220.821Z" fill="white"/>
<path d="M196.033 227.318L182.529 245.433L189.249 223.862C155.147 233.75 135.252 261.885 137.195 298.19C145.715 296.233 153.421 293.179 160.232 289.2C161.012 297.051 163.073 305.078 166.499 313.119C197.012 293.352 208.076 260.72 196.033 227.318Z" fill="white"/>
<path d="M186.023 217.527L164.621 210.284L187.216 210.007C167.266 180.632 134.364 170.402 100.435 183.466C104.929 190.963 110.216 197.351 116.104 202.598C108.881 205.767 101.885 210.21 95.2935 215.949C123.52 238.862 157.976 239.301 186.023 217.527Z" fill="white"/>
<path d="M192.243 204.98L192.516 182.385L199.76 203.787C221.537 175.74 221.097 141.284 198.185 113.058C192.445 119.649 188.003 126.645 184.834 133.872C179.587 127.98 173.199 122.696 165.702 118.203C152.638 152.129 162.868 185.034 192.243 204.98Z" fill="white"/>
<path d="M206.093 207.017L227.668 200.297L209.549 213.797C242.955 225.841 275.587 214.777 295.353 184.263C287.313 180.838 279.282 178.777 271.434 177.997C275.414 171.186 278.468 163.48 280.424 154.959C244.12 153.017 215.989 172.912 206.093 207.017Z" fill="white"/>
<path d="M113.463 268.351C113.257 270.733 112.49 275.743 109.003 280.946C105.618 285.993 101.382 288.659 99.2466 289.817C101.574 291.55 104.459 294.148 107 297.861C112.524 305.936 113 314.287 112.963 318.064C113.003 314.287 113.649 305.922 119.334 297.74C121.949 293.973 124.888 291.321 127.25 289.54C125.138 288.422 120.956 285.841 117.669 280.858C114.287 275.726 113.625 270.729 113.463 268.351Z" fill="white"/>
<path d="M133.789 305.193C133.681 306.426 133.286 309.021 131.482 311.713C129.728 314.328 127.533 315.71 126.431 316.308C127.634 317.206 129.127 318.551 130.445 320.473C133.303 324.656 133.549 328.98 133.533 330.936C133.553 328.98 133.887 324.649 136.83 320.412C138.185 318.46 139.708 317.088 140.928 316.166C139.837 315.588 137.671 314.25 135.968 311.669C134.218 309.014 133.874 306.426 133.789 305.193Z" fill="white"/>
<path d="M238.82 75.8955C238.591 78.5239 237.75 84.0577 233.898 89.7975C230.158 95.3719 225.483 98.3144 223.128 99.5948C225.695 101.51 228.878 104.375 231.685 108.477C237.783 117.389 238.307 126.612 238.27 130.781C238.314 126.612 239.023 117.379 245.304 108.341C248.192 104.183 251.435 101.254 254.04 99.2908C251.712 98.0543 247.094 95.2063 243.466 89.7029C239.729 84.0374 238.996 78.5205 238.82 75.8955Z" fill="white"/>
<path d="M254.165 116.571C254.043 117.932 253.607 120.797 251.614 123.77C249.678 126.655 247.256 128.179 246.036 128.841C247.367 129.834 249.016 131.317 250.469 133.442C253.624 138.054 253.898 142.831 253.877 144.99C253.901 142.831 254.269 138.051 257.519 133.371C259.016 131.219 260.695 129.703 262.046 128.682C260.84 128.044 258.448 126.567 256.57 123.719C254.634 120.787 254.256 117.929 254.165 116.571Z" fill="white"/>
<path d="M265.53 99.6523C265.438 100.683 265.111 102.848 263.6 105.095C262.138 107.277 260.307 108.429 259.384 108.929C260.391 109.679 261.638 110.801 262.736 112.406C265.124 115.896 265.327 119.507 265.313 121.139C265.33 119.507 265.611 115.892 268.067 112.355C269.198 110.727 270.469 109.581 271.489 108.811C270.577 108.328 268.769 107.213 267.347 105.058C265.884 102.842 265.601 100.679 265.53 99.6523Z" fill="white"/>
<path d="M291.131 250.277C291.039 251.307 290.712 253.473 289.202 255.719C287.739 257.902 285.908 259.054 284.985 259.554C285.992 260.304 287.239 261.426 288.337 263.03C290.725 266.52 290.928 270.132 290.914 271.763C290.931 270.132 291.212 266.517 293.668 262.98C294.8 261.351 296.07 260.206 297.09 259.436C296.178 258.953 294.37 257.838 292.948 255.682C291.485 253.466 291.202 251.304 291.131 250.277Z" fill="white"/>
<path d="M87.4111 158.199C87.2929 159.561 86.8537 162.426 84.8604 165.399C82.9246 168.284 80.5023 169.807 79.2827 170.473C80.6138 171.463 82.2624 172.946 83.7151 175.071C86.8739 179.686 87.1442 184.459 87.1239 186.622C87.1475 184.459 87.5158 179.679 90.7658 175C92.2624 172.848 93.9415 171.331 95.2929 170.314C94.0868 169.676 91.6949 168.199 89.8165 165.351C87.8807 162.415 87.5023 159.557 87.4111 158.199Z" fill="white"/>
<path d="M306.733 215.73C306.503 218.358 305.658 223.892 301.81 229.632C298.07 235.206 293.395 238.149 291.04 239.429C293.608 241.345 296.79 244.21 299.597 248.311C305.695 257.223 306.219 266.446 306.182 270.615C306.226 266.446 306.935 257.21 313.216 248.176C316.104 244.017 319.347 241.088 321.952 239.122C319.624 237.889 315.006 235.041 311.378 229.537C307.641 223.872 306.908 218.355 306.733 215.73Z" fill="white"/>
</svg>
