<svg width="388" height="420" viewBox="0 0 388 420" fill="none" xmlns="http://www.w3.org/2000/svg">
<g clip-path="url(#clip0_2011_35874)">
<mask id="mask0_2011_35874" style="mask-type:luminance" maskUnits="userSpaceOnUse" x="-34" y="-17" width="455" height="454">
<path d="M-33.0569 -16.8521H420.647V436.852H-33.0569V-16.8521Z" fill="white"/>
</mask>
<g mask="url(#mask0_2011_35874)">
<path d="M186.095 151.563C185.709 151.563 185.319 151.606 184.932 151.694C183.574 152 182.42 152.809 181.684 153.973L179.742 157.045C179.006 158.208 178.769 159.598 179.075 160.956C179.381 162.316 180.19 163.468 181.354 164.205L200.878 176.551C202.042 177.286 203.432 177.521 204.789 177.218C206.148 176.912 207.301 176.102 208.037 174.939L209.98 171.867C211.509 169.449 210.786 166.236 208.368 164.707L188.844 152.361C188.011 151.835 187.064 151.563 186.095 151.563ZM203.614 183.516C201.491 183.516 199.413 182.92 197.582 181.762L178.059 169.417C175.503 167.8 173.727 165.276 173.059 162.311C172.392 159.346 172.914 156.305 174.53 153.75L176.473 150.677C178.089 148.122 180.612 146.346 183.577 145.679C186.543 145.009 189.583 145.533 192.14 147.149L211.663 159.495C216.955 162.842 218.537 169.87 215.191 175.162L213.248 178.234C211.632 180.79 209.109 182.565 206.144 183.233C205.302 183.423 204.454 183.516 203.614 183.516Z" fill="white"/>
</g>
<mask id="mask1_2011_35874" style="mask-type:luminance" maskUnits="userSpaceOnUse" x="-34" y="-17" width="455" height="454">
<path d="M-33.0569 -16.8521H420.647V436.852H-33.0569V-16.8521Z" fill="white"/>
</mask>
<g mask="url(#mask1_2011_35874)">
<path d="M183.781 166.536C183.236 166.536 182.698 166.803 182.393 167.285L181.286 169.034C180.815 169.779 181.047 170.807 181.792 171.279L194.299 179.187C194.788 179.496 195.276 179.449 195.523 179.394C195.771 179.337 196.233 179.171 196.542 178.681L197.647 176.933C197.957 176.444 197.91 175.955 197.855 175.708C197.799 175.461 197.632 174.999 197.143 174.69L184.636 166.781C184.373 166.615 184.076 166.536 183.781 166.536ZM195.144 185.603C193.688 185.603 192.26 185.193 191.003 184.398L178.497 176.49C174.865 174.193 173.779 169.37 176.075 165.738L177.181 163.991C179.477 160.359 184.299 159.273 187.931 161.569L200.438 169.478C202.193 170.587 203.412 172.319 203.869 174.354C204.328 176.387 203.968 178.473 202.859 180.228L201.753 181.977C200.644 183.732 198.913 184.95 196.878 185.408C196.301 185.538 195.72 185.603 195.144 185.603Z" fill="white"/>
</g>
<mask id="mask2_2011_35874" style="mask-type:luminance" maskUnits="userSpaceOnUse" x="-34" y="-17" width="455" height="454">
<path d="M-33.0569 -16.8521H420.647V436.852H-33.0569V-16.8521Z" fill="white"/>
</mask>
<g mask="url(#mask2_2011_35874)">
<path d="M159.985 178.845C156.914 178.845 153.823 179.186 150.754 179.877C139.902 182.321 130.652 188.845 124.707 198.247C118.761 207.649 116.833 218.802 119.277 229.654C121.721 240.507 128.245 249.757 137.646 255.702C147.048 261.648 158.201 263.579 169.054 261.132C179.906 258.688 189.157 252.164 195.102 242.763C201.047 233.361 202.976 222.207 200.531 211.355C198.087 200.502 191.564 191.252 182.162 185.307C175.419 181.042 167.773 178.845 159.985 178.845ZM159.799 274.5C149.704 274.5 139.796 271.653 131.055 266.124C118.87 258.419 110.415 246.429 107.246 232.364C104.078 218.299 106.578 203.842 114.284 191.656C121.99 179.47 133.98 171.014 148.045 167.847C162.108 164.678 176.566 167.178 188.753 174.884C200.938 182.59 209.394 194.58 212.562 208.646C215.73 222.711 213.23 237.168 205.525 249.353C197.819 261.539 185.829 269.994 171.763 273.162C167.787 274.058 163.778 274.5 159.799 274.5Z" fill="white"/>
</g>
<mask id="mask3_2011_35874" style="mask-type:luminance" maskUnits="userSpaceOnUse" x="-34" y="-17" width="455" height="454">
<path d="M-33.0569 -16.8521H420.647V436.852H-33.0569V-16.8521Z" fill="white"/>
</mask>
<g mask="url(#mask3_2011_35874)">
<path d="M159.901 223.32C159.409 223.32 158.91 223.185 158.463 222.902C157.203 222.106 156.828 220.439 157.624 219.18L174.467 192.547C175.263 191.287 176.928 190.913 178.188 191.709C179.447 192.505 179.822 194.171 179.026 195.43L162.184 222.064C161.67 222.876 160.796 223.32 159.901 223.32Z" fill="white"/>
</g>
<mask id="mask4_2011_35874" style="mask-type:luminance" maskUnits="userSpaceOnUse" x="-34" y="-17" width="455" height="454">
<path d="M-33.0569 -16.8521H420.647V436.852H-33.0569V-16.8521Z" fill="white"/>
</mask>
<g mask="url(#mask4_2011_35874)">
<path d="M159.902 223.321C158.653 223.321 157.532 222.449 157.265 221.178C156.958 219.72 157.891 218.29 159.348 217.982L181.462 213.324C182.92 213.016 184.35 213.951 184.658 215.408C184.964 216.866 184.032 218.297 182.574 218.604L160.461 223.262C160.273 223.301 160.086 223.321 159.902 223.321Z" fill="white"/>
</g>
<mask id="mask5_2011_35874" style="mask-type:luminance" maskUnits="userSpaceOnUse" x="-34" y="-17" width="455" height="454">
<path d="M-33.0569 -16.8521H420.647V436.852H-33.0569V-16.8521Z" fill="white"/>
</mask>
<g mask="url(#mask5_2011_35874)">
<path d="M157.95 219.271C157.27 220.348 157.593 221.778 158.67 222.459C159.183 222.782 159.817 222.895 160.413 222.76C161.006 222.627 161.533 222.254 161.857 221.741C162.539 220.664 162.219 219.233 161.142 218.551C160.063 217.871 158.632 218.192 157.952 219.269L160.557 220.918L157.95 219.271ZM159.898 224.358C159.196 224.358 158.484 224.166 157.848 223.764C156.048 222.624 155.512 220.239 156.648 218.444C157.199 217.574 158.054 216.971 159.058 216.744C160.064 216.518 161.096 216.697 161.966 217.248C163.76 218.382 164.298 220.767 163.163 222.563L163.162 222.566C162.43 223.724 161.177 224.358 159.898 224.358Z" fill="white"/>
</g>
<mask id="mask6_2011_35874" style="mask-type:luminance" maskUnits="userSpaceOnUse" x="-34" y="-17" width="455" height="454">
<path d="M-33.0569 -16.8521H420.647V436.852H-33.0569V-16.8521Z" fill="white"/>
</mask>
<g mask="url(#mask6_2011_35874)">
<path d="M232.781 145.625C232.641 145.625 232.501 145.64 232.363 145.668L206.047 151.17C205.513 151.282 205.049 151.6 204.745 152.066C204.44 152.532 204.334 153.083 204.445 153.618L206.43 163.109C206.659 164.207 207.788 164.939 208.878 164.711L235.193 159.208C235.728 159.097 236.191 158.778 236.496 158.312C236.801 157.846 236.906 157.296 236.796 156.761L234.811 147.269C234.698 146.734 234.381 146.272 233.914 145.967C233.57 145.742 233.178 145.625 232.781 145.625ZM208.453 171.692C204.28 171.692 200.527 168.77 199.64 164.528L197.655 155.037C196.64 150.177 199.766 145.397 204.628 144.38L230.943 138.878C233.294 138.388 235.697 138.844 237.712 140.163C239.729 141.482 241.11 143.502 241.601 145.85L243.584 155.341C244.076 157.69 243.619 160.093 242.301 162.11C240.982 164.126 238.961 165.507 236.613 165.998L210.298 171.5C209.679 171.629 209.061 171.692 208.453 171.692Z" fill="white"/>
</g>
<mask id="mask7_2011_35874" style="mask-type:luminance" maskUnits="userSpaceOnUse" x="-34" y="-17" width="455" height="454">
<path d="M-33.0569 -16.8521H420.647V436.852H-33.0569V-16.8521Z" fill="white"/>
</mask>
<g mask="url(#mask7_2011_35874)">
<path d="M260.361 164.598C261.424 164.947 262.621 164.344 262.971 163.279L265.998 154.067C266.169 153.548 266.125 152.989 265.874 152.492C265.623 151.994 265.198 151.627 264.679 151.456L239.137 143.062C238.619 142.892 238.058 142.937 237.562 143.188C237.066 143.439 236.698 143.864 236.528 144.382L233.501 153.594C233.151 154.659 233.755 155.854 234.82 156.205L260.361 164.598ZM260.999 171.639C260.07 171.639 259.126 171.494 258.195 171.188H258.194L232.654 162.795C227.937 161.244 225.361 156.146 226.91 151.429L229.938 142.217C230.687 139.938 232.284 138.084 234.434 136.998C236.584 135.91 239.025 135.725 241.304 136.473L266.845 144.867C269.124 145.615 270.977 147.212 272.065 149.363C273.152 151.513 273.338 153.953 272.588 156.233L269.561 165.444C268.317 169.231 264.784 171.639 260.999 171.639Z" fill="white"/>
</g>
<mask id="mask8_2011_35874" style="mask-type:luminance" maskUnits="userSpaceOnUse" x="-34" y="-17" width="455" height="454">
<path d="M-33.0569 -16.8521H420.647V436.852H-33.0569V-16.8521Z" fill="white"/>
</mask>
<g mask="url(#mask8_2011_35874)">
<path d="M277.616 184.197C278.362 185.034 279.702 185.107 280.536 184.36L287.764 177.896C288.6 177.149 288.674 175.811 287.926 174.975L270.003 154.936C269.256 154.1 267.918 154.025 267.083 154.774L259.856 161.237C259.448 161.602 259.207 162.108 259.176 162.664C259.144 163.219 259.328 163.75 259.692 164.157L277.616 184.197ZM279.162 191.818C276.686 191.818 274.221 190.807 272.445 188.821L254.523 168.781C252.923 166.994 252.117 164.684 252.251 162.277C252.385 159.872 253.443 157.666 255.232 156.067L262.459 149.603C266.16 146.292 271.864 146.61 275.174 150.312L293.097 170.351C296.407 174.052 296.088 179.756 292.388 183.066L285.16 189.53C283.445 191.064 281.3 191.818 279.162 191.818Z" fill="white"/>
</g>
<mask id="mask9_2011_35874" style="mask-type:luminance" maskUnits="userSpaceOnUse" x="-34" y="-17" width="455" height="454">
<path d="M-33.0569 -16.8521H420.647V436.852H-33.0569V-16.8521Z" fill="white"/>
</mask>
<g mask="url(#mask9_2011_35874)">
<path d="M278.956 209.232C278.978 210.353 279.943 211.275 281.065 211.258L290.761 211.06C291.306 211.049 291.819 210.822 292.206 210.42C292.591 210.018 292.797 209.496 292.786 208.95L292.237 182.071C292.226 181.525 291.998 181.011 291.597 180.626C291.195 180.24 290.671 180.035 290.127 180.045L280.432 180.243C279.311 180.266 278.384 181.232 278.406 182.353L278.956 209.232ZM281.02 218.195C276.141 218.195 272.122 214.277 272.021 209.375V209.374L271.471 182.495C271.371 177.53 275.326 173.41 280.29 173.308L289.986 173.11C292.375 173.063 294.663 173.952 296.401 175.622C298.139 177.291 299.123 179.531 299.171 181.93L299.721 208.808C299.77 211.206 298.878 213.485 297.209 215.224C295.541 216.962 293.301 217.946 290.903 217.995L281.208 218.192C281.146 218.194 281.083 218.195 281.02 218.195Z" fill="white"/>
</g>
<mask id="mask10_2011_35874" style="mask-type:luminance" maskUnits="userSpaceOnUse" x="-34" y="-17" width="455" height="454">
<path d="M-33.0569 -16.8521H420.647V436.852H-33.0569V-16.8521Z" fill="white"/>
</mask>
<g mask="url(#mask10_2011_35874)">
<path d="M264.597 230.573C263.98 231.509 264.249 232.821 265.184 233.439L273.277 238.779C273.734 239.08 274.286 239.184 274.83 239.072C275.375 238.962 275.841 238.648 276.142 238.193L290.952 215.754C291.569 214.819 291.3 213.506 290.364 212.888L282.272 207.547C281.336 206.929 280.023 207.197 279.406 208.134L264.597 230.573ZM274.388 246.055C272.644 246.055 270.94 245.548 269.456 244.569L261.363 239.228C257.219 236.495 256.073 230.897 258.808 226.752L273.616 204.314C276.351 200.171 281.947 199.023 286.092 201.758L294.185 207.099C298.329 209.833 299.475 215.43 296.741 219.574L281.931 242.013C280.61 244.016 278.582 245.385 276.222 245.869C275.61 245.994 274.998 246.055 274.388 246.055Z" fill="white"/>
</g>
<mask id="mask11_2011_35874" style="mask-type:luminance" maskUnits="userSpaceOnUse" x="-34" y="-17" width="455" height="454">
<path d="M-33.0569 -16.8521H420.647V436.852H-33.0569V-16.8521Z" fill="white"/>
</mask>
<g mask="url(#mask11_2011_35874)">
<path d="M242.698 247.74C241.835 248.455 241.71 249.79 242.426 250.652L248.614 258.117C249.331 258.98 250.663 259.104 251.528 258.388L272.223 241.229C273.087 240.513 273.211 239.18 272.496 238.317L266.307 230.852C265.591 229.99 264.257 229.866 263.394 230.581L242.698 247.74ZM250.215 265.797C247.624 265.797 245.053 264.689 243.275 262.543L237.086 255.079C233.917 251.258 234.449 245.57 238.271 242.401L258.967 225.24C262.791 222.07 268.478 222.604 271.647 226.425L277.836 233.889C281.005 237.712 280.473 243.399 276.651 246.569L255.955 263.728C254.277 265.12 252.24 265.797 250.215 265.797Z" fill="white"/>
</g>
<mask id="mask12_2011_35874" style="mask-type:luminance" maskUnits="userSpaceOnUse" x="-34" y="-17" width="455" height="454">
<path d="M-33.0569 -16.8521H420.647V436.852H-33.0569V-16.8521Z" fill="white"/>
</mask>
<g mask="url(#mask12_2011_35874)">
<path d="M221.26 269.13C220.916 269.554 220.759 270.093 220.817 270.646C220.876 271.2 221.141 271.694 221.566 272.038L229.105 278.138C229.529 278.481 230.061 278.635 230.621 278.58C231.175 278.522 231.669 278.256 232.013 277.831L248.926 256.932C249.27 256.507 249.426 255.969 249.368 255.416C249.31 254.862 249.043 254.367 248.618 254.023L241.081 247.924C240.656 247.58 240.115 247.423 239.564 247.481C239.01 247.539 238.517 247.805 238.173 248.231L221.26 269.13ZM230.382 285.53C228.327 285.53 226.353 284.835 224.741 283.531L217.203 277.43C213.343 274.306 212.744 268.625 215.868 264.765L232.78 243.866C235.904 240.007 241.585 239.408 245.445 242.531L252.983 248.632C256.842 251.755 257.441 257.436 254.318 261.296L237.404 282.195C235.896 284.06 233.745 285.226 231.348 285.478C231.025 285.513 230.703 285.53 230.382 285.53Z" fill="white"/>
</g>
<mask id="mask13_2011_35874" style="mask-type:luminance" maskUnits="userSpaceOnUse" x="-34" y="-17" width="455" height="454">
<path d="M-33.0569 -16.8521H420.647V436.852H-33.0569V-16.8521Z" fill="white"/>
</mask>
<g mask="url(#mask13_2011_35874)">
<path d="M206.744 296.923C206.54 297.429 206.548 297.99 206.766 298.502C206.984 299.015 207.383 299.41 207.889 299.614L216.883 303.238C217.922 303.658 219.156 303.133 219.575 302.092L229.624 277.157C229.828 276.65 229.821 276.09 229.603 275.576C229.385 275.064 228.986 274.67 228.48 274.466L219.485 270.841C218.445 270.42 217.213 270.947 216.795 271.985L206.744 296.923ZM217.645 310.325C216.526 310.325 215.39 310.116 214.291 309.672L205.297 306.047C200.691 304.191 198.455 298.935 200.31 294.33V294.329L210.361 269.393C211.257 267.168 212.973 265.424 215.19 264.479C217.408 263.536 219.856 263.511 222.078 264.407L231.072 268.032C233.298 268.929 235.042 270.643 235.986 272.861C236.929 275.078 236.954 277.524 236.058 279.749L226.009 304.686C224.595 308.192 221.211 310.325 217.645 310.325Z" fill="white"/>
</g>
<mask id="mask14_2011_35874" style="mask-type:luminance" maskUnits="userSpaceOnUse" x="-34" y="-17" width="455" height="454">
<path d="M-33.0569 -16.8521H420.647V436.852H-33.0569V-16.8521Z" fill="white"/>
</mask>
<g mask="url(#mask14_2011_35874)">
<path d="M223.335 299.142C221.048 299.142 218.778 299.678 216.678 300.739C213.151 302.521 210.53 305.57 209.296 309.324C208.062 313.077 208.365 317.087 210.147 320.614C211.929 324.14 214.978 326.762 218.731 327.995C222.485 329.228 226.494 328.926 230.021 327.144C233.548 325.363 236.17 322.314 237.403 318.56C238.637 314.806 238.335 310.796 236.552 307.27C234.77 303.744 231.722 301.122 227.968 299.889C226.449 299.39 224.888 299.142 223.335 299.142ZM223.373 336.454C221.01 336.454 218.636 336.076 216.325 335.317C204.539 331.445 198.101 318.704 201.974 306.918C203.85 301.208 207.838 296.571 213.203 293.861C218.566 291.15 224.665 290.689 230.374 292.567C236.083 294.442 240.721 298.43 243.431 303.794C246.142 309.158 246.601 315.257 244.725 320.966C242.849 326.675 238.861 331.313 233.497 334.023C230.304 335.637 226.849 336.454 223.373 336.454Z" fill="white"/>
</g>
<mask id="mask15_2011_35874" style="mask-type:luminance" maskUnits="userSpaceOnUse" x="-34" y="-17" width="455" height="454">
<path d="M-33.0569 -16.8521H420.647V436.852H-33.0569V-16.8521Z" fill="white"/>
</mask>
<g mask="url(#mask15_2011_35874)">
<path d="M92.9502 251.078C91.5675 251.078 90.1813 251.494 88.9205 252.303C87.0547 253.501 85.6884 255.407 85.0722 257.67C84.456 259.933 84.6678 262.268 85.6685 264.247C86.6425 266.171 88.2525 267.524 90.2021 268.054C92.1517 268.583 94.2249 268.237 96.0397 267.071C97.9055 265.874 99.2718 263.968 99.888 261.705C100.505 259.442 100.292 257.105 99.2917 255.128C98.3178 253.204 96.7086 251.85 94.7581 251.32C94.1636 251.158 93.5569 251.078 92.9502 251.078ZM92.0204 271.381C91.1397 271.381 90.2591 271.265 89.3915 271.029C86.5897 270.266 84.2901 268.351 82.9178 265.638C81.5713 262.978 81.2801 259.861 82.0976 256.86C82.9143 253.859 84.7464 251.319 87.2552 249.709C89.8132 248.066 92.7662 247.582 95.5687 248.346C98.3705 249.109 100.67 251.023 102.043 253.736C103.389 256.396 103.68 259.513 102.863 262.515C102.046 265.515 100.214 268.056 97.7059 269.666C95.9386 270.8 93.9829 271.381 92.0204 271.381Z" fill="white"/>
</g>
<mask id="mask16_2011_35874" style="mask-type:luminance" maskUnits="userSpaceOnUse" x="-34" y="-17" width="455" height="454">
<path d="M-33.0569 -16.8521H420.647V436.852H-33.0569V-16.8521Z" fill="white"/>
</mask>
<g mask="url(#mask16_2011_35874)">
<path d="M72.5985 233.211C72.5527 233.211 72.5069 233.212 72.4602 233.213C69.6749 233.287 67.4686 235.614 67.5429 238.399C67.5792 239.749 68.1383 241.004 69.1183 241.932C70.0975 242.862 71.3825 243.339 72.7298 243.317C74.0797 243.281 75.3336 242.722 76.2627 241.742C77.1917 240.762 77.6834 239.48 77.6471 238.13C77.6108 236.781 77.0517 235.526 76.0725 234.597C75.1262 233.7 73.8973 233.211 72.5985 233.211ZM72.5898 246.401C70.4985 246.401 68.5203 245.614 66.9976 244.17C65.4196 242.674 64.5191 240.654 64.4612 238.482C64.3419 233.997 67.8929 230.251 72.3781 230.131C76.8607 230.004 80.6096 233.564 80.7288 238.048C80.7867 240.221 79.9951 242.286 78.5001 243.862C77.0041 245.44 74.9845 246.341 72.8119 246.399C72.7376 246.401 72.6633 246.401 72.5898 246.401Z" fill="white"/>
</g>
<mask id="mask17_2011_35874" style="mask-type:luminance" maskUnits="userSpaceOnUse" x="-34" y="-17" width="455" height="454">
<path d="M-33.0569 -16.8521H420.647V436.852H-33.0569V-16.8521Z" fill="white"/>
</mask>
<g mask="url(#mask17_2011_35874)">
<path d="M88.9353 212.251C88.5818 212.251 88.2284 212.318 87.8896 212.451C87.1836 212.731 86.6288 213.268 86.3272 213.965C86.0256 214.661 86.0126 215.434 86.2909 216.14C86.5709 216.845 87.1075 217.4 87.8041 217.702C88.5006 218.004 89.2715 218.017 89.9793 217.738C90.6844 217.459 91.2401 216.922 91.5417 216.225C92.1648 214.787 91.502 213.111 90.0648 212.487C89.7018 212.33 89.319 212.251 88.9353 212.251ZM88.9267 221.019C88.1411 221.019 87.3435 220.863 86.5778 220.531C85.1259 219.902 84.0059 218.744 83.4243 217.272C82.8427 215.801 82.8686 214.19 83.4986 212.738C84.1278 211.286 85.2849 210.166 86.7567 209.585C88.2275 209.002 89.8393 209.029 91.2911 209.658C92.743 210.288 93.863 211.445 94.4446 212.917C95.0262 214.389 95.0002 216 94.3702 217.452C93.4023 219.683 91.2168 221.019 88.9267 221.019Z" fill="white"/>
</g>
<mask id="mask18_2011_35874" style="mask-type:luminance" maskUnits="userSpaceOnUse" x="-34" y="-17" width="455" height="454">
<path d="M-33.0569 -16.8521H420.647V436.852H-33.0569V-16.8521Z" fill="white"/>
</mask>
<g mask="url(#mask18_2011_35874)">
<path d="M74.4292 188.147C74.4076 188.147 74.386 188.147 74.3644 188.148C74.0222 188.164 73.743 188.304 73.5348 188.563C73.2522 188.914 73.145 189.436 73.2409 189.995C73.4362 191.142 74.4534 192.096 75.4127 192.062C75.7549 192.047 76.034 191.907 76.2423 191.648C76.524 191.297 76.6312 190.775 76.5352 190.215C76.3451 189.095 75.3712 188.147 74.4292 188.147ZM75.3444 195.147C72.8866 195.147 70.6518 193.153 70.2015 190.514C69.9578 189.085 70.2966 187.67 71.1323 186.631C71.8954 185.681 72.992 185.126 74.2192 185.069C76.753 184.946 79.1114 186.983 79.5746 189.698C79.8183 191.126 79.4796 192.542 78.6439 193.581C77.8808 194.53 76.785 195.084 75.5578 195.141C75.487 195.145 75.4152 195.147 75.3444 195.147Z" fill="white"/>
</g>
<mask id="mask19_2011_35874" style="mask-type:luminance" maskUnits="userSpaceOnUse" x="-34" y="-17" width="455" height="454">
<path d="M-33.0569 -16.8521H420.647V436.852H-33.0569V-16.8521Z" fill="white"/>
</mask>
<g mask="url(#mask19_2011_35874)">
<path d="M143.116 135.202C141.899 135.202 140.667 135.425 139.477 135.871C134.534 137.723 131.886 142.895 133.575 147.401C135.263 151.906 140.659 154.065 145.602 152.211C150.545 150.359 153.193 145.187 151.504 140.681C150.695 138.52 149.014 136.827 146.769 135.912C145.609 135.439 144.37 135.202 143.116 135.202ZM141.983 155.957C137.009 155.957 132.429 153.128 130.688 148.483C128.403 142.385 131.861 135.433 138.395 132.983C141.54 131.806 144.928 131.831 147.933 133.057C150.983 134.3 153.277 136.623 154.392 139.599C156.677 145.697 153.219 152.649 146.683 155.098C145.128 155.681 143.536 155.957 141.983 155.957Z" fill="white"/>
</g>
<mask id="mask20_2011_35874" style="mask-type:luminance" maskUnits="userSpaceOnUse" x="-34" y="-17" width="455" height="454">
<path d="M-33.0569 -16.8521H420.647V436.852H-33.0569V-16.8521Z" fill="white"/>
</mask>
<g mask="url(#mask20_2011_35874)">
<path d="M153.219 105.012C153.032 105.012 152.85 105.044 152.677 105.109C151.677 105.484 151.248 106.816 151.721 108.079C152.195 109.343 153.396 110.064 154.394 109.691C154.841 109.523 155.193 109.149 155.386 108.636C155.606 108.049 155.593 107.369 155.35 106.72V106.72C155.107 106.071 154.669 105.55 154.118 105.252C153.822 105.093 153.515 105.012 153.219 105.012ZM153.863 112.869C151.749 112.87 149.687 111.435 148.835 109.162C147.765 106.306 149.003 103.194 151.595 102.222C152.888 101.737 154.304 101.85 155.582 102.539C156.79 103.191 157.733 104.292 158.237 105.638C158.741 106.984 158.754 108.433 158.272 109.718C157.762 111.078 156.77 112.093 155.476 112.578C154.948 112.776 154.404 112.869 153.863 112.869Z" fill="white"/>
</g>
<mask id="mask21_2011_35874" style="mask-type:luminance" maskUnits="userSpaceOnUse" x="-34" y="-17" width="455" height="454">
<path d="M-33.0569 -16.8521H420.647V436.852H-33.0569V-16.8521Z" fill="white"/>
</mask>
<g mask="url(#mask21_2011_35874)">
<path d="M173.211 126.571C172.663 126.571 172.123 126.713 171.633 126.991C170.887 127.413 170.35 128.101 170.122 128.927C169.65 130.633 170.654 132.406 172.36 132.877C173.187 133.106 174.052 132.998 174.799 132.576C175.545 132.153 176.081 131.465 176.31 130.639C176.539 129.812 176.431 128.946 176.009 128.2C175.586 127.455 174.898 126.918 174.071 126.689C173.787 126.61 173.498 126.571 173.211 126.571ZM173.225 136.079C172.663 136.079 172.097 136.002 171.539 135.849C168.195 134.924 166.226 131.451 167.151 128.106C167.599 126.486 168.65 125.137 170.113 124.308C171.576 123.479 173.273 123.27 174.893 123.718C178.238 124.643 180.206 128.116 179.282 131.46C178.834 133.081 177.781 134.429 176.319 135.257C175.36 135.802 174.3 136.079 173.225 136.079Z" fill="white"/>
</g>
<mask id="mask22_2011_35874" style="mask-type:luminance" maskUnits="userSpaceOnUse" x="-34" y="-17" width="455" height="454">
<path d="M-33.0569 -16.8521H420.647V436.852H-33.0569V-16.8521Z" fill="white"/>
</mask>
<g mask="url(#mask22_2011_35874)">
<path d="M182.921 80.9388C180.931 80.9388 179.039 82.6793 178.507 85.1432C178.21 86.5233 178.383 87.9069 178.993 89.039C179.56 90.0916 180.443 90.7942 181.479 91.0171C182.515 91.2401 183.609 90.9644 184.559 90.2393C185.582 89.459 186.309 88.269 186.607 86.8888C186.904 85.5087 186.732 84.1251 186.121 82.9922C185.554 81.9405 184.671 81.2387 183.635 81.0149C183.397 80.9639 183.158 80.9388 182.921 80.9388ZM182.203 94.1775C181.745 94.1775 181.286 94.1291 180.83 94.0306C178.898 93.614 177.282 92.3609 176.279 90.5021C175.321 88.7244 175.042 86.5898 175.494 84.4933C176.447 80.0738 180.39 77.1614 184.284 78.0014C186.217 78.418 187.833 79.6711 188.834 81.53C189.793 83.3076 190.072 85.4413 189.62 87.5379C189.169 89.6344 188.035 91.4648 186.429 92.6902C185.147 93.6685 183.684 94.1775 182.203 94.1775Z" fill="white"/>
</g>
<mask id="mask23_2011_35874" style="mask-type:luminance" maskUnits="userSpaceOnUse" x="-34" y="-17" width="455" height="454">
<path d="M-33.0569 -16.8521H420.647V436.852H-33.0569V-16.8521Z" fill="white"/>
</mask>
<g mask="url(#mask23_2011_35874)">
<path d="M303.662 139.315C303.059 139.315 302.449 139.39 301.839 139.544C297.89 140.55 295.495 144.581 296.5 148.53C297.505 152.48 301.536 154.874 305.485 153.869C309.434 152.864 311.829 148.833 310.825 144.884C309.975 141.544 306.959 139.315 303.662 139.315ZM303.664 157.182C298.988 157.182 294.717 154.024 293.512 149.291C292.088 143.693 295.483 137.981 301.079 136.557C306.68 135.132 312.388 138.528 313.812 144.124C315.237 149.72 311.842 155.433 306.246 156.857C305.382 157.076 304.515 157.182 303.664 157.182Z" fill="white"/>
</g>
<mask id="mask24_2011_35874" style="mask-type:luminance" maskUnits="userSpaceOnUse" x="-34" y="-17" width="455" height="454">
<path d="M-33.0569 -16.8521H420.647V436.852H-33.0569V-16.8521Z" fill="white"/>
</mask>
<g mask="url(#mask24_2011_35874)">
<path d="M266.128 130.219C268.486 131.595 271.302 131.185 272.401 129.3C272.909 128.431 272.977 127.356 272.595 126.276C272.18 125.104 271.299 124.078 270.115 123.387C268.93 122.696 267.606 122.436 266.381 122.649C265.251 122.848 264.35 123.436 263.843 124.307C263.335 125.176 263.266 126.25 263.648 127.33C264.064 128.502 264.945 129.528 266.128 130.219ZM269.007 134.106C267.532 134.106 265.994 133.71 264.575 132.882C262.762 131.824 261.401 130.218 260.743 128.36C260.052 126.41 260.207 124.419 261.18 122.752C262.152 121.087 263.81 119.971 265.846 119.613C267.788 119.271 269.856 119.666 271.669 120.724C273.482 121.782 274.843 123.389 275.502 125.247C276.191 127.196 276.037 129.188 275.064 130.855C273.833 132.963 271.512 134.106 269.007 134.106Z" fill="white"/>
</g>
<mask id="mask25_2011_35874" style="mask-type:luminance" maskUnits="userSpaceOnUse" x="-34" y="-17" width="455" height="454">
<path d="M-33.0569 -16.8521H420.647V436.852H-33.0569V-16.8521Z" fill="white"/>
</mask>
<g mask="url(#mask25_2011_35874)">
<path d="M291.819 118.002C291.341 118.002 290.864 118.106 290.418 118.313C288.752 119.087 288.026 121.072 288.801 122.737C289.575 124.403 291.56 125.128 293.224 124.354C294.89 123.581 295.615 121.596 294.842 119.93C294.467 119.124 293.8 118.511 292.965 118.205C292.592 118.069 292.205 118.002 291.819 118.002ZM291.831 127.747C289.411 127.747 287.09 126.371 286.005 124.036C284.515 120.828 285.912 117.008 289.119 115.517C290.673 114.795 292.415 114.723 294.023 115.31C295.632 115.899 296.916 117.078 297.637 118.632C299.127 121.839 297.73 125.66 294.523 127.151C293.652 127.555 292.734 127.747 291.831 127.747Z" fill="white"/>
</g>
<mask id="mask26_2011_35874" style="mask-type:luminance" maskUnits="userSpaceOnUse" x="-34" y="-17" width="455" height="454">
<path d="M-33.0569 -16.8521H420.647V436.852H-33.0569V-16.8521Z" fill="white"/>
</mask>
<g mask="url(#mask26_2011_35874)">
<path d="M307.184 243.477C307.136 243.477 307.088 243.479 307.04 243.482C306.508 243.518 306.067 243.765 305.726 244.215C305.151 244.978 304.971 246.188 305.241 247.452C305.731 249.745 307.543 251.577 309.198 251.474C309.729 251.438 310.171 251.19 310.511 250.74C311.086 249.978 311.268 248.768 310.997 247.503C310.521 245.278 308.799 243.477 307.184 243.477ZM309.059 254.561C305.976 254.561 303.017 251.794 302.226 248.097C301.764 245.939 302.143 243.847 303.265 242.359C304.143 241.196 305.408 240.503 306.831 240.407C310.031 240.179 313.193 243.024 314.012 246.858C314.473 249.018 314.095 251.109 312.972 252.596C312.095 253.76 310.828 254.453 309.406 254.549C309.291 254.557 309.175 254.561 309.059 254.561Z" fill="white"/>
</g>
<mask id="mask27_2011_35874" style="mask-type:luminance" maskUnits="userSpaceOnUse" x="-34" y="-17" width="455" height="454">
<path d="M-33.0569 -16.8521H420.647V436.852H-33.0569V-16.8521Z" fill="white"/>
</mask>
<g mask="url(#mask27_2011_35874)">
<path d="M292.817 259.681C290.855 259.681 288.989 260.401 287.527 261.732C285.973 263.148 285.064 265.084 284.965 267.184C284.867 269.284 285.593 271.296 287.008 272.851C288.424 274.405 290.359 275.314 292.459 275.412C296.784 275.623 300.485 272.253 300.687 267.918C300.891 263.583 297.528 259.892 293.193 259.689C293.068 259.683 292.943 259.681 292.817 259.681ZM292.833 278.504C292.662 278.504 292.489 278.5 292.317 278.492C289.394 278.356 286.7 277.09 284.729 274.927C282.76 272.764 281.749 269.963 281.886 267.041C282.022 264.118 283.288 261.424 285.451 259.453C287.614 257.483 290.417 256.472 293.337 256.61C299.37 256.891 304.049 262.029 303.767 268.062C303.494 273.922 298.64 278.504 292.833 278.504Z" fill="white"/>
</g>
</g>
<defs>
<clipPath id="clip0_2011_35874">
<rect width="387.593" height="420" fill="white"/>
</clipPath>
</defs>
</svg>
