<svg width="388" height="420" viewBox="0 0 388 420" fill="none" xmlns="http://www.w3.org/2000/svg">
<g clip-path="url(#clip0_2011_95533)">
<path d="M291.562 139.887L314.312 144.409L296.887 159.721L299.618 182.761L279.675 170.915L258.613 180.633L263.713 157.999L247.965 140.966L271.061 138.823L282.389 118.578L291.562 139.887Z" fill="white"/>
<mask id="mask0_2011_95533" style="mask-type:luminance" maskUnits="userSpaceOnUse" x="-34" y="-17" width="455" height="454">
<path d="M-33.0439 -16.8521H420.517V436.852H-33.0439V-16.8521Z" fill="white"/>
</mask>
<g mask="url(#mask0_2011_95533)">
<path d="M239.563 149.729C198.166 167.469 157.784 187.051 119.295 210.435C111.417 215.127 103.103 220.325 95.3619 225.214C90.6137 228.275 85.8483 231.296 81.0337 234.27C83.8363 231.737 86.6708 229.256 89.5684 226.837C132.806 190.832 184.982 163.562 239.563 149.729Z" fill="white"/>
</g>
<mask id="mask1_2011_95533" style="mask-type:luminance" maskUnits="userSpaceOnUse" x="-34" y="-17" width="455" height="454">
<path d="M-33.0439 -16.8521H420.517V436.852H-33.0439V-16.8521Z" fill="white"/>
</mask>
<g mask="url(#mask1_2011_95533)">
<path d="M281.141 196.726C249.605 245.634 203.977 285.363 152.155 311.603C148.991 313.198 144.571 315.277 141.352 316.83C139.531 317.663 137.726 318.527 135.89 319.336C142.308 314.537 148.976 310.072 155.484 305.504C201.563 274.275 242.993 237.245 281.141 196.726Z" fill="white"/>
</g>
<mask id="mask2_2011_95533" style="mask-type:luminance" maskUnits="userSpaceOnUse" x="-34" y="-17" width="455" height="454">
<path d="M-33.0439 -16.8521H420.517V436.852H-33.0439V-16.8521Z" fill="white"/>
</mask>
<g mask="url(#mask2_2011_95533)">
<path d="M246.561 184.856C229.373 196.755 212.932 209.625 197.567 223.781C188.671 231.879 179.448 241.542 171.138 250.326L151.985 270.43C161.771 251.994 174.903 229.82 183.088 210.81C184.615 207.304 186.706 202.241 188.195 198.659L194.263 203.279C185.69 209.961 176.92 216.515 168.444 223.153C155.695 233.193 143.359 243.759 131.451 254.787C119.511 265.918 107.999 277.499 95.9019 288.486C108.086 273.746 120.336 259.085 133.665 245.368C147.081 231.702 161.496 218.918 176.597 207.167C182.718 202.354 195.079 192.574 201.178 187.774C196.047 200.11 190.659 214.321 184.657 226.166C180.695 234.143 176.164 241.848 171.723 249.545L165.884 245.169C171.848 239.253 177.837 233.254 184.163 227.694C203.013 210.887 223.993 196.203 246.561 184.856Z" fill="white"/>
</g>
<mask id="mask3_2011_95533" style="mask-type:luminance" maskUnits="userSpaceOnUse" x="-34" y="-17" width="455" height="454">
<path d="M-33.0439 -16.8521H420.517V436.852H-33.0439V-16.8521Z" fill="white"/>
</mask>
<g mask="url(#mask3_2011_95533)">
<path d="M255.528 160.192C248.903 164.136 242.513 168.355 236.445 173.074C232.716 175.98 226.515 181.15 222.784 184.21C227.659 177.812 233.76 170.679 238.027 163.932L239.64 165.572C231.424 170.641 222.499 176.377 214.859 182.206C212.187 184.197 209.509 186.181 206.779 188.101C209.204 185.808 211.68 183.578 214.164 181.356C222.931 173.347 233.105 166.926 243.071 160.542C240.732 164.033 238.087 168.35 235.547 171.657C233.974 173.754 232.3 175.754 230.638 177.718L229.1 176.157C237.169 169.761 246.023 164.185 255.528 160.192Z" fill="white"/>
</g>
<mask id="mask4_2011_95533" style="mask-type:luminance" maskUnits="userSpaceOnUse" x="-34" y="-17" width="455" height="454">
<path d="M-33.0439 -16.8521H420.517V436.852H-33.0439V-16.8521Z" fill="white"/>
</mask>
<g mask="url(#mask4_2011_95533)">
<path d="M229.414 221.073C235.707 215.255 241.72 209.216 247.315 202.751C250.747 198.781 256.345 191.892 259.754 187.763C255.702 195.597 250.488 204.487 247.112 212.561L245.213 211.245L253.193 203.56C261.183 195.882 268.415 187.481 275.957 179.37C269.429 188.384 262.565 197.172 254.739 205.104C250.883 209.056 246.397 213.338 242.483 217.263C245.477 210.255 248.725 202.882 252.679 196.391L254.483 197.643C247.069 206.358 238.732 214.412 229.414 221.073Z" fill="white"/>
</g>
<mask id="mask5_2011_95533" style="mask-type:luminance" maskUnits="userSpaceOnUse" x="-34" y="-17" width="455" height="454">
<path d="M-33.0439 -16.8521H420.517V436.852H-33.0439V-16.8521Z" fill="white"/>
</mask>
<g mask="url(#mask5_2011_95533)">
<path d="M81.0345 204.602C81.0345 206.777 79.272 208.54 77.0976 208.54C74.9231 208.54 73.1606 206.777 73.1606 204.602C73.1606 202.427 74.9231 200.664 77.0976 200.664C79.272 200.664 81.0345 202.427 81.0345 204.602Z" fill="white"/>
</g>
<mask id="mask6_2011_95533" style="mask-type:luminance" maskUnits="userSpaceOnUse" x="-34" y="-17" width="455" height="454">
<path d="M-33.0439 -16.8521H420.517V436.852H-33.0439V-16.8521Z" fill="white"/>
</mask>
<g mask="url(#mask6_2011_95533)">
<path d="M199.381 149.73C199.381 151.373 198.048 152.705 196.406 152.705C194.763 152.705 193.432 151.373 193.432 149.73C193.432 148.086 194.763 146.754 196.406 146.754C198.048 146.754 199.381 148.086 199.381 149.73Z" fill="white"/>
</g>
<mask id="mask7_2011_95533" style="mask-type:luminance" maskUnits="userSpaceOnUse" x="-34" y="-17" width="455" height="454">
<path d="M-33.0439 -16.8521H420.517V436.852H-33.0439V-16.8521Z" fill="white"/>
</mask>
<g mask="url(#mask7_2011_95533)">
<path d="M143.151 216.905C143.151 218.549 141.819 219.881 140.177 219.881C138.533 219.881 137.202 218.549 137.202 216.905C137.202 215.262 138.533 213.93 140.177 213.93C141.819 213.93 143.151 215.262 143.151 216.905Z" fill="white"/>
</g>
<mask id="mask8_2011_95533" style="mask-type:luminance" maskUnits="userSpaceOnUse" x="-34" y="-17" width="455" height="454">
<path d="M-33.0439 -16.8521H420.517V436.852H-33.0439V-16.8521Z" fill="white"/>
</mask>
<g mask="url(#mask8_2011_95533)">
<path d="M157.324 146.754C157.324 148.398 155.992 149.729 154.35 149.729C152.707 149.729 151.375 148.398 151.375 146.754C151.375 145.11 152.707 143.779 154.35 143.779C155.992 143.779 157.324 145.11 157.324 146.754Z" fill="white"/>
</g>
<mask id="mask9_2011_95533" style="mask-type:luminance" maskUnits="userSpaceOnUse" x="-34" y="-17" width="455" height="454">
<path d="M-33.0439 -16.8521H420.517V436.852H-33.0439V-16.8521Z" fill="white"/>
</mask>
<g mask="url(#mask9_2011_95533)">
<path d="M140.177 279.953C140.177 282.322 138.257 284.241 135.89 284.241C133.522 284.241 131.603 282.322 131.603 279.953C131.603 277.585 133.522 275.665 135.89 275.665C138.257 275.665 140.177 277.585 140.177 279.953Z" fill="white"/>
</g>
<mask id="mask10_2011_95533" style="mask-type:luminance" maskUnits="userSpaceOnUse" x="-34" y="-17" width="455" height="454">
<path d="M-33.0439 -16.8521H420.517V436.852H-33.0439V-16.8521Z" fill="white"/>
</mask>
<g mask="url(#mask10_2011_95533)">
<path d="M232.608 279.953C232.608 281.718 231.178 283.148 229.414 283.148C227.65 283.148 226.22 281.718 226.22 279.953C226.22 278.189 227.65 276.759 229.414 276.759C231.178 276.759 232.608 278.189 232.608 279.953Z" fill="white" stroke="white" stroke-width="0.863925" stroke-miterlimit="10"/>
</g>
<mask id="mask11_2011_95533" style="mask-type:luminance" maskUnits="userSpaceOnUse" x="-34" y="-17" width="455" height="454">
<path d="M-33.0439 -16.8521H420.517V436.852H-33.0439V-16.8521Z" fill="white"/>
</mask>
<g mask="url(#mask11_2011_95533)">
<path d="M116.275 180.515C118.753 180.356 121.217 179.976 123.631 179.371C121.217 178.765 118.753 178.385 116.275 178.226C117.213 177.017 118.039 175.718 118.699 174.327C117.309 174.987 116.011 175.814 114.802 176.752C114.643 174.274 114.263 171.808 113.657 169.393C113.052 171.807 112.673 174.271 112.514 176.749C111.306 175.809 110.008 174.985 108.616 174.327C109.273 175.718 110.097 177.017 111.035 178.224C108.559 178.381 106.095 178.76 103.684 179.371C106.095 179.98 108.559 180.359 111.035 180.517C110.097 181.724 109.273 183.022 108.616 184.413C110.007 183.756 111.305 182.932 112.512 181.993C112.669 184.471 113.048 186.935 113.658 189.347C114.267 186.934 114.646 184.469 114.804 181.99C116.012 182.929 117.31 183.754 118.699 184.413C118.039 183.024 117.213 181.724 116.275 180.515Z" fill="white"/>
</g>
<mask id="mask12_2011_95533" style="mask-type:luminance" maskUnits="userSpaceOnUse" x="-34" y="-17" width="455" height="454">
<path d="M-33.0439 -16.8521H420.517V436.852H-33.0439V-16.8521Z" fill="white"/>
</mask>
<g mask="url(#mask12_2011_95533)">
<path d="M199.023 330.645C201.501 330.486 203.965 330.106 206.379 329.501C203.965 328.895 201.501 328.515 199.023 328.356C199.961 327.147 200.787 325.848 201.447 324.457C200.057 325.118 198.759 325.944 197.55 326.882C197.391 324.404 197.011 321.938 196.405 319.524C195.801 321.937 195.421 324.401 195.262 326.879C194.055 325.939 192.756 325.115 191.364 324.457C192.021 325.849 192.845 327.147 193.783 328.354C191.307 328.511 188.843 328.891 186.432 329.501C188.843 330.11 191.307 330.489 193.783 330.647C192.845 331.854 192.021 333.152 191.364 334.543C192.755 333.887 194.053 333.062 195.26 332.124C195.417 334.601 195.796 337.065 196.406 339.477C197.015 337.064 197.394 334.599 197.552 332.12C198.76 333.059 200.058 333.884 201.447 334.543C200.787 333.154 199.961 331.854 199.023 330.645Z" fill="white"/>
</g>
<mask id="mask13_2011_95533" style="mask-type:luminance" maskUnits="userSpaceOnUse" x="-34" y="-17" width="455" height="454">
<path d="M-33.0439 -16.8521H420.517V436.852H-33.0439V-16.8521Z" fill="white"/>
</mask>
<g mask="url(#mask13_2011_95533)">
<path d="M277.851 251.676C279.203 252.865 280.661 253.934 282.209 254.862C281.282 253.314 280.213 251.855 279.024 250.503C280.125 250.364 281.214 250.121 282.265 249.747C281.214 249.373 280.125 249.13 279.024 248.992C280.213 247.639 281.282 246.181 282.209 244.633C280.662 245.559 279.204 246.628 277.853 247.817C277.715 246.716 277.473 245.627 277.096 244.577C276.719 245.627 276.477 246.715 276.339 247.815C274.989 246.626 273.531 245.557 271.982 244.633C272.907 246.182 273.975 247.639 275.164 248.99C274.064 249.128 272.977 249.37 271.926 249.747C272.977 250.124 274.064 250.367 275.164 250.504C273.975 251.855 272.907 253.313 271.982 254.862C273.532 253.938 274.99 252.868 276.341 251.678C276.479 252.779 276.722 253.868 277.096 254.918C277.47 253.867 277.713 252.777 277.851 251.676Z" fill="white"/>
</g>
<mask id="mask14_2011_95533" style="mask-type:luminance" maskUnits="userSpaceOnUse" x="-34" y="-17" width="455" height="454">
<path d="M-33.0439 -16.8521H420.517V436.852H-33.0439V-16.8521Z" fill="white"/>
</mask>
<g mask="url(#mask14_2011_95533)">
<path d="M218.221 233.346C220.017 233.231 221.804 232.955 223.554 232.516C221.804 232.077 220.017 231.802 218.221 231.687C218.901 230.81 219.499 229.868 219.978 228.86C218.97 229.339 218.029 229.938 217.153 230.618C217.037 228.821 216.761 227.033 216.323 225.283C215.884 227.032 215.609 228.819 215.494 230.616C214.618 229.935 213.677 229.337 212.668 228.86C213.144 229.868 213.741 230.81 214.422 231.685C212.627 231.799 210.841 232.075 209.092 232.516C210.841 232.958 212.627 233.234 214.422 233.348C213.741 234.222 213.144 235.164 212.668 236.173C213.676 235.697 214.617 235.099 215.492 234.419C215.606 236.214 215.881 238.001 216.323 239.75C216.765 238 217.04 236.213 217.154 234.416C218.03 235.096 218.971 235.694 219.978 236.173C219.499 235.164 218.901 234.222 218.221 233.346Z" fill="white"/>
</g>
</g>
<defs>
<clipPath id="clip0_2011_95533">
<rect width="387.47" height="420" fill="white"/>
</clipPath>
</defs>
</svg>
