<svg width="388" height="420" viewBox="0 0 388 420" fill="none" xmlns="http://www.w3.org/2000/svg">
<path d="M187.685 217.355C182.648 235.402 162.554 241.061 162.554 241.061C174.206 235.368 179.263 219.97 180.338 214.365C182.385 203.669 181.017 185.98 181.017 185.98C181.017 185.98 192.365 200.601 187.685 217.355ZM257.25 214.703C237.023 189.807 216.017 161.02 199.682 150.909C183.104 140.649 151.871 117.956 115.662 141.574C79.8747 164.912 110.993 200.696 110.993 200.696C110.993 200.696 107.881 172.693 126.554 164.912C139.094 159.686 148.429 164.355 154.631 170.328C161.101 176.564 164.773 185.149 165.375 194.115C166.3 208.024 164.115 232 140.557 242.706C106.327 258.267 76.7632 261.378 76.7632 261.378V262.189C76.7632 267.713 82.3949 271.453 87.4895 269.307L103.584 262.534C105.348 261.791 107.327 261.73 109.135 262.362L137.446 272.27L164.463 262.314C166.108 261.709 167.912 261.682 169.577 262.237L197.111 271.412C198.773 271.966 200.577 271.939 202.223 271.331L226.459 262.406C228.25 261.743 230.226 261.77 232 262.48L257.49 272.679C259.334 273.416 261.388 273.416 263.229 272.679L288.79 262.453C290.523 261.76 292.449 261.72 294.213 262.335L312.317 268.672C317.341 270.429 322.598 266.703 322.598 261.378C322.598 261.378 277.476 239.595 257.25 214.703Z" fill="white"/>
</svg>
