<svg width="388" height="420" viewBox="0 0 388 420" fill="none" xmlns="http://www.w3.org/2000/svg">
<g clip-path="url(#clip0_2011_94433)">
<mask id="mask0_2011_94433" style="mask-type:luminance" maskUnits="userSpaceOnUse" x="-34" y="-17" width="455" height="454">
<path d="M-33.0439 -16.8512H420.517V436.853H-33.0439V-16.8512Z" fill="white"/>
</mask>
<g mask="url(#mask0_2011_94433)">
<path d="M180.064 228.441C180.064 187.279 213.422 153.91 254.572 153.91C295.722 153.91 329.079 187.279 329.079 228.441C329.079 269.604 295.722 302.972 254.572 302.972C213.422 302.972 180.064 269.604 180.064 228.441Z" stroke="white" stroke-width="17.2785" stroke-miterlimit="10"/>
</g>
<mask id="mask1_2011_94433" style="mask-type:luminance" maskUnits="userSpaceOnUse" x="-34" y="-17" width="455" height="454">
<path d="M-33.0439 -16.8512H420.517V436.853H-33.0439V-16.8512Z" fill="white"/>
</mask>
<g mask="url(#mask1_2011_94433)">
<path d="M200.109 228.442C200.109 198.354 224.493 173.962 254.572 173.962C284.65 173.962 309.034 198.354 309.034 228.442C309.034 258.529 284.65 282.921 254.572 282.921C224.493 282.921 200.109 258.529 200.109 228.442Z" stroke="white" stroke-width="6.04747" stroke-miterlimit="10"/>
</g>
<mask id="mask2_2011_94433" style="mask-type:luminance" maskUnits="userSpaceOnUse" x="-34" y="-17" width="455" height="454">
<path d="M-33.0439 -16.8512H420.517V436.853H-33.0439V-16.8512Z" fill="white"/>
</mask>
<g mask="url(#mask2_2011_94433)">
<path d="M254.572 222.201L258.93 217.841V203.986H250.213V217.841L254.542 222.17" fill="white"/>
</g>
<mask id="mask3_2011_94433" style="mask-type:luminance" maskUnits="userSpaceOnUse" x="-34" y="-17" width="455" height="454">
<path d="M-33.0439 -16.8512H420.517V436.853H-33.0439V-16.8512Z" fill="white"/>
</mask>
<g mask="url(#mask3_2011_94433)">
<path d="M248.333 228.442L243.974 224.082H230.124V232.802H243.974L248.303 228.472" fill="white"/>
</g>
<mask id="mask4_2011_94433" style="mask-type:luminance" maskUnits="userSpaceOnUse" x="-34" y="-17" width="455" height="454">
<path d="M-33.0439 -16.8512H420.517V436.853H-33.0439V-16.8512Z" fill="white"/>
</mask>
<g mask="url(#mask4_2011_94433)">
<path d="M254.572 234.682L250.213 239.042V252.897H258.93V239.042L254.602 234.713" fill="white"/>
</g>
<mask id="mask5_2011_94433" style="mask-type:luminance" maskUnits="userSpaceOnUse" x="-34" y="-17" width="455" height="454">
<path d="M-33.0439 -16.8512H420.517V436.853H-33.0439V-16.8512Z" fill="white"/>
</mask>
<g mask="url(#mask5_2011_94433)">
<path d="M260.811 228.442L265.169 232.802H279.019V224.082H265.169L260.841 228.411" fill="white"/>
</g>
<mask id="mask6_2011_94433" style="mask-type:luminance" maskUnits="userSpaceOnUse" x="-34" y="-17" width="455" height="454">
<path d="M-33.0439 -16.8512H420.517V436.853H-33.0439V-16.8512Z" fill="white"/>
</mask>
<g mask="url(#mask6_2011_94433)">
<path d="M54.6035 214.777C54.6035 188.148 76.1835 166.563 102.803 166.563C129.423 166.563 151.002 188.148 151.002 214.777C151.002 241.406 129.423 262.991 102.803 262.991C76.1835 262.991 54.6035 241.406 54.6035 214.777Z" stroke="white" stroke-width="9.50317" stroke-miterlimit="10"/>
</g>
<mask id="mask7_2011_94433" style="mask-type:luminance" maskUnits="userSpaceOnUse" x="-34" y="-17" width="455" height="454">
<path d="M-33.0439 -16.8512H420.517V436.853H-33.0439V-16.8512Z" fill="white"/>
</mask>
<g mask="url(#mask7_2011_94433)">
<path d="M67.5708 214.777C67.5708 195.313 83.3443 179.535 102.803 179.535C122.261 179.535 138.035 195.313 138.035 214.777C138.035 234.242 122.261 250.02 102.803 250.02C83.3443 250.02 67.5708 234.242 67.5708 214.777Z" stroke="white" stroke-width="3.4557" stroke-miterlimit="10"/>
</g>
<mask id="mask8_2011_94433" style="mask-type:luminance" maskUnits="userSpaceOnUse" x="-34" y="-17" width="455" height="454">
<path d="M-33.0439 -16.8512H420.517V436.853H-33.0439V-16.8512Z" fill="white"/>
</mask>
<g mask="url(#mask8_2011_94433)">
<path d="M102.803 210.861L105.538 208.125V199.429H100.068V208.125L102.784 210.842" fill="white"/>
</g>
<mask id="mask9_2011_94433" style="mask-type:luminance" maskUnits="userSpaceOnUse" x="-34" y="-17" width="455" height="454">
<path d="M-33.0439 -16.8512H420.517V436.853H-33.0439V-16.8512Z" fill="white"/>
</mask>
<g mask="url(#mask9_2011_94433)">
<path d="M98.887 214.777L96.1518 212.041H87.459V217.513H96.1518L98.868 214.796" fill="white"/>
</g>
<mask id="mask10_2011_94433" style="mask-type:luminance" maskUnits="userSpaceOnUse" x="-34" y="-17" width="455" height="454">
<path d="M-33.0439 -16.8512H420.517V436.853H-33.0439V-16.8512Z" fill="white"/>
</mask>
<g mask="url(#mask10_2011_94433)">
<path d="M102.803 218.694L100.068 221.43V230.126H105.538V221.43L102.822 218.713" fill="white"/>
</g>
<mask id="mask11_2011_94433" style="mask-type:luminance" maskUnits="userSpaceOnUse" x="-34" y="-17" width="455" height="454">
<path d="M-33.0439 -16.8512H420.517V436.853H-33.0439V-16.8512Z" fill="white"/>
</mask>
<g mask="url(#mask11_2011_94433)">
<path d="M106.718 214.777L109.453 217.513H118.146V212.041H109.453L106.737 214.758" fill="white"/>
</g>
<mask id="mask12_2011_94433" style="mask-type:luminance" maskUnits="userSpaceOnUse" x="-34" y="-17" width="455" height="454">
<path d="M-33.0439 -16.8512H420.517V436.853H-33.0439V-16.8512Z" fill="white"/>
</mask>
<g mask="url(#mask12_2011_94433)">
<path d="M122.31 131.412C122.31 115.948 134.843 103.412 150.302 103.412C165.762 103.412 178.295 115.948 178.295 131.412C178.295 146.877 165.762 159.413 150.302 159.413C134.843 159.413 122.31 146.877 122.31 131.412Z" stroke="white" stroke-width="6.04747" stroke-miterlimit="10"/>
</g>
<mask id="mask13_2011_94433" style="mask-type:luminance" maskUnits="userSpaceOnUse" x="-34" y="-17" width="455" height="454">
<path d="M-33.0439 -16.8512H420.517V436.853H-33.0439V-16.8512Z" fill="white"/>
</mask>
<g mask="url(#mask13_2011_94433)">
<path d="M129.841 131.412C129.841 120.109 139.002 110.945 150.303 110.945C161.604 110.945 170.764 120.109 170.764 131.412C170.764 142.716 161.604 151.88 150.303 151.88C139.002 151.88 129.841 142.716 129.841 131.412Z" stroke="white" stroke-width="2.59177" stroke-miterlimit="10"/>
</g>
<mask id="mask14_2011_94433" style="mask-type:luminance" maskUnits="userSpaceOnUse" x="-34" y="-17" width="455" height="454">
<path d="M-33.0439 -16.8512H420.517V436.853H-33.0439V-16.8512Z" fill="white"/>
</mask>
<g mask="url(#mask14_2011_94433)">
<path d="M150.302 128.747L152.163 126.886V120.969H148.441V126.886L150.289 128.734" fill="white"/>
</g>
<mask id="mask15_2011_94433" style="mask-type:luminance" maskUnits="userSpaceOnUse" x="-34" y="-17" width="455" height="454">
<path d="M-33.0439 -16.8512H420.517V436.853H-33.0439V-16.8512Z" fill="white"/>
</mask>
<g mask="url(#mask15_2011_94433)">
<path d="M147.638 131.412L145.777 129.551H139.862V133.274H145.777L147.625 131.425" fill="white"/>
</g>
<mask id="mask16_2011_94433" style="mask-type:luminance" maskUnits="userSpaceOnUse" x="-34" y="-17" width="455" height="454">
<path d="M-33.0439 -16.8512H420.517V436.853H-33.0439V-16.8512Z" fill="white"/>
</mask>
<g mask="url(#mask16_2011_94433)">
<path d="M150.302 134.078L148.441 135.939V141.856H152.163V135.939L150.315 134.091" fill="white"/>
</g>
<mask id="mask17_2011_94433" style="mask-type:luminance" maskUnits="userSpaceOnUse" x="-34" y="-17" width="454" height="454">
<path d="M-33.5649 -16.8648H419.996V436.839H-33.5649V-16.8648Z" fill="white"/>
</mask>
<g mask="url(#mask17_2011_94433)">
<path d="M152.966 131.412L154.827 133.273H160.742V129.55H154.827L152.979 131.399" fill="white"/>
</g>
</g>
<defs>
<clipPath id="clip0_2011_94433">
<rect width="387.47" height="420" fill="white"/>
</clipPath>
</defs>
</svg>
