<svg width="388" height="420" viewBox="0 0 388 420" fill="none" xmlns="http://www.w3.org/2000/svg">
<path d="M256.719 145.892L245.912 156.696C262.503 172.014 272.912 193.933 272.912 218.247C272.912 264.439 235.317 302.034 189.125 302.034C164.814 302.034 142.892 291.625 127.574 275.034L116.77 285.841C134.841 305.176 160.567 317.267 189.125 317.267C243.814 317.267 288.145 272.933 288.145 218.247C288.145 189.689 276.054 163.963 256.719 145.892Z" fill="white"/>
<path d="M189.125 233.48C197.544 233.48 204.358 226.666 204.358 218.247L200.723 201.885L176.236 226.372C178.936 230.642 183.692 233.48 189.125 233.48Z" fill="white"/>
<path d="M172.071 124.105V130.821C175.871 130.277 179.716 129.895 183.648 129.895C187.584 129.895 191.429 130.277 195.226 130.821V124.105C198.429 124.105 201.017 121.517 201.017 118.318V106.74C201.017 103.537 198.429 100.949 195.226 100.949H172.071C168.871 100.949 166.283 103.537 166.283 106.74V118.318C166.283 121.517 168.871 124.105 172.071 124.105Z" fill="white"/>
<path d="M239.99 136.52C241.584 133.74 240.635 130.21 237.865 128.605L227.848 122.818C225.064 121.21 221.527 122.159 219.932 124.943L213.703 135.73C220.959 138.645 227.689 142.581 233.736 147.351L239.99 136.52Z" fill="white"/>
<path d="M133.561 147.352C139.621 142.581 146.338 138.646 153.598 135.73L147.368 124.943C145.773 122.162 142.223 121.21 139.463 122.818L129.422 128.605C126.665 130.21 125.716 133.737 127.311 136.521L133.561 147.352Z" fill="white"/>
<path d="M119.973 210.939C119.973 175.821 148.53 147.26 183.648 147.26C200.287 147.26 215.452 153.679 226.807 164.162L235.02 155.95C221.571 143.382 203.51 135.683 183.648 135.683C142.088 135.683 108.395 169.375 108.395 210.939C108.395 230.801 116.091 248.862 128.662 262.311L136.875 254.098C126.388 242.74 119.973 227.575 119.973 210.939Z" fill="white"/>
<path d="M183.648 158.838L172.071 210.939C172.071 213.213 172.726 215.328 173.854 217.115L192.466 198.507L183.648 158.838Z" fill="white"/>
</svg>
