<svg width="388" height="420" viewBox="0 0 388 420" fill="none" xmlns="http://www.w3.org/2000/svg">
<g clip-path="url(#clip0_2011_36308)">
<mask id="mask0_2011_36308" style="mask-type:luminance" maskUnits="userSpaceOnUse" x="-34" y="-17" width="455" height="454">
<path d="M-33.057 -16.8521H420.647V436.852H-33.057V-16.8521Z" fill="white"/>
</mask>
<g mask="url(#mask0_2011_36308)">
<path d="M219.793 196C217.162 196.036 215.005 193.507 215.005 190.353C215.005 187.198 217.162 184.67 219.793 184.705C222.391 184.74 224.474 187.268 224.474 190.353C224.474 193.437 222.391 195.966 219.793 196ZM227.451 116.113L142.831 100.983C141.441 100.735 140.298 101.68 140.298 103.086V277.619C140.298 279.026 141.441 279.971 142.831 279.723L227.451 264.593C228.405 264.421 229.181 263.336 229.181 262.179V118.526C229.181 117.37 228.405 116.283 227.451 116.113Z" fill="white"/>
</g>
<mask id="mask1_2011_36308" style="mask-type:luminance" maskUnits="userSpaceOnUse" x="-34" y="-17" width="455" height="454">
<path d="M-33.057 -16.8521H420.647V436.852H-33.057V-16.8521Z" fill="white"/>
</mask>
<g mask="url(#mask1_2011_36308)">
<path d="M135.94 279.862V100.581C135.94 98.4 137.725 96.6163 139.905 96.6163H247.686C249.867 96.6163 251.65 98.4 251.65 100.581V279.862C251.65 280.63 252.274 281.253 253.042 281.253H256.105C256.873 281.253 257.495 280.63 257.495 279.862V100.581C257.495 95.1636 253.103 90.7717 247.686 90.7717H139.905C134.488 90.7717 130.096 95.1636 130.096 100.581V279.862C130.096 280.63 130.719 281.253 131.487 281.253H134.549C135.317 281.253 135.94 280.63 135.94 279.862Z" fill="white"/>
</g>
<mask id="mask2_2011_36308" style="mask-type:luminance" maskUnits="userSpaceOnUse" x="-34" y="-17" width="455" height="454">
<path d="M-33.057 -16.8521H420.647V436.852H-33.057V-16.8521Z" fill="white"/>
</mask>
<g mask="url(#mask2_2011_36308)">
<path d="M213.769 299.099C213.067 299.099 212.444 298.811 212.378 298.459C212.312 298.109 212.82 297.827 213.513 297.827C214.206 297.827 214.827 298.109 214.902 298.459C214.977 298.811 214.471 299.099 213.769 299.099ZM193.796 299.97C192.614 299.97 191.666 299.483 191.679 298.887C191.692 298.299 192.639 297.827 193.796 297.827C194.953 297.827 195.9 298.299 195.913 298.887C195.926 299.483 194.978 299.97 193.796 299.97ZM172.212 299.099C171.511 299.099 171.008 298.811 171.089 298.459C171.17 298.109 171.797 297.827 172.489 297.827C173.181 297.827 173.685 298.109 173.613 298.459C173.541 298.811 172.913 299.099 172.212 299.099ZM228.559 296.226C228.063 294.854 228.458 293.612 229.511 292.608L227.647 292.79C216.679 293.865 205.304 294.411 193.796 294.411C182.288 294.411 170.914 293.865 159.944 292.79L158.081 292.608C159.134 293.612 159.529 294.854 159.033 296.226C158.174 298.603 154.863 300.801 150.477 302.141L152.246 302.31C179.461 304.908 208.13 304.908 235.346 302.31L237.115 302.141C232.729 300.801 229.417 298.603 228.559 296.226Z" fill="white"/>
</g>
<mask id="mask3_2011_36308" style="mask-type:luminance" maskUnits="userSpaceOnUse" x="-34" y="-17" width="455" height="454">
<path d="M-33.057 -16.8521H420.647V436.852H-33.057V-16.8521Z" fill="white"/>
</mask>
<g mask="url(#mask3_2011_36308)">
<path d="M147.726 291.615C142.563 291.615 137.143 293.627 135.571 296.226C133.909 298.973 137.131 301.326 142.842 301.326C148.553 301.326 154.142 298.973 155.243 296.226C156.284 293.627 152.89 291.615 147.726 291.615Z" fill="white"/>
</g>
<mask id="mask4_2011_36308" style="mask-type:luminance" maskUnits="userSpaceOnUse" x="-34" y="-17" width="455" height="454">
<path d="M-33.057 -16.8521H420.647V436.852H-33.057V-16.8521Z" fill="white"/>
</mask>
<g mask="url(#mask4_2011_36308)">
<path d="M248.302 303.312L248.307 303.318L236.917 304.429C222.985 305.789 208.486 306.483 193.795 306.483C179.105 306.483 164.605 305.789 150.673 304.429L139.283 303.318L139.288 303.312C132.817 302.674 129.581 299.643 131.783 296.226C134.079 292.663 141.539 289.954 148.561 289.954C150.028 289.954 151.374 290.075 152.592 290.287L161.254 291.119C182.602 293.17 204.991 293.17 226.336 291.119L234.998 290.287C236.216 290.075 237.562 289.954 239.029 289.954C246.051 289.954 253.511 292.663 255.807 296.226C258.009 299.643 254.772 302.674 248.302 303.312ZM255.843 284.682H131.747C130.896 284.682 129.981 284.982 129.701 285.354L109.124 312.754C108.629 313.412 109.153 313.951 110.298 313.951H277.292C278.437 313.951 278.961 313.412 278.467 312.754L257.889 285.354C257.609 284.982 256.694 284.682 255.843 284.682Z" fill="white"/>
</g>
<mask id="mask5_2011_36308" style="mask-type:luminance" maskUnits="userSpaceOnUse" x="-34" y="-17" width="455" height="454">
<path d="M-33.057 -16.8521H420.647V436.852H-33.057V-16.8521Z" fill="white"/>
</mask>
<g mask="url(#mask5_2011_36308)">
<path d="M239.864 291.615C234.701 291.615 231.306 293.627 232.347 296.226C233.448 298.973 239.037 301.326 244.749 301.326C250.459 301.326 253.682 298.973 252.019 296.226C250.446 293.627 245.028 291.615 239.864 291.615Z" fill="white"/>
</g>
</g>
<defs>
<clipPath id="clip0_2011_36308">
<rect width="387.593" height="420" fill="white"/>
</clipPath>
</defs>
</svg>
