<svg width="388" height="420" viewBox="0 0 388 420" fill="none" xmlns="http://www.w3.org/2000/svg">
<path d="M216.897 300.316C207.521 279.992 208.311 273.411 204.111 252.766C202.444 244.573 207.815 213.868 213.875 214.182C215.664 214.054 221.592 216.946 232.778 224.27C243.433 226.593 255.937 230.393 268.062 232.463C251.519 224.648 241.413 221.007 230.744 207.965C240.769 201.492 246.511 198.248 256.993 193.208C273.413 191.764 282.987 197.084 302.49 204.592C294.213 201.062 290.1 198.331 283.817 192.02C292.7 185.12 298.238 181.831 308.693 176.547C297.992 179.663 291.987 181.405 276.942 180.381L263.475 179.683L214.051 194.528L225.18 163.279C241.05 159.324 250.115 157.34 267.513 155.481C260.935 153.29 248.006 154.619 240.498 152.146C243.888 150.249 244.517 149.574 246.043 148.243C240.752 150.071 236.292 150.668 227.368 151.466L243.657 123.622L253.264 112.515C262.236 109.527 267.336 108.426 276.571 107.599C268.794 105.69 264.359 104.944 255.993 105.565C259.353 102.568 260.411 100.676 262.226 97.4268L262.357 97.1917C257.098 101.373 253.6 102.943 246.903 105.094L218.877 141.356C213.338 134.631 210.354 130.37 205.854 119.406C210.163 119.662 213.076 121.659 218.18 124.88C205.499 115.366 193.506 107.767 185.989 94.5231C193.791 112.464 204 131.298 205.676 154.854C198.328 151.945 194.35 143.557 194.15 136.528C191.367 150.522 190.053 149.352 203.256 161.176L193.914 186.479L178.97 150.892C176.721 135 173.045 117.496 174.775 99.4217C173.076 110.872 170.696 117.338 166.957 128.994C149.419 115.553 140.033 108.916 120.339 91.1206C140.89 113.095 145.493 122.081 159.397 140.852L168.215 158.715L172.22 200.217C159.266 189.788 147.796 186.283 146.721 169.24C146.04 170.651 141.075 175.135 139.462 170.798C131.171 159.835 125.834 153.719 119.324 126.169C119.442 146.109 120.37 152.241 123.273 162.867C107.302 161.426 103.216 162.279 93.3777 162.93C109.701 166.806 118.604 170.196 132.619 185.271C137.217 190.129 139.585 193.086 142.634 199.651C133.167 207.544 126.962 211.549 97.0444 209.859C104.986 221.704 122.044 219.944 135.595 217.531C141.925 216.403 147.514 214.964 154.278 212.826C166.864 218.712 170.276 208.977 176.02 223.012C177.136 250.111 170.026 276.56 170.209 303.845L170.964 305.818L159.39 307.043C159.076 307.079 158.758 307.1 158.445 307.1H135.826C128.398 307.1 123.363 316.421 128.509 320.639C129.235 321.238 130.116 321.651 131.092 321.865L164.845 329.219C165.347 329.326 165.867 329.383 166.399 329.383H221.237C222.199 329.383 223.199 329.205 224.17 328.855L261.796 315.352C269.119 312.722 270.666 303.217 264.088 301.243L250.027 297.024C249.094 296.746 248.076 296.668 247.03 296.789L216.897 300.316Z" fill="white"/>
</svg>
