<svg width="388" height="420" viewBox="0 0 388 420" fill="none" xmlns="http://www.w3.org/2000/svg">
<path d="M154.065 117.469H154.183V117.746H154.342L154.46 117.865V118.023H154.619L154.74 118.145V118.304H155.054V118.463H155.335V118.581H155.612V118.74H156.051V118.858H156.446V119.02H156.727V119.138H156.885V119.297H157.162V119.415H157.321V119.574H157.598V119.733L157.717 119.851H157.997V120.01H158.156V120.132H158.433V120.29H158.592V120.409H158.869V120.567H159.149V120.726L159.267 120.848H159.585V121.003L159.703 121.125H159.983V121.284H160.142V121.402H160.419V121.561H160.578V121.679H160.855V121.838H161.135V122H161.412V122.118H161.852V122.277H162.406V122.395H162.963V122.554H163.679V122.672H164.233V122.834H164.669V122.99H165.068V123.111H165.227V123.27H165.504V123.388H165.784V123.547H165.943L166.061 123.665V123.824H166.379L166.497 123.946V124.105H166.777V124.263H166.936V124.382H167.213V124.54H167.49V124.659H167.771V124.821H167.929V124.939H168.206V125.098H168.483V125.216H168.764V125.375H169.041V125.534H169.598V125.652H170.47V125.811H171.467V125.932H172.021V126.091H172.578V126.209H173.173V126.368H173.571V126.527H173.848V126.648H174.129V126.804H174.284V126.926H174.565V127.084H174.723L174.842 127.203V127.361H175V127.48H175.281V127.638H175.399V127.801H175.558V127.919H175.717V128.078L175.835 128.196H175.994V128.355H176.987V128.473H177.544V128.632H177.821V128.79H178.098V128.912H178.379V129.071H178.656V129.189H178.973V129.348H179.25V129.466H179.649V129.625H180.244V129.746H183.622V129.625H184.179V129.466H184.456V129.348H184.774V129.189L184.892 129.071H185.173V128.912H185.331L185.45 128.79V128.632H185.608V128.473H185.767V128.196L185.885 128.078H186.044V127.801H186.166V127.638H186.325V127.361H186.443V127.084H186.602V126.648H186.72V126.368H186.882V126.091H187.037V125.811H187.159V125.534H187.318V125.216L187.436 125.098H187.595V124.939L187.713 124.821H187.872V124.54H187.994V124.382H188.152V124.263H188.311V124.105H188.429V123.946H188.588L188.706 123.824V123.665H188.865L188.987 123.547V123.388H189.146V123.27H189.304V122.99H189.423V122.834H189.581V122.554H189.7V122.277H189.858V122.118H189.98V121.838H190.139V121.561H190.257V121.284H190.416V121.125H190.575V120.848H190.693V120.567H190.852V120.409H190.973V120.132H191.132L191.25 120.01V119.733H191.409V119.574H191.568V119.415H191.686V119.138H191.845L191.967 119.02V118.858H192.125V118.581L192.244 118.463H192.402V118.304H192.521V118.023H192.679V117.865H192.838L192.96 117.746V117.469H193.119V117.311H193.237V117.034H193.396V116.753H193.514V116.594H193.673V116.317H193.831V116.037H193.953V115.76H194.112V115.601H194.23V115.324H194.389V115.047H194.507V114.885H194.666V114.608L194.787 114.49H194.946V114.209H195.105V113.932H195.223V113.615H195.382V113.338H195.5V112.939H195.659V112.662H195.781V112.344H195.94V112.067H196.098V111.787H196.217V111.51H196.375V111.233H196.494V111.071H196.652V110.794L196.774 110.676H196.933V110.398H197.051V110.236H197.21V110.081H197.369L197.487 109.959V109.682H197.646V109.523L197.767 109.405H197.926V109.246H198.044V109.084H198.203L198.321 108.966V108.807H198.48V108.53H198.639L198.76 108.409V108.132H198.919V107.814H199.037V107.537H199.196V107.26H199.315V106.98H199.473V106.703H199.632V106.422H199.754V106.145H199.912V105.868H200.031V105.551H200.19V105.152H200.308V104.716H200.467V104.28H200.588V103.723H200.747V103.446H200.906V103.165H201.024V102.888H201.183V102.611H201.301V102.294H201.46L201.581 102.172V101.895H201.74V101.736H201.899V101.459H202.017V101.179H202.176V100.743H202.294V99.6316H202.176V99.3512H202.017V99.0742H201.899V98.9154H201.74V98.7566H201.581V98.6383H201.301V98.4796L201.183 98.3579H200.906V98.1992H200.747V98.0809H200.467V97.9221H200.308L200.19 97.8039V97.6451H200.031V97.4829L199.912 97.3647H199.754V97.2059L199.632 97.0877H199.473V96.9289H199.315L199.196 96.8106V96.6519H199.037V96.4931L198.919 96.3715H198.76V96.2127L198.639 96.0944H198.48V95.9356H198.321V95.8174H198.044V95.6586L197.926 95.537H197.767V95.3782H197.646V95.2194H197.487V95.1012H197.21V94.9424H197.051L196.933 94.8208V94.6654H196.652V94.5437H196.494V94.385H196.217V94.2262L196.098 94.1079H195.94V93.9492H195.781V93.6687L195.659 93.5505H195.5V93.3917H195.382V93.1147H195.223V92.9559L195.105 92.8377H194.946V92.5573H194.787V92.3985L194.666 92.2802H194.507V92.1215H194.23V91.9627L194.112 91.8444H193.953V91.6823H193.673V91.564H193.396V91.4052H193.119V91.287H192.838V91.1282H192.521V91.01H192.125V90.8512H191.845V90.6924H191.568V90.5708H191.409V90.412H191.132V90.2937H190.852V90.135H190.693L190.575 90.0167V89.8579H190.257L190.139 89.7363V89.5775H189.858V89.4188H189.581V89.3005H189.423V89.1417H189.146V89.0235H188.865V88.8647H188.706V88.7431H188.429V88.5843H188.311V88.4255H187.994V88.3073H187.713V88.1485L187.595 88.0302H187.318V87.8681H187.037V87.7498H186.72V87.591L186.602 87.4728H186.325V87.314H186.166V87.1552H185.885L185.767 87.037V86.8782H185.45L185.331 86.7566V86.5978H185.051V86.4796H184.774V86.3208H184.338V86.162H183.781V86.0437H183.345V85.885H182.906V85.7633H182.51V85.6046H182.193L182.071 85.4863V85.3275H181.912V85.2093H181.635V85.0505H181.517V84.8917H181.358L181.237 84.7701V84.6113H181.081V84.4931H180.919V84.3343H180.642L180.524 84.216V84.0573H180.085V83.8985H179.25V83.7769H177.662V83.8985H176.828V84.0573H176.392V84.216H176.112V84.3343H175.835V84.4931L175.717 84.6113H175.558V84.7701H175.281V84.8917H175.119V85.0505H175V85.2093H174.842L174.723 85.3275V85.4863H174.443V85.6046H174.284V85.7633H174.129L174.007 85.885V86.0437H173.73V86.162H173.571V86.3208H173.453V86.4796H173.173V86.5978H173.014V86.7566H172.855L172.737 86.8782V87.037H172.578L172.456 87.1552V87.314H172.298V87.4728L172.179 87.591H172.021V87.7498H171.862L171.744 87.8681V88.1485H171.585V88.3073H171.467V88.5843H171.304V88.7431H171.186V89.0235H171.027V89.3005L170.909 89.4188H170.75V89.7363H170.592V90.0167H170.47V90.2937H170.315V90.5708H170.193V90.8512H170.034V91.1282H169.916V91.287H169.757V91.564H169.598L169.48 91.6823V91.8444H169.318L169.2 91.9627V92.1215H169.041V92.2802H168.923V92.5573H168.764L168.642 92.6789V92.8377H168.483V92.9559H168.328V93.2735L168.206 93.3917H168.048V93.6687H167.929V93.8309H167.771L167.652 93.9492V94.2262H167.49V94.385H167.331V94.5437L167.213 94.6654H167.054V94.8208L166.936 94.9424H166.777V95.1012L166.656 95.2194H166.497V95.3782H166.379V95.6586H166.22V95.8174H166.061L165.943 95.9356V96.0944H165.784L165.666 96.2127V96.4931H165.504V96.8106H165.385V97.0877H165.227V97.3647H165.068V97.6451H164.95V98.0809H164.791L164.669 98.1992V98.4796H164.514V98.6383H164.392V98.9154H164.233V99.0742L164.115 99.1924H163.956V99.3512H163.798L163.679 99.4694V99.7498H163.517V99.9086H163.399V100.186H163.24V100.466H163.122V100.743H162.963V101.02H162.842V101.338H162.683V101.736H162.527V102.013H162.406V102.294H162.247V102.453H162.129V102.73H161.97V102.888H161.852V103.165H161.693V103.284H161.531V103.605L161.412 103.723H161.254V104.159H161.135V104.557H160.977V105.152H160.855V105.868H160.7V106.267H160.578V106.544H160.419V106.821H160.26V107.138H160.142V107.419H159.983V107.696H159.865V107.973H159.703V108.25H159.585V108.53H159.426V108.807H159.267V108.966L159.149 109.084H158.99V109.405L158.869 109.523H158.713V109.682H158.433L158.315 109.801V109.959H158.156V110.081H157.879V110.236H157.717V110.398H157.44L157.321 110.517V110.676H157.004L156.885 110.794V110.953H156.727L156.605 111.071V111.233H156.446V111.51H156.328V111.669H156.169V111.946L156.051 112.067H155.892V112.344H155.73V112.503H155.612V112.78H155.453V112.939L155.335 113.057H155.176V113.219L155.054 113.338H154.899V113.615H154.74V113.773H154.619V113.932H154.46V114.209H154.342V114.49H154.183V114.767H154.065V115.206H153.902V117.034H154.065V117.469Z" fill="white"/>
<path d="M282.271 172.774V172.058H282.112V171.662H281.953V171.223H281.835V170.946H281.676V170.787H281.558V170.51H281.396L281.277 170.389V170.23H281.119L281 170.112V169.953H280.842V169.794H280.683L280.565 169.676V169.514H280.406L280.284 169.396V169.237H280.007V169.118H279.848V168.96H279.69L279.571 168.841V168.679H279.409V168.524L279.291 168.402H279.132V168.243H279.014V167.966H278.855L278.737 167.848V167.689H278.578V167.409H278.419V167.25L278.298 167.132H278.139V166.973H278.021V166.696H277.862L277.744 166.575V166.416H277.585V166.257L277.463 166.139H277.304V165.98H277.146L277.027 165.862V165.703H276.869L276.75 165.581V165.423H276.592V165.264L276.47 165.146H276.311V164.987H276.152L276.034 164.865V164.71H275.875L275.757 164.588V164.429H275.595L275.477 164.311V164.152H275.318V163.993L275.2 163.875H275.041V163.713H274.882L274.764 163.595V163.436H274.605L274.484 163.318V163.159H274.325V163L274.206 162.879H274.048V162.723H273.889L273.771 162.602V162.325H273.612V162.166L273.49 162.048H273.331V161.727L273.213 161.608H273.054V161.331H272.936V161.173H272.777V160.896H272.619V160.737L272.497 160.615H272.338V160.338H272.22V160.179H272.061L271.943 160.061V159.902H271.784V159.781H271.625V159.622H271.504V159.463H271.345L271.227 159.345V159.186H271.068V158.909H270.95V158.629H270.791L270.669 158.51V158.193H270.511V158.075H270.352V157.794H270.234V157.517H270.075V157.358H269.956V157.2H269.798V156.923L269.676 156.801H269.517V156.642H269.359V156.365L269.24 156.247H269.081V156.088H268.963V155.926H268.804L268.683 155.808V155.649H268.406V155.531H268.247V155.372H268.088V155.254H267.811V155.095H267.69V154.936H267.413V154.814H267.254V154.656H267.095V154.537H266.818V154.379H266.538V154.26H266.261V154.102H264.869V154.26H264.551L264.433 154.379V154.537H264.156V154.656H263.997V154.814L263.875 154.936H263.717V155.095H263.558V155.254L263.44 155.372H263.281V155.531L263.163 155.649H263.004V155.808L262.882 155.926H262.723V156.088H262.605V156.247H262.446V156.524H262.288L262.169 156.642V156.923H262.011V157.2H261.889V157.517H261.73V157.794H261.612V158.075H261.453V158.193H261.294V158.51L261.176 158.629H261.017V158.909H260.896V159.064H260.737L260.619 159.186V159.345H260.46L260.342 159.463V159.622H260.183V159.781H260.024L259.902 159.902V160.061H259.744L259.625 160.179V160.338H259.467L259.348 160.456V160.615H259.19V160.737H259.031V161.054L258.909 161.173H258.75V161.331L258.632 161.45H258.473V161.727H258.355V161.889H258.196V162.166H258.075V162.325H257.916V162.443H257.757V162.723H257.639V162.879H257.48L257.362 163V163.159H257.203V163.318L257.081 163.436H256.923V163.595H256.764L256.646 163.713V163.875H256.487L256.369 163.993V164.152H256.21V164.311L256.088 164.429H255.929V164.588H255.811V164.865H255.652V164.987H255.494V165.146L255.375 165.264H255.217V165.581L255.098 165.703H254.936V165.98H254.818V166.257H254.659V166.575H254.541V166.855H254.382V167.132H254.223L254.102 167.25V167.527H253.943V167.689H253.825V167.848H253.666L253.548 167.966V168.125H253.389V168.243H253.23V168.524H253.109V168.679H252.95V168.841L252.831 168.96H252.673V169.118L252.554 169.237H252.396V169.396L252.274 169.514H252.115V169.676H251.956L251.838 169.794V169.953H251.679V170.112L251.561 170.23H251.402V170.389L251.284 170.51H251.122V170.666H250.963L250.845 170.787V170.946H250.686L250.568 171.064V171.223H250.409V171.382L250.288 171.504H250.129V171.662L250.011 171.781H249.852V171.939H249.693V172.216H249.575V172.375H249.416L249.298 172.493V172.656H249.136L249.017 172.774V172.933H248.859V173.051H248.7V173.21L248.581 173.328H248.423V173.49H248.301V173.649H248.142L248.024 173.767V173.926H247.865V174.203L247.747 174.325H247.588V174.48H247.429V174.642H247.308V174.919H247.149L247.031 175.037V175.196H246.872L246.754 175.314V175.477H246.595V175.595H246.436V175.754H246.315V175.912H246.156L246.038 176.031V176.189H245.761V176.308H245.602V176.466L245.484 176.588H245.321V176.747H245.044V176.906H244.886L244.767 177.024V177.304H244.609V177.463H244.487V177.74H244.331V178.017H244.169V178.294H244.051V178.733H243.892V179.169H243.774V179.45H243.615V179.727L243.497 179.845H243.335V180.122H243.217V180.281H243.058V180.443H242.899L242.781 180.561V180.72H242.622L242.5 180.838V180.997H242.345L242.223 181.115V181.277H242.065V181.433L241.946 181.554H241.788V181.713H241.629L241.507 181.831V181.99H241.348V182.267L241.23 182.389H241.071V182.548H240.953V182.706H240.794V182.983H240.636L240.514 183.105V183.382H240.355V183.541L240.237 183.659H240.078V183.977L239.96 184.095H239.801V184.254L239.683 184.375H239.521V184.534H239.362L239.244 184.652V184.811H239.085V184.97L238.967 185.091H238.808V185.247L238.686 185.368H238.531V185.527H238.369L238.25 185.646V185.804H238.092L237.973 185.923V186.081H237.815V186.362H237.696V186.521H237.534V186.798L237.416 186.916H237.257V187.233H237.098V187.514H236.98V187.791H236.821V188.068H236.7V188.348H236.544V188.625H236.423V188.784H236.264V188.902H236.105V189.183H235.987V189.341H235.828V189.5L235.706 189.618H235.548V189.777L235.429 189.896H235.271V190.054L235.152 190.176H234.994V190.335H234.835L234.717 190.453V190.612H234.436V190.771H234.277L234.159 190.892V191.048H234V191.169H233.842V191.328L233.72 191.446H233.561V191.605H233.443V191.764H233.284V192.044H233.166V192.321H233.007L232.886 192.439V192.716H232.73V192.875H232.568V193.156H232.45V193.314H232.291L232.173 193.433V193.71H232.014V193.868L231.896 193.99H231.734V194.308L231.615 194.426H231.456V194.703H231.298V194.862H231.179V195.142H231.021V195.301L230.902 195.419H230.744V195.578L230.622 195.696H230.463V195.855H230.304V195.977H230.027V196.135L229.909 196.254H229.629V196.412H229.47V196.571L229.352 196.693H229.193V196.848H229.034L228.916 196.97V197.129H228.757L228.636 197.247V197.564H228.477V197.845H228.359V198.517H228.2V199.115H228.359V199.669H228.477V200.108H228.636L228.757 200.227V200.504H228.916V200.662H229.034V200.943H229.193V201.102H229.352L229.47 201.22V201.379H229.629L229.747 201.497V201.656H229.909L230.027 201.777V201.936H230.186V202.095L230.304 202.213H230.463V202.372H230.622L230.744 202.49V202.649H230.902L231.021 202.771V202.929H231.179L231.298 203.048V203.206H231.456V203.365H231.615L231.734 203.483V203.646H231.896L232.014 203.764V203.923H232.173L232.291 204.041V204.2H232.45V204.358L232.568 204.477H232.73V204.635H232.886L233.007 204.757V204.916H233.166L233.284 205.034V205.193H233.443L233.561 205.311V205.47H233.72V205.629L233.842 205.75H234V205.909H234.159L234.277 206.027V206.186H234.436L234.558 206.304V206.463H234.717L234.835 206.585V206.743H234.994V206.902H235.152L235.271 207.021V207.179H235.429L235.548 207.298V207.456H235.706L235.828 207.578V207.737H235.987V207.896L236.105 208.014H236.264V208.173H236.423L236.544 208.291V208.45H236.7L236.821 208.571V208.73H236.98L237.098 208.848V209.007H237.257V209.166H237.416L237.534 209.284V209.443H237.696L237.815 209.564V209.723H237.973L238.092 209.841V210H238.25V210.159L238.369 210.277H238.531V210.436H238.686L238.808 210.558V210.716H238.967L239.085 210.835V210.993H239.244L239.362 211.112V211.271H239.521V211.429H239.683V211.551H239.96V211.71L240.078 211.828H240.237V211.987H240.514V212.105H240.794V212.264H241.23V212.423H241.629V212.544H242.065V212.703H243.892V212.544H244.169V212.423H244.487V212.264H244.609V212.105H244.886V211.987H245.044V211.828L245.163 211.71H245.321V211.551H245.484L245.602 211.429V211.271H245.761V211.112L245.879 210.993H246.038V210.835L246.156 210.716H246.315V210.558L246.436 210.436H246.595V210.277H246.754V210.159H247.031V210H247.149V209.841H247.308L247.429 209.723V209.564H247.747L247.865 209.443V209.284H248.024V209.166H248.301V209.007H248.423V208.848H248.7V208.73H248.859V208.571H249.017L249.136 208.45V208.291H249.298L249.416 208.173V208.014H249.575L249.693 207.896V207.737H249.852V207.578H250.011L250.129 207.456V207.298H250.288L250.409 207.179V207.021H250.568V206.902H250.845V206.743H250.963V206.585H251.122V206.463H251.284V206.304H251.561V206.186H251.838V206.027L251.956 205.909H252.274V205.75H252.554V205.629H252.831V205.47H253.109V205.311H253.389V205.193H253.548V205.034L253.666 204.916H253.943V204.757H254.102L254.223 204.635V204.477H254.382V204.358H254.541V204.2H254.659V204.041H254.818L254.936 203.923V203.764H255.098L255.217 203.646V203.483H255.375L255.494 203.365V203.206H255.652V203.048H255.929V202.929H256.088V202.771H256.369V202.649H256.646V202.49H257.081V202.372H257.757V202.213H258.473V202.095H258.909V201.936H259.031V201.656H259.19V201.497H259.348L259.467 201.379V201.102H259.625V200.943H259.744V200.784H259.902V200.504H260.024V200.227H260.183V200.108H260.342V199.831H260.46V199.669H260.619V199.392H260.737V199.233H260.896L261.017 199.115V198.956H261.294V198.835H261.453V198.676H261.73V198.517H262.011V198.399H262.446V198.24H262.882V198.122H263.163V197.963H263.717V198.24H263.558V198.517H263.44V198.835H263.281V199.115H263.163V199.392H263.004L262.882 199.51V199.831H262.723L262.605 199.95V200.108H262.446V200.227H262.288V200.385L262.169 200.504H262.011V200.662H261.73L261.612 200.784V200.943H261.294V201.102L261.176 201.22H261.017V201.379H260.737V201.497H260.46V201.656L260.342 201.777H260.024V201.936H259.625V202.095H259.348V202.213H259.031V202.372L258.909 202.49H258.75V202.771H258.632V202.929H258.473V203.365H258.355V203.646H258.196L258.075 203.764V204.041H257.916V204.2H257.757V204.358L257.639 204.477H257.48V204.635H257.203V204.757H256.923V204.916H256.646V205.034H256.369V205.193H256.088V205.311H255.811V205.47H255.652V205.629H255.494L255.375 205.75V205.909H255.217L255.098 206.027V206.186H254.936L254.818 206.304V206.463H254.659V206.743H254.541V206.902H254.382V207.179H254.223L254.102 207.298V207.578H253.943V207.737H253.825V207.896H253.666L253.548 208.014V208.173H253.389V208.291H253.109V208.45H252.95V208.571H252.673V208.73H252.396L252.274 208.848V209.007H251.956V209.166L251.838 209.284H251.561V209.443H251.402V209.564H251.122V209.723H250.963L250.845 209.841V210H250.568V210.159H250.409L250.288 210.277V210.436H250.129L250.011 210.558V210.716H249.852V210.835H249.693V211.112H249.575V211.271H249.416V211.429L249.298 211.551H249.136V211.71L249.017 211.828H248.7V211.987L248.581 212.105H248.423V212.264H248.142V212.423L248.024 212.544H247.747V212.703H247.429V212.821H247.149V212.98H246.872V213.098H246.595V213.257H246.315V213.379H246.156V213.537H245.879V213.696L245.761 213.814H245.602V213.973H245.321V214.091H245.163V214.372H245.044V214.531H244.886V214.689L244.767 214.808H244.609V215.085H244.487V215.243H244.331V215.524H244.169V215.801H244.051V216.078H243.892V216.237L243.774 216.358H243.615V216.517L243.497 216.635H243.217V216.794H242.223V216.635H242.065L241.946 216.517V216.358H241.788V216.237H241.629V216.078H241.507V215.801H241.348V215.524H241.23V215.243H241.071V215.085H240.953V214.808H240.794V214.531H240.636V214.372L240.514 214.25H240.355V214.091L240.237 213.973H240.078V213.814L239.96 213.696H239.801V213.537H239.683V213.379H239.362V213.257H239.085V213.098H238.808V212.98H238.531V212.821H238.25V212.703H237.973V212.544H237.815L237.696 212.423V212.264H237.534V212.105L237.416 211.987H237.257V211.828H237.098V211.551L236.98 211.429H236.821V211.271H236.7V211.112H236.544L236.423 210.993V210.716H236.264V210.558H236.105L235.987 210.436V210.277H235.828V210.159H235.548V210H235.429V209.841H235.271V209.723H234.994V209.564H234.717V209.443H234.436V209.284H234.159V209.166H234V209.007H233.72V208.848H233.561L233.443 208.73V208.571H233.284V208.291L233.166 208.173H233.007V207.896H232.886V207.578H232.73V207.298H232.568L232.45 207.179V206.902H232.291V206.743H232.173V206.463H232.014V206.304L231.896 206.186H231.734V206.027L231.615 205.909H231.298V205.75L231.179 205.629H231.021V205.47H230.902V205.311H230.622V205.193H230.463V205.034H230.186V204.916H230.027V204.757H229.747V204.635H229.47V204.477H229.193V204.358H229.034V204.2H228.916V204.041H228.636V203.923H228.477V203.764L228.359 203.646H228.2V203.483H228.041L227.919 203.365V203.206H227.761V203.048L227.642 202.929H227.484V202.771L227.365 202.649H227.206V202.49L227.088 202.372H226.929V202.213H226.767L226.649 202.095V201.936H226.372V201.777H226.213L226.095 201.656V201.497H225.933V201.379H225.777V201.22H225.497L225.379 201.102V200.943H225.102V200.784H224.943V200.662H224.663V200.504H224.504V200.385H224.227V200.227L224.109 200.108H223.946V199.95L223.828 199.831H223.511V199.669H223.392V199.51H223.234L223.115 199.392V199.233H222.956L222.835 199.115V198.956H222.676L222.558 198.835V198.676H222.399V198.517H222.119V198.399H221.963V198.24L221.842 198.122H221.565V197.963H221.406V197.845H221.129V197.683H220.848V197.564H220.413V197.406H219.977V197.247H219.419V197.129H218.585V196.97H217.71V196.848H217.315V196.693H217.034V196.571H216.757V196.412H216.44V196.254H216.041V196.135H215.764V195.977H215.166V195.855H213.619V195.696H212.784V195.578H212.227V195.419H211.514V195.301H210.916V195.142H210.362V194.983H210.081V194.862H209.804V194.703H209.527V194.585H209.247V194.426H208.97V194.308H208.693V194.149H208.375V193.99H207.977V193.868H207.541V193.71H207.102V193.591H206.267V193.433H205.433V193.314H204.838V193.156H204.561V193.034H204.281V192.875H204.004V192.716H203.727V192.598H203.288V192.439H202.733V192.321H201.74V192.162H200.906V192.044H200.308V191.882H199.632V191.764H198.639V191.605H198.044V191.446H197.646V191.328H197.369V191.169H197.051V191.048H196.774V190.892H196.494V190.771H195.94V190.612H194.946V190.453H190.693V190.335H189.98V190.176H189.423V190.054H188.429V189.896H186.882V189.777H186.325V189.618H185.767V189.5H185.173V189.341H184.774V189.5H184.338V189.618H184.179V189.777L184.058 189.896H183.899V190.335H183.781V190.892H183.899V191.605H184.058V191.882H184.179V192.162H184.338V192.439H184.456V192.598H184.615V192.875H184.774V193.034L184.892 193.156H185.051V193.314L185.173 193.433H185.331V193.591L185.45 193.71H185.608V193.868H185.767L185.886 193.99V194.149H186.044V194.308L186.166 194.426H186.325V194.585L186.443 194.703H186.602V194.862L186.72 194.983H186.882V195.301H187.038L187.159 195.419V195.578H187.318V195.855L187.436 195.977H187.595V196.254H187.713V196.412H187.872V196.693H187.994V196.97H188.152V197.129H188.311L188.429 197.247V197.564H188.588L188.706 197.683V197.963H188.865V198.122H188.987V198.399H189.146V198.676H189.304V198.956H189.423V199.233H189.581V199.392H189.7V199.669H189.858V199.831L189.98 199.95H190.139V200.108L190.257 200.227H190.416V200.385H190.575L190.693 200.504V200.662H190.852L190.973 200.784V200.943H191.132V201.22H191.25V201.379H191.409V201.497H191.568V201.656L191.686 201.777H191.845V201.936H191.967V202.095H192.125L192.244 202.213V202.372H192.402L192.521 202.49V202.649H192.679V202.771H192.838V202.929H192.96V203.206H193.119V203.365H193.237V203.646H193.396V203.923L193.514 204.041H193.673V204.358H193.831V204.635L193.953 204.757H194.112V205.034H194.23V205.311H194.389V205.47H194.507V205.75H194.666V206.027H194.788V206.186H194.946V206.304H195.105V206.463L195.223 206.585H195.382V206.743H195.5V206.902H195.781V207.021H195.94V207.179H196.217V207.298H196.375V207.456H196.652L196.774 207.578V207.737H196.933V207.896L197.051 208.014H197.21V208.173H197.369L197.487 208.291V208.45H197.646V208.73L197.767 208.848H197.926V209.166H198.044V209.443H198.203V209.723H198.321V210H198.48V210.159H198.639L198.761 210.277V210.558H198.919V210.716L199.038 210.835H199.196V210.993L199.315 211.112H199.473V211.271H199.632V211.429H199.913L200.031 211.551V211.71H200.19L200.308 211.828V211.987H200.467L200.588 212.105V212.264H200.747V212.423H200.906L201.024 212.544V212.703H201.183L201.301 212.821V212.98H201.46L201.581 213.098V213.257H201.74V213.379H201.899V213.537H202.017V213.696H202.176L202.294 213.814V213.973H202.453L202.575 214.091V214.25H202.733L202.852 214.372V214.531H203.011V214.689H203.169L203.288 214.808V214.966H203.446L203.568 215.085V215.243H203.727L203.845 215.365V215.642H204.004V215.801H204.163V215.96H204.281V216.237H204.44L204.561 216.358V216.635H204.72V216.912H204.838V217.071H204.997V217.352H205.115V217.51H205.274V217.787H205.433L205.554 217.906V218.064H205.713V218.223H205.831V218.504H205.99L206.108 218.622V218.781H206.267V218.899H206.426V219.179H206.548V219.497H206.706V219.892H206.825V220.767H206.983V221.443H207.102V222.037H207.261V222.318H207.379V222.595H207.541V222.754H207.7V223.031H207.818V223.311H207.977V223.588H208.095V223.865H208.254V224.142H208.375V224.581H208.534V224.858H208.693V225.298H208.811V225.575H208.97L209.088 225.693V225.973H209.247V226.291L209.369 226.409H209.527V226.686H209.646V226.966H209.804V227.284H209.963V227.561H210.081V227.956H210.24V228.554H210.362V228.953H210.521V229.507H210.639V229.825H210.798V230.223H210.916V230.5H211.075V230.659H211.233V230.939H211.355V231.216H211.514V231.493H211.632V231.652H211.791V232.091H211.909V232.487H212.068V233.203H212.227V234.355H212.348V234.912H212.507V235.348H212.625V235.625H212.784L212.902 235.743V236.024H213.061V236.183H213.179V236.46H213.342V236.618H213.5V236.896H213.619V237.176H213.777V237.73H213.896V238.727H214.054V239.439H214.176V239.72H214.335V239.997H214.494V240.274H214.612V240.554H214.771V240.831H214.889V240.99H215.048V241.267H215.166V241.706H215.328V241.983H215.446V242.419H215.605V242.696H215.764V242.977H215.882V243.254H216.041V243.531H216.163V243.811H216.318V243.97H216.44V244.247H216.598V244.524H216.757V245.081H216.875V245.956H217.034V246.791H217.156V247.345H217.315V248.061H217.433V249.054H217.592V249.771H217.71V250.206H217.869V250.483H218.027V250.764L218.149 250.882H218.308V251.041L218.426 251.159H218.585V251.321H218.703V251.48H218.862V251.598H219.021V251.875H219.142V252.034H219.301L219.419 252.156V252.311H219.578L219.696 252.433V252.591H219.855V252.75L219.977 252.868H220.132V253.027H220.294L220.413 253.146V253.308H220.571L220.69 253.426V253.585H220.848V253.743L220.967 253.862H221.129V254.021L221.247 254.139H221.406V254.298H221.683V254.419H221.842V254.578L221.963 254.696H222.24V254.855H222.558V255.014H222.835V255.132H223.115V255.294H223.511V255.412H223.946V255.571H224.227V255.689H224.386V255.848H224.663V256.007H224.821L224.943 256.125V256.284H225.102L225.22 256.406V257.281L225.102 257.399H224.943V257.558L224.821 257.676H224.663V257.835H224.504L224.386 257.953V258.112H224.227V258.271H223.946L223.828 258.392V258.551H223.669V258.669H223.392V258.828H223.234L223.115 258.946V259.108H222.835V259.227H222.676V259.385H222.558V259.544H222.24L222.119 259.662V259.821H221.963V259.939H221.683V260.098L221.565 260.22H221.247V260.379H220.967V260.537H220.69V260.656H220.413V260.814H219.977V260.933H219.578V261.095H219.142V261.213H218.585V261.372H218.149V261.49H217.71V261.649H217.433V261.808H217.156L217.034 261.926V262.085H216.875L216.757 262.206V262.365H216.598V262.483H216.44V262.642H216.318V262.919H216.163V263.2H216.041V263.477H215.882V264.071H215.764V295.46H215.605V297.723H215.446V301.696H215.605V302.808H215.764V303.247H215.882V303.524H216.041V303.804H216.163V304.122H216.318V304.399H216.44V304.676H216.598V305.075H216.757V305.51H216.875V311.747H216.757V312.304H216.598V312.585H216.44V312.862H216.318V313.02H216.041V313.139H215.605V313.02H215.446V312.743H215.328V312.186H215.166V310.041H215.048V309.206H214.889V308.608H214.771V307.936H214.612V303.524H214.771V297.328H214.612V296.73H214.494V296.335H214.335V296.054H214.176V295.737H214.054V295.46H213.896V295.183H213.777V294.902H213.619V292.798H213.777V292.358H213.619V291.206H213.5V289.382H213.342V284.294H213.179V283.74H213.061V283.024H212.902V282.031H212.784V275.794H212.625V275.237H212.507V274.801H212.348V274.521H212.227V274.243H212.068V273.966H211.909V273.527H211.791V272.973H211.632V270.706H211.514V269.872H211.355V269.159H211.233V268.443H211.075V266.892H210.916V266.021H210.798V265.622H210.639V265.186H210.521V264.909H210.362V264.629H210.24V264.352H210.081V263.912H209.963V262.483H209.804V258.828H209.646V258.392H209.527V258.112H209.369V257.953L209.247 257.835H209.088V257.676L208.97 257.558H208.693V257.399H208.375V257.281H206.108V257.399H205.554V257.558H204.838V257.676H199.632V257.558H198.919V257.399H198.321V257.281H197.646V257.118H196.774V256.96H196.375V256.841H196.098V256.683H195.94V256.564H196.098V256.284H196.217V256.125H196.375V256.007H196.652V255.848H196.933V255.689H197.21V255.571H197.767V255.412H198.761V255.294H199.473V255.132H199.913V255.014H200.19V254.855H200.588V254.696H200.747V254.578H201.024V254.419H201.183V254.298H201.46V254.139L201.581 254.021H201.899V253.862L202.017 253.743H202.176V253.585H202.453V253.426L202.575 253.308H202.852V253.146H203.169L203.288 253.027V252.868H203.568V252.75H203.845V252.591H204.163V252.433L204.281 252.311H204.561V252.156H204.72V252.034H204.997V251.875H205.274V251.757H205.433V251.598H205.713V251.48H205.99V251.321H206.108V251.159H206.267V251.041H206.548V250.882H206.706L206.825 250.764V250.605H206.983L207.102 250.483V250.325H207.261L207.379 250.206V250.048H207.541V249.889H207.7L207.818 249.771V249.612H207.977L208.095 249.493V249.331H208.375V249.213H208.534V249.054H208.693V248.896L208.811 248.777H209.088V248.618H209.369V248.497H209.804V248.341H210.24V248.22H210.521V248.061H210.916V247.943H211.233V247.784H211.355V247.625H211.632V247.507H211.791V247.345L211.909 247.227H212.227V247.068L212.348 246.95H212.507V246.791H212.625V246.632H212.784L212.902 246.51V246.355H213.061L213.179 246.233V246.075H213.342V245.956H213.5V245.679H213.619V245.521H213.777V245.358H213.896V245.081H214.054V244.804H214.176V244.524H214.335V243.095H214.176V242.818H214.054V242.541H213.896L213.777 242.419V242.102H213.619L213.5 241.983V241.706H213.342V241.544H213.179V241.267H213.061V240.831H212.902V240.433H212.784V239.997H212.625V239.72H212.507V239.439H212.348V239.162H212.227V239.004H212.068V238.727H211.909V238.568L211.791 238.446H211.632V238.287L211.514 238.169H211.355V238.01L211.233 237.892H211.075V237.73H210.916L210.798 237.612V237.453H210.639V237.176H210.521V237.017H210.362L210.24 236.896V236.618H210.081V236.301H209.963V236.024H209.804V235.625H209.646V235.189H209.527V234.754H209.369V234.355H209.247V233.919H209.088V233.48H208.97V233.203H208.811V232.926H208.693V232.767H208.534V232.487H208.375L208.254 232.368V232.21H208.095L207.977 232.091V231.771H207.818L207.7 231.652V231.493H207.541V231.375H207.379V231.216L207.261 231.098H207.102V230.939L206.983 230.818H206.825V230.659H206.706V230.5H206.548L206.426 230.382V230.223H206.267V230.105H206.108V229.825H205.99V229.666H205.831V229.389H205.713V229.112H205.554V228.953H205.433V228.673H205.274V228.554H205.115V228.237H204.997V227.956H204.838L204.72 227.838V227.561H204.561V227.402H204.44V227.125H204.281V226.845H204.163V226.686H204.004V226.409H203.845L203.727 226.291V226.132H203.568V225.852H203.446V225.693H203.288L203.169 225.575V225.416H203.011V225.298H202.852V225.139L202.733 225.017H202.575V224.858H202.453V224.7H202.294L202.176 224.581V224.423H202.017L201.899 224.304V224.142H201.74V223.865H201.581V223.706L201.46 223.588H201.301V223.311H201.183V223.152H201.024V222.872H200.906V222.595H200.747V222.436H200.588V222.159H200.467V221.879H200.308L200.19 221.76V221.602H200.031V221.325H199.913V221.166H199.754V220.885L199.632 220.767H199.473V220.49H199.315V220.173H199.196V219.774H199.038V219.497H198.919V219.179H198.761V218.899H198.639V218.622H198.48V218.345H198.321L198.203 218.223V218.064H198.044V217.787H197.926V217.629H197.767L197.646 217.51V217.352H197.487L197.369 217.23V217.071H197.21V216.912H197.051L196.933 216.794V216.635H196.774L196.652 216.517V216.237H196.494V216.078L196.375 215.96H196.217V215.642H196.098V215.365H195.94V214.966H195.781V214.689H195.659V214.25H195.5V213.814H195.382V213.537H195.223V213.257H195.105V212.98H194.946V212.821H194.788L194.666 212.703V212.544H194.507L194.389 212.423V212.105H194.23L194.112 211.987V211.828H193.953L193.831 211.71V211.551H193.673V211.429H193.514V211.271H193.396V211.112H193.237L193.119 210.993V210.835H192.96L192.838 210.716V210.558H192.679V210.436H192.521V210.277L192.402 210.159H192.244V210H192.125V209.841H191.967L191.845 209.723V209.564H191.686L191.568 209.443V209.284H191.409V209.166H191.25V209.007H191.132V208.848H190.973V208.571L190.852 208.45H190.693V208.173H190.575V207.737H190.416V207.298H190.257V206.902H190.139V206.585H189.98V206.304H189.858V206.027H189.7L189.581 205.909V205.75H189.423L189.304 205.629V205.47H189.146V205.311H188.987V205.193H188.706V205.034H188.429L188.311 204.916V204.757H187.994V204.635H187.713V204.477L187.595 204.358H187.436V204.2H187.318V204.041H187.159V203.764H187.038V203.365H186.882V202.929H186.72V202.49H186.602V202.095H186.443V201.777L186.325 201.656H186.166V201.497L186.044 201.379H185.886V201.102H185.767V200.943H185.608V200.784H185.45L185.331 200.662V200.504H185.173V200.227L185.051 200.108H184.892V199.831H184.774V199.51H184.615V199.392H184.456V199.115H184.338V198.835H184.179V198.676H184.058V198.399H183.899V198.24L183.781 198.122H183.622V197.963L183.504 197.845H183.345V197.683H183.186V197.406H183.068V197.247H182.906L182.788 197.129V196.97H182.629L182.511 196.848V196.693H182.352V196.571H182.193V196.412H182.071V196.135H181.913V195.977H181.794V195.696H181.636V195.419L181.517 195.301H181.358V194.983H181.237V194.703H181.081V194.585H180.919V194.308H180.801V193.99H180.642L180.524 193.868V193.591H180.365V193.314H180.244V192.875H180.085V192.598H179.926V192.321H179.808V191.882H179.649L179.531 191.764V191.446H179.372L179.254 191.328V191.048H179.092V190.892L178.973 190.771H178.815V190.612H178.656V190.453L178.538 190.335H178.379V190.176L178.257 190.054H178.098V189.896L177.98 189.777H177.821V189.618H177.663V189.341H177.544V189.183H177.386V188.902L177.267 188.784H177.105V188.507H176.987V188.348H176.828V188.068H176.71V187.791H176.551V187.514H176.392V187.355H176.271V187.078H176.112V186.916L175.994 186.798H175.835V186.639L175.717 186.521H175.558V186.362H175.399V186.081H175.281V185.923H175.119L175 185.804V185.646H174.842L174.723 185.527V185.368H174.565L174.443 185.247V185.091H174.284V184.97H174.129V184.811H173.848V184.652L173.73 184.534H173.571V184.375L173.453 184.254H173.291V184.095H173.014V183.977H172.737V183.818H172.456V183.659H172.021V183.541H171.027V183.382H169.48V183.264H168.923V183.105H168.483V182.983H168.206V182.825H167.929V182.706H167.652V182.548H167.331V182.389H167.054V182.267H166.777V182.108H166.497V181.99H166.22V181.831H165.784V181.713H165.068V181.554H164.514V181.433H164.115V181.277H163.798V181.115H163.517V180.997H163.24V180.838L163.122 180.72H162.842V180.561H162.683V180.443H162.527V180.281H162.247V180.122L162.129 180.004H161.852V179.845H161.531V179.727H161.254V179.568H160.977V179.45H160.578V179.291H160.142V179.169H159.865V179.01H159.585V178.852H159.267L159.149 178.733V178.575H158.869V178.456H158.713V178.294H158.433L158.315 178.176V178.017H157.997V177.858H157.717L157.598 177.74V177.581H157.321V177.463H157.004V177.304L156.886 177.183H156.605V177.024H156.328V176.906H156.051V176.747H155.73V176.588H155.335V176.466H154.183V176.308H151.798V176.189H151.085V176.031H150.527V175.912H150.092V175.754H149.534V175.595H149.257V175.477H148.818V175.314H148.659V175.196H148.382V175.037H148.102L147.983 174.919V174.76H147.825V174.642H147.666V174.48H147.548V173.926H147.666V173.767H147.825V173.649H148.264V173.49H150.092V173.328H150.804V173.21H151.203V173.051H151.521V172.933H151.798V172.774L151.916 172.656H152.196V172.493H152.355L152.473 172.375V172.058H152.632V171.939H152.791V171.781H152.913V171.504H153.071V171.223H153.19V170.946H153.348V170.666H153.467V170.389H153.625V170.23H153.784V169.953H153.902V169.794H154.065L154.183 169.676V169.514H154.342V169.237L154.46 169.118H154.619V168.96L154.74 168.841H154.899V168.679H155.054V168.402H155.176V168.243H155.335L155.453 168.125V167.848H155.612V167.689H155.73V167.409H155.892V167.25H156.051V166.973H156.169V166.696H156.328L156.446 166.575V166.257H156.605V165.98H156.727V165.703H156.886V165.423H157.004V165.146H157.163V164.987H157.321L157.44 164.865V164.71H157.598V164.429L157.717 164.311H157.879V164.152H157.997V163.875H158.156V163.595H158.315V163.318H158.433V162.602H158.592V158.909H158.433V158.193H158.315V157.794H158.156V157.517H157.997V157.2H157.879V156.923H157.717V156.642H157.598V156.247H157.44V155.372H157.321V154.26H157.163V153.108H157.321L157.44 152.987V152.828H157.717V152.987H157.997V153.108H158.315V153.267L158.433 153.385H158.592V153.544H158.869L158.99 153.662V153.821H159.149V153.98H159.426V154.102H159.585V154.26H159.865L159.983 154.379V154.537H160.261V154.656H160.419V154.814H160.578L160.7 154.936V155.095H160.855V155.254H160.977V155.531H161.136L161.254 155.649V155.926H161.413V156.088H161.531V156.365H161.693V156.524H161.852L161.97 156.642V156.801H162.129L162.247 156.923V157.081H162.406L162.527 157.2V157.358H162.842V157.517L162.963 157.635H163.122V157.794H163.399V157.916H163.679V158.075L163.798 158.193H164.115V158.352H164.233V158.51H164.392L164.514 158.629V158.787H164.669V159.064L164.791 159.186H164.95V159.463H165.068V159.622H165.227V159.902H165.386V160.061L165.504 160.179H165.666V160.456H165.784V160.615H165.943L166.061 160.737V160.896H166.22V161.054H166.379L166.497 161.173V161.331H166.656L166.777 161.45V161.608H166.936L167.054 161.727V161.889H167.213V162.048L167.331 162.166H167.49V162.325H167.652L167.771 162.443V162.602H167.929V162.723H168.206V162.879L168.328 163H168.642V163.159H168.764V163.318H169.041V163.436H169.318V163.595H169.48V163.713H169.757V163.875H170.034V163.993H170.193V164.152H170.315V164.311H170.592V164.429H170.75V164.588H170.909L171.027 164.71V164.865H171.186L171.304 164.987V165.146H171.467V165.423H171.585V165.581H171.744V165.862H171.862V166.139H172.021V166.416H172.179V166.696H172.298V166.855H172.456L172.578 166.973V167.132H172.737L172.855 167.25V167.409H173.014V167.527H173.173V167.689H173.453V167.848H173.73V167.966H174.284V168.125H179.808V167.966H180.365V167.848H180.642V167.689H180.919V167.527H181.081V167.409H181.358V167.25H181.517L181.636 167.132V166.973H181.913V166.855H182.071V166.696H182.352V166.575H182.788V166.416H183.186V166.257H183.781V166.139H184.058V165.98H184.338V165.862H184.615V165.703H184.892V165.581H185.051V165.423H185.331V165.264L185.45 165.146H185.767V164.987H186.044V164.865H186.443V164.71H187.436V164.588H194.112V164.429H194.507V164.311H194.946V164.152H195.105V163.993H195.382V163.875H195.659V163.713L195.781 163.595H196.098V163.436L196.217 163.318H196.494V163.159H196.774V163H197.369V162.879H198.044V162.723H198.639V162.602H199.038V162.443H199.473V162.325H199.754V162.166H200.031V162.048H200.308V161.889H200.588V161.727H200.906L201.024 161.608V161.45H201.301V161.331H201.581V161.173H201.74V161.054H201.899V160.896H202.017V160.737H202.176L202.294 160.615V160.456H202.453V160.179L202.575 160.061H202.733V159.781H202.852V159.463H203.011V159.186H203.169V158.909H203.288V158.629H203.446V158.352H203.568V157.916H203.727V157.635H203.845V157.2H204.004V156.642H204.163V156.088H204.281V155.531H204.44V154.656H204.561V152.115H204.72V151.558H204.838V151.122H204.997V150.841H205.115V150.564H205.274V150.406H205.433V150.125H205.554V149.73H205.713V149.294H205.831V148.737H205.99V148.142H206.108V147.585H206.267V144.487H206.108V144.048H205.99V143.771H205.831V143.493H205.713V143.335H205.554L205.433 143.213V143.054H205.274V142.936H204.997V142.777H204.838V142.659H204.561V142.5H204.44V142.341H204.163V142.22H204.004V142.061H203.845V141.943H203.568V141.784L203.446 141.666H203.288V141.507L203.169 141.385H203.011V141.227H202.852V141.068H202.575L202.453 140.95V140.791H202.176V140.673H202.017V140.514H201.74V140.392H201.581V140.233H201.301V140.075L201.183 139.956H201.024V139.798H200.747V139.679H200.588V139.521L200.467 139.399H200.308V139.24H200.031L199.913 139.122V138.963H199.632V138.804H199.038V138.686H198.044V138.527H197.21V138.406H196.933V138.247H196.652V138.129H196.375V137.97H196.217V137.811H195.94V137.693H195.781V137.534H195.5L195.382 137.412V137.254H195.105V137.135H194.946V136.977H194.666V136.858H194.389V136.7H194.23V136.541H193.953V136.419H193.673V136.26H193.514V136.142H193.237V135.983H192.96V135.865H192.679V135.706H192.402V135.585H191.967V135.429H191.568V135.267H190.852V135.149H189.98V134.99H189.304V134.872H188.865V134.713H188.588V134.591H188.311V134.433H187.994V134.274H187.713V134.156H187.318V133.997H186.882V133.879H186.443V133.72H185.886V133.598H185.45V133.439H185.051V133.321H184.774V133.162H184.456V133.004H184.179V132.885H183.899V132.727H183.622V132.605H183.345V132.446H183.068V132.328H182.788V132.169H182.352V132.01H181.913V131.892H181.517V131.733H181.081V131.615H180.642V131.453H180.365V131.335H180.085V131.176H179.808V131.058H179.531V130.899H179.372V130.74H179.092V130.618H178.815V130.46H178.656V130.341H178.379V130.183H178.098L177.98 130.064V129.906H177.663V129.747L177.544 129.629H177.386V129.466H177.105L176.987 129.348V129.189H176.828L176.71 129.071V128.912H176.551V128.791H176.392V128.632H176.112V128.473H173.291V128.355H172.737V128.196H172.021V128.078H170.592V127.919H169.757V127.801H169.318V127.639H169.041V127.48L168.923 127.362H168.642V127.203H168.328V127.085H168.048V126.926L167.929 126.804H167.652V126.646H167.331L167.213 126.527V126.368H166.936V126.21H166.777V126.091H166.497V125.933L166.379 125.814H166.22V125.652H165.943V125.534H165.666V125.375H165.386V125.216H165.068V125.098H164.791V124.939H164.392V124.818H164.115V124.659H163.798V124.541H163.517V124.382H163.24L163.122 124.264V124.105H162.842V123.946H162.527L162.406 123.828V123.666H162.129V123.548H161.693V123.389H161.136V123.271H159.865V123.112H159.426V122.99H159.149V122.831H158.869V122.676H158.713V122.554H158.433V122.396L158.315 122.277H158.156V122.118H157.997V122H157.717V121.838H157.598V121.679H157.321V121.561H157.004V121.402H156.605V121.284H156.328V121.125H155.892V121.004H155.612V120.845H155.335V120.727H155.054V120.568H154.899V120.409H154.619V120.291H154.342V120.132H154.065V120.014H153.625V119.852H153.071V119.733H152.355V119.575H151.639V119.416H151.085V119.298H150.369V119.139H149.652V119.017H149.257V118.862H148.818V118.74H148.541V118.581H148.264V118.463H147.983V118.304H147.389V118.146H146.115V118.304H145.72V118.463H145.402V118.581H145.125V118.74L145.004 118.862H144.727V119.017H144.568V119.139H144.409V119.298H144.132L144.011 119.416V119.575H143.852V119.733H143.575L143.456 119.852V120.014H143.139L143.017 120.132V120.291H142.858V120.409H142.581V120.568H142.463V120.727H142.301V120.845H142.146V121.004L142.024 121.125H141.865V121.284L141.747 121.402H141.588V121.561L141.47 121.679H141.311V121.838H141.19V122H141.031V122.118H140.872V122.396H140.754V122.554H140.595L140.477 122.676V122.99H140.318L140.196 123.112V123.389H140.038V123.548L139.919 123.666H139.761V123.828H139.602V124.105H139.483V124.264H139.325L139.203 124.382V124.541H139.044L138.926 124.659V124.818H138.767V125.098H138.608L138.49 125.216V125.534H138.331V125.814H138.21V126.091H138.051V126.527H137.933V126.804H137.774V127.203H137.656V127.362H137.497V127.639H137.338V127.801L137.217 127.919H137.058V128.078L136.94 128.196H136.781V128.355L136.663 128.473H136.345V128.632H136.223V128.791H136.065L135.946 128.912V129.071H135.788L135.669 129.189V129.348H135.511L135.389 129.466V129.747H135.23V129.906H135.071V130.064H134.953V130.341H134.794L134.676 130.46V130.74H134.517V130.899H134.396V131.058H134.237V131.176H134.078V131.335L133.96 131.453H133.801V131.733H133.683V131.892H133.524L133.402 132.01V132.169H133.244V132.446H133.125V132.727H132.967V133.004H132.808V133.321H132.69V133.72H132.531V134.156H132.409V134.433H132.25V134.713H132.132V134.99H131.973V135.267H131.815V135.429H131.696V135.585H131.538V135.865H131.416V136.142H131.257V136.419H131.139V136.7H130.98V137.135H130.862V137.412H130.703V137.811H130.544V137.97H130.423V138.247H130.264V138.406L130.146 138.527H129.987V138.686L129.869 138.804H129.71V138.963H129.551V139.122H129.271L129.152 139.24V139.399H128.994L128.875 139.521V139.679H128.717L128.595 139.798V140.075H128.436V140.233H128.277V140.514H128.159V140.95H128V141.507H127.882V142.061H127.723V142.659H127.602V142.936H127.443V143.213L127.325 143.335H127.166V143.493H127.007V143.771H126.889V143.929H126.73L126.608 144.048V144.206H126.45L126.331 144.328V144.487H126.173V144.605H126.014V144.764H125.896V144.923H125.737L125.615 145.041V145.2H125.456L125.338 145.321V145.48H125.179L125.061 145.598V145.757H124.902V145.916H124.744L124.622 146.034V146.314H124.463V146.473H124.345V146.75H124.186V147.027H124.068V147.308H123.909V147.743H123.75V148.142H123.629V148.46H123.47V148.737H123.352V149.014H123.193L123.075 149.135V149.294H122.916V149.453L122.794 149.571H122.636V149.73H122.477V149.848H122.2V150.007L122.081 150.125H121.923V150.287H121.642V150.406H121.483V150.564H121.365V150.723H121.206L121.088 150.841V151H120.929L120.808 151.122V151.281H120.649V151.558H120.531V151.716H120.372V151.993H120.213L120.095 152.115V152.392H119.936V152.551H119.815V152.828H119.656V152.987H119.538V153.267H119.379V153.662H119.22V153.98H119.102V154.26H118.943V154.656H118.821V154.814H118.666V155.095H118.544V155.254H118.386V155.531L118.267 155.649H118.108V155.808H117.95L117.828 155.926V156.088H117.669V156.365H117.551V156.524H117.392L117.274 156.642V156.801H117.115V157.081L116.994 157.2H116.835V157.358H116.676V157.517H116.558V157.794H116.399L116.281 157.916V158.075H116.122L116.004 158.193V158.352H115.842V158.51H115.683V158.787L115.565 158.909H115.406V159.186H115.288V159.463H115.129V159.781H115.007V160.061H114.848V160.338H114.73V160.615H114.571V160.896H114.413V161.173H114.294V161.45H114.136V161.889H114.017V163.318H114.136V163.713H114.294V165.146H114.136L114.017 165.264V165.581H113.855L113.737 165.703V165.862H113.578V165.98H113.419V166.139L113.301 166.257H113.142V166.416H113.021V166.575H112.865L112.744 166.696V166.855H112.585L112.467 166.973V167.132H112.308V167.25H112.149V167.409L112.027 167.527H111.869V167.689H111.75V167.848H111.592L111.473 167.966V168.125H111.315V168.243H111.156V168.402H111.034V168.679H110.875V168.841L110.757 168.96H110.598V169.118L110.48 169.237H110.321V169.514H110.203V169.676H110.041V169.953H109.882V170.23H109.764V170.666H109.605V171.064H109.487V171.504H109.328V171.781H109.206V172.216H109.051V172.493H108.889V172.656H108.771V173.051H108.612V173.328H108.494V173.649H108.335V173.926L108.217 174.044H108.054V174.325H107.936V174.642H107.777V174.76H107.619V174.919H107.5V175.196H107.342L107.22 175.314V175.477H107.065V175.754H106.943V175.912H106.784V176.031H106.625V176.308H106.507V176.466H106.348V176.747H106.227V176.906H106.068L105.95 177.024V177.304H105.791V177.463L105.673 177.581H105.514V177.858H105.355V178.176H105.237V178.456H105.075V180.122H105.237V180.561H105.355V180.838H105.514V181.115H105.673V181.433L105.791 181.554H105.95V181.831H106.068V181.99H106.227V182.267L106.348 182.389H106.507V182.548H106.625V182.825H106.784V182.983H106.943L107.065 183.105V183.382H107.22V183.541H107.342V183.818H107.5V183.977H107.619V184.254H107.777V184.375H107.936V184.652H108.054V184.811H108.217V185.091H108.335V185.247H108.494L108.612 185.368V185.527H108.771L108.889 185.646V185.804H109.051V185.923H109.206V186.243L109.328 186.362H109.487V186.639H109.605V186.916H109.764V187.233H109.882V187.514H110.041V187.791H110.203V188.068L110.321 188.189H110.48V188.348H110.598V188.625H110.757V188.784L110.875 188.902H111.034V189.061L111.156 189.183H111.315V189.5H111.473L111.592 189.618V189.896H111.75V190.176H111.869V190.335H112.027V190.612H112.149V190.892H112.308V191.169H112.467V191.446H112.585V191.605H112.744V191.882H112.865V192.044H113.021L113.142 192.162V192.439H113.301V192.598L113.419 192.716H113.578V193.034H113.737L113.855 193.156V193.314H114.017L114.136 193.433V193.71H114.294V193.868H114.571V193.99H114.73V194.149H114.848V194.308H115.129V194.426H115.406V194.585H115.842V194.703H116.399V194.862H116.835V194.983H117.115V195.142H117.392V195.301H117.669V195.419H117.95V195.578H118.108V195.696H118.267V195.855L118.386 195.977H118.544V196.254H118.666V196.571H118.821V196.848H118.943V197.963H119.102V199.233H119.22V199.669H119.379V199.95H119.538V200.227H119.656V200.504H119.815V200.662L119.936 200.784H120.095V200.943H120.213V201.102H120.372V201.22H120.531V201.379L120.649 201.497H120.808V201.656H121.088L121.206 201.777V201.936H121.483V202.095H121.804V202.213H122.2V202.372H122.636V202.49H122.916V202.649H123.193V202.771H123.352V202.929L123.47 203.048H123.629V203.206H123.75V203.483H123.909V203.764H124.068V204.041H124.186V204.477H124.345V205.034H124.463V205.47H124.622V205.75H124.744V206.027H124.902V206.304H125.061V206.463H125.179V206.743H125.338V206.902H125.456V207.179H125.615L125.737 207.298V207.578H125.896V207.896H126.014V208.291H126.173V208.73H126.331V209.166H126.45V209.443H126.608V209.723H126.73V210H126.889V210.159L127.007 210.277H127.166V210.558H127.325V210.835H127.443V210.993H127.602V211.271H127.723V211.71H127.882V212.105H128V212.544H128.159V212.821H128.277V213.098H128.436V213.379H128.595V213.537H128.717V213.696H128.875V213.973L128.994 214.091H129.152V214.25L129.271 214.372H129.429V214.531H129.551V214.689H129.71V214.808H129.869V214.966L129.987 215.085H130.146V215.365H130.264V215.524H130.423V215.801H130.544V215.96H130.703V216.237H130.862V216.517H130.98V216.794H131.139V217.071H131.257V217.352H131.416V217.51H131.538V217.787H131.696L131.815 217.906V218.064H131.973V218.345H132.132V218.504L132.25 218.622H132.409V218.899H132.531V219.179H132.69V219.497H132.808V219.774H132.967V220.051H133.125V220.331H133.244V220.767H133.402V221.044H133.524V221.325H133.683V221.602H133.801V221.76H133.96V222.037L134.078 222.159H134.237V222.318H134.396V222.595H134.517V222.754H134.676V222.872H134.953V223.031L135.071 223.152H135.389V223.311H135.669V223.429H135.946V223.588H136.345V223.706H136.663V223.865H136.94V224.024H137.217V224.142H137.656V224.304H137.933V224.423H138.331V224.581H138.767V224.7H140.196V224.858H140.872V225.017H141.19L141.311 225.139V225.298H141.47L141.588 225.416V226.568H141.47V226.845H141.311V227.125H141.19V227.561H141.031V228.673H141.19V228.953H141.311V229.23H141.47V229.507H141.588V229.825H141.747V230.223H141.865V230.5H142.024V230.939H142.146V231.375H142.301V231.652H142.463V231.929H142.581V232.21H142.74V232.487H142.858V232.646H143.017L143.139 232.767V233.081H143.298V233.203H143.456V233.362H143.575V233.639H143.733L143.852 233.757V234.037H144.011V234.196H144.132V234.473H144.291V234.632H144.409V234.912H144.568V235.189H144.727V235.348H144.845V235.743H145.004V236.024H145.125V236.301H145.284V236.618L145.402 236.74H145.561V237.017H145.72V237.176H145.838V237.453H145.997V237.612L146.115 237.73H146.277V237.892H146.396V238.169H146.554L146.673 238.287V238.568H146.831V238.727H146.99V238.882H147.112V239.162H147.271L147.389 239.281V239.439H147.548L147.666 239.558V239.838H147.825V239.997H147.983V240.156L148.102 240.274H148.264V240.433L148.382 240.554H148.541V240.71L148.659 240.831H148.818V240.99H148.94V241.149H149.098V241.267H149.257V241.426L149.375 241.544H149.534V241.825H149.652V241.983H149.811L149.933 242.102V242.419H150.092V242.696H150.25V242.977H150.369V243.254H150.527V243.531H150.646V243.693H150.804V243.97L150.926 244.088H151.085V244.368H151.203V244.524H151.362V244.804H151.521V244.963L151.639 245.081H151.798V245.358H151.916V245.521H152.078V245.798H152.196V246.075H152.355V246.355H152.473V246.632H152.632V246.95H152.791V247.227L152.913 247.345H153.071V247.625H153.19V247.784H153.348V247.943L153.467 248.061H153.625V248.22H153.784L153.902 248.341V248.497H154.065L154.183 248.618V248.777H154.342V249.054H154.46V249.213H154.619V249.493L154.74 249.612H154.899V249.889H155.054V250.206L155.176 250.325H155.335V250.605H155.453V250.882H155.612V251.159H155.73V251.48H155.892V251.757H156.051V252.311H156.169V252.75H156.328V253.146H156.446V253.585H156.605V253.862H156.727V254.021H156.886V254.298L157.004 254.419H157.163V254.578H157.321L157.44 254.696V254.855H157.598V255.014L157.717 255.132H157.879V255.412H157.997V255.571H158.156V255.689H158.315V255.848H158.433V256.007H158.592V256.284L158.713 256.406H158.869V256.683H158.99V256.96H159.149V257.281H159.267V257.676H159.426V257.953H159.585V258.271H159.703V258.551H159.865V258.828H159.983V259.108H160.142L160.261 259.227V259.544H160.419V259.821H160.578V260.098H160.7V260.656H160.855V264.352H160.7V264.747H160.578V265.186H160.419V265.463H160.261V265.74H160.142V266.021H159.983V266.456H159.865V267.014H159.703V267.885H159.585V268.602H159.426V269.159H159.267V269.872H159.149V272.693H158.99V273.409H158.869V273.808H158.713V274.085H158.592V274.402H158.433V274.801H158.315V275.078H158.156V275.673H157.997V280.203H157.879V281.754H157.717V282.466H157.598V283.024H157.44V284.135H157.321V285.568H157.163V286.004H157.004V286.402H156.886V286.679H156.727V286.997H156.605V287.274H156.446V287.673H156.328V288.389H156.169V295.46H156.051V296.176H155.892V296.889H155.73V297.605H155.612V298.716H155.453V299.433H155.335V299.71H155.176V300.145H155.054V300.426H154.899V300.703H154.74V301.142H154.619V301.537H154.46V303.247H154.342V304.794H154.183V305.392H154.065V306.068H153.902V307.22H153.784V308.49H153.625V309.048H153.467V309.325H153.348V309.602H153.19V310.041H153.071V310.318H152.913V310.757H152.791V311.311H152.632V312.585H152.473V313.298H152.355V313.855H152.196V314.571H152.078V315.402H151.916V315.841H151.798V316.277H151.639V316.558H151.521V316.835H151.362V317.27H151.203V317.548H151.085V318.105H150.926V332.409H151.085V332.845H151.203V333.125H151.362V333.402H151.521L151.639 333.52V333.679H151.798L151.916 333.798V333.956H152.196V334.115H152.473V334.237H152.791V334.395H153.348V334.514H153.784V334.673H154.183V334.791H154.46V334.95H154.74V335.108H155.054V335.23H155.335V335.389L155.453 335.507H155.73V335.666H156.051V335.784H156.328V335.943H156.727V336.064H157.717V336.223H239.362V336.064H240.237V335.943H240.514V335.784H240.794V335.666H240.953V335.507L241.071 335.389H241.23V335.23H241.348V334.95H241.507V334.514H241.629V328.595H241.788V327.162H241.946V326.727H242.065V326.328H242.223V326.051H242.345V325.733H242.5V325.456H242.622V325.058H242.781V324.186H242.899V306.385H242.781V305.392H242.622V304.794H242.5V303.247H242.622V302.689H242.781V301.696H242.899V284.135H243.058V283.46H243.217V282.865H243.335V282.031H243.497V269.159H243.615V268.602H243.774V268.166H243.892V267.885H244.051V267.608H244.169V267.291H244.331V267.014H244.487V266.615H244.609V266.338H244.767V266.021H244.886V265.622H245.044V265.345H245.163V265.027H245.321V264.909H245.484V264.629H245.602V264.47H245.761L245.879 264.352V264.193H246.038L246.156 264.071V263.912H246.315V263.754H246.595V263.635H246.754V263.477L246.872 263.358H247.149V263.2H247.308L247.429 263.078V262.919H247.588V262.76H247.747V262.483L247.865 262.365H248.024V262.206L248.142 262.085H248.301V261.808H248.423V261.649H248.581V261.49L248.7 261.372H248.859V261.095H249.017V260.933L249.136 260.814H249.298V260.656L249.416 260.537H249.575V260.379H249.693V260.22H249.852V260.098H250.011V259.939L250.129 259.821H250.288V259.662L250.409 259.544H250.568V259.385H250.686V259.227H250.845V258.946L250.963 258.828H251.122V258.551H251.284V258.392H251.402V257.953H251.561V257.399H251.679V256.125H251.838V255.412H251.956V255.132H252.115V254.855H252.274V254.696L252.396 254.578H252.554V254.419L252.673 254.298H252.831V254.139L252.95 254.021H253.109V253.862L253.23 253.743H253.389V253.585H253.548V253.426L253.666 253.308H253.825V253.146L253.943 253.027H254.102V252.868L254.223 252.75H254.382V252.591H254.541V252.433L254.659 252.311H254.818V252.156L254.936 252.034H255.098V251.875L255.217 251.757H255.375V251.598L255.494 251.48H255.652V251.321H255.811V251.159L255.929 251.041H256.088V250.882L256.21 250.764H256.369V250.483H256.487V250.325H256.646L256.764 250.206V249.889H256.923V249.771H257.081V249.612H257.203V249.331H257.362L257.48 249.213V249.054H257.639V248.896H257.757V248.618H257.916V248.497H258.075V248.341L258.196 248.22H258.355V248.061L258.473 247.943H258.632V247.784H258.75V247.625H258.909L259.031 247.507V247.345H259.19V247.227H259.348V247.068L259.467 246.95H259.625V246.791H259.744V246.51H259.902V246.355H260.024V246.075H260.183V245.798H260.342V245.358H260.46V244.963H260.619V244.524H260.737V243.97H260.896V243.412H261.017V242.541H261.176V241.426H261.294V240.831H261.453V240.433H261.612V240.156H261.73V239.838H261.889L262.011 239.72V239.439H262.169V239.162H262.288V238.882H262.446V238.568H262.605V238.169H262.723V237.612H262.882V236.618H263.004V235.743H263.163V235.348H263.281V235.031H263.44V234.632H263.558V234.355H263.717V234.037H263.875V233.639H263.997V233.203H264.156V232.646H264.274V232.091H264.433V231.493H264.551V230.659H264.71V228.396H264.869V227.838H264.99V227.402H265.149V227.125H265.267V226.845H265.426V226.568H265.544V226.132H265.703V225.575H265.825V224.581H265.984V223.588H266.142V223.031H266.261V222.318H266.419V220.885H266.538V219.774H266.696V219.338H266.818V219.058H266.977V218.622H267.095V218.223H267.254V217.23H267.095V216.794H266.977V216.358H266.818L266.696 216.237V215.96H266.538V215.642H266.419V215.365H266.261V214.966H266.142V214.531H265.984V212.703H266.142V212.264H266.261V211.987H266.419V211.828H266.538V211.551H266.696L266.818 211.429V211.112H266.977L267.095 210.993V210.716H267.254V210.436H267.413V210.159H267.531V209.841H267.69V209.443H267.811V209.007H267.97V208.571H268.088V208.014H268.247V207.578H268.406V207.179H268.524V206.902H268.683V206.585H268.804V206.304H268.963V206.027H269.081V205.75H269.24L269.359 205.629V205.311H269.517V204.916H269.676V204.635H269.798V204.041H269.956V201.22H270.075V199.831H270.234V199.392H270.352V198.956H270.511V198.676H270.669V198.399H270.791V198.122H270.95V197.683H271.068V196.693H271.227V195.977H271.068V195.142H270.95V194.703H270.791L270.669 194.585V194.426H270.511V194.308H270.352V194.149H269.956V193.99H269.359V194.149H268.963V194.308H268.683V194.426H268.524V194.585L268.406 194.703H268.088V194.862L267.97 194.983H267.811V195.142H267.69V195.301H267.413V195.419H267.254V195.578H267.095V195.696H266.818V195.855L266.696 195.977H266.419V196.135H266.142V196.254H265.984V196.412H265.703V196.571H265.544V196.693H265.267V196.848H264.99V196.97H264.71V197.129H264.551V196.693H264.71V196.254H264.869V195.977H264.99V195.696H265.149V195.419H265.267V195.142H265.426V194.862H265.544V194.585H265.703V194.308H265.825V193.99H265.984V193.71H266.142L266.261 193.591V193.433H266.419L266.538 193.314V193.156H266.696V193.034H266.977V192.875H267.254V192.716H267.413V192.598H267.69V192.439H267.97L268.088 192.321V192.162H268.247V192.044H268.524V191.882H268.683L268.804 191.764V191.605H268.963V191.446H269.081V191.169H269.24L269.359 191.048V190.892H269.517V190.612H269.676V190.335H269.798V190.054H269.956V189.777H270.075V189.5H270.234V189.341H270.352V189.061H270.511V188.902H270.669V188.625L270.791 188.507H270.95V188.348H271.068V188.189H271.227L271.345 188.068V187.909H271.504L271.625 187.791V187.632H271.784V187.514H271.943V187.355L272.061 187.233H272.22V187.078H272.338V186.916H272.497L272.619 186.798V186.639H272.777V186.521H272.936V186.362L273.054 186.243H273.213V186.081H273.331V185.923H273.49L273.612 185.804V185.646H273.771V185.368L273.889 185.247H274.048V185.091H274.206L274.325 184.97V184.811H274.484V184.652L274.605 184.534H274.764V184.375L274.882 184.254H275.041V184.095H275.2L275.318 183.977V183.818H275.477V183.659L275.595 183.541H275.757V183.382L275.875 183.264H276.034V183.105H276.311V182.983H276.47V182.825L276.592 182.706H276.75V182.548H276.869V182.389H277.027L277.146 182.267V182.108H277.304V181.99H277.463V181.831L277.585 181.713H277.744V181.554H277.862V181.277H278.021V181.115L278.139 180.997H278.298V180.838H278.419V180.561H278.578V180.443H278.737V180.281H278.855V180.004H279.014V179.845H279.132V179.568H279.291L279.409 179.45V179.291H279.571L279.69 179.169V179.01H279.848V178.852H280.007L280.125 178.733V178.575H280.284L280.406 178.456V178.176H280.565V178.017H280.683V177.858H280.842V177.74H281V177.581H281.119V177.304H281.277L281.396 177.183V176.906H281.558V176.588H281.676V176.308H281.835V175.912H281.953V175.477H282.112V174.919H282.271V174.044H282.392V172.774H282.271Z" fill="white"/>
<path d="M202.294 105.868H202.176V106.145H202.017L201.899 106.264V106.544H201.74V106.821H201.581V107.139L201.46 107.26H201.301V107.537H201.183V107.814H201.024V107.973H200.906V108.132H200.747V108.412H200.588L200.467 108.531V108.689H200.308V108.966H200.19V109.247H200.031V109.402H199.913V109.683H199.754V109.96H199.632V110.237H199.473V110.399H199.315V110.676L199.196 110.794H199.038V111.074H198.919V111.352H198.761V111.669H198.639V112.064H198.48V112.345H198.321V112.662H198.203V113.061H198.044V113.338H197.926V113.615H197.767V113.933L197.646 114.051H197.487V114.331H197.369V114.49H197.21V114.767H197.051V115.047H196.933V115.324H196.774V115.483H196.652V115.76H196.494L196.375 115.879V116.199H196.217L196.098 116.318V116.477H195.94V116.754H195.781L195.659 116.875V117.034H195.5L195.382 117.152V117.311H195.223V117.588H195.105V117.747H194.946V117.865H194.788V118.145H194.666V118.463H194.507V118.74L194.389 118.862H194.23V119.139H194.112V119.416H193.953V119.574H193.831V119.852H193.673V120.132H193.514V120.409H193.396V120.727H193.237V121.004H193.119V121.402H192.96V121.679H192.838V122H192.679V122.277H192.521V122.554L192.402 122.676H192.244V122.831H192.125V122.99H191.967L191.845 123.112V123.27H191.686L191.568 123.389V123.666H191.409V123.824H191.25L191.132 123.946V124.105H190.973V124.264L190.852 124.382H190.693V124.541H190.575V124.818H190.416V124.939H190.257V125.216H190.139V125.375H189.98V125.652H189.862V125.933H189.7V126.368H189.581V126.645H189.423V127.085H189.304V127.362H189.146V127.639H188.987V127.919H188.865V128.078H188.706V128.355H188.588V128.632H188.429V128.912H188.311V129.348H188.152V130.064H187.994V130.899H188.152V131.615H188.311V132.01H188.429V132.169H188.588V132.446H188.706V132.605H188.865L188.987 132.727V132.885H189.304V133.004H189.581V133.162H189.98V133.321H190.973V133.439H191.967V133.598H192.402V133.72H192.679V133.879H192.96V133.997H193.119V134.156H193.396L193.514 134.274V134.433H193.831V134.591L193.953 134.713H194.23V134.872H194.389V134.99H194.666V135.149H194.946V135.267H195.223V135.426H195.382V135.585H195.659V135.706H195.94V135.865H196.098V135.983H196.494V136.142H196.774V136.26H197.21V136.419H197.646V136.541H198.044V136.699H198.48V136.858H198.919V136.977H199.196V137.135H199.632L199.754 137.254V137.416H200.031V137.534H200.308V137.693H200.467V137.811H200.747V137.97H201.024V138.129H201.301V138.247H201.581V138.406H201.74V138.527H202.017V138.686H202.176V138.804H202.453V138.963H202.575V139.122H202.852V139.24H203.011V139.399H203.288V139.52H203.568V139.679H203.845V139.797H204.281V139.956H204.72V140.074H205.115V140.233H205.554V140.392H205.99V140.514H206.426V140.672H206.706V140.791H206.984V140.949L207.102 141.068H207.261V141.227H207.541V141.385H207.7L207.818 141.507V141.666H207.977L208.095 141.784V142.061H208.254V142.22H208.372V142.5H208.534V143.213H208.693V145.48H208.534V146.314H208.372V146.868H208.254V147.466H208.095V148.02H207.977V148.46H207.818V148.737H207.7V149.014H207.541V149.294H207.382V149.571H207.261V150.007H207.102V150.287H206.984V151.281H206.825V154.814H206.706V155.531H206.548V156.088H206.426V157.635H206.548V157.912H206.706V158.074L206.825 158.193H207.102V158.352H207.7V158.193H208.254V158.074H208.534V157.912H208.811V157.794H209.088V157.635H209.247V157.517H209.527V157.358H209.804V157.199H209.963V157.081H210.24V156.922L210.359 156.801H210.521V156.642L210.639 156.524H210.916V156.365H211.075V156.247H211.234V156.088H211.355V155.929H211.514L211.632 155.808V155.649H211.791L211.909 155.531V155.372H212.068V155.254H212.227V155.095H212.348V154.936H212.507L212.625 154.814V154.656H212.784L212.902 154.537V154.379H213.061L213.183 154.26V154.102H213.342V153.98H213.5V153.821H213.619V153.662H213.777L213.896 153.544V153.385H214.054L214.173 153.267V153.108H214.335V152.987H214.494V152.828H214.771V152.669L214.889 152.551H215.169V152.392H215.328V152.274H215.605V152.112H215.882V151.993H216.041V151.835H216.321L216.44 151.716V151.558H216.757V151.399L216.875 151.281H217.034V151.122L217.156 151H217.311V150.841H217.433V150.564H217.592V150.406H217.71V150.129H217.869V150.007H218.027V149.73H218.149V149.453H218.308V149.294H218.426V149.014H218.585V148.855H218.703V148.578H218.862V148.46H219.021V148.301H219.142V148.02H219.301V147.862L219.419 147.743H219.578V147.466H219.696V147.308H219.855V147.027H219.973V146.75H220.136V146.591H220.294V146.314L220.413 146.193H220.571V146.034L220.69 145.916H220.848V145.757H220.97V145.598H221.125L221.247 145.48V145.321H221.406V145.199H221.565V145.041L221.683 144.922H221.842V144.764H221.96V144.487H222.122V144.328L222.24 144.206H222.399V144.047H222.558L222.676 143.929V143.652H222.835V143.493H222.956V143.213H223.112V142.936H223.234V142.659H223.392V142.22H223.511V141.784H223.669V141.385H223.828V141.068L223.95 140.949H224.109V140.672H224.227V140.514H224.386L224.504 140.392V140.233H224.663V140.074H224.821L224.943 139.956V139.797H225.102L225.22 139.679V139.52H225.379L225.497 139.399V139.24H225.656L225.774 139.122V138.963H225.936V138.804H226.095V138.527L226.213 138.406H226.372V138.247H226.49V137.97H226.649V137.811H226.771V137.534H226.926V137.135H227.088V136.858H227.206V136.419H227.365V136.142H227.484V135.865H227.642V135.585H227.761V135.267H227.923L228.041 135.149V134.99H228.2V134.872H228.359V134.713L228.477 134.591H228.636V134.433H228.757V134.274H228.913L229.034 134.156V133.879H229.193V133.72H229.352L229.47 133.598V133.439H229.629L229.75 133.321V133.162H229.909V132.885H230.027V132.727H230.186V132.446L230.304 132.328H230.463V131.892H230.622V131.615H230.74V131.335H230.899V130.899H231.021V130.618H231.179V130.341H231.298V130.064H231.456V129.906H231.615V129.747L231.737 129.625H231.896V129.348H232.014V129.189H232.173L232.291 129.071V128.912H232.45L232.571 128.791V128.473H232.727V128.078H232.889V126.527H233.007V125.814H233.166V125.534H233.284V125.098H233.443V124.818H233.561V124.541H233.723V124.264H233.842V123.824H234V123.27H234.159V122.676H234.277V122.118H234.436V121.679H234.554V121.004H234.713V120.291H234.835V118.862H234.713V118.581H234.554V118.304H234.436V118.145H234.277V117.865L234.159 117.747H233.842V117.588L233.723 117.47H233.561V117.311H233.443V117.152H233.166V117.034H233.007V116.875L232.889 116.754H232.571V116.595L232.45 116.477H232.291V116.318H232.014L231.896 116.199V116.037H231.615V115.879H231.298V115.76H231.021V115.602H230.74V115.483H230.463V115.324H230.304V115.203H230.027V115.047H229.909V114.885H229.75V114.767H229.47V114.608L229.352 114.49H229.193V114.331H229.034L228.913 114.213V114.051H228.757L228.636 113.933V113.774H228.477V113.615L228.359 113.497H228.2V113.338H228.041L227.923 113.216V113.061H227.761L227.642 112.939V112.781H227.484L227.365 112.662V112.504H227.206V112.345L227.088 112.227H226.926V112.064H226.771L226.649 111.946V111.787H226.49V111.669H226.213V111.51H226.095V111.352H225.936V111.233H225.656V111.074H225.497L225.379 110.953V110.794H225.102V110.676H224.943V110.517L224.821 110.399H224.504V110.237H224.386V110.078H224.227L224.109 109.96V109.801H223.95L223.828 109.683V109.524H223.511L223.392 109.402V109.247H223.234V109.085H222.956V108.966H222.676V108.808H222.399V108.689H222.122V108.531H221.842V108.412H221.565V108.25H221.247V108.132H220.97V107.973H220.69V107.814H220.413V107.696H220.136V107.537H219.696V107.419H219.142V107.26H218.703V107.139H218.308V106.98H218.027V106.821H217.71V106.703H217.433V106.544H217.156L217.034 106.426V106.264H216.757V106.145H216.44V105.987H216.159V105.868H215.882V105.71H215.605V105.551H215.328V105.433H215.048V105.274H214.889V105.152H214.612V104.993L214.494 104.875H214.335V104.716H214.054V104.558H213.896V104.436H213.619V104.277L213.5 104.159H213.183V104L213.061 103.882H212.784V103.723H212.348V103.605H212.068V103.446H211.514V103.284H210.916V103.166H210.359V103.007H210.081V102.889H209.804V102.73H209.527V102.612H209.247V102.449H208.97V102.294H208.534V102.172H207.977V102.014H207.382V102.172H206.984V102.294H206.706V102.449H206.548V102.612L206.426 102.73H206.267V103.007H206.109V103.166L205.99 103.284H205.831V103.446H205.554V103.605H205.274V103.723H204.004V103.882H203.568V104H203.288V104.159L203.169 104.277H203.011V104.436H202.852V104.716H202.734V104.875H202.575V105.274H202.453V105.551H202.294V105.868Z" fill="white"/>
<path d="M234.717 127.638H234.555V127.801L234.436 127.919H234.159V128.078H234.001V128.196H233.842V128.473H233.724V128.632H233.565V128.912H233.443V129.466H233.284V130.064H233.166V130.341H233.007V130.74H232.889V130.899H232.727V131.176H232.568V131.334L232.45 131.453H232.291V131.733H232.173V131.892H232.014V132.169H231.892V132.446H231.737V132.726H231.615V133.162H231.457V133.439H231.298V133.72H231.18V134.155H231.021V134.432H230.903V134.591H230.74V134.872H230.622V135.149H230.463V135.426H230.305V135.706H230.186V135.865H230.028V136.142H229.909V136.419H229.751V136.699H229.629V136.976H229.47V137.135L229.352 137.253H229.193V137.412H229.034L228.916 137.534V137.693H228.754L228.636 137.811V137.97H228.477V138.247H228.359V138.405H228.2V138.527H228.041V138.804H227.923V138.963H227.764V139.24H227.642V139.399H227.484V139.679H227.365V139.956H227.207L227.088 140.074V140.233H226.926V140.513H226.767V140.672L226.649 140.79H226.49V141.068H226.372V141.226H226.213V141.507H226.092V141.784H225.936V141.943H225.774V142.22H225.656V142.5H225.497V142.659H225.379V142.936H225.22L225.102 143.054V143.213H224.94V143.493H224.821V143.652H224.663V143.929H224.504L224.386 144.047V144.328H224.227V144.486H224.109V144.763H223.95V145.04H223.828V145.199H223.669V145.321H223.511V145.598H223.392V145.757H223.234V145.915L223.115 146.034H222.953V146.193L222.835 146.314H222.676V146.473H222.558V146.75H222.399V146.868H222.24V147.027H222.122V147.186H221.963L221.842 147.307V147.466H221.683V147.743H221.565V148.02H221.406V148.301H221.247V148.578H221.126V149.135H220.97V149.73H220.849V150.128H220.69V150.564H220.571V150.841H220.413V151.122H220.294V151.399H220.136V151.716H219.977L219.855 151.834V151.993H219.696V152.274L219.578 152.392H219.419V152.669H219.301V152.828H219.139V153.108H219.021V153.385H218.862V153.544H218.703V153.821H218.585V153.98H218.426V154.26L218.308 154.378H218.149V154.537H218.028V154.814H217.869V154.936H217.71V155.253L217.592 155.372H217.433V155.649H217.315V155.929H217.153V156.247H217.034V156.642H216.876V157.081H216.757V157.517H216.599V157.794H216.44L216.321 157.915V158.193H216.163V158.351H216.041V158.51H215.882L215.764 158.628V158.787H215.605V158.909H215.446V159.068L215.328 159.186H215.169V159.345H215.048V159.622H214.889V159.78L214.771 159.899H214.612V160.179H214.494V160.338H214.335V160.615H214.176V160.895H214.055V161.172H213.896V161.331H213.778V161.608H213.619L213.501 161.73V162.047H213.338V162.165H213.183V162.324L213.061 162.443H212.903V162.723H212.784V162.882H212.626V163.159H212.507V163.436H212.349V163.875H212.227V164.429H212.068V164.868H211.909V165.145H211.791V165.422H211.632V165.581L211.514 165.699H211.355V165.861L211.234 165.98H211.075V166.257H210.916V166.415H210.798V166.574H210.639L210.521 166.696V166.973H210.362V167.132H210.24V167.409H210.082L209.963 167.53V167.848H209.805V168.125H209.646L209.528 168.243V168.402H209.369V168.682H209.247V168.838H209.088L208.97 168.959V169.118H208.811L208.693 169.236V169.395H208.534V169.513H208.376V169.676L208.254 169.794H208.095V169.953H207.977V170.23H207.818V170.388L207.7 170.51H207.541V170.787H207.382V170.946H207.261V171.223H207.102V171.5H206.984V171.78H206.825V171.939H206.707V172.216H206.548V172.375H206.426V172.652H206.267V172.774H206.109V172.932L205.99 173.051H205.832V173.209H205.713V173.486H205.555V173.649H205.433V173.926H205.274V174.044H205.115V174.324H204.997V174.638H204.838L204.72 174.76V175.037H204.561V175.196L204.44 175.314H204.281V175.595H204.163V175.753H204.004V175.912H203.845L203.727 176.03V176.189H203.568V176.466L203.446 176.588H203.288V176.905H203.169V177.182H203.011V177.463H202.852V177.858H202.734V178.297H202.575V178.733H202.453V179.01H202.294V179.169H202.176V179.449H202.017L201.899 179.568V179.726H201.74V179.845H201.582V180.003L201.46 180.125H201.301V180.28H201.183V180.439H201.024L200.906 180.561V180.838H200.747V180.997H200.588L200.467 181.115V181.436H200.308L200.19 181.554V181.831H200.031V182.267H199.913V182.824H199.754V183.382H199.913V183.976H200.031V184.253H200.19L200.308 184.375V184.534H200.467L200.588 184.652V184.811H200.747V184.97H200.906L201.024 185.088V185.25H201.301V185.368H201.582V185.527H201.899V185.645H202.176V185.804H202.453V185.922H202.852V186.081H203.169V186.24H203.446V186.361H203.727V186.52H204.004V186.638H204.163V186.797H204.44V186.915H204.72V187.074H204.997V187.236L205.115 187.355H205.433V187.513H205.713V187.632H205.99V187.79H206.267V187.912H206.426V188.068L206.548 188.189H206.825V188.348H206.984V188.507L207.102 188.625H207.261V188.784H207.541V188.902H207.7V189.064H207.977V189.182H208.254V189.341H208.534V189.5H208.811V189.618H209.247V189.777H209.805V189.895H210.24V190.054H210.639V190.176H211.075V190.334H211.355V190.453H211.514V190.611H211.791V190.77L211.909 190.888H212.227V191.051L212.349 191.169H212.626V191.328H212.784V191.446H213.061V191.605H213.338V191.763H213.501V191.882H213.778V192.04H214.055L214.176 192.162V192.321H214.494V192.439H214.771V192.598H215.169V192.716H215.605V192.875H217.433V193.034H218.308V193.155H218.585V193.314H218.862V193.432H219.021V193.591H219.301L219.419 193.709V193.868H219.578L219.696 193.99V194.149H219.977V194.307H220.136V194.426H220.413V194.584H220.571V194.703H220.849V194.865H221.126L221.247 194.983V195.142H221.565V195.301L221.683 195.419H221.963V195.578H222.122V195.696H222.399V195.855H222.558V195.976H222.835V196.135H223.234V196.253H223.828V196.412H224.821V196.253H225.379V196.135H225.656V195.976H225.936V195.855H226.213V195.696H226.372L226.49 195.578V195.419H226.649L226.767 195.301V195.142H226.926V194.983H227.088L227.207 194.865V194.703H227.365V194.426L227.484 194.307H227.642V194.149H227.764V193.868H227.923V193.709L228.041 193.591H228.2V193.432H228.359L228.477 193.314V193.155H228.754V193.034H228.916V192.875H229.034V192.716H229.352L229.47 192.598V192.439H229.629V192.321H229.909V192.162L230.028 192.04H230.186V191.882L230.305 191.763H230.463V191.605H230.622V191.446L230.74 191.328H230.903V191.169L231.021 191.051H231.18V190.888L231.298 190.77H231.457V190.611H231.615V190.453L231.737 190.334H231.892V190.176L232.014 190.054H232.173V189.895H232.291V189.618H232.45L232.568 189.5V189.341H232.727V189.064H232.889V188.902H233.007V188.625H233.166L233.284 188.507V188.348H233.443V188.068H233.565V187.912H233.724L233.842 187.79V187.513H234.001V187.355H234.159V187.074H234.278V186.915H234.436V186.638L234.555 186.52H234.717V186.361L234.835 186.24H234.994V186.081H235.153V185.922L235.271 185.804H235.43V185.645H235.707L235.828 185.527V185.368H236.105V185.25H236.264V185.088H236.423L236.541 184.97V184.811H236.703V184.652L236.821 184.534H236.98V184.375H237.099V184.095H237.257V183.818H237.416V183.54H237.538V183.263H237.693V182.824H237.815V182.547H237.974V182.267H238.092V181.99H238.251V181.713H238.369V181.554H238.528V181.274H238.69V181.115L238.808 180.997H238.967V180.838L239.085 180.72H239.244V180.561L239.365 180.439H239.521V180.28H239.68V180.125L239.801 180.003H239.96V179.845L240.078 179.726H240.237V179.568H240.355V179.287H240.517L240.636 179.169V179.01H240.794V178.851H240.953L241.071 178.733V178.453H241.23V178.297H241.352V178.017H241.507V177.74H241.629V177.463H241.788V177.182H241.946V176.905H242.065V176.747H242.224V176.466H242.342V176.311H242.504L242.622 176.189V176.03H242.781V175.753H242.899V175.595H243.058V175.476H243.217V175.314L243.338 175.196H243.494V175.037L243.615 174.919H243.774V174.76L243.892 174.638H244.051V174.483H244.169V174.324H244.328V174.203H244.49V174.044L244.609 173.926H244.767V173.767L244.886 173.649H245.044V173.486H245.166V173.328H245.321V173.209H245.48V173.051L245.602 172.932H245.761V172.652H245.879V172.497H246.038L246.156 172.375V172.057H246.315L246.436 171.939V171.78H246.595V171.5H246.754L246.872 171.382V171.223H247.031V171.064H247.149V170.787H247.308L247.43 170.669V170.51H247.588V170.388H247.747V170.23L247.865 170.111H248.024V169.794L248.142 169.676H248.305V169.395H248.423V169.118H248.582V168.838H248.7V168.524H248.859V168.243H249.017L249.136 168.125V167.848H249.294V167.686H249.416V167.409H249.575V167.25L249.693 167.132H249.852V166.973H250.011L250.129 166.855V166.696H250.291L250.409 166.574V166.415H250.568V166.257H250.686V165.98H250.845L250.963 165.861V165.699H251.122V165.581H251.281V165.263L251.403 165.145H251.561V164.986H251.68V164.709H251.838L251.957 164.588V164.429H252.115V164.152H252.274V163.993L252.396 163.875H252.555V163.713L252.673 163.595H252.832V163.436L252.95 163.318H253.109V163.159H253.23V163H253.389V162.882H253.548V162.723L253.666 162.601H253.825V162.443H253.943V162.165H254.105L254.224 162.047V161.885H254.382V161.73H254.541L254.659 161.608V161.331H254.818V161.054H254.936V160.733H255.095V160.456H255.217V160.179H255.376V159.78H255.494V159.345H255.653V158.909H255.811V158.51H255.93V158.193H256.088V157.915L256.21 157.794H256.369V157.635L256.487 157.517H256.646V157.199L256.764 157.081H256.923V156.922H257.082L257.203 156.801V156.642H257.362V156.365L257.48 156.247H257.639V155.929H257.757V155.649H257.916V155.53H258.075V155.253H258.196V154.936H258.355L258.474 154.814V154.537H258.632V154.26H258.751V153.98H258.909V153.662H259.031V153.385H259.19V152.986H259.349V152.669H259.467V152.392H259.626V152.115H259.744V151.834H259.903V151.557H260.024V151.28H260.183V151.122H260.342V150.841H260.46V150.564H260.619V150.287H260.737V150.007H260.896V149.73H261.017V149.294H261.176V148.855H261.294V148.459H261.453V147.743H261.612V147.584H261.453V146.868H261.294V146.591H261.176V146.314H261.017L260.896 146.193V145.915H260.737V145.598H260.619V145.321H260.46V145.04H260.342V144.605H260.183V144.486H260.024V144.206H259.903V144.047H259.744L259.626 143.929V143.77H259.467L259.349 143.652V143.493H259.19V143.334H259.031V143.213H258.751V143.054H258.474V142.936H258.196V142.777H257.916V142.659H257.639V142.5H257.48V142.341H257.203L257.082 142.22V142.061H256.923V141.943H256.646V141.784H256.487L256.369 141.665V141.507H256.21L256.088 141.385V141.226H255.93V141.068L255.811 140.949H255.653V140.79H255.494L255.376 140.672V140.513H255.217L255.095 140.392V140.233H254.936V140.074L254.818 139.956H254.659V139.797L254.541 139.679H254.382V139.52H254.105V139.399H253.943V139.24H253.666L253.548 139.122V138.963H253.23V138.804H252.832V138.686H252.555V138.527H252.396V138.405H252.115V138.247H251.957L251.838 138.128V137.97H251.68V137.811H251.561V137.534H251.403L251.281 137.412V137.135H251.122V136.976H250.963L250.845 136.858V136.699H250.686V136.419H250.568V136.26H250.409V136.142H250.129V135.983L250.011 135.865H249.852V135.706H249.693V135.588H249.416V135.426H249.294V135.267H249.017V135.149H248.859V134.99H248.582V134.872H248.423V134.713L248.305 134.591H248.142V134.432H248.024V134.274H247.865L247.747 134.155V133.997H247.588V133.878H247.43V133.72L247.308 133.598H247.149V133.439L247.031 133.321H246.872V133.162H246.754V133.003H246.595V132.885H246.436V132.726L246.315 132.605H246.156V132.446L246.038 132.328H245.879V132.169H245.761V132.01H245.48V131.892H245.166V131.733H244.886V131.611H244.609V131.453H244.169V131.334H243.892V131.176H243.615V131.057H243.338V130.899H243.058V130.74H242.781V130.618H242.504V130.459H242.224V130.341H241.946V130.182H241.629V130.064H241.352V129.905H241.23V129.747H241.071V129.625H240.794V129.466H240.636L240.517 129.348V129.189H240.355L240.237 129.071V128.912H239.96V128.79H239.801V128.632H239.521V128.473H239.365V128.355H238.967V128.196H238.69V128.078H238.251V127.919H237.815V127.801H237.416V127.638H237.099V127.48H236.703V127.361H236.105V127.203H235.551V127.361H234.994V127.48H234.717V127.638Z" fill="white"/>
<path d="M188.588 184.534V184.375H188.987V184.253H189.304V184.098H189.581L189.7 183.976V183.817H189.858V183.659L189.98 183.54H190.257V183.382H190.416V183.263H190.575V183.101L190.693 182.983H190.852V182.824H191.132L191.25 182.706V182.547H191.409V182.388H191.568V182.111L191.686 181.99H191.845V181.713H191.967V181.436H192.125V181.115H192.244V180.719H192.402V180.439H192.521V180.122H192.679V179.844H192.838L192.96 179.726V179.449H193.119V179.169H193.237V178.851H193.396V178.574H193.514V178.297H193.673V178.017H193.831V177.581H193.953V177.301H194.112V177.024H194.23V176.747H194.389V176.469H194.507V176.189H194.669V176.03H194.787V175.753H194.946V175.473H195.105V175.314H195.223V175.037H195.382L195.5 174.919V174.76H195.659L195.781 174.642V174.483H195.94V174.321H196.217V174.203H196.652V174.044H197.051V173.926H197.646V173.767H198.044V173.649H198.48V173.486H198.76V173.331H199.037V173.209H199.196V173.051L199.315 172.932H199.632V172.774L199.754 172.655H199.912V172.375H200.031V172.216H200.19V172.057H200.308V171.78H200.467V171.5H200.588V171.223H200.747V170.946H200.906V170.51H201.024V170.23H201.183V169.953H201.301V169.672H201.46V169.236H201.581V168.959H201.74V168.52H201.899V167.53H201.74V167.25H201.581V166.973L201.46 166.855H201.183V166.696H200.906V166.574H200.19V166.696H199.754V166.855H199.315V166.973H198.919V167.132H198.639V167.25H198.044V167.409H197.21V167.53H195.5V167.686H194.946V167.848H194.507V167.966H194.23V168.125H193.953V168.243H193.673V168.402H193.237V168.52H192.96V168.682H192.402V168.841H191.845V168.959H191.25V169.118H190.693V169.236H187.436V169.395H186.325V169.517H185.885V169.672H185.608V169.794H185.173V169.953H184.892V170.111H184.615V170.23H184.179V170.388H183.504V170.51H182.352V170.669H181.794V170.787H181.358V170.946H181.078V171.064H180.801V171.223H180.524V171.382H180.244V171.5H179.926V171.662L179.808 171.78H179.531V171.939H179.254V172.057H178.973V172.216H178.537V172.375H178.257V172.497H177.662V172.655H177.267V172.774H176.828V172.932H176.392V173.051H175.994V173.209H175.717V173.331H175.399V173.486H175.119V173.649H174.842V173.767H174.565V173.926H174.129V174.044H173.848V174.203H173.571V174.321H173.291V174.483H173.173V174.642H173.014V174.76H172.855V175.037H172.737V175.912H172.855V176.189H173.014V176.311H173.173V176.469L173.291 176.588H173.453V176.747H173.571V176.905H173.73V177.024H174.007V177.182L174.129 177.301H174.443V177.463L174.565 177.581H174.842V177.74H175L175.119 177.858V178.017H175.399V178.176H175.558V178.297H175.835V178.456H175.994V178.574H176.271V178.733H176.71V178.851H176.987V179.01H177.385V179.169H177.98V179.287H178.379V179.449H178.973V179.567H179.254V179.726H179.531V179.844H179.808V180.003H180.085V180.122H180.244V180.284H180.524V180.439H180.801L180.919 180.561V180.719H181.24V180.838H181.517V180.997L181.635 181.115H181.916V181.274H182.071V181.436L182.193 181.554H182.51V181.713L182.629 181.831H182.906V181.99H183.068V182.111H183.345V182.27H183.622V182.388H183.781V182.547H184.058V182.706L184.179 182.824H184.456V182.983H184.615V183.101H184.774V183.263H185.054L185.173 183.382V183.54H185.331L185.45 183.659V183.817H185.608V183.976H185.885V184.098H186.166V184.253H186.443V184.375H186.72V184.534H188.588Z" fill="white"/>
</svg>
