<svg width="388" height="420" viewBox="0 0 388 420" fill="none" xmlns="http://www.w3.org/2000/svg">
<path d="M191.933 192.396C191.78 192.186 191.625 191.977 191.466 191.771C191.618 191.983 191.777 192.189 191.933 192.396Z" fill="white"/>
<path d="M222.003 164.409C219.395 168.014 216.78 171.649 214.351 175.375C211.952 179.054 209.459 182.689 207.229 186.476C204.905 190.429 202.915 194.551 201.138 198.774C200.517 200.257 199.915 201.753 199.3 203.24C199.229 203.412 199.202 203.686 198.979 203.689C198.736 203.689 198.672 203.416 198.567 203.23C198.486 203.088 198.523 202.959 198.55 202.801C198.635 202.304 198.865 201.882 199.121 201.466C199.182 201.419 199.243 201.375 199.304 201.328C200.192 200.487 200.439 199.291 199.956 198.152C199.5 197.081 198.476 196.453 197.236 196.483C196.527 196.5 196.128 195.966 196.449 195.375C197.77 192.919 198.942 190.382 200.564 188.095C203.138 184.47 205.223 180.568 207.01 176.5C208.642 172.784 210.128 169.014 211.449 165.176C212.189 163.034 212.854 160.878 213.182 158.628C213.223 158.351 213.324 158.071 213.111 157.669C213.013 158 212.932 158.203 212.902 158.412C212.469 161.341 211.479 164.115 210.53 166.899C209.28 170.554 207.834 174.135 206.236 177.649C205.135 180.071 203.993 182.483 202.537 184.713C200.463 187.889 198.277 190.99 196.682 194.453C196.598 194.642 196.567 194.939 196.253 194.959C195.993 194.51 196.175 193.932 195.807 193.412C195.638 194.429 194.868 194.875 194.348 195.51C193.827 195.051 193.659 194.52 193.909 193.797C193.54 194.328 193.523 194.101 193.152 193.76C192.699 193.345 192.307 192.882 191.932 192.399C192.334 192.949 192.719 193.51 193.098 194.078C193.202 194.233 193.311 194.378 193.101 194.588C192.544 195.132 192.101 195.77 191.868 196.52C191.726 196.97 191.5 197.25 191.037 197.429C189.253 198.132 188.398 200.993 190.027 202.389C190.152 202.493 190.317 202.568 190.175 202.807C189.828 203.405 189.517 204.027 189.165 204.679C188.557 204.101 188.432 203.304 188.162 202.595C187.182 200.037 186.199 197.483 185.081 194.98C184.017 192.608 182.767 190.338 181.578 188.034C180.165 185.294 178.432 182.75 176.73 180.189C175.763 178.736 174.865 177.24 173.902 175.787C173.108 174.588 172.273 173.416 171.436 172.243C170.436 170.845 169.534 169.372 168.398 168.068C168.321 167.976 168.297 167.831 168.246 167.713C168.29 167.659 168.334 167.601 168.378 167.547C171.527 170.223 174.236 173.267 176.439 176.78C177.355 178.243 178.723 179.361 179.905 180.611C181.675 182.483 183.395 184.405 185.371 186.071C186.939 187.392 188.567 188.642 190.023 190.098C190.547 190.625 191.017 191.189 191.466 191.77C190.723 190.747 190.017 189.693 189.037 188.872C186.175 186.47 183.29 184.101 180.831 181.267C179.429 179.652 177.767 178.274 176.557 176.486C175.388 174.75 174.25 172.99 172.871 171.405C170.824 169.054 168.128 167.054 166.081 164.696C165.905 164.493 165.192 164.351 165.192 164.196V279.152C165.192 279.02 165.689 278.892 165.79 278.757C166.858 277.368 168.382 276.307 169.5 274.97C170.632 273.608 172.108 272.473 173.392 271.24C173.334 271.064 173.365 270.899 173.405 270.75C173.365 270.899 173.385 271.064 173.446 271.24C173.871 270.875 174.304 270.514 174.733 270.149C174.773 270.145 174.794 270.122 174.79 270.078C175 269.828 175.439 269.824 175.507 269.419C175.665 269.291 175.767 269.132 175.77 268.922L175.794 268.939L175.784 268.912C175.844 268.865 175.909 268.818 175.969 268.77C176.513 268.314 177.23 268.081 177.621 267.412C177.855 267.01 178.169 266.571 178.561 266.362C179.905 265.649 180.936 264.645 181.672 263.328C181.716 263.321 181.75 263.294 181.76 263.25C182.165 263.03 182.456 262.699 182.598 262.26C182.635 262.243 182.523 262.216 182.534 262.176L182.49 262.172V262.115C182.49 261.679 183.409 261.115 183.78 260.584C185.023 258.79 186.561 257.182 187.348 255.084C187.905 253.598 188.49 252.111 188.952 250.591C189.605 248.449 189.898 246.213 190.584 244.078C190.706 244.061 190.834 244.04 190.956 244.024C191.334 244.257 191.088 244.78 191.429 245.034C191.459 245.388 191.648 245.591 192.01 245.618C192.632 246.061 192.534 246.892 192.986 247.513C193.091 247.192 193.169 246.953 193.246 246.716C193.348 246.679 193.415 246.618 193.409 246.5C193.52 246.378 193.632 246.253 193.743 246.132C195.067 246.331 195.067 246.331 195.55 245.338C196.165 244.767 196.557 244.138 196.071 243.284C196.034 243.216 196.01 243.064 196.04 243.044C196.564 242.699 196.331 242.111 196.466 241.645C196.723 241.679 196.73 241.882 196.824 242.017C197.52 243.067 197.76 244.304 198.216 245.449C199.159 247.811 199.902 250.25 200.851 252.608C201.551 254.344 202.24 256.091 203.213 257.713C203.682 258.49 204.169 259.223 204.807 259.871C205.905 260.983 206.986 262.111 208.027 263.274C208.665 263.99 209.334 264.689 210.081 265.253C210.892 265.865 211.73 266.439 212.463 267.149C212.855 267.524 213.341 267.753 213.801 268.02C213.838 268.392 214.088 268.594 214.388 268.763C214.388 268.794 214.409 268.811 214.439 268.814C214.855 269.446 215.51 269.834 216.037 270.358C217.118 271.439 218.388 272.324 219.422 273.466C219.554 273.615 219.665 273.625 219.801 273.49C220.121 273.622 220.165 273.986 220.412 274.209C221.101 274.838 221.878 275.486 222.52 276.149C222.699 276.331 223.138 276.517 223.138 276.706V162.99C221.409 163.463 222.348 163.932 222.003 164.409Z" fill="white"/>
<path d="M140.987 138.544C138.081 136.125 135.233 133.784 132.02 131.784C128.946 129.872 125.811 128.159 122.635 126.422C120.97 125.514 119.358 124.537 117.601 123.824C114.96 122.747 112.264 121.828 109.601 120.797C105.149 119.068 100.436 117.831 95.6826 117.382C93.24 117.149 90.8143 116.993 88.2197 117.101V201.534C89.0846 202.358 89.6657 203.23 90.3582 204.047C90.6522 204.395 91.0069 204.75 91.2907 205.101C91.6961 205.601 92.2197 206.031 92.5238 206.625C92.9157 207.382 93.4495 208.135 94.0373 208.689C95.3853 209.953 97.0001 210.885 98.892 211.166C98.8989 211.064 98.8413 211.014 98.7772 210.966C98.7535 210.949 98.7366 210.933 98.7164 210.916C98.7366 210.933 98.7569 210.949 98.7805 210.966C98.8447 211.014 98.9089 211.064 98.8988 211.166C99.0069 211.166 99.1116 211.162 99.2197 211.162C99.338 211.182 99.4562 211.203 99.5745 211.223C99.7704 211.362 100 211.345 100.22 211.362C100.304 211.436 100.399 211.46 100.51 211.429C100.858 211.696 101.287 211.541 101.666 211.632C102.74 212.024 103.879 211.929 104.98 212.091C106.983 212.385 109.003 212.135 111.01 212.291C111 212.53 111.524 212.787 111.068 212.99C110.666 213.169 110.318 213.426 109.946 213.642C108.838 214.284 107.703 214.889 106.666 215.628C105.22 216.655 103.635 217.52 102.493 218.936C102.429 219.017 102.318 219.057 102.23 219.122C101.365 219.774 100.524 220.463 99.6319 221.074C98.4055 221.909 97.8008 223.341 96.5744 224.166C96.5305 224.196 96.4798 224.28 96.49 224.324C96.6656 225.074 96.1791 225.581 95.7771 226.061C94.9595 227.037 94.0609 227.939 94.3109 229.385C94.3413 229.557 94.2703 229.814 94.1048 229.99C93.3852 230.757 93.017 231.706 92.6082 232.662C92.2095 233.588 91.9291 234.51 92.1217 235.483C92.2433 236.088 91.9798 236.693 92.3244 237.311C92.946 238.426 93.0474 239.655 92.7062 240.902C92.6352 241.152 92.571 241.382 92.6487 241.662C93.2535 243.818 92.8244 245.855 91.946 247.855C91.7231 248.372 91.5102 248.97 91.5508 249.51C91.6555 250.878 92.1656 252.139 92.8886 253.311C93.2805 253.953 93.6217 254.584 93.6251 255.402C93.6251 256.071 93.6082 256.784 93.9764 257.429C94.3616 258.105 94.4967 258.868 94.6217 259.632C94.8852 261.257 94.1521 262.743 94.0136 264.307C93.9663 264.868 93.5136 265.368 93.5947 265.875C93.821 267.277 94.2197 268.642 95.3481 269.649C96.169 270.382 96.642 271.267 96.7602 272.392C96.8481 273.21 97.1048 274 97.5102 274.75C97.9021 275.47 97.9224 276.311 98.0237 277.125C98.1048 277.811 97.8683 278.443 97.8717 279.105C97.8717 280.328 97.9291 281.551 97.7737 282.774C97.6892 283.453 97.9562 284.061 98.5744 284.345C99.2839 284.669 99.9731 285.061 100.699 285.318C101.777 285.696 102.483 286.507 103.291 287.209C103.612 287.49 103.882 287.872 104.392 287.595C104.524 287.959 104.122 288.639 104.973 288.578C104.977 288.578 105.01 288.703 104.987 288.74C104.78 289.034 105.057 289.216 105.196 289.331C105.547 289.625 105.784 289.993 106.041 290.358C106.071 290.459 105.862 290.686 106.169 290.642C106.314 290.622 106.456 290.493 106.52 290.737C106.784 291.726 107.365 292.581 107.635 293.595C107.939 294.733 108.166 295.976 109.422 296.703C110.047 297.064 110.588 297.199 111.247 297.155C112.152 297.098 113.078 297.034 113.922 297.439C114.828 297.878 115.777 298.172 116.645 298.767C117.537 299.382 118.612 299.753 119.429 300.527C119.507 300.601 119.581 300.693 119.706 300.635C120.267 300.368 120.52 300.828 120.838 301.115C121.328 301.561 121.588 302.28 122.247 302.5C122.764 302.672 123.206 302.993 123.713 303.142C124.152 303.267 124.666 303.534 125.074 303.334C125.557 303.098 126.139 303.405 126.547 302.98C126.568 302.96 126.686 302.983 126.706 303.017C127.014 303.53 127.476 303.284 127.794 303.139C128.395 302.862 129.03 302.686 129.625 302.345C130.112 302.061 130.808 301.882 131.449 301.794C131.683 301.76 131.939 301.267 132.152 301.818C132.389 301.598 132.78 302 132.976 301.605C133.081 301.395 133.277 301.409 133.48 301.419C134.064 301.453 134.554 301.267 134.882 300.753C135.128 300.919 135.335 300.804 135.503 300.632C135.693 300.436 135.902 300.49 136.122 300.53C136.416 300.608 136.645 300.642 136.926 300.372C137.041 300.26 137.311 299.554 137.747 300.139C137.757 300.149 137.872 300.108 137.902 300.064C138.108 299.784 138.473 299.794 138.73 299.608C138.878 299.693 139.058 299.686 139.152 299.578C139.676 298.973 140.514 298.862 141.081 298.331C141.625 297.811 142.699 297.97 142.845 296.943C142.858 296.845 142.933 296.814 143.037 296.828C143.679 296.916 144.125 296.531 144.642 296.247C144.98 296.061 145.003 295.608 145.487 295.703C145.493 295.699 145.301 295.693 145.301 295.693V142.531C143.571 141.166 142.534 139.828 140.987 138.544Z" fill="white"/>
<path d="M296.101 116.436C293.257 116.385 290.48 116.899 287.679 117.338C284.618 117.821 281.615 118.5 278.676 119.477C276.314 120.26 274.037 121.25 271.736 122.206C270.027 122.916 268.27 123.521 266.652 124.433C263.763 126.058 260.882 127.693 258.02 129.362C254.959 131.152 251.996 133.095 249.246 135.331C247.473 136.771 245.794 138.298 244.074 139.801C243.713 140.119 243.03 140.446 243.03 140.767V296.446C243.03 296.764 244.253 296.919 244.753 297.443C244.976 297.676 245.341 297.902 245.75 297.96C246.415 298.048 247 298.358 247.557 298.727C248.169 299.135 248.777 299.534 249.466 299.828C250.412 300.23 251.409 300.5 252.324 300.943C252.686 301.115 253.138 300.649 253.344 301.186C253.868 300.896 254.186 301.149 254.432 301.595C254.432 301.595 254.48 301.585 254.49 301.571C254.939 300.909 254.888 301.629 255.03 301.774C255.246 301.994 255.476 302.139 255.784 302.24C257.378 302.767 259.013 302.828 260.669 302.787C260.932 302.784 261.169 302.798 261.419 302.693C262.067 302.423 262.655 302.051 263.246 301.673C263.871 301.271 264.311 300.602 264.986 300.342C265.645 300.088 266.28 299.821 266.855 299.423C267.29 299.119 267.814 298.899 268.263 298.713C268.983 298.416 269.679 298.041 270.399 297.747C271.192 297.426 271.949 297.2 272.797 297.22C273.753 297.247 274.676 297.156 275.348 296.342C275.52 296.132 275.706 295.916 275.936 295.781C276.699 295.342 277 294.639 277.121 293.821C277.246 292.983 277.621 292.227 277.993 291.494C278.307 290.875 278.777 290.331 279.142 289.73C279.554 289.048 280.027 288.402 280.503 287.764C280.932 287.189 281.652 286.994 282.182 286.534C282.878 285.933 283.736 285.585 284.618 285.345C285.365 285.142 285.831 284.575 286.409 284.146C286.858 283.811 286.432 283.463 286.422 283.132C286.409 282.659 286.632 282.146 286.523 281.777C286.321 281.108 286.243 280.436 286.267 279.781C286.29 279.142 285.915 278.629 285.932 278C285.956 277.159 286.148 276.439 286.578 275.689C287.013 274.929 287.159 274 287.419 273.142C287.574 272.625 287.571 272.007 287.865 271.595C288.321 270.96 288.713 270.274 289.23 269.662C289.713 269.088 290.148 268.402 290.507 267.703C290.844 267.051 291.138 266.287 290.932 265.669C290.757 265.132 290.76 264.531 290.48 264.051C290.206 263.578 290.648 263.088 290.277 262.608C289.969 262.21 289.844 261.659 289.898 261.119C290.003 260.071 290.257 259.061 290.605 258.064C290.787 257.534 290.892 256.963 290.939 256.402C290.996 255.696 290.98 254.848 291.429 254.406C291.919 253.926 292.037 253.24 292.571 252.842C292.895 252.598 292.801 252.135 293.071 251.865C293.551 251.389 293.733 250.649 293.53 250.189C293.034 249.088 293.209 247.855 292.578 246.75C292.081 245.885 291.844 244.686 292.794 243.73C292.946 243.578 292.993 243.213 292.936 242.987C292.811 242.477 292.79 241.96 292.621 241.443C292.385 240.737 292.699 239.96 293.135 239.352C293.659 238.622 294.057 237.875 294.01 236.96C293.956 235.97 293.605 235.061 293.189 234.173C292.993 233.747 293.132 233.119 292.773 232.855C292.034 232.301 291.811 231.494 291.459 230.737C291.405 230.619 291.29 230.443 291.385 230.382C291.888 230.048 291.466 229.798 291.314 229.554C291.192 229.362 291.064 229.2 291.165 228.96C291.24 228.791 291.122 228.74 291 228.689C290.902 228.5 290.797 228.311 290.696 228.122C290.696 227.291 290.007 226.933 289.537 226.419C289.483 225.99 289.226 225.747 288.821 225.639C288.537 225.328 288.257 225.017 287.973 224.703C287.149 223.784 286.182 223.024 285.257 222.217C284.564 221.615 283.672 221.338 282.959 220.771C282.486 220.392 282.03 219.97 281.507 219.683C280.723 219.254 280.027 218.713 279.301 218.213C277.909 217.25 276.517 216.287 275.027 215.477C273.76 214.787 272.456 214.162 271.182 213.494C269.524 212.622 267.804 211.909 266.081 211.196C266.145 210.909 266.382 210.912 266.591 210.909C267.554 210.885 268.513 210.845 269.476 210.869C270.497 210.892 271.513 210.906 272.527 210.771C272.615 210.774 272.706 210.781 272.794 210.784C273.024 210.838 273.247 210.831 273.466 210.733C273.899 210.74 274.328 210.747 274.76 210.754L274.814 210.787L274.875 210.771C275.007 210.764 275.138 210.76 275.27 210.754C275.5 210.818 275.719 210.788 275.936 210.69C276.152 210.767 276.368 210.737 276.581 210.673C276.753 210.669 276.926 210.666 277.101 210.666C277.909 210.777 278.706 210.497 279.524 210.591C280.138 210.662 280.75 210.372 281.382 210.47C281.679 210.514 281.966 210.652 282.277 210.571C283.169 210.335 284.067 210.311 284.983 210.399C285.365 210.436 285.757 210.392 286.071 210.112C286.277 210.287 286.466 210.173 286.655 210.075C287.466 210.081 288.243 209.98 289.044 209.767C290.013 209.51 290.872 209.034 291.801 208.727C292.52 208.487 292.797 207.747 293.409 207.402C293.969 206.828 294.52 206.247 294.797 205.47C296.084 204.76 296.801 203.534 297.591 202.372C298.067 201.673 298.361 200.875 299.061 200.331C299.463 200.017 299.247 199.673 300.111 199.294V116.696C298.382 116.541 297.463 116.46 296.101 116.436Z" fill="white"/>
</svg>
