<svg width="388" height="420" viewBox="0 0 388 420" fill="none" xmlns="http://www.w3.org/2000/svg">
<path d="M142.97 277.949C161.595 279.564 181.821 280.584 203.45 280.622C226.007 280.659 247.051 279.625 266.362 277.949C269.957 267.571 273.913 252.49 274.558 233.99C275.261 213.865 271.781 197.378 268.548 186.375C265.227 186.375 256.382 186.105 250.629 184.669C225.21 178.334 210.467 155.855 200.538 140.713C196.23 134.145 190.686 124.642 185.72 112.294C185.183 111.51 184.166 109.818 180.011 109.044C175.761 108.257 168.848 109.743 165.315 112.294C156.69 118.52 157.473 132.642 159.396 141.986C161.264 151.088 165.092 154.689 169.93 161.115C174.223 166.821 178.487 170.997 181.588 173.747C176.058 173.277 167.818 172.709 157.784 172.53C143.565 172.28 136.453 172.155 133.497 173.503C116.889 181.068 117.669 212.76 118.436 243.943C118.666 253.314 119.511 262.399 126.19 269.459C131.676 275.26 138.74 277.203 142.97 277.949Z" fill="white"/>
<path d="M265 84.0845C264.733 87.125 263.76 93.5169 259.308 100.152C254.987 106.595 249.581 109.997 246.862 111.476C249.828 113.689 253.51 117 256.753 121.74C263.801 132.041 264.405 142.699 264.362 147.517C264.412 142.699 265.237 132.027 272.49 121.584C275.828 116.78 279.578 113.395 282.591 111.122C279.899 109.696 274.561 106.402 270.368 100.044C266.051 93.4966 265.203 87.1183 265 84.0845Z" fill="white"/>
<path d="M239.216 118.841C239.216 118.841 239.216 118.841 239.213 118.841C239.034 120.916 238.368 125.28 235.331 129.811C232.378 134.21 228.689 136.53 226.831 137.541C228.858 139.051 231.371 141.311 233.584 144.547C238.395 151.581 238.811 158.858 238.78 162.149C238.814 158.858 239.375 151.571 244.327 144.443C246.608 141.162 249.169 138.848 251.226 137.297C249.388 136.324 245.743 134.078 242.881 129.737C239.932 125.267 239.355 120.912 239.216 118.841Z" fill="white"/>
<path d="M215.598 293.071C215.345 295.983 214.409 302.111 210.146 308.469C206.004 314.645 200.821 317.905 198.213 319.324C201.058 321.442 204.585 324.618 207.693 329.162C214.446 339.034 215.031 349.25 214.987 353.868C215.037 349.25 215.825 339.02 222.781 329.013C225.98 324.405 229.571 321.162 232.46 318.983C229.879 317.618 224.764 314.459 220.744 308.365C216.605 302.088 215.794 295.976 215.598 293.071Z" fill="white"/>
<path d="M182.349 293.071C182.177 295.057 181.538 299.243 178.626 303.584C175.798 307.801 172.261 310.023 170.477 310.993C172.42 312.442 174.829 314.608 176.954 317.709C181.562 324.449 181.96 331.426 181.93 334.578C181.964 331.426 182.504 324.442 187.251 317.608C189.437 314.463 191.889 312.25 193.859 310.763C192.099 309.828 188.606 307.672 185.862 303.513C183.038 299.226 182.484 295.054 182.349 293.071Z" fill="white"/>
<path d="M81.3552 218.831C81.3552 218.831 81.3552 218.831 81.3517 218.831C81.1659 220.973 80.4801 225.486 77.3382 230.169C74.2909 234.713 70.4734 237.111 68.5544 238.159C70.649 239.72 73.247 242.054 75.5342 245.399C80.5071 252.669 80.9362 260.189 80.9024 263.588C80.9396 260.189 81.5207 252.659 86.6389 245.291C88.9936 241.899 91.6423 239.51 93.7639 237.909C91.8653 236.902 88.0984 234.578 85.1423 230.091C82.095 225.47 81.4971 220.973 81.3552 218.831Z" fill="white"/>
<path d="M315.037 182.416C314.848 184.557 314.162 189.068 311.02 193.75C307.973 198.297 304.158 200.696 302.236 201.74C304.331 203.301 306.929 205.638 309.216 208.983C314.189 216.25 314.618 223.77 314.584 227.172C314.621 223.77 315.202 216.24 320.321 208.872C322.679 205.483 325.324 203.095 327.449 201.49C325.547 200.483 321.783 198.159 318.824 193.672C315.777 189.054 315.182 184.554 315.037 182.416Z" fill="white"/>
<path d="M106.565 128.189C106.376 130.331 105.69 134.845 102.548 139.524C99.5006 144.071 95.6865 146.47 93.7642 147.514C95.8588 149.074 98.4567 151.412 100.744 154.757C105.717 162.024 106.146 169.547 106.116 172.946C106.153 169.547 106.73 162.014 111.849 154.645C114.207 151.257 116.852 148.868 118.977 147.264C117.078 146.257 113.311 143.932 110.352 139.449C107.305 134.828 106.71 130.328 106.565 128.189Z" fill="white"/>
</svg>
