<svg width="388" height="420" viewBox="0 0 388 420" fill="none" xmlns="http://www.w3.org/2000/svg">
<path d="M169.643 140.493C169.643 150.226 161.751 158.118 152.018 158.118C142.282 158.118 134.393 150.226 134.393 140.493C134.393 130.757 142.282 122.865 152.018 122.865C161.751 122.865 169.643 130.757 169.643 140.493Z" fill="white"/>
<path d="M253.076 140.493C253.076 150.226 245.184 158.118 235.451 158.118C225.714 158.118 217.826 150.226 217.826 140.493C217.826 130.757 225.714 122.865 235.451 122.865C245.184 122.865 253.076 130.757 253.076 140.493Z" fill="white"/>
<path d="M279.38 276.477C279.387 276.149 279.407 275.824 279.407 275.497V238.629C279.407 207.331 251.569 181.723 217.549 181.723H169.92C135.896 181.723 108.062 207.331 108.062 238.629V275.497C108.062 275.824 108.082 276.149 108.089 276.477H279.38Z" stroke="white" stroke-width="17.2973" stroke-miterlimit="10" stroke-linecap="round" stroke-linejoin="round"/>
</svg>
