<svg width="388" height="420" viewBox="0 0 388 420" fill="none" xmlns="http://www.w3.org/2000/svg">
<path d="M259.574 260.774L252.841 267.507C252.034 268.314 250.956 268.855 249.746 268.855C248.669 268.855 247.456 268.314 246.648 267.507L193.733 214.591L140.817 267.507C140.007 268.314 138.797 268.855 137.719 268.855C136.642 268.855 135.429 268.314 134.621 267.507L127.888 260.774C127.081 259.966 126.544 258.754 126.544 257.679C126.544 256.601 127.081 255.389 127.888 254.581L190.635 191.835C191.442 191.027 192.655 190.487 193.733 190.487C194.807 190.487 196.02 191.027 196.828 191.835L259.574 254.581C260.382 255.389 260.922 256.601 260.922 257.679C260.922 258.754 260.382 259.966 259.574 260.774ZM259.574 209.071L252.841 215.801C252.034 216.612 250.956 217.149 249.746 217.149C248.669 217.149 247.456 216.612 246.648 215.801L193.733 162.885L140.817 215.801C140.007 216.612 138.797 217.149 137.719 217.149C136.642 217.149 135.429 216.612 134.621 215.801L127.888 209.071C127.081 208.26 126.544 207.051 126.544 205.973C126.544 204.895 127.081 203.683 127.888 202.875L190.635 140.132C191.442 139.321 192.655 138.784 193.733 138.784C194.807 138.784 196.02 139.321 196.828 140.132L259.574 202.875C260.382 203.683 260.922 204.895 260.922 205.973C260.922 207.051 260.382 208.26 259.574 209.071Z" fill="white"/>
</svg>
