<svg width="388" height="420" viewBox="0 0 388 420" fill="none" xmlns="http://www.w3.org/2000/svg">
<path d="M177.295 232.277L192.346 233.882L187.852 248.335" stroke="white" stroke-width="8.64865" stroke-linecap="round" stroke-linejoin="round"/>
<path d="M181.565 268.558L168.99 308.997" stroke="white" stroke-width="8.64865" stroke-linecap="round" stroke-linejoin="round" stroke-dasharray="31.76 21.18"/>
<path d="M165.846 319.108L161.352 333.561L170.643 321.615" stroke="white" stroke-width="8.64865" stroke-linecap="round" stroke-linejoin="round"/>
<path d="M181.653 307.463L203.663 279.159" stroke="white" stroke-width="8.64865" stroke-linecap="round" stroke-linejoin="round" stroke-dasharray="26.89 17.93"/>
<path d="M209.17 272.085L255.031 213.118" stroke="white" stroke-width="8.64865" stroke-linecap="round" stroke-linejoin="round" stroke-dasharray="20.92 17.93 26.89 17.93"/>
<path d="M260.535 206.041L269.825 194.095L254.778 192.487" stroke="white" stroke-width="8.64865" stroke-linecap="round" stroke-linejoin="round"/>
<path d="M242.031 191.128L216.544 188.405" stroke="white" stroke-width="8.64865" stroke-linecap="round" stroke-linejoin="round" stroke-dasharray="19.23 12.82"/>
<path d="M210.173 187.723L195.123 186.118L199.616 171.666" stroke="white" stroke-width="8.64865" stroke-linecap="round" stroke-linejoin="round"/>
<path d="M205.903 151.443L218.477 111.003" stroke="white" stroke-width="8.64865" stroke-linecap="round" stroke-linejoin="round" stroke-dasharray="31.76 21.18"/>
<path d="M221.623 100.892L226.116 86.4395L216.826 98.3854" stroke="white" stroke-width="8.64865" stroke-linecap="round" stroke-linejoin="round"/>
<path d="M205.816 112.537L183.805 140.841" stroke="white" stroke-width="8.64865" stroke-linecap="round" stroke-linejoin="round" stroke-dasharray="26.89 17.93"/>
<path d="M178.298 147.916L132.437 206.882" stroke="white" stroke-width="8.64865" stroke-linecap="round" stroke-linejoin="round" stroke-dasharray="20.92 17.93 26.89 17.93"/>
<path d="M126.934 213.959L117.643 225.905L132.691 227.514" stroke="white" stroke-width="8.64865" stroke-linecap="round" stroke-linejoin="round"/>
<path d="M145.436 228.872L170.923 231.595" stroke="white" stroke-width="8.64865" stroke-linecap="round" stroke-linejoin="round" stroke-dasharray="19.23 12.82"/>
</svg>
