<svg width="388" height="420" viewBox="0 0 388 420" fill="none" xmlns="http://www.w3.org/2000/svg">
<g clip-path="url(#clip0_2011_35710)">
<mask id="mask0_2011_35710" style="mask-type:luminance" maskUnits="userSpaceOnUse" x="-34" y="-17" width="455" height="454">
<path d="M-33.0542 -16.8521H420.65V436.852H-33.0542V-16.8521Z" fill="white"/>
</mask>
<g mask="url(#mask0_2011_35710)">
<path d="M287.549 265.385L255.68 288.589C251.55 291.595 246.142 292.205 241.446 290.193L207.365 275.587C204.611 274.406 201.502 274.361 198.714 275.459L157.333 291.768C155.525 292.481 153.671 291.868 151.959 290.946C149.121 289.417 146.303 286.903 144.078 283.186C141.91 279.562 141.033 275.947 141.088 272.874C141.131 270.522 141.698 268.229 143.752 267.082C154.31 261.187 164.87 255.291 175.43 249.396C176.341 248.887 177.156 248.224 177.841 247.435L196.381 226.062C197.01 225.336 197.358 224.407 197.358 223.446V210.658C197.358 209.569 196.913 208.527 196.126 207.774L180.197 192.527C178.358 190.767 176.045 189.579 173.543 189.111L86.1771 172.729C86.0881 172.71 86.0043 172.691 85.9162 172.672C82.6115 171.829 76.0142 169.625 70.3442 163.666C67.8536 161.048 66.1831 158.38 65.0639 156.171C64.7546 155.559 64.5947 154.887 64.6275 154.202C64.6949 152.795 65.1002 150.432 66.9194 148.444C67.6228 147.674 68.3799 147.133 69.0565 146.754C69.7894 146.344 70.6354 146.199 71.4676 146.312C92.3026 149.106 114.683 151.382 138.465 152.82C161.618 154.219 183.544 154.668 204.071 154.448C204.725 154.441 205.367 154.595 205.948 154.897L220.874 162.667C236.151 170.62 251.428 178.572 266.705 186.524C267.274 186.821 267.907 186.976 268.549 186.976H329.794V264.62H289.899C289.096 264.881 288.352 265.124 287.549 265.385Z" fill="white"/>
</g>
<mask id="mask1_2011_35710" style="mask-type:luminance" maskUnits="userSpaceOnUse" x="-34" y="-17" width="455" height="454">
<path d="M-33.0542 -16.8521H420.65V436.852H-33.0542V-16.8521Z" fill="white"/>
</mask>
<g mask="url(#mask1_2011_35710)">
<path d="M193.461 221.94L193.297 212.425C193.28 211.55 192.911 210.718 192.27 210.12L178.071 196.855C177.511 196.331 176.625 196.393 176.142 196.987L144.606 235.835C143.982 236.603 143.628 237.556 143.599 238.546L143.24 250.542C143.143 253.785 145.111 256.738 148.143 257.894C149.436 258.387 150.563 258.681 150.915 258.495L174.309 245.469C174.741 245.215 175.798 244.425 176.124 244.044L192.452 224.296C193.132 223.525 193.461 222.969 193.461 221.94Z" fill="white"/>
</g>
</g>
<defs>
<clipPath id="clip0_2011_35710">
<rect width="387.593" height="420" fill="white"/>
</clipPath>
</defs>
</svg>
