<svg width="388" height="420" viewBox="0 0 388 420" fill="none" xmlns="http://www.w3.org/2000/svg">
<mask id="mask0_2011_98006" style="mask-type:alpha" maskUnits="userSpaceOnUse" x="35" y="36" width="318" height="349">
<path d="M168.927 41.9049C175.05 38.3738 184.095 36.3462 193.74 36.3462C203.38 36.3462 212.421 38.3738 218.548 41.9049L327.612 104.797C340.597 112.285 352.423 132.745 352.423 147.718V273.503C352.423 288.479 340.597 308.936 327.612 316.424L218.548 379.316C212.421 382.851 203.38 384.875 193.737 384.875C184.095 384.875 175.05 382.851 168.927 379.316L59.8585 316.424C46.8743 308.936 35.0479 288.479 35.0479 273.503V147.718C35.0479 132.745 46.8743 112.285 59.8585 104.797L168.927 41.9049Z" fill="#D9D9D9"/>
</mask>
<g mask="url(#mask0_2011_98006)">
<path d="M391.365 488.07C391.365 597.397 302.738 686.024 193.411 686.024C84.0845 686.024 -4.54248 597.397 -4.54248 488.07C-4.54248 378.743 84.0845 290.116 193.411 290.116C302.738 290.116 391.365 378.743 391.365 488.07ZM-0.145493 488.07C-0.145493 594.968 86.5128 681.627 193.411 681.627C300.31 681.627 386.968 594.968 386.968 488.07C386.968 381.171 300.31 294.513 193.411 294.513C86.5128 294.513 -0.145493 381.171 -0.145493 488.07Z" fill="white"/>
<path d="M378.548 484.154C378.548 586.599 295.66 669.647 193.412 669.647C91.1634 669.647 8.2749 586.599 8.2749 484.154C8.2749 381.709 91.1634 298.661 193.412 298.661C295.66 298.661 378.548 381.709 378.548 484.154ZM20.8489 484.154C20.8489 579.641 98.1078 657.048 193.412 657.048C288.715 657.048 365.974 579.641 365.974 484.154C365.974 388.667 288.715 311.259 193.412 311.259C98.1078 311.259 20.8489 388.667 20.8489 484.154Z" fill="white"/>
<path d="M175.727 330.256C172.674 331.282 169.392 331.425 166.261 330.668C163.13 329.911 160.276 328.285 158.028 325.977C155.78 323.67 154.23 320.774 153.555 317.624C152.881 314.474 153.11 311.198 154.215 308.172L160.25 310.377C159.56 312.267 159.417 314.312 159.838 316.279C160.259 318.246 161.227 320.053 162.631 321.494C164.034 322.935 165.816 323.95 167.771 324.423C169.726 324.895 171.774 324.806 173.681 324.165L175.727 330.256Z" fill="white"/>
<path d="M175.903 346.868C171.185 348.164 166.224 348.297 161.443 347.258C156.663 346.219 152.204 344.038 148.45 340.902C144.695 337.765 141.756 333.766 139.883 329.247C138.009 324.727 137.258 319.821 137.693 314.948L144.786 315.582C144.453 319.31 145.028 323.063 146.461 326.52C147.894 329.978 150.143 333.037 153.015 335.437C155.888 337.836 159.298 339.505 162.956 340.3C166.613 341.095 170.409 340.992 174.018 340.001L175.903 346.868Z" fill="white"/>
<path d="M172.349 364.163C166.235 365.177 159.975 364.883 153.984 363.299C147.992 361.715 142.405 358.878 137.59 354.976C132.776 351.073 128.845 346.193 126.056 340.658C123.267 335.124 121.684 329.061 121.412 322.869L128.261 322.568C128.491 327.791 129.826 332.905 132.178 337.573C134.531 342.242 137.847 346.358 141.908 349.65C145.969 352.942 150.682 355.335 155.736 356.671C160.79 358.007 166.07 358.255 171.227 357.4L172.349 364.163Z" fill="white"/>
<path d="M172.645 308.792C179.072 331.883 176.152 353.133 164.973 376.137" stroke="white" stroke-width="5.48745"/>
<path d="M215.964 309.464C217.423 332.643 217.927 360.639 212.597 393.468" stroke="white" stroke-width="5.48745"/>
<path d="M217.298 312.71C227.368 333.639 240.628 358.3 261.341 384.322" stroke="white" stroke-width="5.48745"/>
<path d="M233.846 341.015C235.655 338.892 237.546 337.171 240.142 337.496C242.738 337.82 244.685 340.918 247.429 340.474C252.149 339.711 250.958 331.253 254.233 330.68C257.507 330.107 257.666 336.846 260.916 338.371C264.836 340.21 270.726 336.107 276.193 330.285" stroke="white" stroke-width="5.84126"/>
<path d="M224.574 343.622C230.434 348.98 234.192 351.148 241.816 354.006C236.84 360.151 234.517 363.83 231.433 371.248C225.928 366.194 222.199 363.888 214.19 360.865C219.382 355.691 222.003 350.615 224.574 343.622ZM226.335 350.713C225.083 354.117 223.808 356.588 221.28 359.106C225.179 360.577 226.994 361.7 229.673 364.161C231.174 360.55 232.305 358.759 234.728 355.768C231.017 354.377 229.187 353.321 226.335 350.713Z" fill="white"/>
</g>
<path d="M196.015 113.676C195.221 113.213 194.318 112.969 193.399 112.969C192.48 112.969 191.577 113.214 190.783 113.677C181.301 119.249 173.585 127.386 168.524 137.15C163.462 146.914 161.262 157.909 162.175 168.867L162.937 177.819L151.077 185.071C147.945 186.587 145.466 189.183 144.097 192.382C142.728 195.581 142.561 199.166 143.627 202.478L149.861 224.858C150.079 225.641 150.479 226.363 151.027 226.963C151.576 227.564 152.258 228.027 153.018 228.316C153.779 228.604 154.597 228.71 155.406 228.624C156.215 228.538 156.992 228.263 157.676 227.821L171.37 218.962C173.321 222.824 175.628 226.495 178.262 229.928C178.746 230.558 179.369 231.068 180.081 231.419C180.793 231.77 181.577 231.952 182.371 231.953L205.119 231.95C205.801 231.95 206.477 231.815 207.107 231.554C207.737 231.292 208.31 230.909 208.792 230.426L209.093 230.096C211.922 226.719 214.385 223.051 216.44 219.154L229.823 227.811C230.506 228.253 231.284 228.527 232.093 228.613C232.902 228.699 233.72 228.593 234.48 228.304C235.241 228.016 235.923 227.552 236.472 226.951C237.02 226.35 237.42 225.629 237.639 224.845L243.89 202.438C244.682 199.195 244.424 195.786 243.152 192.7C241.881 189.615 239.661 187.013 236.815 185.272L224.239 177.598L224.607 168.887C225.559 157.92 223.377 146.909 218.315 137.135C213.252 127.362 205.521 119.224 196.015 113.676ZM214.257 168.203L213.156 194.147C212.432 204.125 208.772 213.666 202.637 221.57L184.992 221.576C179.141 213.355 175.589 203.721 174.705 193.668L173.555 180.195C173.55 179.986 173.533 179.778 173.503 179.572L172.514 168.051C171.812 159.56 173.375 151.035 177.044 143.345C180.712 135.654 186.355 129.074 193.397 124.277C200.483 129.064 206.155 135.664 209.823 143.389C213.491 151.114 215.024 159.685 214.257 168.203ZM188.257 148.977C187.168 150.066 186.427 151.453 186.126 152.963C185.826 154.472 185.98 156.037 186.569 157.459C187.158 158.882 188.155 160.097 189.435 160.952C190.715 161.807 192.219 162.263 193.759 162.263C195.298 162.263 196.803 161.806 198.083 160.951C199.363 160.095 200.361 158.88 200.95 157.457C201.539 156.035 201.694 154.47 201.394 152.96C201.094 151.451 200.352 150.064 199.264 148.976C197.805 147.516 195.825 146.696 193.761 146.697C191.697 146.697 189.717 147.517 188.257 148.977Z" fill="white"/>
<path d="M80.393 180.257C80.393 180.258 80.3933 180.258 80.3938 180.258C95.0815 184.126 109.307 187.871 123.53 191.619C123.676 191.657 123.826 191.574 123.874 191.432C123.923 191.285 123.847 191.128 123.703 191.073C122.139 190.487 120.589 189.867 119.012 189.332C108.99 185.908 98.9811 182.453 88.9324 179.118C83.4339 177.293 78.9149 174.341 75.834 169.314C73.7459 165.909 71.4396 162.641 69.2536 159.297C69.1092 159.077 68.9867 158.843 68.8512 158.559C68.5967 158.028 69.1394 157.447 69.6898 157.658C72.7579 158.834 75.4718 159.867 78.1758 160.926C92.5343 166.554 106.862 172.266 121.264 177.783C126.042 179.612 129.047 182.898 130.463 187.595C132.96 195.876 135.236 204.224 137.586 212.546C137.668 212.832 137.691 213.135 137.711 213.462C137.732 213.801 137.497 214.116 137.166 214.192C136.912 214.251 136.681 214.296 136.455 214.278C129.221 213.734 121.955 213.423 114.76 212.532C107.903 211.682 102.289 208.441 98.8386 202.154C98.6817 201.872 98.5585 201.571 98.396 201.162C98.2107 200.695 98.5972 200.195 99.0945 200.262C108.308 201.499 117.163 202.687 126.014 203.874C126.21 203.901 126.391 203.765 126.423 203.57C126.455 203.38 126.331 203.2 126.142 203.161C119.109 201.669 112.101 200.01 105.027 198.739C93.8667 196.736 86.0669 190.402 80.3949 180.257C80.3944 180.256 80.393 180.256 80.393 180.257Z" fill="white"/>
<path d="M307.4 180.257C307.4 180.258 307.4 180.258 307.4 180.258C292.712 184.126 278.486 187.871 264.263 191.619C264.118 191.657 263.967 191.574 263.919 191.432C263.87 191.285 263.946 191.128 264.091 191.073C265.654 190.487 267.204 189.867 268.782 189.332C278.804 185.908 288.812 182.453 298.861 179.118C304.36 177.293 308.879 174.341 311.959 169.314C314.048 165.909 316.354 162.641 318.54 159.297C318.684 159.077 318.807 158.843 318.942 158.559C319.197 158.028 318.654 157.447 318.104 157.658C315.036 158.834 312.322 159.867 309.618 160.926C295.259 166.554 280.932 172.266 266.529 177.783C261.752 179.612 258.746 182.898 257.331 187.595C254.833 195.876 252.558 204.224 250.207 212.546C250.126 212.832 250.103 213.135 250.082 213.462C250.061 213.801 250.296 214.116 250.628 214.192C250.882 214.251 251.113 214.296 251.338 214.278C258.573 213.734 265.839 213.423 273.034 212.532C279.89 211.682 285.504 208.441 288.955 202.154C289.112 201.872 289.235 201.571 289.397 201.162C289.583 200.695 289.196 200.195 288.699 200.262C279.485 201.499 270.63 202.687 261.779 203.874C261.584 203.901 261.402 203.765 261.37 203.57C261.339 203.38 261.463 203.2 261.651 203.16C268.684 201.669 275.693 200.01 282.766 198.739C293.927 196.736 301.727 190.402 307.399 180.257C307.399 180.256 307.4 180.256 307.4 180.257Z" fill="white"/>
<path d="M180.83 249.077C180.201 249.319 179.781 249.937 179.781 250.623C179.781 251.31 180.201 251.923 180.83 252.17L188.734 255.202L191.702 263.279C191.939 263.921 192.544 264.35 193.216 264.35C193.888 264.35 194.487 263.921 194.729 263.279L197.697 255.202L205.601 252.17C206.23 251.927 206.651 251.31 206.651 250.623C206.651 249.937 206.23 249.324 205.601 249.077L197.697 246.044L194.729 237.968C194.492 237.326 193.888 236.896 193.216 236.896C192.544 236.896 191.944 237.326 191.702 237.968L188.734 246.044L180.83 249.077Z" fill="white"/>
<path d="M189.601 328.499C189.161 328.668 188.867 329.1 188.867 329.581C188.867 330.061 189.161 330.49 189.601 330.663L195.134 332.786L197.212 338.439C197.378 338.889 197.801 339.19 198.271 339.19C198.742 339.19 199.161 338.889 199.33 338.439L201.408 332.786L206.941 330.663C207.381 330.494 207.676 330.061 207.676 329.581C207.676 329.1 207.381 328.671 206.941 328.499L201.408 326.376L199.33 320.722C199.165 320.273 198.742 319.972 198.271 319.972C197.801 319.972 197.381 320.273 197.212 320.722L195.134 326.376L189.601 328.499Z" fill="white"/>
<path d="M184.838 363.584C184.53 363.703 184.324 364.005 184.324 364.342C184.324 364.678 184.53 364.978 184.838 365.099L188.711 366.585L190.165 370.543C190.281 370.857 190.578 371.068 190.907 371.068C191.236 371.068 191.53 370.857 191.648 370.543L193.103 366.585L196.976 365.099C197.284 364.981 197.49 364.678 197.49 364.342C197.49 364.005 197.284 363.705 196.976 363.584L193.103 362.098L191.648 358.141C191.532 357.826 191.236 357.615 190.907 357.615C190.578 357.615 190.284 357.826 190.165 358.141L188.711 362.098L184.838 363.584Z" fill="white"/>
<path fill-rule="evenodd" clip-rule="evenodd" d="M144.915 222.372C131.246 226.189 122.459 232.24 121.829 239.601C120.578 254.207 151.91 268.431 191.81 271.372C231.711 274.312 265.07 264.856 266.321 250.25C267.034 241.923 257.155 233.721 241.136 227.663C241.204 227.47 241.268 227.276 241.322 227.079L242.183 223.902C262.879 230.813 275.975 240.772 275.108 250.898C273.705 267.28 236.288 277.887 191.535 274.588C146.782 271.29 111.639 255.336 113.042 238.954C113.821 229.848 125.728 222.529 143.835 218.388L144.915 222.372Z" fill="white"/>
</svg>
