<svg width="388" height="420" viewBox="0 0 388 420" fill="none" xmlns="http://www.w3.org/2000/svg">
<path d="M233.605 293.429V288.46C238.477 289.933 242.274 291.385 244.94 292.649C242.166 293.078 238.358 293.382 233.605 293.429ZM203.71 291.146C197.48 290.24 191.885 289.196 186.933 288.095C189.5 287.578 192.102 287.014 194.723 286.402C199.389 285.311 203.926 284.112 208.26 282.835C212.919 281.463 217.335 280 221.396 278.487V293.051C216.146 292.703 210.247 292.098 203.71 291.146ZM150.419 206.497L135.602 184.615C134.69 183.281 134.788 181.943 134.919 181.227C135.048 180.544 135.47 179.24 136.838 178.328C137.588 177.808 138.402 177.581 139.315 177.581C140.811 177.581 142.244 178.328 143.058 179.598L159.828 204.902C160.058 208.027 162.663 210.504 165.855 210.504C169.206 210.504 171.943 207.767 171.943 204.48H171.977V118.064C171.977 115.72 173.683 113.619 176.014 113.385C178.693 113.122 180.963 115.233 180.963 117.858V192.477C180.963 201.487 187.963 209.196 196.967 209.483C201.443 209.629 205.524 207.977 208.544 205.227C211.477 207.865 215.352 209.494 219.585 209.494C228.673 209.494 235.997 202.2 236.129 193.146V137.95C236.129 135.639 237.815 133.571 240.115 133.348C242.754 133.088 244.983 135.166 244.983 137.754L245.149 141.598V206.497C244.69 219.835 238.821 231.784 229.663 240.152C227.72 241.929 225.629 243.541 223.406 244.973C222.149 245.784 221.396 247.179 221.396 248.673V265.379C217.531 266.973 212.862 268.666 207.399 270.348C202.804 271.76 197.663 273.169 191.943 274.507C185.551 276.004 179.754 277.102 174.578 277.896V249.858C174.578 247.669 173.443 245.666 171.622 244.45C169.7 243.169 167.875 241.747 166.166 240.206C156.872 231.828 150.879 219.852 150.419 206.497ZM193.112 169.831C193.112 167.355 195.129 165.304 197.636 165.304C200.112 165.304 202.163 167.321 202.163 169.831V193.017C202.163 195.49 200.146 197.544 197.636 197.544C195.163 197.544 193.112 195.524 193.112 193.017V169.831ZM215.22 169.831C215.22 167.355 217.24 165.304 219.747 165.304C222.223 165.304 224.274 167.321 224.274 169.831V193.017C224.274 195.49 222.254 197.544 219.747 197.544C217.274 197.544 215.22 195.524 215.22 193.017V169.831ZM243.352 278.828C240.396 277.757 237.122 276.727 233.605 275.757V273.223C241.2 269.382 248.413 264.21 246.757 257.119C245.71 252.649 241.838 250.426 236.99 249.375C248.96 238.848 256.663 223.578 257.132 206.531L257.163 141.598V137.787C257.163 128.7 249.771 121.308 240.686 121.308C231.602 121.308 224.21 128.7 224.21 137.787V153.906C222.777 153.517 221.247 153.287 219.683 153.287C215.416 153.287 211.541 154.916 208.646 157.554C205.713 154.916 201.838 153.287 197.605 153.287C196.041 153.287 194.51 153.517 193.078 153.906V117.858C193.078 108.74 185.686 101.314 176.534 101.314C167.416 101.314 159.994 108.706 159.994 117.858V183.345L153.054 172.956C149.865 168.169 144.652 165.598 139.315 165.598C136.156 165.598 132.963 166.507 130.163 168.399C122.575 173.477 120.524 183.703 125.635 191.321L139.085 211.446C140.916 228.108 149.656 242.689 162.362 252.26V261.166C158.362 262.602 154.669 264.095 151.396 265.605C142.818 269.571 133.217 275.156 135.102 283.227C136.808 290.524 146.031 291.835 154.767 291.835C155.693 291.835 156.612 291.818 157.521 291.794C157.791 291.787 158.071 291.774 158.345 291.764C159.652 292.395 161.004 292.977 162.362 293.517V309.118C162.362 312.49 165.098 315.223 168.47 315.223C171.842 315.223 174.578 312.49 174.578 309.118V297.578C182.663 299.841 192.068 301.794 201.95 303.23C208.666 304.21 215.237 304.895 221.396 305.281V309.118C221.396 312.49 224.129 315.223 227.5 315.223C230.872 315.223 233.605 312.49 233.605 309.118V305.625C235.646 305.605 237.625 305.551 239.48 305.443C248.913 304.889 259.892 303.2 261.088 294.997C262.281 286.798 252.237 282.051 243.352 278.828Z" fill="white"/>
</svg>
