<svg width="388" height="420" viewBox="0 0 388 420" fill="none" xmlns="http://www.w3.org/2000/svg">
<path d="M278.838 211.571C278.128 213.439 275.064 214.004 271.986 212.838C268.912 211.669 266.996 209.21 267.706 207.345C268.412 205.473 271.48 204.912 274.554 206.075C277.628 207.247 279.544 209.703 278.838 211.571ZM259.635 175.5C252.338 164.362 220.844 136.706 195.496 125.953C170.145 115.2 171.682 129.027 171.682 129.027C173.986 142.47 197.8 163.591 197.8 163.591C111.767 148.23 93.3309 227.348 93.3309 227.348C93.3309 227.348 79.5032 227.348 80.6552 243.095C81.8106 258.841 101.398 264.605 101.398 264.605C106.388 267.679 114.841 276.51 114.071 277.879C113.304 279.247 112.152 286.882 119.831 293.412C127.513 299.939 138.652 295.331 142.108 291.875C145.564 288.416 159.777 280.737 159.777 280.737C187.814 271.132 189.733 287.264 216.236 296.098C242.736 304.933 239.27 282.274 239.27 282.274C273.446 303.01 279.993 286.882 279.993 286.882C285.368 274.206 273.848 263.838 273.848 263.838C304.189 243.865 306.878 233.493 306.878 233.493C297.273 183.95 259.635 175.5 259.635 175.5Z" fill="white"/>
</svg>
