<svg width="388" height="420" viewBox="0 0 388 420" fill="none" xmlns="http://www.w3.org/2000/svg">
<path d="M253.781 203.872C253.835 171.348 227.49 144.983 194.845 144.889C162.716 144.794 136.196 171.058 135.774 202.703C135.331 235.7 162.176 262.825 194.716 262.774C227.227 262.723 253.723 236.426 253.781 203.872ZM273.723 196.544C274.365 191.517 274.365 191.517 279.575 191.514C286.629 191.514 286.635 191.514 286.642 198.554C286.646 203.581 286.558 208.608 286.669 213.632C286.713 215.608 285.99 216.23 284.101 216.132C281.767 216.01 279.412 215.956 277.088 216.146C274.72 216.338 273.656 215.548 273.936 213.118C274.007 212.527 273.879 211.916 273.841 211.335C269.956 210.085 269.595 210.439 268.875 214.673C264.574 240.017 251.203 259.064 228.277 270.676C183.818 293.189 130.598 266.612 121.142 217.507C113.291 176.754 141.345 136.662 182.372 130.004C222.642 123.466 260.007 149.281 268.27 189.348C268.531 190.618 268.747 191.899 268.912 193.186C269.443 197.254 269.429 197.257 273.723 196.544Z" fill="white"/>
<path d="M193.903 320.345C180.227 320.348 166.548 320.365 152.869 320.338C148.487 320.331 147.24 319.189 146.487 314.895C144.639 304.341 142.788 293.79 140.892 283.25C140.49 281.007 140.838 279.071 142.794 277.74C144.747 276.412 146.69 276.719 148.578 278.037C164.068 288.817 181.271 293.534 200.055 292.23C213.967 291.26 226.737 286.76 238.315 278.942C239.102 278.412 239.879 277.527 240.71 277.466C242.332 277.344 244.386 277.152 245.517 277.99C246.646 278.828 247.585 281.003 247.369 282.399C245.815 292.385 243.791 302.294 242.227 312.28C240.828 321.246 239.264 320.351 232.342 320.348C219.528 320.341 206.717 320.345 193.903 320.345Z" fill="white"/>
<path d="M194.149 88.5002C207.916 88.5002 221.683 88.4968 235.45 88.5037C239.494 88.5071 240.855 89.5611 241.615 93.578C243.592 104.021 245.49 114.48 247.423 124.929C247.808 127.017 247.149 128.74 245.409 129.892C243.45 131.189 241.517 130.862 239.619 129.541C230.636 123.291 220.838 118.885 210.065 116.808C188.399 112.632 168.308 116.514 149.872 128.717C149.298 129.098 148.74 129.517 148.153 129.879C146.369 130.98 144.541 131.075 142.791 129.879C141.038 128.686 140.436 126.943 140.815 124.885C142.406 116.217 144.014 107.551 145.615 98.8854C145.96 97.0138 146.261 95.1354 146.653 93.2773C147.416 89.6794 148.869 88.5071 152.588 88.5071C166.443 88.4936 180.294 88.5002 194.149 88.5002Z" fill="white"/>
<path d="M194.774 160.889C191.673 160.889 189.152 163.409 189.152 166.51C189.152 169.608 191.673 172.132 194.774 172.132C197.872 172.132 200.396 169.608 200.396 166.51C200.396 163.409 197.872 160.889 194.774 160.889ZM194.774 178.186C188.335 178.186 183.098 172.95 183.098 166.51C183.098 160.071 188.335 154.835 194.774 154.835C201.213 154.835 206.45 160.071 206.45 166.51C206.45 172.95 201.213 178.186 194.774 178.186Z" fill="white"/>
<path d="M194.774 235.531C191.673 235.531 189.152 238.051 189.152 241.152C189.152 244.25 191.673 246.774 194.774 246.774C197.872 246.774 200.396 244.25 200.396 241.152C200.396 238.051 197.872 235.531 194.774 235.531ZM194.774 252.828C188.335 252.828 183.098 247.591 183.098 241.152C183.098 234.713 188.335 229.477 194.774 229.477C201.213 229.477 206.45 234.713 206.45 241.152C206.45 247.591 201.213 252.828 194.774 252.828Z" fill="white"/>
<path d="M232.095 198.21C228.993 198.21 226.473 200.73 226.473 203.831C226.473 206.933 228.993 209.453 232.095 209.453C235.193 209.453 237.716 206.933 237.716 203.831C237.716 200.73 235.193 198.21 232.095 198.21ZM232.095 215.507C225.656 215.507 220.419 210.27 220.419 203.831C220.419 197.392 225.656 192.156 232.095 192.156C238.531 192.156 243.77 197.392 243.77 203.831C243.77 210.27 238.531 215.507 232.095 215.507Z" fill="white"/>
<path d="M157.453 198.21C154.351 198.21 151.831 200.73 151.831 203.831C151.831 206.933 154.351 209.453 157.453 209.453C160.551 209.453 163.074 206.933 163.074 203.831C163.074 200.73 160.551 198.21 157.453 198.21ZM157.453 215.507C151.013 215.507 145.777 210.27 145.777 203.831C145.777 197.392 151.013 192.156 157.453 192.156C163.892 192.156 169.128 197.392 169.128 203.831C169.128 210.27 163.892 215.507 157.453 215.507Z" fill="white"/>
<path d="M221.162 171.821C219.723 171.821 218.284 172.368 217.189 173.466C214.997 175.659 214.997 179.223 217.189 181.416C219.378 183.608 222.946 183.608 225.138 181.416C227.331 179.223 227.331 175.659 225.138 173.466C224.041 172.368 222.601 171.821 221.162 171.821ZM221.162 189.112C218.172 189.112 215.182 187.973 212.909 185.696C208.355 181.146 208.355 173.737 212.905 169.186C217.459 164.632 224.868 164.632 229.419 169.186C233.973 173.737 233.973 181.146 229.419 185.696C227.142 187.973 224.152 189.112 221.162 189.112Z" fill="white"/>
<path d="M168.382 224.601C166.943 224.601 165.503 225.149 164.409 226.247C162.216 228.436 162.216 232.003 164.409 234.196C166.601 236.389 170.169 236.389 172.358 234.196C174.551 232.003 174.551 228.436 172.358 226.247C171.264 225.149 169.824 224.601 168.382 224.601ZM168.382 241.892C165.392 241.892 162.402 240.753 160.128 238.476C155.574 233.926 155.574 226.517 160.128 221.966C164.679 217.412 172.088 217.412 176.639 221.966C181.193 226.517 181.193 233.926 176.639 238.476C174.365 240.753 171.375 241.892 168.382 241.892Z" fill="white"/>
<path d="M168.382 171.821C166.943 171.821 165.503 172.368 164.409 173.466C162.216 175.659 162.216 179.223 164.409 181.416C166.601 183.608 170.169 183.608 172.358 181.416C174.551 179.223 174.551 175.659 172.358 173.466C171.264 172.368 169.824 171.821 168.382 171.821ZM168.382 189.112C165.392 189.112 162.402 187.973 160.128 185.696C155.574 181.146 155.574 173.737 160.128 169.186C164.679 164.632 172.088 164.632 176.639 169.186C181.193 173.737 181.193 181.146 176.639 185.696C174.362 187.973 171.372 189.112 168.382 189.112Z" fill="white"/>
<path d="M221.163 224.601C219.723 224.601 218.284 225.149 217.19 226.247C214.997 228.436 214.997 232.003 217.19 234.196C219.382 236.389 222.946 236.389 225.139 234.196C227.331 232.003 227.331 228.436 225.139 226.247C224.041 225.149 222.602 224.601 221.163 224.601ZM221.163 241.892C218.173 241.892 215.183 240.753 212.906 238.476C208.355 233.926 208.355 226.517 212.906 221.966C217.46 217.412 224.869 217.412 229.419 221.966C233.973 226.517 233.973 233.926 229.419 238.476C227.142 240.753 224.152 241.892 221.163 241.892Z" fill="white"/>
</svg>
