<svg width="387" height="420" viewBox="0 0 387 420" fill="none" xmlns="http://www.w3.org/2000/svg">
<path d="M234.669 313.793L182.858 217.314C181.814 215.37 183.522 213.095 185.68 213.554L290.096 235.785C292.315 236.257 292.898 239.152 291.035 240.446L253.979 266.189C253.495 266.525 253.14 267.016 252.973 267.581L239.436 313.302C238.779 315.521 235.764 315.831 234.669 313.793Z" stroke="white" stroke-width="18.5054" stroke-linecap="square"/>
<circle cx="284.097" cy="291.029" r="16.8399" transform="rotate(-28.2369 284.097 291.029)" fill="white"/>
<path fill-rule="evenodd" clip-rule="evenodd" d="M288.406 208.556C282.825 210.384 277.066 206.267 276.372 200.435C274.571 185.299 269.727 170.541 261.944 157.159C258.966 152.037 261.146 145.21 266.777 143.367C270.482 142.154 274.568 143.54 276.568 146.886C286.302 163.173 292.229 181.266 294.221 199.803C294.643 203.727 292.156 207.328 288.406 208.556Z" fill="white"/>
<path fill-rule="evenodd" clip-rule="evenodd" d="M255.801 196.86C253.01 198.933 248.986 197.317 248.143 193.944C243.527 175.489 233.2 158.354 217.454 145.42C213.558 142.22 209.473 139.396 205.245 136.943C202.214 135.185 201.794 130.822 204.607 128.733C206.047 127.663 207.98 127.513 209.537 128.404C214.01 130.967 218.341 133.904 222.487 137.221L223.508 138.048C241.068 152.472 252.511 171.602 257.532 192.171C257.963 193.937 257.261 195.776 255.801 196.86Z" fill="white"/>
<path fill-rule="evenodd" clip-rule="evenodd" d="M191.751 146.889C192.235 150.427 188.62 153.181 185.201 152.149C167.186 146.712 147.496 149.072 131.175 158.745C128.152 160.536 124.062 158.827 123.585 155.346C123.346 153.598 124.126 151.857 125.635 150.942C144.612 139.432 167.709 136.662 188.735 143.253C190.365 143.764 191.52 145.197 191.751 146.889Z" fill="white"/>
<path fill-rule="evenodd" clip-rule="evenodd" d="M159.678 114.44C162.124 119.995 158.081 126.292 152.081 127.21C137.372 129.461 123.157 135.318 110.879 144.645C106.119 148.26 98.9289 146.911 96.5205 141.441C95.0314 138.058 95.8798 134.073 98.784 131.788C114.267 119.602 132.464 112.129 151.277 109.579C154.845 109.096 158.227 111.144 159.678 114.44Z" fill="white"/>
<path fill-rule="evenodd" clip-rule="evenodd" d="M240.969 127.048C239.583 130.069 235.572 130.734 233.144 128.464C231.398 126.831 229.588 125.244 227.715 123.705C210.231 109.344 189.653 101.211 168.662 99.044C165.345 98.7015 163.213 95.2189 164.603 92.1875C165.419 90.4091 167.253 89.3152 169.2 89.5088C192.14 91.79 214.651 100.631 233.77 116.334C235.917 118.098 237.988 119.922 239.982 121.799C241.413 123.147 241.789 125.262 240.969 127.048Z" fill="white"/>
<path fill-rule="evenodd" clip-rule="evenodd" d="M101.683 166.41C105.072 167.185 106.458 171.294 104.442 174.127C93.4137 189.627 87.0986 208.61 87.4986 228.983C87.5976 234.024 88.1049 238.964 88.988 243.772C89.6208 247.218 86.5766 250.373 83.1613 249.592C81.4126 249.192 80.0423 247.821 79.7087 246.058C78.7499 240.992 78.1681 235.791 77.996 230.484L77.9614 229.17C77.5153 206.451 84.6216 185.323 96.9939 168.141C98.0563 166.666 99.9101 166.005 101.683 166.41Z" fill="white"/>
<path fill-rule="evenodd" clip-rule="evenodd" d="M109.412 241.487C111.787 238.821 116.229 239.78 117.666 243.049C125.239 260.274 139.826 273.708 157.784 279.83C161.11 280.964 162.469 285.184 160.131 287.808C158.958 289.126 157.127 289.664 155.451 289.112C134.373 282.165 117.26 266.408 108.608 246.143C107.937 244.572 108.276 242.763 109.412 241.487Z" fill="white"/>
</svg>
