<svg width="388" height="420" viewBox="0 0 388 420" fill="none" xmlns="http://www.w3.org/2000/svg">
<path d="M114.358 200.058C109.817 200.314 108.26 201.744 108.26 205.375V207.45C108.26 211.733 110.466 213.416 114.489 213.416C119.418 213.416 125.645 211.602 130.054 207.71V199.537L114.358 200.058ZM125.256 164.902C139.783 164.902 147.827 170.48 147.827 186.436V225.352H133.689L132 216.402C127.851 221.2 119.547 226.777 109.3 226.777C99.0502 226.777 91.0063 221.2 91.0063 210.436V204.206C91.0063 195.385 96.8441 189.94 107.483 189.94H130.054V186.696C130.054 180.858 127.979 179.169 121.364 179.169H105.537C84.9117 179.169 82.1854 179.95 82.1854 208.098C82.1854 237.548 85.3002 237.287 111.114 237.287H147.699V250.129C135.635 251.037 123.439 251.818 111.246 251.818C69.2157 251.946 64.5435 246.497 64.5435 208.098C64.5435 170.348 68.5671 164.902 105.537 164.902H125.256Z" fill="white"/>
<path d="M162.49 242.865H220.216V255.45H162.49V242.865Z" fill="white"/>
<path d="M284.692 200.058C280.152 200.314 278.594 201.744 278.594 205.375V207.45C278.594 211.733 280.8 213.416 284.821 213.416C289.753 213.416 295.98 211.602 300.388 207.71V199.537L284.692 200.058ZM295.591 164.902C310.118 164.902 318.162 170.48 318.162 186.436V225.352H304.02L302.334 216.402C298.186 221.2 289.882 226.777 279.632 226.777C269.385 226.777 261.341 221.2 261.341 210.436V204.206C261.341 195.385 267.179 189.94 277.817 189.94H300.388V186.696C300.388 180.858 298.314 179.169 291.699 179.169H275.871C255.243 179.169 252.52 179.95 252.52 208.098C252.52 237.548 255.635 237.287 281.449 237.287H318.03V250.129C305.966 251.037 293.773 251.818 281.578 251.818C239.547 251.946 234.878 246.497 234.878 208.098C234.878 170.348 238.898 164.902 275.871 164.902H295.591Z" fill="white"/>
</svg>
