<svg width="388" height="420" viewBox="0 0 388 420" fill="none" xmlns="http://www.w3.org/2000/svg">
<path d="M158.185 258.821C158.185 265.365 152.875 270.676 146.331 270.676C139.787 270.676 134.479 265.365 134.479 258.821C134.479 252.277 139.787 246.966 146.331 246.966C152.875 246.966 158.185 252.277 158.185 258.821ZM240.983 178.04C240.983 184.584 235.675 189.895 229.128 189.895C222.587 189.895 217.277 184.584 217.277 178.04C217.277 171.497 222.587 166.189 229.128 166.189C235.675 166.189 240.983 171.497 240.983 178.04ZM257.581 165.892C257.591 160.743 257.618 155.834 256.912 150.284C251.493 149.591 246.665 149.591 241.331 149.591C219.645 149.591 204.348 158.932 190.307 180.807C184.837 191.747 172.489 216.73 165.797 230.274L176.908 241.382C190.442 234.689 215.388 222.341 226.341 216.865C248.219 202.733 257.581 187.456 257.581 165.892ZM271.804 165.892C271.804 196.49 255.395 215.067 233.848 228.929V259.02C233.848 263.861 230.327 269.554 225.993 271.716L196.739 286.361C195.912 286.767 194.493 287.101 193.567 287.101C189.641 287.101 186.456 283.915 186.456 279.99V252.527L180.121 255.662C179.293 256.071 173.871 258.446 169.266 253.841L153.337 237.919C151.793 236.392 150.533 233.399 150.533 231.233C150.533 230.013 150.966 228.152 151.51 227.064L154.645 220.716H127.195C123.27 220.716 120.084 217.53 120.084 213.605C120.084 212.679 120.415 211.26 120.834 210.432L135.479 181.152C137.655 176.821 143.347 173.307 148.185 173.301H178.243C192.084 151.696 210.594 135.365 241.331 135.365C248.864 135.365 256.432 135.365 266.101 137.439C267.756 137.797 269.398 139.436 269.756 141.094C271.831 150.777 271.831 158.328 271.804 165.892Z" fill="white"/>
<path d="M229.131 166.693C222.871 166.693 217.78 171.784 217.78 178.041C217.78 184.301 222.871 189.392 229.131 189.392C235.388 189.392 240.479 184.301 240.479 178.041C240.479 171.784 235.388 166.693 229.131 166.693ZM229.131 190.399C222.314 190.399 216.77 184.858 216.77 178.041C216.77 171.227 222.314 165.683 229.131 165.683C235.945 165.683 241.489 171.227 241.489 178.041C241.489 184.858 235.945 190.399 229.131 190.399ZM166.408 230.176L177.01 240.767C185.935 236.355 214.192 222.372 226.114 216.412C247.8 202.402 257.077 187.284 257.077 165.892V165.632C257.087 160.683 257.101 156.004 256.462 150.737C251.233 150.095 246.635 150.095 241.331 150.095C219.803 150.095 204.672 159.362 190.733 181.081C186.783 188.98 178.368 205.97 166.408 230.176ZM176.807 241.997L165.182 230.379L165.344 230.051C177.388 205.673 185.864 188.568 189.858 180.581C204.03 158.49 219.415 149.088 241.331 149.088C246.574 149.088 251.526 149.088 256.976 149.784L257.364 149.831L257.415 150.22C258.111 155.71 258.097 160.531 258.084 165.632V165.892C258.084 187.669 248.672 203.041 226.614 217.291C214.493 223.352 185.679 237.608 177.131 241.835L176.807 241.997ZM146.331 247.47C140.074 247.47 134.983 252.561 134.983 258.821C134.983 265.078 140.074 270.169 146.331 270.169C152.591 270.169 157.682 265.078 157.682 258.821C157.682 252.561 152.591 247.47 146.331 247.47ZM146.331 271.179C139.516 271.179 133.972 265.635 133.972 258.821C133.972 252.007 139.516 246.46 146.331 246.46C153.148 246.46 158.692 252.007 158.692 258.821C158.692 265.635 153.148 271.179 146.331 271.179ZM186.959 251.713V279.99C186.959 283.632 189.922 286.598 193.567 286.598C194.408 286.598 195.76 286.281 196.516 285.909L225.766 271.264C229.945 269.183 233.341 263.69 233.341 259.021V228.656L233.574 228.504C259.314 211.95 271.3 192.051 271.3 165.892V165.889C271.324 158.541 271.347 150.943 269.263 141.203C268.945 139.747 267.452 138.25 265.993 137.933C256.378 135.872 248.729 135.872 241.331 135.872C215.06 135.872 195.148 147.852 178.668 173.571L178.52 173.804H148.189C143.523 173.811 138.023 177.21 135.932 181.379L121.287 210.659C120.908 211.406 120.587 212.757 120.587 213.605C120.587 217.247 123.55 220.213 127.195 220.213H155.459L151.962 227.287C151.452 228.308 151.037 230.075 151.037 231.23C151.037 233.277 152.229 236.115 153.692 237.558L169.621 253.483C174.04 257.902 179.31 255.5 179.895 255.21L186.959 251.713ZM193.567 287.608C189.368 287.608 185.949 284.19 185.949 279.99V253.342L180.344 256.115C179.692 256.44 173.827 259.115 168.908 254.2L152.979 238.277C151.327 236.642 150.03 233.548 150.03 231.23C150.03 229.923 150.479 227.994 151.057 226.838L153.834 221.223H127.209C122.993 221.223 119.577 217.808 119.577 213.605C119.577 212.592 119.932 211.095 120.385 210.203L135.03 180.929C137.276 176.45 143.178 172.801 148.185 172.794H177.966C194.624 146.916 214.763 134.862 241.331 134.862C248.783 134.862 256.486 134.862 266.206 136.946C268.07 137.352 269.847 139.125 270.249 140.99C272.358 150.838 272.334 158.49 272.31 165.892C272.31 192.348 260.246 212.473 234.351 229.203V259.01C234.351 264.034 230.702 269.929 226.219 272.166L196.966 286.815C196.06 287.257 194.57 287.608 193.567 287.608Z" fill="white"/>
<path d="M146.054 258.774L121.209 283.622L146.054 258.774Z" fill="white"/>
<path d="M121.208 289.679C119.658 289.679 118.107 289.085 116.925 287.902C114.556 285.537 114.556 281.703 116.925 279.335L141.769 254.49C144.137 252.125 147.972 252.125 150.337 254.49C152.705 256.858 152.705 260.693 150.337 263.061L125.492 287.902C124.31 289.085 122.759 289.679 121.208 289.679Z" fill="white"/>
</svg>
