<svg width="388" height="420" viewBox="0 0 388 420" fill="none" xmlns="http://www.w3.org/2000/svg">
<mask id="mask0_2011_95016" style="mask-type:alpha" maskUnits="userSpaceOnUse" x="37" y="38" width="314" height="343">
<path d="M193.98 38.9956C204.14 38.9956 213.806 41.1991 220.497 45.0429L323.952 104.464C338.078 112.578 350.472 133.933 350.472 150.162V269.004C350.472 285.233 338.078 306.587 323.952 314.702L220.497 374.123C213.806 377.967 204.14 380.17 193.977 380.17C183.813 380.17 174.147 377.967 167.456 374.123L63.9983 314.702C49.8715 306.587 37.4775 285.233 37.4775 269.004V150.162C37.4775 133.933 49.8715 112.578 63.9983 104.464L167.456 45.0429C174.147 41.1991 183.813 38.9956 193.98 38.9956Z" fill="white"/>
</mask>
<g mask="url(#mask0_2011_95016)">
<path d="M235.741 338.907C235.741 453.963 142.47 547.235 27.4133 547.235C-87.643 547.235 -180.915 453.963 -180.915 338.907C-180.915 223.851 -87.643 130.579 27.4133 130.579C142.47 130.579 235.741 223.851 235.741 338.907ZM-163.408 338.907C-163.408 444.295 -77.9742 529.728 27.4133 529.728C132.801 529.728 218.234 444.295 218.234 338.907C218.234 233.52 132.801 148.086 27.4133 148.086C-77.9742 148.086 -163.408 233.52 -163.408 338.907Z" fill="white"/>
<path d="M254.863 338.907C254.863 464.524 153.031 566.357 27.4135 566.357C-98.2034 566.357 -200.036 464.524 -200.036 338.907C-200.036 213.29 -98.2034 111.458 27.4135 111.458C153.031 111.458 254.863 213.29 254.863 338.907ZM-190.638 338.907C-190.638 459.334 -93.0131 556.959 27.4135 556.959C147.84 556.959 245.465 459.334 245.465 338.907C245.465 218.481 147.84 120.855 27.4135 120.855C-93.0131 120.855 -190.638 218.481 -190.638 338.907Z" fill="white"/>
</g>
<circle cx="250.586" cy="155.991" r="28.9344" fill="white"/>
<path d="M239.484 126.142C239.036 125.458 239.224 124.534 239.944 124.145C242.088 122.986 244.455 122.281 246.895 122.083C249.335 121.884 251.785 122.198 254.088 122.996C254.861 123.263 255.196 124.145 254.865 124.892C254.533 125.64 253.66 125.969 252.883 125.715C251.036 125.11 249.082 124.876 247.135 125.035C245.188 125.193 243.298 125.738 241.573 126.634C240.847 127.01 239.932 126.826 239.484 126.142Z" fill="white"/>
<path d="M239.878 125.251C244.596 123.659 249.614 123.166 254.551 123.807L254.044 127.712C249.701 127.147 245.286 127.582 241.137 128.982L239.878 125.251Z" fill="white"/>
<path d="M259.573 181.355C260.624 184.156 259.206 187.328 256.268 187.888C254.35 188.254 252.402 188.441 250.449 188.448C247.458 188.459 245.461 185.615 245.959 182.666C246.457 179.716 249.279 177.803 252.258 177.527C252.308 177.523 252.359 177.518 252.41 177.513C255.386 177.215 258.521 178.555 259.573 181.355Z" fill="white"/>
<path d="M266.41 77.9732C266.537 77.4321 266.202 76.8903 265.661 76.763C265.12 76.6357 264.578 76.9711 264.451 77.5122L265.43 77.7427L266.41 77.9732ZM265.43 77.7427L264.451 77.5122L252.374 128.839L253.354 129.07L254.333 129.3L266.41 77.9732L265.43 77.7427Z" fill="white"/>
<path d="M272.873 100.334C273.121 99.8367 272.92 99.2322 272.422 98.9836C271.925 98.7351 271.321 98.9366 271.072 99.4337L271.972 99.8838L272.873 100.334ZM271.972 99.8838L271.072 99.4337L256.479 128.62L257.379 129.07L258.28 129.52L272.873 100.334L271.972 99.8838Z" fill="white"/>
<path d="M149.005 125.096C148.477 124.92 147.908 125.205 147.732 125.732C147.556 126.26 147.841 126.83 148.368 127.005L148.687 126.051L149.005 125.096ZM148.687 126.051L148.368 127.005L222.34 151.662L222.658 150.708L222.976 149.753L149.005 125.096L148.687 126.051Z" fill="white"/>
<path d="M226.287 208.126C226.038 208.624 226.24 209.228 226.737 209.477C227.234 209.725 227.839 209.524 228.087 209.027L227.187 208.576L226.287 208.126ZM227.187 208.576L228.087 209.027L241.171 182.86L240.27 182.41L239.37 181.96L226.287 208.126L227.187 208.576Z" fill="white"/>
<path d="M233.281 222.84C233.099 223.366 233.377 223.939 233.903 224.121C234.428 224.302 235.001 224.024 235.183 223.499L234.232 223.17L233.281 222.84ZM234.232 223.17L235.183 223.499L248.77 184.249L247.819 183.919L246.867 183.59L233.281 222.84L234.232 223.17Z" fill="white"/>
<path d="M327.601 173.326C328.142 173.452 328.683 173.115 328.809 172.573C328.934 172.032 328.597 171.491 328.056 171.365L327.828 172.345L327.601 173.326ZM327.828 172.345L328.056 171.365L278.238 159.791L278.011 160.772L277.783 161.752L327.601 173.326L327.828 172.345Z" fill="white"/>
<path d="M278.753 105.833C279.026 105.349 279.64 105.177 280.12 105.458C287.291 109.664 293.491 115.341 298.31 122.116C298.632 122.569 298.515 123.196 298.056 123.511L297.393 123.966C296.934 124.28 296.309 124.163 295.986 123.71C291.411 117.29 285.533 111.907 278.736 107.913C278.257 107.631 278.085 107.018 278.358 106.534L278.753 105.833Z" fill="white"/>
<rect x="281.775" y="107.505" width="20.0327" height="31.522" transform="rotate(43.087 281.775 107.505)" fill="white"/>
<rect x="281.775" y="107.505" width="20.0327" height="31.522" transform="rotate(43.087 281.775 107.505)" fill="white"/>
<rect x="281.775" y="107.505" width="20.0327" height="31.522" transform="rotate(43.087 281.775 107.505)" fill="white"/>
<rect x="268.948" y="120.156" width="21.4165" height="1.62532" rx="0.812662" transform="rotate(43.087 268.948 120.156)" fill="white"/>
<rect x="268.948" y="120.156" width="21.4165" height="1.62532" rx="0.812662" transform="rotate(43.087 268.948 120.156)" fill="white"/>
<rect x="268.948" y="120.156" width="21.4165" height="1.62532" rx="0.812662" transform="rotate(43.087 268.948 120.156)" fill="white"/>
<rect x="275.377" y="113.329" width="21.4208" height="1.42377" rx="0.711887" transform="rotate(43.087 275.377 113.329)" fill="white"/>
<rect x="275.377" y="113.329" width="21.4208" height="1.42377" rx="0.711887" transform="rotate(43.087 275.377 113.329)" fill="white"/>
<rect x="275.377" y="113.329" width="21.4208" height="1.42377" rx="0.711887" transform="rotate(43.087 275.377 113.329)" fill="white"/>
</svg>
