<svg width="388" height="420" viewBox="0 0 388 420" fill="none" xmlns="http://www.w3.org/2000/svg">
<path d="M167.318 221.122C143.358 210.426 134.378 198.233 134.378 176.632C134.378 143.051 150.632 133.209 195.125 133.209C210.524 133.209 231.058 134.493 248.811 140.696L246.031 170.429C233.196 170.216 212.449 170 194.054 170C183.358 170 180.365 171.071 180.365 175.561C180.365 179.625 183.145 181.764 193.199 185.615L219.936 196.736C244.534 207.432 253.088 220.054 253.088 241.655C253.088 274.811 238.757 286.791 192.77 286.791C182.716 286.791 161.328 286.149 135.659 279.517L138.443 247.003C163.895 247.649 184.216 248.074 192.128 248.074C203.892 248.074 206.672 247.003 206.672 242.939C206.672 238.875 204.537 236.953 196.618 233.956L167.318 221.122Z" fill="white"/>
<path d="M258.28 217.233C242.699 210.277 236.858 202.348 236.858 188.301C236.858 166.46 247.429 160.061 276.362 160.061C286.378 160.061 299.733 160.895 311.277 164.929L309.47 184.267C301.122 184.125 287.632 183.987 275.666 183.987C268.713 183.987 266.764 184.683 266.764 187.605C266.764 190.247 268.571 191.639 275.112 194.142L292.497 201.375C308.497 208.331 314.061 216.537 314.061 230.588C314.061 252.149 304.74 259.939 274.831 259.939C268.294 259.939 254.385 259.52 237.693 255.21L239.5 234.064C256.054 234.483 269.267 234.76 274.416 234.76C282.068 234.76 283.875 234.064 283.875 231.423C283.875 228.781 282.483 227.527 277.335 225.581L258.28 217.233Z" fill="white"/>
<path d="M94.8277 217.233C79.2466 210.277 73.4054 202.348 73.4054 188.301C73.4054 166.46 83.9797 160.061 112.912 160.061C122.926 160.061 136.28 160.895 147.828 164.929L146.017 184.267C137.672 184.125 124.179 183.987 112.216 183.987C105.26 183.987 103.314 184.683 103.314 187.605C103.314 190.247 105.122 191.639 111.659 194.142L129.047 201.375C145.044 208.331 150.608 216.537 150.608 230.588C150.608 252.149 141.291 259.939 111.382 259.939C104.845 259.939 90.9324 259.52 74.2399 255.21L76.0507 234.064C92.6014 234.483 105.818 234.76 110.963 234.76C118.615 234.76 120.422 234.064 120.422 231.423C120.422 228.781 119.034 227.527 113.885 225.581L94.8277 217.233Z" fill="white"/>
</svg>
