<svg width="388" height="420" viewBox="0 0 388 420" fill="none" xmlns="http://www.w3.org/2000/svg">
<path d="M283.385 266.872L200.739 314.588V214.399L227.777 199.23L227.969 236.257C227.979 238.331 230.51 239.335 231.939 237.831L246.067 222.97C246.493 222.524 247.077 222.267 247.689 222.254L259.854 221.997C261.104 221.973 262.108 220.949 262.108 219.696V179.973L287.54 165.706V259.676C287.54 262.635 285.945 265.392 283.385 266.872ZM108.405 266.872C105.844 265.392 104.25 262.635 104.25 259.676V164.662L191.05 214.372V314.588L108.405 266.872ZM195.918 205.993L108.733 156.064L136.233 140.186L223.31 190.625L195.918 205.993ZM191.739 108.139C193.02 107.399 194.459 107.031 195.895 107.031C197.331 107.031 198.766 107.399 200.05 108.139L283.385 156.254C283.577 156.362 283.75 156.493 283.932 156.618L257.645 171.365L169.601 120.919L191.739 108.139ZM288.229 147.862L204.895 99.7468C199.341 96.5441 192.446 96.5441 186.895 99.7468L103.56 147.862C98.0097 151.068 94.5604 157.041 94.5604 163.449V259.676C94.5604 266.085 98.0097 272.058 103.56 275.264L186.895 323.375C189.672 324.98 192.783 325.781 195.895 325.781C199.006 325.781 202.118 324.98 204.895 323.375L288.229 275.264C293.78 272.058 297.229 266.085 297.229 259.676V163.449C297.229 157.041 293.78 151.068 288.229 147.862Z" fill="white"/>
</svg>
