<svg width="388" height="420" viewBox="0 0 388 420" fill="none" xmlns="http://www.w3.org/2000/svg">
<path d="M190.973 205.554L189.557 205.385C189.291 204.494 188.757 203.342 187.743 202.129C185.291 199.186 178.111 198.581 176.699 198.531L176.628 198.328H176.557C175.142 198.328 167.963 198.95 165.51 201.889C164.497 203.105 163.966 204.274 163.696 205.166L162.28 205.51C160.085 201.791 156.713 199.058 153.162 197.602H200.091C196.544 199.058 193.172 201.835 190.973 205.554ZM288.152 227.436C287.926 223.068 287.365 219.061 287.365 219.061C287.365 219.061 284.96 196.551 254.122 193.548C223.284 190.544 215.544 192.605 215.544 192.605C215.544 192.605 214.267 192.737 212.811 193.021V191.781H135.676V192.46C133.493 192.038 122.976 191.298 98.6825 193.663C67.8446 196.666 65.6656 219.061 65.6656 219.061C65.6656 219.061 65.3278 223.068 65.1014 227.436H57.0879V232.531H65.0169C65.0879 239.808 65.875 246.963 68.4933 253.646C74.3007 268.467 87.7196 274.818 87.7196 274.818C87.7196 274.818 105.341 287.706 132.372 265.277C159.405 242.852 164.213 220.659 164.213 220.659C164.639 218.622 164.831 216.747 164.828 214.99L167.105 213.227C167.645 212.879 168.693 211.97 168.882 210.061C168.912 209.784 168.926 209.446 168.943 209.051C169.03 206.909 169.24 205.612 169.561 205.196C169.74 205.136 169.916 205.078 170.088 205.017C171.726 204.453 173.02 204.01 176.628 204.01C180.233 204.01 181.527 204.456 183.162 205.017C183.338 205.078 183.514 205.139 183.693 205.2C184.017 205.615 184.223 206.909 184.314 209.054C184.331 209.446 184.345 209.788 184.372 210.068C184.561 211.973 185.608 212.889 186.149 213.233L188.426 215.007C188.422 216.764 188.615 218.656 189.041 220.696C189.041 220.696 193.848 242.923 220.882 265.352C247.916 287.781 265.537 274.963 265.537 274.963C265.537 274.963 278.953 268.467 284.76 253.646C287.378 246.963 288.166 239.808 288.24 232.531H295.767V227.436H288.152Z" fill="white"/>
<path d="M246.639 149.013C252.76 145.642 257.169 139.831 258.77 133.027L259.395 130.368L261.237 134.432C263.824 140.142 268.21 144.851 273.723 147.838C268.115 150.77 263.585 155.419 260.797 161.101L260.183 162.361L259.953 161.75C257.693 155.692 252.791 151.003 246.639 149.013Z" fill="white"/>
<path d="M313.084 206.976C316.375 205.162 318.746 202.041 319.604 198.382L319.942 196.956L320.932 199.138C322.324 202.209 324.679 204.74 327.641 206.345C324.628 207.919 322.192 210.419 320.695 213.473L320.364 214.149L320.239 213.821C319.027 210.568 316.391 208.044 313.084 206.976Z" fill="white"/>
<path d="M260.831 175.814C260.831 175.814 295.49 172.456 295.49 132.757C295.49 132.757 297.169 175.814 331.618 175.814C331.618 175.814 297.591 177.287 297.432 210C297.432 210 293.179 175.605 260.831 175.814Z" fill="white"/>
</svg>
