<svg width="388" height="420" viewBox="0 0 388 420" fill="none" xmlns="http://www.w3.org/2000/svg">
<path d="M152.652 141.743C155.851 141.743 158.274 144.446 158.274 147.645V164.162H147.03V147.645C147.03 144.446 149.453 141.743 152.652 141.743ZM179.895 133.754C179.895 130.554 181.885 127.851 185.085 127.851C188.284 127.851 190.274 130.554 190.274 133.754V166.095C185.949 164.639 183.726 164.162 179.791 164.162H179.895V133.754ZM218.814 133.754C218.814 130.554 222.101 127.851 225.301 127.851C228.5 127.851 231.787 130.554 231.787 133.754V188.571C231.787 188.879 231.561 189.183 231.514 189.48C231.061 192.264 228.487 194.473 225.598 194.473C223.743 194.473 221.622 193.564 220.531 192.179C219.737 191.172 218.814 189.919 218.814 188.571V133.754ZM263.933 141.743C267.392 141.743 269.841 144.784 269.841 147.645V189.581C268.112 192.318 266.257 194.473 263.402 194.473C260.203 194.473 256.868 191.77 256.868 188.571V147.645C256.868 144.554 260.541 141.743 263.933 141.743ZM111.547 241.304C110.72 239.355 110.689 237.186 111.463 235.203L129.412 189.659C130.635 186.527 133.598 184.919 136.96 184.919H179.791C184.26 184.919 187.895 188.233 187.895 192.703C187.895 197.169 184.26 200.487 179.791 200.487H150.274C144.679 200.487 140.145 204.838 140.145 210.433C140.145 216.027 144.679 220.379 150.274 220.379H179.791C190.848 220.379 200.439 214.101 205.115 204.851C209.916 210.814 217.267 214.686 225.5 214.686C232.878 214.686 239.551 211.632 244.311 206.699C249.071 211.632 256.199 214.72 263.578 214.72C265.574 214.72 266.382 214.497 269.841 214.071V214.767C269.841 214.892 269.385 214.98 269.389 215.105C269.396 215.27 269.554 231.879 261.108 249.402C250.122 272.203 229.507 286.135 200.061 290.811C143.068 299.851 119.139 259.203 111.547 241.304ZM288.868 188.571V147.645C288.868 132.976 277.838 121.487 263.493 121.487C258.615 121.487 254.095 122.848 250.108 125.189C246.554 114.96 236.872 107.595 225.449 107.595C217.287 107.595 210.017 111.351 205.216 117.226C200.416 111.351 193.132 107.595 184.973 107.595C174.443 107.595 165.358 113.851 161.213 122.841C158.605 121.966 155.142 121.487 152.243 121.487C137.821 121.487 125.409 133.22 125.409 147.645V165.703C119.355 168.493 112.845 174.24 109.865 181.875L92.2535 227.835C89.544 234.774 89.821 242.365 92.7264 249.216C96.8481 258.926 106.473 277.362 124.091 291.726C140.966 305.483 160.963 312.406 183.645 312.406C189.916 312.406 196.419 311.875 203.101 310.814C248.922 303.544 269.804 277.71 279.378 257.318C289.186 236.433 288.868 217.098 288.868 214.632V188.571Z" fill="white"/>
</svg>
