<svg width="388" height="420" viewBox="0 0 388 420" fill="none" xmlns="http://www.w3.org/2000/svg">
<path d="M236.708 307L229.208 296" stroke="white" stroke-width="7.78378" stroke-linecap="round" stroke-linejoin="round" stroke-dasharray="1 11"/>
<path d="M222.208 286L245.208 278" stroke="white" stroke-width="7.78378" stroke-linecap="round" stroke-linejoin="round" stroke-dasharray="1 11"/>
<path d="M237.708 268.5C192.029 214.574 137.208 238.5 117.708 253.5" stroke="white" stroke-width="7.78378" stroke-linecap="round" stroke-linejoin="round" stroke-dasharray="1 11"/>
<path d="M123.208 263.5C150.208 314 193.1 316.392 224.208 309.5" stroke="white" stroke-width="7.78378" stroke-linecap="round" stroke-linejoin="round" stroke-dasharray="1 11"/>
<path d="M282.708 154L268.708 152.5" stroke="white" stroke-width="7.78378" stroke-linecap="round" stroke-linejoin="round" stroke-dasharray="1 11"/>
<path d="M255.208 151L267.708 127" stroke="white" stroke-width="7.78378" stroke-linecap="round" stroke-linejoin="round" stroke-dasharray="1 11"/>
<path d="M255.208 127.5C174.708 124.5 161.124 183.905 157.708 202" stroke="white" stroke-width="7.78378" stroke-linecap="round" stroke-linejoin="round" stroke-dasharray="1 11"/>
<path d="M169.708 205C229.708 217 256.904 192.186 275.708 164" stroke="white" stroke-width="7.78378" stroke-linecap="round" stroke-linejoin="round" stroke-dasharray="1 11"/>
<path d="M155.208 114L147.208 118.5" stroke="white" stroke-width="7.78378" stroke-linecap="round" stroke-linejoin="round" stroke-dasharray="1 11"/>
<path d="M140.708 123.5L139.208 115" stroke="white" stroke-width="7.78378" stroke-linecap="round" stroke-linejoin="round" stroke-dasharray="1 11"/>
<path d="M137.709 106.5C94.2084 134.5 98.7086 182.5 107.708 199.5" stroke="white" stroke-width="7.78378" stroke-linecap="round" stroke-linejoin="round" stroke-dasharray="1 11"/>
<path d="M117.708 194C149.208 175 153.708 150 155.708 125.5" stroke="white" stroke-width="7.78378" stroke-linecap="round" stroke-linejoin="round" stroke-dasharray="1 11"/>
</svg>
