<svg width="388" height="420" viewBox="0 0 388 420" fill="none" xmlns="http://www.w3.org/2000/svg">
<path d="M142.753 214.672L142.824 214.72C145.222 216.297 147.797 217.443 150.479 218.125C153.827 218.977 157.726 219.899 161.651 220.058C164.428 220.172 167.158 220.102 170.047 220.027L170.256 220.02C171.29 219.993 172.371 219.743 173.51 219.476C174.256 219.301 175.026 219.122 175.837 218.99C178.091 218.625 180.523 217.824 183.486 216.466C183.837 216.307 184.236 216.027 184.662 215.733C184.776 215.652 184.895 215.571 185.016 215.49C184.844 212.284 184.219 209.145 183.56 205.828L183.381 204.922C182.753 201.726 181.756 198.655 180.776 195.814C179.739 192.814 178.307 189.963 176.79 186.943L176.442 186.243C175.57 184.507 174.557 183.909 172.276 183.787C170.408 183.686 168.591 183.382 166.834 183.088C166.023 182.953 165.256 182.824 164.483 182.716C163.111 182.52 162.108 181.638 161.776 180.351C161.368 180.341 160.949 180.344 160.52 180.348C160.256 180.348 159.993 180.351 159.726 180.351C159.408 180.845 158.702 181.605 157.3 181.682C156.858 181.709 156.442 181.696 156.074 181.689C156.003 181.686 155.935 181.686 155.864 181.682L152.928 182.159C151.986 182.632 151.067 182.605 150.523 182.584C150.439 182.584 150.327 182.577 150.253 182.581C149.087 183.094 148.06 184.017 146.979 184.99L146.753 185.192C146.658 185.307 146.547 185.865 146.479 186.199C146.364 186.77 146.233 187.415 145.945 188.091C144.787 190.841 143.459 194.091 142.428 197.385C142.178 198.182 141.956 199 141.719 199.861C141.452 200.844 141.175 201.861 140.851 202.861C140.05 205.321 139.503 208.007 139.074 211.564C139.06 211.676 139.057 211.747 139.057 211.787C139.067 211.801 139.08 211.814 139.094 211.831C140.087 212.915 141.381 213.77 142.753 214.672Z" fill="white"/>
<path d="M144.084 159.362L144.395 159.473C145.76 159.96 147.051 160.416 148.389 160.747C150.943 161.375 153.699 161.561 156.814 161.311C157.872 161.227 158.892 161.21 159.878 161.193C161.405 161.173 162.986 161.149 163.807 160.818C164.034 160.727 164.27 160.669 164.514 160.649C166.497 160.477 168.155 160.132 169.76 159.801C170.983 159.544 172.139 159.308 173.358 159.156C175.429 158.902 177.443 158.416 179.574 157.899C180.118 157.767 180.659 157.635 181.203 157.507C181.709 157.389 182.064 157.189 182.419 156.818C182.726 156.497 183.02 156.078 183.334 155.635C183.743 155.054 184.209 154.399 184.818 153.787C186.463 152.142 187.622 150.027 188.432 147.189C188.166 147.081 187.905 146.973 187.659 146.869C187.024 146.598 186.422 146.345 185.889 146.23C184.632 145.956 183.405 145.622 182.216 145.301C181.331 145.061 180.5 144.831 179.652 144.629C177.132 144.024 174.405 143.676 171.071 143.541C166.155 143.341 161.203 143.744 156.348 144.733C153.591 145.298 150.953 146.108 148.162 146.963C147.669 147.115 147.172 147.267 146.679 147.419C146.139 147.581 145.595 147.882 144.966 148.223C144.456 148.504 143.926 148.794 143.328 149.054C140.669 150.193 138.557 151.294 136.882 152.963C136.666 153.176 136.48 153.531 136.395 153.787C136.5 153.885 136.605 153.983 136.709 154.085C139.051 156.284 141.26 158.365 144.084 159.362Z" fill="white"/>
<path d="M102.25 203.017C102.723 203.193 103.253 203.28 103.875 203.284C104.632 203.287 105.388 203.284 106.145 203.28C109.152 203.27 112.257 203.253 115.392 203.743C115.689 203.79 115.939 203.871 116.108 203.929C116.415 203.976 116.726 204.02 117.034 204.061C119.054 204.348 121.142 204.638 123.22 205.446C123.331 205.456 123.442 205.466 123.551 205.473C123.618 205.28 123.692 205.064 123.763 204.861L123.861 204.581C124.341 203.196 124.878 201.831 125.402 200.513C125.767 199.588 126.145 198.628 126.493 197.689C126.763 196.959 126.888 196.105 127.02 195.199C127.162 194.23 127.321 193.138 127.689 192.04C128.091 190.189 128.314 188.148 128.368 185.804C128.439 182.784 127.267 180.757 124.682 179.432C124.368 179.273 124.057 179.108 123.747 178.942C123.027 178.564 122.351 178.209 121.662 177.902C119.953 177.142 117.713 177.493 116.662 178.682C116.182 179.23 115.686 179.76 115.209 180.273C114.101 181.459 113.054 182.584 112.24 183.821C112.047 184.304 111.692 184.814 111.051 185.236L110.919 185.395C110.696 186.081 110.307 186.682 109.784 187.159C109.54 187.652 109.216 188.243 108.686 188.79C108.665 188.821 108.645 188.855 108.622 188.885L108.53 189.02L108.375 189.297C108.017 190.223 107.395 190.844 106.875 191.277C106.524 192.159 106.057 193.159 105.196 194.03C105.054 194.402 104.828 194.74 104.53 195.013L101.801 198.317L101.692 198.483C101.676 198.513 101.659 198.547 101.642 198.574L101.622 198.608L101.649 201.51L102.25 203.017Z" fill="white"/>
<path d="M207.871 163.662C207.665 163.774 207.452 163.865 207.229 163.939C206.368 164.764 205.486 165.554 204.628 166.321C203.939 166.936 203.223 167.574 202.55 168.206C200.615 170.027 199.111 171.953 197.956 174.085C197.932 174.129 197.908 174.169 197.885 174.213C196.969 175.686 197.04 177.46 197.128 179.514C197.148 180.02 197.169 180.534 197.175 181.061C198.155 182.233 198.608 183.656 198.479 185.162C198.571 185.426 198.655 185.689 198.736 185.946C198.969 186.672 199.213 187.426 199.503 187.764C200.371 188.777 201.186 189.878 201.983 191.112C202.49 191.524 202.909 192.031 203.223 192.615L203.395 192.777C203.49 192.865 203.577 192.956 203.655 193.058C205.01 194.76 206.557 196.24 208.257 197.453C208.706 197.774 209.111 198.112 209.503 198.436C210.459 199.23 211.077 199.72 211.74 199.764C212.807 199.838 213.895 199.828 215.05 199.818C215.351 199.814 215.652 199.814 215.949 199.811C216.354 199.659 216.79 199.595 217.24 199.632C218.402 199.49 219.55 199.03 220.898 198.392C225.439 196.24 228.919 193.551 231.54 190.172C232.915 188.399 232.841 185.824 231.371 184.429C230.101 183.223 229.115 181.885 228.223 180.601C228.111 180.507 228.003 180.402 227.909 180.29C227.794 180.193 227.689 180.081 227.591 179.966C227.571 179.943 227.547 179.922 227.523 179.899C227.338 179.747 227.179 179.568 227.047 179.368C226.952 179.267 226.868 179.155 226.794 179.041C226.709 178.946 226.632 178.845 226.561 178.736L222.48 174.49C221.662 173.922 221.226 173.189 220.925 172.682C220.844 172.547 220.736 172.368 220.689 172.314C219.375 171.007 217.638 169.247 215.98 167.334C215.74 167.057 215.503 166.777 215.267 166.5C214.067 165.071 213.03 163.838 211.523 163.287C210.49 162.909 209.692 162.858 208.882 163.135C208.581 163.378 208.24 163.558 207.871 163.662Z" fill="white"/>
<path d="M134.162 210.97C134.631 207.085 135.243 204.112 136.145 201.331C136.432 200.446 136.682 199.531 136.949 198.561C137.185 197.689 137.429 196.791 137.709 195.906C138.804 192.412 140.185 189.024 141.391 186.166C141.483 185.95 141.554 185.598 141.628 185.227C141.844 184.152 142.138 182.686 143.452 181.51L143.672 181.311C144.983 180.132 146.473 178.791 148.469 177.963C149.348 177.602 150.152 177.625 150.682 177.642C150.729 177.642 150.783 177.646 150.837 177.646C151.091 177.5 151.371 177.402 151.665 177.355L155.287 176.767C155.344 176.757 155.402 176.75 155.459 176.744C155.692 176.355 156.013 176.011 156.408 175.744C156.902 175.402 157.503 175.257 158.098 175.328C158.837 175.416 159.635 175.409 160.479 175.402C161.652 175.392 162.864 175.382 164.162 175.608L164.226 175.615C164.635 175.646 165.712 175.723 166.581 176.653C166.918 177.021 167.141 177.48 167.216 177.973C167.223 178.031 167.229 178.085 167.236 178.142C167.375 178.163 167.513 178.186 167.652 178.21C169.348 178.494 170.952 178.761 172.543 178.848C175.283 178.997 178.706 179.72 180.864 184.027L181.212 184.723C182.736 187.757 184.31 190.892 185.452 194.2C186.489 197.21 187.547 200.473 188.236 203.967L188.415 204.865C189.104 208.352 189.82 211.957 189.976 215.68L189.983 215.798C190.077 217.375 189.52 218.534 188.321 219.244C188.061 219.396 187.78 219.592 187.483 219.798C186.925 220.183 186.297 220.622 185.547 220.963C183.186 222.048 181.091 222.818 179.118 223.335C178.27 223.561 177.439 223.744 176.625 223.872C175.986 223.977 175.331 224.129 174.638 224.291C173.304 224.605 171.925 224.926 170.385 224.967L170.172 224.974C168.405 225.018 166.598 225.065 164.78 225.065C163.672 225.065 162.561 225.048 161.452 225.004C157.05 224.825 152.851 223.835 149.26 222.92C146.044 222.102 142.963 220.734 140.104 218.852L140.034 218.805C138.469 217.774 136.848 216.71 135.439 215.166C134.365 213.987 133.959 212.656 134.162 210.97ZM78.2395 259.946C81.6516 264.014 85.4151 267.737 89.4118 271.233C90.9827 272.612 92.5942 273.314 94.7192 273.044C97.7091 272.662 100.733 272.902 103.746 272.723C107.716 272.49 111.712 272.558 115.692 272.716C118.199 272.814 120.706 272.946 123.212 272.889C124.131 272.868 125.371 273.061 125.419 271.514C125.655 270.662 126.486 270.71 127.084 270.409C127.446 270.372 127.807 270.335 128.169 270.297C128.246 270.436 128.324 270.433 128.408 270.301C128.902 270.23 129.574 270.233 129.726 269.74C130.104 268.49 130.652 267.216 130.287 265.875C130.108 265.227 130.104 264.659 130.27 264.01C130.52 263.041 130.206 262.352 129.087 262.183C128.753 262.132 128.412 261.939 128.131 261.727C125.706 259.892 123.459 257.895 121.996 255.149C121.672 254.541 121.611 254.091 122.064 253.551C123.983 251.257 126.358 249.362 127.905 246.618C129.648 248.922 131.125 251.058 131.875 253.754C132.679 256.662 132.655 259.612 133.023 262.537C133.219 264.095 133.831 264.814 135.368 265.041C137.209 265.314 139.057 265.602 140.875 266.014C144.452 266.821 148.044 266.686 151.628 266.21C153.969 265.899 156.27 265.216 158.618 265.031C160.233 264.902 161.946 264.487 163.557 265.453C164.155 265.811 164.422 265.125 164.29 264.615C164.027 263.608 163.976 262.568 163.581 261.564C163.121 260.399 162.544 259.183 162.381 257.987C162.054 255.558 161.554 253.118 161.746 250.632C161.787 250.098 161.854 249.524 161.486 249.041C161.544 248.75 161.53 248.507 161.131 248.531C161.131 248.531 161.05 248.463 161.047 248.463C161.047 248.379 161.043 248.294 161.043 248.21C161.624 247.196 162.523 246.588 163.601 246.206C164.385 246.199 165.185 246.466 165.945 246.054C166.077 246.031 166.209 246.01 166.341 245.987C167.611 245.943 168.881 245.895 170.152 245.852C170.374 245.899 170.594 245.956 170.82 245.997C171.942 246.186 173.233 245.554 174.192 246.24C176.513 247.909 178.976 247.618 181.527 247.162C183.277 246.852 185.043 246.632 186.804 246.392C187.097 246.352 187.479 246.243 187.648 246.629C187.773 246.916 187.557 247.169 187.398 247.372C186.898 248.024 186.229 248.581 185.861 249.294C184.57 251.804 183.033 254.145 181.398 256.439C180.76 257.331 179.962 258.341 180.351 259.578C180.888 261.277 181.597 262.872 183.317 263.794C184.847 264.615 186.516 265.064 188.111 265.713C190.374 266.635 192.797 266.966 195.219 267.321C200.003 268.024 204.804 267.845 209.608 267.787C209.945 267.784 210.277 267.507 210.624 267.45C211.817 267.243 212.942 266.105 214.141 266.73C216.243 267.818 218.425 268.635 220.601 269.524C223.891 270.865 227.307 271.429 230.709 272.078C235.543 273 240.472 272.632 245.368 272.686C246.324 272.696 247.277 272.206 248.219 272.598C249.314 273.051 250.459 273.078 251.591 273.034C253.101 272.977 254.628 272.618 255.793 271.693C256.52 271.115 257.094 270.923 257.966 270.99C260.114 271.152 262.277 271.223 264.168 269.889C265.273 269.713 265.719 269.037 265.648 267.96C265.692 267.835 265.739 267.71 265.783 267.585C266.624 267.483 267.466 267.382 268.307 267.281C269.087 267.409 269.834 267.189 270.587 267.044C271.719 266.825 272.246 266.068 272.124 264.987C271.679 261.01 270.939 257.145 267.486 254.487C266.429 253.267 265.28 252.118 264.523 250.669C264.489 249.98 264.32 249.325 264.054 248.686C262.912 245.926 261.956 243.102 260.702 240.379C259.297 237.318 257.665 234.379 256.253 231.338C255.469 229.656 254.108 228.419 253.405 226.743C256.614 225.554 259.486 223.747 262.31 221.858C267.641 218.294 272.341 214.095 275.577 208.46C275.898 207.895 276.226 207.787 276.783 208.095C279.493 209.588 282.506 209.973 285.489 209.983C293.074 210.014 300.665 210.21 308.246 209.784C309.432 209.716 310.638 209.811 311.797 209.605C314.398 209.145 316.922 208.358 319.405 207.443C320.878 206.727 322.385 206.068 323.814 205.274C324.807 204.72 325.631 203.977 326.118 202.838C326.945 200.899 327.432 198.875 327.787 196.825C329.391 187.564 330.02 178.254 329.01 168.875C328.8 166.909 328.165 165.365 326.064 164.575C323.729 163.7 321.533 162.446 319.121 161.777C317.956 161.456 316.733 161.037 315.584 161C313.489 160.929 311.395 160.642 309.361 160.385C307.084 160.095 304.868 160.156 302.618 160.169C301.456 159.956 300.371 160.365 299.256 160.564C295.148 161.304 290.986 161.639 286.908 162.656C283.628 163.477 280.304 164.105 277.162 165.385C272.969 167.095 269.489 169.585 267.952 174.112C267.851 174.412 267.739 174.754 267.527 174.966C265.692 176.791 265.584 179.429 264.418 181.591C263.364 183.544 263.05 185.835 261.78 187.818C260.766 189.402 259.787 191.031 258.756 192.618C257.554 194.47 255.77 195.811 254.489 197.595C253.996 198.287 251.486 198.618 251.212 197.98C250.554 196.45 248.993 196.581 247.983 196.362C245.131 195.743 242.652 194.372 240.06 193.21C239.381 192.906 238.972 192.294 238.618 191.622C238.165 190.774 237.733 189.916 237.307 189.058C237.033 190.527 236.418 191.956 235.449 193.206C232.341 197.21 228.277 200.368 223.02 202.862C221.395 203.632 219.611 204.368 217.574 204.571C217.273 204.696 216.942 204.764 216.604 204.76C216.101 204.757 215.594 204.76 215.091 204.764C214.706 204.767 214.317 204.771 213.922 204.771C213.439 204.771 212.952 204.764 212.462 204.75C212.111 204.737 211.756 204.723 211.402 204.7C209.114 204.544 207.577 203.267 206.341 202.24C206.182 202.109 206.03 201.98 205.878 201.859C205.709 201.723 205.543 201.595 205.385 201.48C203.405 200.071 201.604 198.372 200.02 196.426C199.489 196.122 199.087 195.629 198.898 195.041C198.878 194.97 198.858 194.946 198.858 194.946C198.537 194.747 198.256 194.473 198.054 194.152C197.304 192.957 196.55 191.919 195.746 190.98C194.804 189.886 194.391 188.595 194.026 187.457C193.898 187.058 193.78 186.68 193.648 186.352C193.466 185.896 193.422 185.396 193.526 184.916C193.601 184.565 193.553 184.409 193.307 184.152C193.172 184.014 193.057 183.862 192.956 183.7L192.925 183.656C192.712 183.362 192.212 182.669 192.229 181.69C192.239 181.058 192.212 180.409 192.185 179.72C192.081 177.23 191.966 174.416 193.638 171.669C195.043 169.088 196.851 166.777 199.158 164.605C199.881 163.926 200.621 163.267 201.334 162.629C202.371 161.703 203.351 160.828 204.283 159.899C204.648 159.534 205.118 159.298 205.621 159.213C205.77 159.119 205.929 159.041 206.094 158.984C206.101 158.98 206.108 158.977 206.111 158.973C206.212 158.909 206.32 158.848 206.429 158.798C207.368 158.365 208.317 158.112 209.293 158.038C208.962 157.842 208.648 157.615 208.374 157.332C206.706 155.592 205.023 153.875 203.05 152.467C201.276 151.203 199.57 149.848 197.682 148.73C196.543 148.055 196.888 147.335 194.689 147.061C193.429 146.903 193.537 147.24 193.506 147.345C192.631 150.943 191.324 153.747 189.442 156.038C189.135 156.413 188.814 156.771 188.476 157.119C188.422 157.173 188.371 157.227 188.32 157.281C188.006 157.595 187.699 158.028 187.374 158.49C187.037 158.97 186.651 159.504 186.182 160.028C186.118 160.098 186.057 160.169 185.989 160.24C185.479 160.774 184.922 161.21 184.314 161.558C183.709 161.903 183.05 162.156 182.334 162.325C181.8 162.45 181.27 162.578 180.739 162.707C180.432 162.781 180.124 162.855 179.814 162.93C177.925 163.382 175.983 163.818 173.959 164.068C172.945 164.19 171.885 164.409 170.763 164.642C169.182 164.97 167.401 165.342 165.276 165.548C163.689 166.085 161.871 166.112 159.952 166.139C159.043 166.156 158.108 166.169 157.212 166.24C156.182 166.325 155.182 166.365 154.209 166.365C151.726 166.365 149.415 166.095 147.202 165.548C145.628 165.159 144.162 164.639 142.739 164.136L142.432 164.028C138.628 162.68 135.929 160.142 133.32 157.686C133.108 157.487 132.891 157.284 132.679 157.085C132.276 156.707 131.962 156.257 131.746 155.75C131.726 155.771 131.712 155.788 131.692 155.808C129.726 157.649 127.871 159.598 126.246 161.757C123.861 164.919 121.925 168.362 119.989 171.805C119.804 172.136 119.648 172.46 119.32 172.551C120.783 172.497 122.283 172.764 123.675 173.386C124.513 173.757 125.293 174.169 126.05 174.568C126.344 174.723 126.641 174.879 126.939 175.031C131.226 177.227 133.429 180.994 133.314 185.919C133.249 188.646 132.979 191.041 132.489 193.247C132.466 193.345 132.439 193.44 132.408 193.531C132.162 194.23 132.04 195.048 131.915 195.916C131.76 196.98 131.584 198.19 131.131 199.406C130.766 200.396 130.378 201.379 130 202.332C129.476 203.659 128.979 204.916 128.533 206.2L128.442 206.473C127.912 208.011 127.53 209.119 126.371 209.862C125.658 210.318 124.942 210.45 124.118 210.45C123.594 210.45 123.03 210.396 122.398 210.338C122.152 210.315 121.908 210.254 121.682 210.159C120.067 209.484 118.256 209.23 116.344 208.96C115.945 208.906 115.55 208.848 115.152 208.791C115.027 208.771 114.905 208.744 114.787 208.707C114.699 208.68 114.618 208.649 114.533 208.619L114.52 208.615C111.81 208.203 109.07 208.217 106.165 208.23C105.391 208.234 104.618 208.234 103.841 208.23C102.03 208.22 100.466 207.798 99.0671 206.943C98.6583 206.693 98.3306 206.332 98.1245 205.899L97.8712 205.369L97.8642 205.352C97.8406 205.305 97.8203 205.257 97.8001 205.207L97.0568 203.352C96.7089 204.092 96.1987 204.717 95.5805 205.328C93.1582 207.727 90.4352 209.47 86.7899 208.629C85.8203 208.406 84.9284 207.95 83.9284 207.74C80.6514 207.051 77.9014 209.183 77.7629 212.534C77.692 214.288 78.3879 215.74 79.3034 217.109C80.594 219.044 82.6447 220.179 84.4251 221.548C86.2088 222.919 88.1717 224.075 89.8845 225.561C90.2088 225.842 90.6852 226.048 90.0399 226.575C88.5805 227.761 87.4791 229.291 86.3034 230.737C83.5095 234.183 81.1143 237.906 79.1886 241.889C77.344 245.703 75.942 249.71 74.9251 253.835C74.7865 254.396 74.5737 255.031 74.9453 255.548C76.0095 257.041 77.0638 258.544 78.2395 259.946Z" fill="white"/>
</svg>
