<svg width="388" height="420" viewBox="0 0 388 420" fill="none" xmlns="http://www.w3.org/2000/svg">
<path d="M300.213 201.887H290.983C289.109 179.026 279.314 157.784 262.912 141.381C246.367 124.837 224.903 115.01 201.816 113.257V103.486C201.816 99.0227 198.201 95.4077 193.738 95.4077C189.274 95.4077 185.659 99.0227 185.659 103.486V113.358C163.024 115.349 142.004 125.12 125.747 141.377C109.344 157.78 99.5492 179.022 97.675 201.883H87.2622C82.7989 201.883 79.1839 205.498 79.1839 209.961C79.1839 214.425 82.7989 218.04 87.2622 218.04H97.675C99.5492 240.901 109.344 262.143 125.747 278.546C142.008 294.807 163.024 304.574 185.659 306.565V316.437C185.659 320.9 189.274 324.515 193.738 324.515C198.201 324.515 201.816 320.9 201.816 316.437V306.666C224.903 304.917 246.367 295.086 262.912 278.542C279.314 262.139 289.109 240.897 290.983 218.036H300.213C304.676 218.036 308.291 214.42 308.291 209.957C308.291 205.494 304.676 201.879 300.213 201.879V201.887ZM201.816 290.449V280C201.816 275.536 198.201 271.921 193.738 271.921C189.274 271.921 185.659 275.536 185.659 280V290.332C147.801 286.277 117.681 255.979 113.896 218.044H123.703C128.166 218.044 131.781 214.429 131.781 209.965C131.781 205.502 128.166 201.887 123.703 201.887H113.896C117.677 163.948 147.801 133.654 185.659 129.599V139.931C185.659 144.394 189.274 148.009 193.738 148.009C198.201 148.009 201.816 144.394 201.816 139.931V129.482C240.228 133.028 270.941 163.556 274.762 201.887H263.776C259.313 201.887 255.698 205.502 255.698 209.965C255.698 214.429 259.313 218.044 263.776 218.044H274.762C270.941 256.375 240.228 286.907 201.816 290.449Z" fill="white"/>
<path d="M194.387 163.556C168.757 163.556 147.981 184.332 147.981 209.961C147.981 235.591 168.757 256.367 194.387 256.367C220.016 256.367 240.792 235.591 240.792 209.961C240.792 184.332 220.016 163.556 194.387 163.556ZM214.871 201.445L191.668 224.648C189.963 226.353 187.208 226.353 185.522 224.648L173.919 213.044C172.213 211.339 172.213 208.584 173.919 206.898C175.624 205.213 178.379 205.193 180.065 206.898L188.585 215.419L208.705 195.279C210.41 193.573 213.165 193.573 214.851 195.279C216.536 196.984 216.556 199.739 214.851 201.425L214.867 201.441L214.871 201.445Z" fill="white"/>
</svg>
