<svg width="388" height="420" viewBox="0 0 388 420" fill="none" xmlns="http://www.w3.org/2000/svg">
<path d="M254.096 206.959C263.082 200.926 268.978 190.828 268.978 179.382C268.978 160.899 253.609 145.916 234.657 145.916C215.701 145.916 200.336 160.899 200.336 179.382C200.336 190.828 206.228 200.926 215.214 206.959C199.734 234.014 191.484 264.821 191.599 296.382L191.613 299.443C191.616 301.118 192.978 302.473 194.653 302.473H274.657C276.336 302.473 277.694 301.118 277.701 299.443L277.711 296.382C277.826 264.821 269.579 234.01 254.096 206.959Z" fill="white"/>
<path d="M127.505 170.156L191.465 116.338H218.161L127.505 192.615V170.156ZM177.809 116.338L127.505 158.662V116.338H177.809ZM226.978 108.348H124.411C121.708 108.348 119.512 110.544 119.512 113.243V278.031C119.512 280.733 121.708 282.929 124.411 282.929H184.066C184.252 280.26 184.488 277.598 184.786 274.943C184.786 274.943 184.786 274.939 184.786 274.936H127.505V204.105L223.884 123.017V139.287C224.485 139.135 225.093 138.993 225.705 138.865C225.752 138.855 225.803 138.841 225.853 138.831C226.492 138.699 227.137 138.581 227.786 138.476C227.799 138.476 227.809 138.473 227.823 138.469C229.154 138.257 230.509 138.108 231.877 138.02V113.243C231.877 110.544 229.678 108.348 226.978 108.348Z" fill="white"/>
<path d="M189.282 136.459C188.688 136.429 188.09 136.412 187.485 136.412C169.627 136.412 154.958 149.716 153.323 166.713L189.282 136.459Z" fill="white"/>
<path d="M210.698 145.233C209.35 144.024 207.897 142.926 206.363 141.936L156.367 184C158.968 189.439 163.022 194.081 168.046 197.456C155.877 218.716 148.181 242.301 145.499 266.743H185.907C189.073 246.622 195.502 227.071 205.005 208.96C196.975 201.227 192.34 190.605 192.34 179.382C192.34 165.23 199.62 152.716 210.698 145.233Z" fill="white"/>
</svg>
