<svg width="388" height="420" viewBox="0 0 388 420" fill="none" xmlns="http://www.w3.org/2000/svg">
<path d="M101.038 200.531C101.67 201.291 102.684 201.801 103.701 201.926C104.839 202.051 105.853 201.673 106.741 201.037L194.451 127.906L282.163 201.037C282.923 201.673 283.812 201.926 284.826 201.926H285.204C286.217 201.801 287.234 201.291 287.866 200.531L295.728 191.152C297.119 189.504 296.866 186.841 295.217 185.45L267.461 162.379V110.666C267.461 108.385 265.687 106.608 263.403 106.608H239.069C236.788 106.608 235.011 108.385 235.011 110.666V135.382L204.082 109.524C198.761 105.088 190.143 105.088 184.822 109.524L93.687 185.45C92.0383 186.841 91.785 189.504 93.1802 191.152L101.038 200.531Z" fill="white"/>
<path d="M291.416 229.331L267.46 217.338V199.899C267.46 199.645 267.46 199.392 267.332 199.139L194.453 139.058L121.568 199.139C121.568 199.392 121.443 199.645 121.443 199.899V218.96L106.619 211.537C100.815 208.632 93.6899 211.004 90.7845 216.804C87.8757 222.608 90.2473 229.737 96.0514 232.642L121.443 245.355V260.737C121.443 265.173 125.119 268.848 129.555 268.848H158.426V284.416H156.072C150.876 284.416 146.626 288.666 146.626 293.858V298.575C146.626 303.767 150.876 308.017 156.072 308.017H172.585C177.781 308.017 182.031 303.767 182.031 298.575V268.848H211.22V298.575C211.22 303.767 215.47 308.017 220.666 308.017H237.18C242.376 308.017 246.626 303.767 246.626 298.575V293.858C246.626 288.666 242.376 284.416 237.18 284.416H234.825V268.848H259.349C263.784 268.848 267.46 265.173 267.46 260.737V243.733L280.849 250.436C286.653 253.341 293.778 250.973 296.683 245.169C299.589 239.365 297.22 232.237 291.416 229.331Z" fill="white"/>
</svg>
