<svg width="388" height="420" viewBox="0 0 388 420" fill="none" xmlns="http://www.w3.org/2000/svg">
<g clip-path="url(#clip0_2011_94177)">
<mask id="mask0_2011_94177" style="mask-type:luminance" maskUnits="userSpaceOnUse" x="-34" y="-17" width="455" height="454">
<path d="M-33.0439 -16.8521H420.517V436.852H-33.0439V-16.8521Z" fill="white"/>
</mask>
<g mask="url(#mask0_2011_94177)">
<path d="M219.995 342.829C219.387 342.755 218.749 342.897 218.212 343.28L213.256 346.809C212.113 347.621 211.846 349.214 212.659 350.357L213.211 351.133C213.603 351.684 214.189 352.049 214.862 352.163C215.545 352.277 216.21 352.123 216.759 351.732L221.714 348.205C222.265 347.814 222.63 347.227 222.743 346.553C222.857 345.879 222.703 345.206 222.313 344.655L221.76 343.878C221.33 343.273 220.68 342.913 219.995 342.829ZM214.502 356.073C212.762 355.86 211.113 354.946 210.019 353.407L209.466 352.631C207.4 349.725 208.081 345.681 210.984 343.615L215.94 340.086C218.843 338.02 222.887 338.702 224.953 341.605L225.505 342.383C226.503 343.786 226.895 345.498 226.607 347.205C226.32 348.911 225.389 350.401 223.986 351.399L219.031 354.926C217.666 355.898 216.048 356.262 214.502 356.073Z" fill="white"/>
</g>
<mask id="mask1_2011_94177" style="mask-type:luminance" maskUnits="userSpaceOnUse" x="-34" y="-17" width="455" height="454">
<path d="M-33.0439 -16.8521H420.517V436.852H-33.0439V-16.8521Z" fill="white"/>
</mask>
<g mask="url(#mask1_2011_94177)">
<path d="M219.893 347.57C219.365 347.505 218.866 347.229 218.534 346.761C217.907 345.88 218.113 344.655 218.994 344.028L230.057 336.153C230.94 335.525 232.161 335.732 232.789 336.614C233.416 337.495 233.209 338.72 232.328 339.347L221.266 347.222C220.851 347.516 220.36 347.627 219.893 347.57Z" fill="white"/>
</g>
<mask id="mask2_2011_94177" style="mask-type:luminance" maskUnits="userSpaceOnUse" x="-34" y="-17" width="455" height="454">
<path d="M-33.0439 -16.8521H420.517V436.852H-33.0439V-16.8521Z" fill="white"/>
</mask>
<g mask="url(#mask2_2011_94177)">
<path d="M235.172 330.193C234.438 330.103 233.671 330.331 233.097 330.884L228.714 335.1C228.227 335.568 227.952 336.201 227.938 336.884C227.925 337.567 228.175 338.211 228.641 338.697L229.303 339.385C230.276 340.397 231.889 340.429 232.901 339.457L237.285 335.24C237.771 334.773 238.047 334.137 238.06 333.455C238.073 332.772 237.824 332.127 237.356 331.642L236.695 330.954C236.274 330.515 235.733 330.261 235.172 330.193ZM230.346 344.034C228.922 343.86 227.547 343.214 226.478 342.102L225.818 341.415C224.624 340.173 223.985 338.537 224.02 336.807C224.054 335.077 224.756 333.467 225.997 332.273L230.382 328.057C232.949 325.587 237.05 325.667 239.52 328.237L240.18 328.925C241.374 330.165 242.012 331.802 241.977 333.532C241.943 335.262 241.241 336.873 240.001 338.066L235.616 342.282C234.16 343.683 232.211 344.263 230.346 344.034Z" fill="white"/>
</g>
<mask id="mask3_2011_94177" style="mask-type:luminance" maskUnits="userSpaceOnUse" x="-34" y="-17" width="455" height="454">
<path d="M-33.0439 -16.8521H420.517V436.852H-33.0439V-16.8521Z" fill="white"/>
</mask>
<g mask="url(#mask3_2011_94177)">
<path d="M235.1 334.865C234.668 334.812 234.252 334.616 233.926 334.278C233.177 333.497 233.201 332.256 233.981 331.506L243.769 322.093C244.55 321.342 245.789 321.368 246.539 322.148C247.288 322.927 247.264 324.169 246.484 324.919L236.698 334.332C236.254 334.757 235.665 334.934 235.1 334.865Z" fill="white"/>
</g>
<mask id="mask4_2011_94177" style="mask-type:luminance" maskUnits="userSpaceOnUse" x="-34" y="-17" width="455" height="454">
<path d="M-33.0439 -16.8521H420.517V436.852H-33.0439V-16.8521Z" fill="white"/>
</mask>
<g mask="url(#mask4_2011_94177)">
<path d="M249.765 315.414C249.676 315.402 249.587 315.396 249.496 315.395C248.814 315.381 248.17 315.631 247.684 316.099L243.298 320.316C242.288 321.289 242.256 322.903 243.228 323.915L243.888 324.602C244.861 325.615 246.477 325.647 247.486 324.673L251.87 320.456C252.357 319.989 252.632 319.354 252.646 318.672C252.659 317.989 252.409 317.344 251.941 316.858L251.28 316.169C250.876 315.747 250.344 315.485 249.765 315.414ZM244.932 329.251C243.508 329.078 242.134 328.432 241.065 327.32L240.403 326.632C237.933 324.063 238.014 319.961 240.582 317.49L244.967 313.273C246.208 312.08 247.843 311.442 249.573 311.476C251.307 311.509 252.913 312.212 254.106 313.453L254.766 314.142C257.235 316.711 257.155 320.811 254.586 323.282L250.203 327.499C248.745 328.9 246.796 329.48 244.932 329.251Z" fill="white"/>
</g>
<mask id="mask5_2011_94177" style="mask-type:luminance" maskUnits="userSpaceOnUse" x="-34" y="-17" width="455" height="454">
<path d="M-33.0439 -16.8521H420.517V436.852H-33.0439V-16.8521Z" fill="white"/>
</mask>
<g mask="url(#mask5_2011_94177)">
<path d="M249.686 320.081C249.254 320.028 248.837 319.832 248.512 319.494C247.762 318.713 247.787 317.473 248.567 316.723L258.354 307.31C259.136 306.56 260.375 306.585 261.126 307.365C261.875 308.145 261.851 309.386 261.07 310.137L251.283 319.549C250.84 319.974 250.251 320.15 249.686 320.081Z" fill="white"/>
</g>
<mask id="mask6_2011_94177" style="mask-type:luminance" maskUnits="userSpaceOnUse" x="-34" y="-17" width="455" height="454">
<path d="M-33.0439 -16.8521H420.517V436.852H-33.0439V-16.8521Z" fill="white"/>
</mask>
<g mask="url(#mask6_2011_94177)">
<path d="M262.574 299.44C262.205 299.395 261.827 299.431 261.461 299.553C260.812 299.767 260.288 300.218 259.985 300.82L257.251 306.254C256.62 307.508 257.126 309.042 258.38 309.672L259.232 310.102C260.486 310.732 262.018 310.225 262.648 308.971L265.382 303.537H265.383C266.013 302.283 265.506 300.75 264.254 300.119L263.403 299.691C263.139 299.559 262.859 299.474 262.574 299.44ZM259.583 314.244C258.866 314.156 258.152 313.946 257.469 313.602L256.617 313.173C253.435 311.572 252.148 307.677 253.75 304.492L256.484 299.057C258.087 295.873 261.979 294.584 265.163 296.19L266.013 296.617C269.199 298.221 270.484 302.115 268.883 305.299L266.148 310.733C264.89 313.235 262.217 314.566 259.583 314.244Z" fill="white"/>
</g>
<mask id="mask7_2011_94177" style="mask-type:luminance" maskUnits="userSpaceOnUse" x="-34" y="-17" width="455" height="454">
<path d="M-33.0439 -16.8521H420.517V436.852H-33.0439V-16.8521Z" fill="white"/>
</mask>
<g mask="url(#mask7_2011_94177)">
<path d="M262.537 303.942C262.32 303.915 262.102 303.851 261.895 303.747C260.928 303.26 260.539 302.081 261.026 301.114L267.128 288.983C267.616 288.016 268.791 287.626 269.76 288.112C270.727 288.6 271.115 289.778 270.63 290.745L264.526 302.876C264.143 303.636 263.335 304.04 262.537 303.942Z" fill="white"/>
</g>
<mask id="mask8_2011_94177" style="mask-type:luminance" maskUnits="userSpaceOnUse" x="-34" y="-17" width="455" height="454">
<path d="M-33.0439 -16.8521H420.517V436.852H-33.0439V-16.8521Z" fill="white"/>
</mask>
<g mask="url(#mask8_2011_94177)">
<path d="M271.405 281.512C270.308 281.377 269.207 281.974 268.754 283.039L266.371 288.638C265.821 289.93 266.424 291.426 267.714 291.976L268.592 292.35C269.212 292.615 269.903 292.62 270.537 292.365C271.17 292.109 271.664 291.627 271.929 291.006L274.312 285.409C274.862 284.118 274.259 282.619 272.968 282.07L272.093 281.696C271.867 281.601 271.637 281.54 271.405 281.512ZM268.802 296.428C268.208 296.355 267.621 296.198 267.057 295.957L266.178 295.583C264.596 294.908 263.367 293.654 262.721 292.048C262.075 290.442 262.09 288.687 262.765 287.102L265.148 281.505C266.545 278.224 270.348 276.695 273.626 278.09L274.503 278.463C277.782 279.861 279.314 283.665 277.918 286.944L275.535 292.541C274.861 294.126 273.605 295.354 271.999 296.002C270.968 296.416 269.873 296.559 268.802 296.428Z" fill="white"/>
</g>
<mask id="mask9_2011_94177" style="mask-type:luminance" maskUnits="userSpaceOnUse" x="-34" y="-17" width="455" height="454">
<path d="M-33.0439 -16.8521H420.517V436.852H-33.0439V-16.8521Z" fill="white"/>
</mask>
<g mask="url(#mask9_2011_94177)">
<path d="M271.376 285.983C271.198 285.961 271.019 285.913 270.846 285.84C269.85 285.415 269.387 284.264 269.811 283.269L275.13 270.774C275.555 269.777 276.703 269.316 277.7 269.737C278.696 270.162 279.159 271.313 278.736 272.308L273.417 284.804C273.067 285.627 272.221 286.086 271.376 285.983Z" fill="white"/>
</g>
<mask id="mask10_2011_94177" style="mask-type:luminance" maskUnits="userSpaceOnUse" x="-34" y="-17" width="455" height="454">
<path d="M-33.0439 -16.8521H420.517V436.852H-33.0439V-16.8521Z" fill="white"/>
</mask>
<g mask="url(#mask10_2011_94177)">
<path d="M278.566 262.973C278.07 262.913 277.566 263.001 277.107 263.233C276.498 263.542 276.046 264.065 275.836 264.707L273.941 270.488C273.506 271.821 274.235 273.262 275.568 273.7L276.474 273.996C277.119 274.204 277.805 274.152 278.414 273.843C279.023 273.535 279.474 273.012 279.685 272.37L281.577 266.588C282.015 265.255 281.285 263.814 279.952 263.377L279.046 263.08C278.888 263.029 278.727 262.993 278.566 262.973ZM276.486 277.997C276.072 277.946 275.659 277.855 275.253 277.721L274.348 277.424C270.962 276.314 269.109 272.656 270.218 269.268L272.112 263.487C273.222 260.097 276.88 258.242 280.266 259.356L281.172 259.653C284.559 260.763 286.411 264.422 285.301 267.809L283.407 273.59C282.872 275.227 281.727 276.559 280.184 277.34C279.023 277.928 277.745 278.151 276.486 277.997Z" fill="white"/>
</g>
<mask id="mask11_2011_94177" style="mask-type:luminance" maskUnits="userSpaceOnUse" x="-34" y="-17" width="455" height="454">
<path d="M-33.0439 -16.8521H420.517V436.852H-33.0439V-16.8521Z" fill="white"/>
</mask>
<g mask="url(#mask11_2011_94177)">
<path d="M278.534 267.399C278.409 267.383 278.284 267.356 278.161 267.315C277.133 266.979 276.571 265.871 276.909 264.843L281.137 251.936C281.473 250.908 282.57 250.344 283.609 250.684C284.636 251.021 285.197 252.128 284.859 253.157L280.631 266.063C280.336 266.968 279.444 267.51 278.534 267.399Z" fill="white"/>
</g>
<mask id="mask12_2011_94177" style="mask-type:luminance" maskUnits="userSpaceOnUse" x="-34" y="-17" width="455" height="454">
<path d="M-33.0439 -16.8521H420.517V436.852H-33.0439V-16.8521Z" fill="white"/>
</mask>
<g mask="url(#mask12_2011_94177)">
<path d="M187.353 308.74C186.01 308.576 184.759 309.502 184.535 310.849L184.379 311.791C184.149 313.175 185.088 314.488 186.472 314.717L192.472 315.714C193.849 315.951 195.168 315.004 195.399 313.619L195.555 312.679C195.784 311.295 194.845 309.982 193.46 309.752L187.462 308.755C187.426 308.749 187.389 308.744 187.353 308.74ZM192.11 319.621C192.016 319.61 191.923 319.597 191.831 319.581L185.83 318.585C182.315 318.001 179.929 314.666 180.513 311.149L180.669 310.207C181.253 306.691 184.586 304.286 188.103 304.888L194.103 305.884C197.618 306.469 200.004 309.804 199.421 313.321L199.265 314.263C198.982 315.961 198.052 317.451 196.645 318.458C195.316 319.409 193.714 319.818 192.11 319.621Z" fill="white"/>
</g>
<mask id="mask13_2011_94177" style="mask-type:luminance" maskUnits="userSpaceOnUse" x="-34" y="-17" width="455" height="454">
<path d="M-33.0439 -16.8521H420.517V436.852H-33.0439V-16.8521Z" fill="white"/>
</mask>
<g mask="url(#mask13_2011_94177)">
<path d="M206.326 316.936C206.297 316.933 206.27 316.928 206.242 316.924L192.848 314.701C191.78 314.523 191.059 313.513 191.236 312.446C191.413 311.377 192.452 310.66 193.489 310.833L206.883 313.057C207.951 313.234 208.672 314.243 208.495 315.312C208.322 316.351 207.362 317.063 206.326 316.936Z" fill="white"/>
</g>
<mask id="mask14_2011_94177" style="mask-type:luminance" maskUnits="userSpaceOnUse" x="-34" y="-17" width="455" height="454">
<path d="M-33.0439 -16.8521H420.517V436.852H-33.0439V-16.8521Z" fill="white"/>
</mask>
<g mask="url(#mask14_2011_94177)">
<path d="M213.022 311.486C212.934 311.475 212.845 311.468 212.754 311.467L206.675 311.362C205.271 311.339 204.11 312.46 204.086 313.864L204.07 314.816C204.046 316.22 205.164 317.384 206.57 317.406L212.651 317.511C214.053 317.534 215.215 316.412 215.239 315.009L215.255 314.055C215.278 312.743 214.297 311.642 213.022 311.486ZM205.824 321.278C202.584 320.881 200.094 318.085 200.152 314.749L200.168 313.797C200.229 310.232 203.179 307.382 206.742 307.444L212.822 307.548C216.382 307.599 219.235 310.559 219.173 314.122L219.157 315.077C219.128 316.799 218.426 318.409 217.182 319.611C215.937 320.813 214.305 321.459 212.583 321.429L206.503 321.325C206.273 321.321 206.047 321.305 205.824 321.278Z" fill="white"/>
</g>
<mask id="mask15_2011_94177" style="mask-type:luminance" maskUnits="userSpaceOnUse" x="-34" y="-17" width="455" height="454">
<path d="M-33.0439 -16.8521H420.517V436.852H-33.0439V-16.8521Z" fill="white"/>
</mask>
<g mask="url(#mask15_2011_94177)">
<path d="M212.667 316.438C211.685 316.318 210.931 315.471 210.949 314.46C210.968 313.377 211.859 312.514 212.941 312.533L226.516 312.768C227.599 312.785 228.46 313.679 228.442 314.76C228.423 315.843 227.532 316.705 226.45 316.686L212.874 316.452C212.804 316.451 212.735 316.447 212.667 316.438Z" fill="white"/>
</g>
<mask id="mask16_2011_94177" style="mask-type:luminance" maskUnits="userSpaceOnUse" x="-34" y="-17" width="455" height="454">
<path d="M-33.0439 -16.8521H420.517V436.852H-33.0439V-16.8521Z" fill="white"/>
</mask>
<g mask="url(#mask16_2011_94177)">
<path d="M233.785 311.299C233.696 311.288 233.608 311.281 233.519 311.28L227.438 311.175C226.035 311.152 224.874 312.273 224.85 313.677L224.833 314.631C224.81 316.034 225.942 317.195 227.333 317.219L233.414 317.324H233.415C234.817 317.347 235.978 316.225 236.002 314.822L236.019 313.868C236.03 313.195 235.775 312.552 235.301 312.06C234.889 311.634 234.357 311.369 233.785 311.299ZM226.585 321.09C225.123 320.911 223.775 320.241 222.733 319.162C221.531 317.918 220.886 316.284 220.916 314.564L220.932 313.609C220.993 310.045 223.943 307.195 227.506 307.257L233.586 307.361C237.164 307.416 239.998 310.373 239.937 313.936L239.92 314.89C239.891 316.612 239.189 318.222 237.945 319.424C236.7 320.626 235.068 321.272 233.347 321.242L227.266 321.138C227.036 321.135 226.809 321.118 226.585 321.09Z" fill="white"/>
</g>
<mask id="mask17_2011_94177" style="mask-type:luminance" maskUnits="userSpaceOnUse" x="-34" y="-17" width="455" height="454">
<path d="M-33.0439 -16.8521H420.517V436.852H-33.0439V-16.8521Z" fill="white"/>
</mask>
<g mask="url(#mask17_2011_94177)">
<path d="M233.431 316.251C232.448 316.131 231.695 315.284 231.712 314.273C231.731 313.19 232.623 312.327 233.704 312.346L247.279 312.58C248.363 312.595 249.223 313.491 249.205 314.573C249.186 315.656 248.294 316.518 247.213 316.499L233.638 316.265C233.568 316.264 233.499 316.26 233.431 316.251Z" fill="white"/>
</g>
<mask id="mask18_2011_94177" style="mask-type:luminance" maskUnits="userSpaceOnUse" x="-34" y="-17" width="455" height="454">
<path d="M-33.0439 -16.8521H420.517V436.852H-33.0439V-16.8521Z" fill="white"/>
</mask>
<g mask="url(#mask18_2011_94177)">
<path d="M254.114 309.019C253.746 308.974 253.372 309.011 253.013 309.13L247.241 311.053C246.602 311.266 246.081 311.721 245.776 312.332C245.47 312.942 245.42 313.632 245.633 314.272L245.934 315.176C246.148 315.816 246.602 316.337 247.212 316.643C247.823 316.949 248.512 317.001 249.151 316.787L254.923 314.865C255.562 314.65 256.083 314.197 256.388 313.585C256.694 312.975 256.744 312.285 256.532 311.646L256.23 310.739C256.018 310.1 255.563 309.579 254.953 309.273C254.685 309.139 254.401 309.054 254.114 309.019ZM247.577 320.791C246.85 320.702 246.134 320.487 245.458 320.149C243.912 319.374 242.76 318.049 242.217 316.415L241.915 315.512C240.789 312.13 242.622 308.461 246.003 307.334L251.774 305.411C253.407 304.868 255.158 304.994 256.706 305.767C258.253 306.542 259.404 307.868 259.949 309.502L260.25 310.407C261.376 313.787 259.543 317.457 256.161 318.583L256.16 318.583L250.39 320.505C249.471 320.812 248.515 320.906 247.577 320.791Z" fill="white"/>
</g>
<mask id="mask19_2011_94177" style="mask-type:luminance" maskUnits="userSpaceOnUse" x="-34" y="-17" width="455" height="454">
<path d="M-33.0439 -16.8521H420.517V436.852H-33.0439V-16.8521Z" fill="white"/>
</mask>
<g mask="url(#mask19_2011_94177)">
<path d="M253.926 313.879C253.198 313.79 252.55 313.294 252.303 312.552C251.961 311.525 252.516 310.416 253.543 310.073L266.425 305.78C267.452 305.438 268.561 305.994 268.903 307.02C269.245 308.047 268.69 309.156 267.663 309.499L254.781 313.792C254.496 313.887 254.205 313.914 253.926 313.879Z" fill="white"/>
</g>
<mask id="mask20_2011_94177" style="mask-type:luminance" maskUnits="userSpaceOnUse" x="-34" y="-17" width="455" height="454">
<path d="M-33.0439 -16.8521H420.517V436.852H-33.0439V-16.8521Z" fill="white"/>
</mask>
<g mask="url(#mask20_2011_94177)">
<path d="M273.017 302.548C272.595 302.496 272.167 302.551 271.766 302.714L266.13 305.001C264.829 305.528 264.201 307.016 264.728 308.316L265.085 309.201C265.338 309.825 265.825 310.316 266.454 310.582C267.084 310.85 267.775 310.855 268.399 310.602L274.035 308.316C275.336 307.789 275.965 306.301 275.438 305.001L275.079 304.116C274.826 303.491 274.34 303 273.711 302.734C273.485 302.639 273.252 302.577 273.017 302.548ZM266.677 314.662C266.082 314.589 265.496 314.432 264.927 314.192C263.334 313.518 262.1 312.269 261.454 310.673L261.096 309.788C260.449 308.193 260.464 306.436 261.138 304.842C261.812 303.25 263.061 302.015 264.657 301.368L270.293 299.082C273.595 297.74 277.371 299.34 278.711 302.643L279.069 303.528C279.716 305.123 279.701 306.88 279.027 308.474C278.353 310.067 277.103 311.301 275.508 311.949L269.871 314.235C268.845 314.651 267.75 314.794 266.677 314.662Z" fill="white"/>
</g>
<mask id="mask21_2011_94177" style="mask-type:luminance" maskUnits="userSpaceOnUse" x="-34" y="-17" width="455" height="454">
<path d="M-33.0439 -16.8521H420.517V436.852H-33.0439V-16.8521Z" fill="white"/>
</mask>
<g mask="url(#mask21_2011_94177)">
<path d="M272.854 307.384C272.17 307.3 271.552 306.858 271.275 306.175C270.868 305.171 271.351 304.029 272.354 303.622L284.936 298.518C285.941 298.111 287.082 298.594 287.489 299.598C287.895 300.601 287.412 301.744 286.409 302.151L273.827 307.254C273.507 307.384 273.173 307.422 272.854 307.384Z" fill="white"/>
</g>
<mask id="mask22_2011_94177" style="mask-type:luminance" maskUnits="userSpaceOnUse" x="-34" y="-17" width="455" height="454">
<path d="M-33.0439 -16.8521H420.517V436.852H-33.0439V-16.8521Z" fill="white"/>
</mask>
<g mask="url(#mask22_2011_94177)">
<path d="M291.165 294.461C290.667 294.399 290.165 294.486 289.714 294.716L284.295 297.479C283.045 298.116 282.545 299.652 283.182 300.901L283.615 301.751C284.253 303.003 285.789 303.5 287.037 302.865L292.456 300.102C293.707 299.465 294.206 297.929 293.568 296.679L293.136 295.83C292.83 295.228 292.304 294.78 291.653 294.569C291.492 294.517 291.329 294.48 291.165 294.461ZM285.119 307.013C284.705 306.963 284.292 306.872 283.887 306.74C282.241 306.205 280.906 305.065 280.125 303.531L279.691 302.682C278.909 301.148 278.773 299.396 279.308 297.751C279.842 296.104 280.982 294.768 282.515 293.986L287.935 291.224C289.469 290.442 291.219 290.305 292.864 290.841C294.51 291.376 295.846 292.515 296.627 294.049L297.06 294.898C298.678 298.075 297.41 301.977 294.236 303.594L288.817 306.357C287.662 306.946 286.383 307.168 285.119 307.013Z" fill="white"/>
</g>
<mask id="mask23_2011_94177" style="mask-type:luminance" maskUnits="userSpaceOnUse" x="-34" y="-17" width="455" height="454">
<path d="M-33.0439 -16.8521H420.517V436.852H-33.0439V-16.8521Z" fill="white"/>
</mask>
<g mask="url(#mask23_2011_94177)">
<path d="M291.032 299.262C290.407 299.185 289.829 298.81 289.522 298.206C289.031 297.242 289.415 296.062 290.379 295.569L302.475 289.404C303.439 288.912 304.62 289.296 305.112 290.261C305.603 291.225 305.219 292.406 304.255 292.897L292.158 299.063C291.797 299.247 291.406 299.308 291.032 299.262Z" fill="white"/>
</g>
<mask id="mask24_2011_94177" style="mask-type:luminance" maskUnits="userSpaceOnUse" x="-34" y="-17" width="455" height="454">
<path d="M-33.0439 -16.8521H420.517V436.852H-33.0439V-16.8521Z" fill="white"/>
</mask>
<g mask="url(#mask24_2011_94177)">
<path d="M166.198 171.53C164.822 170.223 139.752 114.734 138.432 111.816C138.428 111.806 138.443 111.8 138.449 111.81L171.998 168.04C173.331 170.273 175 172.292 176.942 174.023C177.404 174.436 177.733 174.728 177.733 174.728C178.664 175.657 179.876 176.247 181.181 176.407L186.371 177.042C190.137 177.044 195.177 174.134 197.14 170.727L199.221 165.374C199.686 164.309 199.809 163.127 199.575 161.991C199.548 161.86 199.499 161.733 199.437 161.614L183.927 132.104C183.742 131.35 196.439 151.712 196.591 150.95L205.492 101.896C205.56 101.552 205.092 155.676 205.092 155.676C205.301 157.298 206.102 158.786 207.341 159.853L212.44 164.245C215.661 167.019 220.068 167.97 224.146 166.773L225.976 166.235C227.546 165.775 228.871 164.715 229.667 163.285L234.996 153.709C235.156 153.421 234.681 167.004 234.681 167.004C234.615 167.974 234.498 168.539 233.417 169.502L228.491 173.047C226.852 174.226 224.942 175 222.933 175.199C220.54 175.435 217.835 175.349 215.629 174.945C213.788 174.607 212.116 173.662 210.821 172.31C208.863 170.266 205.545 166.831 205.496 166.968L202.817 178.136C202.34 179.316 201.009 181.079 199.122 182.521C197.577 183.701 195.698 184.365 193.758 184.498L184.999 185.098C184.154 185.156 183.302 185.108 182.475 184.922C178.249 183.968 174.423 181.194 173.013 180.08C172.653 179.797 172.334 179.476 172.054 179.113C170.696 177.355 166.198 171.53 166.198 171.53ZM172.254 202.22C171.388 204.556 170.497 206.916 168.757 208.699C166.931 210.57 165.901 211.445 163.95 212.858C162.309 214.046 155.712 215.261 152.404 215.508C152.4 215.508 151.051 215.577 147.699 214.695C146.295 214.326 135.622 207.083 134.554 206.275L97.1989 175.787C96.9345 175.571 146.791 208.553 146.791 208.553C147.494 209.027 148.324 209.264 149.171 209.232C152.505 209.105 157.363 207.676 160.19 205.605C160.773 205.179 161.255 204.633 161.66 204.035C162.388 202.96 163.694 201.032 164.462 199.899C164.897 199.258 165.194 198.528 165.27 197.758C165.447 195.968 165.202 193.974 164.318 192.681C164.31 192.673 164.303 192.664 164.296 192.655L147.973 174.767V174.766C141.607 168.77 132.4 159.13 132.361 159.087L125.911 152.005L166.81 187.173C166.827 187.188 169.377 188.907 170.747 191.581L172.163 194.672C172.596 196.154 173.456 197.745 173.007 199.221C172.887 199.617 172.436 201.73 172.254 202.22ZM146.37 257.311C146.37 257.311 141.623 259.797 136.839 258.245H136.837L95.3578 239.289C95.3475 239.285 95.3535 239.269 95.3647 239.273L133.828 252.935C136.876 254.018 140.269 253.069 142.344 250.586C143.609 249.072 144.011 248.311 144.961 246.323C145.121 245.989 145.262 245.646 145.387 245.298L146.053 243.425C146.604 241.381 146.056 238.383 144.587 236.857L144.585 236.855L129.111 225.898C114.478 215.033 105.204 206.128 104.672 205.615C104.665 205.608 104.67 205.595 104.68 205.599C106.046 206.216 150.946 234.321 150.946 234.321C154.817 237.017 155.105 239.933 154.805 242.148C154.297 245.902 149.232 255.986 146.37 257.311ZM251.533 162.123L218.162 198.227C217.112 199.291 216.445 200.672 216.263 202.156L215.836 205.637C215.118 211.517 218.67 217.079 224.306 218.898L226.613 219.642C227.855 220.042 229.134 220.322 230.434 220.432C231.943 220.559 232.497 220.361 233.752 219.748L277.975 195.843C278.148 195.76 248.393 217.983 239.878 224.342C238.216 225.583 236.31 226.441 234.279 226.86C232.546 227.216 230.88 227.611 229.261 227.815C226.578 228.152 223.862 227.524 221.563 226.1C221.563 226.1 218.583 224.433 215.341 222.079C210.225 218.364 207.542 212.151 208.361 205.88L208.917 201.626C209.139 199.923 210.003 198.371 211.333 197.285C211.333 197.285 251.714 161.94 251.533 162.123ZM179.641 302.932C179.992 302.598 180.36 302.279 180.763 301.994C182.974 300.423 185.662 299.808 188.329 300.274L194.301 301.265C196.651 301.656 198.677 302.83 200.162 304.473C200.265 304.587 200.428 304.606 200.555 304.521C202.223 303.391 204.236 302.738 206.398 302.774L212.479 302.879C215.124 302.926 217.513 303.986 219.294 305.679C219.416 305.795 219.601 305.791 219.717 305.67C221.606 303.732 224.249 302.538 227.162 302.588L233.243 302.692C235.84 302.744 238.186 303.769 239.955 305.405C240.077 305.517 240.26 305.513 240.375 305.394C241.491 304.248 242.867 303.375 244.425 302.855L250.199 300.932C250.317 300.893 250.436 300.867 250.554 300.832L252.771 296.426C253.964 294.057 255.965 292.361 258.271 291.493C258.415 291.439 258.493 291.29 258.455 291.14C257.931 289.062 258.05 286.805 258.952 284.685L261.335 279.087C262.326 276.761 264.089 275.005 266.195 273.969C266.334 273.901 266.397 273.748 266.347 273.602C265.652 271.583 265.58 269.332 266.294 267.149L268.188 261.366C269.031 258.792 270.831 256.696 273.257 255.467C273.971 255.105 274.716 254.842 275.473 254.659C275.576 254.634 275.658 254.56 275.692 254.459L277.135 250.052C277.549 248.787 278.313 247.633 279.417 246.889C280.431 246.206 281.585 245.886 282.742 245.921C282.921 245.926 283.068 245.792 283.056 245.613C282.784 241.465 280.022 199.369 279.935 198.032C279.933 198.01 279.934 197.988 279.936 197.966C280.134 196.432 280.735 194.978 281.679 193.752L288.649 184.699C289.673 183.369 290.277 181.764 290.384 180.089L291.41 164.013C291.557 161.725 290.597 159.505 288.829 158.044L277.597 148.762C275.47 147.003 272.551 146.554 269.992 147.59L248.041 156.483C247.89 156.544 247.718 156.477 247.646 156.331L240.489 141.617C240.103 140.825 239.925 139.949 239.972 139.07L242.579 89.3473C242.672 87.5878 241.935 85.887 240.587 84.7514L231.15 76.7957C228.548 74.6032 224.868 74.2333 221.883 75.864L209.116 82.8381C207.129 83.9236 205.611 85.703 204.853 87.8375L188.597 133.563C188.505 133.819 188.152 133.841 188.029 133.599L166.171 90.4707C165.13 88.4174 163.334 86.848 161.16 86.0927L150.74 82.4752C146.971 81.1676 142.857 83.17 141.561 86.9431L135.825 103.638C135.296 105.177 135.098 106.81 135.244 108.431L139.812 159.195C139.835 159.457 139.542 159.627 139.326 159.476L107.506 137.165C106.769 136.648 105.911 136.333 105.016 136.248L90.1389 134.845C87.6767 134.612 85.459 136.336 85.0745 138.779L82.291 156.494C81.9938 158.389 82.4698 160.324 83.6119 161.864L100.338 184.402C100.929 185.199 101.443 186.05 101.873 186.945L111.846 207.731C111.978 208.005 92.8749 196.093 92.8749 196.093C91.9073 195.466 90.7384 195.225 89.6015 195.419L77.7847 197.44C74.6064 197.983 72.1606 200.548 71.7684 203.75L69.6742 220.859C69.3762 223.296 70.5355 225.68 72.6357 226.949L108.616 248.701C110.385 249.77 112.067 250.975 113.649 252.304L165.09 295.546C166.311 296.573 177.521 302.705 179.114 302.802L179.641 302.932Z" fill="white"/>
</g>
</g>
<defs>
<clipPath id="clip0_2011_94177">
<rect width="387.47" height="420" fill="white"/>
</clipPath>
</defs>
</svg>
