<svg width="388" height="420" viewBox="0 0 388 420" fill="none" xmlns="http://www.w3.org/2000/svg">
<path d="M273.613 202.372L262.255 171.628V203.916C262.255 207.645 264.891 210.791 268.009 210.791C269.718 210.791 271.391 209.834 272.478 208.233C273.617 206.554 274.026 204.443 273.613 202.372ZM262.208 262.014C261.664 259.75 260.941 257.142 260.137 254.209C256.397 240.628 250.745 220.108 250.745 194.544C250.745 156.895 206.407 136.304 193.211 131.014C180.036 136.334 135.647 157.061 135.647 194.541C135.647 220.105 129.992 240.628 126.255 254.206C125.451 257.135 124.728 259.743 124.184 262.014L175.934 285.125V220.226L147.157 214.47V187.77H239.235V214.47L210.461 220.226V285.125L262.208 262.014ZM124.141 171.625L112.782 202.368C112.37 204.439 112.775 206.554 113.918 208.233C115.005 209.834 116.678 210.791 118.387 210.791C121.505 210.791 124.141 207.645 124.141 203.916V171.625ZM281.995 214.706C278.759 219.463 273.532 222.304 268.005 222.304C266.82 222.304 265.671 222.149 264.556 221.902C267.215 238.311 271.468 251.216 273.448 259.541C274.681 264.73 272.157 270.105 267.58 272.216L198.948 302.872V210.791L227.722 205.037V199.28H158.664V205.037L187.441 210.791V302.872L118.813 272.216C114.232 270.105 111.708 264.73 112.941 259.541C114.918 251.216 119.174 238.311 121.833 221.902C120.722 222.149 119.573 222.304 118.391 222.304C112.863 222.304 107.637 219.463 104.401 214.706C101.32 210.172 100.347 204.47 101.735 199.054L130.82 120.341C131.235 119.223 132.184 118.709 133.13 118.709C134.394 118.709 135.651 119.618 135.651 121.203V159.463C155.286 131.399 193.195 118.709 193.195 118.709C193.195 118.709 231.114 131.405 250.745 159.47V121.203C250.745 119.618 252.009 118.709 253.266 118.709C254.211 118.709 255.157 119.223 255.573 120.341L284.661 199.054C286.049 204.47 285.076 210.172 281.995 214.706Z" fill="white"/>
</svg>
