<svg width="388" height="420" viewBox="0 0 388 420" fill="none" xmlns="http://www.w3.org/2000/svg">
<g clip-path="url(#clip0_2011_37349)">
<mask id="mask0_2011_37349" style="mask-type:luminance" maskUnits="userSpaceOnUse" x="-34" y="-17" width="455" height="454">
<path d="M-33.0537 -16.8519H420.65V436.852H-33.0537V-16.8519Z" fill="white"/>
</mask>
<g mask="url(#mask0_2011_37349)">
<path d="M193.798 107.803C220.105 107.803 244.121 117.797 262.253 134.185L266.239 130.805C247.128 113.309 221.689 102.618 193.798 102.618C188.496 102.618 183.285 103.01 178.186 103.756L178.94 108.887C183.792 108.176 188.752 107.803 193.798 107.803Z" fill="white"/>
</g>
<mask id="mask1_2011_37349" style="mask-type:luminance" maskUnits="userSpaceOnUse" x="-34" y="-17" width="455" height="454">
<path d="M-33.0537 -16.8519H420.65V436.852H-33.0537V-16.8519Z" fill="white"/>
</mask>
<g mask="url(#mask1_2011_37349)">
<path d="M279.801 154.85C290.045 170.769 295.993 189.703 295.993 210C295.993 259.184 261.067 300.361 214.715 310.041L215.777 315.117C264.481 304.946 301.178 261.68 301.178 210C301.178 188.426 294.778 168.32 283.783 151.474L279.801 154.85Z" fill="white"/>
</g>
<mask id="mask2_2011_37349" style="mask-type:luminance" maskUnits="userSpaceOnUse" x="-34" y="-17" width="455" height="454">
<path d="M-33.0537 -16.8519H420.65V436.852H-33.0537V-16.8519Z" fill="white"/>
</mask>
<g mask="url(#mask2_2011_37349)">
<path d="M290.118 146.104C302.31 164.421 309.426 186.394 309.426 210C309.426 268.13 266.306 316.371 210.373 324.435L211.117 329.567C269.557 321.141 314.611 270.737 314.611 210C314.611 185.116 307.047 161.968 294.1 142.727L290.118 146.104Z" fill="white"/>
</g>
<mask id="mask3_2011_37349" style="mask-type:luminance" maskUnits="userSpaceOnUse" x="-34" y="-17" width="455" height="454">
<path d="M-33.0537 -16.8519H420.65V436.852H-33.0537V-16.8519Z" fill="white"/>
</mask>
<g mask="url(#mask3_2011_37349)">
<path d="M79.5464 227.845C78.6415 222.027 78.1688 216.067 78.1688 210C78.1688 146.242 130.039 94.3721 193.797 94.3721C224.205 94.3721 251.905 106.177 272.567 125.438L276.548 122.064C254.912 101.691 225.789 89.1869 193.797 89.1869C127.18 89.1869 72.9836 143.383 72.9836 210C72.9836 216.34 73.4771 222.566 74.4234 228.645L79.5464 227.845Z" fill="white"/>
</g>
<mask id="mask4_2011_37349" style="mask-type:luminance" maskUnits="userSpaceOnUse" x="-34" y="-17" width="455" height="454">
<path d="M-33.0537 -16.8519H420.65V436.852H-33.0537V-16.8519Z" fill="white"/>
</mask>
<g mask="url(#mask4_2011_37349)">
<path d="M100.836 306.594C108.06 313.548 116.055 319.705 124.685 324.916L127.357 320.474C119.212 315.556 111.652 309.762 104.808 303.227L100.836 306.594Z" fill="white"/>
</g>
<mask id="mask5_2011_37349" style="mask-type:luminance" maskUnits="userSpaceOnUse" x="-34" y="-17" width="455" height="454">
<path d="M-33.0537 -16.8519H420.65V436.852H-33.0537V-16.8519Z" fill="white"/>
</mask>
<g mask="url(#mask5_2011_37349)">
<path d="M87.2669 282.553C73.1338 261.869 64.8488 236.887 64.8488 210C64.8488 138.898 122.695 81.0528 193.797 81.0528C228.273 81.0528 259.631 94.6535 282.791 116.77L286.761 113.404C262.632 90.1744 229.856 75.8676 193.797 75.8676C119.836 75.8676 59.6636 136.039 59.6636 210C59.6636 238.165 68.4032 264.318 83.2942 285.921L87.2669 282.553Z" fill="white"/>
</g>
<mask id="mask6_2011_37349" style="mask-type:luminance" maskUnits="userSpaceOnUse" x="-34" y="-17" width="455" height="454">
<path d="M-33.0537 -16.8519H420.65V436.852H-33.0537V-16.8519Z" fill="white"/>
</mask>
<g mask="url(#mask6_2011_37349)">
<path d="M300.337 137.439C314.469 158.124 322.746 183.112 322.746 210C322.746 226.977 319.441 243.195 313.452 258.054L318.264 259.987C324.494 244.531 327.931 227.66 327.931 210C327.931 181.836 319.199 155.676 304.309 134.072L300.337 137.439Z" fill="white"/>
</g>
<mask id="mask7_2011_37349" style="mask-type:luminance" maskUnits="userSpaceOnUse" x="-34" y="-17" width="455" height="454">
<path d="M-33.0537 -16.8519H420.65V436.852H-33.0537V-16.8519Z" fill="white"/>
</mask>
<g mask="url(#mask7_2011_37349)">
<path d="M220.166 210C220.166 224.564 208.36 236.369 193.797 236.369C179.234 236.369 167.428 224.564 167.428 210C167.428 195.437 179.234 183.631 193.797 183.631C208.36 183.631 220.166 195.437 220.166 210Z" fill="white"/>
</g>
<mask id="mask8_2011_37349" style="mask-type:luminance" maskUnits="userSpaceOnUse" x="-34" y="-17" width="455" height="454">
<path d="M-33.0537 -16.8519H420.65V436.852H-33.0537V-16.8519Z" fill="white"/>
</mask>
<g mask="url(#mask8_2011_37349)">
<path d="M139.761 238.044L127.462 224.569L148.013 159.837L214.347 145.269L229.543 161.918L244.054 149.614L220.991 124.344L133.213 143.622L106.019 229.278L125.249 250.347L139.761 238.044Z" fill="white"/>
</g>
<mask id="mask9_2011_37349" style="mask-type:luminance" maskUnits="userSpaceOnUse" x="-34" y="-17" width="455" height="454">
<path d="M-33.0537 -16.8519H420.65V436.852H-33.0537V-16.8519Z" fill="white"/>
</mask>
<g mask="url(#mask9_2011_37349)">
<path d="M247.832 181.956L260.131 195.431L239.582 260.163L173.246 274.732L158.049 258.082L143.538 270.386L166.603 295.657L254.381 276.378L281.574 190.722L262.344 169.652L247.832 181.956Z" fill="white"/>
</g>
<mask id="mask10_2011_37349" style="mask-type:luminance" maskUnits="userSpaceOnUse" x="-34" y="-17" width="455" height="454">
<path d="M-33.0537 -16.8519H420.65V436.852H-33.0537V-16.8519Z" fill="white"/>
</mask>
<g mask="url(#mask10_2011_37349)">
<path d="M193.797 243.084C175.553 243.084 160.712 228.242 160.712 210C160.712 191.757 175.553 176.915 193.797 176.915C212.039 176.915 226.881 191.757 226.881 210C226.881 228.242 212.039 243.084 193.797 243.084ZM312.307 119.744L297.954 111.457L228.01 170.762C218.85 162.765 206.884 157.903 193.797 157.903C165.07 157.903 141.699 181.273 141.699 210C141.699 220.025 144.553 229.393 149.48 237.347L78.46 297.564L92.8134 305.851L159.583 249.237C168.744 257.235 180.709 262.097 193.797 262.097C222.523 262.097 245.893 238.726 245.893 210C245.893 199.975 243.04 190.607 238.114 182.653L312.307 119.744Z" fill="white"/>
</g>
</g>
<defs>
<clipPath id="clip0_2011_37349">
<rect width="387.593" height="420" fill="white"/>
</clipPath>
</defs>
</svg>
