<svg width="388" height="420" viewBox="0 0 388 420" fill="none" xmlns="http://www.w3.org/2000/svg">
<g clip-path="url(#clip0_2011_37548)">
<mask id="mask0_2011_37548" style="mask-type:luminance" maskUnits="userSpaceOnUse" x="-34" y="-17" width="455" height="454">
<path d="M-33.0543 -16.8521H420.649V436.852H-33.0543V-16.8521Z" fill="white"/>
</mask>
<g mask="url(#mask0_2011_37548)">
<path d="M159.927 165.22C165.23 151.741 178.48 142.183 193.998 142.183C209.516 142.183 222.767 151.741 228.069 165.22C239.081 155.792 246.053 141.885 246.053 126.359C246.053 97.9575 222.748 74.9336 193.998 74.9336C165.248 74.9336 141.943 97.9575 141.943 126.359C141.943 141.885 148.915 155.792 159.927 165.22Z" fill="white"/>
</g>
<mask id="mask1_2011_37548" style="mask-type:luminance" maskUnits="userSpaceOnUse" x="-34" y="-17" width="455" height="454">
<path d="M-33.0543 -16.8521H420.649V436.852H-33.0543V-16.8521Z" fill="white"/>
</mask>
<g mask="url(#mask1_2011_37548)">
<path d="M109.16 322.274L133.684 336.432C134.222 272.583 150.787 219.8 172.695 207.628C163.464 201.074 157.446 190.381 157.446 178.293C157.446 176.135 157.649 174.024 158.016 171.97C132.97 192.085 113.797 250.177 109.16 322.274Z" fill="white"/>
</g>
<mask id="mask2_2011_37548" style="mask-type:luminance" maskUnits="userSpaceOnUse" x="-34" y="-17" width="455" height="454">
<path d="M-33.0543 -16.8521H420.649V436.852H-33.0543V-16.8521Z" fill="white"/>
</mask>
<g mask="url(#mask2_2011_37548)">
<path d="M229.979 171.97C230.346 174.024 230.549 176.134 230.549 178.292C230.549 190.381 224.531 201.073 215.3 207.628C237.208 219.8 253.773 272.583 254.311 336.434L278.835 322.275C274.199 250.177 255.025 192.085 229.979 171.97Z" fill="white"/>
</g>
</g>
<defs>
<clipPath id="clip0_2011_37548">
<rect width="387.593" height="420" fill="white"/>
</clipPath>
</defs>
</svg>
