<svg width="388" height="420" viewBox="0 0 388 420" fill="none" xmlns="http://www.w3.org/2000/svg">
<path d="M191.742 304.966L185.86 293.034L172.698 291.115C170.336 290.777 169.39 287.865 171.103 286.199L180.627 276.919L178.373 263.807C177.968 261.436 180.461 259.672 182.552 260.77L194.33 266.963L206.103 260.77C208.194 259.666 210.688 261.436 210.282 263.807L208.032 276.919L217.556 286.199C219.265 287.865 218.319 290.777 215.961 291.115L202.796 293.034L196.914 304.966C195.853 307.122 192.796 307.091 191.742 304.966Z" fill="white"/>
<path d="M215.961 217.179L202.795 219.098L196.913 231.03C195.853 233.182 192.795 233.155 191.741 231.03L185.859 219.098L172.697 217.179C170.336 216.838 169.39 213.929 171.103 212.26L180.626 202.983L178.373 189.872C177.967 187.5 180.461 185.736 182.552 186.834L194.329 193.027L206.103 186.834C208.194 185.726 210.687 187.5 210.285 189.872L208.032 202.983L217.555 212.26C219.265 213.929 218.319 216.838 215.961 217.179ZM193.738 139.375L132.123 246.095H255.353L193.738 139.375Z" fill="white"/>
<path d="M113.744 161.064L127.011 162.024L135.325 151.642C136.815 149.777 139.802 150.436 140.376 152.753L143.562 165.666L156.008 170.355C158.261 171.206 158.521 174.247 156.514 175.497L145.217 182.52L144.599 195.811C144.494 198.176 141.707 199.429 139.866 197.878L129.697 189.304L116.873 192.824C114.568 193.456 112.538 191.169 113.437 188.96L118.443 176.635L111.126 165.527C109.805 163.52 111.379 160.899 113.744 161.064Z" fill="white"/>
<path d="M276.339 165.395L268.974 176.47L273.92 188.818C274.812 191.031 272.768 193.311 270.467 192.666L257.66 189.088L247.454 197.615C245.606 199.159 242.829 197.889 242.731 195.527L242.173 182.233L230.906 175.156C228.899 173.902 229.18 170.858 231.437 170.017L243.903 165.385L247.149 152.49C247.734 150.172 250.724 149.531 252.204 151.402L260.47 161.821L273.741 160.919C276.139 160.757 277.646 163.416 276.339 165.395Z" fill="white"/>
</svg>
