<svg width="388" height="420" viewBox="0 0 388 420" fill="none" xmlns="http://www.w3.org/2000/svg">
<path d="M193.734 133.298V148.818C236.521 148.818 271.332 183.629 271.332 226.416C271.332 269.203 236.521 304.014 193.734 304.014V319.534C245.078 319.534 286.852 277.76 286.852 226.416C286.852 175.071 245.078 133.298 193.734 133.298Z" fill="white"/>
<path d="M116.136 202.362C116.136 159.575 150.947 124.764 193.734 124.764V109.244C142.389 109.244 100.616 151.017 100.616 202.362C100.616 253.706 142.389 295.477 193.734 295.477V279.956C150.947 279.956 116.136 245.149 116.136 202.362Z" fill="white"/>
<path d="M199.22 231.902L242.717 188.406C245.747 185.375 245.747 180.463 242.717 177.433C239.687 174.402 234.774 174.402 231.744 177.433L193.734 215.443V234.176C195.72 234.176 197.707 233.419 199.22 231.902Z" fill="white"/>
<path d="M177.224 174.875C174.193 171.845 169.278 171.845 166.247 174.875C163.217 177.906 163.217 182.821 166.247 185.848L188.247 207.848C189.761 209.362 191.747 210.122 193.734 210.122V191.385L177.224 174.875Z" fill="white"/>
<path d="M202.085 165.162C202.085 160.551 198.345 156.814 193.734 156.814V173.51C198.345 173.51 202.085 169.774 202.085 165.162Z" fill="white"/>
<path d="M186.288 141.054C186.288 145.338 189.761 148.811 194.045 148.811V133.298C189.761 133.298 186.288 136.771 186.288 141.054Z" fill="white"/>
<path d="M201.494 287.716C201.494 283.433 198.018 279.956 193.734 279.956V295.477C198.018 295.477 201.494 292.004 201.494 287.716Z" fill="white"/>
<path d="M185.382 263.899C185.382 268.507 189.122 272.247 193.734 272.247V255.547C189.122 255.547 185.382 259.287 185.382 263.899Z" fill="white"/>
<path d="M124.809 202.358C124.809 206.97 128.545 210.71 133.157 210.71C137.768 210.71 141.505 206.97 141.505 202.358C141.505 197.75 137.768 194.01 133.157 194.01C128.545 194.01 124.809 197.75 124.809 202.358Z" fill="white"/>
<path d="M254.399 234.764C259.011 234.764 262.747 231.027 262.747 226.416C262.747 221.804 259.011 218.064 254.399 218.064C249.788 218.064 246.051 221.804 246.051 226.416C246.051 231.027 249.788 234.764 254.399 234.764Z" fill="white"/>
</svg>
