<svg width="388" height="420" viewBox="0 0 388 420" fill="none" xmlns="http://www.w3.org/2000/svg">
<path d="M246.97 144.872L259.142 146.635L250.338 155.223L252.422 167.341L241.534 161.622L230.652 167.348L232.726 155.226L223.916 146.645L236.084 144.875L241.524 133.845L246.97 144.872Z" fill="white"/>
<path d="M201.396 180.115L209.463 181.284L203.625 186.976L205.007 195.01L197.791 191.22L190.578 195.014L191.953 186.98L186.112 181.291L194.179 180.118L197.784 172.804L201.396 180.115Z" fill="white"/>
<path d="M116.699 216.567L123.091 217.496L118.47 222.003L119.564 228.368L113.848 225.365L108.135 228.371L109.223 222.007L104.598 217.503L110.987 216.571L113.841 210.78L116.699 216.567Z" fill="white"/>
<path d="M240.082 200.027L246.345 200.936L241.815 205.358L242.886 211.598L237.281 208.652L231.68 211.602L232.747 205.362L228.21 200.943L234.477 200.031L237.278 194.352L240.082 200.027Z" fill="white"/>
<path d="M229.378 175.743L237.095 176.861L231.514 182.304L232.831 189.99L225.929 186.361L219.031 189.993L220.345 182.307L214.76 176.868L222.476 175.743L225.926 168.75L229.378 175.743Z" fill="white"/>
<path d="M295.328 220.311L299.419 220.902L296.46 223.791L297.159 227.865L293.5 225.943L289.838 227.868L290.538 223.794L287.575 220.906L291.669 220.311L293.497 216.602L295.328 220.311Z" fill="white"/>
<path d="M93.2979 244.037L97.3925 244.632L94.4296 247.517L95.1323 251.595L91.4701 249.672L87.8114 251.595L88.5073 247.52L85.5479 244.635L89.6391 244.037L91.4668 240.331L93.2979 244.037Z" fill="white"/>
<path d="M93.2979 225.943L97.3925 226.537L94.4296 229.423L95.1323 233.5L91.4701 231.578L87.8114 233.5L88.5073 229.426L85.5479 226.541L89.6391 225.946L91.4668 222.237L93.2979 225.943Z" fill="white"/>
<path d="M139.73 242.044L143.822 242.639L140.862 245.524L141.562 249.601L137.903 247.679L134.244 249.601L134.94 245.527L131.977 242.642L136.072 242.047L137.899 238.338L139.73 242.044Z" fill="white"/>
<path d="M166.838 188.068L170.929 188.662L167.97 191.548L168.669 195.625L165.01 193.7L161.348 195.629L162.047 191.551L159.084 188.666L163.176 188.068L165.007 184.362L166.838 188.068Z" fill="white"/>
<path d="M199.926 238.405L204.02 239L201.061 241.885L201.76 245.959L198.098 244.037L194.439 245.963L195.139 241.888L192.176 239.003L196.267 238.405L198.095 234.699L199.926 238.405Z" fill="white"/>
<path d="M299.52 237.277L303.612 237.871L300.652 240.757L301.352 244.831L297.693 242.909L294.031 244.834L294.73 240.76L291.767 237.875L295.862 237.277L297.689 233.571L299.52 237.277Z" fill="white"/>
<path d="M169.338 138.706L173.429 139.301L170.47 142.189L171.172 146.264L167.51 144.341L163.851 146.267L164.547 142.189L161.588 139.304L165.679 138.709L167.507 135L169.338 138.706Z" fill="white"/>
<path d="M133.808 220.311L137.899 220.902L134.939 223.791L135.639 227.865L131.98 225.943L128.321 227.868L129.017 223.794L126.054 220.906L130.149 220.311L131.976 216.602L133.808 220.311Z" fill="white"/>
<path d="M276.99 219.733L281.081 220.325L278.122 223.213L278.821 227.287L275.162 225.365L271.5 227.291L272.2 223.213L269.237 220.328L273.331 219.733L275.159 216.024L276.99 219.733Z" fill="white"/>
<path d="M251.48 239.814L255.575 240.409L252.615 243.297L253.314 247.371L249.652 245.449L245.993 247.375L246.693 243.297L243.73 240.412L247.821 239.817L249.649 236.108L251.48 239.814Z" fill="white"/>
<path d="M293.598 250.662L297.689 251.253L294.73 254.142L295.429 258.216L291.77 256.294L288.108 258.22L288.808 254.142L285.845 251.257L289.939 250.662L291.767 246.953L293.598 250.662Z" fill="white"/>
<path d="M207.534 153.787L214.933 154.861L209.581 160.081L210.845 167.449L204.23 163.973L197.612 167.453L198.872 160.084L193.517 154.868L200.916 153.791L204.223 147.084L207.534 153.787Z" fill="white"/>
<path d="M314.997 256.324L321.385 257.25L316.764 261.757L317.858 268.122L312.139 265.118L306.429 268.125L307.517 261.76L302.892 257.257L309.281 256.328L312.135 250.537L314.997 256.324Z" fill="white"/>
<path d="M82.8279 260.554L89.2164 261.479L84.5948 265.986L85.6894 272.351L79.9731 269.348L74.2603 272.354L75.3481 265.99L70.7231 261.486L77.1117 260.554L79.9664 254.763L82.8279 260.554Z" fill="white"/>
<path d="M149.338 198.273L155.727 199.199L151.105 203.709L152.2 210.071L146.483 207.071L140.771 210.074L141.862 203.713L137.237 199.206L143.625 198.277L146.48 192.486L149.338 198.273Z" fill="white"/>
<path d="M157.193 223.905L165.007 225.037L159.355 230.551L160.693 238.331L153.703 234.662L146.716 238.338L148.047 230.554L142.392 225.044L150.206 223.909L153.696 216.828L157.193 223.905Z" fill="white"/>
<path d="M257.933 222.152L262.744 222.851L259.264 226.243L260.085 231.037L255.784 228.774L251.48 231.037L252.301 226.247L248.818 222.855L253.629 222.155L255.781 217.794L257.933 222.152Z" fill="white"/>
<path d="M176.622 238.068L181.433 238.763L177.953 242.159L178.777 246.949L174.473 244.689L170.172 246.953L170.99 242.162L167.51 238.77L172.321 238.068L174.47 233.706L176.622 238.068Z" fill="white"/>
<path d="M208.676 205.581L216.528 206.72L210.848 212.26L212.193 220.085L205.166 216.392L198.139 220.088L199.48 212.264L193.794 206.726L201.649 205.581L205.159 198.463L208.676 205.581Z" fill="white"/>
<path d="M181.774 203.024L192.176 204.531L184.652 211.872L186.433 222.23L177.125 217.341L167.825 222.237L169.598 211.875L162.071 204.544L172.47 203.027L177.119 193.602L181.774 203.024Z" fill="white"/>
<path d="M199.146 121.422L209.548 122.929L202.024 130.267L203.804 140.628L194.5 135.74L185.2 140.632L186.973 130.274L179.443 122.939L189.845 121.426L194.49 111.997L199.146 121.422Z" fill="white"/>
<path d="M268.618 186.098L281.757 188.003L272.254 197.274L274.504 210.358L262.75 204.186L251 210.365L253.24 197.28L243.73 188.017L256.865 186.101L262.737 174.196L268.618 186.098Z" fill="white"/>
<path d="M229.791 224.858L242.929 226.76L233.426 236.034L235.676 249.118L223.923 242.943L212.173 249.125L214.412 236.04L204.902 226.774L218.041 224.861L223.912 212.953L229.791 224.858Z" fill="white"/>
<path d="M129.565 182.53L141.919 184.321L132.984 193.037L135.098 205.341L124.044 199.537L112.997 205.348L115.105 193.044L106.163 184.335L118.514 182.534L124.034 171.338L129.565 182.53Z" fill="white"/>
<path d="M144.315 154.271L150.703 155.196L146.082 159.706L147.176 166.068L141.46 163.064L135.747 166.071L136.835 159.71L132.21 155.203L138.598 154.274L141.457 148.483L144.315 154.271Z" fill="white"/>
<path d="M274.845 238.733L281.237 239.662L276.615 244.169L277.71 250.534L271.99 247.53L266.281 250.537L267.369 244.172L262.744 239.669L269.132 238.736L271.987 232.946L274.845 238.733Z" fill="white"/>
<path d="M114.807 244.325L121.861 245.348L116.76 250.325L117.966 257.352L111.655 254.034L105.348 257.355L106.551 250.328L101.446 245.355L108.5 244.328L111.652 237.933L114.807 244.325Z" fill="white"/>
<path d="M171.855 160.45L181.575 161.858L174.544 168.716L176.206 178.396L167.514 173.828L158.821 178.399L160.48 168.72L153.443 161.868L163.162 160.453L167.504 151.646L171.855 160.45Z" fill="white"/>
</svg>
