<svg width="388" height="420" viewBox="0 0 388 420" fill="none" xmlns="http://www.w3.org/2000/svg">
<path d="M318.722 171.838C315.965 191.395 300.57 204.368 291.597 211.135C300.101 199.338 304.567 190.061 306.046 161.956C306.611 161.689 307.198 161.439 307.844 161.226C311.445 160.034 314.682 160.351 316.803 160.838C318.101 161.132 318.992 162.25 319.107 163.574C319.354 166.514 319.175 168.628 318.722 171.838ZM203.57 171.838C203.117 168.628 202.938 166.514 203.188 163.574C203.3 162.25 204.192 161.132 205.489 160.838C207.611 160.351 210.847 160.034 214.448 161.226C215.094 161.439 215.682 161.689 216.246 161.956C217.726 190.061 222.192 199.338 230.695 211.135C221.722 204.368 206.327 191.395 203.57 171.838ZM327.8 153.909C327.79 153.571 327.506 153.301 327.165 153.301H306.391C306.472 150.378 306.533 147.287 306.57 144H215.722C215.759 147.287 215.82 150.378 215.905 153.301H195.128C194.786 153.301 194.503 153.571 194.492 153.909C194.334 158.709 194.604 165.963 196.999 174.264C202.621 193.736 216.131 205.699 221.874 210.659C230.296 217.929 234.506 218.882 239.665 222.598C245.59 229.514 251.124 235.409 253.347 243.318C255.006 249.233 255.536 262.615 253.269 272.301L228.381 283.267C227.668 283.581 227.891 284.649 228.671 284.649H293.621C294.401 284.649 294.624 283.581 293.911 283.267L269.023 272.301C266.759 262.615 267.286 249.233 268.945 243.318C271.168 235.409 276.702 229.514 282.627 222.598C287.786 218.882 291.996 217.929 300.418 210.659C306.158 205.699 319.668 193.736 325.293 174.264C327.688 165.963 327.955 158.709 327.8 153.909Z" fill="white"/>
<path d="M157.296 171.838C156.843 168.628 156.664 166.513 156.911 163.574C157.026 162.25 157.917 161.132 159.215 160.838C161.336 160.351 164.573 160.034 168.171 161.226C168.816 161.439 169.407 161.689 169.972 161.956C171.451 190.061 175.917 199.338 184.421 211.135C175.448 204.368 160.053 191.395 157.296 171.838ZM225.762 277.334L229.965 275.483L222.749 272.301C220.482 262.615 221.009 249.233 222.671 243.318C224.502 236.801 228.58 231.652 233.276 226.176C232.553 225.743 231.806 225.321 231.012 224.875C227.668 222.986 223.502 220.635 217.637 215.568C212.002 210.706 197.039 197.787 190.765 176.064C188.688 168.861 187.759 161.334 188.009 153.696C188.137 149.838 191.266 146.814 195.127 146.814H209.272C209.259 145.909 209.245 144.993 209.235 144.071V144H169.448C169.485 147.287 169.546 150.378 169.627 153.301H148.85C148.509 153.301 148.228 153.571 148.218 153.909C148.059 158.709 148.326 165.963 150.725 174.264C156.347 193.736 169.857 205.699 175.6 210.659C184.022 217.929 188.232 218.882 193.39 222.598C199.316 229.514 204.85 235.409 207.07 243.318C208.732 249.233 209.259 262.615 206.995 272.301L182.107 283.267C181.394 283.581 181.617 284.649 182.397 284.649H221.502C221.181 281.554 222.85 278.618 225.762 277.334Z" fill="white"/>
<path d="M111.02 171.838C110.57 168.628 110.391 166.513 110.638 163.574C110.749 162.25 111.645 161.132 112.942 160.838C115.063 160.351 118.3 160.034 121.898 161.226C122.543 161.439 123.134 161.689 123.699 161.956C125.178 190.061 129.645 199.338 138.148 211.135C129.172 204.368 113.78 191.395 111.02 171.838ZM179.486 277.334L183.692 275.483L176.476 272.301C174.209 262.615 174.736 249.233 176.398 243.318C178.229 236.801 182.307 231.652 187.003 226.176C186.28 225.743 185.533 225.321 184.739 224.875C181.395 222.986 177.229 220.635 171.361 215.568C165.729 210.703 150.766 197.787 144.493 176.064C142.415 168.858 141.486 161.334 141.736 153.696C141.861 149.841 144.986 146.814 148.851 146.814H162.999C162.986 145.912 162.972 144.997 162.962 144.071V144H123.175C123.212 147.287 123.27 150.378 123.354 153.301H102.577C102.236 153.301 101.955 153.571 101.945 153.909C101.786 158.709 102.053 165.963 104.452 174.264C110.074 193.736 123.584 205.699 129.327 210.659C137.749 217.929 141.959 218.882 147.114 222.598C153.043 229.514 158.577 235.409 160.797 243.318C162.459 249.233 162.986 262.615 160.722 272.301L135.834 283.267C135.118 283.581 135.344 284.649 136.124 284.649H175.229C174.908 281.554 176.577 278.618 179.486 277.334Z" fill="white"/>
<path d="M64.7461 171.838C64.2934 168.628 64.1143 166.513 64.3643 163.574C64.4758 162.25 65.3711 161.132 66.6684 160.838C68.7866 160.351 72.0265 160.034 75.6245 161.226C76.2697 161.439 76.861 161.689 77.4252 161.956C78.9049 190.061 83.3711 199.338 91.8745 211.135C82.8981 204.368 67.5029 191.395 64.7461 171.838ZM133.212 277.334L137.415 275.483L130.199 272.301C127.935 262.615 128.462 249.233 130.125 243.318C131.956 236.801 136.033 231.652 140.726 226.176C140.003 225.743 139.26 225.324 138.466 224.875C135.121 222.983 130.956 220.635 125.087 215.568C119.456 210.703 104.493 197.787 98.2191 176.064C96.138 168.858 95.2124 161.334 95.4624 153.696C95.5874 149.841 98.7124 146.814 102.577 146.814H116.726C116.712 145.912 116.699 144.997 116.689 144.071V144H76.9015C76.9353 147.287 76.9961 150.378 77.0806 153.301H56.3035C55.9623 153.301 55.6819 153.571 55.6718 153.909C55.513 158.709 55.7799 165.963 58.1785 174.264C63.8002 193.736 77.3103 205.699 83.0535 210.659C91.4758 217.929 95.6819 218.882 100.841 222.598C106.77 229.514 112.3 235.409 114.523 243.318C116.185 249.233 116.712 262.615 114.449 272.301L89.557 283.267C88.8441 283.581 89.0705 284.649 89.8475 284.649H128.956C128.635 281.554 130.304 278.618 133.212 277.334Z" fill="white"/>
</svg>
