<svg width="388" height="420" viewBox="0 0 388 420" fill="none" xmlns="http://www.w3.org/2000/svg">
<g clip-path="url(#clip0_2011_37170)">
<mask id="mask0_2011_37170" style="mask-type:luminance" maskUnits="userSpaceOnUse" x="-34" y="-17" width="455" height="454">
<path d="M-33.0541 -16.8519H420.65V436.852H-33.0541V-16.8519Z" fill="white"/>
</mask>
<g mask="url(#mask0_2011_37170)">
<path d="M108.753 176.742C87.8019 214.534 93.9446 257.064 133.252 285.95L132.846 283.976C127.737 259.136 138.571 233.733 160.033 220.225L162.504 218.67L156.631 218.049C134.36 215.694 115.696 200.166 109.332 178.694L108.753 176.742Z" fill="white"/>
</g>
<mask id="mask1_2011_37170" style="mask-type:luminance" maskUnits="userSpaceOnUse" x="-34" y="-17" width="455" height="454">
<path d="M-33.0541 -16.8519H420.65V436.852H-33.0541V-16.8519Z" fill="white"/>
</mask>
<g mask="url(#mask1_2011_37170)">
<path d="M203.033 142.464C191.327 152.341 187.494 168.732 193.603 182.777L195.008 186.005L182.825 170.198C176.634 162.164 178.291 150.605 186.488 144.634L192.477 140.271C200.026 134.772 204.289 125.833 203.81 116.506L203.54 111.249L208.006 122.069C210.961 129.225 208.95 137.47 203.033 142.464ZM268.96 155.016L250.648 133.801C247.325 129.951 244.653 125.586 242.736 120.875L240.836 116.206C239.285 120.433 238.69 124.951 239.097 129.435L239.86 137.854C240.325 142.977 239.074 148.057 236.383 152.332C234.861 154.748 232.579 156.59 229.962 157.732L229.786 157.809L229.315 141.473C229.195 137.292 228.673 133.127 227.65 129.072C223.251 111.629 212.058 96.516 196.375 87.2458L188.182 82.4028L189.964 90.795C191.409 97.6023 189.753 104.699 185.445 110.163L171.754 127.527C157.976 145 163.173 170.662 182.665 181.398L188.436 184.575C191.945 186.508 193.811 190.48 193.057 194.415L193.523 194.354C198.179 193.747 202.892 193.712 207.556 194.25L208.984 194.415L208.042 192.522C205.567 187.553 205.082 181.827 206.683 176.511L208.009 172.11L208.807 177.28C209.291 180.411 210.784 183.297 213.058 185.501C214.615 187.008 215.959 188.719 217.056 190.587L218.897 193.724L217.696 190.341C215.099 183.023 216.886 174.864 222.305 169.301L225.032 166.503L223.597 173.516C222.463 179.057 223.922 184.813 227.559 189.144L228.001 189.67C232.614 195.164 234.434 202.478 232.936 209.493C232.593 211.094 232.833 212.764 233.61 214.206L236.936 220.376L223.69 210.915C223.663 210.896 223.637 210.878 223.61 210.859C220.12 208.386 215.977 207.001 211.714 206.658L207.04 206.281C199.82 205.7 194.502 212.909 197.19 219.636C200.522 227.979 197.969 237.52 190.917 243.084L184.636 248.039C181.143 250.795 178.332 254.319 176.422 258.338L175.425 260.436L175.815 260.991C177.027 262.716 178.755 264.011 180.751 264.691L182.332 265.23L185.4 259.916C187.777 255.801 190.883 252.153 194.567 249.151L195.283 248.568C199.779 244.905 203.176 240.07 205.1 234.598L205.815 232.565L208.663 240.635C210.275 245.2 213.618 248.948 217.972 251.065C221.382 252.724 224.223 255.36 226.133 258.638L228.647 262.954L231.812 260.247C234.908 257.598 238.618 255.768 242.603 254.924C247.616 253.863 252.122 251.138 255.39 247.192L257.006 245.241L254.935 257.939C252.712 271.568 244.148 283.332 231.86 289.634L213.361 299.123C207.273 302.245 201.629 306.163 196.576 310.774L193.057 313.984L192.665 313.458C188.178 307.46 182.248 302.693 175.425 299.602L179.622 307.259C182.069 311.725 185.054 315.876 188.508 319.618L193.057 324.547L215.614 308.78C221.806 304.451 228.227 300.457 234.846 296.814L244.429 291.539C294.144 264.175 306.039 197.975 268.96 155.016Z" fill="white"/>
</g>
<mask id="mask2_2011_37170" style="mask-type:luminance" maskUnits="userSpaceOnUse" x="-34" y="-17" width="455" height="454">
<path d="M-33.0541 -16.8519H420.65V436.852H-33.0541V-16.8519Z" fill="white"/>
</mask>
<g mask="url(#mask2_2011_37170)">
<path d="M175.545 311.668L168.252 304.964C165.428 302.37 162.366 300.05 159.103 298.038L154.101 294.951C142.466 287.772 137.665 273.274 142.716 260.57L146.049 252.188L145.202 256.348C142.401 270.103 148.259 284.178 159.994 291.884C166.318 296.037 171.298 301.941 174.325 308.876L175.545 311.668Z" fill="white"/>
</g>
<mask id="mask3_2011_37170" style="mask-type:luminance" maskUnits="userSpaceOnUse" x="-34" y="-17" width="455" height="454">
<path d="M-33.0541 -16.8519H420.65V436.852H-33.0541V-16.8519Z" fill="white"/>
</mask>
<g mask="url(#mask3_2011_37170)">
<path d="M129.719 153.705L130.44 162.2C131.377 173.235 136.976 183.346 145.833 189.996L152.693 195.146L148.675 194.082C134.339 190.288 122.813 179.64 117.896 165.65L120.178 167.688C121.983 169.3 124.389 170.066 126.793 169.794L126.455 168.072C125.468 163.037 126.653 157.819 129.719 153.705Z" fill="white"/>
</g>
<mask id="mask4_2011_37170" style="mask-type:luminance" maskUnits="userSpaceOnUse" x="-34" y="-17" width="455" height="454">
<path d="M-33.0541 -16.8519H420.65V436.852H-33.0541V-16.8519Z" fill="white"/>
</mask>
<g mask="url(#mask4_2011_37170)">
<path d="M159.09 181.861L150.26 175.348C144.173 170.86 142.405 162.527 146.144 155.953L151.357 146.787C153.188 143.569 152.634 139.523 150.007 136.915L146.292 133.229L152.082 133.488C157.936 133.749 161.803 139.685 159.677 145.145L155.006 157.142C152.642 163.211 152.994 170.002 155.972 175.795L159.09 181.861Z" fill="white"/>
</g>
<mask id="mask5_2011_37170" style="mask-type:luminance" maskUnits="userSpaceOnUse" x="-34" y="-17" width="455" height="454">
<path d="M-33.0541 -16.8519H420.65V436.852H-33.0541V-16.8519Z" fill="white"/>
</mask>
<g mask="url(#mask5_2011_37170)">
<path d="M202.665 252.188L203.028 253.235C204.541 257.603 207.289 261.438 210.937 264.275C213.375 266.171 215.217 268.728 216.245 271.64L217.962 276.504L222.438 275.823C226.352 275.228 230.083 273.765 233.357 271.541L238.072 268.338L235.462 273.368C232.869 278.363 228.494 282.201 223.204 284.12L213.412 287.672C208.894 289.31 204.751 291.841 201.23 295.112L193.707 302.1L189.109 297.164C186.087 293.922 182.743 290.997 179.126 288.436L175.701 286.008C171.945 283.348 169.066 279.63 167.43 275.329L165.003 268.947L169.186 272.417C171.852 274.629 174.953 276.258 178.288 277.196L181.457 278.089L185.108 275.783C189.116 273.252 192.238 269.538 194.041 265.154C195.328 262.025 197.064 259.1 199.195 256.471L202.665 252.188Z" fill="white"/>
</g>
</g>
<defs>
<clipPath id="clip0_2011_37170">
<rect width="387.593" height="420" fill="white"/>
</clipPath>
</defs>
</svg>
