<svg width="388" height="420" viewBox="0 0 388 420" fill="none" xmlns="http://www.w3.org/2000/svg">
<path d="M132.588 210C132.588 220.99 123.676 229.902 112.686 229.902C101.693 229.902 92.7844 220.99 92.7844 210C92.7844 199.01 101.693 190.098 112.686 190.098C123.676 190.098 132.588 199.01 132.588 210Z" fill="white"/>
<path d="M213.637 210C213.637 220.99 204.724 229.902 193.735 229.902C182.745 229.902 173.833 220.99 173.833 210C173.833 199.01 182.745 190.098 193.735 190.098C204.724 190.098 213.637 199.01 213.637 210Z" fill="white"/>
<path d="M294.683 210C294.683 220.99 285.771 229.902 274.781 229.902C263.792 229.902 254.879 220.99 254.879 210C254.879 199.01 263.792 190.098 274.781 190.098C285.771 190.098 294.683 199.01 294.683 210Z" fill="white"/>
</svg>
