<svg width="388" height="420" viewBox="0 0 388 420" fill="none" xmlns="http://www.w3.org/2000/svg">
<path d="M227.024 211.216C210.125 188.716 211.142 169.186 214.973 156.767C215.713 154.365 216.592 152.139 217.534 150.088C217.541 150.071 217.534 150.054 217.517 150.047C211.835 147.791 205.76 146.318 199.419 145.764C199.321 145.872 199.227 145.98 199.119 146.085C198.186 146.997 175.754 169.618 199.967 201.858C216.777 224.243 215.842 245.558 212.098 259.497C210.69 264.74 208.784 269.324 206.889 273.105C206.879 273.125 206.899 273.152 206.926 273.145C217.669 270.912 227.423 266 235.48 259.149C235.484 259.145 235.487 259.139 235.49 259.135C239.561 247.277 241.007 229.835 227.024 211.216Z" fill="white"/>
<path d="M187.504 211.216C170.605 188.716 171.622 169.186 175.453 156.767C176.565 153.159 177.984 149.949 179.467 147.155C179.477 147.132 179.457 147.105 179.433 147.111C168.534 149.578 158.686 154.794 150.656 162.003C150.652 162.007 150.649 162.013 150.646 162.02C147.886 171.831 148.247 185.625 160.443 201.858C177.254 224.243 176.318 245.557 172.575 259.497C171.582 263.192 170.342 266.564 169.034 269.557C169.027 269.574 169.034 269.591 169.051 269.598C174.97 272.054 181.338 273.645 187.994 274.23C188.004 274.233 188.014 274.23 188.021 274.223C190.828 270.618 211.061 242.584 187.504 211.216Z" fill="white"/>
<path d="M239.487 201.858C248.081 213.301 252.031 224.459 253.345 234.5C253.348 234.53 253.392 234.537 253.402 234.507C256.51 226.949 258.233 218.679 258.233 210C258.233 188.392 247.595 169.281 231.284 157.574C231.267 157.564 231.243 157.567 231.237 157.588C227.118 167.446 225.328 183.007 239.487 201.858Z" fill="white"/>
<path d="M147.98 211.216C140.615 201.409 136.652 192.169 134.841 183.834C134.835 183.804 134.798 183.8 134.784 183.827C131.227 191.827 129.233 200.679 129.233 210C129.233 231.256 139.521 250.108 155.385 261.858C155.402 261.871 155.426 261.865 155.433 261.844C160.189 250.033 163.071 231.311 147.98 211.216Z" fill="white"/>
<path d="M112.905 209.834C112.817 204.098 107.882 199.611 102.145 199.611H90.0505C82.8647 199.611 77.9323 204.098 77.8411 209.834C77.7532 215.648 82.439 220.388 88.2296 220.388H102.517C108.311 220.388 112.996 215.648 112.905 209.834Z" fill="white"/>
<path d="M299.237 199.611H285.321C279.585 199.611 274.649 204.098 274.561 209.834C274.47 215.648 279.155 220.388 284.949 220.388H298.862C304.598 220.388 309.534 215.902 309.625 210.165C309.713 204.351 305.027 199.611 299.237 199.611Z" fill="white"/>
<path d="M193.899 129.172C199.635 129.081 204.122 124.149 204.122 118.412V106.318C204.122 99.1318 199.635 94.1994 193.899 94.1081C188.085 94.0203 183.345 98.7061 183.345 104.497V118.784C183.345 124.578 188.085 129.264 193.899 129.172Z" fill="white"/>
<path d="M193.568 290.828C187.831 290.919 183.345 295.855 183.345 301.591V315.129C183.345 320.865 187.831 325.801 193.568 325.889C199.382 325.98 204.122 321.298 204.122 315.5V301.216C204.122 295.423 199.382 290.737 193.568 290.828Z" fill="white"/>
<path d="M136.581 138.152L126.743 128.314C122.686 124.26 116.024 123.943 111.902 127.936C107.726 131.983 107.689 138.649 111.784 142.747L121.885 152.848C123.915 154.875 126.574 155.888 129.233 155.888C131.892 155.888 134.551 154.875 136.581 152.848C137.24 152.189 137.777 151.459 138.223 150.689L138.226 150.686C138.48 150.111 138.74 149.551 139.003 149.007C140.314 145.341 139.513 141.088 136.581 138.152Z" fill="white"/>
<path d="M265.581 267.152C261.483 263.057 254.818 263.094 250.77 267.27C246.777 271.392 247.095 278.054 251.149 282.111L260.986 291.949C263.017 293.976 265.676 294.99 268.334 294.99C270.983 294.99 273.632 293.983 275.659 291.973C279.726 287.929 279.497 281.071 275.443 277.013L265.581 267.152Z" fill="white"/>
<path d="M258.233 155.888C260.892 155.888 263.55 154.875 265.581 152.848L275.415 143.01C279.473 138.953 279.79 132.29 275.797 128.169C271.75 123.996 265.084 123.956 260.99 128.051L251.125 137.912C247.071 141.969 246.841 148.828 250.909 152.871C252.936 154.885 255.584 155.888 258.233 155.888Z" fill="white"/>
<path d="M121.886 267.152L112.024 277.013C107.97 281.071 107.74 287.929 111.808 291.973C113.835 293.983 116.484 294.99 119.132 294.99C121.791 294.99 124.45 293.976 126.48 291.949L136.315 282.111C140.372 278.054 140.69 271.392 136.696 267.27C132.649 263.094 125.984 263.057 121.886 267.152Z" fill="white"/>
</svg>
