<svg width="388" height="420" viewBox="0 0 388 420" fill="none" xmlns="http://www.w3.org/2000/svg">
<path d="M202.064 265.453V280.003C202.064 281.503 200.899 282.666 199.402 282.666H188.176C186.76 282.666 185.514 281.503 185.514 280.003V265.453C166.051 262.706 155.406 251.064 154.99 250.564C154.159 249.568 154.078 248.152 154.824 247.156L163.392 235.929C163.808 235.345 164.554 235.014 165.304 234.929C166.051 234.845 166.801 235.095 167.301 235.679C167.466 235.764 179.108 246.906 193.828 246.906C201.98 246.906 210.794 242.581 210.794 233.183C210.794 225.199 200.983 221.291 189.754 216.801C174.784 210.895 156.156 203.409 156.156 182.534C156.156 167.233 168.132 154.591 185.514 151.264V136.294C185.514 134.797 186.76 133.635 188.176 133.635H199.402C200.899 133.635 202.064 134.797 202.064 136.294V150.933C218.946 152.845 227.926 161.993 228.26 162.328C229.091 163.24 229.257 164.49 228.676 165.487L221.939 177.628C221.524 178.379 220.858 178.875 220.027 178.96C219.196 179.125 218.446 178.875 217.781 178.378C217.696 178.294 207.635 169.395 195.159 169.395C184.598 169.395 177.281 174.635 177.281 182.203C177.281 191.017 187.426 194.926 199.237 199.5C214.537 205.406 231.838 212.142 231.838 232.186C231.838 249.152 219.696 262.541 202.064 265.453Z" fill="white"/>
<path d="M288.551 265.453V280.003C288.551 281.503 287.385 282.666 285.889 282.666H274.659C273.247 282.666 272 281.503 272 280.003V265.453C252.537 262.706 241.895 251.064 241.476 250.564C240.645 249.568 240.564 248.152 241.311 247.156L249.875 235.929C250.294 235.345 251.041 235.014 251.791 234.929C252.537 234.845 253.287 235.095 253.787 235.679C253.953 235.764 265.595 246.906 280.314 246.906C288.466 246.906 297.28 242.581 297.28 233.183C297.28 225.199 287.47 221.291 276.24 216.801C261.27 210.895 242.642 203.409 242.642 182.534C242.642 167.233 254.618 154.591 272 151.264V136.294C272 134.797 273.247 133.635 274.659 133.635H285.889C287.385 133.635 288.551 134.797 288.551 136.294V150.933C305.432 152.845 314.412 161.993 314.747 162.328C315.578 163.24 315.743 164.49 315.162 165.487L308.426 177.628C308.01 178.379 307.345 178.875 306.514 178.96C305.682 179.125 304.932 178.875 304.267 178.378C304.182 178.294 294.122 169.395 281.645 169.395C271.084 169.395 263.767 174.635 263.767 182.203C263.767 191.017 273.912 194.926 285.723 199.5C301.024 205.406 318.324 212.142 318.324 232.186C318.324 249.152 306.182 262.541 288.551 265.453Z" fill="white"/>
<path d="M115.578 265.453V280.003C115.578 281.503 114.412 282.666 112.916 282.666H101.689C100.274 282.666 99.0271 281.503 99.0271 280.003V265.453C79.5643 262.706 68.919 251.064 68.5035 250.564C67.6724 249.568 67.5913 248.152 68.3379 247.156L76.9055 235.929C77.321 235.345 78.0676 235.014 78.8176 234.929C79.5643 234.845 80.3143 235.095 80.8143 235.679C80.9798 235.764 92.6217 246.906 107.341 246.906C115.493 246.906 124.308 242.581 124.308 233.183C124.308 225.199 114.497 221.291 103.267 216.801C88.2974 210.895 69.669 203.409 69.669 182.534C69.669 167.233 81.6453 154.591 99.0271 151.264V136.294C99.0271 134.797 100.274 133.635 101.689 133.635H112.916C114.412 133.635 115.578 134.797 115.578 136.294V150.933C132.46 152.845 141.439 161.993 141.774 162.328C142.605 163.24 142.77 164.49 142.189 165.487L135.453 177.628C135.037 178.379 134.372 178.875 133.541 178.96C132.71 179.125 131.96 178.875 131.294 178.378C131.209 178.294 121.149 169.395 108.672 169.395C98.1116 169.395 90.794 174.635 90.794 182.203C90.794 191.017 100.939 194.926 112.75 199.5C128.051 205.406 145.351 212.142 145.351 232.186C145.351 249.152 133.21 262.541 115.578 265.453Z" fill="white"/>
</svg>
