<svg width="388" height="420" viewBox="0 0 388 420" fill="none" xmlns="http://www.w3.org/2000/svg">
<path d="M214.145 267.977C199.817 267.977 187.608 278.929 186.314 293.477C184.946 308.865 196.31 322.45 211.702 323.818C212.544 323.892 213.381 323.929 214.209 323.929C228.54 323.929 240.75 312.977 242.044 298.429C243.408 283.037 232.044 269.456 216.655 268.088C215.814 268.01 214.976 267.977 214.145 267.977ZM214.145 278.355C214.672 278.355 215.206 278.379 215.736 278.426C225.402 279.284 232.564 287.845 231.706 297.51C230.905 306.504 223.219 313.551 214.209 313.551C213.685 313.551 213.148 313.524 212.621 313.48C202.956 312.618 195.794 304.058 196.652 294.392C197.449 285.399 205.135 278.355 214.145 278.355Z" fill="white"/>
<path d="M173.32 146.835C172.641 146.835 171.952 146.804 171.269 146.743C158.756 145.632 149.479 134.547 150.59 122.031C151.627 110.385 161.58 101.264 173.256 101.264C173.935 101.264 174.624 101.294 175.303 101.355C187.82 102.466 197.094 113.551 195.982 126.064C194.948 137.713 184.992 146.835 173.32 146.835Z" fill="white"/>
<path d="M173.257 96.0708C158.926 96.0708 146.716 107.023 145.422 121.571C144.054 136.959 155.422 150.544 170.811 151.912C171.655 151.986 172.49 152.024 173.321 152.024C187.652 152.024 199.861 141.071 201.152 126.524C202.52 111.135 191.155 97.5505 175.763 96.1823C174.922 96.108 174.084 96.0708 173.257 96.0708ZM173.257 106.449C173.784 106.449 174.317 106.476 174.844 106.52C184.51 107.382 191.676 115.942 190.814 125.608C190.017 134.601 182.331 141.645 173.321 141.645C172.794 141.645 172.26 141.621 171.73 141.574C162.067 140.716 154.902 132.155 155.76 122.49C156.561 113.496 164.243 106.449 173.257 106.449Z" fill="white"/>
<path d="M130.776 266.52C130.672 266.52 130.57 266.52 130.466 266.52C115.016 266.689 102.628 279.351 102.797 294.801C102.962 310.145 115.455 322.469 130.763 322.469C130.868 322.469 130.969 322.469 131.074 322.466C146.523 322.297 158.911 309.638 158.743 294.189C158.574 278.844 146.084 266.52 130.776 266.52ZM130.776 276.898C140.371 276.898 148.259 284.706 148.364 294.304C148.415 299.003 146.634 303.442 143.347 306.8C140.06 310.159 135.661 312.037 130.962 312.091H130.763C121.168 312.091 113.28 304.284 113.175 294.686C113.124 289.986 114.905 285.547 118.192 282.189C121.479 278.827 125.878 276.949 130.577 276.898H130.776Z" fill="white"/>
<path d="M193.74 182.037C193.635 182.037 193.53 182.037 193.429 182.041C177.98 182.206 165.591 194.868 165.76 210.318C165.926 225.662 178.419 237.987 193.726 237.987C193.831 237.987 193.932 237.987 194.037 237.983C209.486 237.818 221.875 225.155 221.706 209.706C221.54 194.361 209.047 182.037 193.74 182.037ZM193.74 192.415C203.334 192.415 211.223 200.223 211.328 209.821C211.378 214.52 209.598 218.959 206.311 222.318C203.024 225.679 198.625 227.554 193.926 227.608H193.726C184.132 227.608 176.243 219.801 176.138 210.203C176.088 205.503 177.868 201.064 181.155 197.706C184.442 194.348 188.841 192.466 193.54 192.415H193.74Z" fill="white"/>
<path d="M176.962 179.709C176.655 179.709 176.348 179.713 176.037 179.716C129.922 180.216 92.9421 218.01 93.4455 264.125C93.6347 281.507 99.1381 297.574 108.371 310.841C109.527 311.656 110.581 312.605 111.574 313.608C112.084 314.125 112.587 314.649 113.098 315.166C113.479 315.243 113.858 315.358 114.206 315.531C116.023 316.433 117.729 317.527 119.476 318.554C119.503 318.571 119.52 318.588 119.547 318.605L124.854 311.774C117.746 309.338 112.598 302.639 112.51 294.693C112.398 284.608 120.486 276.345 130.57 276.233C130.638 276.233 130.706 276.233 130.773 276.233C137.155 276.233 142.783 279.517 146.05 284.5L152.152 276.645C150.033 272.74 148.8 268.277 148.75 263.524C148.581 247.953 161.067 235.189 176.638 235.02C176.743 235.02 176.848 235.017 176.949 235.017C179.327 235.017 181.635 235.314 183.841 235.872L190.037 227.895C181.804 226.199 175.567 218.96 175.473 210.21C175.364 200.125 183.449 191.862 193.533 191.753C193.601 191.753 193.668 191.75 193.736 191.75C200.939 191.75 207.182 195.929 210.152 202.014L214.317 196.652C212.804 194.473 211.327 192.321 209.398 190.416C207.324 188.365 204.959 186.608 203.594 184.061C195.226 181.243 186.27 179.709 176.962 179.709ZM173.081 190.189C168.064 195.416 165.01 202.527 165.094 210.324C165.155 215.78 166.79 220.949 169.591 225.345C151.658 228.818 138.165 244.737 138.371 263.635C138.385 264.737 138.442 265.831 138.55 266.926C136.054 266.223 133.442 265.855 130.773 265.855L130.459 265.858C122.807 265.939 115.648 268.997 110.3 274.466C108.543 276.257 107.054 278.24 105.847 280.362C104.567 275.047 103.885 269.571 103.824 264.014C103.611 244.48 111.016 226.037 124.679 212.074C137.618 198.848 154.709 191.145 173.081 190.189Z" fill="white"/>
<path d="M256.702 97.5303C256.597 97.5303 256.496 97.5337 256.391 97.5337C240.942 97.6993 228.553 110.361 228.722 125.811C228.891 141.155 241.381 153.48 256.688 153.48C256.793 153.48 256.898 153.48 256.999 153.48C272.448 153.311 284.837 140.649 284.668 125.199C284.502 109.855 272.009 97.5303 256.702 97.5303ZM256.702 107.909C266.296 107.909 274.185 115.716 274.289 125.314C274.34 130.013 272.56 134.453 269.273 137.811C265.985 141.172 261.587 143.051 256.887 143.101H256.688C247.094 143.101 239.205 135.294 239.1 125.696C239.05 120.997 240.83 116.561 244.117 113.199C247.404 109.841 251.803 107.963 256.502 107.912L256.702 107.909Z" fill="white"/>
<path d="M193.74 182.013C193.635 182.013 193.53 182.013 193.429 182.017C177.98 182.182 165.591 194.844 165.76 210.294C165.926 225.638 178.419 237.963 193.726 237.963C193.831 237.963 193.932 237.963 194.037 237.959C209.486 237.79 221.875 225.131 221.706 209.682C221.537 194.338 209.047 182.013 193.74 182.013ZM193.74 192.392C203.334 192.392 211.223 200.199 211.328 209.797C211.378 214.496 209.598 218.935 206.311 222.294C203.024 225.655 198.625 227.53 193.926 227.584H193.726C184.132 227.584 176.243 219.777 176.138 210.179C176.088 205.479 177.868 201.04 181.155 197.682C184.442 194.321 188.841 192.442 193.54 192.392H193.74Z" fill="white"/>
<path d="M210.506 235.101C205.05 235.101 199.651 234.541 194.367 233.429C207.121 233.088 217.32 222.537 217.181 209.733C217.09 201.453 212.573 193.973 205.742 189.861L205.766 189.831C207.337 190.057 208.928 190.172 210.516 190.172L210.884 190.169C219.8 190.071 228.144 186.507 234.384 180.132C240.621 173.757 244.002 165.338 243.904 156.419C243.857 152.165 242.989 147.939 241.371 144.017L241.725 143.557C245.877 147.01 251.137 148.956 256.691 148.956H256.952C269.881 148.814 280.286 138.179 280.144 125.25C280.121 123.243 279.844 121.28 279.337 119.402C285.431 130.578 288.688 143.054 288.83 155.932C289.056 176.848 281.127 196.601 266.496 211.554C251.867 226.507 232.289 234.868 211.371 235.094C211.083 235.098 210.793 235.101 210.506 235.101Z" fill="white"/>
<path d="M267.919 101.395L262.611 108.226C269.719 110.662 274.868 117.365 274.956 125.307C275.067 135.392 266.98 143.655 256.895 143.767C256.828 143.767 256.76 143.767 256.692 143.767C250.311 143.767 244.682 140.483 241.415 135.5L235.314 143.355C237.432 147.26 238.665 151.723 238.716 156.476C238.885 172.047 226.398 184.811 210.827 184.98C210.723 184.98 210.618 184.983 210.517 184.983C208.138 184.983 205.831 184.686 203.625 184.128L197.429 192.105C205.662 193.801 211.898 201.04 211.993 209.79C212.101 219.875 204.017 228.138 193.932 228.25C193.865 228.25 193.797 228.25 193.73 228.25C186.527 228.25 180.284 224.071 177.314 217.986L173.148 223.348C174.662 225.527 176.138 227.679 178.067 229.584C180.145 231.635 182.507 233.392 183.871 235.939C192.24 238.757 201.196 240.29 210.503 240.29C210.811 240.29 211.118 240.287 211.429 240.284C257.544 239.784 294.523 201.99 294.02 155.875C293.831 138.493 288.327 122.425 279.094 109.159C277.939 108.344 276.885 107.395 275.892 106.392C275.382 105.875 274.878 105.351 274.368 104.834C273.986 104.757 273.608 104.642 273.26 104.469C271.442 103.567 269.733 102.473 267.99 101.446C267.963 101.429 267.946 101.412 267.919 101.395ZM281.621 139.638C282.898 144.952 283.581 150.429 283.642 155.986C284.071 195.28 253.27 227.77 214.385 229.811C219.402 224.584 222.456 217.473 222.371 209.675C222.311 204.219 220.679 199.05 217.875 194.655C235.807 191.182 249.3 175.263 249.094 156.365C249.081 155.263 249.023 154.169 248.915 153.074C251.412 153.777 254.023 154.145 256.692 154.145L257.007 154.142C264.659 154.061 271.817 151.003 277.165 145.533C278.922 143.743 280.412 141.76 281.621 139.638Z" fill="white"/>
</svg>
