<svg width="388" height="420" viewBox="0 0 388 420" fill="none" xmlns="http://www.w3.org/2000/svg">
<path d="M253.293 204.152L188.668 216.922L247.435 194.969L294.198 164.493L253.293 204.152ZM288.009 201.534L274.117 217.723L275.161 196L288.584 177.983L288.009 201.534ZM196.158 234.878L175.033 244.77L156.597 249.378L167.83 242.176L188.188 223.26L197.888 223.067L196.158 234.878ZM99.1747 225.179L69.7896 203.672L96.1984 214.618L122.796 215L161.492 222.875L99.1747 225.179ZM225.736 195.966L180.796 209.338L157.077 193.973L225.736 195.966ZM302.361 165.358L325.296 141.128C325.857 140.534 326.154 139.736 326.117 138.919L325.675 129.382C325.648 128.719 324.857 128.392 324.364 128.838L292.181 158.057C276.013 156.561 260.729 150.01 248.492 139.334L243.979 135.398L246.056 137.898C251.195 144.084 254.823 151.382 256.654 159.213L248.546 158.878C243.111 158.655 237.719 159.942 232.969 162.594C225.871 166.554 217.617 167.919 209.621 166.463L200.384 164.78C205.854 173.375 215.209 178.719 225.388 179.067L228.806 179.186C195.303 192.074 158.07 191.267 125.158 176.932L121.067 175.152C125.854 188.098 135.702 198.54 148.344 204.081L150.259 204.919C118.935 209.503 86.9653 204.017 58.9653 189.246L58.4585 188.98C71.2153 227.216 109.607 250.757 149.472 244.78L152.756 244.29C146.415 248.341 142.577 255.348 142.577 262.875V263.301L150.502 259.338C161.124 254.027 172.668 250.817 184.502 249.878C216.344 247.355 246.229 233.52 268.752 210.871C269.631 217.459 268.631 224.162 265.871 230.206L264.526 233.152L268.969 229.618C277.864 222.54 285.627 214.145 291.992 204.726L292.002 204.757C294.215 210.858 299.323 215.459 305.627 217.017L304.181 213.939C297.006 198.665 296.347 181.128 302.361 165.358Z" fill="white"/>
<path d="M319.982 179.568L316.621 163.628L320.654 161.226L319.982 179.568ZM312.779 161.71L314.941 180.287L321.421 203.669L324.877 177.983L326.121 152.635L312.779 161.71Z" fill="white"/>
<path d="M282.989 263.781L276.289 242.416L284.502 234.973L282.989 263.781ZM264.816 268.392L256.509 251.73L265.104 248.419L264.816 268.392ZM291.462 217.723L270.722 238.912L249.979 250.145L267.022 285.77L271.539 267.96L272.401 248.419L277.394 269.929L288.58 295.375L291.894 263.301L291.462 217.723Z" fill="white"/>
<path d="M151.412 267.433L164.662 263.781L163.895 278.858L160.631 290.764L154.868 279.338L151.412 267.433Z" fill="white"/>
<path d="M223.262 271.321L217.62 265.342L215.049 256.7L223.549 254.899L223.262 271.321ZM205.81 295.71L196.256 267.095L188.286 275.497L187.181 263.301L206.384 259.845L205.81 295.71ZM204.897 254.757L181.85 260.061L183.002 277.706L189.918 297.392L193.735 276.075L199.279 295.23L208.641 315.683L212.891 294.007L214.404 267.575L219.587 280.791L225.924 292.061L229.022 270.382L230.343 247.075L204.897 254.757Z" fill="white"/>
<path d="M117.418 269.351L117.131 253.601L129.901 258.118L126.35 270.503L119.722 285.675L117.418 269.351Z" fill="white"/>
<path d="M100.614 264.838L97.5426 259.077L96.8703 250.436L103.975 253.314L100.614 264.838ZM88.225 274.344L84.8669 264.311L81.9852 243.473L90.6744 247.746L88.225 274.344ZM71.6136 256.844L67.5798 230.844L74.7825 236.608L71.6136 256.844ZM84.769 237.567L62.0122 218.939L64.796 247.648L71.6136 279.05L76.7994 264.311L79.7757 249.378L80.8332 278.091L87.7453 311.219L93.6034 283.081L95.1406 265.605L99.6541 274.344L101.573 284.331L106.377 271.679L110.313 249.378L84.769 237.567Z" fill="white"/>
</svg>
