<svg width="388" height="420" viewBox="0 0 388 420" fill="none" xmlns="http://www.w3.org/2000/svg">
<path d="M196.315 258.862C203.048 258.862 209.301 261.811 213.625 266.487V224.703H178.166V267.49C182.49 262.24 189.115 258.862 196.315 258.862Z" fill="white"/>
<path d="M301.193 207.277C304.166 202.875 305.903 197.534 305.903 191.821C305.903 176.585 293.551 164.216 278.315 164.216C276.842 164.216 275.399 164.325 273.987 164.544C268.24 154.396 257.345 147.537 244.845 147.537C243.886 147.537 242.933 147.578 241.99 147.659C237.751 126.271 218.886 110.146 196.254 110.146C174.45 110.146 156.146 125.108 151.041 145.325C150.572 145.308 150.099 145.294 149.622 145.294C136.284 145.294 124.767 153.098 119.389 164.389C118.328 164.264 117.251 164.2 116.153 164.2C100.919 164.2 88.5681 176.547 88.5681 191.784C88.5681 196.787 89.8992 201.551 92.2269 205.598C76.0377 212.71 70.9229 219.514 70.9229 219.514H316.544C316.544 219.514 313.291 213.733 301.193 207.277Z" fill="white"/>
<path d="M233.308 294.027C234.153 292.281 234.625 290.26 234.625 288.189C234.625 280.841 228.669 274.855 221.321 274.855C220.186 274.855 219.088 274.983 218.041 275.25C216.136 275.733 214.399 276.618 212.923 277.821C211.213 270.189 204.392 264.466 196.254 264.466C188.994 264.466 182.781 269.02 180.311 275.422C179.065 275.037 177.74 274.828 176.369 274.828C175.75 274.828 175.146 274.872 174.548 274.953C168.065 275.841 163.065 281.399 163.065 288.128C163.065 289.679 163.332 291.287 163.821 292.669C150.311 296.385 146.541 301.676 146.541 301.676H244.845C244.845 301.676 242.642 297.53 233.308 294.027Z" fill="white"/>
</svg>
