<svg width="388" height="420" viewBox="0 0 388 420" fill="none" xmlns="http://www.w3.org/2000/svg">
<path d="M252.908 215.554C250.939 216.652 248.881 217.706 246.726 218.706C273.483 224.807 289.516 235.155 289.516 245.057C289.516 260.381 251.175 276.78 194.064 276.844H161.729V272.351H137.523V267.814H122.52V262.895H111.932V257.601H103.989V251.297H97.9454V238.942H103.736V232.513H111.678V227.219H122.52V222.175H137.523V217.807H160.466V213.27H170.175V218.017H157.064V223.311H150.425V241.716H157.317V246.925H170.763V251.665H194.76V251.655C218.814 251.422 237.51 243.081 237.51 232.469C237.51 229.388 235.928 226.503 233.108 223.949C231.385 224.493 229.611 225.003 227.793 225.493C231.124 227.689 232.972 230.125 232.972 232.469C232.972 239.402 216.858 247.128 193.733 247.128H175.3V242.388H161.854V237.179H154.962V227.848H161.601V222.554H174.712V217.807H188.378C188.324 216.439 188.287 214.969 188.276 213.422C188.276 213.388 188.276 213.361 188.276 213.327C188.276 213.307 188.273 213.29 188.273 213.27C188.266 211.844 188.28 210.341 188.32 208.784C188.32 208.767 188.32 208.75 188.32 208.729H155.928V213.27H132.986V217.635H117.982V222.679H107.141V227.976H99.1987V234.405H93.4082V255.834H99.4487V262.138H107.391V267.432H117.983V272.351H132.986V276.888H157.189V281.382H193.398C193.51 281.382 193.621 281.385 193.733 281.385C193.844 281.385 193.955 281.382 194.067 281.382H194.76V281.378C250.52 281.182 294.057 265.304 294.057 245.057C294.057 232.767 277.996 222.094 252.908 215.554Z" fill="white"/>
<path d="M191.287 213.307C191.3 214.905 191.338 216.405 191.395 217.807C191.594 222.594 191.996 226.186 192.24 228C204.202 227.223 214.736 225.648 224.02 223.412C226.165 222.892 228.246 222.338 230.26 221.753C234.425 220.537 238.324 219.175 241.952 217.679C244.348 216.692 246.631 215.642 248.807 214.54C282.128 197.662 290.226 167.919 292.402 138.628L264.476 145.902L268.017 118.608C241.79 122.503 221.905 133.459 208.878 151.199C195.162 169.888 191.736 192.615 191.327 208.73C191.327 208.74 191.327 208.746 191.327 208.753C191.287 210.324 191.277 211.834 191.287 213.27C191.287 213.28 191.287 213.287 191.287 213.294L191.287 213.307Z" fill="white"/>
</svg>
