<svg width="388" height="420" viewBox="0 0 388 420" fill="none" xmlns="http://www.w3.org/2000/svg">
<path d="M274.202 210C274.202 254.443 238.175 290.47 193.732 290.47C149.29 290.47 113.263 254.443 113.263 210C113.263 165.558 149.29 129.531 193.732 129.531C238.175 129.531 274.202 165.558 274.202 210Z" stroke="white" stroke-width="17.2973" stroke-miterlimit="10" stroke-linecap="round"/>
<path d="M193.732 102.037V129.53" stroke="white" stroke-width="17.2973" stroke-miterlimit="10" stroke-linecap="round"/>
<path d="M193.732 290.469V317.959" stroke="white" stroke-width="17.2973" stroke-miterlimit="10" stroke-linecap="round"/>
<path d="M170.178 160.527H150.78V260.287H177.107V231.882H170.178V160.527Z" fill="white"/>
<path d="M199.969 160.527H187.496V231.882H180.57V260.287H206.895V231.882H199.969V160.527Z" fill="white"/>
<path d="M236.682 260.287V160.527H217.287V231.882H210.361V260.287H236.682Z" fill="white"/>
<path d="M301.695 210H274.202" stroke="white" stroke-width="17.2973" stroke-miterlimit="10" stroke-linecap="round"/>
<path d="M113.263 210H85.7729" stroke="white" stroke-width="17.2973" stroke-miterlimit="10" stroke-linecap="round"/>
</svg>
