<svg width="388" height="420" viewBox="0 0 388 420" fill="none" xmlns="http://www.w3.org/2000/svg">
<path d="M320.179 248.919H236.875C227.621 233.351 210.885 223.524 191.817 223.524C172.746 223.524 156.01 233.351 146.756 248.919H71.9253C68.2429 248.919 65.2598 252.155 65.2598 255.838C65.2598 259.52 68.2429 262.757 71.9253 262.757H320.179C323.861 262.757 326.848 259.52 326.848 255.838C326.848 252.155 323.861 248.919 320.179 248.919Z" fill="white"/>
<path d="M148.284 211.206L112.686 158.629C106.878 162.561 101.317 166.967 96.1519 171.727L139.169 218.429C142.017 215.804 145.084 213.372 148.284 211.206Z" fill="white"/>
<path d="M180.496 198.73L171.347 135.896C164.385 136.909 157.452 138.456 150.743 140.49L169.155 201.257C172.844 200.139 176.658 199.287 180.496 198.73Z" fill="white"/>
<path d="M124.601 236.524L69.7801 204.49C66.2328 210.564 63.1146 216.949 60.5166 223.473L119.503 246.966C120.932 243.382 122.648 239.868 124.601 236.524Z" fill="white"/>
<path d="M233.996 140.824C227.277 138.72 220.344 137.112 213.385 136.044L203.736 198.801C207.551 199.385 211.351 200.267 215.034 201.422L233.996 140.824Z" fill="white"/>
<path d="M264.344 247.51L323.54 224.544C320.996 217.99 317.932 211.571 314.432 205.467L259.351 237.051C261.27 240.399 262.952 243.919 264.344 247.51Z" fill="white"/>
<path d="M288.294 172.483C283.165 167.693 277.638 163.247 271.861 159.271L235.861 211.575C239.054 213.771 242.108 216.227 244.939 218.875L288.294 172.483Z" fill="white"/>
</svg>
