<svg width="388" height="420" viewBox="0 0 388 420" fill="none" xmlns="http://www.w3.org/2000/svg">
<path d="M97.7211 229.283C100.251 239.679 118.591 246.87 144.795 249.262C143.348 251.892 142.062 254.661 141.034 257.529C133.538 256.801 126.543 255.711 120.203 254.269C109.674 251.873 101.156 248.563 95.1371 244.528C89.1185 240.494 85.7164 235.814 85.1254 230.755L97.7211 229.283ZM302.922 205.312C303.513 210.37 301.281 215.709 296.355 221.021C291.428 226.334 283.903 231.518 274.208 236.276C268.295 239.179 261.644 241.886 254.41 244.348C252.865 241.726 251.127 239.315 249.262 237.092C274.299 228.719 290.557 217.47 290.623 206.748L302.922 205.312Z" fill="white"/>
<path fill-rule="evenodd" clip-rule="evenodd" d="M181.223 108.478C195.524 106.807 210.016 107.986 223.871 111.949C237.726 115.911 250.674 122.579 261.974 131.571C273.275 140.563 282.708 151.702 289.733 164.355C296.759 177.007 301.24 190.925 302.921 205.312L290.621 206.748C290.623 206.317 290.603 205.886 290.552 205.456C288.524 188.099 243.661 179.077 190.349 185.305C137.037 191.533 95.4621 210.654 97.4899 228.011C97.5401 228.441 97.6172 228.865 97.7194 229.285L85.1237 230.756C83.4429 216.369 84.5954 201.793 88.5153 187.862C92.4351 173.931 99.0449 160.916 107.968 149.562C116.892 138.207 127.955 128.735 140.524 121.686C153.093 114.637 166.923 110.149 181.223 108.478Z" fill="white"/>
<path fill-rule="evenodd" clip-rule="evenodd" d="M231.516 219.182C235.424 218.908 239.341 219.937 242.431 222.347C253.355 230.87 264.635 243.591 266.924 263.356C268.479 276.783 264.037 288.471 253.688 296.968C243.665 305.198 228.618 310.031 209.491 311.571C191.25 313.041 175.168 314.125 162.525 310.945C156.007 309.305 150.152 306.488 145.266 301.874C140.39 297.27 136.813 291.193 134.341 283.554C130.077 270.374 133.617 257.475 139.057 247.247C142.068 241.586 145.777 236.508 149.435 232.314C151.709 229.706 154.896 228.112 158.313 227.571C160.899 227.162 163.431 226.77 165.918 226.394C166.849 226.253 167.786 226.61 168.39 227.334C169.343 228.479 169.189 230.18 168.044 231.133L165.503 233.25C160.906 237.08 154.258 244.238 149.658 252.886C145.052 261.547 142.88 270.942 145.765 279.858C147.761 286.028 150.407 290.215 153.509 293.144C156.601 296.063 160.483 298.049 165.455 299.3C175.793 301.901 189.721 301.118 208.528 299.603C226.45 298.159 238.712 293.728 246.069 287.688C253.099 281.915 256.107 274.323 254.996 264.737C252.665 244.613 238.519 233.45 226.224 225.689L222.915 223.599C221.939 222.983 221.647 221.692 222.262 220.716C222.614 220.158 223.209 219.799 223.866 219.747C226.37 219.553 228.916 219.365 231.516 219.182Z" fill="white"/>
<path d="M232.029 240.782C228.129 241.33 225.404 244.945 225.952 248.845C226.499 252.745 230.114 255.47 234.014 254.922C237.915 254.375 240.639 250.76 240.092 246.86C239.544 242.959 235.93 240.235 232.029 240.782Z" fill="white"/>
<path d="M173.955 248.936C170.055 249.483 167.33 253.098 167.877 256.998C168.425 260.899 172.04 263.623 175.94 263.076C179.84 262.528 182.565 258.913 182.017 255.013C181.47 251.113 177.855 248.388 173.955 248.936Z" fill="white"/>
<path d="M215.088 261.849C208.868 268.498 203.294 269.293 195.848 264.599C194.379 263.67 192.505 264.179 191.659 265.727C190.814 267.274 191.32 269.281 192.794 270.208C197.718 273.311 202.363 274.556 206.802 273.933C211.242 273.31 215.422 270.838 219.481 266.504C220.664 265.239 220.644 263.171 219.434 261.888C218.225 260.604 216.283 260.589 215.1 261.854L215.088 261.849Z" fill="white"/>
</svg>
