<svg width="388" height="420" viewBox="0 0 388 420" fill="none" xmlns="http://www.w3.org/2000/svg">
<path d="M187.22 179.936C183.747 179.936 180.706 177.385 180.196 173.845C179.635 169.959 182.331 166.358 186.216 165.797C187.318 165.638 188.443 165.517 189.557 165.436C193.473 165.145 196.875 168.095 197.159 172.01C197.443 175.922 194.5 179.324 190.584 179.608C189.804 179.665 189.014 179.75 188.243 179.861C187.899 179.912 187.557 179.936 187.22 179.936ZM212.139 184.382C210.99 184.382 209.828 184.105 208.747 183.517C208.057 183.142 207.348 182.787 206.639 182.463C203.068 180.838 201.49 176.625 203.115 173.054C204.743 169.48 208.956 167.905 212.527 169.53C213.544 169.993 214.557 170.5 215.541 171.034C218.986 172.912 220.26 177.226 218.385 180.672C217.095 183.04 214.655 184.382 212.139 184.382ZM166.716 189.351C164.733 189.351 162.757 188.524 161.351 186.909C158.777 183.946 159.091 179.459 162.051 176.882C162.892 176.152 163.77 175.439 164.662 174.767C167.797 172.409 172.253 173.037 174.611 176.172C176.973 179.307 176.345 183.763 173.209 186.122C172.584 186.595 171.966 187.091 171.378 187.605C170.03 188.777 168.372 189.351 166.716 189.351ZM228.145 200.314C225.639 200.314 223.206 198.983 221.912 196.632C221.537 195.949 221.132 195.27 220.709 194.615C218.574 191.317 219.52 186.919 222.814 184.787C226.108 182.655 230.507 183.598 232.639 186.895C233.247 187.834 233.828 188.807 234.365 189.784C236.257 193.223 235 197.544 231.564 199.432C230.476 200.03 229.304 200.314 228.145 200.314ZM154.53 208.355C153.872 208.355 153.203 208.263 152.537 208.071C148.77 206.973 146.608 203.027 147.706 199.26C148.02 198.186 148.375 197.108 148.767 196.061C150.132 192.382 154.223 190.507 157.899 191.875C161.578 193.24 163.453 197.328 162.088 201.007C161.814 201.74 161.568 202.49 161.348 203.24C160.443 206.341 157.608 208.355 154.53 208.355ZM232.983 222.453C232.814 222.453 232.645 222.446 232.476 222.436C228.564 222.159 225.611 218.763 225.889 214.848C225.943 214.068 225.97 213.274 225.97 212.49V212.395C225.97 208.473 229.152 205.29 233.074 205.29C237 205.29 240.179 208.473 240.179 212.395V212.429C240.179 212.443 240.182 212.48 240.182 212.49C240.182 213.605 240.142 214.733 240.064 215.845C239.801 219.591 236.679 222.453 232.983 222.453ZM154.554 230.932C151.483 230.932 148.652 228.926 147.74 225.831C147.422 224.757 147.142 223.659 146.902 222.564C146.071 218.73 148.503 214.946 152.338 214.111C156.172 213.274 159.956 215.706 160.791 219.544C160.956 220.304 161.152 221.071 161.372 221.818C162.48 225.581 160.328 229.53 156.564 230.642C155.892 230.838 155.216 230.932 154.554 230.932ZM225.084 243.605C223.601 243.605 222.105 243.142 220.828 242.182C217.689 239.831 217.051 235.375 219.405 232.236C219.872 231.611 220.324 230.959 220.75 230.304C222.872 227.003 227.27 226.051 230.568 228.176C233.868 230.297 234.821 234.696 232.696 237.997C232.091 238.936 231.446 239.865 230.774 240.76C229.378 242.622 227.247 243.605 225.084 243.605ZM166.784 249.905C165.139 249.905 163.483 249.334 162.139 248.172C161.294 247.443 160.463 246.669 159.672 245.878C156.895 243.108 156.892 238.608 159.665 235.831C162.439 233.054 166.936 233.051 169.713 235.824C170.267 236.375 170.848 236.915 171.436 237.425C174.405 239.993 174.73 244.483 172.162 247.449C170.757 249.071 168.777 249.905 166.784 249.905ZM207.03 257.145C204.152 257.145 201.442 255.382 200.375 252.527C199 248.851 200.865 244.757 204.54 243.382C205.27 243.111 206 242.807 206.709 242.483C210.277 240.848 214.493 242.419 216.128 245.986C217.763 249.554 216.192 253.77 212.625 255.405C211.608 255.871 210.564 256.304 209.517 256.696C208.696 257 207.858 257.145 207.03 257.145ZM187.334 259.27C187.003 259.27 186.669 259.246 186.331 259.199C185.223 259.04 184.105 258.841 183.013 258.608C179.176 257.78 176.74 253.996 177.567 250.162C178.395 246.324 182.176 243.888 186.013 244.716C186.773 244.882 187.551 245.02 188.324 245.128C192.209 245.679 194.912 249.277 194.361 253.162C193.861 256.709 190.817 259.27 187.334 259.27Z" fill="white"/>
<path d="M115.527 221.017H82.6486C77.9391 221.017 74.1216 217.199 74.1216 212.49C74.1216 207.78 77.9391 203.963 82.6486 203.963H115.527C120.236 203.963 124.054 207.78 124.054 212.49C124.054 217.199 120.236 221.017 115.527 221.017Z" fill="white"/>
<path d="M305.662 221.017H272.784C268.074 221.017 264.257 217.199 264.257 212.49C264.257 207.78 268.074 203.963 272.784 203.963H305.662C310.372 203.963 314.189 207.78 314.189 212.49C314.189 217.199 310.372 221.017 305.662 221.017Z" fill="white"/>
<path d="M194.155 142.388C189.446 142.388 185.628 138.571 185.628 133.861V100.983C185.628 96.2736 189.446 92.4561 194.155 92.4561C198.865 92.4561 202.682 96.2736 202.682 100.983V133.861C202.682 138.571 198.865 142.388 194.155 142.388Z" fill="white"/>
<path d="M194.155 332.524C189.446 332.524 185.628 328.706 185.628 323.997V291.118C185.628 286.409 189.446 282.591 194.155 282.591C198.865 282.591 202.682 286.409 202.682 291.118V323.997C202.682 328.706 198.865 332.524 194.155 332.524Z" fill="white"/>
<path d="M138.558 165.419C136.375 165.419 134.193 164.585 132.531 162.919L109.281 139.672C105.949 136.341 105.949 130.943 109.281 127.615C112.608 124.284 118.01 124.284 121.338 127.615L144.588 150.862C147.916 154.193 147.916 159.591 144.588 162.919C142.922 164.585 140.74 165.419 138.558 165.419Z" fill="white"/>
<path d="M273.003 299.862C270.821 299.862 268.639 299.031 266.973 297.365L243.726 274.119C240.395 270.788 240.395 265.389 243.726 262.058C247.054 258.73 252.453 258.73 255.784 262.058L279.03 285.308C282.361 288.639 282.361 294.038 279.03 297.365C277.368 299.031 275.186 299.862 273.003 299.862Z" fill="white"/>
<path d="M249.753 165.419C247.571 165.419 245.389 164.585 243.726 162.919C240.395 159.591 240.395 154.193 243.726 150.862L266.973 127.615C270.304 124.284 275.703 124.284 279.03 127.615C282.361 130.943 282.361 136.341 279.03 139.672L255.784 162.919C254.118 164.585 251.936 165.419 249.753 165.419Z" fill="white"/>
<path d="M115.311 299.862C113.129 299.862 110.946 299.031 109.281 297.365C105.949 294.038 105.949 288.639 109.281 285.308L132.527 262.058C135.858 258.73 141.257 258.73 144.588 262.058C147.916 265.389 147.916 270.788 144.588 274.119L121.338 297.365C119.672 299.031 117.49 299.862 115.311 299.862Z" fill="white"/>
</svg>
