<svg width="388" height="420" viewBox="0 0 388 420" fill="none" xmlns="http://www.w3.org/2000/svg">
<g clip-path="url(#clip0_2011_36895)">
<mask id="mask0_2011_36895" style="mask-type:luminance" maskUnits="userSpaceOnUse" x="-34" y="-17" width="455" height="454">
<path d="M-33.057 -16.8521H420.647V436.852H-33.057V-16.8521Z" fill="white"/>
</mask>
<g mask="url(#mask0_2011_36895)">
<path d="M103.015 132.622C93.6639 119.857 103.093 99.2154 118.879 97.971C115.949 100.195 113.413 102.432 111.277 104.942C104.572 112.635 102.156 122.449 103.015 132.622Z" fill="white"/>
</g>
<mask id="mask1_2011_36895" style="mask-type:luminance" maskUnits="userSpaceOnUse" x="-34" y="-17" width="455" height="454">
<path d="M-33.057 -16.8521H420.647V436.852H-33.057V-16.8521Z" fill="white"/>
</mask>
<g mask="url(#mask1_2011_36895)">
<path d="M114.026 132.622C107.555 123.583 114.204 109.028 125.283 108.034C123.189 109.568 121.367 111.14 119.831 112.917C115.022 118.352 113.294 125.406 114.026 132.622Z" fill="white"/>
</g>
<mask id="mask2_2011_36895" style="mask-type:luminance" maskUnits="userSpaceOnUse" x="-34" y="-17" width="455" height="454">
<path d="M-33.057 -16.8521H420.647V436.852H-33.057V-16.8521Z" fill="white"/>
</mask>
<g mask="url(#mask2_2011_36895)">
<path d="M283.418 130.97C282.737 120.786 278.87 111.443 271.084 104.848C268.594 102.688 265.751 100.859 262.521 99.101C278.315 97.9559 290.74 116.946 283.418 130.97Z" fill="white"/>
</g>
<mask id="mask3_2011_36895" style="mask-type:luminance" maskUnits="userSpaceOnUse" x="-34" y="-17" width="455" height="454">
<path d="M-33.057 -16.8521H420.647V436.852H-33.057V-16.8521Z" fill="white"/>
</mask>
<g mask="url(#mask3_2011_36895)">
<path d="M272.531 132.627C272.17 125.384 269.4 118.668 263.827 114.02C262.043 112.494 260.005 111.214 257.703 110.012C268.807 109.329 277.569 122.719 272.531 132.627Z" fill="white"/>
</g>
<mask id="mask4_2011_36895" style="mask-type:luminance" maskUnits="userSpaceOnUse" x="-34" y="-17" width="455" height="454">
<path d="M-33.057 -16.8521H420.647V436.852H-33.057V-16.8521Z" fill="white"/>
</mask>
<g mask="url(#mask4_2011_36895)">
<path d="M164.434 143.552C164.6 142.353 165.114 139.839 167.01 137.299C168.85 134.832 171.06 133.593 172.168 133.061C171.036 132.125 169.644 130.739 168.453 128.796C165.866 124.574 165.838 120.339 165.952 118.43C165.835 120.339 165.297 124.552 162.214 128.544C160.795 130.382 159.242 131.649 158.003 132.489C159.042 133.107 161.091 134.519 162.626 137.122C164.205 139.802 164.414 142.346 164.434 143.552Z" fill="white"/>
</g>
<mask id="mask5_2011_36895" style="mask-type:luminance" maskUnits="userSpaceOnUse" x="-34" y="-17" width="455" height="454">
<path d="M-33.057 -16.8521H420.647V436.852H-33.057V-16.8521Z" fill="white"/>
</mask>
<g mask="url(#mask5_2011_36895)">
<path d="M104 149.903C105.147 151.348 107.771 154.249 112.228 156.113C116.557 157.923 120.418 157.837 122.284 157.676C121.525 159.782 120.772 162.681 120.716 166.153C120.594 173.7 123.841 179.281 125.47 181.697C123.838 179.284 119.864 174.172 112.723 171.322C109.436 170.01 106.416 169.552 104.138 169.41C105.021 167.792 106.616 164.351 106.612 159.745C106.608 155.001 104.909 151.502 104 149.903Z" fill="white"/>
</g>
<mask id="mask6_2011_36895" style="mask-type:luminance" maskUnits="userSpaceOnUse" x="-34" y="-17" width="455" height="454">
<path d="M-33.057 -16.8521H420.647V436.852H-33.057V-16.8521Z" fill="white"/>
</mask>
<g mask="url(#mask6_2011_36895)">
<path d="M169.115 239.11L150.153 242.948C149.654 243.049 149.163 242.724 149.062 242.224C148.961 241.725 149.286 241.234 149.786 241.133L168.748 237.296C169.247 237.195 169.738 237.52 169.84 238.019C169.941 238.519 169.615 239.009 169.115 239.11ZM179.034 276.193L148.834 126.98C148.147 123.585 144.808 121.37 141.413 122.057L130.159 124.335C126.764 125.022 124.549 128.361 125.236 131.756L155.435 280.97C156.122 284.364 159.461 286.579 162.856 285.892L174.11 283.614C177.505 282.927 179.721 279.588 179.034 276.193Z" fill="white"/>
</g>
<mask id="mask7_2011_36895" style="mask-type:luminance" maskUnits="userSpaceOnUse" x="-34" y="-17" width="455" height="454">
<path d="M-33.057 -16.8521H420.647V436.852H-33.057V-16.8521Z" fill="white"/>
</mask>
<g mask="url(#mask7_2011_36895)">
<path d="M266.257 170.749C266.78 169.478 268.062 166.859 270.871 164.605C273.597 162.417 276.381 161.683 277.751 161.414C276.773 160.062 275.636 158.141 274.881 155.665C273.238 150.285 274.414 145.619 275.083 143.552C274.41 145.618 272.618 150.098 268.09 153.611C266.006 155.227 263.937 156.178 262.336 156.749C263.301 157.725 265.153 159.862 266.099 163.162C267.073 166.56 266.577 169.417 266.257 170.749Z" fill="white"/>
</g>
<mask id="mask8_2011_36895" style="mask-type:luminance" maskUnits="userSpaceOnUse" x="-34" y="-17" width="455" height="454">
<path d="M-33.057 -16.8521H420.647V436.852H-33.057V-16.8521Z" fill="white"/>
</mask>
<g mask="url(#mask8_2011_36895)">
<path d="M216.891 159.788C216.736 160.832 216.264 163.022 214.587 165.221C212.958 167.357 211.017 168.418 210.046 168.872C211.025 169.699 212.228 170.921 213.249 172.628C215.468 176.336 215.453 180.033 215.337 181.697C215.456 180.033 215.964 176.361 218.691 172.906C219.946 171.315 221.313 170.224 222.402 169.501C221.502 168.952 219.726 167.701 218.411 165.416C217.056 163.062 216.898 160.84 216.891 159.788Z" fill="white"/>
</g>
<mask id="mask9_2011_36895" style="mask-type:luminance" maskUnits="userSpaceOnUse" x="-34" y="-17" width="455" height="454">
<path d="M-33.057 -16.8521H420.647V436.852H-33.057V-16.8521Z" fill="white"/>
</mask>
<g mask="url(#mask9_2011_36895)">
<path d="M235.39 243.102L216.479 239.016C215.981 238.909 215.663 238.413 215.77 237.915C215.878 237.417 216.373 237.098 216.871 237.205L235.781 241.291C236.279 241.399 236.598 241.894 236.491 242.392C236.383 242.89 235.887 243.209 235.39 243.102ZM229.61 281.05L261.761 132.245C262.493 128.86 260.322 125.492 256.937 124.76L245.712 122.335C242.327 121.604 238.96 123.775 238.228 127.16L206.076 275.965C205.345 279.35 207.516 282.719 210.901 283.45L222.125 285.875C225.51 286.607 228.879 284.435 229.61 281.05Z" fill="white"/>
</g>
<mask id="mask10_2011_36895" style="mask-type:luminance" maskUnits="userSpaceOnUse" x="-34" y="-17" width="455" height="454">
<path d="M-33.057 -16.8521H420.647V436.852H-33.057V-16.8521Z" fill="white"/>
</mask>
<g mask="url(#mask10_2011_36895)">
<path d="M53.6276 246.667C47.4521 242.053 48.9039 231.091 56.0811 228.262C55.0328 229.715 54.1703 231.119 53.5325 232.592C51.5043 237.133 51.7782 242.05 53.6276 246.667Z" fill="white"/>
</g>
<mask id="mask11_2011_36895" style="mask-type:luminance" maskUnits="userSpaceOnUse" x="-34" y="-17" width="455" height="454">
<path d="M-33.057 -16.8521H420.647V436.852H-33.057V-16.8521Z" fill="white"/>
</mask>
<g mask="url(#mask11_2011_36895)">
<path d="M58.7576 245.098C54.4539 241.809 55.478 234.08 60.499 232.038C59.7411 233.051 59.1163 234.044 58.6539 235.09C57.1874 238.308 57.3879 241.84 58.7576 245.098Z" fill="white"/>
</g>
<mask id="mask12_2011_36895" style="mask-type:luminance" maskUnits="userSpaceOnUse" x="-34" y="-17" width="455" height="454">
<path d="M-33.057 -16.8521H420.647V436.852H-33.057V-16.8521Z" fill="white"/>
</mask>
<g mask="url(#mask12_2011_36895)">
<path d="M137.449 220.188C135.68 215.54 132.547 211.738 127.979 209.774C126.512 209.123 124.926 208.675 123.17 208.317C130.367 205.533 138.862 212.61 137.449 220.188Z" fill="white"/>
</g>
<mask id="mask13_2011_36895" style="mask-type:luminance" maskUnits="userSpaceOnUse" x="-34" y="-17" width="455" height="454">
<path d="M-33.057 -16.8521H420.647V436.852H-33.057V-16.8521Z" fill="white"/>
</mask>
<g mask="url(#mask13_2011_36895)">
<path d="M132.613 222.511C131.413 219.189 129.164 216.454 125.906 215.082C124.857 214.626 123.725 214.32 122.48 214.088C127.557 212.187 133.548 217.177 132.613 222.511Z" fill="white"/>
</g>
<mask id="mask14_2011_36895" style="mask-type:luminance" maskUnits="userSpaceOnUse" x="-34" y="-17" width="455" height="454">
<path d="M-33.057 -16.8521H420.647V436.852H-33.057V-16.8521Z" fill="white"/>
</mask>
<g mask="url(#mask14_2011_36895)">
<path d="M83.8023 243.007C83.709 242.426 83.5897 241.18 84.1109 239.727C84.6173 238.315 85.4702 237.423 85.9101 237.017C85.2499 236.742 84.4038 236.295 83.5716 235.56C81.7646 233.961 81.1484 231.991 80.9289 231.086C81.1467 231.991 81.4967 234.031 80.629 236.331C80.2297 237.389 79.687 238.201 79.229 238.769C79.8011 238.909 80.9574 239.275 82.0428 240.27C83.1611 241.293 83.6209 242.448 83.8023 243.007Z" fill="white"/>
</g>
<mask id="mask15_2011_36895" style="mask-type:luminance" maskUnits="userSpaceOnUse" x="-34" y="-17" width="455" height="454">
<path d="M-33.057 -16.8521H420.647V436.852H-33.057V-16.8521Z" fill="white"/>
</mask>
<g mask="url(#mask15_2011_36895)">
<path d="M56.5488 254.579C57.2894 255.088 58.9254 256.067 61.2673 256.3C63.5428 256.526 65.3291 255.936 66.176 255.596C66.1224 256.684 66.1838 258.142 66.653 259.769C67.6719 263.303 69.9802 265.44 71.0838 266.333C69.9793 265.441 67.3988 263.626 63.6655 263.315C61.9466 263.173 60.474 263.39 59.3929 263.648C59.5735 262.769 59.8267 260.938 59.1682 258.792C58.4898 256.583 57.1996 255.195 56.5488 254.579Z" fill="white"/>
</g>
<mask id="mask16_2011_36895" style="mask-type:luminance" maskUnits="userSpaceOnUse" x="-34" y="-17" width="455" height="454">
<path d="M-33.057 -16.8521H420.647V436.852H-33.057V-16.8521Z" fill="white"/>
</mask>
<g mask="url(#mask16_2011_36895)">
<path d="M99.603 286.865L91.3145 291.355C91.0967 291.473 90.821 291.391 90.7026 291.174C90.5851 290.955 90.6663 290.68 90.885 290.562L99.1735 286.071C99.3913 285.953 99.6669 286.035 99.7845 286.253C99.9029 286.471 99.8216 286.746 99.603 286.865ZM109.509 302.73L74.1731 237.509C73.3694 236.025 71.4976 235.469 70.0137 236.273L65.0947 238.938C63.6109 239.742 63.0544 241.614 63.8581 243.097L99.1942 308.318C99.9979 309.801 101.87 310.358 103.354 309.554L108.273 306.889C109.756 306.085 110.313 304.213 109.509 302.73Z" fill="white"/>
</g>
<mask id="mask17_2011_36895" style="mask-type:luminance" maskUnits="userSpaceOnUse" x="-34" y="-17" width="455" height="454">
<path d="M-33.057 -16.8521H420.647V436.852H-33.057V-16.8521Z" fill="white"/>
</mask>
<g mask="url(#mask17_2011_36895)">
<path d="M135.122 241.168C135.185 240.502 135.409 239.098 136.396 237.648C137.355 236.24 138.548 235.502 139.148 235.18C138.499 234.69 137.696 233.957 136.991 232.911C135.458 230.639 135.342 228.297 135.359 227.238C135.34 228.297 135.143 230.64 133.534 232.921C132.793 233.972 131.965 234.709 131.3 235.204C131.889 235.522 133.057 236.253 133.968 237.655C134.906 239.1 135.082 240.502 135.122 241.168Z" fill="white"/>
</g>
<mask id="mask18_2011_36895" style="mask-type:luminance" maskUnits="userSpaceOnUse" x="-34" y="-17" width="455" height="454">
<path d="M-33.057 -16.8521H420.647V436.852H-33.057V-16.8521Z" fill="white"/>
</mask>
<g mask="url(#mask18_2011_36895)">
<path d="M110.558 243.096C110.634 243.605 110.727 244.693 110.258 245.956C109.804 247.184 109.051 247.955 108.664 248.305C109.238 248.55 109.972 248.949 110.691 249.599C112.253 251.01 112.773 252.734 112.956 253.526C112.775 252.734 112.488 250.951 113.267 248.951C113.624 248.032 114.106 247.328 114.51 246.837C114.012 246.71 113.007 246.379 112.068 245.502C111.102 244.598 110.711 243.586 110.558 243.096Z" fill="white"/>
</g>
<mask id="mask19_2011_36895" style="mask-type:luminance" maskUnits="userSpaceOnUse" x="-34" y="-17" width="455" height="454">
<path d="M-33.057 -16.8521H420.647V436.852H-33.057V-16.8521Z" fill="white"/>
</mask>
<g mask="url(#mask19_2011_36895)">
<path d="M131.051 279.279L121.658 280.071C121.41 280.092 121.192 279.906 121.17 279.659C121.149 279.411 121.335 279.192 121.582 279.171L130.975 278.38C131.222 278.359 131.442 278.545 131.463 278.792C131.484 279.039 131.298 279.258 131.051 279.279ZM133.767 297.785L127.54 223.869C127.399 222.187 125.907 220.927 124.226 221.069L118.65 221.538C116.968 221.68 115.709 223.171 115.85 224.853L122.077 298.769C122.218 300.451 123.71 301.711 125.392 301.569L130.967 301.099C132.648 300.958 133.908 299.466 133.767 297.785Z" fill="white"/>
</g>
<mask id="mask20_2011_36895" style="mask-type:luminance" maskUnits="userSpaceOnUse" x="-34" y="-17" width="455" height="454">
<path d="M-33.057 -16.8521H420.647V436.852H-33.057V-16.8521Z" fill="white"/>
</mask>
<g mask="url(#mask20_2011_36895)">
<path d="M333.964 246.667C340.14 242.053 338.688 231.091 331.51 228.262C332.559 229.715 333.421 231.119 334.059 232.592C336.087 237.133 335.813 242.05 333.964 246.667Z" fill="white"/>
</g>
<mask id="mask21_2011_36895" style="mask-type:luminance" maskUnits="userSpaceOnUse" x="-34" y="-17" width="455" height="454">
<path d="M-33.057 -16.8521H420.647V436.852H-33.057V-16.8521Z" fill="white"/>
</mask>
<g mask="url(#mask21_2011_36895)">
<path d="M328.834 245.098C333.137 241.809 332.113 234.08 327.092 232.038C327.85 233.051 328.475 234.044 328.937 235.09C330.404 238.308 330.204 241.84 328.834 245.098Z" fill="white"/>
</g>
<mask id="mask22_2011_36895" style="mask-type:luminance" maskUnits="userSpaceOnUse" x="-34" y="-17" width="455" height="454">
<path d="M-33.057 -16.8521H420.647V436.852H-33.057V-16.8521Z" fill="white"/>
</mask>
<g mask="url(#mask22_2011_36895)">
<path d="M250.141 220.188C251.91 215.54 255.043 211.738 259.611 209.774C261.078 209.123 262.664 208.675 264.42 208.317C257.223 205.533 248.728 212.61 250.141 220.188Z" fill="white"/>
</g>
<mask id="mask23_2011_36895" style="mask-type:luminance" maskUnits="userSpaceOnUse" x="-34" y="-17" width="455" height="454">
<path d="M-33.057 -16.8521H420.647V436.852H-33.057V-16.8521Z" fill="white"/>
</mask>
<g mask="url(#mask23_2011_36895)">
<path d="M254.977 222.511C256.177 219.189 258.426 216.454 261.684 215.082C262.733 214.626 263.865 214.32 265.11 214.088C260.032 212.187 254.042 217.177 254.977 222.511Z" fill="white"/>
</g>
<mask id="mask24_2011_36895" style="mask-type:luminance" maskUnits="userSpaceOnUse" x="-34" y="-17" width="455" height="454">
<path d="M-33.057 -16.8521H420.647V436.852H-33.057V-16.8521Z" fill="white"/>
</mask>
<g mask="url(#mask24_2011_36895)">
<path d="M303.788 243.007C303.882 242.426 304.001 241.18 303.48 239.727C302.973 238.315 302.12 237.423 301.68 237.017C302.341 236.742 303.187 236.295 304.019 235.56C305.826 233.961 306.442 231.991 306.662 231.086C306.444 231.991 306.094 234.031 306.962 236.331C307.361 237.389 307.904 238.201 308.362 238.769C307.789 238.909 306.633 239.275 305.548 240.27C304.429 241.293 303.97 242.448 303.788 243.007Z" fill="white"/>
</g>
<mask id="mask25_2011_36895" style="mask-type:luminance" maskUnits="userSpaceOnUse" x="-34" y="-17" width="455" height="454">
<path d="M-33.057 -16.8521H420.647V436.852H-33.057V-16.8521Z" fill="white"/>
</mask>
<g mask="url(#mask25_2011_36895)">
<path d="M331.042 254.579C330.301 255.088 328.665 256.067 326.323 256.3C324.048 256.526 322.262 255.936 321.415 255.596C321.468 256.684 321.407 258.142 320.938 259.769C319.919 263.303 317.61 265.44 316.507 266.333C317.611 265.441 320.192 263.626 323.925 263.315C325.644 263.173 327.117 263.39 328.198 263.648C328.017 262.769 327.764 260.938 328.422 258.792C329.101 256.583 330.391 255.195 331.042 254.579Z" fill="white"/>
</g>
<mask id="mask26_2011_36895" style="mask-type:luminance" maskUnits="userSpaceOnUse" x="-34" y="-17" width="455" height="454">
<path d="M-33.057 -16.8521H420.647V436.852H-33.057V-16.8521Z" fill="white"/>
</mask>
<g mask="url(#mask26_2011_36895)">
<path d="M287.807 286.253C287.925 286.034 288.2 285.953 288.419 286.072L296.707 290.562C296.925 290.68 297.007 290.955 296.889 291.174C296.77 291.392 296.495 291.474 296.277 291.355L287.988 286.865C287.771 286.747 287.688 286.471 287.807 286.253ZM279.319 306.889L284.238 309.554C285.722 310.358 287.593 309.802 288.397 308.318L323.733 243.098C324.537 241.614 323.981 239.742 322.497 238.938L317.578 236.273C316.095 235.468 314.223 236.025 313.419 237.509L278.083 302.73C277.278 304.214 277.835 306.085 279.319 306.889Z" fill="white"/>
</g>
<mask id="mask27_2011_36895" style="mask-type:luminance" maskUnits="userSpaceOnUse" x="-34" y="-17" width="455" height="454">
<path d="M-33.057 -16.8521H420.647V436.852H-33.057V-16.8521Z" fill="white"/>
</mask>
<g mask="url(#mask27_2011_36895)">
<path d="M252.469 241.168C252.406 240.502 252.182 239.098 251.195 237.648C250.236 236.24 249.043 235.502 248.444 235.18C249.092 234.69 249.896 233.957 250.601 232.911C252.133 230.639 252.25 228.297 252.232 227.238C252.251 228.297 252.448 230.64 254.058 232.921C254.798 233.972 255.626 234.709 256.292 235.204C255.702 235.522 254.535 236.253 253.624 237.655C252.685 239.1 252.51 240.502 252.469 241.168Z" fill="white"/>
</g>
<mask id="mask28_2011_36895" style="mask-type:luminance" maskUnits="userSpaceOnUse" x="-34" y="-17" width="455" height="454">
<path d="M-33.057 -16.8521H420.647V436.852H-33.057V-16.8521Z" fill="white"/>
</mask>
<g mask="url(#mask28_2011_36895)">
<path d="M277.033 243.096C276.957 243.605 276.864 244.693 277.333 245.956C277.787 247.184 278.54 247.955 278.928 248.305C278.353 248.55 277.619 248.949 276.9 249.599C275.338 251.01 274.818 252.734 274.635 253.526C274.816 252.734 275.103 250.951 274.325 248.951C273.967 248.032 273.485 247.328 273.081 246.837C273.579 246.71 274.585 246.379 275.523 245.502C276.489 244.598 276.88 243.586 277.033 243.096Z" fill="white"/>
</g>
<mask id="mask29_2011_36895" style="mask-type:luminance" maskUnits="userSpaceOnUse" x="-34" y="-17" width="455" height="454">
<path d="M-33.057 -16.8521H420.647V436.852H-33.057V-16.8521Z" fill="white"/>
</mask>
<g mask="url(#mask29_2011_36895)">
<path d="M256.128 278.792C256.148 278.545 256.368 278.359 256.615 278.38L266.009 279.171C266.256 279.192 266.441 279.411 266.42 279.659C266.4 279.906 266.18 280.092 265.933 280.071L256.539 279.279C256.292 279.258 256.107 279.039 256.128 278.792ZM256.624 301.099L262.2 301.569C263.88 301.711 265.373 300.451 265.514 298.769L271.74 224.853C271.882 223.171 270.622 221.68 268.94 221.538L263.365 221.069C261.684 220.927 260.192 222.187 260.05 223.869L253.825 297.785C253.683 299.466 254.943 300.958 256.624 301.099Z" fill="white"/>
</g>
</g>
<defs>
<clipPath id="clip0_2011_36895">
<rect width="387.593" height="420" fill="white"/>
</clipPath>
</defs>
</svg>
