<svg width="388" height="420" viewBox="0 0 388 420" fill="none" xmlns="http://www.w3.org/2000/svg">
<path d="M219.017 247.784C221.149 247.784 222.865 246.041 222.865 243.939V224.237C222.865 222.105 221.122 220.389 219.017 220.389C216.889 220.389 215.173 222.132 215.173 224.237V243.939C215.173 246.071 216.916 247.784 219.017 247.784Z" fill="white"/>
<path d="M236.703 193.216C234.625 193.216 232.936 194.902 232.936 196.98V244.051C232.828 251.743 226.602 257.943 218.879 257.943C215.284 257.943 211.99 256.557 209.5 254.314C207.037 256.557 203.743 257.943 200.118 257.943C192.368 257.943 186.061 251.632 186.061 243.885V180.071C186.061 177.966 184.345 176.25 182.24 176.25C180.139 176.25 178.422 177.966 178.422 180.071V253.679H178.395C178.395 256.473 176.071 258.801 173.22 258.801C170.507 258.801 168.294 256.696 168.102 254.041L153.852 232.537C153.159 231.459 151.939 230.821 150.666 230.821C149.892 230.821 149.2 231.017 148.564 231.459C147.402 232.233 147.041 233.341 146.933 233.922C146.821 234.53 146.737 235.666 147.514 236.797L160.105 255.395C160.852 277.034 178.673 294.443 200.507 294.443C222.338 294.443 239.855 277.061 240.605 255.395V200.243L240.466 196.98C240.466 194.902 238.777 193.216 236.703 193.216Z" fill="white"/>
<path d="M200.23 247.784C202.358 247.784 204.074 246.041 204.074 243.939V224.237C204.074 222.105 202.331 220.389 200.23 220.389C198.098 220.389 196.382 222.132 196.382 224.237V243.939C196.382 246.071 198.125 247.784 200.23 247.784Z" fill="white"/>
<path d="M250.814 200.243L250.787 255.423C250.041 282.544 227.764 304.375 200.45 304.375C174.578 304.375 153.24 284.784 150.473 259.602L139.044 242.5C134.7 236.024 136.443 227.335 142.892 223.017C145.271 221.412 147.983 220.639 150.666 220.639C155.206 220.639 159.632 222.825 162.345 226.892L168.24 235.72V180.071C168.24 172.294 174.548 166.014 182.298 166.014C190.075 166.014 196.355 172.321 196.355 180.071V210.703C197.571 210.372 198.872 210.179 200.2 210.179C203.798 210.179 207.092 211.561 209.581 213.804C212.044 211.561 215.338 210.179 218.963 210.179C220.291 210.179 221.592 210.372 222.811 210.703V197.007C222.811 189.284 229.092 183.004 236.811 183.004C244.534 183.004 250.815 189.284 250.815 197.007L250.814 200.243ZM298.21 203.953C298.21 203.953 282.5 221.017 270.926 206.395C263.186 196.622 275.406 185.22 275.406 185.22C268.189 183.889 262.369 185.129 257.683 187.811C253.075 182.294 247.727 176.774 241.561 171.281C157.267 96.2063 214.558 74.4766 214.558 74.4766C120.385 77.1083 159.899 166.673 159.899 166.673C135.534 153.5 119.727 173.257 119.727 173.257C153.973 182.477 131.581 213.429 131.581 213.429C131.581 213.429 100.629 236.507 115.777 279.314C130.923 322.118 171.095 326.757 171.095 326.757H216.534C244.571 326.757 284.632 290.041 281.656 243.085C281.744 243.081 281.831 243.064 281.919 243.061C302.781 242.213 298.21 203.953 298.21 203.953Z" fill="white"/>
</svg>
