<svg width="388" height="420" viewBox="0 0 388 420" fill="none" xmlns="http://www.w3.org/2000/svg">
<path d="M254.49 131.179C254.49 137.986 227.287 143.503 193.733 143.503C160.179 143.503 132.976 137.986 132.976 131.179C132.976 124.375 160.179 118.854 193.733 118.854C227.287 118.854 254.49 124.375 254.49 131.179Z" stroke="white" stroke-width="8.64865" stroke-miterlimit="10"/>
<path d="M236.327 299.871C236.327 304.645 217.256 308.513 193.733 308.513C170.209 308.513 151.138 304.645 151.138 299.871C151.138 295.101 170.209 291.233 193.733 291.233C217.256 291.233 236.327 295.101 236.327 299.871Z" stroke="white" stroke-width="8.64865" stroke-miterlimit="10"/>
<path d="M234.165 217.368C234.165 221.899 216.064 225.571 193.733 225.571C171.402 225.571 153.3 221.899 153.3 217.368C153.3 212.838 171.402 209.166 193.733 209.166C216.064 209.166 234.165 212.838 234.165 217.368Z" stroke="white" stroke-width="8.64865" stroke-miterlimit="10"/>
<path d="M132.976 131.179L151.138 299.872" stroke="white" stroke-width="8.64865" stroke-miterlimit="10"/>
<path d="M236.327 299.872L254.489 131.179" stroke="white" stroke-width="8.64865" stroke-miterlimit="10"/>
</svg>
