<svg width="388" height="420" viewBox="0 0 388 420" fill="none" xmlns="http://www.w3.org/2000/svg">
<path d="M256.602 181.092C258.221 187.409 255.031 193.703 249.744 195.075C244.727 196.379 239.65 192.727 238.18 186.98C236.71 181.233 239.295 175.135 244.167 173.274C249.305 171.315 254.987 174.771 256.602 181.092Z" fill="white"/>
<path d="M234.889 188.034C236.335 193.679 233.906 199.186 229.656 200.291C225.602 201.345 221.376 197.959 220.051 192.777C218.727 187.595 220.713 182.223 224.653 180.72C228.781 179.145 233.446 182.389 234.889 188.034Z" fill="white"/>
<path d="M320.515 160.659C322.636 168.966 316.636 177.706 307.697 180.027C299.346 182.196 291.444 177.899 289.566 170.554C287.687 163.206 292.363 154.889 300.478 151.794C309.163 148.48 318.39 152.351 320.515 160.659Z" fill="white"/>
<path d="M284.217 172.264C286.051 179.443 281.751 186.764 274.994 188.52C268.626 190.173 262.386 186.216 260.737 179.77C259.089 173.321 262.514 166.277 268.703 163.916C275.268 161.412 282.379 165.085 284.217 172.264Z" fill="white"/>
<path d="M262.845 205.504C264.463 211.821 261.136 217.581 255.69 218.328C250.521 219.037 245.328 214.926 243.859 209.179C242.389 203.433 245.088 197.794 250.112 196.527C255.413 195.196 261.23 199.183 262.845 205.504Z" fill="white"/>
<path d="M240.467 209.838C241.91 215.483 239.372 220.564 234.994 221.166C230.818 221.737 226.497 217.983 225.17 212.798C223.845 207.615 225.93 202.619 229.991 201.595C234.247 200.524 239.025 204.193 240.467 209.838Z" fill="white"/>
<path d="M328.717 192.747C330.842 201.054 324.609 208.879 315.399 210.142C306.795 211.321 298.697 206.271 296.818 198.926C294.943 191.578 299.812 184.017 308.18 181.909C317.136 179.652 326.595 184.439 328.717 192.747Z" fill="white"/>
<path d="M291.308 199.993C293.143 207.169 288.666 213.808 281.704 214.764C275.143 215.662 268.758 211.125 267.106 204.679C265.457 198.23 269.031 191.767 275.413 190.159C282.183 188.453 289.471 192.814 291.308 199.993Z" fill="white"/>
<path d="M296.423 145.159C296.275 145.159 296.119 145.149 295.967 145.125L210.639 132.612C208.944 132.362 207.771 130.784 208.018 129.088C208.268 127.392 209.846 126.216 211.542 126.466L296.869 138.983C298.565 139.23 299.741 140.808 299.491 142.504C299.264 144.048 297.937 145.159 296.423 145.159Z" fill="white"/>
<path d="M270.845 293.568C270.217 293.568 269.585 293.379 269.035 292.983C267.643 291.983 267.325 290.044 268.325 288.649L318.943 218.176C319.947 216.784 321.886 216.467 323.278 217.467C324.67 218.467 324.991 220.409 323.987 221.801L273.369 292.274C272.761 293.119 271.808 293.568 270.845 293.568Z" fill="white"/>
<path d="M130.866 181.092C129.247 187.409 132.437 193.703 137.724 195.075C142.741 196.379 147.818 192.727 149.288 186.98C150.757 181.233 148.173 175.135 143.301 173.274C138.163 171.315 132.48 174.771 130.866 181.092Z" fill="white"/>
<path d="M152.579 188.034C151.133 193.679 153.562 199.186 157.812 200.291C161.866 201.345 166.092 197.959 167.417 192.777C168.741 187.595 166.754 182.223 162.815 180.72C158.687 179.145 154.021 182.389 152.579 188.034Z" fill="white"/>
<path d="M66.9534 160.659C64.8318 168.966 70.8318 177.706 79.771 180.027C88.1223 182.196 96.0244 177.899 97.9027 170.554C99.7811 163.206 95.1054 154.889 86.9906 151.794C78.3048 148.48 69.0784 152.351 66.9534 160.659Z" fill="white"/>
<path d="M103.251 172.264C101.416 179.443 105.717 186.764 112.474 188.52C118.842 190.173 125.082 186.216 126.73 179.77C128.379 173.321 124.953 166.277 118.764 163.916C112.2 161.412 105.089 165.085 103.251 172.264Z" fill="white"/>
<path d="M124.622 205.504C123.004 211.821 126.332 217.581 131.778 218.328C136.947 219.037 142.139 214.926 143.609 209.179C145.078 203.433 142.379 197.794 137.355 196.527C132.055 195.196 126.237 199.183 124.622 205.504Z" fill="white"/>
<path d="M147.001 209.838C145.558 215.483 148.095 220.564 152.474 221.166C156.649 221.737 160.97 217.983 162.298 212.798C163.622 207.615 161.538 202.619 157.477 201.595C153.22 200.524 148.443 204.193 147.001 209.838Z" fill="white"/>
<path d="M58.7507 192.747C56.6257 201.054 62.8588 208.879 72.0683 210.142C80.673 211.321 88.771 206.271 90.6494 198.926C92.5244 191.578 87.6561 184.017 79.2879 181.909C70.3318 179.652 60.8724 184.439 58.7507 192.747Z" fill="white"/>
<path d="M96.1594 199.993C94.3249 207.169 98.8012 213.808 105.764 214.764C112.325 215.662 118.71 211.125 120.362 204.679C122.011 198.23 118.436 191.767 112.055 190.159C105.284 188.453 97.9972 192.814 96.1594 199.993Z" fill="white"/>
<path d="M91.0444 145.159C89.5309 145.159 88.2032 144.047 87.9769 142.504C87.7269 140.808 88.9025 139.23 90.5985 138.983L175.926 126.466C177.622 126.216 179.2 127.392 179.45 129.088C179.696 130.784 178.524 132.362 176.828 132.612L91.5005 145.125C91.3485 145.149 91.1931 145.159 91.0444 145.159Z" fill="white"/>
<path d="M114.555 291.497C113.582 291.497 112.626 291.041 112.018 290.189L63.4704 221.787C62.4772 220.389 62.8049 218.45 64.2035 217.456C65.6022 216.463 67.5414 216.794 68.5346 218.193L117.085 286.595C118.075 287.993 117.747 289.933 116.349 290.923C115.801 291.311 115.176 291.497 114.555 291.497Z" fill="white"/>
</svg>
