<svg width="388" height="420" viewBox="0 0 388 420" fill="none" xmlns="http://www.w3.org/2000/svg">
<path d="M115.591 234.493C115.828 233.129 116.521 231.781 117.129 230.537C120.828 223.017 126.044 215.325 137.993 205.74C155.936 191.345 176.031 187.22 190.514 187.828C214.534 188.835 211.004 189.102 200.882 170.487C200.841 170.416 200.808 170.341 200.767 170.27C197.227 163.493 193.22 155.821 187.287 147.824C174.145 130.105 173.02 135.338 161.993 117.551C159.943 114.243 158.737 105.537 162.649 97.3583C164.007 94.5171 166.733 93.0137 168.966 91.8684C172.257 90.186 176.203 90.9191 178.696 93.6319C180.865 95.9934 183.527 98.8718 186.551 102.112C196.365 112.618 203.274 119.686 204.943 121.426C218.855 135.943 227.301 152.777 241.659 178.591C246.095 186.568 252.308 196.784 256.186 205.652C264.169 223.906 269.561 243.284 263.902 262.612C263.845 262.808 263.787 263.004 263.727 263.199C261.247 271.534 257.868 278.983 255.47 284.949C253.22 290.466 249.72 298.493 242.632 306.287C231.372 318.669 218.075 322.564 206.814 325.865C196.96 328.75 183.993 332.551 167.412 329.764C160.713 328.635 140.466 324.926 126.402 307.395C118.139 297.105 108.713 277.936 115.727 269.23C119.142 264.993 126.298 263.416 131.777 265.274C141.689 268.635 139.227 280.892 150.659 289.392C158.399 295.149 168.946 296.537 177.264 294.233C183.325 292.554 187.686 289.054 194.294 283.757C197.433 281.24 200.088 278.777 202.27 276.578C204.848 273.973 206.385 270.517 206.558 266.855C206.71 263.662 206.642 259.902 206.081 255.743C205.345 250.27 204.483 243.868 200.169 237.088C199.277 235.689 196.517 231.078 186.72 225.537C182.301 223.037 178.294 221.037 174.716 220.355C174.02 220.223 173.314 220.159 172.605 220.139C169.889 220.064 166.01 219.737 161.818 222.558C149.345 230.943 147.639 242.574 135.446 249.652C134.004 250.49 128.142 252.801 121.885 249.963C119.926 249.071 117.037 247.52 115.673 242.598C114.423 238.085 115.152 237.054 115.591 234.493Z" fill="white"/>
<path d="M222.437 82.9088C219.058 78.5034 212.258 79.3142 209.91 84.3446C209.778 84.625 209.649 84.9122 209.524 85.2061C208.426 87.7669 205.616 95.3176 208.714 108.726C209.801 113.443 211.818 119.747 226.903 142.905C235.977 156.841 236.524 159.182 242.312 168.976C246.693 176.385 248.362 179.152 254.362 190.409C258.068 197.365 264.531 211.791 269.281 225.747C269.356 197.605 261.97 180.372 255.406 157.041C255.095 155.939 255.508 157.405 245.173 124.99C240.896 111.568 234.693 99.2264 233.332 97.2568C231.967 95.277 228.366 90.6554 224.643 85.7872C223.879 84.7838 223.139 83.8243 222.437 82.9088Z" fill="white"/>
<path d="M272.383 213.443C270.565 195.683 265.362 176.642 263.004 167.808C260.21 157.335 257.2 148.23 257.2 148.23C252.065 133.27 251.531 131.074 250.957 122.645C250.562 116.814 249.91 107.267 255.552 103.656C256.889 102.797 258.369 102.409 259.822 102.301C262.555 102.091 265.035 103.909 265.731 106.564C266.396 109.085 267.193 112.132 268.089 115.571C272.024 130.686 274.001 138.308 274.541 141.514C275.599 147.781 275.386 155.541 274.916 170.811C274.68 178.419 274.842 200.818 272.383 213.443Z" fill="white"/>
</svg>
