<svg width="388" height="420" viewBox="0 0 388 420" fill="none" xmlns="http://www.w3.org/2000/svg">
<path d="M88.1221 261.412C88.1221 260.956 88.1525 260.646 88.2167 260.48C88.2775 260.314 88.4971 259.983 88.8687 259.483C89.1592 259.112 89.595 258.676 90.1761 258.176C90.4667 257.929 90.7572 257.659 91.0477 257.368C91.1322 257.368 91.389 257.348 91.8248 257.304C92.2606 257.264 92.6052 257.244 92.8518 257.244C94.0984 257.244 95.1119 257.564 95.9025 258.21C96.6896 258.852 97.4599 259.568 98.2065 260.355C98.9532 261.142 99.7809 261.858 100.696 262.504C101.609 263.146 102.811 263.466 104.305 263.466H106.112C106.234 263.426 106.433 263.311 106.703 263.125C106.97 262.939 107.25 262.75 107.541 262.564C107.832 262.379 108.102 262.189 108.352 262.004C108.602 261.818 108.747 261.703 108.788 261.662C108.788 261.578 108.913 261.507 109.159 261.443C109.409 261.382 109.575 261.352 109.659 261.352C110.365 261.021 110.946 260.646 111.402 260.23C111.859 259.814 112.261 259.358 112.615 258.862C112.967 258.365 113.298 257.845 113.612 257.304C113.923 256.767 114.284 256.206 114.7 255.625C114.784 255.585 114.916 255.46 115.105 255.25C115.291 255.044 115.477 254.825 115.666 254.598C115.852 254.369 116.027 254.142 116.193 253.912C116.359 253.683 116.484 253.531 116.568 253.446C116.649 253.406 116.723 253.291 116.784 253.105C116.848 252.916 116.879 252.784 116.879 252.7C117.707 250.625 118.582 248.642 119.494 246.757C120.406 244.865 121.298 242.946 122.169 240.997C122.254 240.831 122.375 240.531 122.544 240.095C122.71 239.659 122.886 239.193 123.071 238.693C123.257 238.196 123.423 237.72 123.568 237.264C123.713 236.808 123.808 236.473 123.848 236.267C123.848 236.227 123.869 236.091 123.913 235.862C123.953 235.632 123.994 235.396 124.038 235.146C124.078 234.899 124.129 234.669 124.193 234.463C124.254 234.254 124.284 234.129 124.284 234.088C124.328 233.963 124.429 233.693 124.598 233.281C124.764 232.865 124.94 232.419 125.125 231.943C125.311 231.463 125.5 231.017 125.686 230.602C125.872 230.189 125.987 229.919 126.027 229.794C126.027 229.71 126.102 229.494 126.247 229.142C126.392 228.787 126.463 228.568 126.463 228.487C126.463 228.362 126.527 228.196 126.652 227.99L126.899 227.615L127.646 226.869C127.896 226.412 128.102 225.956 128.271 225.5C128.436 225.041 128.602 224.598 128.767 224.162C128.933 223.727 129.129 223.291 129.359 222.852C129.585 222.416 129.909 221.994 130.325 221.578C130.365 221.328 130.47 220.902 130.636 220.301C130.801 219.7 130.977 219.058 131.163 218.372C131.348 217.686 131.517 217.034 131.663 216.412C131.808 215.787 131.899 215.352 131.94 215.105C132.024 215.021 132.159 214.771 132.345 214.358C132.534 213.943 132.72 213.487 132.906 212.987C133.092 212.49 133.267 212.034 133.436 211.619C133.602 211.203 133.727 210.933 133.808 210.808C133.892 210.477 133.953 210.22 133.994 210.031C134.038 209.845 134.068 209.659 134.088 209.47C134.109 209.284 134.119 209.169 134.119 209.129C134.494 208.051 134.95 206.98 135.49 205.923C136.027 204.865 136.463 203.777 136.798 202.656C137.004 201.909 137.119 201.233 137.139 200.632C137.159 200.031 137.335 199.379 137.666 198.673C137.71 198.629 137.791 198.517 137.916 198.331C138.041 198.142 138.176 197.926 138.321 197.676C138.467 197.426 138.602 197.189 138.727 196.96C138.852 196.733 138.933 196.575 138.973 196.494C139.017 196.453 139.068 196.389 139.132 196.308C139.193 196.223 139.244 196.142 139.284 196.058C139.328 195.933 139.369 195.831 139.409 195.747V192.757C138.994 192.179 138.467 191.835 137.825 191.733C137.18 191.629 136.487 191.578 135.737 191.578H133.156C132.926 191.578 132.71 191.534 132.5 191.453C132.419 191.453 132.294 191.409 132.129 191.328C131.963 191.243 131.784 191.139 131.598 191.017C131.413 190.892 131.237 190.787 131.071 190.703C130.902 190.622 130.801 190.581 130.761 190.581C129.93 190.291 129.274 190.041 128.798 189.835C128.321 189.625 128.082 189.044 128.082 188.091V187.811C128.082 187.706 128.102 187.615 128.146 187.531C128.146 187.406 128.166 187.281 128.207 187.156C128.247 187.031 128.362 186.865 128.548 186.659C128.734 186.453 128.933 186.223 129.139 185.973C129.348 185.727 129.565 185.507 129.794 185.321C130.021 185.135 130.2 185.021 130.325 184.977C130.571 184.977 131.007 184.956 131.629 184.916C132.254 184.875 132.906 184.831 133.592 184.791C134.274 184.75 134.929 184.71 135.551 184.666C136.173 184.625 136.588 184.585 136.798 184.544C137.625 184.46 138.416 184.274 139.163 183.983C139.909 183.693 140.551 183.173 141.092 182.426C141.217 182.26 141.423 181.95 141.713 181.494C142.004 181.037 142.304 180.561 142.615 180.061C142.926 179.564 143.227 179.085 143.517 178.629C143.808 178.173 144.017 177.841 144.142 177.635C144.723 176.554 145.179 175.487 145.511 174.429C145.842 173.369 146.237 172.301 146.693 171.223C146.774 171.098 146.859 170.933 146.943 170.727C147.024 170.517 147.129 170.392 147.254 170.352C147.254 170.311 147.304 170.196 147.409 170.01C147.514 169.821 147.636 169.635 147.781 169.45C147.926 169.26 148.061 169.075 148.186 168.889C148.311 168.703 148.396 168.568 148.436 168.483C148.477 168.443 148.561 168.257 148.686 167.923C148.808 167.591 148.943 167.24 149.088 166.865C149.234 166.494 149.369 166.139 149.494 165.808C149.619 165.477 149.7 165.267 149.744 165.186C149.744 165.102 149.794 164.946 149.899 164.716C150.004 164.49 150.095 164.314 150.179 164.189C150.345 163.983 150.561 163.669 150.832 163.257C151.102 162.841 151.372 162.426 151.642 162.01C151.913 161.595 152.149 161.233 152.359 160.923C152.565 160.608 152.69 160.456 152.73 160.456C153.477 159.666 154.277 158.96 155.129 158.338C155.977 157.716 156.869 157.146 157.804 156.625C158.737 156.108 159.693 155.588 160.666 155.071C161.642 154.551 162.585 154.004 163.497 153.423C163.582 153.423 163.737 153.318 163.967 153.108C164.193 152.902 164.369 152.757 164.494 152.676C164.494 152.591 164.598 152.497 164.804 152.396C165.014 152.291 165.159 152.24 165.24 152.24C165.45 152.24 165.801 152.23 166.301 152.206C166.798 152.186 167.315 152.176 167.855 152.176C168.396 152.176 168.902 152.166 169.379 152.145C169.859 152.125 170.2 152.115 170.409 152.115C172.109 152.115 173.717 152.166 175.23 152.27C176.747 152.372 178.2 152.612 179.588 152.987C180.977 153.358 182.298 153.919 183.541 154.666C184.788 155.412 186.011 156.429 187.213 157.716C187.254 157.841 187.348 158.007 187.494 158.213C187.639 158.422 187.784 158.649 187.929 158.899C188.075 159.149 188.2 159.385 188.301 159.615C188.406 159.841 188.46 160.041 188.46 160.206C188.46 161.615 188.146 162.872 187.524 163.973C186.902 165.071 185.781 165.622 184.163 165.622C183.666 165.622 183.301 165.527 183.075 165.341C182.845 165.152 182.659 164.906 182.514 164.595C182.369 164.284 182.244 163.949 182.139 163.598C182.038 163.243 181.882 162.902 181.673 162.571C180.72 161.449 179.794 160.507 178.902 159.74C178.011 158.97 176.862 158.588 175.45 158.588C174.372 158.588 173.446 158.814 172.679 159.27C171.913 159.73 171.011 160.122 169.973 160.456C168.852 160.828 167.761 161.243 166.703 161.699C165.646 162.156 164.578 162.737 163.497 163.443C163.416 163.524 163.281 163.649 163.095 163.814C162.909 163.983 162.75 164.105 162.625 164.189C162.46 164.439 162.213 164.821 161.879 165.341C161.548 165.858 161.207 166.389 160.855 166.929C160.5 167.466 160.169 167.987 159.859 168.483C159.544 168.983 159.328 169.314 159.203 169.48C158.622 170.517 158.196 171.449 157.929 172.281C157.659 173.112 157.359 174.004 157.024 174.956C156.693 176.162 156.298 177.27 155.842 178.287C155.386 179.304 154.929 180.351 154.473 181.429V181.99C154.514 182.156 154.639 182.446 154.845 182.862C155.054 183.277 155.22 183.527 155.345 183.608C155.426 183.818 155.571 184.044 155.781 184.294C155.987 184.544 156.112 184.666 156.152 184.666H165.24C165.531 184.666 165.832 184.831 166.146 185.166C166.457 185.497 166.747 185.882 167.014 186.318C167.284 186.754 167.504 187.189 167.669 187.625C167.835 188.061 167.919 188.402 167.919 188.652C167.919 190.683 166.879 192.054 164.804 192.757C164.473 192.757 163.872 192.737 163 192.696C162.129 192.656 161.217 192.635 160.261 192.635C159.308 192.635 158.416 192.656 157.585 192.696C156.754 192.737 156.176 192.757 155.842 192.757C155.676 192.757 155.261 192.811 154.598 192.916C153.933 193.017 153.457 193.112 153.166 193.193C152.169 193.402 151.257 193.953 150.426 194.845C149.598 195.737 148.862 196.774 148.217 197.956C147.575 199.139 147.044 200.351 146.632 201.598C146.217 202.841 145.946 203.902 145.821 204.77V207.26C145.615 208.132 145.375 208.953 145.105 209.72C144.835 210.487 144.544 211.233 144.234 211.96C143.923 212.686 143.602 213.412 143.271 214.139C142.936 214.865 142.646 215.622 142.399 216.412C142.399 216.578 142.325 216.868 142.179 217.284C142.034 217.696 141.963 217.946 141.963 218.031C141.963 218.152 141.943 218.392 141.899 218.743C141.859 219.098 141.818 219.473 141.774 219.865C141.734 220.26 141.693 220.622 141.652 220.956C141.609 221.287 141.568 221.493 141.527 221.578C141.484 221.659 141.382 221.828 141.217 222.074C141.048 222.324 140.862 222.595 140.656 222.885C140.45 223.176 140.261 223.446 140.095 223.693C139.93 223.943 139.825 224.108 139.784 224.193C139.534 224.73 139.338 225.25 139.193 225.747C139.048 226.247 138.923 226.764 138.818 227.304C138.717 227.845 138.612 228.382 138.507 228.922C138.406 229.463 138.271 230.044 138.102 230.666C137.605 232.074 136.984 233.456 136.237 234.804C135.49 236.152 134.784 237.49 134.119 238.818C133.538 240.024 133.041 241.257 132.625 242.52C132.21 243.787 131.734 245.024 131.193 246.226C130.656 247.389 130.24 248.581 129.95 249.804C129.659 251.027 129.223 252.243 128.642 253.446C128.602 253.531 128.507 253.683 128.362 253.912C128.217 254.142 128.051 254.392 127.865 254.659C127.676 254.929 127.5 255.199 127.335 255.47C127.169 255.737 127.024 255.936 126.899 256.061C125.862 257.47 124.909 258.902 124.038 260.355C123.166 261.808 122.21 263.24 121.173 264.649L121.048 264.899C120.967 265.024 120.902 265.085 120.862 265.085C119.659 266.162 118.487 267.058 117.345 267.764C116.203 268.466 115.021 269.037 113.798 269.473C112.575 269.909 111.277 270.22 109.906 270.406C108.538 270.595 107.024 270.689 105.365 270.689H104.93C104.264 270.645 103.413 270.605 102.375 270.561C101.338 270.52 100.321 270.48 99.3248 270.439C98.3315 270.399 97.4464 270.355 96.6795 270.314C95.9126 270.27 95.4667 270.254 95.3417 270.254C94.345 270.169 93.4836 269.899 92.7606 269.443C92.0342 268.987 91.3991 268.416 90.8619 267.73C90.3214 267.047 89.8653 266.291 89.4903 265.46C89.1187 264.629 88.8079 263.801 88.5579 262.97C88.4734 262.804 88.3923 262.659 88.3079 262.534C88.1829 262.368 88.1221 262.223 88.1221 262.098L88.1221 261.412Z" fill="white"/>
<path d="M211.792 151.49V151.804C211.748 151.926 211.687 152.051 211.602 152.176L211.352 152.551C211.312 152.632 211.231 152.787 211.106 153.017C210.981 153.244 210.846 153.483 210.7 153.733C210.555 153.98 210.42 154.2 210.295 154.385C210.173 154.571 210.089 154.686 210.045 154.73C210.004 154.811 209.944 154.967 209.859 155.196C209.778 155.423 209.683 155.662 209.579 155.912C209.477 156.159 209.393 156.379 209.332 156.564C209.268 156.75 209.217 156.865 209.177 156.906C209.092 156.95 208.957 157.095 208.771 157.342C208.585 157.592 208.41 157.757 208.241 157.842C207.579 158.338 206.987 158.879 206.467 159.46C205.95 160.041 205.42 160.622 204.879 161.203C204.839 161.284 204.694 161.46 204.447 161.73C204.197 162 203.917 162.281 203.606 162.571C203.295 162.862 203.004 163.142 202.734 163.412C202.464 163.679 202.288 163.838 202.204 163.879C202.079 164.004 201.883 164.22 201.612 164.531C201.342 164.842 201.072 165.152 200.805 165.467C200.535 165.777 200.285 166.068 200.058 166.338C199.829 166.605 199.673 166.784 199.589 166.865C199.508 166.95 199.383 167.24 199.217 167.737C199.052 168.237 198.927 168.527 198.842 168.608C198.802 168.649 198.721 168.723 198.592 168.825C198.471 168.929 198.335 169.054 198.19 169.2L197.754 169.635C197.609 169.781 197.514 169.875 197.474 169.916C197.143 170.291 196.957 170.767 196.913 171.348C196.873 171.929 196.788 172.446 196.667 172.902C196.667 173.027 196.582 173.257 196.417 173.588C196.248 173.919 196.062 174.284 195.856 174.676C195.65 175.071 195.46 175.433 195.295 175.767C195.129 176.098 195.025 176.308 194.984 176.389C194.859 176.473 194.758 176.679 194.673 177.01C194.589 177.342 194.548 177.551 194.548 177.632C194.342 178.217 194.031 178.723 193.616 179.159C193.2 179.595 192.93 180.102 192.805 180.683C192.764 180.767 192.71 180.933 192.65 181.183C192.589 181.429 192.535 181.7 192.494 181.99C192.454 182.281 192.42 182.551 192.403 182.801C192.379 183.048 192.369 183.193 192.369 183.237C192.329 183.318 192.244 183.483 192.123 183.733C191.998 183.983 191.913 184.108 191.873 184.108C191.373 185.311 190.981 186.524 190.69 187.747C190.4 188.973 190.254 190.206 190.254 191.453C190.254 192.696 190.379 193.919 190.626 195.125C190.876 196.328 191.001 197.571 191.001 198.858V199.294C190.876 199.835 190.69 200.467 190.44 201.193C190.19 201.919 189.944 202.656 189.694 203.402C189.444 204.149 189.237 204.875 189.072 205.581C188.903 206.287 188.822 206.889 188.822 207.385V208.321C188.822 208.443 188.862 208.787 188.947 209.345C189.028 209.906 189.133 210.497 189.258 211.122C189.383 211.744 189.487 212.325 189.569 212.862C189.653 213.402 189.694 213.757 189.694 213.923C189.609 214.379 189.508 214.835 189.383 215.291C189.298 215.666 189.207 216.037 189.102 216.412C188.998 216.784 188.903 217.075 188.822 217.284C188.822 217.365 188.771 217.605 188.667 218C188.562 218.392 188.511 218.632 188.511 218.713V219.088C188.552 219.294 188.582 219.595 188.602 219.99C188.626 220.385 188.656 220.767 188.697 221.142C188.737 221.514 188.771 221.838 188.792 222.108C188.812 222.375 188.822 222.531 188.822 222.575C188.862 222.656 188.957 222.801 189.102 223.01C189.248 223.217 189.403 223.433 189.568 223.662C189.734 223.892 189.879 224.108 190.004 224.318C190.129 224.524 190.214 224.649 190.254 224.689C190.254 224.814 190.295 225.156 190.379 225.717C190.46 226.277 190.545 226.869 190.626 227.49C190.71 228.112 190.781 228.717 190.846 229.294C190.906 229.875 190.957 230.25 191.001 230.416C191.041 230.5 191.156 230.747 191.342 231.162C191.528 231.578 191.717 232.024 191.903 232.5C192.089 232.977 192.278 233.436 192.464 233.869C192.65 234.304 192.764 234.588 192.805 234.71C192.805 234.75 192.815 234.845 192.835 234.99C192.856 235.135 192.889 235.301 192.93 235.49C192.971 235.676 193.011 235.852 193.055 236.017C193.096 236.183 193.116 236.287 193.116 236.328C193.16 236.412 193.251 236.537 193.396 236.703C193.541 236.869 193.697 237.044 193.862 237.23C194.031 237.419 194.177 237.595 194.298 237.76C194.423 237.926 194.508 238.031 194.548 238.071C194.964 238.902 195.305 239.754 195.575 240.622C195.846 241.497 196.102 242.375 196.352 243.271C196.602 244.162 196.883 245.044 197.194 245.916C197.504 246.784 197.91 247.615 198.406 248.402C198.447 248.531 198.616 248.757 198.906 249.088C199.197 249.423 199.508 249.784 199.839 250.179C200.17 250.571 200.501 250.936 200.835 251.267C201.166 251.598 201.376 251.828 201.457 251.953C201.582 252.119 201.893 252.575 202.393 253.321C202.889 254.068 203.43 254.889 204.011 255.781C204.592 256.673 205.119 257.514 205.596 258.301C206.075 259.092 206.373 259.568 206.501 259.733C206.663 259.774 206.893 260.024 207.183 260.48C207.474 260.936 207.7 261.227 207.869 261.352C207.95 261.392 208.035 261.477 208.119 261.598C208.2 261.723 208.241 261.808 208.241 261.848C208.325 261.892 208.471 261.973 208.677 262.098C208.886 262.223 209.112 262.345 209.362 262.473C209.609 262.595 209.829 262.72 210.014 262.845C210.204 262.97 210.319 263.031 210.359 263.031C210.69 263.281 211.062 263.717 211.477 264.338C211.893 264.963 212.278 265.635 212.629 266.362C212.984 267.088 213.285 267.804 213.531 268.507C213.781 269.217 213.906 269.794 213.906 270.254C213.906 270.625 213.791 271.041 213.565 271.497C213.335 271.953 212.994 272.179 212.535 272.179C211.791 272.179 210.916 272.129 209.923 272.027C208.927 271.923 208.075 271.558 207.369 270.936H207.058C206.646 270.852 206.156 270.635 205.596 270.284C205.035 269.929 204.464 269.548 203.883 269.132C203.305 268.717 202.754 268.311 202.234 267.919C201.717 267.524 201.312 267.223 201.021 267.017C200.937 267.017 200.775 266.943 200.525 266.798C200.275 266.652 200.109 266.581 200.025 266.581C199.984 266.497 199.913 266.321 199.808 266.051C199.704 265.781 199.579 265.5 199.433 265.21C199.288 264.919 199.163 264.659 199.062 264.433C198.957 264.203 198.883 264.068 198.842 264.027C198.592 263.612 198.241 263.25 197.785 262.939C197.329 262.625 196.862 262.338 196.386 262.068C195.906 261.798 195.45 261.517 195.014 261.227C194.579 260.936 194.237 260.581 193.987 260.169C193.987 259.96 193.873 259.568 193.646 258.987C193.416 258.406 193.241 258.075 193.116 257.99C193.116 257.906 192.991 257.679 192.744 257.304C192.494 256.933 192.369 256.683 192.369 256.558V255.375C192.288 255.21 192.143 255.044 191.933 254.879C191.727 254.71 191.508 254.548 191.281 254.379C191.052 254.213 190.835 254.068 190.626 253.943C190.42 253.821 190.295 253.737 190.254 253.696C189.633 253.281 189.133 252.814 188.758 252.294C188.386 251.777 188.085 251.237 187.856 250.676C187.629 250.115 187.433 249.544 187.264 248.967C187.099 248.385 186.913 247.804 186.707 247.22C186.707 247.139 186.643 246.973 186.518 246.723C186.396 246.477 186.332 246.308 186.332 246.227C186.291 246.186 186.177 246.041 185.991 245.791C185.802 245.541 185.616 245.271 185.43 244.98C185.244 244.689 185.055 244.423 184.869 244.173C184.683 243.923 184.569 243.757 184.528 243.673C183.947 242.72 183.562 241.808 183.376 240.936C183.19 240.064 182.846 239.108 182.349 238.071C182.143 237.575 181.933 237.129 181.727 236.733C181.518 236.342 181.312 235.946 181.102 235.551C180.896 235.156 180.71 234.75 180.545 234.338C180.379 233.923 180.275 233.446 180.234 232.906V230.416C180.234 230.335 180.19 230.179 180.109 229.95C180.025 229.72 179.93 229.483 179.829 229.233C179.724 228.983 179.629 228.747 179.548 228.517C179.464 228.287 179.403 228.135 179.362 228.051C179.362 227.926 179.278 227.7 179.112 227.365C179.028 227.2 178.967 227.034 178.927 226.869V223.01C178.842 221.683 178.687 220.436 178.457 219.274C178.231 218.112 177.991 216.95 177.744 215.787C177.494 214.625 177.264 213.453 177.058 212.274C176.849 211.092 176.748 209.814 176.748 208.443V208.321C176.788 208.237 176.849 207.977 176.933 207.541C177.018 207.105 177.109 206.639 177.214 206.142C177.319 205.642 177.42 205.186 177.525 204.771C177.629 204.355 177.7 204.108 177.744 204.024C177.744 203.858 177.721 203.372 177.68 202.561C177.639 201.754 177.619 200.997 177.619 200.291V199.325C177.619 199.058 177.66 198.858 177.744 198.733C177.825 198.318 177.876 197.987 177.9 197.737C177.92 197.49 177.95 197.25 177.991 197.024C178.035 196.794 178.055 196.659 178.055 196.619C178.055 196.494 178.075 196.223 178.116 195.808C178.156 195.392 178.21 194.956 178.271 194.5C178.332 194.044 178.386 193.608 178.427 193.193C178.471 192.781 178.491 192.49 178.491 192.325C179.028 191.95 179.443 191.358 179.734 190.551C180.025 189.74 180.241 188.858 180.386 187.902C180.531 186.95 180.646 186.007 180.731 185.071C180.812 184.139 180.937 183.382 181.102 182.801C181.227 182.47 181.403 181.96 181.633 181.274C181.862 180.592 182.089 179.906 182.318 179.22C182.545 178.537 182.754 177.923 182.94 177.385C183.126 176.845 183.221 176.514 183.221 176.389C183.261 176.308 183.366 176.098 183.531 175.767C183.697 175.433 183.883 175.071 184.092 174.676C184.298 174.284 184.487 173.919 184.653 173.588C184.818 173.257 184.92 173.027 184.964 172.902C185.004 172.902 185.045 172.811 185.089 172.622C185.129 172.436 185.17 172.25 185.21 172.064C185.254 171.875 185.315 171.595 185.4 171.223C185.481 171.098 185.575 170.933 185.68 170.727C185.781 170.517 185.856 170.392 185.896 170.352C185.896 170.311 185.96 170.196 186.082 170.01C186.207 169.821 186.342 169.635 186.487 169.45C186.633 169.26 186.768 169.085 186.893 168.919C187.018 168.754 187.099 168.649 187.143 168.608C187.183 168.527 187.254 168.298 187.359 167.923C187.464 167.551 187.514 167.321 187.514 167.24C187.555 167.156 187.65 166.99 187.795 166.74C187.94 166.494 188.075 166.233 188.2 165.963C188.325 165.693 188.447 165.443 188.572 165.217C188.697 164.987 188.781 164.831 188.822 164.75C189.153 164.375 189.714 163.744 190.501 162.852C191.291 161.96 192.123 161.004 192.991 159.987C193.862 158.97 194.683 158.017 195.45 157.125C196.217 156.233 196.768 155.622 197.099 155.287C197.099 155.206 197.214 154.987 197.443 154.635C197.67 154.281 197.825 154.064 197.91 153.98C198.325 153.318 198.802 152.622 199.342 151.896C199.879 151.169 200.484 150.507 201.146 149.906C201.812 149.301 202.538 148.804 203.325 148.409C204.112 148.017 204.964 147.818 205.876 147.818C206.251 147.818 206.768 147.912 207.433 148.098C208.096 148.287 208.751 148.544 209.393 148.879C210.038 149.21 210.596 149.605 211.075 150.061C211.552 150.517 211.792 150.994 211.792 151.49Z" fill="white"/>
<path d="M200.916 234.71C200.916 234.669 200.93 234.534 200.946 234.304C200.97 234.078 201 233.818 201.041 233.527C201.082 233.237 201.136 232.96 201.196 232.686C201.261 232.419 201.311 232.199 201.352 232.034C201.561 230.997 201.892 230.064 202.348 229.233C202.805 228.402 203.335 227.615 203.936 226.868C204.538 226.122 205.2 225.406 205.926 224.72C206.656 224.034 207.389 223.321 208.139 222.574C208.345 222.574 208.565 222.551 208.791 222.51C209.017 222.47 209.176 222.449 209.257 222.449C209.798 222.449 210.274 222.561 210.69 222.791C211.105 223.02 211.507 223.277 211.903 223.568C212.298 223.858 212.703 224.118 213.115 224.348C213.531 224.574 213.987 224.689 214.487 224.689C215.109 224.689 215.73 224.524 216.355 224.193C216.977 223.858 217.588 223.456 218.19 222.98C218.791 222.5 219.382 222.024 219.963 221.547C220.544 221.071 221.105 220.686 221.646 220.395C222.348 219.98 223.014 219.595 223.636 219.243C224.257 218.892 224.852 218.517 225.409 218.122C225.97 217.73 226.541 217.294 227.122 216.818C227.703 216.338 228.305 215.767 228.926 215.105C229.132 213.983 229.477 212.926 229.953 211.929C230.43 210.933 230.669 209.814 230.669 208.568V207.074C230.669 206.99 230.595 206.845 230.45 206.639C230.305 206.433 230.234 206.287 230.234 206.203V203.152C230.234 203.112 230.203 202.916 230.139 202.561C230.078 202.21 229.994 201.804 229.892 201.348C229.788 200.892 229.683 200.436 229.582 199.98C229.477 199.524 229.406 199.149 229.362 198.858C229.321 198.608 229.267 198.297 229.207 197.926C229.146 197.551 229.041 197.21 228.896 196.899C228.75 196.588 228.565 196.318 228.335 196.088C228.105 195.862 227.808 195.747 227.433 195.747H227.247C227.163 195.872 227.007 196.037 226.778 196.243C226.551 196.453 226.321 196.669 226.095 196.899C225.865 197.125 225.649 197.345 225.44 197.551C225.234 197.76 225.109 197.885 225.068 197.926C224.612 198.463 224.257 198.993 224.011 199.514C223.761 200.031 223.49 200.507 223.2 200.943C222.909 201.379 222.558 201.733 222.142 202.004C221.727 202.27 221.126 202.406 220.338 202.406C219.882 202.406 219.538 202.159 219.311 201.659C219.082 201.162 218.916 200.601 218.811 199.98C218.707 199.355 218.646 198.764 218.626 198.206C218.605 197.645 218.595 197.301 218.595 197.179C218.595 196.183 218.7 195.301 218.906 194.534C219.112 193.764 219.392 193.027 219.747 192.324C220.098 191.618 220.504 190.933 220.96 190.27C221.416 189.605 221.913 188.879 222.453 188.091C222.538 188.007 222.629 187.851 222.734 187.625C222.838 187.395 222.889 187.24 222.889 187.156C223.014 187.031 223.169 186.804 223.355 186.473C223.541 186.142 223.676 185.973 223.761 185.973C223.845 185.851 224.031 185.642 224.321 185.351C224.612 185.061 224.923 184.74 225.254 184.385C225.585 184.034 225.909 183.713 226.22 183.422C226.531 183.132 226.727 182.922 226.811 182.801L227.061 182.426C227.142 182.301 227.207 182.179 227.247 182.054C228.034 181.014 229.082 180.331 230.389 180C231.696 179.666 232.973 179.5 234.217 179.5C234.798 179.5 235.308 179.625 235.744 179.875C236.18 180.125 236.646 180.392 237.142 180.683C237.973 181.223 238.636 181.98 239.136 182.956C239.632 183.929 239.963 184.936 240.132 185.973V189.835C240.213 190 240.298 190.406 240.379 191.047C240.463 191.689 240.568 192.135 240.69 192.385C240.774 192.841 240.889 193.318 241.034 193.818C241.18 194.314 241.521 194.564 242.061 194.564C242.517 194.564 242.963 194.419 243.399 194.129C243.835 193.838 244.251 193.507 244.642 193.132C245.038 192.757 245.403 192.385 245.734 192.014C246.065 191.639 246.355 191.348 246.602 191.139C246.73 191.017 246.977 190.797 247.352 190.487C247.723 190.176 248.109 189.835 248.504 189.46C248.896 189.085 249.281 188.723 249.656 188.372C250.028 188.017 250.298 187.781 250.463 187.656C250.504 187.615 250.639 187.5 250.869 187.311C251.095 187.125 251.335 186.939 251.582 186.754C251.832 186.568 252.061 186.389 252.267 186.223C252.473 186.058 252.602 185.973 252.642 185.973C253.555 185.145 254.487 184.22 255.443 183.203C256.396 182.189 257.403 181.233 258.46 180.341C259.521 179.449 260.629 178.703 261.791 178.101C262.953 177.5 264.196 177.199 265.524 177.199H266.646C267.186 177.199 267.538 177.24 267.703 177.321C267.828 177.406 268.014 177.571 268.264 177.821C268.514 178.071 268.771 178.328 269.044 178.598C269.311 178.868 269.571 179.129 269.821 179.375C270.068 179.625 270.257 179.811 270.379 179.936C270.463 179.98 270.558 180.091 270.663 180.277C270.764 180.466 270.815 180.601 270.815 180.683V186.409C270.653 186.699 270.517 186.939 270.413 187.125C270.308 187.311 270.203 187.49 270.102 187.656C269.997 187.821 269.923 187.966 269.882 188.091C269.842 188.132 269.737 188.237 269.571 188.402C269.406 188.568 269.23 188.743 269.044 188.929C268.855 189.118 268.68 189.304 268.514 189.49C268.348 189.679 268.264 189.791 268.264 189.835C268.18 189.916 268.004 190.105 267.737 190.392C267.467 190.683 267.176 190.993 266.862 191.328C266.555 191.659 266.264 191.97 265.994 192.26C265.723 192.551 265.568 192.737 265.524 192.821C265.112 193.318 264.592 193.899 263.97 194.564C263.348 195.226 262.663 195.561 261.916 195.561C261.832 195.561 261.72 195.541 261.575 195.497C261.43 195.456 261.315 195.436 261.23 195.436C261.149 195.311 260.994 195.145 260.764 194.936C260.538 194.73 260.288 194.514 260.017 194.284C259.747 194.054 259.487 193.848 259.24 193.662C258.99 193.473 258.805 193.338 258.68 193.257C258.43 193.257 258.223 193.237 258.055 193.193C257.642 193.112 257.332 193.071 257.122 193.071C257 193.071 256.727 193.112 256.315 193.193C256.146 193.237 255.96 193.257 255.754 193.257C255.669 193.297 255.514 193.422 255.288 193.632C255.058 193.838 254.818 194.068 254.571 194.314C254.321 194.564 254.105 194.801 253.916 195.031C253.73 195.26 253.615 195.392 253.575 195.436C253.49 195.477 253.345 195.561 253.139 195.686C252.933 195.808 252.703 195.943 252.457 196.088C252.207 196.233 251.987 196.368 251.801 196.493C251.615 196.618 251.501 196.699 251.46 196.743C250.588 197.24 249.663 197.852 248.69 198.578C247.713 199.304 246.821 200.115 246.014 201.007C245.203 201.899 244.531 202.862 243.99 203.902C243.45 204.936 243.18 205.997 243.18 207.074C243.18 207.531 243.244 207.977 243.365 208.412C243.494 208.848 243.555 209.294 243.555 209.75C243.555 210.497 243.494 211.243 243.365 211.99C243.244 212.74 243.18 213.507 243.18 214.294C243.18 215.497 243.305 216.713 243.555 217.936C243.805 219.162 243.95 220.375 243.99 221.578C244.115 221.949 244.446 222.139 244.984 222.139H245.609C246.646 222.139 247.548 221.754 248.315 220.987C249.082 220.216 249.757 219.379 250.338 218.466C250.919 217.551 251.436 216.713 251.896 215.946C252.352 215.176 252.808 214.794 253.264 214.794C253.636 214.794 253.926 214.916 254.136 215.166C254.342 215.416 254.511 215.727 254.632 216.098C254.757 216.473 254.832 216.858 254.852 217.25C254.872 217.645 254.882 217.987 254.882 218.281C254.882 218.402 254.872 218.527 254.852 218.652C254.832 218.777 254.818 218.902 254.818 219.024C254.777 219.193 254.757 219.338 254.757 219.46C254.757 219.669 254.727 219.939 254.666 220.27C254.602 220.602 254.521 220.956 254.416 221.328C254.311 221.703 254.22 222.044 254.136 222.355C254.051 222.666 253.99 222.885 253.95 223.01C253.906 223.132 253.781 223.412 253.575 223.848C253.369 224.284 253.129 224.774 252.859 225.311C252.588 225.852 252.321 226.402 252.051 226.96C251.781 227.52 251.582 227.946 251.46 228.237C251.335 228.321 251.159 228.527 250.93 228.858C250.703 229.193 250.548 229.399 250.463 229.483C249.967 230.27 249.511 231.122 249.092 232.034C248.68 232.946 248.223 233.787 247.723 234.554C247.227 235.324 246.625 235.956 245.919 236.453C245.213 236.953 244.301 237.199 243.18 237.199C242.973 237.199 242.639 237.189 242.186 237.169C241.73 237.149 241.271 237.128 240.815 237.108C240.359 237.085 239.933 237.054 239.538 237.014C239.146 236.973 238.906 236.929 238.821 236.889C238.74 236.848 238.565 236.713 238.294 236.487C238.024 236.257 237.734 235.997 237.423 235.706C237.112 235.416 236.811 235.135 236.521 234.868C236.23 234.595 236 234.379 235.835 234.213C235.173 233.466 234.713 232.564 234.467 231.507C234.217 230.446 233.99 229.379 233.781 228.301C233.575 227.22 233.325 226.193 233.034 225.22C232.744 224.243 232.247 223.507 231.541 223.01C231.332 222.841 231.031 222.656 230.639 222.449C230.244 222.243 230.007 222.139 229.923 222.139C229.757 222.139 229.457 222.243 229.021 222.449C228.585 222.656 228.264 222.841 228.055 223.01C226.977 223.838 226.105 224.71 225.44 225.622C224.777 226.537 224.112 227.531 223.45 228.612C222.784 229.439 222.017 230.115 221.146 230.632C220.274 231.152 219.423 231.808 218.595 232.595C218.511 232.635 218.305 232.821 217.973 233.156C217.639 233.487 217.413 233.693 217.288 233.777C216.332 234.899 215.484 235.841 214.737 236.608C213.987 237.379 213.2 238 212.369 238.476C211.541 238.953 210.585 239.297 209.507 239.504C208.43 239.71 207.078 239.814 205.46 239.814H204.838C204.507 239.564 204.132 239.243 203.717 238.848C203.305 238.456 202.899 238.031 202.504 237.574C202.112 237.118 201.757 236.639 201.446 236.142C201.136 235.645 200.96 235.166 200.916 234.71Z" fill="white"/>
<path d="M265.933 268.632V268.321C265.977 268.24 266.018 268.135 266.058 268.01C266.143 267.804 266.244 267.659 266.369 267.575C266.413 267.494 266.494 267.335 266.619 267.108C266.744 266.882 266.879 266.642 267.024 266.392C267.17 266.142 267.301 265.926 267.43 265.74C267.551 265.551 267.636 265.439 267.676 265.396C267.717 265.315 267.771 265.159 267.832 264.929C267.896 264.703 267.967 264.473 268.051 264.247C268.133 264.017 268.217 263.798 268.298 263.592C268.383 263.385 268.467 263.281 268.548 263.281C268.632 263.156 268.764 262.98 268.953 262.75C269.139 262.524 269.295 262.369 269.42 262.284C270.126 261.828 270.737 261.308 271.254 260.727C271.774 260.146 272.305 259.568 272.842 258.987C272.886 258.902 273.041 258.727 273.308 258.456C273.578 258.186 273.859 257.896 274.149 257.585C274.44 257.274 274.72 256.994 274.991 256.747C275.261 256.497 275.437 256.328 275.518 256.247C275.646 256.122 275.842 255.916 276.112 255.625C276.379 255.335 276.649 255.024 276.92 254.693C277.19 254.358 277.426 254.058 277.636 253.787C277.845 253.517 277.967 253.342 278.011 253.26C278.133 253.176 278.288 252.885 278.477 252.389C278.663 251.889 278.798 251.602 278.883 251.517C278.964 251.433 279.18 251.227 279.535 250.892C279.886 250.561 280.106 250.311 280.187 250.146C280.562 249.814 280.747 249.338 280.747 248.717C280.747 248.092 280.852 247.595 281.058 247.22C281.058 247.098 281.153 246.869 281.339 246.537C281.524 246.206 281.714 245.842 281.899 245.446C282.085 245.054 282.274 244.689 282.46 244.358C282.646 244.027 282.741 243.798 282.741 243.676C282.822 243.591 282.916 243.392 283.021 243.081C283.122 242.771 283.176 242.575 283.176 242.49C283.383 241.953 283.693 241.453 284.109 240.997C284.524 240.541 284.795 240 284.916 239.379C284.96 239.338 285.001 239.183 285.045 238.912C285.085 238.642 285.126 238.372 285.166 238.102C285.207 237.835 285.251 237.575 285.291 237.325C285.335 237.078 285.352 236.933 285.352 236.889C285.396 236.764 285.481 236.588 285.602 236.362C285.727 236.132 285.812 236.017 285.852 236.017C286.349 234.814 286.744 233.602 287.035 232.375C287.325 231.152 287.47 229.899 287.47 228.612C287.47 227.406 287.335 226.193 287.065 224.97C286.795 223.747 286.663 222.51 286.663 221.267V220.831C286.785 220.291 286.96 219.669 287.19 218.963C287.42 218.257 287.656 217.531 287.906 216.784C288.156 216.037 288.362 215.301 288.528 214.575C288.693 213.848 288.778 213.237 288.778 212.74V211.804C288.778 211.679 288.734 211.338 288.653 210.777C288.572 210.217 288.487 209.625 288.403 209.004C288.322 208.382 288.237 207.801 288.156 207.26C288.072 206.723 288.031 206.369 288.031 206.203C288.112 205.747 288.217 205.291 288.342 204.835C288.427 204.46 288.497 204.078 288.558 203.683C288.622 203.287 288.693 202.967 288.778 202.717C288.778 202.676 288.849 202.47 288.994 202.095C289.139 201.723 289.214 201.514 289.214 201.473V201.037C289.17 200.787 289.129 200.477 289.089 200.105C289.048 199.73 289.008 199.355 288.964 198.983C288.923 198.608 288.879 198.287 288.839 198.017C288.798 197.747 288.778 197.592 288.778 197.551C288.734 197.47 288.653 197.325 288.528 197.115C288.403 196.909 288.268 196.689 288.122 196.463C287.977 196.233 287.842 196.017 287.72 195.808C287.595 195.602 287.511 195.477 287.47 195.436C287.47 195.311 287.43 194.97 287.345 194.409C287.261 193.848 287.18 193.247 287.099 192.605C287.014 191.96 286.93 191.358 286.849 190.798C286.764 190.237 286.703 189.875 286.663 189.71C286.619 189.585 286.518 189.325 286.349 188.933C286.183 188.537 285.997 188.102 285.788 187.625C285.582 187.146 285.396 186.689 285.231 186.254C285.062 185.818 284.96 185.537 284.916 185.412C284.916 185.331 284.866 185.061 284.764 184.605C284.66 184.149 284.565 183.879 284.484 183.794C284.44 183.754 284.359 183.639 284.234 183.453C284.109 183.267 283.974 183.081 283.828 182.892C283.683 182.706 283.548 182.531 283.426 182.365C283.298 182.2 283.217 182.095 283.176 182.054C282.717 181.264 282.356 180.426 282.085 179.534C281.815 178.639 281.558 177.737 281.308 176.825C281.058 175.912 280.791 175.021 280.501 174.149C280.21 173.277 279.815 172.467 279.318 171.72C279.234 171.595 279.045 171.369 278.758 171.037C278.467 170.703 278.156 170.342 277.822 169.946C277.491 169.551 277.17 169.189 276.859 168.858C276.548 168.524 276.349 168.298 276.268 168.173C276.143 168.007 275.822 167.551 275.301 166.804C274.781 166.058 274.234 165.247 273.653 164.375C273.072 163.504 272.541 162.686 272.065 161.916C271.589 161.149 271.308 160.662 271.224 160.456C271.058 160.331 270.832 160.051 270.541 159.615C270.251 159.179 270.021 158.919 269.856 158.838C269.771 158.713 269.68 158.608 269.575 158.524C269.474 158.443 269.42 158.358 269.42 158.277C269.339 158.233 269.193 158.152 268.984 158.027C268.778 157.902 268.558 157.777 268.332 157.652C268.102 157.527 267.872 157.406 267.646 157.281C267.42 157.156 267.285 157.051 267.241 156.97C266.95 156.76 266.609 156.358 266.214 155.754C265.818 155.152 265.447 154.49 265.092 153.764C264.741 153.037 264.44 152.321 264.19 151.615C263.943 150.912 263.818 150.331 263.818 149.872C263.818 149.5 263.923 149.064 264.129 148.568C264.335 148.068 264.67 147.818 265.126 147.818C265.457 147.818 265.663 147.892 265.747 148.037C265.832 148.183 265.872 148.358 265.872 148.568V149.436C265.997 149.436 266.244 149.426 266.619 149.406C266.994 149.385 267.396 149.365 267.832 149.345C268.268 149.325 268.714 149.301 269.17 149.281C269.629 149.26 270.001 149.25 270.291 149.25H270.666C271.079 149.294 271.555 149.48 272.095 149.811C272.636 150.142 273.197 150.527 273.778 150.963C274.359 151.399 274.906 151.825 275.426 152.24C275.943 152.652 276.369 152.943 276.703 153.112C276.785 153.112 276.94 153.183 277.17 153.328C277.396 153.473 277.572 153.544 277.7 153.544C277.741 153.588 277.812 153.733 277.916 153.98C278.021 154.23 278.143 154.51 278.288 154.821C278.433 155.132 278.558 155.412 278.663 155.662C278.768 155.909 278.839 156.054 278.883 156.098C279.129 156.554 279.481 156.929 279.94 157.22C280.396 157.507 280.862 157.787 281.339 158.058C281.815 158.328 282.274 158.619 282.71 158.929C283.143 159.24 283.487 159.605 283.734 160.017C283.734 160.061 283.768 160.196 283.828 160.423C283.893 160.652 283.964 160.892 284.048 161.139C284.129 161.389 284.214 161.615 284.295 161.825C284.379 162.031 284.44 162.135 284.484 162.135C284.484 162.216 284.629 162.436 284.916 162.787C285.207 163.142 285.352 163.358 285.352 163.443V164.75C285.396 164.916 285.521 165.081 285.727 165.247C285.933 165.412 286.153 165.568 286.383 165.713C286.609 165.858 286.825 165.994 287.035 166.119C287.244 166.244 287.389 166.348 287.47 166.429C288.633 167.301 289.41 168.287 289.805 169.385C290.2 170.487 290.582 171.659 290.957 172.902C290.957 172.987 291.028 173.142 291.173 173.372C291.318 173.598 291.393 173.774 291.393 173.899C291.393 173.939 291.484 174.085 291.673 174.335C291.859 174.585 292.045 174.845 292.231 175.112C292.42 175.382 292.606 175.652 292.791 175.923C292.981 176.193 293.072 176.348 293.072 176.389C293.406 176.885 293.663 177.375 293.849 177.852C294.038 178.328 294.193 178.784 294.318 179.22C294.443 179.656 294.575 180.112 294.72 180.591C294.866 181.068 295.041 181.554 295.251 182.054C295.46 182.51 295.687 182.936 295.937 183.328C296.183 183.723 296.413 184.108 296.619 184.48C296.828 184.855 297.004 185.26 297.149 185.693C297.295 186.129 297.386 186.619 297.43 187.156V189.71C297.43 189.791 297.47 189.946 297.555 190.176C297.636 190.406 297.731 190.642 297.835 190.892C297.937 191.139 298.041 191.369 298.146 191.575C298.247 191.784 298.322 191.909 298.362 191.95C298.362 192.24 298.423 192.51 298.551 192.76C298.633 192.926 298.714 193.091 298.798 193.257V197.179C298.842 198.507 298.974 199.74 299.203 200.882C299.43 202.024 299.68 203.173 299.95 204.335C300.22 205.497 300.46 206.669 300.666 207.852C300.872 209.034 300.977 210.311 300.977 211.679V211.804C300.937 211.929 300.872 212.2 300.791 212.615C300.707 213.031 300.606 213.477 300.477 213.953C300.356 214.429 300.251 214.875 300.166 215.291C300.085 215.706 300.021 215.977 299.981 216.102V221.389C299.981 221.433 299.96 221.548 299.92 221.733C299.876 221.919 299.825 222.139 299.764 222.385C299.7 222.635 299.649 222.865 299.609 223.071C299.568 223.281 299.545 223.426 299.545 223.507C299.545 223.632 299.525 223.902 299.484 224.318C299.44 224.73 299.41 225.179 299.389 225.656C299.369 226.132 299.339 226.578 299.295 226.993C299.254 227.406 299.234 227.7 299.234 227.865C298.653 228.196 298.217 228.757 297.927 229.544C297.636 230.335 297.43 231.206 297.305 232.159C297.18 233.115 297.079 234.058 296.994 234.99C296.91 235.926 296.788 236.659 296.619 237.2C296.497 237.575 296.318 238.102 296.092 238.787C295.862 239.473 295.636 240.169 295.406 240.872C295.177 241.578 294.981 242.2 294.815 242.74C294.649 243.281 294.545 243.591 294.504 243.676C294.46 243.798 294.359 244.027 294.193 244.358C294.028 244.689 293.842 245.054 293.633 245.446C293.423 245.841 293.237 246.206 293.072 246.537C292.906 246.868 292.802 247.098 292.761 247.22C292.68 247.304 292.585 247.595 292.481 248.091C292.376 248.591 292.325 248.882 292.325 248.966C292.244 249.007 292.149 249.129 292.045 249.338L291.829 249.774C291.829 249.855 291.764 249.98 291.643 250.146C291.514 250.311 291.383 250.49 291.237 250.676C291.092 250.862 290.957 251.037 290.832 251.206C290.707 251.372 290.643 251.473 290.643 251.517C290.521 251.602 290.416 251.818 290.335 252.169C290.251 252.524 290.21 252.74 290.21 252.825C290.126 252.946 290.011 253.125 289.866 253.352C289.72 253.581 289.589 253.831 289.46 254.098C289.339 254.368 289.214 254.629 289.089 254.879C288.964 255.129 288.862 255.291 288.778 255.375C288.487 255.75 287.947 256.382 287.16 257.274C286.372 258.166 285.541 259.118 284.67 260.139C283.798 261.156 282.977 262.108 282.21 263C281.443 263.892 280.913 264.524 280.622 264.899C280.622 264.939 280.511 265.135 280.281 265.49C280.052 265.841 279.92 266.061 279.876 266.142C279.42 266.848 278.899 267.554 278.322 268.26C277.741 268.966 277.119 269.608 276.454 270.189C275.791 270.771 275.082 271.247 274.339 271.622C273.592 271.993 272.781 272.183 271.91 272.183C271.494 272.183 270.957 272.088 270.291 271.902C269.629 271.716 268.974 271.456 268.332 271.125C267.687 270.791 267.129 270.419 266.649 270.004C266.173 269.588 265.933 269.132 265.933 268.632Z" fill="white"/>
</svg>
