<svg width="388" height="420" viewBox="0 0 388 420" fill="none" xmlns="http://www.w3.org/2000/svg">
<g clip-path="url(#clip0_2011_94821)">
<mask id="mask0_2011_94821" style="mask-type:luminance" maskUnits="userSpaceOnUse" x="-34" y="-17" width="455" height="454">
<path d="M-33.0459 -16.8521H420.515V436.852H-33.0459V-16.8521Z" fill="white"/>
</mask>
<g mask="url(#mask0_2011_94821)">
<path d="M201.102 317.575L180.28 287.586C176.725 282.943 171.816 282.699 169.722 285.841C168.991 286.938 168.662 287.722 169.001 289.608L177.96 316.541L145.715 270.833L160.186 284.714C161.672 286.093 166.309 290.256 166.631 290.081C167.011 289.875 166.403 287.484 166.93 285.17C167.275 283.656 170.056 279.732 176.117 281.021C178.339 281.494 180.302 282.772 181.766 284.509C184.065 287.237 188.033 292.28 191.34 298.194L201.102 317.575ZM129.131 286.06C128.037 284.907 127.111 283.61 126.363 282.207C123.004 275.909 121.049 269.491 121.049 269.491L128.794 283.119L141.643 299.253L129.131 286.06ZM287.534 295.843C281.482 293.351 272.094 287.227 263.887 279.701C256.469 272.898 251.225 262.781 249.245 260.712C248.947 260.4 248.453 259.899 248.177 259.567C241.39 251.389 227.647 245.55 216.08 248.291C216.058 248.297 216.036 248.304 216.013 248.31L196.73 255.149C195.327 255.647 193.895 256.061 192.442 256.387C192.391 256.392 192.341 256.397 192.289 256.401L175.149 255.701C168.991 255.45 162.878 256.844 157.437 259.74L143.375 267.225C143.181 267.328 142.944 267.306 142.773 267.169L133.174 259.478C132.901 259.26 132.613 259.056 132.302 258.895C129.251 257.315 125.736 257.419 122.867 258.912C120.667 260.055 119.632 262.527 120.175 264.816C120.29 265.302 119.787 265.695 119.361 265.434L111.344 260.513C108.748 259.139 105.753 259.605 103.699 261.321C102.003 262.738 102.433 263.869 103.681 266.827C103.687 266.84 103.693 266.854 103.699 266.867L112.091 283.149C113.729 286.326 130.168 297.935 136.862 302.23C138.238 303.113 139.843 303.576 141.478 303.576H141.724C143.387 303.576 144.964 304.311 146.032 305.586L155.355 316.709C158.607 320.589 163.551 322.628 168.59 322.171C168.603 322.169 168.615 322.167 168.628 322.167L175.988 321.06C176.931 320.919 177.881 320.826 178.833 320.785C179.836 320.741 180.748 321.371 181.069 322.322L185.251 334.684C185.544 335.551 186.01 336.359 186.658 337.006C191.559 341.891 199.148 341.911 204.142 337.924C206.928 335.701 207.537 332.987 207.887 328.561C207.162 321.905 200.327 306.728 199.599 298.296C198.654 287.364 200.616 282.463 203.512 280.243C205.886 278.424 209.138 279.254 210.961 280.44C214.907 283.005 221.598 290.077 224.769 297.009C226.054 299.817 227.594 307.583 227.594 307.583C227.594 307.583 222.631 298.419 222.035 297.556C218.304 292.145 214.43 285.735 209.277 283.61C206.88 282.621 205.2 283.495 203.969 285.934C202.432 290.412 202.774 296.462 202.774 296.462C203.56 302.65 205.15 308.115 206.704 311.981L212.239 330.03C213.195 332.546 215.949 335.968 218.293 337.291C219.226 337.816 220.038 338.267 220.323 338.47C224.053 341.124 229.474 339.668 231.299 335.364C231.564 334.738 231.704 334.065 231.787 333.39L236.696 293.659C236.928 291.783 239.008 290.762 240.633 291.726L253.421 304.036C256.797 306.504 260.47 308.551 263.877 309.678L272.381 312.21C276.257 313.365 280 313.169 283.122 312.536C283.123 312.536 284.274 312.233 284.274 312.233C287.97 311.22 291.447 306.411 291.737 305.8C293.907 301.229 293.24 298.194 287.534 295.843Z" fill="white"/>
</g>
<mask id="mask1_2011_94821" style="mask-type:luminance" maskUnits="userSpaceOnUse" x="-34" y="-17" width="455" height="454">
<path d="M-33.0459 -16.8521H420.515V436.852H-33.0459V-16.8521Z" fill="white"/>
</mask>
<g mask="url(#mask1_2011_94821)">
<path d="M194.983 95.7298H194.982C194.413 102.238 192.326 115.939 182.793 130.154C173.538 143.958 161.96 151.244 156.131 154.415C162.487 159.156 170.372 166.252 177.318 176.408C192.411 198.477 193.712 221.316 193.616 231.64C193.728 221.315 195.487 198.447 211.028 176.073C218.18 165.778 226.209 158.525 232.662 153.657C226.896 150.6 215.462 143.543 206.481 129.92C197.234 115.891 195.421 102.229 194.983 95.7298Z" fill="white"/>
</g>
<mask id="mask2_2011_94821" style="mask-type:luminance" maskUnits="userSpaceOnUse" x="-34" y="-17" width="455" height="454">
<path d="M-33.0459 -16.8521H420.515V436.852H-33.0459V-16.8521Z" fill="white"/>
</mask>
<g mask="url(#mask2_2011_94821)">
<path d="M154.155 198.992C153.981 200.977 153.345 205.157 150.437 209.494C147.613 213.704 144.081 215.927 142.303 216.894C144.241 218.34 146.647 220.504 148.766 223.602C153.37 230.335 153.767 237.302 153.738 240.452C153.772 237.302 154.309 230.326 159.049 223.5C161.231 220.36 163.681 218.148 165.649 216.663C163.89 215.73 160.402 213.578 157.662 209.422C154.842 205.141 154.289 200.974 154.155 198.992Z" fill="white"/>
</g>
<mask id="mask3_2011_94821" style="mask-type:luminance" maskUnits="userSpaceOnUse" x="-34" y="-17" width="455" height="454">
<path d="M-33.0459 -16.8521H420.515V436.852H-33.0459V-16.8521Z" fill="white"/>
</mask>
<g mask="url(#mask3_2011_94821)">
<path d="M243.58 89.5152C243.407 91.5003 242.77 95.6804 239.862 100.017C237.039 104.227 233.506 106.45 231.728 107.417C233.667 108.864 236.073 111.028 238.191 114.126C242.796 120.858 243.192 127.825 243.163 130.975C243.197 127.825 243.734 120.849 248.474 114.024C250.657 110.883 253.106 108.671 255.074 107.186C253.315 106.254 249.827 104.101 247.088 99.9452C244.267 95.6649 243.714 91.4977 243.58 89.5152Z" fill="white"/>
</g>
<mask id="mask4_2011_94821" style="mask-type:luminance" maskUnits="userSpaceOnUse" x="-34" y="-17" width="455" height="454">
<path d="M-33.0459 -16.8521H420.515V436.852H-33.0459V-16.8521Z" fill="white"/>
</mask>
<g mask="url(#mask4_2011_94821)">
<path d="M114.432 123.858C114.259 125.844 113.622 130.024 110.714 134.36C107.891 138.571 104.358 140.793 102.58 141.76C104.519 143.207 106.925 145.371 109.043 148.469C113.648 155.201 114.044 162.168 114.015 165.318C114.05 162.168 114.586 155.193 119.326 148.367C121.509 145.227 123.958 143.014 125.926 141.53C124.167 140.597 120.679 138.444 117.94 134.288C115.119 130.008 114.566 125.841 114.432 123.858Z" fill="white"/>
</g>
<mask id="mask5_2011_94821" style="mask-type:luminance" maskUnits="userSpaceOnUse" x="-34" y="-17" width="455" height="454">
<path d="M-33.0459 -16.8521H420.515V436.852H-33.0459V-16.8521Z" fill="white"/>
</mask>
<g mask="url(#mask5_2011_94821)">
<path d="M157.354 78.3729C157.18 80.3579 156.543 84.5381 153.635 88.8746C150.812 93.085 147.279 95.3077 145.501 96.2747C147.44 97.7214 149.846 99.8854 151.964 102.984C156.569 109.716 156.966 116.683 156.936 119.833C156.971 116.683 157.507 109.707 162.248 102.882C164.43 99.741 166.879 97.5287 168.847 96.044C167.088 95.1115 163.601 92.9588 160.861 88.8029C158.04 84.5225 157.488 80.3554 157.354 78.3729Z" fill="white"/>
</g>
<mask id="mask6_2011_94821" style="mask-type:luminance" maskUnits="userSpaceOnUse" x="-34" y="-17" width="455" height="454">
<path d="M-33.0459 -16.8521H420.515V436.852H-33.0459V-16.8521Z" fill="white"/>
</mask>
<g mask="url(#mask6_2011_94821)">
<path d="M140.638 182.089C140.548 183.118 140.218 185.282 138.712 187.527C137.25 189.707 135.421 190.858 134.5 191.36C135.504 192.108 136.75 193.229 137.847 194.834C140.232 198.32 140.437 201.927 140.422 203.558C140.439 201.927 140.717 198.315 143.173 194.781C144.302 193.155 145.57 192.009 146.589 191.24C145.679 190.757 143.872 189.643 142.454 187.49C140.993 185.274 140.707 183.116 140.638 182.089Z" fill="white"/>
</g>
<mask id="mask7_2011_94821" style="mask-type:luminance" maskUnits="userSpaceOnUse" x="-34" y="-17" width="455" height="454">
<path d="M-33.0459 -16.8521H420.515V436.852H-33.0459V-16.8521Z" fill="white"/>
</mask>
<g mask="url(#mask7_2011_94821)">
<path d="M247.951 208.363C247.861 209.391 247.531 211.555 246.026 213.8C244.564 215.982 242.735 217.132 241.814 217.633C242.818 218.382 244.064 219.502 245.161 221.107C247.545 224.593 247.75 228.201 247.735 229.831C247.753 228.201 248.031 224.588 250.486 221.055C251.615 219.428 252.883 218.282 253.903 217.513C252.992 217.031 251.186 215.916 249.767 213.763C248.306 211.547 248.02 209.39 247.951 208.363Z" fill="white"/>
</g>
<mask id="mask8_2011_94821" style="mask-type:luminance" maskUnits="userSpaceOnUse" x="-34" y="-17" width="455" height="454">
<path d="M-33.0459 -16.8521H420.515V436.852H-33.0459V-16.8521Z" fill="white"/>
</mask>
<g mask="url(#mask8_2011_94821)">
<path d="M255.241 186.776C255.151 187.804 254.821 189.968 253.316 192.214C251.854 194.394 250.025 195.545 249.104 196.046C250.108 196.795 251.354 197.915 252.451 199.52C254.835 203.006 255.04 206.614 255.025 208.244C255.043 206.614 255.321 203.001 257.776 199.468C258.905 197.841 260.173 196.695 261.193 195.926C260.282 195.444 258.476 194.329 257.057 192.176C255.596 189.961 255.31 187.803 255.241 186.776Z" fill="white"/>
</g>
<mask id="mask9_2011_94821" style="mask-type:luminance" maskUnits="userSpaceOnUse" x="-34" y="-17" width="455" height="454">
<path d="M-33.0459 -16.8521H420.515V436.852H-33.0459V-16.8521Z" fill="white"/>
</mask>
<g mask="url(#mask9_2011_94821)">
<path d="M260.528 120.24C260.439 121.269 260.109 123.433 258.603 125.678C257.141 127.859 255.312 129.009 254.391 129.511C255.395 130.259 256.641 131.38 257.738 132.985C260.122 136.471 260.327 140.078 260.312 141.709C260.33 140.078 260.608 136.466 263.063 132.932C264.192 131.306 265.461 130.16 266.48 129.39C265.569 128.908 263.763 127.793 262.344 125.641C260.884 123.425 260.598 121.267 260.528 120.24Z" fill="white"/>
</g>
</g>
<defs>
<clipPath id="clip0_2011_94821">
<rect width="387.47" height="420" fill="white"/>
</clipPath>
</defs>
</svg>
