<svg width="388" height="420" viewBox="0 0 388 420" fill="none" xmlns="http://www.w3.org/2000/svg">
<path d="M195.427 113.146C197.538 113.527 199.683 113.774 201.754 114.318C206.879 115.659 211.244 118.365 214.933 122.149C218.832 126.149 221.413 130.899 222.599 136.358C223.981 142.73 223.352 148.929 220.653 154.885C217.964 160.814 213.737 165.362 208.079 168.541C203.261 171.247 198.052 172.48 192.528 172.227C185.133 171.889 178.714 169.166 173.356 164.061C168.474 159.409 165.433 153.72 164.548 147.027C163.109 136.179 166.643 127.118 174.906 119.99C179.082 116.385 184.018 114.267 189.498 113.487C190.352 113.365 191.21 113.26 192.065 113.146H195.427Z" fill="white"/>
<path d="M193.849 241.693C194.318 238.828 194.788 235.963 195.257 233.098C196.632 224.71 198.007 216.321 199.382 207.929C200.751 199.568 202.119 191.203 203.487 182.841C203.642 181.902 203.774 180.96 203.97 180.03C204.247 178.699 205.291 177.808 206.659 177.838C211.724 177.949 216.794 177.99 221.852 178.284C225.305 178.483 228.747 178.987 232.176 179.493C234.822 179.882 237.078 181.027 239.095 182.933C248.129 191.473 257.271 199.899 266.376 208.362C266.578 208.551 266.791 208.726 267.159 209.054C267.372 208.764 267.541 208.466 267.771 208.23C276.193 199.588 284.619 190.946 293.051 182.314C298.044 177.199 305.997 176.5 311.757 180.649C318.278 185.345 319.389 195.196 313.872 201.037C308.24 207 302.416 212.777 296.669 218.632C290.173 225.243 283.69 231.868 277.169 238.453C272.068 243.608 263.555 244.095 258.105 239.588C254.139 236.304 250.186 233 246.22 229.713C243.332 227.321 240.433 224.936 237.541 222.551C237.376 222.416 237.193 222.294 236.838 222.034V223.321C236.838 249.919 236.838 276.52 236.838 303.118C236.838 303.568 236.838 304.017 236.788 304.46C236.646 305.767 235.676 306.713 234.365 306.835C234.058 306.865 233.751 306.851 233.44 306.851C207.011 306.855 180.578 306.855 154.146 306.851C151.68 306.851 150.737 305.919 150.737 303.47C150.737 276.676 150.737 249.878 150.737 223.085V221.966C150.379 222.24 150.139 222.412 149.909 222.598C143.055 228.277 136.23 233.993 129.335 239.625C123.93 244.041 115.267 243.605 110.196 238.392C100.906 228.838 91.5276 219.365 82.1864 209.858C79.4195 207.041 76.5951 204.28 73.9161 201.385C70.2776 197.449 69.1762 192.794 70.7674 187.682C72.3891 182.493 76.0242 179.274 81.3587 178.257C86.3891 177.297 90.8418 178.639 94.4735 182.355C102.906 190.99 111.325 199.632 119.747 208.274C119.963 208.493 120.146 208.743 120.392 209.034C120.7 208.76 120.926 208.564 121.146 208.358C130.392 199.76 139.653 191.172 148.872 182.541C150.23 181.27 151.784 180.493 153.534 180.024C157.936 178.845 162.453 178.436 166.98 178.21C171.119 178.003 175.264 177.932 179.406 177.858C180.132 177.848 180.892 178.061 181.595 178.294C182.663 178.649 183.247 179.436 183.436 180.574C184.392 186.426 185.376 192.27 186.355 198.118C187.781 206.669 189.213 215.22 190.642 223.77C191.622 229.618 192.599 235.466 193.575 241.314C193.598 241.443 193.636 241.568 193.666 241.693C193.727 241.693 193.788 241.693 193.849 241.693Z" fill="white"/>
<path d="M289.77 169.345C286.679 170.426 285.706 173.574 283.371 175.429C282.077 174.24 280.78 173.058 279.486 171.872C270.023 163.186 260.561 154.504 251.101 145.814C249.486 144.335 248.804 142.517 249.365 140.365C249.912 138.26 251.307 136.933 253.429 136.456C255.463 136 257.165 136.699 258.604 138.142C260.78 140.321 262.959 142.497 265.135 144.672C273.091 152.625 281.047 160.581 289 168.534C289.233 168.767 289.452 169.01 289.77 169.345Z" fill="white"/>
</svg>
