<svg width="388" height="420" viewBox="0 0 388 420" fill="none" xmlns="http://www.w3.org/2000/svg">
<g clip-path="url(#clip0_2011_93997)">
<mask id="mask0_2011_93997" style="mask-type:luminance" maskUnits="userSpaceOnUse" x="-34" y="-17" width="455" height="454">
<path d="M-33.0444 -16.8517H420.516V436.852H-33.0444V-16.8517Z" fill="white"/>
</mask>
<g mask="url(#mask0_2011_93997)">
<path d="M200.287 360.327C198.214 360.45 196.028 360.522 193.736 360.521C191.446 360.521 189.261 360.45 187.189 360.327V114.309H200.287V360.327Z" fill="white"/>
</g>
<mask id="mask1_2011_93997" style="mask-type:luminance" maskUnits="userSpaceOnUse" x="-34" y="-17" width="455" height="454">
<path d="M-33.0444 -16.8517H420.516V436.852H-33.0444V-16.8517Z" fill="white"/>
</mask>
<g mask="url(#mask1_2011_93997)">
<path d="M193.738 69.5999C194.548 80.3168 197.142 96.6105 205.697 114.397C211.462 126.382 218.264 135.572 223.977 142.135C218.093 139.959 209.403 135.8 201.367 127.763C198.172 124.567 195.676 121.354 193.735 118.438H193.738C191.797 121.354 189.301 124.567 186.106 127.763C178.071 135.8 169.38 139.959 163.496 142.135C169.209 135.572 176.011 126.382 181.776 114.397C190.332 96.6105 192.925 80.3168 193.735 69.5999" fill="white"/>
</g>
<mask id="mask2_2011_93997" style="mask-type:luminance" maskUnits="userSpaceOnUse" x="-34" y="-17" width="455" height="454">
<path d="M-33.0444 -16.8517H420.516V436.852H-33.0444V-16.8517Z" fill="white"/>
</mask>
<g mask="url(#mask2_2011_93997)">
<path d="M121.226 85.0547C127.221 88.5175 142.318 98.3616 149.599 117.374C152.262 124.333 153.207 130.764 153.465 135.85C153.363 134.379 152.78 128.441 147.903 124.207C145.776 122.361 143.555 121.466 142.031 121.013C141.5 123.003 140.771 125.157 139.765 127.401C136.247 135.253 131.008 140.475 127.2 143.577C129.189 137.882 131.992 127.487 130.805 114.419C129.542 100.514 124.372 90.309 121.226 85.0547Z" fill="white"/>
</g>
<mask id="mask3_2011_93997" style="mask-type:luminance" maskUnits="userSpaceOnUse" x="-34" y="-17" width="455" height="454">
<path d="M-33.0444 -16.8517H420.516V436.852H-33.0444V-16.8517Z" fill="white"/>
</mask>
<g mask="url(#mask3_2011_93997)">
<path d="M138.015 114.316C147.079 113.801 148.933 145.226 147.697 156.662C146.634 166.501 142.985 186.127 148.488 195.468C152.881 202.92 160.539 209.621 171.916 217.122C180.811 222.985 189.721 226.93 193.738 235.895V262.889C189.518 246.995 160.776 226.784 145.153 211.18C138.14 204.176 134.156 194.617 134.456 184.709C135.164 161.307 149.329 151.897 138.015 114.316Z" fill="white"/>
</g>
<mask id="mask4_2011_93997" style="mask-type:luminance" maskUnits="userSpaceOnUse" x="-34" y="-17" width="455" height="454">
<path d="M-33.0444 -16.8517H420.516V436.852H-33.0444V-16.8517Z" fill="white"/>
</mask>
<g mask="url(#mask4_2011_93997)">
<path d="M266.25 85.0547C260.254 88.5175 245.157 98.3616 237.877 117.374C235.213 124.333 234.268 130.764 234.011 135.85C234.113 134.379 234.696 128.441 239.573 124.207C241.7 122.361 243.92 121.466 245.444 121.013C245.975 123.003 246.704 125.157 247.71 127.401C251.229 135.253 256.468 140.475 260.276 143.577C258.286 137.882 255.484 127.487 256.671 114.419C257.934 100.514 263.103 90.309 266.25 85.0547Z" fill="white"/>
</g>
<mask id="mask5_2011_93997" style="mask-type:luminance" maskUnits="userSpaceOnUse" x="-34" y="-17" width="455" height="454">
<path d="M-33.0444 -16.8517H420.516V436.852H-33.0444V-16.8517Z" fill="white"/>
</mask>
<g mask="url(#mask5_2011_93997)">
<path d="M249.461 114.316C240.397 113.801 238.543 145.226 239.779 156.662C240.842 166.501 244.491 186.127 238.988 195.468C234.595 202.92 226.937 209.621 215.56 217.122C206.665 222.985 197.755 226.93 193.738 235.895V262.889C197.958 246.995 226.7 226.784 242.323 211.18C249.336 204.176 253.32 194.617 253.02 184.709C252.312 161.307 238.147 151.897 249.461 114.316Z" fill="white"/>
</g>
</g>
<defs>
<clipPath id="clip0_2011_93997">
<rect width="387.47" height="420" fill="white"/>
</clipPath>
</defs>
</svg>
