<svg width="388" height="420" viewBox="0 0 388 420" fill="none" xmlns="http://www.w3.org/2000/svg">
<path d="M194.334 162.257C194.334 187.977 215.186 208.828 240.905 208.828C258.598 208.828 273.987 198.96 281.868 184.429C276.003 152.122 249.953 126.852 217.257 122.142C203.541 130.247 194.334 145.173 194.334 162.257Z" fill="white"/>
<path d="M169.294 149.135C169.294 146.541 169.416 143.973 169.635 141.436C158.804 153.477 152.209 169.406 152.209 186.875C152.209 224.416 182.642 254.848 220.182 254.848C238.277 254.848 254.723 247.774 266.902 236.24C263.642 236.608 260.324 236.804 256.963 236.804C208.547 236.804 169.294 197.554 169.294 149.135Z" fill="white"/>
<path d="M128.574 186.878C128.574 163.828 137.058 142.76 151.074 126.628C123.868 142.588 105.598 172.135 105.598 205.956C105.598 256.713 146.743 297.858 197.5 297.858C225.21 297.858 250.051 285.595 266.902 266.203C253.277 274.193 237.412 278.78 220.477 278.78C169.72 278.78 128.574 237.635 128.574 186.878Z" fill="white"/>
</svg>
