<svg width="388" height="420" viewBox="0 0 388 420" fill="none" xmlns="http://www.w3.org/2000/svg">
<path d="M101.693 166.686C77.7703 166.686 58.3784 186.078 58.3784 210C58.3784 233.922 77.7703 253.314 101.693 253.314C125.615 253.314 145.007 233.922 145.007 210C145.007 186.078 125.615 166.686 101.693 166.686ZM101.693 181.122C117.615 181.122 130.571 194.078 130.571 210C130.571 225.922 117.615 238.875 101.693 238.875C85.7703 238.875 72.8176 225.922 72.8176 210C72.8176 194.078 85.7703 181.122 101.693 181.122Z" fill="white"/>
<path d="M108.912 242.341H94.4727V174.247H108.912V242.341Z" fill="white"/>
<path d="M193.733 156.949C179.621 156.949 168.142 145.47 168.142 131.358C168.142 117.247 179.621 105.764 193.733 105.764C207.844 105.764 219.324 117.247 219.324 131.358C219.324 145.47 207.844 156.949 193.733 156.949Z" fill="white"/>
<path d="M193.733 88.4697C170.047 88.4697 150.845 107.669 150.845 131.358C150.845 155.044 170.047 174.247 193.733 174.247C217.419 174.247 236.622 155.044 236.622 131.358C236.622 107.669 217.419 88.4697 193.733 88.4697ZM193.733 123.064C198.308 123.064 202.027 126.784 202.027 131.358C202.027 135.933 198.308 139.652 193.733 139.652C189.159 139.652 185.439 135.933 185.439 131.358C185.439 126.784 189.159 123.064 193.733 123.064Z" fill="white"/>
<path d="M193.733 313.061C189.831 313.061 186.665 309.895 186.665 305.993V234.78C186.665 230.878 189.831 227.716 193.733 227.716C197.635 227.716 200.797 230.878 200.797 234.78V305.993C200.797 309.895 197.635 313.061 193.733 313.061Z" fill="white"/>
<path d="M171.125 292.997C167.223 292.997 164.061 289.835 164.061 285.929V254.845C164.061 250.943 167.223 247.781 171.125 247.781C175.027 247.781 178.189 250.943 178.189 254.845V285.929C178.189 289.835 175.027 292.997 171.125 292.997Z" fill="white"/>
<path d="M216.341 292.997C212.439 292.997 209.277 289.835 209.277 285.929V254.845C209.277 250.943 212.439 247.781 216.341 247.781C220.243 247.781 223.405 250.943 223.405 254.845V285.929C223.405 289.835 220.243 292.997 216.341 292.997Z" fill="white"/>
<path d="M305.29 226.389C296.24 226.389 288.902 219.051 288.902 210C288.902 200.949 296.24 193.612 305.29 193.612C314.341 193.612 321.679 200.949 321.679 210C321.679 219.051 314.341 226.389 305.29 226.389Z" fill="white"/>
<path d="M267.051 193.064C258 193.064 250.662 185.727 250.662 176.676C250.662 167.625 258 160.291 267.051 160.291C276.105 160.291 283.439 167.625 283.439 176.676C283.439 185.727 276.105 193.064 267.051 193.064Z" fill="white"/>
<path d="M267.051 259.71C258 259.71 250.662 252.372 250.662 243.321C250.662 234.27 258 226.933 267.051 226.933C276.105 226.933 283.439 234.27 283.439 243.321C283.439 252.372 276.105 259.71 267.051 259.71Z" fill="white"/>
</svg>
