<svg width="388" height="420" viewBox="0 0 388 420" fill="none" xmlns="http://www.w3.org/2000/svg">
<path d="M179.985 204.981V233.63H94.053V204.981H122.296V154.265C121.097 155.853 119.235 157.475 116.715 159.13C114.202 160.789 111.384 162.316 108.269 163.711C105.151 165.1 101.965 166.225 98.7151 167.089C95.4719 167.954 92.5867 168.387 90.0665 168.387V138.941C92.1915 138.941 94.9448 138.211 98.3232 136.752C101.702 135.292 105.046 133.535 108.364 131.481C111.678 129.427 114.661 127.343 117.31 125.225C119.965 123.1 121.627 121.373 122.296 120.049H154.715V204.981H179.985Z" fill="white"/>
<path d="M297.74 175.346C297.74 184.103 296.409 192.164 293.754 199.522C291.105 206.873 287.46 213.238 282.822 218.616C278.18 223.988 272.707 228.164 266.403 231.143C260.105 234.123 253.244 235.616 245.822 235.616C238.396 235.616 231.501 234.123 225.132 231.143C218.771 228.164 213.267 223.988 208.619 218.616C203.977 213.238 200.365 206.873 197.781 199.522C195.193 192.164 193.903 184.103 193.903 175.346C193.903 166.599 195.193 158.545 197.781 151.184C200.365 143.826 203.977 137.461 208.619 132.089C213.267 126.711 218.771 122.501 225.132 119.454C231.501 116.4 238.396 114.873 245.822 114.873C253.244 114.873 260.105 116.4 266.403 119.454C272.707 122.501 278.18 126.711 282.822 132.089C287.46 137.461 291.105 143.826 293.754 151.184C296.409 158.545 297.74 166.599 297.74 175.346ZM265.713 175.346C265.713 166.069 263.855 158.545 260.146 152.778C256.433 147.005 251.659 144.116 245.822 144.116C239.72 144.116 234.849 147.005 231.2 152.778C227.551 158.545 225.727 166.069 225.727 175.346C225.727 184.626 227.551 192.116 231.2 197.819C234.849 203.522 239.72 206.373 245.822 206.373C251.659 206.373 256.433 203.522 260.146 197.819C263.855 192.116 265.713 184.626 265.713 175.346Z" fill="white"/>
<path d="M219.708 308.925V324.493H173.005V308.925H188.357V281.358C187.708 282.222 186.698 283.108 185.33 284.006C183.958 284.908 182.428 285.736 180.735 286.493C179.039 287.249 177.309 287.864 175.546 288.331C173.779 288.8 172.211 289.033 170.843 289.033V273.033C171.995 273.033 173.492 272.638 175.33 271.844C177.167 271.053 178.985 270.097 180.789 268.979C182.59 267.864 184.211 266.729 185.654 265.574C187.093 264.422 187.995 263.486 188.357 262.763H205.978V308.925H219.708Z" fill="white"/>
</svg>
