<svg width="388" height="420" viewBox="0 0 388 420" fill="none" xmlns="http://www.w3.org/2000/svg">
<path d="M185.734 158.372C185.639 156.801 186.882 155.473 188.45 155.473H199.007C200.578 155.473 201.828 156.801 201.727 158.372L199.342 196.537C199.257 197.953 198.034 199.095 196.622 199.095H190.838C189.403 199.095 188.21 197.98 188.119 196.537L185.734 158.372ZM201.913 215.453C201.913 219.966 198.247 223.632 193.734 223.632C189.22 223.632 185.555 219.966 185.555 215.453C185.555 210.939 189.22 207.274 193.734 207.274C198.247 207.274 201.913 210.939 201.913 215.453ZM210.068 275.429H177.389V277.581L183.22 286.335H204.247L210.068 277.581V275.429ZM210.099 253.622H177.355L177.376 264.527H210.085L210.099 253.622ZM242.808 182.737C242.808 155.679 220.791 133.666 193.734 133.666C165.257 133.666 144.619 156.497 144.676 182.737C144.703 194.615 148.919 206.01 156.801 215.007C161.572 220.443 169.183 231.392 174.038 242.716H213.43C218.284 231.392 225.903 220.443 230.666 215.007C238.497 206.074 242.808 194.615 242.808 182.737ZM253.71 182.737C253.71 197.858 248.102 211.656 238.865 222.189C230.197 232.088 221.764 248.26 220.997 253.622L220.977 279.243C220.97 280.308 220.656 281.358 220.061 282.253L211.71 294.804C210.697 296.324 208.99 297.24 207.166 297.24H180.295C178.477 297.24 176.771 296.324 175.757 294.804L167.409 282.253C166.811 281.358 166.49 280.314 166.49 279.243L166.47 253.622C165.74 248.402 157.342 232.159 148.602 222.189C139.379 211.676 133.778 197.909 133.757 182.821C133.713 151.23 158.646 122.76 193.734 122.76C226.862 122.76 253.71 149.612 253.71 182.737Z" fill="white"/>
</svg>
