<svg width="387" height="420" viewBox="0 0 387 420" fill="none" xmlns="http://www.w3.org/2000/svg">
<path d="M80.9896 229.075C80.2135 226.753 90.405 222.508 93.1786 218.641C95.9523 214.773 97.8742 209.905 102.967 207.744C108.059 205.583 125.191 205.392 133.624 213.008C142.057 220.624 143.501 233.241 142.489 240.433C141.477 247.625 134.371 259.636 130.669 260.841C126.967 262.045 119.578 259.801 114.325 260.933C109.072 262.065 109.104 268.79 98.0727 268.966C87.0414 269.142 67.9172 241.939 71.4785 236.093C75.0398 230.247 86.4843 245.727 95.3948 243.019C104.305 240.31 117.048 225.198 116.079 224.273C115.6 223.816 111.931 223.393 106.594 226.761C99.1101 231.484 98.5136 234.376 95.4872 235.539C89.5012 237.84 82.5968 232.228 80.9896 229.075Z" fill="white"/>
<path d="M48.5569 207.014C49.6549 204.562 56.2487 200.592 58.711 201.033C61.1734 201.473 62.8481 207.273 66.0833 212.3C69.3184 217.326 72.3244 220.191 72.4818 222.176C72.6392 224.16 68.5708 230.009 65.9442 230.8C63.3175 231.59 58.4239 226.938 53.4253 220.645C48.4267 214.353 47.4588 209.465 48.5569 207.014Z" fill="white"/>
<path d="M67.0368 203.512C63.6287 197.591 61.8898 191.667 62.7273 188.756C63.5648 185.844 71.4501 181.871 75.0028 182.096C78.5554 182.321 83.0736 188.393 85.4499 194.11C87.8263 199.827 88.4685 207.255 87.1476 209.389C85.8267 211.522 80.4276 215.769 77.7451 215.396C75.0627 215.023 70.4449 209.434 67.0368 203.512Z" fill="white"/>
<path d="M133.624 207.283C131.269 207.978 117.741 195.909 114.232 196.017C110.723 196.126 97.1483 203.412 95.3024 201.65C93.4565 199.888 77.1316 158.519 77.4806 142.367C77.8297 126.215 80.5647 121.276 85.6066 118.82C90.6485 116.364 93.0565 120.808 94.4714 123.991C95.8862 127.175 93.4711 142.679 98.165 157.973C102.859 173.266 106.158 180.022 107.584 180.873C109.009 181.725 112.093 179.32 113.003 178.116C113.913 176.912 112.749 162.383 116.525 148.541C120.301 134.699 124.435 127.129 128.822 124.545C140.237 119.455 141.249 127.139 140.259 133.419C139.269 139.699 133.796 142.375 131.727 170.509C129.658 198.642 135.978 206.587 133.624 207.283Z" fill="white"/>
<path d="M244.522 120.372C231.277 120.588 219.672 124.122 209.973 129.819C195.866 138.106 189.426 153.413 179.987 163.04C170.548 172.667 148.673 176.005 143.905 188.2C139.137 200.394 153.844 227.065 153.844 227.065C153.844 227.065 153.292 211.606 156.776 205.706C160.26 199.805 164.424 197.098 164.424 197.098C164.424 197.098 157.203 207.745 157.366 219.936C157.529 232.127 164.096 244.772 164.096 244.772C164.096 244.772 164.448 230.69 166.59 224.272C168.733 217.854 172.987 212.393 172.987 212.393C172.987 212.393 166.013 230.618 167.317 241.944C168.62 253.27 180.504 273.737 180.504 273.737C180.504 273.737 177.793 245.72 183.616 236.635C184.259 235.632 185.044 234.561 185.872 233.475C184.045 238.784 183.138 243.482 182.61 247.913C181.37 258.322 187.963 275.075 187.963 275.075C187.963 275.075 187.814 260.495 190.575 252.221C193.335 243.947 195.668 240.469 195.668 240.469C195.668 240.469 190.946 255.754 192.795 270.243C194.645 284.732 207.551 297.928 207.551 297.928C207.551 297.928 203.146 284.412 202.588 275.598C202.031 266.784 204.678 254.573 204.678 254.573C204.678 254.573 206.582 276.011 211.6 288.657C216.618 301.303 226.487 311.379 226.487 311.379C226.487 311.379 226.934 300.494 228.567 287.075C232.623 294.808 243.016 303.219 245.459 302.876C248.807 302.405 248.654 297.082 256.817 292.11C265.695 286.702 269.729 285.865 271.672 286.106C273.74 286.363 276.459 287.576 278.374 286.124C278.993 285.653 276.508 283.318 274.641 276.733C272.908 270.619 272.678 263.823 272.678 263.823C272.678 263.823 270.696 269.62 270.401 274.137C270.106 278.655 272.458 281.815 272.458 281.815C272.458 281.815 263.762 280.949 254.676 286.932C245.59 292.916 245.992 296.878 244.672 296.77C243.353 296.662 239.171 292.806 234.854 280.633C233.309 276.278 232.262 272.003 231.545 268.295C233.027 261.027 234.911 254.062 237.327 248.565C245.506 229.954 256.638 218.311 259.069 215.883C257.417 217.995 254.237 224.145 254.141 240.436C254.011 262.452 260.571 268.676 260.571 268.676C260.571 268.676 258.761 261.641 268.083 250.338C277.404 239.036 279.376 240.208 279.376 240.208C279.376 240.208 275.561 246.943 275.678 260.116C275.795 273.289 282.51 278.862 282.51 278.862C282.51 278.862 282.287 272.297 286.473 263.061C290.659 253.825 295.569 251.438 295.569 251.438C295.569 251.438 295.808 264.151 289.823 278.862C283.837 293.573 276.243 301.846 276.243 301.846C276.243 301.846 292.577 294.817 301.838 284.477C311.1 274.138 315.942 259.534 315.942 259.534C315.942 259.534 316.431 265.081 311.631 275.989C306.832 286.897 300.532 295.577 300.532 295.577C300.532 295.577 321.904 274.778 329.102 251.614C334.587 233.962 336.055 216.791 327.942 199.917C327.635 191.165 326.086 173.996 318.77 161.754C308.599 144.735 284.93 126.658 263.575 122.241C256.901 120.861 250.543 120.273 244.522 120.372ZM245.647 127.958C251.18 127.972 257.083 128.606 263.381 129.913C283.536 134.094 302.38 149.562 312.186 165.21C317.479 173.655 321.316 184.369 323.774 192.532C321.941 189.744 319.825 186.963 317.391 184.19C298.15 162.267 276.917 159.524 256.157 164.02C235.396 168.516 213.511 189.011 200.18 207.428C195.33 214.129 191.861 219.927 189.333 225.104C186.339 227.767 183.462 230.675 181.376 233.663C174.375 243.69 176.965 263.581 176.965 263.581C176.965 263.581 171.028 250.057 170.54 239.21C170.051 228.362 176.928 205.411 176.928 205.411C176.928 205.411 168.926 212.927 166.036 218.086C163.146 223.246 162.334 232.063 162.334 232.063C162.334 232.063 158.962 223.138 161.657 212.069C164.351 201 168.614 192.196 168.614 192.196C168.614 192.196 158.883 195.93 155.083 201.606C151.283 207.282 151.885 214.303 151.885 214.303C151.885 214.303 147.095 201.839 151.778 191.286C156.46 180.732 173.952 174.543 182.786 165.385C191.619 156.228 201.405 144.004 214.26 136.229C223.098 130.884 233.475 127.925 245.647 127.958Z" fill="white"/>
</svg>
