<svg width="388" height="420" viewBox="0 0 388 420" fill="none" xmlns="http://www.w3.org/2000/svg">
<mask id="mask0_2011_89044" style="mask-type:alpha" maskUnits="userSpaceOnUse" x="30" y="30" width="328" height="360">
<path d="M193.74 30.2702C183.804 30.2702 174.49 32.3614 168.179 36.0033L55.8275 100.868C42.4525 108.591 30.27 129.689 30.27 145.135V274.865C30.27 290.311 42.4525 311.409 55.8275 319.132L168.179 383.997C174.49 387.642 183.804 389.73 193.736 389.73C203.669 389.73 212.983 387.642 219.294 383.997L331.642 319.132C345.017 311.409 357.199 290.311 357.199 274.865V145.135C357.199 129.689 345.017 108.591 331.642 100.868L219.294 36.0033C212.983 32.358 203.669 30.2702 193.74 30.2702Z" fill="white"/>
</mask>
<g mask="url(#mask0_2011_89044)">
<path d="M179.368 133.068H173.851C173.851 134.044 173.834 134.96 173.855 135.872C173.875 136.767 173.763 137.676 173.909 138.487H179.368L179.368 133.068ZM192.28 138.52V133.004C191.3 133.004 190.385 132.987 189.469 133.007C188.577 133.027 187.672 132.916 186.861 133.064V138.521L192.28 138.52ZM205.26 133.064H199.74C199.74 134.037 199.726 134.953 199.746 135.865C199.763 136.764 199.659 137.672 199.801 138.49H205.26L205.26 133.064ZM251.554 365.966H257.084C257.03 363.48 257.152 361.051 257.013 358.696H251.554L251.554 365.966ZM218.267 125.544H225.635C225.635 124.571 225.648 123.659 225.631 122.743C225.611 121.845 225.712 120.939 225.574 120.118H218.267L218.267 125.544ZM257.044 112.723H251.523C251.523 115.112 251.523 117.443 251.527 119.77C251.527 119.825 251.557 119.882 251.584 119.929C251.618 119.98 251.665 120.024 251.642 119.993H257.044L257.044 112.723ZM251.463 293.872V288.341C248.976 288.395 246.547 288.277 244.192 288.416V293.872L251.463 293.872ZM238.517 293.872V288.348C236.03 288.379 233.604 288.314 231.243 288.389V293.872L238.517 293.872ZM218.27 293.841H225.635C225.635 292.872 225.635 291.96 225.635 291.044C225.635 290.146 225.631 289.247 225.631 288.412H218.27L218.27 293.841ZM218.236 184.602C219.797 184.865 224.223 184.855 225.567 184.598V177.379C223.077 177.436 220.655 177.301 218.236 177.463V184.602ZM238.52 120.024V112.652C236.03 112.683 233.604 112.618 231.243 112.693V120.024L238.52 120.024ZM199.682 236.541V229.166C197.196 229.2 194.767 229.122 192.405 229.213V236.541L199.682 236.541ZM212.655 229.237H205.28C205.334 231.727 205.206 234.152 205.354 236.507H212.655L212.655 229.237ZM231.246 133.034V138.551C235.486 138.551 239.665 138.551 243.841 138.551C243.895 138.551 243.952 138.52 244 138.49C244.05 138.456 244.088 138.406 244.064 138.426V133.034L231.246 133.034ZM192.375 249.453H205.3C205.26 246.966 205.338 244.541 205.256 242.183H192.375L192.375 249.453ZM238.55 306.912H231.182C231.182 311.152 231.182 315.328 231.186 319.507C231.186 319.561 231.213 319.618 231.243 319.666C231.273 319.716 231.321 319.76 231.297 319.73H238.55L238.55 306.912ZM192.375 288.291H212.699C212.642 285.804 212.773 283.375 212.621 281.02H192.375L192.375 288.291ZM173.854 223.686H166.452C166.452 227.929 166.452 232.105 166.449 236.284C166.449 236.338 166.422 236.395 166.392 236.443C166.361 236.493 166.314 236.537 166.226 236.632H153.506C153.506 237.605 153.493 238.52 153.51 239.433C153.53 240.331 153.422 241.24 153.567 242.061H173.851C173.851 241.091 173.851 240.179 173.851 239.264C173.851 238.362 173.851 237.463 173.851 236.51H186.804C186.77 234.024 186.844 231.598 186.753 229.115H173.854L173.854 223.686ZM192.28 151.497V145.987H173.922V151.524H179.436V158.841H186.797V156.412C186.797 155.547 186.79 154.686 186.797 153.821C186.804 153.044 186.821 152.267 186.831 151.497H192.409V158.858H205.307V151.47H212.604V146.004H199.74C199.74 146.973 199.756 147.889 199.736 148.801C199.719 149.703 199.821 150.612 199.675 151.497H192.28ZM179.449 216.281V223.544H186.756V216.281C184.277 216.281 181.838 216.281 179.398 216.227V210.679C175.01 210.679 170.733 210.679 166.402 210.625V203.358H160.942V210.625C162.8 210.625 164.628 210.625 166.452 210.679V216.227C170.838 216.227 175.118 216.227 179.449 216.281ZM160.905 262.463H153.506C153.506 263.5 153.49 264.412 153.51 265.328C153.53 266.227 153.419 267.132 153.577 268.01C156.101 268.01 158.503 268.01 160.956 268.068V275.328H166.415V268.068C164.554 268.068 162.729 268.068 160.905 268.01C160.905 266.162 160.905 264.311 160.956 262.409H166.371V255.105H160.956C160.956 257.585 160.956 260.024 160.905 262.463ZM238.577 249.517C238.577 251.365 238.577 253.216 238.554 255.091C236.138 255.118 233.699 255.118 231.26 255.118V262.422H238.527C238.527 259.946 238.527 257.507 238.554 255.091C240.405 255.064 242.229 255.064 244.104 255.064V262.422H251.523V268.034C240.459 268.054 229.395 268.054 218.236 268.054V275.379C230.398 275.612 249.919 275.51 251.523 275.21V268.034C253.314 268.01 255.098 268.01 257.007 268.01C257.155 267.129 257.054 266.216 257.071 265.318C257.088 264.402 257.074 263.49 257.074 262.52H269.932V275.372H264.551V280.939H269.949V314.206H264.54V307.115C264.429 306.997 264.395 306.946 264.344 306.912C264.3 306.882 264.24 306.852 264.189 306.852C261.855 306.848 259.523 306.848 257.128 306.848V314.159H251.564V306.929H244.169V319.781H251.517V327.193H257.074V332.791H251.574V340.139H264.473V345.615C265.348 345.77 266.257 345.662 267.152 345.683C268.067 345.703 268.983 345.686 269.959 345.686V358.571C269.142 358.72 268.236 358.608 267.341 358.629C266.426 358.649 265.51 358.632 264.534 358.632V365.973C265.351 366.112 266.26 366.007 267.155 366.027C268.071 366.044 268.986 366.031 269.959 366.031V378.916C269.142 379.061 268.233 378.953 267.338 378.973C266.422 378.994 265.507 378.977 264.473 378.977V384.524H251.594C251.442 383.642 251.547 382.737 251.53 381.838C251.51 380.923 251.523 380.007 251.523 379.027H256.986V371.629H231.219V390.024H225.658V384.541H218.304V366.065C220.354 365.987 222.483 366.044 224.608 366.031C226.756 366.021 228.905 366.031 231.182 366.031C231.182 363.527 231.182 361.081 231.209 358.608C233.621 358.581 236.06 358.581 238.5 358.581V353.122H231.236C231.236 354.984 231.236 356.808 231.209 358.608C225.017 358.632 218.851 358.632 212.689 358.632V345.642H218.182V340.139H192.344V332.818C191.473 332.649 190.567 332.767 189.672 332.747C188.76 332.723 187.841 332.74 186.861 332.74V314.284H199.696V306.848H212.689V314.247C213.723 314.247 214.638 314.233 215.55 314.25C216.449 314.271 217.358 314.163 218.236 314.318V319.825C209.628 319.855 201.017 319.855 192.338 319.855C192.368 322.342 192.307 324.771 192.371 327.261H199.756V332.663H205.324V327.281H212.74V332.74C213.716 332.74 214.631 332.757 215.547 332.737C216.446 332.72 217.354 332.825 218.236 332.673L218.236 319.825C220.682 319.794 223.128 319.794 225.635 319.794C225.635 315.49 225.635 311.311 225.631 307.129C225.631 307.075 225.601 307.017 225.567 306.973C225.533 306.923 225.483 306.889 225.435 306.848L212.689 306.848L212.689 301.494C212.645 301.45 212.611 301.399 212.56 301.365C212.517 301.331 212.456 301.304 212.405 301.304C210.074 301.301 207.743 301.301 205.351 301.301V294.135C205.253 294.044 205.212 293.994 205.162 293.963C205.111 293.933 205.054 293.906 205 293.906C200.824 293.902 196.648 293.902 192.408 293.902V306.764C191.469 306.939 190.564 306.825 189.669 306.845C188.753 306.865 187.837 306.848 186.861 306.848V301.527C186.76 301.439 186.719 301.392 186.669 301.362C186.621 301.331 186.56 301.304 186.51 301.301C184.179 301.301 181.848 301.301 179.398 301.301C179.398 298.794 179.398 296.348 179.425 293.879C181.837 293.852 184.277 293.852 186.716 293.852V288.392H179.452C179.452 290.254 179.452 292.078 179.425 293.879C175.081 293.902 170.767 293.902 166.452 293.902V280.956C165.415 280.956 164.5 280.94 163.584 280.963C162.689 280.98 161.78 280.869 160.905 281.031V293.903H153.506V280.957C152.469 280.957 151.554 280.94 150.638 280.964C149.743 280.98 148.834 280.869 147.959 281.031V293.903H140.56V280.957C139.523 280.957 138.608 280.94 137.692 280.964C136.797 280.981 135.888 280.869 135.013 281.031V293.903H127.615V280.957H122.067V275.582C122.03 275.548 121.99 275.501 121.935 275.467C121.888 275.44 121.831 275.413 121.777 275.413C119.446 275.41 117.115 275.409 114.726 275.409V255.156H127.564V262.376H134.973V255.146H140.537V262.389H147.946V255.132H153.425C153.587 254.183 153.483 253.274 153.503 252.376C153.52 251.464 153.506 250.548 153.506 249.575H114.932C114.821 249.477 114.77 249.443 114.733 249.396C114.702 249.349 114.672 249.291 114.672 249.237C114.669 245.058 114.669 240.876 114.669 236.572C117.172 236.572 119.618 236.572 122.098 236.592C122.128 238.403 122.128 240.23 122.128 242.041H147.908V236.616C139.263 236.616 130.665 236.616 122.098 236.592C122.067 234.105 122.067 231.639 122.067 229.153C134.979 229.129 147.892 229.129 160.905 229.129V223.656C148.067 223.409 123.75 223.514 122.067 223.818V229.153C119.662 229.173 117.26 229.173 114.837 229.173C114.807 229.136 114.76 229.095 114.729 229.045C114.699 228.997 114.672 228.94 114.672 228.886C114.668 224.703 114.668 220.524 114.668 216.288H153.304C153.598 214.656 153.692 196.436 153.442 190.342H114.702V184.849H166.439V197.666H173.726C173.699 197.693 173.753 197.656 173.787 197.609C173.817 197.561 173.847 197.504 173.847 197.45C173.851 193.271 173.851 189.088 173.851 184.788H192.344V190.349C194.895 190.291 197.321 190.42 199.739 190.268V184.788C201.591 184.788 203.439 184.788 205.317 184.811C205.344 186.612 205.344 188.436 205.344 190.257H212.645V184.838C210.168 184.838 207.729 184.838 205.317 184.811C205.29 182.352 205.29 179.92 205.29 177.389H199.739V171.842C200.78 171.842 201.696 171.859 202.611 171.835C203.506 171.818 204.412 171.93 205.223 171.781V164.443C203.006 164.443 200.861 164.436 198.712 164.447C196.587 164.457 194.462 164.406 192.344 164.477V177.389H166.49V171.909H179.327C179.476 169.423 179.358 166.997 179.408 164.507H166.658C166.334 162.741 166.223 136.102 166.493 125.626H173.834V120.126H179.121C179.243 120.018 179.297 119.984 179.331 119.936C179.365 119.893 179.395 119.832 179.395 119.781C179.398 117.447 179.398 115.116 179.398 112.659H186.797V120.058C187.831 120.058 188.746 120.072 189.662 120.055C190.557 120.034 191.466 120.142 192.344 119.987V112.659H199.74V120.058C200.777 120.058 201.692 120.072 202.608 120.055C203.503 120.034 204.412 120.142 205.29 119.987V112.659H212.689V107.112H225.635C225.635 104.659 225.635 102.328 225.635 99.9972C225.635 99.9431 225.665 99.8857 225.696 99.8384C225.733 99.7911 225.783 99.7539 225.756 99.781H231.192V107.038H238.601V99.7911H244.162V107.028H251.473V94.1222H238.53V86.7134H231.24V73.8215C233.631 73.8215 235.963 73.8215 238.29 73.818C238.348 73.818 238.405 73.7911 238.452 73.7606C238.5 73.7268 238.537 73.6761 238.577 73.6322V68.2741H244.128V60.8755H251.523V68.2741C252.561 68.2741 253.476 68.2876 254.392 68.2708C255.287 68.2505 256.196 68.3586 257.074 68.2032V60.8755H269.942C270.128 63.2944 269.949 65.7201 270.04 68.2099H264.733C264.621 68.3147 264.567 68.3518 264.533 68.3991C264.503 68.4464 264.473 68.5072 264.473 68.5579C264.473 72.737 264.473 76.9126 264.473 81.1559H257.155C256.99 82.0985 257.098 83.0072 257.077 83.9059C257.061 84.8214 257.074 85.737 257.074 86.7066H269.787C269.881 86.8079 269.929 86.8485 269.963 86.8958C269.99 86.9464 270.017 87.0039 270.017 87.0579C270.02 91.2336 270.02 95.4126 270.02 99.7133C268.132 99.7133 266.3 99.7133 264.446 99.6897C264.415 97.889 264.415 96.0647 264.415 94.2438H257.115V99.6627C259.594 99.6627 262.034 99.6627 264.446 99.6897C264.473 102.119 264.473 104.521 264.473 107.044C265.354 107.19 266.267 107.092 267.165 107.109C268.081 107.125 268.996 107.112 269.963 107.112V132.919H264.503V125.679H251.564V132.936H256.996C257.152 133.885 257.054 134.797 257.071 135.7C257.087 136.612 257.074 137.527 257.074 138.504H269.936V145.922H264.49V151.49H251.523V158.895H231.219V151.477H238.53V146.037H218.294V151.483C220.78 151.547 223.216 151.419 225.564 151.551V158.916H218.317V171.787H244.128V169.358C244.128 168.497 244.125 167.635 244.128 166.77C244.135 165.99 244.152 165.213 244.162 164.443C246.716 164.443 249.121 164.443 251.554 164.47C251.581 166.885 251.581 169.328 251.581 171.764H264.429V164.493C260.098 164.493 255.811 164.493 251.554 164.47C251.523 162.595 251.523 160.743 251.523 158.895L269.976 158.895V184.699H264.52V177.476H251.523V184.787H244.128V190.335C242.28 190.335 240.429 190.335 238.554 190.308C238.53 186.047 238.53 181.76 238.53 177.47H231.219V190.277C233.696 190.277 236.138 190.277 238.554 190.308C238.577 192.801 238.577 195.267 238.577 197.733C234.263 197.733 229.949 197.733 225.608 197.706C225.581 195.294 225.581 192.852 225.581 190.416H218.277V197.679C220.753 197.679 223.192 197.679 225.608 197.706C225.635 202.048 225.635 206.365 225.635 210.679H192.432V216.284H199.739C199.739 218.676 199.739 221.007 199.743 223.335C199.743 223.392 199.77 223.45 199.8 223.497C199.834 223.548 199.881 223.588 199.861 223.564H218.236C218.236 221.173 218.236 218.845 218.24 216.51C218.24 216.46 218.267 216.399 218.297 216.355C218.331 216.304 218.385 216.267 218.429 216.227H225.635V229.23H218.182V242.173H212.746V249.517C213.716 249.517 214.632 249.517 215.544 249.517C216.446 249.517 217.344 249.517 218.175 249.517V255.064C217.199 255.064 216.28 255.051 215.368 255.068C214.469 255.088 213.564 254.977 212.689 255.139V262.463C208.371 262.463 204.057 262.463 199.716 262.436C199.689 260.024 199.689 257.585 199.689 255.142H192.385V262.409C194.861 262.409 197.3 262.409 199.716 262.436C199.74 266.757 199.74 271.054 199.74 275.409C204.044 275.409 208.226 275.409 212.405 275.406C212.459 275.406 212.517 275.375 212.561 275.345C212.611 275.311 212.648 275.257 212.689 275.213V262.463L225.635 262.463C225.635 258.159 225.635 253.98 225.635 249.801C225.635 249.747 225.665 249.686 225.699 249.642C225.733 249.591 225.783 249.558 225.827 249.517H238.577Z" fill="white"/>
<path d="M186.797 107.111H173.922C173.764 107.99 173.872 108.899 173.855 109.797C173.835 110.713 173.851 111.628 173.851 112.601H166.541V60.875H173.851V68.0743C173.889 68.1182 173.926 68.1723 173.97 68.2061C174.017 68.2365 174.074 68.2703 174.128 68.2703C184.459 68.2737 194.791 68.2736 205.25 68.2736V60.875H225.635V86.7669C223.122 86.7669 220.679 86.7669 218.206 86.7467C218.172 84.9358 218.172 83.1081 218.172 81.2973H173.899V86.723C188.709 86.723 203.473 86.723 218.206 86.7467C218.237 89.2129 218.236 91.6622 218.236 94.223H179.456V99.7128C181.848 99.7128 184.179 99.7128 186.51 99.7163C186.564 99.7163 186.622 99.7433 186.669 99.7737C186.716 99.8075 186.753 99.8616 186.797 99.9055L186.797 107.111Z" fill="white"/>
<path d="M160.905 371.578V378.976C156.587 378.976 152.273 378.976 147.932 378.949C147.905 376.537 147.905 374.095 147.905 371.659H140.601V378.922C143.077 378.922 145.516 378.922 147.932 378.949C147.959 380.763 147.959 382.551 147.959 384.524C148.851 384.524 149.753 384.524 150.655 384.524H153.452V389.99H140.584V384.537H114.702V366.03H153.506V371.578H160.905Z" fill="white"/>
<path d="M166.453 340.139V327.365C166.415 327.331 166.375 327.284 166.324 327.253C166.277 327.223 166.216 327.193 166.165 327.193C149.04 327.193 131.919 327.193 114.733 327.193V319.885H179.398V340.139H166.453Z" fill="white"/>
<path d="M244.158 236.51H251.53C251.503 234.024 251.567 231.594 251.493 229.233H244.158L244.158 236.51ZM257.074 216.226V229.118C259.493 229.243 261.922 229.128 264.469 229.189V236.571H257.074V249.517H251.537C251.51 247.098 251.537 244.669 251.523 242.182H244.253C244.276 242.159 244.222 242.196 244.189 242.246C244.158 242.294 244.131 242.351 244.131 242.405C244.128 244.736 244.128 247.064 244.128 249.517H238.58V242.057H225.692V236.51H238.52V229.172C236.131 229.172 233.8 229.172 231.472 229.172C231.418 229.172 231.357 229.142 231.31 229.115C231.259 229.081 231.219 229.034 231.243 229.057V223.625C233.638 223.625 235.969 223.625 238.3 223.621C238.351 223.621 238.412 223.591 238.455 223.557C238.503 223.523 238.536 223.473 238.58 223.425V216.226H244.128V223.638C246.675 223.581 249.104 223.709 251.526 223.554V216.226L257.074 216.226Z" fill="white"/>
<path d="M199.767 47.902C197.341 47.9291 194.939 47.9291 192.537 47.9291C192.257 46.3784 192.176 35.4628 192.402 29.5H205.226C205.378 30.3108 205.263 31.2196 205.287 32.1149C205.304 33.0304 205.291 33.9459 205.291 34.9831H212.689V42.3649H218.165V47.9054H212.72V55.3277H199.743C199.743 52.8615 199.743 50.3953 199.767 47.902C201.564 47.875 203.388 47.875 205.213 47.875V42.4223H199.794C199.794 44.2838 199.794 46.1047 199.767 47.902Z" fill="white"/>
<path d="M192.344 366.03V371.578H160.902V366.03H166.453V353.084H179.398V358.632H186.797V366.03H192.344Z" fill="white"/>
<path d="M147.959 353.084V358.436C146.324 358.736 126.807 358.834 114.747 358.604V345.686H140.561V353.084H147.959Z" fill="white"/>
<path d="M251.527 60.8748V47.9356H257.01V42.6417C257.115 42.5302 257.152 42.4762 257.199 42.4424C257.246 42.412 257.307 42.3849 257.358 42.3849C259.689 42.3816 262.02 42.3816 264.473 42.3816V34.9829H269.817C269.861 35.0234 269.915 35.0572 269.953 35.1045C269.983 35.1484 270.017 35.2059 270.017 35.2599C270.02 41.8917 270.02 48.5268 270.02 55.2768H257.074V60.8748H251.527Z" fill="white"/>
<path d="M140.561 345.686V340.341C140.598 340.297 140.632 340.243 140.679 340.206C140.723 340.175 140.781 340.142 140.835 340.142C149.375 340.138 157.912 340.138 166.453 340.138V353.084H160.902V345.672C158.355 345.733 155.926 345.601 153.507 345.756V353.084H147.96V345.686L140.561 345.686Z" fill="white"/>
<path d="M199.797 378.976H205.233C205.364 376.561 205.243 374.132 205.304 371.645H212.652V389.993H199.797L199.797 378.976Z" fill="white"/>
<path d="M179.399 340.139H192.345V358.632H186.798V353.085H179.399V340.139Z" fill="white"/>
<path d="M257.074 190.334H269.824C270.108 191.882 270.196 204.77 269.956 210.679H264.473V197.733H257.074V190.334Z" fill="white"/>
<path d="M212.685 366.03H192.344V358.632H212.685V366.03Z" fill="white"/>
<path d="M199.743 55.3276V60.6722C199.702 60.7162 199.669 60.7702 199.621 60.804C199.577 60.8378 199.52 60.8716 199.469 60.8716C190.929 60.8749 182.388 60.8749 173.851 60.8749V55.5303C173.888 55.4864 173.922 55.4324 173.969 55.3986C174.013 55.3648 174.071 55.331 174.125 55.331C182.662 55.3276 191.202 55.3276 199.743 55.3276Z" fill="white"/>
<path d="M166.513 384.571H192.297V389.993H166.513V384.571Z" fill="white"/>
<path d="M238.52 35.0407H231.196V42.311H225.672V29.5171H238.52V35.0407Z" fill="white"/>
<path d="M122.067 293.902H114.861C114.817 293.861 114.763 293.824 114.733 293.777C114.699 293.73 114.672 293.672 114.672 293.618C114.668 289.439 114.668 285.26 114.668 280.956H122.067L122.067 293.902Z" fill="white"/>
<path d="M251.527 34.9829V42.189C251.483 42.2329 251.449 42.2836 251.399 42.3174C251.355 42.3512 251.294 42.3782 251.24 42.3782C247.061 42.3816 242.885 42.3816 238.578 42.3816V34.9829L251.527 34.9829Z" fill="white"/>
<path d="M153.506 353.084H160.905V366.03H153.506V353.084Z" fill="white"/>
<path d="M238.578 60.8751V48.0034C239.459 47.8413 240.365 47.9528 241.263 47.9359C242.176 47.9156 243.091 47.9291 244.128 47.9291V60.8751L238.578 60.8751Z" fill="white"/>
<path d="M264.469 236.571H269.827C269.871 236.611 269.925 236.648 269.959 236.696C269.989 236.743 270.017 236.804 270.017 236.855C270.02 241.034 270.02 245.213 270.02 249.517H264.469L264.469 236.571Z" fill="white"/>
<path d="M264.469 327.192H269.827C269.871 327.233 269.925 327.27 269.959 327.317C269.989 327.365 270.017 327.425 270.017 327.476C270.02 331.655 270.02 335.834 270.02 340.138H264.469L264.469 327.192Z" fill="white"/>
<path d="M264.469 34.9833H251.523V29.6286C251.567 29.5847 251.604 29.5306 251.652 29.4968C251.699 29.4664 251.757 29.4394 251.811 29.4394C255.99 29.436 260.169 29.436 264.469 29.436V34.9833Z" fill="white"/>
<path d="M225.635 60.8751V48.0034C226.514 47.8413 227.419 47.9528 228.318 47.9359C229.23 47.9156 230.145 47.9291 231.183 47.9291V60.8751L225.635 60.8751Z" fill="white"/>
<path d="M257.074 327.192V319.865C259.493 319.709 261.922 319.841 264.473 319.78V327.192L257.074 327.192Z" fill="white"/>
<path d="M231.182 60.875H238.581V68.2736H231.182V60.875Z" fill="white"/>
<path d="M192.344 177.389H199.74V184.787H192.344V177.389Z" fill="white"/>
<path d="M199.74 378.976H192.344V371.578H199.74V378.976Z" fill="white"/>
<path d="M127.615 293.902V301.23C126.736 301.385 125.828 301.277 124.932 301.298C124.017 301.314 123.101 301.301 122.067 301.301V293.902L127.615 293.902Z" fill="white"/>
<path d="M140.56 293.902V301.23C139.682 301.385 138.773 301.277 137.878 301.298C136.963 301.314 136.047 301.301 135.013 301.301V293.902L140.56 293.902Z" fill="white"/>
<path d="M153.507 293.902V301.23C152.628 301.385 151.72 301.277 150.824 301.298C149.909 301.314 148.993 301.301 147.959 301.301V293.902L153.507 293.902Z" fill="white"/>
<path d="M166.507 301.352H173.811V306.77H166.507V301.352Z" fill="white"/>
<path d="M166.483 34.9223V29.4966H173.79C173.936 30.3141 173.828 31.2196 173.844 32.1148C173.865 33.0304 173.851 33.9459 173.851 34.9223H166.483Z" fill="white"/>
<path d="M166.453 301.301H160.905V293.902H166.453V301.301Z" fill="white"/>
<path d="M114.699 203.22V197.794H122.007C122.149 198.612 122.044 199.52 122.061 200.419C122.081 201.331 122.068 202.247 122.068 203.22H114.699Z" fill="white"/>
<path d="M264.469 216.226H257.074V210.679H264.469V216.226Z" fill="white"/>
<path d="M264.469 249.517V254.872C264.429 254.916 264.395 254.97 264.344 255.004C264.301 255.034 264.24 255.061 264.189 255.061C261.858 255.064 259.527 255.064 257.074 255.064V249.517L264.469 249.517Z" fill="white"/>
<path d="M264.524 216.284H269.983V223.544H264.524V216.284Z" fill="white"/>
<path d="M212.74 29.4766H218.159V34.9293H212.74V29.4766Z" fill="white"/>
<path d="M251.523 184.787H257.074V190.334H251.523V184.787Z" fill="white"/>
<path d="M166.453 384.524H160.905V378.977H166.453V384.524Z" fill="white"/>
<path d="M244.064 384.493H238.642V379.034C239.456 378.892 240.365 379 241.26 378.98C242.172 378.963 243.088 378.977 244.064 378.977V384.493Z" fill="white"/>
<path d="M186.797 107.112H192.345V112.659H186.797V107.112Z" fill="white"/>
<path d="M264.524 384.578H269.98V389.993H264.524V384.578Z" fill="white"/>
<path d="M212.685 107.111H205.29V99.7837C207.709 99.6283 210.138 99.7601 212.685 99.6992V107.111Z" fill="white"/>
<path d="M199.743 107.111H192.344V99.7837C194.763 99.6283 197.192 99.7601 199.743 99.6992V107.111Z" fill="white"/>
<path d="M205.29 112.659H199.74V107.112H205.29V112.659Z" fill="white"/>
<path d="M238.581 216.226H225.635V210.679H238.581V216.226Z" fill="white"/>
<path d="M205.26 345.75V353.024H199.861C199.882 353.044 199.834 353.007 199.801 352.953C199.77 352.905 199.743 352.848 199.743 352.794C199.74 350.466 199.74 348.139 199.74 345.75L205.26 345.75Z" fill="white"/>
<path d="M244.128 210.679H238.581V197.733H244.128V210.679Z" fill="white"/>
<path d="M251.523 197.733H244.128V190.334H251.523V197.733Z" fill="white"/>
<path d="M244.128 210.679H251.527V216.226H244.128V210.679Z" fill="white"/>
<path d="M251.523 197.733H257.074V210.679H251.523V197.733Z" fill="white"/>
</g>
</svg>
