<svg width="388" height="420" viewBox="0 0 388 420" fill="none" xmlns="http://www.w3.org/2000/svg">
<path d="M193.734 140.865C155.612 140.865 124.599 171.879 124.599 210C124.599 248.122 155.612 279.135 193.734 279.135C231.855 279.135 262.872 248.122 262.872 210C262.872 171.879 231.855 140.865 193.734 140.865ZM193.734 300.757C143.69 300.757 102.977 260.044 102.977 210C102.977 159.956 143.69 119.243 193.734 119.243C243.778 119.243 284.494 159.956 284.494 210C284.494 260.044 243.778 300.757 193.734 300.757Z" fill="white"/>
<path d="M201.217 231.865C199.616 233.466 197.119 233.466 195.518 231.865L174.031 210.375C172.43 208.777 172.43 206.28 174.031 204.679L179.528 199.182C181.126 197.584 183.626 197.584 185.224 199.182L198.366 212.324L230.7 179.993C232.298 178.395 234.798 178.395 236.396 179.993L241.893 185.49C243.494 187.088 243.494 189.588 241.893 191.186L201.217 231.865ZM230.349 231.517C230.349 239.459 223.903 245.909 215.957 245.909H174.379C166.433 245.909 159.987 239.459 159.987 231.517V189.936C159.987 181.993 166.433 175.544 174.379 175.544H215.957C217.957 175.544 219.957 175.946 221.805 176.794C222.254 176.993 222.602 177.443 222.704 177.943C222.805 178.493 222.653 178.993 222.254 179.392L219.805 181.841C219.504 182.142 219.055 182.341 218.656 182.341C218.504 182.341 218.356 182.291 218.207 182.243C217.457 182.041 216.707 181.943 215.957 181.943H174.379C169.981 181.943 166.386 185.541 166.386 189.936V231.517C166.386 235.912 169.981 239.51 174.379 239.51H215.957C220.356 239.51 223.954 235.912 223.954 231.517V218.821C223.954 218.422 224.106 218.024 224.403 217.723L227.602 214.524C227.95 214.176 228.352 214.024 228.751 214.024C228.95 214.024 229.149 214.074 229.349 214.176C229.95 214.426 230.349 214.973 230.349 215.625V231.517Z" fill="white"/>
</svg>
