<svg width="388" height="420" viewBox="0 0 388 420" fill="none" xmlns="http://www.w3.org/2000/svg">
<path d="M188.544 194.733C188.544 192.585 186.8 190.767 184.652 190.767C182.503 190.767 180.76 192.585 180.76 194.733V216.054H181.489C184.135 216.054 185.949 215.493 188.544 216.473V194.733Z" fill="white"/>
<path d="M166.922 204.071C166.922 201.919 165.179 200.104 163.03 200.104C160.881 200.104 159.138 201.919 159.138 204.071V216.054H166.922V204.071Z" fill="white"/>
<path d="M212.263 235.544C214.206 235.544 215.841 234.061 216.145 232.189C216.179 231.99 216.219 231.787 216.219 231.578V194.733C216.219 192.585 214.044 190.767 211.895 190.767C209.746 190.767 207.571 192.585 207.571 194.733V231.578C207.571 232.483 208.26 233.328 208.794 234.004C209.527 234.936 211.017 235.544 212.263 235.544Z" fill="white"/>
<path d="M248.594 277.787C242.162 291.493 228.044 308.858 197.243 313.743C192.753 314.456 188.344 314.814 184.128 314.814C168.885 314.814 155.432 310.162 144.091 300.915C132.25 291.26 125.787 278.868 123.017 272.341C121.064 267.736 120.909 262.632 122.729 257.969L134.672 227.078C136.675 221.946 140.111 218.084 145.3 216.209V204.071C145.3 194.375 153.459 186.486 163.155 186.486C165.104 186.486 167.27 186.811 169.023 187.398C171.807 181.358 177.902 177.152 184.983 177.152C190.466 177.152 195.358 179.676 198.584 183.625C201.811 179.676 206.696 177.152 212.182 177.152C219.861 177.152 226.365 182.101 228.757 188.976C231.436 187.402 234.638 186.486 237.919 186.486C247.557 186.486 255.138 194.209 255.138 204.071V249.094C255.138 250.753 255.186 263.75 248.594 277.787ZM299.652 200.679C299.652 200.679 282.679 219.118 270.169 203.321C261.811 192.76 275.01 180.439 275.01 180.439C267.213 179 260.922 180.341 255.861 183.24C250.882 177.28 245.104 171.314 238.439 165.378C147.358 84.26 209.267 60.7769 209.267 60.7769C107.51 63.6214 150.202 160.398 150.202 160.398C123.875 146.165 106.797 167.513 106.797 167.513C143.8 177.476 119.604 210.922 119.604 210.922C119.604 210.922 86.1619 236.439 102.527 282.692C118.895 328.946 162.3 334.54 162.3 334.54H211.398C241.692 334.54 284.979 294.284 281.763 243.547C281.861 243.544 281.956 243.236 282.05 243.23C304.591 242.311 299.652 200.679 299.652 200.679Z" fill="white"/>
<path d="M224.855 243.757C221.655 247.071 217.172 249.119 212.213 249.119C206.679 249.119 201.736 246.24 198.513 242.23C195.368 248.45 188.922 252.379 181.49 252.379H161.652C157.888 252.379 154.841 249.652 154.841 245.892C154.841 242.132 157.888 239.406 161.652 239.406H181.49C184.493 239.406 186.936 237.22 186.936 234.217C186.936 231.213 184.493 229.027 181.49 229.027H152.699C150.442 229.027 148.449 230.159 147.628 232.264L135.564 263C135.044 264.335 135.061 265.75 135.618 267.061C140.723 279.092 156.804 306.396 195.111 300.318C214.905 297.176 228.757 287.804 236.142 272.477C241.817 260.7 241.358 249.531 241.355 249.419C241.351 249.335 241.301 249.271 241.301 249.186V248.72C239.571 249.004 238.79 249.149 237.449 249.149C232.49 249.149 228.057 247.071 224.855 243.757Z" fill="white"/>
<path d="M237.365 200.104C235.084 200.104 232.652 201.993 232.652 204.071V231.577C232.652 233.729 234.858 235.544 237.01 235.544C238.929 235.544 240.436 234.098 241.301 232.257V204.071C241.301 202.148 239.689 200.104 237.365 200.104Z" fill="white"/>
</svg>
