<svg width="388" height="420" viewBox="0 0 388 420" fill="none" xmlns="http://www.w3.org/2000/svg">
<path fill-rule="evenodd" clip-rule="evenodd" d="M158.307 226.646C157.817 221.662 153.377 218.017 148.391 218.507L130.34 220.277C125.354 220.767 121.709 225.206 122.198 230.189L128.404 293.396C128.891 298.379 133.33 302.024 138.317 301.534L156.371 299.76C161.354 299.274 164.999 294.835 164.509 289.848L158.307 226.646Z" fill="white"/>
<path fill-rule="evenodd" clip-rule="evenodd" d="M151.212 240.662C151.327 235.655 147.357 231.503 142.351 231.388L124.215 230.976C119.209 230.861 115.057 234.831 114.942 239.838L114.209 272.01C114.094 277.02 118.063 281.172 123.07 281.287L141.205 281.699C146.215 281.811 150.368 277.845 150.479 272.838L151.212 240.662Z" fill="white"/>
<path fill-rule="evenodd" clip-rule="evenodd" d="M146.689 274.524L135.803 281.703C131.371 278.108 127.199 274.027 123.395 269.507C120.276 265.804 117.408 261.804 114.844 257.548C112.013 252.848 109.557 247.838 107.543 242.585C105.905 238.304 104.56 233.869 103.54 229.328C102.553 224.919 101.871 220.419 101.509 215.882C100.884 208.088 101.195 200.193 102.432 192.504C103.455 186.142 105.114 179.929 107.341 174.01C108.732 170.311 110.347 166.727 112.145 163.321L121.259 170.622C119.8 173.423 118.472 176.406 117.324 179.483C115.452 184.504 114.06 189.771 113.212 195.159C112.199 201.581 111.949 208.166 112.469 214.669C112.776 218.5 113.354 222.301 114.189 226.021C115.05 229.869 116.192 233.632 117.58 237.26C119.303 241.754 121.405 246.038 123.827 250.058C126.043 253.733 128.523 257.19 131.219 260.392C132.097 261.436 132.999 262.453 133.918 263.443C137.844 267.652 142.145 271.362 146.689 274.524Z" fill="white"/>
<path fill-rule="evenodd" clip-rule="evenodd" d="M229.404 226.646C229.894 221.662 234.333 218.017 239.316 218.507L257.37 220.277C262.357 220.767 266.002 225.206 265.512 230.189L259.306 293.396C258.816 298.379 254.377 302.024 249.394 301.534L231.34 299.76C226.354 299.274 222.712 294.835 223.198 289.848L229.404 226.646Z" fill="white"/>
<path fill-rule="evenodd" clip-rule="evenodd" d="M236.499 240.662C236.384 235.655 240.351 231.503 245.361 231.388L263.496 230.976C268.503 230.861 272.655 234.831 272.77 239.838L273.499 272.01C273.614 277.02 269.648 281.172 264.641 281.287L246.503 281.699C241.496 281.811 237.344 277.845 237.229 272.838L236.499 240.662Z" fill="white"/>
<path fill-rule="evenodd" clip-rule="evenodd" d="M241.023 274.524L251.908 281.703C256.34 278.108 260.513 274.027 264.313 269.507C267.435 265.804 270.303 261.804 272.867 257.548C275.698 252.848 278.154 247.838 280.168 242.585C281.806 238.304 283.151 233.869 284.168 229.328C285.158 224.919 285.837 220.419 286.202 215.882C286.827 208.088 286.516 200.193 285.279 192.504C284.256 186.142 282.597 179.929 280.371 174.01C278.975 170.311 277.364 166.727 275.567 163.321L266.452 170.622C267.911 173.423 269.239 176.406 270.388 179.483C272.259 184.504 273.648 189.771 274.499 195.159C275.513 201.581 275.759 208.166 275.239 214.669C274.931 218.5 274.357 222.301 273.523 226.021C272.658 229.869 271.519 233.632 270.131 237.26C268.408 241.754 266.306 246.038 263.884 250.058C261.668 253.733 259.188 257.19 256.492 260.392C255.614 261.436 254.712 262.453 253.79 263.443C249.867 267.652 245.563 271.362 241.023 274.524Z" fill="white"/>
<path fill-rule="evenodd" clip-rule="evenodd" d="M278.749 216.659C279.239 211.672 283.675 208.027 288.661 208.517L306.715 210.291C311.698 210.781 315.344 215.216 314.854 220.203L308.651 283.406C308.161 288.392 303.722 292.037 298.739 291.547L280.685 289.774C275.698 289.284 272.053 284.848 272.543 279.862L278.749 216.659Z" fill="white"/>
<path fill-rule="evenodd" clip-rule="evenodd" d="M285.84 230.676C285.725 225.666 289.695 221.514 294.702 221.402L312.84 220.99C317.847 220.875 321.999 224.841 322.114 229.851L322.843 262.024C322.958 267.034 318.992 271.186 313.982 271.297L295.847 271.713C290.84 271.824 286.688 267.858 286.573 262.851L285.84 230.676Z" fill="white"/>
<path fill-rule="evenodd" clip-rule="evenodd" d="M290.367 264.534L301.252 271.713C305.685 268.118 309.857 264.037 313.658 259.521C316.776 255.814 319.644 251.818 322.208 247.561C325.039 242.862 327.499 237.848 329.509 232.598C331.151 228.318 332.492 223.879 333.512 219.338C334.499 214.933 335.181 210.433 335.543 205.896C336.168 198.102 335.86 190.206 334.621 182.514C333.597 176.156 331.938 169.943 329.712 164.024C328.32 160.321 326.705 156.737 324.908 153.335L315.793 160.635C317.256 163.433 318.583 166.419 319.732 169.497C321.604 174.517 322.992 179.784 323.844 185.173C324.857 191.591 325.104 198.179 324.583 204.679C324.276 208.51 323.702 212.311 322.867 216.034C322.002 219.882 320.864 223.646 319.472 227.274C317.752 231.764 315.648 236.048 313.229 240.068C311.012 243.747 308.529 247.203 305.833 250.406C304.955 251.45 304.056 252.463 303.134 253.453C299.208 257.666 294.908 261.375 290.367 264.534Z" fill="white"/>
<path fill-rule="evenodd" clip-rule="evenodd" d="M108.962 216.706C108.472 211.723 104.033 208.078 99.0496 208.568L80.9956 210.341C76.0091 210.828 72.3638 215.267 72.8537 220.253L79.0598 283.456C79.5496 288.439 83.9888 292.084 88.9719 291.595L107.026 289.824C112.012 289.334 115.658 284.895 115.168 279.909L108.962 216.706Z" fill="white"/>
<path fill-rule="evenodd" clip-rule="evenodd" d="M101.871 230.723C101.982 225.716 98.0161 221.564 93.0093 221.45L74.8708 221.037C69.864 220.922 65.712 224.892 65.5972 229.899L64.8674 262.075C64.7526 267.081 68.7188 271.233 73.7289 271.348L91.864 271.76C96.8708 271.875 101.023 267.906 101.138 262.899L101.871 230.723Z" fill="white"/>
<path fill-rule="evenodd" clip-rule="evenodd" d="M97.3436 264.585L86.4584 271.764C82.026 268.169 77.8537 264.088 74.053 259.571C70.9314 255.865 68.0632 251.865 65.499 247.608C62.6679 242.912 60.2118 237.899 58.1983 232.646C56.5598 228.365 55.2152 223.929 54.1983 219.389C53.2084 214.983 52.5294 210.48 52.1645 205.943C51.5395 198.152 51.8503 190.257 53.0868 182.565C54.1105 176.206 55.7692 169.99 57.9956 164.075C59.3909 160.372 61.0024 156.787 62.803 153.382L71.9179 160.683C70.4551 163.483 69.1274 166.467 67.9787 169.544C66.1071 174.565 64.7186 179.831 63.8672 185.223C62.8537 191.642 62.6071 198.227 63.1274 204.73C63.4348 208.561 64.0091 212.362 64.8436 216.081C65.7084 219.933 66.8469 223.693 68.2355 227.321C69.9584 231.815 72.0632 236.098 74.4821 240.119C76.6983 243.794 79.178 247.25 81.874 250.453C82.7524 251.497 83.6544 252.514 84.5767 253.504C88.499 257.713 92.803 261.426 97.3436 264.585Z" fill="white"/>
<path fill-rule="evenodd" clip-rule="evenodd" d="M125.151 191.132L106.462 204.081C106.891 201.517 107.415 198.97 108.026 196.45C108.989 192.48 110.172 188.578 111.56 184.777C112.898 181.105 114.432 177.531 116.148 174.068C118.895 168.517 122.111 163.27 125.729 158.412C129.395 153.487 133.479 148.963 137.898 144.919C141.648 141.49 145.638 138.409 149.82 135.716C153.966 133.041 158.303 130.75 162.773 128.865C167.841 126.73 173.08 125.125 178.401 124.075C183.408 123.081 188.489 122.578 193.57 122.561C198.658 122.544 203.749 123.01 208.766 123.966C214.189 125 219.526 126.605 224.689 128.76C229.246 130.662 233.668 132.99 237.895 135.716C242.08 138.409 246.07 141.49 249.817 144.919C254.101 148.835 258.064 153.203 261.641 157.953C265.344 162.862 268.631 168.176 271.439 173.804C273.205 177.345 274.783 181.014 276.155 184.777C277.509 188.483 278.668 192.284 279.618 196.149C280.256 198.757 280.803 201.392 281.249 204.078L262.564 191.129C261.57 188.399 260.455 185.76 259.222 183.196C256.942 178.463 254.259 173.987 251.229 169.838C248.199 165.696 244.82 161.882 241.155 158.47C237.989 155.52 234.611 152.872 231.067 150.554C227.746 148.385 224.28 146.507 220.709 144.946C216.357 143.044 211.851 141.612 207.263 140.669C202.999 139.794 198.672 139.345 194.341 139.314C189.841 139.284 185.341 139.699 180.911 140.578C176.317 141.487 171.797 142.889 167.432 144.764C163.851 146.301 160.371 148.152 157.04 150.301C153.479 152.595 150.087 155.223 146.905 158.149C143.28 161.487 139.932 165.21 136.915 169.26C133.756 173.5 130.962 178.102 128.601 182.977C127.314 185.632 126.155 188.368 125.151 191.132Z" fill="white"/>
<path d="M144.844 150.983C142.648 150.983 140.465 150.058 138.925 148.253C136.131 144.987 136.526 140.064 139.793 137.27C140.3 136.838 152.462 126.571 171.752 121.429C189.607 116.669 217.215 115.48 247.364 136.838C250.874 139.321 251.702 144.179 249.215 147.686C246.732 151.193 241.874 152.024 238.367 149.537C218.317 135.335 197.455 130.885 176.367 136.311C160.306 140.443 149.989 149.034 149.887 149.122C148.421 150.372 146.631 150.983 144.844 150.983Z" fill="white"/>
</svg>
