<svg width="388" height="420" viewBox="0 0 388 420" fill="none" xmlns="http://www.w3.org/2000/svg">
<path d="M264.97 123.513C251.351 123.513 240.307 134.557 240.307 148.175C240.307 152.159 241.274 155.909 242.949 159.24C242.909 159.216 242.861 159.202 242.821 159.179C242.716 159.128 242.615 159.074 242.513 159.027C242.507 159.023 242.503 159.02 242.5 159.02L187.581 133.989C187.5 133.952 187.416 133.925 187.331 133.891C187.155 133.817 186.976 133.743 186.797 133.679C186.662 133.631 186.524 133.591 186.389 133.547C186.23 133.5 186.071 133.452 185.909 133.412C185.757 133.375 185.605 133.344 185.449 133.314C185.301 133.283 185.152 133.253 184.997 133.233C184.841 133.209 184.682 133.192 184.527 133.175C184.372 133.162 184.22 133.148 184.064 133.142C183.912 133.135 183.764 133.131 183.611 133.131C183.446 133.131 183.284 133.135 183.118 133.142C182.976 133.148 182.838 133.162 182.696 133.175C182.527 133.192 182.358 133.209 182.186 133.236C182.047 133.256 181.909 133.283 181.77 133.31C181.605 133.341 181.443 133.375 181.277 133.419C181.128 133.456 180.983 133.5 180.838 133.544C180.689 133.587 180.541 133.631 180.392 133.685C180.223 133.746 180.061 133.814 179.899 133.881C179.804 133.922 179.713 133.952 179.618 133.993L149.463 147.773C144.649 149.973 142.53 155.662 144.73 160.476C146.341 164 149.818 166.081 153.456 166.081C154.787 166.081 156.142 165.8 157.432 165.209L183.611 153.25L219.736 169.712L170.108 206.425L140.429 208.408L112.953 188.979C108.632 185.922 102.649 186.949 99.5912 191.27C96.5338 195.594 97.5608 201.577 101.885 204.631L132.139 226.027C132.169 226.05 132.206 226.064 132.236 226.087C132.608 226.341 132.993 226.574 133.399 226.777C133.449 226.804 133.5 226.821 133.551 226.848C133.919 227.023 134.301 227.175 134.693 227.304C134.75 227.324 134.811 227.348 134.868 227.364C135.267 227.486 135.676 227.577 136.088 227.648C136.193 227.665 136.297 227.679 136.399 227.692C136.797 227.746 137.199 227.78 137.608 227.783C137.628 227.783 137.645 227.787 137.666 227.787C137.686 227.787 137.709 227.783 137.73 227.783C137.922 227.783 138.115 227.78 138.311 227.763L172.946 225.452L200.28 235.131L187.507 284.5C186.179 289.621 189.26 294.851 194.385 296.179C195.189 296.388 195.997 296.486 196.791 296.486C201.057 296.486 204.949 293.621 206.064 289.3L221.041 231.429C221.047 231.408 221.047 231.385 221.054 231.361C221.098 231.182 221.132 231.003 221.166 230.824C221.192 230.685 221.223 230.55 221.243 230.412C221.27 230.233 221.284 230.054 221.297 229.875C221.311 229.733 221.328 229.594 221.334 229.456C221.345 229.294 221.338 229.131 221.338 228.969C221.334 228.814 221.341 228.662 221.331 228.506C221.324 228.365 221.304 228.226 221.29 228.084C221.274 227.915 221.26 227.743 221.236 227.574C221.216 227.452 221.186 227.331 221.162 227.209C221.128 227.027 221.095 226.844 221.047 226.665C221.02 226.55 220.98 226.439 220.946 226.327C220.892 226.142 220.841 225.959 220.777 225.783C220.736 225.665 220.682 225.55 220.635 225.435C220.567 225.267 220.503 225.101 220.426 224.939C220.365 224.804 220.29 224.679 220.223 224.547C220.149 224.408 220.078 224.267 219.997 224.131C219.912 223.986 219.814 223.848 219.719 223.709C219.645 223.594 219.574 223.479 219.493 223.368C219.388 223.223 219.267 223.084 219.152 222.942C219.074 222.848 219 222.746 218.915 222.652C218.797 222.52 218.665 222.392 218.54 222.267C218.449 222.172 218.361 222.077 218.263 221.99C218.145 221.878 218.013 221.773 217.888 221.669C217.774 221.574 217.662 221.476 217.544 221.385C217.429 221.297 217.307 221.223 217.189 221.142C217.047 221.044 216.905 220.939 216.757 220.851C216.649 220.783 216.53 220.726 216.415 220.662C216.253 220.571 216.088 220.476 215.915 220.392C215.797 220.337 215.676 220.29 215.554 220.24C215.378 220.162 215.206 220.084 215.02 220.02C215 220.01 214.98 220 214.959 219.993L194.03 212.581L217.101 195.513L213.956 203.381C213.922 203.466 213.899 203.547 213.868 203.631C213.838 203.723 213.807 203.814 213.777 203.905C213.601 204.422 213.473 204.946 213.388 205.473C213.382 205.533 213.375 205.598 213.365 205.658C213.291 206.219 213.26 206.777 213.284 207.331C213.284 207.378 213.291 207.425 213.294 207.473C213.324 208.037 213.402 208.591 213.53 209.135C213.544 209.196 213.564 209.256 213.578 209.317C213.716 209.848 213.895 210.368 214.118 210.868C214.152 210.939 214.186 211.006 214.22 211.077C214.459 211.574 214.736 212.05 215.057 212.503C215.098 212.56 215.142 212.615 215.182 212.669C215.53 213.131 215.916 213.567 216.345 213.966C216.368 213.983 216.378 214.006 216.402 214.027L239.057 234.672C240.895 236.348 243.206 237.172 245.51 237.172C248.115 237.172 250.706 236.118 252.598 234.044C256.165 230.128 255.882 224.067 251.97 220.5L234.223 204.327L247.426 171.3C247.446 171.25 247.459 171.196 247.476 171.145C247.51 171.054 247.547 170.966 247.581 170.871C247.618 170.77 247.645 170.669 247.676 170.567C247.713 170.449 247.747 170.331 247.78 170.209C247.801 170.135 247.821 170.064 247.838 169.99C247.868 169.871 247.888 169.756 247.912 169.638C247.939 169.513 247.963 169.392 247.983 169.267C247.993 169.206 248.003 169.148 248.01 169.088C248.027 168.963 248.044 168.834 248.054 168.709C248.067 168.581 248.081 168.456 248.088 168.331C248.091 168.277 248.095 168.219 248.095 168.162C248.102 168.033 248.102 167.908 248.105 167.78C248.105 167.658 248.105 167.533 248.101 167.412C248.098 167.348 248.094 167.283 248.091 167.219C248.084 167.098 248.074 166.979 248.061 166.858C248.051 166.74 248.041 166.625 248.027 166.506C248.017 166.432 248.007 166.354 247.993 166.28C247.98 166.182 247.959 166.088 247.943 165.99C252.372 170.226 258.361 172.841 264.97 172.841C278.591 172.841 289.635 161.797 289.635 148.175C289.635 134.557 278.591 123.513 264.97 123.513Z" fill="white"/>
</svg>
