<svg width="387" height="420" viewBox="0 0 387 420" fill="none" xmlns="http://www.w3.org/2000/svg">
<path d="M236.173 207.699C236.173 207.699 252.542 186.065 277.949 176.386C303.357 166.706 324.487 175.687 324.487 175.687C324.487 175.687 309.791 170.69 283.53 180.5C257.27 190.31 236.173 207.699 236.173 207.699Z" fill="white"/>
<path d="M279.223 160.002C279.223 160.002 262.138 155.322 245.134 160.427C228.13 165.532 220.769 178.593 220.769 178.593C220.769 178.593 226.386 170.156 243.884 164.778C261.381 159.401 279.223 160.002 279.223 160.002Z" fill="white"/>
<path d="M192.897 147.151C192.897 147.151 224.138 128.251 260.729 128.799C297.32 129.347 319.269 151.1 319.269 151.1C319.269 151.1 303.382 137.534 265.659 136.723C227.936 135.912 192.897 147.151 192.897 147.151Z" fill="white"/>
<path d="M69.8721 227.872C69.2172 228.361 67.394 229.539 68.1729 229.536C93.5159 229.446 139.591 226.89 146.444 221.767C153.278 216.659 168.52 173.411 175.768 149.095C175.976 148.399 174.451 149.734 173.843 150.189L69.8721 227.872ZM186.099 151.46L155.921 229.309C155.123 231.367 153.223 232.791 151.024 232.979L67.7056 240.116C67.8115 240.278 67.9127 240.443 68.0302 240.6L110.396 297.302C113.411 301.338 119.088 302.16 123.124 299.144L227.095 221.462C231.131 218.446 231.952 212.769 228.937 208.733L186.571 152.031C186.421 151.831 186.261 151.644 186.099 151.46ZM106.118 262.846C109.774 260.026 118.514 257.973 122.508 257.329C128.818 256.314 139.054 256.081 141.2 256.279C142.396 256.389 144.13 256.56 144.584 257.606C145.039 258.652 144.527 259.32 143.009 260.893C138.68 265.379 135.453 269.104 132.341 273.708C129.822 277.436 124.924 287.57 124.924 287.57C124.323 288.915 123.202 289.183 122.199 288.104C120.005 285.745 124.963 275.787 127.04 272.315C130.624 266.325 135.403 262.895 135.143 262.375C134.882 261.855 125.812 262.871 122.791 263.324C117.652 264.095 107.752 266.581 107.752 266.581C106.323 266.942 104.883 267.328 104.522 265.9C104.247 264.812 104.899 263.787 106.118 262.846ZM197.107 194.863C198.354 193.961 199.523 193.626 200.488 194.198C201.755 194.949 200.977 196.221 200.225 197.489C200.225 197.489 195.035 206.278 192.839 210.987C191.548 213.756 188.002 222.166 188.427 222.563C188.852 222.96 193.495 219.349 200.256 217.611C204.174 216.603 215.129 214.672 216.77 217.444C217.52 218.712 216.945 219.711 215.485 219.907C215.485 219.907 204.378 221.73 200.09 223.089C194.792 224.768 190.305 226.807 184.776 229.686C182.837 230.696 182.051 230.998 181.177 230.265C180.303 229.533 180.63 227.822 180.863 226.644C181.282 224.529 184.407 214.779 187.17 209.016C188.919 205.369 193.366 197.569 197.107 194.863ZM164.559 246.351C164.591 246.328 164.624 246.308 164.658 246.288C164.703 246.255 164.75 246.225 164.798 246.199C164.887 246.149 164.982 246.109 165.081 246.081C165.101 246.074 165.121 246.069 165.142 246.063C165.334 246.013 165.535 246.005 165.73 246.042C165.73 246.042 166.733 246.258 168.055 246.413C169.377 246.568 171.018 246.631 172.028 246.419C176.045 245.581 177.332 241.654 177.332 241.654C177.561 240.952 178.315 240.569 179.016 240.799C179.718 241.027 180.101 241.782 179.871 242.483C179.871 242.483 178.109 247.874 172.575 249.029C170.984 249.361 169.199 249.235 167.744 249.065C167.322 249.015 166.944 248.959 166.597 248.905C166.55 249.254 166.495 249.635 166.422 250.055C166.171 251.498 165.784 253.245 165.012 254.675C162.328 259.651 156.658 259.803 156.658 259.803C155.921 259.823 155.308 259.241 155.289 258.504C155.269 257.766 155.85 257.153 156.588 257.134C156.588 257.134 160.717 257.018 162.665 253.406C163.155 252.498 163.564 250.906 163.793 249.595C164.021 248.284 164.098 247.261 164.098 247.261C164.108 247.195 164.124 247.13 164.144 247.067C164.144 247.066 164.144 247.063 164.144 247.061C164.145 247.06 164.145 247.057 164.146 247.055C164.174 246.938 164.218 246.825 164.277 246.719C164.295 246.686 164.315 246.654 164.337 246.622C164.384 246.551 164.437 246.485 164.497 246.425C164.516 246.399 164.537 246.374 164.558 246.35L164.559 246.351Z" fill="white"/>
</svg>
