<svg width="388" height="420" viewBox="0 0 388 420" fill="none" xmlns="http://www.w3.org/2000/svg">
<path d="M156.274 287.453C155.93 283.308 155.409 279.088 154.629 275.183C155.071 278.564 155.369 282.23 155.426 286.139C155.615 286.412 155.909 286.852 156.274 287.453Z" fill="white"/>
<path d="M155.429 286.321C155.45 288.013 155.426 289.753 155.355 291.53C155.679 292.159 156.152 293.132 156.703 294.399C156.625 292.571 156.521 290.679 156.375 288.76C156.095 287.902 155.781 287.088 155.429 286.321Z" fill="white"/>
<path d="M209.977 277.716C209.497 274.297 208.71 271.101 207.494 268.5C208.23 270.919 208.94 273.696 209.507 276.784C209.659 277.078 209.815 277.392 209.977 277.716Z" fill="white"/>
<path d="M204.409 236.02C204.743 233.426 205.075 230.885 205.399 228.473C208.362 229.824 211.51 230.841 214.797 231.473C210.453 234.125 206.602 235.429 204.409 236.02ZM209.977 277.716C209.814 277.392 209.659 277.078 209.507 276.784C208.939 273.696 208.233 270.919 207.493 268.5C208.713 271.101 209.497 274.297 209.977 277.716ZM161.99 231.179C166.196 230.247 170.183 228.73 173.852 226.706C174.581 230.213 175.21 234.057 175.676 238.25C170.328 238.402 165.561 234.936 161.99 231.179ZM188.703 236.003C184.879 237.392 180.977 231.139 177.919 224.162C181.868 221.392 185.352 218.007 188.223 214.135C190.95 218.061 194.328 221.497 198.2 224.291C195.419 229.753 192.064 234.78 188.703 236.003ZM155.355 291.534C155.426 289.753 155.45 288.014 155.429 286.321C155.781 287.088 156.095 287.902 156.379 288.76C156.52 290.679 156.625 292.571 156.703 294.399C156.152 293.132 155.679 292.159 155.355 291.534ZM156.274 287.453C155.909 286.851 155.615 286.412 155.426 286.139C155.368 282.23 155.071 278.564 154.629 275.182C155.409 279.088 155.929 283.307 156.274 287.453ZM282.993 186.696C285.058 183.179 286.264 179.098 286.264 174.73C286.264 163.889 278.973 154.767 269.037 151.949C269.108 150.949 269.156 149.943 269.156 148.926C269.156 125.672 250.304 106.821 227.051 106.821C223.406 106.821 219.868 107.284 216.497 108.152C213.419 98.6385 204.497 91.75 193.956 91.75C183.835 91.75 175.22 98.1081 171.821 107.037C170.406 106.895 168.966 106.821 167.514 106.821C144.257 106.821 125.406 125.672 125.406 148.926C125.406 149.885 125.449 150.831 125.51 151.774C117.727 157.611 111.922 165.932 109.247 175.561C99.1353 178.267 91.6792 187.463 91.6792 198.426C91.6792 211.517 102.291 222.125 115.379 222.125C117.912 222.125 120.352 221.716 122.642 220.98C130.534 227.986 140.912 232.247 152.294 232.247C153.635 232.247 154.956 232.176 156.264 232.061C164.318 240.993 171.635 242.868 176.125 242.963C176.409 246.662 176.571 250.588 176.571 254.75C176.571 256.814 176.51 258.905 176.402 261.003C174.541 255.581 172.737 252.497 172.737 252.497C174.46 256.939 175.355 262.878 175.764 269.03C175.723 269.389 175.689 269.75 175.649 270.105C174.835 268.331 174.277 267.372 174.277 267.372C174.747 268.588 175.152 269.926 175.507 271.341C174.936 276.22 174.189 280.929 173.409 285.189C171.889 269.608 166.078 259.666 166.078 259.666C168.172 265.071 169.044 272.676 169.304 280.196C167.034 271.176 163.899 265.814 163.899 265.814C166.656 272.929 167.297 283.855 167.21 293.385C166.841 291.831 166.443 290.473 166.064 289.348C165.757 270.264 158.379 257.642 158.379 257.642C160.605 263.385 161.449 271.611 161.649 279.584C159.554 272.726 157.23 268.747 157.23 268.747C159.402 274.348 160.26 282.314 160.487 290.101C158.868 280.115 155.618 272.605 153.531 268.557C151.264 257.405 147.781 250.703 147.781 250.703C150.031 257.24 150.865 266.649 151.044 275.713C149.872 272.581 148.983 270.868 148.983 270.868C149.902 273.541 150.585 276.689 151.081 280.101C151.074 283.27 151.004 286.328 150.899 289.125C148.635 278.791 145.439 272.628 145.439 272.628C147.358 278.199 148.243 285.855 148.574 293.608C147.598 291.794 146.824 290.672 146.585 290.338C145.875 287.338 145.233 285.652 145.233 285.652C145.659 287.699 145.875 290.007 145.939 292.466C144.966 289.213 144 287.328 144 287.328C144.953 290.5 145.169 294.412 144.96 298.483C143.794 293.091 142.112 289.801 142.112 289.801C143.348 293.916 143.341 299.264 142.777 304.598H148.409C148.23 298.645 147.389 293.784 146.615 290.473C147.531 292.389 148.203 294.635 148.689 297.061C148.747 299.622 148.754 302.155 148.72 304.598H156.74C156.679 304.307 156.622 304.02 156.558 303.736C156.379 299.483 155.926 295.551 155.331 291.99C155.331 291.966 155.335 291.943 155.335 291.922C155.943 293.74 156.433 295.764 156.821 297.916C156.885 300.372 156.899 302.632 156.889 304.598H168.493C168.493 304.618 168.493 304.645 168.493 304.669C168.497 304.642 168.5 304.622 168.5 304.598H173.963C173.98 304.402 173.997 304.206 174.011 304.01H175.065C175.075 304.206 175.085 304.399 175.095 304.598H196.96C197 304.399 197.034 304.206 197.071 304.01H197.784C197.798 304.206 197.804 304.402 197.811 304.598H218.521C218.521 304.605 218.524 304.615 218.528 304.625C218.528 304.615 218.531 304.608 218.531 304.598H236.632C237.754 291.351 232.876 281.824 232.876 281.824C233.832 284.997 234.045 288.909 233.835 292.98C232.673 287.588 230.987 284.297 230.987 284.297C232.031 287.764 232.19 292.112 231.879 296.584C230.751 290.439 228.622 285.622 227.018 282.649C226.491 280.689 226.082 279.605 226.082 279.605C226.213 280.233 226.318 280.892 226.409 281.564C225.551 280.084 224.953 279.28 224.953 279.28C225.656 280.699 226.22 282.314 226.67 284.054C226.761 285.284 226.805 286.561 226.808 287.878C226.301 286.777 225.805 285.828 225.362 285.02C223.754 276.135 221.626 270.868 221.626 270.868C222.96 275.834 223.599 282.615 223.852 289.52C221.734 275.655 217.295 267.095 217.295 267.095C218.48 270.541 219.268 274.791 219.778 279.365C217.605 273.446 215.018 269.983 215.018 269.983C217.109 274.196 217.977 280.118 218.241 285.983C217.116 279.385 215.001 275.26 215.001 275.26C215.538 277.057 215.839 279.098 215.96 281.264C215.595 280.291 215.217 279.375 214.839 278.52C214.305 267.916 211.727 261.128 211.727 261.128C212.376 264.25 212.541 267.97 212.403 271.929C211.859 270.497 211.457 269.713 211.457 269.713C211.808 270.882 212.058 272.149 212.224 273.483C211.119 271.655 210.328 270.659 210.328 270.659C211.082 272.054 211.7 273.649 212.214 275.368C212.166 276.041 212.105 276.716 212.041 277.395C210.122 272.203 207.896 268.926 207.42 268.253C205.342 261.537 203.072 257.642 203.072 257.642C204.497 261.314 205.352 266.01 205.839 270.997C204.548 268.534 203.531 267.172 203.531 267.172C204.778 269.682 205.589 272.804 206.099 276.155C205.801 275.709 205.629 275.476 205.629 275.476C205.822 275.865 206.004 276.27 206.176 276.686C206.21 276.919 206.241 277.155 206.271 277.389C206.274 277.544 206.281 277.696 206.288 277.848C204.251 272.828 202.085 269.929 202.085 269.929C202.96 271.693 203.622 273.76 204.112 275.997C202.987 273.095 201.984 271.459 201.984 271.459C203.21 274.693 203.659 278.834 203.666 283.162C203.382 281.801 203.058 280.503 202.697 279.284C202.318 276.416 201.835 273.75 201.298 271.321C201.237 270.132 201.203 269.01 201.203 267.986C201.203 263.963 202.028 255.682 203.095 246.649C208.768 243.135 218.98 233.182 220.034 232.145C220.957 232.206 221.879 232.247 222.815 232.247C234.588 232.247 245.23 227.409 252.872 219.615C256.849 227.125 264.73 232.247 273.822 232.247C286.909 232.247 297.518 221.635 297.518 208.547C297.518 198.713 291.527 190.28 282.993 186.696Z" fill="white"/>
<path d="M140.713 304.598H142.761C141.602 298.591 139.703 294.875 139.703 294.875C140.541 297.676 140.808 301.047 140.713 304.598Z" fill="white"/>
<path d="M238.196 304.598H240.149C238.987 298.845 237.176 295.308 237.176 295.308C237.983 297.99 238.257 301.206 238.196 304.598Z" fill="white"/>
</svg>
