<svg width="388" height="420" viewBox="0 0 388 420" fill="none" xmlns="http://www.w3.org/2000/svg">
<path d="M169.344 248.673C173.614 250.218 178.276 248.153 179.756 244.06C181.237 239.968 178.976 235.398 174.706 233.853C170.435 232.308 165.773 234.373 164.293 238.465C162.812 242.558 165.074 247.127 169.344 248.673Z" fill="white"/>
<path d="M171.119 225.31C173.502 226.173 176.104 225.02 176.93 222.736C177.757 220.452 176.494 217.902 174.111 217.04C171.728 216.178 169.126 217.33 168.3 219.614C167.474 221.898 168.736 224.448 171.119 225.31Z" fill="white"/>
<path d="M184.545 224.954C185.741 225.386 187.046 224.808 187.46 223.663C187.875 222.517 187.242 221.238 186.046 220.805C184.851 220.373 183.546 220.951 183.131 222.096C182.717 223.242 183.35 224.521 184.545 224.954Z" fill="white"/>
<path d="M211.762 108.518C215.071 108.065 217.4 105.122 216.965 101.946C216.53 98.7698 213.495 96.5625 210.186 97.0159C206.877 97.4694 204.548 100.412 204.983 103.588C205.419 106.764 208.454 108.971 211.762 108.518Z" fill="white"/>
<path d="M250.269 152.554C253.445 152.119 255.638 148.977 255.166 145.536C254.695 142.095 251.737 139.658 248.561 140.094C245.385 140.529 243.192 143.671 243.664 147.112C244.136 150.553 247.093 152.99 250.269 152.554Z" fill="white"/>
<path d="M255 126.517C258.176 126.081 260.398 123.154 259.963 119.978C259.528 116.801 256.6 114.579 253.424 115.015C250.247 115.45 248.025 118.378 248.461 121.554C248.896 124.73 251.824 126.952 255 126.517Z" fill="white"/>
<path d="M239.482 166.483C243.237 167.758 249.31 170.506 253.666 168.445C259.168 165.842 256.83 159.466 260.772 157.95C264.842 156.385 270.466 158.692 273.571 156.928C276.968 154.997 277.687 148.959 278.497 144.778" stroke="white" stroke-width="8.43738" stroke-linecap="round"/>
<path d="M219.758 154.051C224.012 151.84 232.038 146.753 230.11 144.087C227.701 140.756 216.917 139.229 217.13 134.88C217.324 130.948 229.775 130.95 230.621 126.44C231.161 123.568 226.728 119.406 226.367 116.77C225.71 111.977 231.832 112.115 234.047 101.558" stroke="white" stroke-width="8.43738" stroke-linecap="round"/>
<path d="M194.528 160.09L184.673 187.573C184.068 189.259 183.038 190.76 181.681 191.93L109.382 254.307C101.149 261.41 100.479 273.769 108.751 280.827C116.9 287.781 128.321 296.483 142.49 304.663C156.658 312.844 169.905 318.383 180.002 321.964C190.25 325.598 200.618 318.838 202.653 308.157L220.523 214.356C220.859 212.596 221.643 210.953 222.801 209.586L241.675 187.31" stroke="white" stroke-width="12.9806"/>
<path d="M251.218 187.865C251.218 187.865 236.209 183.862 218.23 173.481C200.25 163.101 189.279 152.104 189.279 152.104" stroke="white" stroke-width="12.9806" stroke-linecap="round"/>
<path d="M196.715 264.766C186.117 257.148 172.761 254.201 159.816 256.79C150.144 258.725 140.252 257.568 131.455 253.693L117.88 265.405C116.393 266.688 116.377 268.991 117.871 270.267C127.686 278.648 138.293 286.127 149.467 292.578C160.641 299.03 172.422 304.476 184.588 308.785C186.44 309.442 188.426 308.277 188.794 306.346L196.715 264.766Z" fill="white"/>
</svg>
