<svg width="388" height="420" viewBox="0 0 388 420" fill="none" xmlns="http://www.w3.org/2000/svg">
<path d="M181.172 199.912C186.928 199.912 191.3 203.125 191.3 208.807C191.3 212.993 188.945 214.936 186.928 216.392L184.161 218.301H187.939C189.881 218.301 191.3 219.682 191.3 221.591C191.3 223.493 189.881 224.878 187.939 224.878H175.567C174.482 224.878 173.212 224.392 172.466 223.307C171.493 221.888 171.716 219.946 173.134 218.824L182.594 212.057C183.864 211.088 184.425 210.301 184.425 209.105C184.425 207.311 183.155 206.415 181.246 206.415C179.303 206.415 178.145 207.385 178.145 208.807C178.145 209.368 178.33 209.78 178.557 210.301C179.08 211.534 179.192 213.142 177.398 214.263C175.976 215.159 174.334 215.121 173.134 213.892C171.905 212.696 171.344 210.527 171.344 208.544C171.344 203.311 175.303 199.912 181.172 199.912ZM204.611 199.912C211.601 199.912 216.121 204.395 216.121 212.507C216.121 220.618 211.601 225.176 204.611 225.176C197.621 225.176 193.097 220.618 193.097 212.507C193.097 204.395 197.621 199.912 204.611 199.912ZM193.732 228.841H233.151L193.732 159.861L154.317 228.841H193.732Z" fill="white"/>
<path d="M107.564 147.192L187.456 138.442V112.669C187.456 110.378 185.081 108.858 183 109.821L106.699 144.226C105.121 145 105.817 147.388 107.564 147.192Z" fill="white"/>
<path d="M141.435 226.071L184.07 151.459L102.334 160.122C100.043 160.375 98.7966 162.922 100.006 164.889L141.435 226.071Z" fill="white"/>
<path d="M280.766 144.223L204.469 109.817C202.388 108.855 200.013 110.378 200.013 112.669V138.439L279.901 147.192C281.651 147.388 282.347 145 280.766 144.223Z" fill="white"/>
<path d="M204.611 218.676C207.486 218.676 208.722 216.919 208.722 212.507C208.722 208.098 207.486 206.416 204.611 206.416C201.733 206.416 200.5 208.098 200.5 212.507C200.5 216.919 201.733 218.676 204.611 218.676Z" fill="white"/>
<path d="M246.03 226.071L287.459 164.889C288.669 162.922 287.419 160.372 285.131 160.122L203.392 151.459L246.03 226.071Z" fill="white"/>
<path d="M102.446 186.673C101.618 185.325 99.5405 185.912 99.5405 187.497V251.399C99.5405 252.618 100.868 253.372 101.919 252.743L131.997 234.693L102.446 186.673Z" fill="white"/>
<path d="M193.733 241.398H150.872L188.385 307.486C189.615 309.48 191.676 310.476 193.733 310.476C195.794 310.476 197.855 309.48 199.084 307.486L236.598 241.398H193.733Z" fill="white"/>
<path d="M285.019 186.676L255.472 234.696L285.55 252.743C286.597 253.372 287.928 252.618 287.928 251.399V187.497C287.928 185.916 285.854 185.324 285.019 186.676Z" fill="white"/>
<path d="M248.891 245.396L217.52 301.497C215.814 304.267 218.929 307.483 221.75 305.868L280.939 267.169C281.908 266.531 281.878 265.102 280.888 264.507L248.891 245.396Z" fill="white"/>
<path d="M138.578 245.396L106.581 264.51C105.588 265.108 105.561 266.534 106.53 267.169L165.72 305.868C168.54 307.483 171.655 304.267 169.949 301.497L138.578 245.396Z" fill="white"/>
</svg>
