<svg width="388" height="420" viewBox="0 0 388 420" fill="none" xmlns="http://www.w3.org/2000/svg">
<path d="M184.571 234.666C184.571 225.824 177.378 218.632 168.537 218.632C159.696 218.632 152.503 225.824 152.503 234.666C152.503 243.507 159.696 250.699 168.537 250.699C177.378 250.699 184.571 243.507 184.571 234.666Z" fill="white"/>
<path d="M230.922 243.73H215.355V227.297H230.922V243.73ZM230.922 288.703H159.138V282.649H230.922V288.703ZM307.03 191.838H275.03V91.5137H112.436V191.838H79.5708V204.811H122.814V252.649C124.544 259.061 130.007 267.602 142.689 268.456C157.453 269.46 162.709 261.341 164.351 256.659C153.892 254.804 146.057 245.652 146.057 234.666C146.057 222.345 156.149 212.324 168.469 212.324C180.79 212.324 190.844 222.345 190.844 234.666C190.844 246.122 182.196 255.585 171.078 256.858C169.503 262.439 163.956 274.852 145.703 274.852C144.767 274.852 143.263 274.818 142.263 274.75C133.476 274.159 127.138 270.558 122.814 265.879V294.689C122.814 301.659 129.601 307.73 136.571 307.73H252.527C259.496 307.73 264.652 301.659 264.652 294.689V204.811H307.03V191.838Z" fill="white"/>
<path d="M220.987 308.219L204.014 318.223C202.051 314.834 198.571 312.55 194.372 312.55C190.172 312.55 186.601 314.838 184.639 318.229L167.25 308.226C164.057 306.381 160.003 308.689 160.003 312.375V335.425C160.003 339.115 164.101 341.419 167.294 339.574L184.676 329.571C186.639 332.963 190.321 335.25 194.524 335.25C198.726 335.25 202.402 332.963 204.362 329.564L220.98 339.567C224.176 341.412 227.463 339.104 227.463 335.419V312.368C227.463 308.679 224.182 306.375 220.987 308.219Z" fill="white"/>
</svg>
