<svg width="388" height="420" viewBox="0 0 388 420" fill="none" xmlns="http://www.w3.org/2000/svg">
<g clip-path="url(#clip0_2011_35522)">
<mask id="mask0_2011_35522" style="mask-type:luminance" maskUnits="userSpaceOnUse" x="-34" y="-17" width="455" height="454">
<path d="M-33.0542 -16.8521H420.65V436.852H-33.0542V-16.8521Z" fill="white"/>
</mask>
<g mask="url(#mask0_2011_35522)">
<path d="M248.733 113.432H138.863C138.385 113.432 137.998 113.045 137.998 112.567V94.8882C137.998 94.4111 138.385 94.0231 138.863 94.0231H248.733C249.211 94.0231 249.598 94.4111 249.598 94.8882V112.567C249.598 113.045 249.211 113.432 248.733 113.432Z" fill="white"/>
</g>
<mask id="mask1_2011_35522" style="mask-type:luminance" maskUnits="userSpaceOnUse" x="-34" y="-17" width="455" height="454">
<path d="M-33.0542 -16.8521H420.65V436.852H-33.0542V-16.8521Z" fill="white"/>
</mask>
<g mask="url(#mask1_2011_35522)">
<path d="M195.208 166.589L232.264 120.869C233.225 119.682 232.382 117.912 230.855 117.912H156.741C155.214 117.912 154.37 119.682 155.332 120.869L192.389 166.589C193.115 167.486 194.482 167.486 195.208 166.589Z" fill="white"/>
</g>
<mask id="mask2_2011_35522" style="mask-type:luminance" maskUnits="userSpaceOnUse" x="-34" y="-17" width="455" height="454">
<path d="M-33.0542 -16.8521H420.65V436.852H-33.0542V-16.8521Z" fill="white"/>
</mask>
<g mask="url(#mask2_2011_35522)">
<path d="M138.863 306.568H248.733C249.211 306.568 249.598 306.955 249.598 307.433V325.112C249.598 325.589 249.211 325.977 248.733 325.977H138.863C138.385 325.977 137.998 325.589 137.998 325.112V307.433C137.998 306.955 138.385 306.568 138.863 306.568Z" fill="white"/>
</g>
<mask id="mask3_2011_35522" style="mask-type:luminance" maskUnits="userSpaceOnUse" x="-34" y="-17" width="455" height="454">
<path d="M-33.0542 -16.8521H420.65V436.852H-33.0542V-16.8521Z" fill="white"/>
</mask>
<g mask="url(#mask3_2011_35522)">
<path d="M192.388 253.41L155.332 299.131C154.371 300.317 155.214 302.088 156.741 302.088H230.855C232.382 302.088 233.226 300.317 232.264 299.131L195.207 253.41C194.481 252.514 193.114 252.514 192.388 253.41Z" fill="white"/>
</g>
<mask id="mask4_2011_35522" style="mask-type:luminance" maskUnits="userSpaceOnUse" x="-34" y="-17" width="455" height="454">
<path d="M-33.0542 -16.8521H420.65V436.852H-33.0542V-16.8521Z" fill="white"/>
</mask>
<g mask="url(#mask4_2011_35522)">
<path d="M239.608 308.09V260.946C239.608 259.174 239.117 257.437 238.19 255.927L211.683 212.767C210.64 211.07 210.64 208.93 211.683 207.233L238.19 164.073C239.117 162.563 239.608 160.825 239.608 159.054V111.91" stroke="white" stroke-width="6.04938" stroke-miterlimit="10"/>
</g>
<mask id="mask5_2011_35522" style="mask-type:luminance" maskUnits="userSpaceOnUse" x="-34" y="-17" width="455" height="454">
<path d="M-33.0542 -16.8521H420.65V436.852H-33.0542V-16.8521Z" fill="white"/>
</mask>
<g mask="url(#mask5_2011_35522)">
<path d="M147.988 308.09V260.946C147.988 259.174 148.478 257.437 149.406 255.927L175.913 212.767C176.955 211.07 176.955 208.93 175.913 207.233L149.406 164.073C148.478 162.563 147.988 160.825 147.988 159.054V111.91" stroke="white" stroke-width="6.04938" stroke-miterlimit="10"/>
</g>
<mask id="mask6_2011_35522" style="mask-type:luminance" maskUnits="userSpaceOnUse" x="-34" y="-17" width="455" height="454">
<path d="M-33.0542 -16.8521H420.65V436.852H-33.0542V-16.8521Z" fill="white"/>
</mask>
<g mask="url(#mask6_2011_35522)">
<path d="M193.798 194.92L186.818 210H200.778L193.798 194.92Z" fill="white"/>
</g>
<mask id="mask7_2011_35522" style="mask-type:luminance" maskUnits="userSpaceOnUse" x="-34" y="-17" width="455" height="454">
<path d="M-33.0542 -16.8521H420.65V436.852H-33.0542V-16.8521Z" fill="white"/>
</mask>
<g mask="url(#mask7_2011_35522)">
<path d="M193.798 225.079L200.778 210H186.818L193.798 225.079Z" fill="white"/>
</g>
</g>
<defs>
<clipPath id="clip0_2011_35522">
<rect width="387.593" height="420" fill="white"/>
</clipPath>
</defs>
</svg>
