<svg width="388" height="420" viewBox="0 0 388 420" fill="none" xmlns="http://www.w3.org/2000/svg">
<path d="M208.186 114.078C208.892 114.443 209.639 114.672 210.385 114.777C210.784 114.848 211.189 114.885 211.602 114.885C211.956 114.885 212.318 114.855 212.679 114.801C216.453 114.21 219.037 110.672 218.446 106.895L218.379 106.47C217.916 103.51 215.602 101.182 212.642 100.706C209.689 100.233 206.76 101.71 205.389 104.375L205.189 104.76C203.446 108.159 204.784 112.331 208.186 114.078Z" fill="white"/>
<path d="M199.835 130.352C200.848 130.872 201.926 131.115 202.99 131.115C204.913 131.115 206.781 130.304 208.102 128.855C209.2 131.325 211.669 132.96 214.413 132.96C214.767 132.96 215.125 132.933 215.487 132.875C219.264 132.287 221.845 128.747 221.257 124.973L221.122 124.112C220.534 120.338 216.994 117.754 213.22 118.341C211.764 118.571 210.49 119.237 209.504 120.183C208.865 118.973 207.862 117.939 206.554 117.267C203.156 115.52 198.984 116.862 197.237 120.26L196.838 121.037C195.095 124.436 196.436 128.605 199.835 130.352Z" fill="white"/>
<path d="M191.487 146.625C192.497 147.145 193.575 147.392 194.639 147.392C197.152 147.392 199.575 146.021 200.801 143.629L201.196 142.855C202.943 139.456 201.602 135.287 198.203 133.541C194.804 131.794 190.632 133.135 188.886 136.534L188.49 137.311C186.744 140.71 188.085 144.882 191.487 146.625Z" fill="white"/>
<path d="M166.433 195.45C167.443 195.97 168.524 196.213 169.589 196.213C172.099 196.213 174.521 194.841 175.747 192.453L176.146 191.679C177.889 188.281 176.548 184.108 173.149 182.365C173.102 182.338 173.048 182.321 172.997 182.298C173.085 182.298 173.17 182.314 173.254 182.314C175.308 182.314 177.207 181.399 178.494 179.902C180.524 179.737 182.44 178.689 183.643 176.929C183.636 176.977 183.622 177.021 183.616 177.068C183.004 180.838 185.568 184.392 189.342 185L190.2 185.139C190.575 185.2 190.947 185.23 191.315 185.23C194.649 185.23 197.585 182.811 198.136 179.412C198.744 175.642 196.18 172.088 192.41 171.48L191.548 171.341C189.014 170.933 186.582 171.96 185.072 173.818C185.781 170.798 184.386 167.571 181.501 166.088C178.362 164.477 174.568 165.504 172.629 168.348C169.19 168.223 166.119 170.669 165.555 174.156C165.038 177.358 166.815 180.396 169.67 181.615C167.278 181.727 165.008 183.075 163.835 185.358L163.437 186.135C161.693 189.534 163.035 193.703 166.433 195.45Z" fill="white"/>
<path d="M183.135 162.899C184.146 163.419 185.223 163.666 186.287 163.666C188.801 163.666 191.223 162.294 192.45 159.906L192.845 159.129C194.592 155.73 193.25 151.561 189.852 149.814C186.453 148.071 182.281 149.409 180.537 152.811L180.139 153.585C178.392 156.983 179.733 161.156 183.135 162.899Z" fill="white"/>
<path d="M139.747 247.46C136.349 245.716 132.176 247.058 130.433 250.46L130.035 251.233C128.288 254.635 129.633 258.804 133.031 260.547C134.041 261.068 135.122 261.314 136.183 261.314C138.697 261.314 141.119 259.939 142.345 257.551L142.744 256.777C144.487 253.375 143.146 249.206 139.747 247.46Z" fill="white"/>
<path d="M150.697 241.277L151.095 240.5C152.839 237.102 151.497 232.933 148.095 231.186C144.697 229.443 140.528 230.784 138.785 234.183L138.386 234.96C136.639 238.358 137.984 242.527 141.383 244.274C142.393 244.791 143.47 245.037 144.535 245.037C147.048 245.037 149.47 243.666 150.697 241.277Z" fill="white"/>
<path d="M124.889 281.382C124.366 280.838 123.747 280.368 123.041 280.007C119.636 278.264 115.47 279.608 113.727 283.014L113.531 283.395C112.166 286.064 112.67 289.308 114.785 291.429C116.112 292.767 117.889 293.47 119.69 293.47C120.751 293.47 121.818 293.227 122.808 292.727L123.197 292.531C126.606 290.808 127.974 286.645 126.251 283.233C125.893 282.527 125.43 281.906 124.889 281.382Z" fill="white"/>
<path d="M165.92 255.409L165.142 255.801C161.73 257.524 160.365 261.686 162.088 265.095C163.305 267.503 165.74 268.895 168.267 268.895C169.318 268.895 170.382 268.655 171.382 268.149L172.159 267.757C175.572 266.034 176.94 261.872 175.213 258.46C173.49 255.051 169.332 253.682 165.92 255.409Z" fill="white"/>
<path d="M286.565 197.686C287.521 196.703 288.193 195.429 288.43 193.973C289.035 190.203 286.471 186.652 282.697 186.044L281.839 185.906C278.065 185.294 274.514 187.862 273.906 191.635C273.4 194.787 275.112 197.781 277.889 199.034C275.623 201.071 274.9 204.443 276.342 207.294C277.558 209.703 279.994 211.092 282.521 211.092C283.572 211.092 284.639 210.852 285.639 210.345L286.416 209.95C289.825 208.227 291.19 204.061 289.467 200.652C288.802 199.338 287.771 198.331 286.565 197.686Z" fill="white"/>
<path d="M135.001 271.328C135.632 268.345 134.237 265.193 131.396 263.737C127.997 261.99 123.825 263.331 122.082 266.733L121.683 267.507C119.94 270.909 121.281 275.078 124.68 276.825C125.693 277.341 126.771 277.588 127.835 277.588C128.149 277.588 128.463 277.564 128.771 277.524C128.578 278.879 128.781 280.304 129.446 281.619C130.666 284.024 133.099 285.412 135.626 285.412C136.676 285.412 137.744 285.169 138.744 284.662L139.521 284.271C142.93 282.544 144.294 278.379 142.568 274.97C141.126 272.122 137.98 270.71 135.001 271.328Z" fill="white"/>
<path d="M263.845 205.862L263.068 206.257C259.656 207.983 258.295 212.145 260.021 215.554C261.24 217.96 263.673 219.348 266.2 219.348C267.251 219.348 268.318 219.108 269.322 218.602L270.095 218.206C273.507 216.48 274.869 212.318 273.143 208.909C271.416 205.5 267.254 204.135 263.845 205.862Z" fill="white"/>
<path d="M149.592 263.666L148.815 264.061C145.406 265.787 144.041 269.953 145.767 273.358C146.987 275.767 149.419 277.155 151.947 277.155C152.997 277.155 154.065 276.912 155.068 276.405L155.842 276.01C159.254 274.284 160.615 270.122 158.889 266.713C157.163 263.304 153.001 261.943 149.592 263.666Z" fill="white"/>
<path d="M247.521 214.122L246.744 214.514C243.335 216.24 241.974 220.406 243.7 223.811C244.916 226.22 247.352 227.608 249.879 227.608C250.927 227.608 251.997 227.365 252.997 226.858L253.774 226.463C257.183 224.737 258.548 220.575 256.822 217.166C255.095 213.757 250.933 212.392 247.521 214.122Z" fill="white"/>
<path d="M306.058 194.652C305.599 191.69 303.281 189.362 300.322 188.886L299.896 188.818C296.119 188.21 292.572 190.774 291.963 194.548C291.838 195.335 291.849 196.109 291.98 196.848C292.082 197.595 292.308 198.332 292.666 199.038C293.886 201.446 296.318 202.835 298.842 202.835C299.892 202.835 300.96 202.592 301.963 202.085L302.349 201.889C305.024 200.534 306.521 197.612 306.058 194.652Z" fill="white"/>
<path d="M243.521 193.74L244.379 193.879C244.754 193.939 245.122 193.966 245.487 193.966C248.825 193.966 251.764 191.548 252.311 188.149C252.919 184.375 250.352 180.825 246.578 180.216L245.72 180.078C241.946 179.47 238.396 182.037 237.788 185.811C237.183 189.581 239.747 193.132 243.521 193.74Z" fill="white"/>
<path d="M135.169 176.264L136.031 176.402C136.402 176.46 136.774 176.49 137.139 176.49C140.473 176.49 143.412 174.071 143.96 170.669C144.568 166.899 142 163.348 138.23 162.74L137.369 162.601C133.595 161.99 130.044 164.561 129.439 168.331C128.831 172.105 131.396 175.655 135.169 176.264Z" fill="white"/>
<path d="M262.44 196.791C262.811 196.852 263.18 196.882 263.548 196.882C266.882 196.882 269.822 194.463 270.369 191.061C270.977 187.287 268.413 183.737 264.639 183.129L263.781 182.993C260.007 182.379 256.457 184.95 255.849 188.723C255.241 192.493 257.805 196.044 261.578 196.652L262.44 196.791Z" fill="white"/>
<path d="M153.223 179.176L154.085 179.314C154.457 179.375 154.828 179.402 155.196 179.402C158.531 179.402 161.47 176.987 162.017 173.588C162.629 169.814 160.065 166.264 156.291 165.652L155.433 165.514C151.659 164.905 148.105 167.47 147.497 171.24C146.889 175.014 149.453 178.564 153.223 179.176Z" fill="white"/>
<path d="M107.842 164.845C108.45 161.074 105.886 157.52 102.112 156.912L101.686 156.845C98.727 156.368 95.7979 157.848 94.4297 160.517C93.0614 163.183 93.5648 166.429 95.6797 168.554L95.9837 168.862C97.3351 170.22 99.1121 170.899 100.889 170.899C102.656 170.899 104.42 170.23 105.767 168.889C106.332 168.328 106.778 167.696 107.109 167.024C107.463 166.362 107.717 165.629 107.842 164.845Z" fill="white"/>
<path d="M118.666 181.862C120.929 179.608 121.304 176.183 119.798 173.537C122.828 173.216 125.392 170.912 125.902 167.757C126.511 163.983 123.943 160.436 120.173 159.828L119.311 159.689C115.538 159.078 111.987 161.646 111.379 165.419C111.146 166.872 111.386 168.291 111.983 169.524C110.636 169.76 109.342 170.389 108.298 171.429C105.585 174.122 105.571 178.504 108.267 181.213L108.882 181.831C110.233 183.193 112.01 183.872 113.788 183.872C115.551 183.872 117.315 183.203 118.666 181.862Z" fill="white"/>
<path d="M121.166 194.186L121.781 194.804C123.132 196.162 124.909 196.845 126.686 196.845C128.45 196.845 130.213 196.173 131.565 194.831C134.274 192.135 134.284 187.754 131.592 185.044L130.977 184.429C128.281 181.716 123.902 181.706 121.193 184.402C118.483 187.095 118.47 191.477 121.166 194.186Z" fill="white"/>
<path d="M134.092 197.372C131.382 200.064 131.365 204.446 134.061 207.156L134.676 207.774C136.027 209.135 137.804 209.814 139.581 209.814C141.345 209.814 143.108 209.146 144.46 207.804C147.169 205.108 147.183 200.73 144.49 198.021L143.875 197.399C141.183 194.689 136.801 194.679 134.092 197.372Z" fill="white"/>
<path d="M208.974 262.872L208.362 262.254C205.666 259.544 201.285 259.534 198.579 262.23C195.869 264.923 195.856 269.304 198.552 272.014L199.163 272.629C200.518 273.99 202.291 274.669 204.068 274.669C205.835 274.669 207.599 274 208.95 272.656C211.66 269.963 211.67 265.581 208.974 262.872Z" fill="white"/>
<path d="M170.258 233.74C172.967 231.048 172.977 226.666 170.281 223.956L169.666 223.338C166.97 220.632 162.592 220.619 159.883 223.314C159.852 223.348 159.822 223.385 159.791 223.419C160.518 221.409 160.258 219.233 159.2 217.487C159.676 215.5 159.264 213.348 157.964 211.656C158.004 211.676 158.041 211.703 158.082 211.723C159.095 212.244 160.173 212.49 161.237 212.49C163.747 212.49 166.173 211.119 167.396 208.727L167.795 207.953C169.541 204.554 168.2 200.385 164.798 198.639C161.403 196.896 157.231 198.233 155.484 201.635L155.085 202.409C153.913 204.693 154.139 207.325 155.443 209.335C152.791 207.727 149.288 208.054 146.991 210.342C144.484 212.828 144.288 216.754 146.396 219.477C145.214 222.71 146.592 226.389 149.734 228C150.744 228.517 151.822 228.764 152.886 228.764C154.859 228.764 156.771 227.906 158.099 226.382C157.46 228.696 158.045 231.277 159.859 233.102L160.474 233.72C161.825 235.078 163.602 235.757 165.379 235.757C167.143 235.757 168.91 235.085 170.258 233.74Z" fill="white"/>
<path d="M221.876 275.848L221.261 275.227C218.568 272.517 214.186 272.504 211.477 275.196C208.768 277.889 208.751 282.27 211.443 284.98L212.058 285.598C213.409 286.96 215.19 287.642 216.967 287.642C218.73 287.642 220.494 286.97 221.842 285.632C224.555 282.939 224.568 278.558 221.876 275.848Z" fill="white"/>
<path d="M197.099 251.223C198.23 251.966 199.555 252.382 200.913 252.382C201.963 252.382 203.031 252.139 204.031 251.632L204.808 251.24C208.22 249.514 209.582 245.348 207.855 241.939C206.129 238.531 201.967 237.166 198.558 238.892L197.781 239.287C194.372 241.014 193.007 245.179 194.734 248.585C194.754 248.629 194.784 248.666 194.808 248.71C193.122 247.392 190.97 246.97 188.977 247.433C187.234 246.365 185.061 246.091 183.048 246.808C183.082 246.774 183.122 246.747 183.156 246.713C185.865 244.017 185.876 239.635 183.18 236.929L182.565 236.311C179.869 233.602 175.487 233.591 172.781 236.287C170.071 238.983 170.061 243.362 172.757 246.071L173.372 246.689C174.724 248.048 176.497 248.727 178.274 248.727C178.879 248.727 179.48 248.642 180.065 248.487C177.713 250.514 176.947 253.95 178.413 256.845C179.632 259.25 182.065 260.639 184.588 260.639C185.369 260.639 186.156 260.504 186.919 260.23C188.166 261.206 189.666 261.7 191.173 261.7C192.936 261.7 194.703 261.027 196.051 259.683C198.355 257.392 198.7 253.885 197.099 251.223Z" fill="white"/>
<path d="M249.224 304.872C248.642 301.095 245.109 298.5 241.332 299.088C240.548 299.21 239.811 299.456 239.146 299.811C238.467 300.135 237.832 300.581 237.267 301.142C234.558 303.835 234.548 308.216 237.24 310.926L237.545 311.233C238.876 312.568 240.653 313.274 242.453 313.274C243.514 313.274 244.582 313.031 245.572 312.531C248.247 311.179 249.747 308.26 249.291 305.297L249.224 304.872Z" fill="white"/>
<path d="M239.704 295.632C240.055 295.632 240.41 295.605 240.771 295.547C244.548 294.963 247.133 291.429 246.548 287.652L246.413 286.791C245.829 283.014 242.295 280.429 238.518 281.014C235.359 281.503 233.041 284.058 232.707 287.088C230.068 285.564 226.636 285.916 224.372 288.169C221.663 290.865 221.65 295.247 224.345 297.956L224.957 298.571C226.312 299.933 228.089 300.612 229.866 300.612C231.629 300.612 233.393 299.939 234.744 298.598C235.788 297.561 236.427 296.27 236.67 294.926C237.595 295.378 238.626 295.632 239.704 295.632Z" fill="white"/>
<path d="M221.649 172.568C218.446 173.068 216.109 175.693 215.832 178.78C214.984 176.541 213 174.801 210.467 174.392L209.605 174.253C205.828 173.642 202.281 176.209 201.673 179.98C201.061 183.753 203.625 187.304 207.399 187.912L208.261 188.051C208.632 188.111 209.004 188.142 209.372 188.142C212.707 188.142 215.646 185.723 216.193 182.324C216.2 182.277 216.203 182.23 216.21 182.182C216.801 184.236 218.291 185.845 220.173 186.638C220.957 188.524 222.555 190.024 224.602 190.625C224.555 190.632 224.507 190.635 224.46 190.642C220.683 191.23 218.098 194.77 218.69 198.544L218.825 199.405C219.359 202.818 222.301 205.257 225.652 205.257C226.007 205.257 226.365 205.23 226.727 205.176C230.5 204.584 233.085 201.047 232.497 197.27L232.362 196.412C231.967 193.882 230.247 191.892 228.021 191.027C231.105 190.76 233.737 188.432 234.25 185.236C234.815 181.75 232.666 178.463 229.362 177.5C228.419 174.189 225.139 172.02 221.649 172.568Z" fill="white"/>
<path d="M235.149 259.399C238.926 258.814 241.514 255.277 240.926 251.503L240.795 250.642C240.21 246.865 236.673 244.28 232.896 244.865C229.119 245.449 226.535 248.987 227.119 252.76L227.254 253.622C227.781 257.041 230.727 259.483 234.082 259.483C234.433 259.483 234.791 259.456 235.149 259.399Z" fill="white"/>
<path d="M230.065 271.696C230.592 275.115 233.538 277.558 236.892 277.558C237.244 277.558 237.602 277.531 237.96 277.473C241.737 276.889 244.321 273.352 243.737 269.578L243.602 268.716C243.017 264.939 239.487 262.355 235.707 262.939C231.93 263.524 229.345 267.061 229.93 270.838L230.065 271.696Z" fill="white"/>
<path d="M227.271 208.716C223.494 209.304 220.91 212.845 221.501 216.619L221.633 217.48C222.166 220.892 225.112 223.331 228.464 223.331C228.815 223.331 229.176 223.304 229.538 223.25C229.582 223.243 229.626 223.23 229.67 223.22C227.903 224.419 226.835 226.331 226.663 228.369C225.109 229.693 224.176 231.676 224.234 233.815C224.217 233.771 224.2 233.73 224.18 233.686C222.457 230.277 218.291 228.913 214.886 230.635L214.106 231.027C210.697 232.75 209.328 236.913 211.055 240.321C212.271 242.73 214.707 244.122 217.234 244.122C218.281 244.122 219.349 243.882 220.349 243.375L221.126 242.983C223.416 241.825 224.781 239.568 224.91 237.173C225.977 239.713 228.481 241.409 231.271 241.409C231.626 241.409 231.984 241.382 232.345 241.325C235.832 240.781 238.298 237.72 238.19 234.284C241.045 232.365 242.092 228.578 240.501 225.429C239.038 222.534 235.815 221.119 232.791 221.811C234.663 220.311 235.703 217.885 235.308 215.345L235.173 214.487C234.582 210.71 231.045 208.125 227.271 208.716Z" fill="white"/>
<path d="M218.838 154.493C215.065 155.081 212.48 158.618 213.068 162.395L213.203 163.257C213.737 166.669 216.683 169.108 220.031 169.108C220.386 169.108 220.744 169.081 221.105 169.024C224.882 168.436 227.467 164.899 226.876 161.122L226.744 160.26C226.153 156.486 222.615 153.902 218.838 154.493Z" fill="white"/>
<path d="M216.031 136.416C212.254 137.007 209.67 140.544 210.261 144.321L210.393 145.183C210.926 148.595 213.872 151.034 217.224 151.034C217.575 151.034 217.937 151.007 218.298 150.949C222.072 150.362 224.656 146.824 224.068 143.047L223.933 142.186C223.342 138.412 219.801 135.825 216.031 136.416Z" fill="white"/>
</svg>
