<svg width="388" height="420" viewBox="0 0 388 420" fill="none" xmlns="http://www.w3.org/2000/svg">
<path d="M249.591 253.23L247.135 246.216L243.152 255.845L239.774 246.041L233.561 262.899L228.73 253.402L221.193 267.953L217.686 255.682L204.537 271.635L200.682 261.993L191.919 271.635L185.081 261.818L174.916 271.635L172.284 260.943L160.189 269.676L158.787 259.713L149.848 260.767V248.378L144.412 253.578L127.645 233.071L144.061 241.483L152.652 233.946L156.682 244.638L165.973 233.946L166.676 244.638L175.791 240.287L178.77 245.689L187.655 239.405L194.723 245.689L203.135 238.328L207.872 246.392L219.264 239.378L221.368 245.689L226.625 240.287L233.99 243.763L237.669 237.628L243.277 240.287L246.186 238.361L249.416 240.287L251.517 235.524L255.551 239.378L267.412 233.071L256.953 249.196L252.919 241.135L249.591 253.23ZM217.679 219.108L229.855 211.763L241.409 219.213L242.757 203.986L265.726 190.135C263.892 235.98 217.679 219.108 217.679 219.108ZM147.845 203.838L146.993 218.669L161.5 212.071L173.169 219.108C173.169 219.108 126.956 235.98 125.122 190.135L147.845 203.838ZM316.257 232.189C316.257 232.189 297.426 218.804 274.733 217.916C274.53 206.807 272.027 196.274 267.669 186.753C273.514 179.115 278.024 167.953 279.909 151.841C279.909 151.841 276.297 161.267 267.176 171.568C265.534 153.115 255.01 131.882 228.145 108.959C228.145 108.959 232.831 125.524 234.983 151.088C223.557 144.598 210.358 140.875 196.277 140.875C181.824 140.875 168.294 144.797 156.662 151.611C158.713 124.686 163.693 107.081 163.693 107.081C136.01 130.703 125.676 152.53 124.537 171.375C115.544 161.149 111.976 151.841 111.976 151.841C113.905 168.345 118.584 179.655 124.635 187.304C120.432 196.682 118.017 207.03 117.821 217.926C92.9291 216.743 71.2095 232.189 71.2095 232.189C89.6791 229.145 105.682 230.605 119.24 234.399C119.26 234.503 119.274 234.608 119.294 234.709C103.892 251.382 100.044 274.152 100.044 274.152C107.453 263.818 115.527 255.767 123.787 249.497C123.807 249.547 123.828 249.601 123.848 249.652C106.257 277.25 121.615 312.919 121.615 312.919C122.507 294.375 127.226 279.135 133.699 266.733C146.081 283.071 164.713 294.392 186.034 297.172C187.848 305.557 190.226 311.088 190.226 311.088C190.453 306.419 190.926 301.966 191.601 297.709C193.149 297.797 194.706 297.858 196.277 297.858C198.635 297.858 200.966 297.736 203.27 297.534C203.963 301.845 204.446 306.355 204.676 311.088C204.676 311.088 207.122 305.405 208.946 296.828C229.946 293.419 248.142 281.676 260.051 265.101C266.97 277.791 272.071 293.551 273.007 312.919C273.007 312.919 288.51 276.899 270.503 249.247C278.878 255.554 287.071 263.682 294.578 274.152C294.578 274.152 290.463 249.807 273.713 233.03C286.044 230.304 300.22 229.547 316.257 232.189Z" fill="white"/>
</svg>
