<svg width="388" height="420" viewBox="0 0 388 420" fill="none" xmlns="http://www.w3.org/2000/svg">
<path d="M241.989 161.861C239.32 161.861 237.158 159.699 237.158 157.03C237.158 154.361 239.32 152.199 241.989 152.199C244.658 152.199 246.82 154.361 246.82 157.03C246.82 159.699 244.654 161.861 241.989 161.861ZM235.769 209.939L220.425 224.642C219.192 224.611 217.969 224.138 217.026 223.196L213.769 219.939C211.834 218 208.688 218 206.749 219.939L203.492 223.196C201.553 225.135 198.408 225.135 196.469 223.196L193.212 219.939C191.273 218 188.127 218 186.188 219.939L182.931 223.196C180.992 225.135 177.85 225.135 175.911 223.196L172.654 219.939C171.962 219.25 171.114 218.814 170.222 218.615L207.999 182.172L235.769 209.939ZM261.31 132.882C263.979 132.882 266.141 135.044 266.141 137.709C266.141 140.378 263.979 142.54 261.31 142.54C258.641 142.54 256.479 140.378 256.479 137.709C256.479 135.044 258.641 132.882 261.31 132.882ZM282.526 140.297C286.438 136.524 286.438 130.409 282.526 126.638L271.894 116.392C267.986 112.615 261.638 112.615 257.725 116.392L208.175 161.861L113.016 253.672C110.526 256.078 111.391 260.365 114.685 261.429C127.796 265.662 142.482 268.122 157.013 268.122C179.904 268.122 202.421 262.024 217.84 247.186L249.357 216.986C253.263 213.24 253.33 207.01 249.502 203.182L246.82 200.5V176.351L282.526 140.297Z" fill="white"/>
<path d="M125.835 295.341C125.835 294.612 125.243 294.021 124.514 294.021C120.868 294.021 117.902 291.054 117.902 287.409C117.902 286.676 117.311 286.088 116.581 286.088C115.848 286.088 115.257 286.676 115.257 287.409C115.257 292.51 119.409 296.662 124.514 296.662C125.243 296.662 125.835 296.071 125.835 295.341ZM139.054 287.237C139.054 295.372 132.551 301.953 124.514 301.953C116.473 301.953 109.97 295.372 109.97 287.237C109.97 278.048 118.233 274.504 122.098 261.47C122.841 258.98 126.27 259.091 126.926 261.47C130.811 274.564 139.054 278 139.054 287.237Z" fill="white"/>
</svg>
