<svg width="388" height="420" viewBox="0 0 388 420" fill="none" xmlns="http://www.w3.org/2000/svg">
<g clip-path="url(#clip0_2011_36141)">
<mask id="mask0_2011_36141" style="mask-type:luminance" maskUnits="userSpaceOnUse" x="-34" y="-17" width="455" height="454">
<path d="M-33.0571 -16.8521H420.647V436.852H-33.0571V-16.8521Z" fill="white"/>
</mask>
<g mask="url(#mask0_2011_36141)">
<path d="M128.785 294.144C133.147 299.784 136.609 306.055 139.365 312.652C139.469 311.787 139.578 310.923 139.663 310.053C140.733 299.298 139.898 288.342 136.57 277.67C141.438 284.252 145.085 291.662 147.814 299.441C147.616 298.722 147.43 298.001 147.227 297.285C140.973 275.186 130.925 251.354 109.727 239.899C118.338 247.099 124.433 256.791 127.974 267.34C130.691 275.346 132.285 283.643 133.276 292.033C125.641 281.744 115.194 274.144 100.701 270.186C110.711 275.156 119.687 282.527 125.15 292.198C130.419 301.333 132.605 311.625 133.735 322.059C133.648 312.573 132.101 303.152 128.785 294.144Z" fill="white"/>
</g>
<mask id="mask1_2011_36141" style="mask-type:luminance" maskUnits="userSpaceOnUse" x="-34" y="-17" width="455" height="454">
<path d="M-33.0571 -16.8521H420.647V436.852H-33.0571V-16.8521Z" fill="white"/>
</mask>
<g mask="url(#mask1_2011_36141)">
<path d="M218.161 240.993C214.994 217.772 213.516 194.384 215.248 170.998C217.431 140.214 227.064 109.959 245.185 84.6439C199.521 127.062 187.378 191.651 184.779 251.82C173.835 232.749 157.706 216.219 134.904 195.762C147.936 215.359 161.503 236.156 167.976 258.551C170.728 267.906 171.858 277.191 171.934 286.495C162.897 273.974 150.43 264.272 138.858 254.311C145.98 266.043 153.974 278.272 158.597 290.974C160.698 296.783 161.586 302.404 161.708 308.053C162.606 300.794 162.984 293.455 162.713 286.027C162.718 286.039 162.719 286.039 162.714 286.027C170.946 295.304 177.724 305.778 183.472 316.844C184.855 299.497 184.379 282.177 180.827 264.89C187.475 273.723 193.099 283.182 197.957 293.052C196.616 275.513 197.606 257.91 201.991 240.936C203.959 259.309 209.346 276.741 217.309 293.012C220.256 276.008 224.9 259.367 231.69 243.534C229.038 270.069 231.421 296.49 237.799 322.059C233.571 293.213 232.285 264.014 240.097 235.783C248.051 206.021 267.032 179.996 290.457 159.698C254.288 180.395 231.513 208.058 218.161 240.993Z" fill="white"/>
</g>
<mask id="mask2_2011_36141" style="mask-type:luminance" maskUnits="userSpaceOnUse" x="-34" y="-17" width="455" height="454">
<path d="M-33.0571 -16.8521H420.647V436.852H-33.0571V-16.8521Z" fill="white"/>
</mask>
<g mask="url(#mask2_2011_36141)">
<path d="M273.386 277.603C270.755 284.132 267.723 290.984 266.437 297.797C266.054 299.845 265.932 301.808 266.007 303.729C265.334 301.051 264.798 298.33 264.447 295.552C264.445 295.559 264.444 295.559 264.445 295.552C260.88 301.197 258.237 307.379 256.206 313.781C253.937 304.849 252.647 295.771 253.022 286.439C249.837 292.518 247.499 298.942 245.721 305.547C245.697 282.244 253.602 268.7 270.531 247.642C265.56 258.642 260.419 270.294 259.001 282.164C258.384 287.126 258.587 291.916 259.319 296.629C262.854 289.545 268.357 283.602 273.386 277.603Z" fill="white"/>
</g>
</g>
<defs>
<clipPath id="clip0_2011_36141">
<rect width="387.593" height="420" fill="white"/>
</clipPath>
</defs>
</svg>
