<svg width="388" height="420" viewBox="0 0 388 420" fill="none" xmlns="http://www.w3.org/2000/svg">
<path d="M88.2834 162.422V153.987C88.2834 151.659 88.9963 149.672 90.4253 148.024C91.851 146.375 93.7091 145.551 95.9929 145.551H142.392L123.081 126.176C121.412 124.591 120.577 122.615 120.577 120.243C120.577 117.868 121.412 115.892 123.081 114.311L128.023 109.368C129.692 107.699 131.672 106.865 133.956 106.865C136.283 106.865 138.283 107.699 139.952 109.368L182.858 152.274C184.483 153.811 185.297 155.791 185.297 158.206C185.297 160.578 184.483 162.578 182.858 164.203L139.952 207.108C138.24 208.733 136.24 209.547 133.956 209.547C131.716 209.547 129.74 208.733 128.023 207.108L123.081 202.166C121.412 200.497 120.577 198.497 120.577 196.169C120.577 193.838 121.412 191.841 123.081 190.172L142.392 170.862H95.9929C93.7091 170.862 91.851 170.037 90.4253 168.389C88.9963 166.74 88.2834 164.754 88.2834 162.422Z" fill="white"/>
<path d="M193.006 149.77C193.006 147.439 193.841 145.443 195.51 143.77L200.388 138.828C202.101 137.203 204.101 136.389 206.385 136.389C208.716 136.389 210.692 137.203 212.317 138.828L231.696 158.206V111.808C231.696 109.52 232.53 107.544 234.199 105.875C235.868 104.206 237.844 103.368 240.131 103.368H248.567C250.851 103.368 252.827 104.206 254.496 105.875C256.169 107.544 257.003 109.52 257.003 111.808V158.206L276.378 138.828C278.006 137.203 279.983 136.389 282.311 136.389C284.594 136.389 286.594 137.203 288.311 138.828L293.253 143.77C294.878 145.487 295.689 147.487 295.689 149.77C295.689 152.098 294.878 154.074 293.253 155.699L250.344 198.672C248.635 200.297 246.631 201.112 244.348 201.112C242.02 201.112 240.04 200.297 238.415 198.672L195.51 155.699C193.841 154.118 193.006 152.142 193.006 149.77Z" fill="white"/>
<path d="M91.7733 266.014C91.7733 263.686 92.6078 261.686 94.2801 260.014L137.185 217.108C138.723 215.483 140.699 214.673 143.118 214.673C145.49 214.673 147.49 215.483 149.115 217.108L192.02 260.014C193.645 261.73 194.459 263.73 194.459 266.014C194.459 268.254 193.645 270.23 192.02 271.946L187.077 276.889C185.405 278.558 183.408 279.392 181.081 279.392C178.706 279.392 176.729 278.558 175.148 276.889L155.77 257.578V303.977C155.77 306.26 154.946 308.119 153.3 309.544C151.652 310.973 149.662 311.686 147.334 311.686H138.898C136.571 311.686 134.581 310.973 132.935 309.544C131.287 308.119 130.463 306.26 130.463 303.977V257.578L111.084 276.889C109.503 278.558 107.527 279.392 105.155 279.392C102.78 279.392 100.804 278.558 99.2226 276.889L94.2801 271.946C92.6078 270.277 91.7733 268.298 91.7733 266.014Z" fill="white"/>
<path d="M202.169 265.288C202.169 263.004 202.98 261.004 204.608 259.291L247.513 216.45C249.182 214.781 251.182 213.946 253.51 213.946C255.794 213.946 257.77 214.781 259.442 216.45L264.385 221.328C266.054 223 266.888 224.997 266.888 227.325C266.888 229.656 266.054 231.652 264.385 233.321L245.074 252.632H291.473C293.757 252.632 295.615 253.456 297.04 255.105C298.469 256.754 299.186 258.744 299.186 261.071V269.507C299.186 271.835 298.469 273.825 297.04 275.47C295.615 277.119 293.757 277.943 291.473 277.943H245.074L264.385 297.318C266.054 298.902 266.888 300.879 266.888 303.25C266.888 305.625 266.054 307.602 264.385 309.183L259.442 314.193C257.817 315.818 255.838 316.629 253.51 316.629C251.226 316.629 249.226 315.818 247.513 314.193L204.608 271.22C202.98 269.595 202.169 267.615 202.169 265.288Z" fill="white"/>
</svg>
