<svg width="388" height="420" viewBox="0 0 388 420" fill="none" xmlns="http://www.w3.org/2000/svg">
<path d="M207.939 220.656C207.939 222.656 206.385 224.206 204.388 224.206H168.868C166.871 224.206 165.317 222.656 165.317 220.656V213.551C165.317 211.554 166.871 210 168.868 210H193.733V170.929C193.733 168.929 195.287 167.375 197.287 167.375H204.388C206.385 167.375 207.939 168.929 207.939 170.929V220.656ZM193.733 149.615C160.432 149.615 133.351 176.7 133.351 210C133.351 243.301 160.432 270.382 193.733 270.382C227.034 270.382 254.118 243.301 254.118 210C254.118 176.7 227.034 149.615 193.733 149.615ZM193.733 295.247C146.669 295.247 108.486 257.064 108.486 210C108.486 162.936 146.669 124.754 193.733 124.754C240.797 124.754 278.98 162.936 278.98 210C278.98 257.064 240.797 295.247 193.733 295.247Z" fill="white"/>
</svg>
