<svg width="388" height="420" viewBox="0 0 388 420" fill="none" xmlns="http://www.w3.org/2000/svg">
<g clip-path="url(#clip0_2011_95302)">
<mask id="mask0_2011_95302" style="mask-type:luminance" maskUnits="userSpaceOnUse" x="-34" y="-17" width="455" height="454">
<path d="M-33.0449 -16.8517H420.516V436.852H-33.0449V-16.8517Z" fill="white"/>
</mask>
<g mask="url(#mask0_2011_95302)">
<path d="M193.883 140.092C195.081 141.835 195.996 143.755 196.596 145.783L200.251 158.128L226.803 148.962L220.464 134.644C220.212 134.076 219.916 133.528 219.577 133.006L214.862 128.274C213.507 126.858 212.595 126.324 211.172 126.807L188.346 131.893L193.883 140.092Z" fill="white"/>
</g>
<mask id="mask1_2011_95302" style="mask-type:luminance" maskUnits="userSpaceOnUse" x="-34" y="-17" width="455" height="454">
<path d="M-33.0449 -16.8517H420.516V436.852H-33.0449V-16.8517Z" fill="white"/>
</mask>
<g mask="url(#mask1_2011_95302)">
<path d="M287.965 284.567L277.749 268.612C272.412 260.778 269.213 252.483 270.349 243.423L273.708 216.627C274.219 212.553 274.067 208.423 273.26 204.396L265.87 167.575C265.602 165.499 247.161 153.367 241.779 150.263C240.967 149.795 240.078 149.491 239.146 149.587L231.062 150.331L200.291 163.217C199.468 163.561 199.024 164.46 199.252 165.323L204.408 184.887C204.705 186.015 205.749 186.781 206.914 186.726L238.189 185.248L222.507 205.448C221.515 206.725 221.143 208.38 221.493 209.959L230.38 250.034L216.501 209.136C215.956 207.532 216.318 205.759 217.447 204.498L231.703 188.562L208.164 190.222L211.715 202.544C211.973 203.308 211.606 204.142 210.869 204.467L192.06 212.152C191.893 212.226 191.72 212.273 191.547 212.306L182.908 218.022C182.167 218.403 181.391 218.711 180.59 218.941L167.973 221.188L155.015 232.485C154.322 233.09 153.287 233.083 152.602 232.471L133.986 212.916L151.214 226.23C151.886 226.706 152.792 226.671 153.427 226.147L164.073 217.348C164.825 216.727 165.025 215.655 164.546 214.806L154.691 197.293C153.553 195.272 152.148 193.415 150.512 191.771L134.098 179.382C134.049 179.434 134.014 179.495 133.954 179.539L122.168 188.03C120.275 189.394 117.55 192.528 118.37 194.713L129.153 224.295C131.015 229.42 133.327 234.369 136.059 239.088L150.541 264.091C154.384 269.379 165.501 275 170.654 276.77L191.838 285.463C195.474 286.713 198.552 289.209 200.525 292.509L219.485 324.224C220.024 325.125 221.193 325.414 222.089 324.868L287.499 287.393C288.485 286.792 288.707 285.454 287.965 284.567Z" fill="white"/>
</g>
<mask id="mask2_2011_95302" style="mask-type:luminance" maskUnits="userSpaceOnUse" x="-34" y="-17" width="455" height="454">
<path d="M-33.0449 -16.8517H420.516V436.852H-33.0449V-16.8517Z" fill="white"/>
</mask>
<g mask="url(#mask2_2011_95302)">
<path d="M190.394 204.973C190.635 205.388 191.137 205.573 191.589 205.413L205.346 200.552C206.356 200.314 207.01 199.334 206.842 198.309L204.818 190.526L204.392 190.558C202.731 190.616 201.247 189.528 200.804 187.926L194.273 164.331C193.734 162.384 194.801 160.353 196.711 159.694L197.375 159.465L193.845 146.5C193.391 144.831 192.814 143.198 192.12 141.614L186.276 132.464C186.274 132.463 182.641 128.409 182.641 128.409C182.052 127.784 179.18 127.056 179.18 127.056C177.809 126.813 164.796 131.271 161.185 133.049C160.442 133.414 159.769 133.902 159.199 134.503C158.576 135.158 158.015 135.869 157.522 136.625C156.723 137.851 156.359 139.311 156.437 140.773C156.437 140.773 157.49 145.261 157.776 146.438L190.394 204.973Z" fill="white"/>
</g>
<mask id="mask3_2011_95302" style="mask-type:luminance" maskUnits="userSpaceOnUse" x="-34" y="-17" width="455" height="454">
<path d="M-33.0449 -16.8517H420.516V436.852H-33.0449V-16.8517Z" fill="white"/>
</mask>
<g mask="url(#mask3_2011_95302)">
<path d="M135.177 177.717C135.188 177.73 135.189 177.749 135.2 177.762L151.898 189.441C153.447 190.827 154.82 192.397 155.99 194.115L169.609 214.723C169.763 214.971 179.045 214.048 179.045 214.048C179.876 213.871 180.687 213.61 181.466 213.271L187.849 209.049C187.684 208.886 155.744 147.325 155.744 147.325L143.985 149.886C140.659 150.61 138.242 151.41 135.666 153.637L131.251 160.507C130.232 162.271 130.378 163.963 130.762 165.95L135.177 177.717Z" fill="white"/>
</g>
<mask id="mask4_2011_95302" style="mask-type:luminance" maskUnits="userSpaceOnUse" x="-34" y="-17" width="455" height="454">
<path d="M-33.0449 -16.8517H420.516V436.852H-33.0449V-16.8517Z" fill="white"/>
</mask>
<g mask="url(#mask4_2011_95302)">
<path d="M123.14 223.19L71.5449 198.628L67.436 176.589L123.14 223.19Z" fill="white"/>
</g>
<mask id="mask5_2011_95302" style="mask-type:luminance" maskUnits="userSpaceOnUse" x="-34" y="-17" width="455" height="454">
<path d="M-33.0449 -16.8517H420.516V436.852H-33.0449V-16.8517Z" fill="white"/>
</mask>
<g mask="url(#mask5_2011_95302)">
<path d="M132.65 246.627L121.827 300.316L136.36 316.134L132.65 246.627Z" fill="white"/>
</g>
<mask id="mask6_2011_95302" style="mask-type:luminance" maskUnits="userSpaceOnUse" x="-34" y="-17" width="455" height="454">
<path d="M-33.0449 -16.8517H420.516V436.852H-33.0449V-16.8517Z" fill="white"/>
</mask>
<g mask="url(#mask6_2011_95302)">
<path d="M105.082 238.993L110.272 241.969L115.1 231.467L105.082 238.993Z" fill="white"/>
</g>
<mask id="mask7_2011_95302" style="mask-type:luminance" maskUnits="userSpaceOnUse" x="-34" y="-17" width="455" height="454">
<path d="M-33.0449 -16.8517H420.516V436.852H-33.0449V-16.8517Z" fill="white"/>
</mask>
<g mask="url(#mask7_2011_95302)">
<path d="M111.676 248.386L118.932 250.87L126.37 234.575L111.676 248.386Z" fill="white"/>
</g>
<mask id="mask8_2011_95302" style="mask-type:luminance" maskUnits="userSpaceOnUse" x="-34" y="-17" width="455" height="454">
<path d="M-33.0449 -16.8517H420.516V436.852H-33.0449V-16.8517Z" fill="white"/>
</mask>
<g mask="url(#mask8_2011_95302)">
<path d="M115.1 227.384L108.528 221.661L103.785 228.719L115.1 227.384Z" fill="white"/>
</g>
<mask id="mask9_2011_95302" style="mask-type:luminance" maskUnits="userSpaceOnUse" x="-34" y="-17" width="455" height="454">
<path d="M-33.0449 -16.8517H420.516V436.852H-33.0449V-16.8517Z" fill="white"/>
</mask>
<g mask="url(#mask9_2011_95302)">
<path d="M77.4265 275.617L114.897 252.782L105.673 251.001L109.236 245.76L96.9754 240.719L105.39 232.482L96.889 235.428L101.266 224.326L61.0974 248.805C58.8089 250.199 58.0772 253.213 59.4715 255.503L70.7302 273.991C72.1246 276.28 75.138 277.012 77.4265 275.617Z" fill="white"/>
</g>
<mask id="mask10_2011_95302" style="mask-type:luminance" maskUnits="userSpaceOnUse" x="-34" y="-17" width="455" height="454">
<path d="M-33.0449 -16.8517H420.516V436.852H-33.0449V-16.8517Z" fill="white"/>
</mask>
<g mask="url(#mask10_2011_95302)">
<path d="M60.3095 236.454C62.8002 234.937 65.9942 235.553 67.7954 237.748L84.534 227.548L75.3375 212.446C73.677 209.72 70.0892 208.849 67.3643 210.509L39.0596 227.758V249.404L60.3095 236.454Z" fill="white"/>
</g>
<mask id="mask11_2011_95302" style="mask-type:luminance" maskUnits="userSpaceOnUse" x="-34" y="-17" width="455" height="454">
<path d="M-33.0449 -16.8517H420.516V436.852H-33.0449V-16.8517Z" fill="white"/>
</mask>
<g mask="url(#mask11_2011_95302)">
<path d="M116.256 279.635L107.059 264.534L90.3206 274.735C91.4437 277.343 90.5262 280.464 88.0364 281.982L52.3813 303.709C55.7092 307.727 59.4241 311.091 63.2435 313.298L67.8257 315.944L114.32 287.611C117.044 285.95 117.916 282.361 116.256 279.635Z" fill="white"/>
</g>
<mask id="mask12_2011_95302" style="mask-type:luminance" maskUnits="userSpaceOnUse" x="-34" y="-17" width="455" height="454">
<path d="M-33.0449 -16.8517H420.516V436.852H-33.0449V-16.8517Z" fill="white"/>
</mask>
<g mask="url(#mask12_2011_95302)">
<path d="M269.181 164.835L318.999 187.788L323.208 208.893L269.181 164.835Z" fill="white"/>
</g>
<mask id="mask13_2011_95302" style="mask-type:luminance" maskUnits="userSpaceOnUse" x="-34" y="-17" width="455" height="454">
<path d="M-33.0449 -16.8517H420.516V436.852H-33.0449V-16.8517Z" fill="white"/>
</mask>
<g mask="url(#mask13_2011_95302)">
<path d="M232.813 142.534L244.786 92.6944L231.739 77.4007L232.813 142.534Z" fill="white"/>
</g>
<mask id="mask14_2011_95302" style="mask-type:luminance" maskUnits="userSpaceOnUse" x="-34" y="-17" width="455" height="454">
<path d="M-33.0449 -16.8517H420.516V436.852H-33.0449V-16.8517Z" fill="white"/>
</mask>
<g mask="url(#mask14_2011_95302)">
<path d="M263.891 114.346L249.238 114.728L237.263 143.902L263.891 114.346Z" fill="white"/>
</g>
<mask id="mask15_2011_95302" style="mask-type:luminance" maskUnits="userSpaceOnUse" x="-34" y="-17" width="455" height="454">
<path d="M-33.0449 -16.8517H420.516V436.852H-33.0449V-16.8517Z" fill="white"/>
</mask>
<g mask="url(#mask15_2011_95302)">
<path d="M270.726 148.239L266.905 141.587L250.576 148.939L270.726 148.239Z" fill="white"/>
</g>
<mask id="mask16_2011_95302" style="mask-type:luminance" maskUnits="userSpaceOnUse" x="-34" y="-17" width="455" height="454">
<path d="M-33.0449 -16.8517H420.516V436.852H-33.0449V-16.8517Z" fill="white"/>
</mask>
<g mask="url(#mask16_2011_95302)">
<path d="M301.575 107.862L264.104 130.696L273.328 132.477L269.765 137.719L282.026 142.76L273.611 150.996L282.112 148.05L277.735 159.153L317.904 134.674C320.192 133.279 320.924 130.266 319.529 127.976L308.271 109.488C306.876 107.199 303.863 106.467 301.575 107.862Z" fill="white"/>
</g>
<mask id="mask17_2011_95302" style="mask-type:luminance" maskUnits="userSpaceOnUse" x="-34" y="-17" width="455" height="454">
<path d="M-33.0449 -16.8517H420.516V436.852H-33.0449V-16.8517Z" fill="white"/>
</mask>
<g mask="url(#mask17_2011_95302)">
<path d="M264.682 95.8674C261.957 97.5284 261.085 101.117 262.746 103.843L271.942 118.944L288.681 108.744C287.558 106.136 288.474 103.014 290.965 101.497L302.764 94.3067L284.527 83.7738L264.682 95.8674Z" fill="white"/>
</g>
<mask id="mask18_2011_95302" style="mask-type:luminance" maskUnits="userSpaceOnUse" x="-34" y="-17" width="455" height="454">
<path d="M-33.0449 -16.8517H420.516V436.852H-33.0449V-16.8517Z" fill="white"/>
</mask>
<g mask="url(#mask18_2011_95302)">
<path d="M311.206 145.731L294.467 155.931L303.664 171.032C305.324 173.758 308.912 174.629 311.637 172.969L348.412 150.56V148.603C348.412 143.288 346.882 137.264 344.333 131.399L318.692 147.024C316.201 148.542 313.007 147.926 311.206 145.731Z" fill="white"/>
</g>
</g>
<defs>
<clipPath id="clip0_2011_95302">
<rect width="387.47" height="420" fill="white"/>
</clipPath>
</defs>
</svg>
