<svg width="387" height="420" viewBox="0 0 387 420" fill="none" xmlns="http://www.w3.org/2000/svg">
<path d="M290.302 283.952C284.562 304.441 243.636 313.941 236.297 321.721C228.959 329.5 234.372 338.493 233.451 338.527C232.53 338.56 224.82 327.842 233.909 317.143C242.999 306.443 271.688 299.246 280.734 278.104C289.78 256.962 282.738 234.9 283.914 234.78C285.09 234.659 296.041 263.463 290.302 283.952Z" fill="white"/>
<path d="M193.573 330.502C202.809 316.849 276.904 266.348 251.713 254.327C246.378 251.782 240.371 254.1 237.782 260.048C234.585 267.395 244.387 272.011 243.965 272.604C243.416 273.374 225.625 270.496 229.23 254.015C231.267 244.704 255.238 230.287 269.844 250.657C285.779 274.11 251.523 293.927 200.01 333.385C190.24 341.112 200.21 353.249 199.536 353.452C198.861 353.655 184.338 344.156 193.573 330.502Z" fill="white"/>
<path d="M175.885 327.282C178.957 311.086 213.004 300.291 218.569 293.698C224.133 287.106 218.719 280.68 219.501 280.575C220.283 280.47 227.81 288.021 221.011 297.002C214.213 305.982 190.394 313.962 184.561 330.941C178.729 347.92 186.693 364.223 185.702 364.416C184.71 364.609 172.813 343.477 175.885 327.282Z" fill="white"/>
<path d="M252.085 146.121C252.506 146.422 262.619 129.386 266.957 122.819C271.295 116.252 277.08 108.363 278.269 108.054C278.859 107.9 282.032 107.34 285.797 107.735C289.607 108.135 292.136 109.236 293.156 109.425C294.176 109.614 300.609 111.07 301.024 111.188C301.439 111.306 303.623 109.302 303.489 108.892C303.355 108.482 302.453 106.08 300.764 104.546C299.076 103.013 292.771 98.3686 291.915 98.0638C291.06 97.759 283.623 97.2149 283.623 97.2149C283.623 97.2149 286.348 94.6574 286.3 94.0155C286.252 93.3736 281.442 89.5946 280.619 89.706C279.796 89.8175 276.226 92.4072 274.416 94.4726C272.607 96.5379 270.992 99.0743 270.76 101.459C270.528 103.844 268.268 107.817 263.838 111.906C259.409 115.995 248.158 124.032 247.449 124.704C246.741 125.376 249.543 128.57 250.388 134.237C251.232 139.905 251.664 145.819 252.085 146.121Z" fill="white"/>
<path d="M260.922 177.998C261.151 178.49 272.434 180.903 280.222 182.042C288.01 183.181 298.66 187.464 299.444 188.408C299.834 188.878 301.688 191.513 302.93 195.089C304.185 198.708 304.262 201.465 304.524 202.469C304.786 203.473 306.2 209.915 306.269 210.341C306.339 210.767 309.081 211.893 309.395 211.598C309.709 211.303 311.5 209.465 312.172 207.286C312.844 205.106 314.371 197.425 314.284 196.521C314.196 195.617 311.531 188.653 311.531 188.653C311.531 188.653 315.003 190.034 315.564 189.718C316.125 189.402 317.504 183.443 317.054 182.745C316.603 182.048 312.742 179.915 310.104 179.153C307.466 178.392 304.484 178.007 302.226 178.81C299.968 179.612 295.572 178.783 289.989 176.509C284.405 174.235 278.314 167.424 272.325 164.562C266.336 161.701 254.745 160.429 256.11 161.612C256.776 162.19 258.822 166.145 259.623 169.989C260.54 174.39 260.805 177.747 260.922 177.998Z" fill="white"/>
<path d="M169.702 154.152C169.52 154.57 170.688 164.061 173.339 170.592C176.549 178.503 181.372 183.665 181.372 183.665C181.372 183.665 189.349 179.558 198.348 177.92C207.348 176.281 214.499 176.876 215.064 177.038C215.628 177.2 217.659 179.312 219.587 182.911C221.515 186.51 221.782 189.056 222.377 189.803C222.972 190.55 235.854 194.917 240.356 198.576C244.858 202.235 251.736 208.987 253.457 208.739C255.179 208.49 258.681 195.941 258.681 195.941C258.681 195.941 247.926 182.386 232.367 175.634C216.807 168.882 189.076 169.823 189.076 169.823C189.076 169.823 205.709 166.084 223.03 168.386C240.351 170.689 255.923 187.618 256.852 186.871C257.379 186.447 257.618 178.009 256.42 170.589C255.508 164.94 251.622 160.043 250.876 159.313C250.13 158.583 230.213 150.782 213.562 150.039C196.911 149.295 179.935 158.853 179.935 158.853C179.935 158.853 190.542 149.798 208.926 146.839C227.31 143.88 246.61 153.867 247.755 153.078C248.9 152.29 246.983 132.81 244.073 126.693C241.164 120.576 236.203 115.314 234.522 115.759C232.841 116.204 211.054 122.284 194.953 132.605C178.852 142.926 170.103 153.229 169.702 154.152Z" fill="white"/>
<path d="M223.095 194.308C222.917 194.644 223.242 198.686 223.068 202.591C222.903 206.317 222.23 209.905 222.377 210.501C222.677 211.723 235.042 222.204 236.546 222.255C238.05 222.305 250.546 215.82 250.323 214.615C250.216 214.037 245.313 207.759 239.027 203.078C232.207 198 223.406 193.722 223.095 194.308Z" fill="white"/>
<path d="M159.431 164.338C159.217 165.575 160.972 172.689 164.197 180.336C167.422 187.982 171.803 198.841 172.751 200.055C173.698 201.268 182.901 204.169 187.899 208.608C192.897 213.047 198.429 236.569 213.234 237.469C228.038 238.369 236.987 224.903 234.381 225.1C233.287 225.182 230.878 226.597 228.089 227.867C224.24 229.619 219.665 231.094 216.823 228.404C211.921 223.764 219.045 206.834 219.045 198.683C219.045 190.533 214.367 180.88 212.581 180.531C210.794 180.183 194.784 182.06 190.38 183.6C185.977 185.14 180.674 189.305 179.737 189.281C178.8 189.257 172.734 182.17 170.596 177.136C168.458 172.102 165.97 159.239 164.524 158.788C163.077 158.337 159.644 163.101 159.431 164.338Z" fill="white"/>
<path d="M131.55 212.395C131.364 213.578 135.181 218.455 136.512 219.186C137.843 219.916 142.911 220.188 145.523 218.794C148.135 217.4 166.339 201.03 167.266 197.573C168.194 194.116 162.776 183.14 161.39 183.143C160.003 183.146 156.103 191.878 154.207 193.917C152.312 195.956 131.736 211.212 131.55 212.395Z" fill="white"/>
<path d="M145.495 237.763C145.981 239.009 150.199 244.941 154.291 252.496C158.374 260.034 161.845 267.947 162.024 268.697C162.382 270.199 160.76 272.471 161.409 278.408C162.058 284.346 156.611 289.288 159.023 290.812C161.435 292.336 168.824 287.258 171.35 274.514C175.631 272.667 178.829 279.949 180.648 278.924C182.466 277.899 178.86 270.12 175.864 269.182C172.867 268.244 170.333 265.109 169.319 263.987C168.779 263.391 164.452 254.444 160.885 246.198C157.745 238.939 156.221 232.759 155.283 232.222C154.345 231.686 145.008 236.516 145.495 237.763Z" fill="white"/>
<path d="M135.837 222.776C134.788 224.14 136.514 227.702 138.416 230.256C140.318 232.81 143.882 233.904 147.629 232.324C151.376 230.744 152.089 228.382 152.927 226.513C153.764 224.644 153.143 220.178 151.312 219.295C149.481 218.411 147.148 221.442 144.637 222.025C142.125 222.607 136.886 221.412 135.837 222.776Z" fill="white"/>
<path d="M135.991 186.865C136.028 187.588 138.765 188.656 140.127 190.617C141.684 192.858 142.971 195.378 143.631 195.288C145.029 195.098 150.123 191.274 152.177 188.827C153.899 186.774 158.581 178.099 158.714 177.463C158.976 176.211 157.712 169.643 156.102 169.562C154.492 169.481 135.912 185.316 135.991 186.865Z" fill="white"/>
<path d="M124.408 184.838C123.997 183.649 128.859 170.83 128.151 166.824C127.442 162.819 122.358 149.817 122.047 149.158C121.425 147.839 119.28 146.907 116.393 142.069C113.507 137.232 108.633 136.225 109.266 133.995C109.898 131.765 115.681 131.689 124.058 140.146C127.452 139.447 125.509 131.738 127.3 131.67C129.091 131.602 131.269 140.422 130.114 142.609C128.959 144.797 128.636 147.804 128.685 149.156C128.71 149.875 137.227 162.085 137.943 165.156C138.659 168.227 134.992 184.015 134.763 184.885C134.535 185.754 124.819 186.026 124.408 184.838Z" fill="white"/>
<path d="M119.892 201.225C120.742 202.751 127.197 209.401 129.813 208.402C132.43 207.404 140.181 199.833 140.004 197.945C139.827 196.057 135.249 190.399 133.068 189.405C130.886 188.41 123.304 188.171 121.999 189.235C120.695 190.3 119.042 199.699 119.892 201.225Z" fill="white"/>
<path d="M92.982 261.286C91.5351 261.289 85.4007 273.026 86.4153 278.043C87.4298 283.061 91.4548 285.849 95.6729 285.341C99.8909 284.833 102.246 280.992 102.254 275.962C102.262 270.932 94.429 261.283 92.982 261.286Z" fill="white"/>
<path d="M90.4905 260.037C90.171 258.626 77.3759 255.208 72.702 257.296C68.0282 259.384 66.1882 263.921 67.6069 267.926C69.0256 271.93 73.288 273.388 78.198 272.295C83.1081 271.203 90.81 261.448 90.4905 260.037Z" fill="white"/>
<path d="M108.566 237.494C108.566 237.494 114.809 231.162 116.591 226.006C118.373 220.85 118.195 209.033 118.966 208.322C119.737 207.611 124.886 211.85 126.778 214.341C128.669 216.833 131.33 220.293 131.355 221.43C131.379 222.566 127.259 226.234 127.259 226.234C127.259 226.234 129.672 229.879 132.332 230.767C134.992 231.654 138.45 235.709 138.237 237.654C138.024 239.599 132.356 243.21 130.872 245.532C129.388 247.853 130.221 248.834 128.828 249.652C127.434 250.471 123.391 248.282 120.371 248.139C117.351 247.996 115.791 248.718 115.791 248.718C115.791 248.718 119.314 250.841 120.369 252.431C121.425 254.021 117.716 260.095 110.673 261.418C103.63 262.74 88.3083 256.898 85.0925 250.655C81.8767 244.411 82.4337 236.465 86.2251 228.89C90.0165 221.314 91.5699 221.991 92.9329 214.423C94.296 206.856 83.3447 205.578 81.3721 197.871C79.3994 190.164 81.9457 184.258 87.0586 180.039C92.1716 175.819 97.9345 173.808 106.57 178.192C115.205 182.575 116.318 196.369 115.709 213.057C115.099 229.744 108.566 237.494 108.566 237.494Z" fill="white"/>
</svg>
