<svg width="388" height="420" viewBox="0 0 388 420" fill="none" xmlns="http://www.w3.org/2000/svg">
<path d="M219.249 302.355C223.654 305.25 224.252 310.193 219.786 312.906L219.404 313.142C155.198 349.787 82.8906 279.946 117.289 214.507L129.208 191.831C130.36 189.642 131.242 187.321 131.83 184.919L132.509 182.159C132.759 181.142 133.661 180.426 134.705 180.412L139.533 180.341C140.046 180.334 140.458 180.757 140.441 181.267L139.962 195.139C138.35 241.784 167.225 284.068 211.259 299.547L219.249 302.355Z" fill="white"/>
<path d="M251.887 266.27L253.495 266.213C256.769 266.101 259.928 267.936 260.613 270.969L260.559 271.408C243.502 303.78 161.38 278.929 155.374 228.27L154.049 217.098C153.887 215.726 153.374 214.419 152.563 213.3L149.786 209.483C149.526 209.121 149.617 208.615 149.992 208.371L151.316 207.506C151.745 207.226 152.32 207.338 152.61 207.76L158.12 215.672C179.559 246.483 214.367 265.267 251.887 266.27Z" fill="white"/>
<path d="M273.003 221.101L273.31 221.368C258.442 258.253 206.145 262.983 183.215 229.733L167.547 208.446C167.395 208.24 167.445 207.953 167.661 207.811L168.02 207.578C168.188 207.466 168.418 207.486 168.567 207.625C197.175 233.861 239.043 240.169 273.003 221.101Z" fill="white"/>
<path d="M227.589 196.655C225.258 198.446 225.127 201.216 227.721 202.54L227.941 202.655C265.11 220.405 302.444 178.655 280.667 143.696L273.123 131.581C272.393 130.412 271.809 129.159 271.383 127.844L270.897 126.341C270.714 125.787 270.187 125.425 269.606 125.459L266.917 125.615C266.633 125.635 266.42 125.885 266.451 126.169L267.282 133.854C270.076 159.709 255.752 184.378 231.914 194.77L227.589 196.655Z" fill="white"/>
<path d="M207.985 177.933L207.09 177.97C205.265 178.041 203.586 179.186 203.33 180.899L203.377 181.142C214.171 198.436 258.789 181.284 260.066 152.892L260.347 146.632C260.384 145.862 260.613 145.115 261.019 144.46L262.407 142.226C262.539 142.017 262.465 141.737 262.249 141.618L261.478 141.189C261.228 141.051 260.914 141.139 260.769 141.382L258.029 146.003C247.37 163.997 228.792 175.848 207.985 177.933Z" fill="white"/>
<path d="M194.418 153.696L194.255 153.858C204.019 173.747 233.269 174.247 244.657 154.838L252.499 142.372C252.573 142.254 252.532 142.095 252.407 142.024L252.198 141.909C252.1 141.855 251.975 141.875 251.897 141.96C237.07 157.699 214.059 162.909 194.418 153.696Z" fill="white"/>
<path d="M201.847 127.182C203.482 128.236 203.719 130.057 202.08 131.074L201.938 131.162C178.374 144.885 151.476 119.358 163.952 95.108L168.276 86.7026C168.692 85.8918 169.009 85.0303 169.219 84.1452L169.459 83.1249C169.55 82.7499 169.881 82.4797 170.266 82.4729L172.047 82.4324C172.236 82.4254 172.388 82.581 172.384 82.7702L172.253 87.8884C171.81 105.101 182.597 120.605 198.891 126.172L201.847 127.182Z" fill="white"/>
<path d="M213.769 113.767L214.363 113.74C215.569 113.689 216.742 114.355 217.002 115.47L216.985 115.632C210.799 127.628 180.424 118.726 178.042 100.061L177.519 95.9425C177.455 95.4358 177.262 94.9561 176.958 94.5473L175.921 93.1486C175.823 93.0169 175.857 92.8277 175.995 92.7365L176.478 92.4121C176.637 92.3074 176.85 92.348 176.958 92.5034L179.015 95.4053C187.022 106.699 199.924 113.517 213.769 113.767Z" fill="white"/>
<path d="M221.411 97.0334L221.526 97.1314C216.161 110.787 196.884 112.699 188.32 100.51L182.472 92.7091C182.414 92.6314 182.431 92.5267 182.509 92.4726L182.641 92.3848C182.705 92.3442 182.789 92.3509 182.843 92.4016C193.482 101.986 208.948 104.179 221.411 97.0334Z" fill="white"/>
</svg>
