<svg width="388" height="420" viewBox="0 0 388 420" fill="none" xmlns="http://www.w3.org/2000/svg">
<path d="M123.851 185.064C123.831 185.162 123.841 185.112 123.851 185.064V185.064Z" fill="white"/>
<path d="M264.067 185.064C264.077 185.112 264.087 185.162 264.067 185.064V185.064Z" fill="white"/>
<path d="M312.381 209.912C308.452 222.784 300.256 231.233 286.493 233.48C272.192 235.814 257.891 235.801 243.635 233.365C229.067 230.875 219.837 222.159 215.577 208.156C214.189 196.311 217.824 190.645 232.195 188.375C241.483 185.652 252.858 185.804 264.067 185.064C269.875 185.395 275.702 185.514 281.483 186.115C289.709 186.977 297.8 188.517 305.273 192.382C310.658 195.162 313.06 197.375 313.06 203.568L312.381 209.912ZM172.341 208.156C168.084 222.159 158.851 230.875 144.283 233.365C130.03 235.801 115.726 235.814 101.425 233.48C87.6617 231.233 79.4658 222.784 75.5367 209.912L74.8576 203.568C74.8576 197.375 77.2597 195.162 82.6448 192.382C90.1178 188.517 98.2124 186.977 106.439 186.115C112.216 185.514 118.043 185.395 123.851 185.064C135.06 185.804 146.435 185.652 155.723 188.375C170.094 190.645 173.729 196.311 172.341 208.156ZM327.256 179.787C298.236 175.892 269.091 174.811 239.881 176.595C228.28 177.301 216.733 178.885 205.175 180.216C201.429 180.649 197.689 180.862 193.959 180.909C190.226 180.862 186.489 180.649 182.743 180.216C171.185 178.885 159.638 177.301 148.04 176.595C118.827 174.811 89.6853 175.892 60.6617 179.787C52.8576 180.835 52.6448 181.176 52.486 189.142C52.432 191.916 52.9928 194.108 55.2462 196.085C59.2935 199.639 61.2259 204.243 61.3982 209.767C61.8036 222.902 65.0975 212.206 71.4185 223.787C77.1651 234.308 85.9489 240.463 97.7529 242.385C111.935 244.693 126.192 244.669 140.422 243.287C161.26 241.26 174.973 230.213 180.51 209.872C182.719 202.966 183.635 201.676 186.141 199.672C187.55 198.544 189.239 197.419 189.239 197.419C190.625 196.561 192.256 196.118 193.959 196.037C195.662 196.118 197.29 196.561 198.679 197.419C198.679 197.419 200.368 198.544 201.777 199.672C204.28 201.676 205.202 202.966 207.408 209.872C212.945 230.213 226.658 241.26 247.496 243.287C261.726 244.669 275.983 244.693 290.165 242.385C301.969 240.463 310.753 234.308 316.496 223.787C322.82 212.206 326.114 222.902 326.52 209.767C326.692 204.243 328.625 199.639 332.672 196.085C334.925 194.108 335.486 191.916 335.432 189.142C335.273 181.176 335.06 180.835 327.256 179.787Z" fill="white"/>
</svg>
