<svg width="388" height="420" viewBox="0 0 388 420" fill="none" xmlns="http://www.w3.org/2000/svg">
<path d="M131.812 263.943C125.319 263.943 120.052 258.679 120.052 252.182V129.845C120.052 123.348 125.319 118.084 131.812 118.084C138.306 118.084 143.573 123.348 143.573 129.845V252.182C143.573 258.679 138.306 263.943 131.812 263.943Z" fill="white"/>
<path d="M90.5321 229.96C84.0355 229.96 78.772 224.696 78.772 218.2V163.825C78.772 157.331 84.0355 152.068 90.5321 152.068C97.0254 152.068 102.289 157.331 102.289 163.825V218.2C102.289 224.696 97.0254 229.96 90.5321 229.96Z" fill="white"/>
<path d="M173.093 229.96C166.6 229.96 161.333 224.696 161.333 218.2V163.825C161.333 157.331 166.6 152.068 173.093 152.068C179.59 152.068 184.853 157.331 184.853 163.825V218.2C184.853 224.696 179.59 229.96 173.093 229.96Z" fill="white"/>
<path d="M255.656 297.52C249.16 297.52 243.896 292.257 243.896 285.76V163.422C243.896 156.926 249.16 151.662 255.656 151.662C262.153 151.662 267.416 156.926 267.416 163.422V285.76C267.416 292.257 262.153 297.52 255.656 297.52Z" fill="white"/>
<path d="M214.376 263.537C207.879 263.537 202.616 258.274 202.616 251.777V197.406C202.616 190.912 207.879 185.646 214.376 185.646C220.869 185.646 226.133 190.912 226.133 197.406V251.777C226.133 258.274 220.869 263.537 214.376 263.537Z" fill="white"/>
<path d="M296.938 263.537C290.445 263.537 285.182 258.274 285.182 251.777V197.406C285.182 190.912 290.445 185.646 296.938 185.646C303.435 185.646 308.699 190.912 308.699 197.406V251.777C308.699 258.274 303.435 263.537 296.938 263.537Z" fill="white"/>
</svg>
