<svg width="387" height="420" viewBox="0 0 387 420" fill="none" xmlns="http://www.w3.org/2000/svg">
<path d="M118.261 163.725C117.938 163.894 117.688 164.088 117.528 164.309C116.249 166.074 118.223 176.112 122.604 181.797C126.985 187.483 137.05 190.15 137.05 190.15C137.05 190.15 131.874 195.624 132.904 198.365C133.934 201.106 147.628 212.854 151.245 210.49C154.689 208.24 155.398 198.699 155.459 197.777C156.511 198.541 163.994 203.839 167.838 202.677C171.974 201.426 171.784 183.385 170.347 180.833C168.91 178.282 161.388 178.727 161.388 178.727C161.388 178.727 165.819 169.304 164.282 162.293C162.745 155.282 156.328 147.314 154.153 147.159C151.978 147.003 147.42 152.29 145.285 157.071C143.187 161.77 142.84 170.473 142.828 170.774C142.405 170.447 135.7 165.286 130.823 163.892C126.418 162.632 120.523 162.544 118.261 163.725Z" fill="white"/>
<path d="M93.1174 122.57C92.8547 122.517 92.622 122.512 92.4286 122.565C90.8812 122.982 87.3695 129.632 87.2452 134.907C87.1209 140.181 91.6406 146.358 91.6406 146.358C91.6406 146.358 86.1517 147.094 85.4731 149.137C84.7944 151.18 87.1901 164.224 90.3504 164.545C93.3587 164.852 98.1743 159.726 98.6357 159.227C98.8836 160.15 100.711 166.638 103.445 167.75C106.387 168.948 114.619 158.549 114.977 156.426C115.335 154.304 110.831 151.081 110.831 151.081C110.831 151.081 117.719 147.744 120.082 143.026C122.444 138.309 122.46 130.788 121.289 129.694C120.118 128.6 115.069 129.514 111.639 131.26C108.267 132.975 104.045 137.789 103.9 137.955C103.809 137.573 102.362 131.524 100.22 128.472C98.2844 125.716 94.9559 122.941 93.1174 122.57Z" fill="white"/>
<path d="M127.111 105.744C126.934 105.78 126.788 105.839 126.682 105.923C125.829 106.592 125.403 111.657 126.721 114.971C128.039 118.285 132.484 120.932 132.484 120.932C132.484 120.932 129.264 122.841 129.382 124.292C129.5 125.742 134.44 133.222 136.491 132.587C138.443 131.982 140.083 127.52 140.238 127.087C140.636 127.596 143.489 131.148 145.484 131.117C147.631 131.084 150.001 122.438 149.663 121.023C149.324 119.608 145.67 118.795 145.67 118.795C145.67 118.795 149.072 114.897 149.294 111.338C149.517 107.779 147.538 103.096 146.52 102.725C145.502 102.354 142.603 104.258 140.931 106.251C139.287 108.21 137.934 112.321 137.887 112.463C137.73 112.249 135.23 108.869 133.09 107.537C131.158 106.335 128.353 105.488 127.111 105.744Z" fill="white"/>
<path d="M72.0382 168.287C69.1725 168.323 66.9741 170.493 65.8605 173.221C64.9729 175.394 64.699 177.995 65.2472 180.498C60.7223 176.671 56.8443 173.664 53.5558 176.252C48.6065 180.147 51.422 189.965 58.2648 193.98C59.147 194.498 60.322 194.883 61.6945 195.168C47.6744 204.732 55.4229 230.08 74.1046 213.797C61.4955 218.697 57.5827 205.682 64.1105 203.148C70.6382 200.614 76.1268 209.612 79.7374 220.902C83.348 232.192 85.7927 256.819 99.9445 265.547C114.096 274.275 140.07 273.801 163.351 275.129C186.597 276.455 193.471 303.645 193.491 303.724V303.738L193.493 303.732C193.493 303.732 193.495 303.738 193.495 303.738V303.724C193.515 303.645 200.389 276.455 223.636 275.129C246.916 273.801 272.89 274.275 287.042 265.547C301.194 256.819 303.639 232.192 307.249 220.902C310.86 209.612 316.348 200.614 322.876 203.148C329.404 205.682 325.491 218.697 312.882 213.797C331.564 230.08 339.312 204.732 325.292 195.168C326.665 194.883 327.84 194.498 328.722 193.98C335.565 189.965 338.38 180.147 333.431 176.252C330.142 173.664 326.264 176.671 321.739 180.498C322.288 177.995 322.014 175.394 321.126 173.221C320.013 170.493 317.814 168.323 314.948 168.287C313.848 168.273 312.856 168.647 312.105 169.287C310.477 170.672 309.845 172.983 309.241 175.562C308.638 178.142 308.131 181.053 307.234 183.666C306.737 185.111 306.153 186.507 305.546 187.814C304.369 183.946 300.344 178.356 292.382 178.437C283.243 178.531 278.243 186.264 278.243 186.264C278.243 186.264 291.316 178.544 294.962 184.812C298.608 191.081 287.206 202.571 272.718 200.971C258.23 199.37 245.856 190.535 226.978 192.482C208.106 194.429 193.504 209.887 193.493 209.898C193.486 209.89 186.377 202.385 175.685 197.174C175.506 198.296 175.289 199.401 174.988 200.461C174.634 201.708 174.199 202.913 173.427 204.142C172.737 205.242 171.655 206.513 169.923 207.228C183.698 212.243 193.474 222.187 193.491 222.205V222.209L193.493 222.207L193.495 222.209V222.205C193.517 222.183 208.494 206.929 227.513 204.68C246.546 202.428 264.764 209.182 277.808 208.58C289.327 208.048 298.046 204.481 301.779 201.348C300.596 219.611 294.945 245.606 282.876 254.43C268.611 264.86 247.15 265.601 224.763 266.994C202.387 268.387 193.502 291.404 193.493 291.428C193.484 291.404 184.6 268.387 162.224 266.994C139.837 265.601 118.376 264.86 104.111 254.43C92.042 245.606 86.3914 219.611 85.2083 201.348C88.9414 204.481 97.6598 208.048 109.179 208.58C115.884 208.889 123.971 207.264 132.82 205.908C132.614 205.714 132.398 205.517 132.202 205.326C131.368 204.511 130.633 203.735 129.992 202.961C129.35 202.187 128.787 201.623 128.224 200.123C127.912 199.292 127.781 198.521 127.751 197.801C123.298 199.192 118.873 200.462 114.269 200.971C99.7808 202.571 88.3786 191.081 92.0247 184.812C95.6708 178.544 108.743 186.264 108.743 186.264C108.743 186.264 103.744 178.531 94.6048 178.437C86.6432 178.356 82.6182 183.946 81.4407 187.814C80.8339 186.507 80.2496 185.111 79.7532 183.666C78.8556 181.053 78.3486 178.142 77.7454 175.562C77.1422 172.983 76.5102 170.672 74.8821 169.287C74.1305 168.647 73.1383 168.273 72.0382 168.287ZM71.7667 173.557C72.168 173.552 72.3785 173.643 72.6163 173.846C73.133 174.285 73.646 175.572 74.046 177.283C74.446 178.994 74.8001 181.067 75.4816 183.051C76.1875 185.106 77.1154 186.856 77.9503 188.373C76.9791 187.788 76.812 187.749 75.5988 186.933C74.1252 185.943 72.6094 184.836 71.3937 183.769C70.178 182.702 69.2799 181.631 69.0148 180.978C68.3505 179.343 68.4372 177.389 69.0382 175.918C69.6392 174.446 70.6312 173.571 71.7667 173.557ZM315.22 173.557C316.355 173.571 317.347 174.446 317.948 175.918C318.549 177.389 318.636 179.343 317.972 180.978C317.707 181.631 316.809 182.702 315.593 183.769C314.377 184.836 312.861 185.943 311.388 186.933C310.174 187.749 310.007 187.788 309.036 188.373C309.871 186.856 310.799 185.106 311.505 183.051C312.186 181.067 312.541 178.994 312.941 177.283C313.341 175.572 313.854 174.285 314.37 173.846C314.608 173.643 314.819 173.552 315.22 173.557Z" fill="white"/>
<path d="M205.969 255.55C205.969 255.55 207.035 233.249 225.948 225.692C235.404 221.913 257.432 221.401 265.46 221.54C273.488 221.68 278.493 222.545 278.493 222.545C278.493 222.545 274.31 225.452 271.991 227.924C269.673 230.396 262.583 243.551 252.44 248.378C242.297 253.206 215.54 252.109 211.311 253.282C207.082 254.454 205.969 255.55 205.969 255.55Z" fill="white"/>
<path d="M181.02 255.55C181.02 255.55 179.953 233.249 161.041 225.692C151.584 221.913 129.556 221.401 121.528 221.54C113.5 221.68 108.495 222.545 108.495 222.545C108.495 222.545 112.678 225.452 114.997 227.924C117.315 230.396 124.405 243.551 134.548 248.378C144.691 253.206 171.449 252.109 175.677 253.282C179.906 254.454 181.02 255.55 181.02 255.55Z" fill="white"/>
</svg>
