<svg width="388" height="420" viewBox="0 0 388 420" fill="none" xmlns="http://www.w3.org/2000/svg">
<path d="M234.034 208C233.946 208.578 233.851 209.165 233.736 209.78C233.713 209.895 233.689 210.007 233.665 210.121C232.959 213.557 231.557 215.726 229.861 217.047C227.469 218.912 224.503 219.108 222.091 218.817C221.209 218.709 220.402 218.537 219.723 218.358C218.463 218.03 217.655 217.676 217.655 217.676C217.655 217.676 217.081 217.263 216.169 216.554C214.699 215.412 212.341 213.507 210.01 211.284C209.409 210.713 208.814 210.118 208.233 209.517C208.213 209.493 208.189 209.469 208.165 209.446C205.486 206.642 203.199 203.574 202.868 201.02C202.007 194.419 202.868 190.111 202.868 190.111C202.868 190.111 201.145 186.233 216.219 186.378C231.294 186.52 231.868 191.044 231.868 191.044C231.868 191.044 234.023 193.449 234.463 199.557C234.628 201.834 234.55 204.625 234.034 208ZM195.996 223.507C195.996 223.507 193.027 226.949 189.773 223.219C189.773 218.334 195.996 209.29 195.996 209.29C195.996 209.29 201.449 218.767 201.736 221.064C202.023 223.361 198.294 225.659 195.996 223.507ZM188.659 201.02C188.145 204.969 182.963 210.145 178.878 213.676C177.226 215.101 175.757 216.253 174.844 216.949C174.236 217.415 173.871 217.676 173.871 217.676C173.871 217.676 173.517 217.831 172.912 218.03C170.848 218.716 165.861 219.932 162.088 217.355C161.48 216.942 160.905 216.426 160.378 215.797C159.24 214.436 158.328 212.534 157.817 209.902C157.807 209.861 157.801 209.821 157.794 209.78C157.689 209.233 157.601 208.706 157.52 208.189C157.067 205.287 156.936 202.811 157.007 200.72C157.233 193.75 159.659 191.044 159.659 191.044C159.659 191.044 160.233 186.52 175.307 186.378C190.382 186.233 188.659 190.111 188.659 190.111C188.659 190.111 189.52 194.419 188.659 201.02ZM245.649 253.703C245.726 253.601 245.801 253.503 245.878 253.395L246.138 252.997C246.304 252.747 246.466 252.415 246.659 252C246.946 251.314 247.152 250.493 247.209 249.777C247.23 249.578 247.24 249.392 247.247 249.169C247.25 249.034 247.247 248.868 247.24 248.692C247.233 248.544 247.226 248.372 247.209 248.192L247.091 247.328L247.01 246.959C246.932 246.598 246.875 246.388 246.841 246.274C246.358 244.652 245.814 243.547 245.334 242.571L244.736 241.415C244.601 241.172 244.463 240.926 244.331 240.719C243.949 240.074 243.561 239.51 243.226 239.037C242.547 238.084 241.773 237.135 240.871 236.135C239.692 234.838 238.415 233.598 236.925 232.301L240.949 228.503L242.213 229.04L243.581 229.753C244.77 230.49 245.919 231.226 246.939 232.169C247.037 232.257 247.142 232.344 247.246 232.436C247.405 232.564 247.584 232.716 247.75 232.895L248.919 234.088L249.969 235.344C250.118 235.507 250.314 235.763 250.581 236.115L251.79 237.682C252.49 238.537 253.101 239.277 253.763 240.034C256.854 243.503 259.939 246.226 263.186 248.351C267.04 250.885 271.054 252.551 275.115 253.307C277.311 253.719 279.534 253.872 281.642 253.76C282.787 253.699 283.854 253.571 284.909 253.375C285.54 253.257 286.05 253.142 286.52 253.013C286.811 252.939 287.088 252.855 287.392 252.76L288.469 252.395L289.331 252.135C289.79 251.99 290.26 251.834 290.726 251.672C291.746 251.317 292.648 250.983 293.476 250.649C295.321 249.912 297.111 249.091 298.8 248.213C302.675 246.196 305.827 244.017 308.442 241.551C310.057 240.02 311.324 238.564 312.311 237.098C313.452 235.419 314.351 233.652 314.976 231.838C315.567 230.122 315.902 228.203 315.976 226.132L315.969 224.699C315.949 224.382 315.919 224.074 315.885 223.763C315.868 223.605 315.851 223.442 315.834 223.267L315.766 222.581L315.361 220.507C315.341 220.392 315.243 220.321 315.125 220.334C315.013 220.348 314.929 220.446 314.932 220.557L315.027 222.625L314.996 223.297C314.986 223.469 314.979 223.632 314.969 223.797C314.956 224.094 314.946 224.365 314.925 224.628L314.915 224.699L314.723 226.03C314.368 227.909 313.81 229.591 313.06 231.03C311.517 233.986 309.165 236.557 306.074 238.665C303.456 240.486 300.378 241.996 296.665 243.27C295.04 243.828 293.331 244.321 291.584 244.733C290.807 244.919 289.969 245.098 289.017 245.277C288.584 245.355 288.158 245.429 287.75 245.493L286.973 245.605C286.81 245.628 286.645 245.649 286.533 245.655C286.52 245.659 286.503 245.662 286.49 245.665L285.973 245.79L285.564 245.855C285.395 245.878 285.26 245.895 285.088 245.912C284.804 245.942 284.452 245.966 284.01 245.983C283.283 246.007 282.52 245.976 281.729 245.898C280.25 245.753 278.746 245.412 277.267 244.888C274.527 243.932 271.881 242.317 269.408 240.094C267.25 238.162 265.236 235.75 263.26 232.723C262.81 232.013 262.368 231.273 261.979 230.621L261.952 230.581L261.202 229.223C261.05 228.949 260.905 228.686 260.672 228.3L259.456 226.294L259.378 226.165L257.912 224.108C257.685 223.79 257.432 223.493 257.189 223.206C257.067 223.064 256.946 222.922 256.834 222.784C255.577 221.226 254.05 219.726 251.885 217.915L249.763 216.344L247.53 214.942L245.723 213.973C245.547 213.882 245.371 213.787 245.182 213.696L244.392 213.338C244.24 213.27 244.074 213.199 243.912 213.125C243.729 213.04 243.547 212.956 243.361 212.878C243.192 212.142 243.108 211.324 243.101 210.452C243.142 210.469 243.182 210.483 243.223 210.5L243.56 210.628C244.006 210.8 244.402 210.98 244.783 211.152C244.959 211.233 245.115 211.304 245.27 211.371L246.084 211.743C246.327 211.855 246.53 211.966 246.736 212.074L248.537 213.037C248.588 213.067 248.635 213.091 248.679 213.121L250.908 214.52C250.952 214.55 250.993 214.577 251.033 214.608L253.158 216.175C253.192 216.202 253.226 216.229 253.26 216.256C255.544 218.169 257.158 219.76 258.506 221.422C258.608 221.55 258.719 221.679 258.831 221.81C259.091 222.118 259.385 222.466 259.665 222.861L261.128 224.912C261.158 224.956 261.185 224.996 261.213 225.037L262.135 226.561C262.344 226.567 262.554 226.574 262.756 226.574C262.892 226.574 263.027 226.574 263.162 226.571C265.402 226.544 267.642 226.219 270.006 225.584C271.875 225.084 273.794 224.354 276.044 223.297C277.807 222.462 279.567 221.473 281.432 220.27C283.081 219.209 284.726 218.033 286.331 216.777C289.537 214.243 292.452 211.554 294.996 208.787C295.442 208.3 295.452 207.557 295.017 207.06C294.581 206.567 293.841 206.476 293.3 206.854C290.371 208.912 287.125 210.81 283.652 212.5C281.976 213.31 280.28 214.033 278.608 214.655C276.8 215.331 275.138 215.837 273.533 216.206C271.577 216.648 270 216.885 268.564 216.942C266.925 217.016 265.402 216.905 264.017 216.608C262.787 216.361 261.571 215.864 260.405 215.131L260.223 215.016C260.023 214.891 259.851 214.787 259.733 214.675C259.719 214.662 259.709 214.652 259.696 214.641C259.571 214.537 259.446 214.435 259.321 214.337C259.182 214.229 259.064 214.135 258.962 214.043C258.716 213.787 258.473 213.537 258.229 213.297C258.209 213.277 258.196 213.263 258.175 213.246C258.128 213.199 258.087 213.141 258.047 213.087L257.648 212.584L256.503 211.233C256.202 210.888 255.902 210.543 255.598 210.209C255.581 210.189 255.564 210.175 255.547 210.158L255.131 209.746C254.442 209.064 253.729 208.358 252.929 207.719C252.142 207.023 251.304 206.429 250.49 205.851L250.057 205.543C250.037 205.53 250.013 205.516 249.993 205.5L249.763 205.354C248.837 204.777 247.885 204.175 246.898 203.682C246.067 203.239 245.196 202.831 244.3 202.445C245.081 199.442 245.946 197.145 245.946 197.145C245.946 197.145 247.956 180.635 243.506 162.256C239.057 143.878 215.652 133.398 215.652 133.398C215.652 133.398 177.892 119.76 154.631 147.898C138.405 167.533 141.26 188.564 144.564 199.729C143.939 199.75 143.321 199.78 142.712 199.82C140.158 200.016 137.645 200.395 135.219 200.952C132.567 201.611 130.223 202.385 128.094 203.304C127.672 203.469 127.28 203.662 126.898 203.844C126.723 203.932 126.547 204.016 126.351 204.108L126.04 204.256C125.581 204.476 125.111 204.702 124.665 204.962L123.077 205.854L121.78 206.621C121.277 206.942 120.736 207.223 120.162 207.52C119.905 207.655 119.648 207.787 119.429 207.908C119.179 208.033 118.925 208.148 118.669 208.263C118.503 208.337 118.337 208.415 118.172 208.493C117.807 208.665 117.378 208.861 116.932 209.027L115.621 209.547L114.26 210.013C113.814 210.175 113.354 210.31 112.959 210.422C112.787 210.469 112.611 210.52 112.435 210.574C112.155 210.655 111.871 210.739 111.574 210.814C109.817 211.27 107.956 211.641 105.902 211.949C103.925 212.216 101.939 212.395 99.9963 212.479C95.9963 212.628 91.9185 212.442 87.8814 211.922C83.4118 211.344 79.4625 210.523 75.8071 209.412C75.1686 209.219 74.4895 209.54 74.2361 210.155C73.9827 210.77 74.2361 211.476 74.8206 211.79C78.3577 213.679 82.2598 215.331 86.753 216.841C90.9185 218.239 95.2192 219.297 99.5436 219.993C101.723 220.327 103.969 220.567 106.243 220.709C108.682 220.827 110.922 220.824 113.081 220.702C113.469 220.682 113.858 220.648 114.246 220.614C114.432 220.594 114.621 220.58 114.81 220.564C115.341 220.523 115.962 220.466 116.577 220.374L118.28 220.148C118.3 220.145 118.321 220.141 118.341 220.138L120.017 219.834C120.642 219.729 121.246 219.587 121.807 219.452C121.989 219.408 122.175 219.368 122.358 219.324C122.753 219.229 123.145 219.138 123.567 219.023C123.844 218.939 124.121 218.861 124.398 218.78C125.253 218.533 126.138 218.28 126.986 217.955L127.824 217.658L129.864 216.982C129.878 216.979 129.895 216.972 129.908 216.969C130.169 216.874 130.466 216.803 130.777 216.726L131.064 216.655C131.24 216.614 131.412 216.567 131.584 216.523C131.834 216.456 132.071 216.395 132.29 216.358C132.307 216.354 132.327 216.351 132.344 216.347C133.094 216.192 133.881 216.064 134.716 215.962C135.797 215.118 137.013 214.253 138.341 213.493C139.175 212.962 140.057 212.526 140.912 212.101C141.115 212.003 141.314 211.905 141.513 211.804C141.986 211.581 142.405 211.408 142.777 211.256C142.929 211.192 143.081 211.128 143.233 211.067L144.057 210.729C144.314 210.631 144.52 210.56 144.726 210.493L145.263 210.314C145.729 210.155 146.199 209.996 146.672 209.851L146.756 209.824L148.412 209.388C148.466 209.375 148.517 209.364 148.567 209.351C148.824 209.817 149.094 210.361 149.334 210.935C149.175 210.972 149.02 211.006 148.865 211.05L147.202 211.489C146.726 211.638 146.267 211.793 145.81 211.945L145.277 212.124C145.088 212.189 144.902 212.249 144.689 212.334L143.895 212.658C143.746 212.719 143.588 212.783 143.432 212.847C143.064 212.999 142.682 213.158 142.27 213.351C142.088 213.445 141.881 213.543 141.679 213.645C140.861 214.05 140.02 214.466 139.229 214.969C138.797 215.216 138.378 215.479 137.973 215.746C136.283 216.851 134.81 218.07 133.662 219.07L132.253 220.449C131.919 220.78 131.571 221.121 131.28 221.472L130.182 222.739L128.611 224.655C128.463 224.834 128.307 225.006 128.152 225.182C128.04 225.307 127.946 225.412 127.865 225.503C127.76 225.621 127.665 225.733 127.571 225.841C127.402 226.033 127.246 226.209 127.101 226.364L126.283 227.216C124.142 229.422 121.719 231.537 119.088 233.496C114.189 237.168 108.395 240.55 101.871 243.554C98.7328 244.993 95.5571 246.29 92.4355 247.415C90.7835 248.01 89.1618 248.554 87.6179 249.027L86.5537 249.347C86.1112 249.462 85.7632 249.543 85.4389 249.611C84.6213 249.783 83.8713 249.908 83.1551 249.996C79.7058 250.429 76.7463 250.236 74.3612 249.425C73.0233 248.972 71.8713 248.324 70.9389 247.496C69.9693 246.645 69.1922 245.554 68.6281 244.256C68.1078 243.057 67.7429 241.645 67.5166 239.945L67.5097 239.895C67.4928 239.679 67.4758 239.459 67.4556 239.239C67.4083 238.679 67.3576 238.104 67.3746 237.496C67.3746 237.364 67.3711 237.212 67.3676 237.06C67.3642 236.787 67.3607 236.55 67.3676 236.31L67.4386 235.084C67.5906 233.084 67.8609 231.652 68.3136 230.422C68.8777 228.858 69.6615 227.692 70.648 226.959C71.7325 226.165 73.1886 225.726 74.7494 225.722C76.2223 225.726 77.8473 225.999 79.5805 226.533C82.6649 227.523 85.7865 229.081 88.8778 231.158C89.0669 231.29 89.3237 231.246 89.4622 231.064C89.5973 230.885 89.5703 230.624 89.398 230.476C86.4318 227.935 83.4656 226.003 80.3237 224.567C78.3845 223.716 76.6075 223.206 74.9082 223.01C74.4757 222.956 74.0433 222.932 73.6143 222.932C71.9217 222.932 70.273 223.347 68.8609 224.141C68.6582 224.246 68.5028 224.361 68.3643 224.459C68.29 224.516 68.2291 224.56 68.1683 224.601C68.0805 224.665 68.0129 224.712 67.9487 224.76C67.8102 224.854 67.6379 224.976 67.4825 225.121L66.6176 225.949C66.5636 226.003 66.5028 226.081 66.4419 226.162L66.3913 226.226C65.7325 227.003 65.1818 227.854 64.6818 228.854C63.7088 230.787 63.2359 232.78 62.898 234.479L62.6514 235.895C62.6108 236.182 62.5771 236.499 62.5467 236.817L62.4994 237.246C62.3913 238.006 62.371 238.756 62.3473 239.476C62.3404 239.709 62.3338 239.942 62.3237 240.172C62.3507 242.466 62.6244 244.439 63.1616 246.226C63.8001 248.378 64.8913 250.364 66.3204 251.972C67.7224 253.57 69.5602 254.935 71.6379 255.928C73.4521 256.8 75.4758 257.428 77.6582 257.803C79.6177 258.138 81.6345 258.293 83.6683 258.27C84.621 258.263 85.5974 258.216 86.6616 258.121C87.121 258.084 87.6244 258.026 88.2123 257.945L89.6987 257.689C91.4589 257.368 93.2291 256.996 95.1177 256.557C98.6177 255.743 102.202 254.746 105.77 253.594C113.3 251.135 119.895 248.26 125.918 244.81C126.276 243.952 126.682 243.101 127.148 242.256C127.739 241.165 128.425 240.08 129.243 238.945C129.901 238.02 130.641 237.091 131.564 236.03C133.047 234.33 134.692 232.695 136.594 231.03C139.699 228.31 143.118 225.787 147.351 223.087C147.456 223.02 147.564 222.955 147.668 222.888C147.577 224.351 147.597 225.428 147.597 225.428C147.604 225.445 147.614 225.459 147.624 225.476C143.891 227.901 140.814 230.195 138.013 232.648C136.185 234.249 134.604 235.82 133.185 237.445C132.314 238.452 131.614 239.327 130.993 240.202C130.361 241.074 129.824 241.912 129.344 242.749C129.239 242.928 129.135 243.108 129.037 243.29C128.858 243.618 128.685 243.945 128.523 244.276C128.297 244.736 128.091 245.195 127.901 245.655C127.222 247.3 126.76 248.966 126.533 250.635C126.361 251.976 126.347 253.341 126.489 254.685L126.614 255.635L126.82 256.618L127.135 257.905C127.533 259.607 127.685 261.253 127.594 262.81C127.496 264.462 127.121 266.104 126.476 267.689C125.263 270.682 122.972 273.648 119.854 276.263C116.844 278.753 113.476 280.766 109.834 282.249C109.732 282.293 109.678 282.405 109.709 282.51C109.739 282.618 109.837 282.665 109.915 282.665C113.945 281.932 117.82 280.594 121.472 278.678C123.412 277.638 125.185 276.452 126.729 275.162C128.486 273.692 129.986 272.053 131.189 270.283C132.499 268.361 133.479 266.253 134.101 264.02C134.709 261.858 134.993 259.51 134.949 257.037L134.891 255.55L134.912 254.868L134.955 254.449C135.04 253.783 135.199 253.155 135.422 252.55C135.905 251.31 136.655 250.124 137.651 248.999C139.472 246.935 142.121 244.925 145.53 243.023C148.368 241.435 151.604 239.969 155.425 238.537C156.317 238.202 157.236 237.874 158.178 237.553C158.999 238.243 159.513 238.638 159.513 238.638C159.513 238.638 165.543 240.935 169.851 239.358C174.158 237.776 176.026 250.124 176.026 250.124C177.523 250.621 178.996 251.043 180.445 251.405C180.685 250.067 181.283 249.118 181.982 249.118C182.8 249.118 183.476 250.405 183.607 252.091C184.939 252.341 186.243 252.54 187.516 252.689C187.635 250.952 188.32 249.621 189.148 249.621C190.023 249.621 190.739 251.104 190.797 252.976C191.935 253.043 193.047 253.074 194.128 253.074C194.239 251.327 194.928 249.979 195.763 249.979C196.58 249.979 197.26 251.276 197.391 252.979C198.594 252.912 199.746 252.807 200.854 252.672C200.972 250.945 201.655 249.621 202.482 249.621C203.232 249.621 203.864 250.709 204.067 252.199C205.232 251.993 206.324 251.763 207.33 251.52C207.493 249.901 208.151 248.689 208.945 248.689C209.591 248.689 210.151 249.499 210.422 250.682C213.574 249.719 215.364 248.831 215.364 248.831C215.364 248.831 216.746 243.178 219.361 239.993C222.604 241.026 225.425 242.111 227.939 243.29C229.601 244.067 231.074 244.871 232.317 245.678C233.003 246.124 233.614 246.564 234.131 246.983C234.428 247.226 234.689 247.442 234.912 247.655C234.996 247.733 235.064 247.8 235.135 247.868L235.28 248.013C235.347 248.084 235.418 248.168 235.489 248.253L235.641 248.428C235.732 248.537 235.817 248.638 235.901 248.739L236.435 249.388L235.935 250.064C235.172 251.101 234.486 252.293 233.999 253.422C233.533 254.51 233.168 255.665 232.864 257.064C232.591 258.256 232.452 259.496 232.439 260.861C232.428 263.243 232.834 265.611 233.641 267.895C234.472 270.222 235.678 272.276 237.226 273.996C238.814 275.763 240.79 277.162 242.949 278.04C244.918 278.858 247.118 279.29 249.493 279.331C251.439 279.364 253.506 279.128 255.77 278.607C259.31 277.773 262.881 276.354 267.01 274.148C267.107 274.094 267.148 273.972 267.107 273.871C267.06 273.77 266.945 273.719 266.841 273.753C262.567 275.178 258.83 275.976 255.412 276.185C253.354 276.303 251.476 276.202 249.824 275.888C247.955 275.533 246.317 274.912 244.955 274.043C243.567 273.168 242.422 272.023 241.557 270.635C240.732 269.317 240.175 267.81 239.898 266.165C239.631 264.574 239.638 262.939 239.918 261.435C240.067 260.655 240.276 259.949 240.523 259.391C240.844 258.699 241.229 258.05 241.621 257.543C242.02 257.033 242.442 256.608 242.989 256.162L244.111 255.256C244.506 254.925 244.996 254.516 245.621 253.739" fill="white"/>
</svg>
