<svg width="388" height="420" viewBox="0 0 388 420" fill="none" xmlns="http://www.w3.org/2000/svg">
<path d="M121.723 171.95C106.166 171.95 98.8413 181.365 98.8413 203.591C98.8413 226.868 106.034 235.368 121.723 235.368C137.936 235.368 144.213 224.645 144.213 203.591C144.213 181.105 137.02 171.95 121.723 171.95ZM121.723 248.051C91.2569 248.051 81.8447 228.96 81.8447 203.591C81.8447 178.75 92.3042 159.267 121.855 159.267C151.014 159.267 161.21 177.575 161.21 203.591C161.21 228.7 151.142 248.051 121.723 248.051Z" fill="white"/>
<path d="M160.777 249.486H226.416V260.733H160.777V249.486Z" fill="white"/>
<path d="M266.135 171.95C250.574 171.95 243.253 181.365 243.253 203.591C243.253 226.868 250.443 235.368 266.135 235.368C282.348 235.368 288.625 224.645 288.625 203.591C288.625 181.105 281.433 171.95 266.135 171.95ZM266.135 248.051C235.669 248.051 226.257 228.96 226.257 203.591C226.257 178.75 236.716 159.267 266.267 159.267C295.422 159.267 305.622 177.575 305.622 203.591C305.622 228.7 295.554 248.051 266.135 248.051Z" fill="white"/>
</svg>
