<svg width="388" height="420" viewBox="0 0 388 420" fill="none" xmlns="http://www.w3.org/2000/svg">
<path d="M87.9055 228.272C88.6234 223.366 93.2048 219.954 98.1111 220.672L246.633 242.404C251.539 243.122 254.951 247.703 254.233 252.61C250.881 275.517 233.592 292.967 212.237 297.608L210.995 302.239C209.585 307.342 204.595 310.595 199.332 309.825L124.112 298.818C118.881 298.053 115 293.502 115.111 288.208L115.211 283.444C96.1179 272.851 84.5536 251.179 87.9055 228.272ZM100.36 215.687L240.307 236.165L239.792 229.491C239.453 225.098 237.011 221.14 233.237 218.865L231.063 217.555C229.198 216.431 227.886 214.581 227.443 212.449L227.301 211.764C226.719 208.96 224.446 206.819 221.612 206.404C217.934 205.866 215.371 202.433 215.842 198.745C216.319 195.004 213.718 191.519 209.986 190.973L208.875 190.811C207.161 190.56 205.574 189.764 204.347 188.54L199.105 183.308C197.522 181.728 195.769 180.327 193.879 179.131L186.046 174.175L183.245 172.135C179.52 169.421 174.402 169.692 170.984 172.785C169.421 174.199 167.441 175.068 165.342 175.26L160.668 175.689C157.664 175.964 154.947 177.59 153.284 180.108L151.947 182.134C150.317 184.601 147.259 185.704 144.43 184.845C141.579 183.98 138.5 185.106 136.88 187.606L135.526 189.697C133.979 192.084 131.489 193.699 128.678 194.136L126.901 194.413C123.803 194.895 121.13 196.848 119.729 199.652C118.294 202.524 115.507 204.5 112.325 204.924C109.798 205.261 107.486 206.576 105.915 208.584L100.357 215.687L100.36 215.687Z" fill="white"/>
<path d="M223.864 156.934C227.555 154.936 230.932 153.109 234.512 151.174C240.357 161.277 246.076 171.168 251.795 181.049C264.06 202.254 276.335 223.459 288.591 244.673C290.655 248.246 289.762 251.485 286.536 252.231C284.101 252.794 282.452 251.736 281.165 249.646C264.44 222.554 247.665 195.484 230.913 168.41C228.599 164.674 226.308 160.915 223.868 156.929L223.864 156.934Z" fill="white"/>
<path d="M260.269 135.925C264.126 134.636 267.688 133.453 271.582 132.146C271.971 133.427 272.339 134.51 272.638 135.615C281.526 168.579 290.4 201.548 299.283 234.517C299.45 235.143 299.626 235.769 299.761 236.4C300.399 239.46 299.284 241.645 296.757 242.307C294.192 242.979 292.055 241.737 291.145 238.761C287.89 228.124 284.719 217.452 281.511 206.797C274.719 184.249 267.922 161.696 261.135 139.153C260.857 138.227 260.638 137.288 260.279 135.916L260.269 135.925Z" fill="white"/>
<path d="M270.301 126.939C266.31 128.268 262.66 129.481 258.605 130.837C256.131 122.468 253.576 114.378 251.398 106.182C250.511 102.839 253.009 99.6655 256.341 98.9529C259.645 98.24 262.919 100.014 263.914 103.469C266.117 111.132 268.117 118.849 270.305 126.944L270.301 126.939Z" fill="white"/>
<path d="M221.021 152.415C216.866 145.715 212.875 139.443 209.055 133.068C207.111 129.823 208.034 125.983 210.883 124.173C214.079 122.141 217.998 122.941 220.141 126.464C224.056 132.909 227.736 139.494 231.773 146.464C228.183 148.454 224.759 150.345 221.017 152.42L221.021 152.415Z" fill="white"/>
</svg>
