<svg width="388" height="420" viewBox="0 0 388 420" fill="none" xmlns="http://www.w3.org/2000/svg">
<path d="M286.879 303.171H125.433V290.748H113.014V278.326H100.595V116.829H286.879V303.171ZM286.879 110.618H100.595H94.3862V116.829V303.171V309.382H100.595H286.879H293.088V303.171V116.829V110.618H286.879Z" fill="white"/>
<path d="M119.224 197.577H113.015V210H119.224V197.577Z" fill="white"/>
<path d="M125.433 191.366H119.224V197.577H125.433V191.366Z" fill="white"/>
<path d="M131.643 185.154H125.434V191.365H131.643V185.154Z" fill="white"/>
<path d="M137.852 178.943H131.643V185.154H137.852V178.943Z" fill="white"/>
<path d="M144.061 172.731H137.852V178.942H144.061V172.731Z" fill="white"/>
<path d="M156.48 166.52H144.061V172.731H156.48V166.52Z" fill="white"/>
<path d="M212.366 154.097H175.109V160.308H212.366V154.097Z" fill="white"/>
<path d="M249.622 228.635H255.831V222.424H249.622V228.635Z" fill="white"/>
<path d="M255.831 222.423H262.04V216.212H255.831V222.423Z" fill="white"/>
<path d="M262.04 216.211H268.249V210H262.04V216.211Z" fill="white"/>
<path d="M274.46 197.577H268.25V210H274.46V197.577Z" fill="white"/>
<path d="M255.831 178.943H249.622V185.154H255.831V178.943Z" fill="white"/>
<path d="M199.946 210H187.527V197.577H199.946V210ZM175.108 216.212V222.423H181.318V228.634H193.737V234.845H199.946V228.634H206.156V222.423H212.365V216.212H218.575V197.577H224.784V191.366H218.575H212.365V185.154H206.156V178.943H187.527V172.731H181.318V178.943V185.154H175.108V191.366H168.899V210H162.689V216.212H168.899H175.108Z" fill="white"/>
<path d="M224.785 222.423H230.994V216.212H224.785H218.576V222.423H224.785Z" fill="white"/>
<path d="M237.203 222.423H230.994V228.634H237.203V222.423Z" fill="white"/>
<path d="M237.203 210H230.994V216.211H237.203V210Z" fill="white"/>
<path d="M230.994 185.154V178.943H224.785V185.154V191.365H230.994V185.154Z" fill="white"/>
<path d="M230.994 178.943H237.203V172.732H243.413V166.52H230.994V172.732V178.943Z" fill="white"/>
<path d="M218.574 178.943H224.783V172.732H218.574V178.943Z" fill="white"/>
<path d="M237.203 191.366H230.994V197.577H237.203V191.366Z" fill="white"/>
<path d="M243.413 185.154H237.204V191.365H243.413V185.154Z" fill="white"/>
<path d="M162.689 191.366H168.898V185.155H162.689V191.366Z" fill="white"/>
<path d="M144.061 191.366H150.27V185.155H144.061V191.366Z" fill="white"/>
<path d="M162.689 222.423V216.212H156.48V222.423V228.634H162.689V222.423Z" fill="white"/>
<path d="M168.899 228.634H162.69V234.845H168.899V228.634Z" fill="white"/>
<path d="M150.27 216.211H156.479V210H150.27V216.211Z" fill="white"/>
<path d="M144.061 210H150.27V203.789H144.061V210Z" fill="white"/>
<path d="M137.852 216.211H144.061V210H137.852V216.211Z" fill="white"/>
<path d="M162.69 172.731H156.481V178.942H150.271V185.154H156.481H162.69V178.942V172.731Z" fill="white"/>
<path d="M175.109 172.731H181.318V166.52H175.109V172.731Z" fill="white"/>
<path d="M206.156 234.846H199.947V241.057H206.156V234.846Z" fill="white"/>
<path d="M137.852 234.845H144.061V228.634H137.852V234.845Z" fill="white"/>
<path d="M131.643 228.635H137.852V222.424H131.643V228.635Z" fill="white"/>
<path d="M125.433 222.423H131.642V216.212H125.433V222.423Z" fill="white"/>
<path d="M119.224 216.211H125.433V210H119.224V216.211Z" fill="white"/>
<path d="M249.622 191.366H243.413V197.577H249.622V191.366Z" fill="white"/>
<path d="M255.831 197.577H262.04H268.25V191.366H262.04V185.154H255.831V191.366V197.577Z" fill="white"/>
<path d="M237.203 228.634V234.845H230.994V241.057H243.412V234.845H249.622V228.634H243.412H237.203Z" fill="white"/>
<path d="M156.48 247.268H175.108V241.057H156.48V247.268Z" fill="white"/>
<path d="M212.365 247.268H230.993V241.057H212.365V247.268Z" fill="white"/>
<path d="M175.109 253.48H212.366V247.269H175.109V253.48Z" fill="white"/>
<path d="M156.48 228.634H150.271V234.845H144.061V241.057H156.48V234.845V228.634Z" fill="white"/>
<path d="M249.622 172.731H243.413V178.942H249.622V172.731Z" fill="white"/>
<path d="M175.108 160.308H156.48V166.519H175.108V160.308Z" fill="white"/>
<path d="M230.993 160.308H212.365V166.519H230.993V160.308Z" fill="white"/>
</svg>
