<svg width="387" height="420" viewBox="0 0 387 420" fill="none" xmlns="http://www.w3.org/2000/svg">
<path d="M313.2 242.967C315.585 242.467 333.282 263.29 337.058 270.482C337.633 271.887 333.923 272.921 333.923 272.921C333.923 272.921 336.283 276.315 336.013 277.274C335.744 278.233 330.911 282.414 329.047 281.976C327.184 281.539 317.728 257.944 317.728 257.944C317.728 257.944 323.727 281.705 324.152 283.737C324.576 285.769 316.618 290.096 315.289 289.987C313.961 289.879 309.462 285.017 309.02 283.718C315.412 251.264 310.815 243.466 313.2 242.967Z" fill="white"/>
<path d="M325.44 244.435C321.971 252.169 311.676 238.595 309.554 214.142C311.756 207.075 323.412 203.421 324.947 204.537C326.482 205.654 326.594 212.897 323.223 218.698C323.423 224.007 332.091 230.136 325.44 244.435Z" fill="white"/>
<path d="M75.1451 242.967C72.7602 242.467 55.063 263.29 51.2866 270.482C50.7119 271.887 54.4213 272.921 54.4213 272.921C54.4213 272.921 52.0622 276.315 52.3315 277.274C52.6008 278.233 57.4338 282.414 59.2975 281.976C61.1612 281.539 70.6172 257.944 70.6172 257.944C70.6172 257.944 64.6176 281.705 64.193 283.737C63.7684 285.769 71.7266 290.096 73.0553 289.987C74.384 289.879 78.8823 285.017 79.3247 283.718C72.9328 251.264 77.5301 243.466 75.1451 242.967Z" fill="white"/>
<path d="M62.9066 244.435C66.3755 252.169 76.6701 238.595 78.792 214.142C76.5898 207.075 64.9341 203.421 63.3992 204.537C61.8643 205.654 61.7524 212.897 65.1232 218.698C64.9228 224.007 56.2549 230.136 62.9066 244.435Z" fill="white"/>
<path d="M112.633 233.339C109.89 232.207 119.244 134.283 192.314 134.445C265.385 134.607 276.121 234.577 276.121 234.577C276.121 234.577 263.817 231.768 253.193 221.322C242.569 210.876 238.048 196.681 238.048 196.681C238.048 196.681 240.208 209.524 246.78 219.582C253.353 229.639 259.894 234.602 262.33 236.757C262.932 238.663 254.925 241.882 240.345 241.027C225.766 240.172 216.36 230.628 216.36 230.628C216.36 230.628 218.969 237.144 225.43 242.096C224.556 243.047 214.782 241.405 202.55 226.33C190.318 211.256 186.421 193.145 186.421 193.145C186.421 193.145 188.625 217.931 202.065 235.176C200.753 236.085 195.237 236.076 193.729 235.705C185.302 232.417 179.115 218.881 179.115 218.881C179.115 218.881 177.891 227.407 184.966 235.343C183.833 236.126 173.317 235.76 173.317 235.76C171.395 235.828 164.157 230.842 158.234 222.591C152.311 214.341 148.702 202.339 148.702 202.339C148.702 202.339 148.231 233.265 158.132 243.122C157.206 243.447 150.713 242.322 143.154 233.709C140.345 234.182 115.377 234.471 112.633 233.339Z" fill="white"/>
<path d="M165.976 108.117C152.914 108.675 117.277 127.243 94.7654 176.232C57.9113 264.579 96.0307 296.032 96.0307 296.032C96.0307 296.032 92.8802 292.144 91.9678 287.289C91.0555 282.434 91.721 279.9 91.721 279.9C91.721 279.9 96.121 288.87 103.543 294.678C110.965 300.486 120.043 302.067 120.043 302.067C120.043 302.067 86.392 264.181 112.409 186.559C124.893 151.887 165.346 127.512 170.533 126.22C175.716 124.929 194.144 142.87 194.168 142.893V142.9L194.172 142.897L194.175 142.9V142.893C194.199 142.87 212.629 124.929 217.812 126.22C222.999 127.512 263.452 151.887 275.936 186.559C301.953 264.181 268.3 302.067 268.3 302.067C268.3 302.067 277.38 300.486 284.802 294.678C292.224 288.87 296.624 279.9 296.624 279.9C296.624 279.9 297.289 282.434 296.377 287.289C295.465 292.144 292.312 296.032 292.312 296.032C292.312 296.032 330.432 264.579 293.578 176.232C271.065 127.243 235.431 108.675 222.368 108.117C209.311 107.56 194.183 129.398 194.171 129.415C194.16 129.398 179.034 107.56 165.976 108.117Z" fill="white"/>
<path d="M194.167 89.0186C194.125 89.0193 178.37 89.2878 176.065 92.3282C174.442 94.4688 177.506 97.6383 179.472 99.336C176.407 98.6806 172.984 98.2775 169.3 98.3893C165.611 98.5013 161.162 99.242 156.27 100.627C156.796 97.9571 157.53 93.1174 156.248 91.6154C154.451 89.5108 129.07 101.304 129.156 103.931C129.217 105.799 133.641 107.978 136.211 109.094C131.33 111.822 126.401 115.08 121.619 118.925C121.227 116.409 120.182 110.973 118.33 109.952C115.907 108.616 96.3114 128.597 97.3176 131.025C98.1572 133.051 104.763 133.367 106.946 133.417C103.516 137.593 100.298 142.179 97.3212 146.939C96.2091 144.734 93.4707 139.717 91.3503 139.313C88.6323 138.794 76.2086 163.871 77.9185 165.867C79.2283 167.396 84.73 166.041 87.2469 165.32C85.171 169.629 83.3261 173.796 81.7659 177.63C80.2734 175.81 77.1034 172.237 75.2517 172.282C72.7695 172.342 66.6237 196.691 68.5017 198.118C69.7586 199.072 73.39 197.492 75.6771 196.335C74.5222 204.588 78.7616 209.313 80.0218 200.473C81.2971 191.527 96.2118 153.488 113.886 134.224C131.56 114.96 154.919 102.857 168.808 103.808C182.686 104.757 194.147 115.359 194.167 115.378V115.383L194.171 115.379L194.175 115.383V115.378C194.195 115.359 205.658 104.757 219.535 103.808C233.425 102.857 256.782 114.96 274.456 134.224C292.13 153.488 307.045 191.527 308.32 200.473C309.58 209.313 313.822 204.588 312.667 196.335C314.954 197.492 318.583 199.072 319.84 198.118C321.718 196.691 315.572 172.342 313.09 172.282C311.239 172.237 308.069 175.81 306.576 177.63C305.016 173.796 303.171 169.629 301.095 165.32C303.612 166.041 309.115 167.396 310.425 165.867C312.135 163.871 299.71 138.794 296.992 139.313C294.872 139.717 292.135 144.731 291.023 146.938C288.046 142.178 284.828 137.593 281.398 133.417C283.581 133.367 290.185 133.051 291.024 131.025C292.031 128.597 272.437 108.616 270.014 109.952C268.161 110.973 267.115 116.409 266.723 118.925C261.941 115.08 257.012 111.822 252.131 109.094C254.701 107.978 259.127 105.799 259.188 103.931C259.274 101.304 233.892 89.5108 232.096 91.6154C230.814 93.1174 231.547 97.9571 232.074 100.627C227.182 99.2417 222.733 98.5013 219.044 98.3893C215.361 98.2775 211.936 98.679 208.872 99.3341C210.838 97.6362 213.902 94.4684 212.279 92.3282C209.971 89.2837 194.167 89.0186 194.167 89.0186Z" fill="white"/>
<path d="M232.566 258.433C226.846 258.577 225.115 259.579 224.186 260.542C222.767 262.123 221.11 266.146 221.742 269.566C222.225 272.181 224.014 274.23 225.532 275.152C221.033 275.163 217.661 275.519 217.648 276.08C217.626 277.043 224.652 275.8 235.206 277.263C245.76 278.727 250.025 282.898 251.083 280.314C251.65 278.928 249.738 277.979 246.536 277.248C248.082 276.618 249.824 275.339 250.857 273.432C252.646 270.131 251.672 265.243 251.102 263.904C250.267 262.509 250.853 261.533 242.167 259.399C237.667 258.293 236.918 258.323 232.566 258.433Z" fill="white"/>
<path d="M241.72 244.048C241.435 244.112 238.875 248.849 235.07 250.783C230.054 250.164 226.45 250.135 224.792 250.533C220.808 251.492 211.556 260.785 211.231 261.715C211.839 263.206 221.845 255.463 232.715 255.729C243.586 255.994 262.174 263.616 262.566 264.27C262.959 264.925 259.972 270.106 254.165 275.114C254.946 275.62 260.992 272.416 266.355 267.866C273.726 261.61 276.037 258.075 275.774 257.489C275.586 257.071 270.068 260.239 263.271 257.402C260 256.329 256.863 255.406 253.869 254.6C256.695 251.768 258.386 247.438 258.377 247.068C258.365 246.587 251.571 252.969 245.125 252.497C243.308 252.114 241.581 251.785 239.953 251.508C241.711 248.693 241.854 244.355 241.741 244.062C241.738 244.051 241.731 244.046 241.72 244.048Z" fill="white"/>
<path d="M161.809 275.155C158.832 275.181 155.456 275.352 152.263 275.707C148.901 276.081 145.711 276.476 143.128 276.972C141.504 275.283 137.579 271.393 137.394 262.213C136.277 262.275 135.563 269.753 137.421 273.183C138.454 275.089 140.26 276.618 141.805 277.248C138.603 277.979 136.691 278.929 137.258 280.315C138.316 282.898 142.581 278.727 153.135 277.264C163.689 275.8 170.715 277.043 170.693 276.081C170.68 275.519 167.309 275.164 162.811 275.153C164.329 274.23 166.272 272.056 166.755 269.441C167.453 265.666 164.669 259.323 163.563 259.426C163.858 260.118 165.911 269.933 161.809 275.155Z" fill="white"/>
<path d="M146.622 244.048C146.907 244.112 149.468 248.849 153.273 250.783C158.288 250.164 161.892 250.135 163.55 250.533C167.534 251.492 176.786 260.785 177.111 261.715C176.503 263.206 166.498 255.463 155.627 255.729C144.756 255.994 126.168 263.616 125.776 264.27C125.384 264.925 128.37 270.106 134.177 275.114C133.397 275.62 127.35 272.416 121.988 267.866C114.616 261.61 112.305 258.075 112.569 257.489C112.757 257.071 118.275 260.239 125.072 257.402C128.343 256.329 131.479 255.406 134.473 254.6C131.647 251.768 129.956 247.438 129.965 247.068C129.977 246.587 136.771 252.969 143.217 252.497C145.034 252.114 146.761 251.785 148.389 251.508C146.632 248.693 146.488 244.355 146.601 244.062C146.605 244.051 146.612 244.046 146.622 244.048Z" fill="white"/>
</svg>
