<svg width="388" height="420" viewBox="0 0 388 420" fill="none" xmlns="http://www.w3.org/2000/svg">
<path d="M106.209 189.233C92.3138 189.233 85.7733 197.642 85.7733 217.493C85.7733 238.28 92.1956 245.872 106.209 245.872C120.689 245.872 126.297 236.294 126.297 217.493C126.297 197.409 119.871 189.233 106.209 189.233ZM106.209 257.196C79.003 257.196 70.5942 240.149 70.5942 217.493C70.5942 195.307 79.9355 177.909 106.327 177.909C132.368 177.909 141.476 194.257 141.476 217.493C141.476 239.915 132.483 257.196 106.209 257.196Z" fill="white"/>
<path d="M141.087 258.48H199.706V268.524H141.087V258.48Z" fill="white"/>
<path d="M235.182 189.233C221.284 189.233 214.746 197.642 214.746 217.493C214.746 238.28 221.169 245.872 235.182 245.872C249.662 245.872 255.267 236.294 255.267 217.493C255.267 197.409 248.844 189.233 235.182 189.233ZM235.182 257.196C207.973 257.196 199.564 240.149 199.564 217.493C199.564 195.307 208.909 177.909 235.297 177.909C261.338 177.909 270.446 194.257 270.446 217.493C270.446 239.915 261.456 257.196 235.182 257.196Z" fill="white"/>
<path d="M290.135 151.476C293.486 151.476 294.604 152.594 294.604 155.946V160.074C294.604 163.425 293.486 164.459 290.135 164.459H286.692C283.341 164.459 282.223 163.425 282.223 160.074V155.946C282.223 152.594 283.341 151.476 286.692 151.476H290.135ZM289.79 177.27C293.142 177.27 294.175 178.3 294.26 181.655V187.159C294.175 193.949 292.54 198.419 289.79 202.892L284.544 201.256C285.49 197.645 285.75 194.294 285.834 190.253C283.425 190.253 282.223 188.79 282.138 186.297L282.307 181.655C282.395 178.3 283.598 177.27 286.78 177.27H289.79Z" fill="white"/>
<path d="M312.401 151.476C315.753 151.476 316.871 152.594 316.871 155.946V160.074C316.871 163.425 315.753 164.459 312.401 164.459H308.959C305.607 164.459 304.489 163.425 304.489 160.074V155.946C304.489 152.594 305.607 151.476 308.959 151.476H312.401ZM312.057 177.27C315.408 177.27 316.442 178.3 316.526 181.655V187.159C316.442 193.949 314.807 198.419 312.057 202.892L306.81 201.256C307.756 197.645 308.016 194.294 308.101 190.253C305.692 190.253 304.489 188.79 304.405 186.297L304.574 181.655C304.662 178.3 305.864 177.27 309.047 177.27H312.057Z" fill="white"/>
</svg>
