<svg width="388" height="420" viewBox="0 0 388 420" fill="none" xmlns="http://www.w3.org/2000/svg">
<path d="M131.584 216.237C133.159 214.412 134.398 212.99 135.601 211.544C135.713 211.412 135.621 211.108 135.621 210.882C134.473 211.355 133.236 211.686 132.209 212.341C131.564 212.754 131.111 213.605 130.811 214.355C130.682 214.679 131.152 215.243 131.584 216.237ZM139.5 227.825C139.25 226.672 139.105 226 138.956 225.328C138.398 225.72 137.736 226.024 137.307 226.527C136.757 227.172 136.034 227.966 136.017 228.706C135.99 230.172 136.398 231.645 136.628 233.115C137.29 232.122 138.02 231.169 138.591 230.125C139.047 229.287 139.304 228.341 139.5 227.825ZM182.091 244.48C183.23 243.564 184.483 242.686 184.422 242.581C183.73 241.399 183.013 239.72 181.946 239.416C180.858 239.102 179.375 240.172 178.064 240.632C179.304 241.818 180.544 243 182.091 244.48ZM136.868 206.716H133.922C134.412 206.27 134.919 205.845 135.378 205.368C135.551 205.186 135.605 204.892 135.713 204.649C135.344 204.581 134.939 204.382 134.608 204.466C132.23 205.088 130.098 207.227 130.801 208.352C132.213 210.615 134.047 209.172 135.74 208.679C136.01 208.601 136.324 208.554 136.537 208.385C137.04 207.99 137.493 207.531 137.966 207.095C137.324 206.875 136.682 206.656 136.868 206.716ZM127.652 236.598C129.209 235.166 130.571 233.912 131.932 232.656C130.868 232.206 129.831 231.48 128.73 231.372C127.017 231.203 124.591 233.46 125.01 234.767C125.216 235.406 126.361 235.747 127.652 236.598ZM158.848 235.389C158.638 235.443 158.432 235.5 158.226 235.558C158.453 236.787 158.523 238.071 158.949 239.223C159.594 240.963 159.746 244.108 162.328 243.156C164.898 242.21 162.871 239.71 162.442 237.889C162.375 237.615 162.263 237.132 162.148 237.125C161.75 237.098 161.138 237.105 160.98 237.345C160.625 237.879 160.496 238.564 160.273 239.186C160.034 238.534 159.797 237.882 159.554 237.23C159.321 236.615 159.081 236 158.848 235.389ZM132.246 226.906C132.409 227.301 132.723 228.068 133.04 228.835C133.591 228.301 134.176 227.801 134.689 227.23C135.939 225.838 137.172 224.422 138.382 222.99C138.638 222.686 138.767 222.274 138.953 221.909C138.584 221.75 138.223 221.47 137.848 221.453C135.057 221.341 132.402 223.75 132.246 226.906ZM161.601 249.48C161.456 248.375 161.554 247.7 161.27 247.274C160.618 246.291 159.78 245.433 159.017 244.524C158.865 245.406 158.726 246.294 158.551 247.172C158.483 247.5 158.321 247.811 158.206 248.132C157.936 247.821 157.689 247.49 157.395 247.203C157.034 246.848 156.635 246.534 156.253 246.203C156.213 246.723 155.993 247.321 156.176 247.75C156.561 248.652 157.007 249.635 157.709 250.27C158.375 250.865 159.503 251.473 160.243 251.297C160.902 251.142 161.301 249.916 161.601 249.48ZM169.314 249.142C169.226 245.247 168.736 244.96 165.75 246.206C165.517 246.304 165.064 246.02 164.78 245.825C163.28 244.791 162.878 245.477 163.453 246.825C163.942 247.977 164.723 249.115 165.659 249.936C166.415 250.598 167.598 250.777 168.591 251.172C168.912 250.274 169.23 249.379 169.314 249.142ZM138.334 217.632C137.692 217.108 137.314 216.629 136.821 216.433C134.855 215.642 130.483 217.902 130.152 219.977C130.04 220.686 130.503 221.591 130.963 222.216C131.094 222.402 132.226 222.068 132.73 221.723C134.588 220.45 136.375 219.075 138.334 217.632ZM189.716 253.602C188.426 251.196 187.375 248.946 186.017 246.899C185.618 246.294 184.348 246.264 183.476 245.97C183.267 246.885 182.574 248.267 182.929 248.639C184.831 250.605 186.993 252.325 189.088 254.098C189.125 254.129 189.463 253.804 189.716 253.602ZM177.371 245.402C177.209 244.936 176.848 243.899 176.49 242.862C175.784 243.318 175.121 243.872 174.358 244.189C173.973 244.352 173.371 244.176 172.936 243.99C172.358 243.747 171.844 243.345 171.307 243.007C171.132 243.791 170.551 244.848 170.861 245.301C171.632 246.426 172.665 247.524 173.844 248.183C176.179 249.49 177.297 248.716 177.371 245.402ZM139.152 244.338C139.186 244.547 139.179 245.75 139.625 246.75C139.831 247.216 141.469 247.598 141.52 247.5C142.561 245.608 143.496 243.652 144.355 241.669C144.453 241.439 143.963 240.96 143.746 240.595C143.459 240.865 143.03 241.081 142.905 241.412C141.946 243.963 141.774 242.517 141.382 241.179C141.257 240.754 140.611 240.48 140.206 240.135C139.855 240.656 139.382 241.135 139.189 241.71C139.017 242.223 139.152 242.841 139.152 244.338ZM153.746 233.825L152.953 233.889C152.953 236.25 152.838 238.615 152.993 240.963C153.091 242.47 153.861 244.122 155.628 243.47C156.496 243.152 157.324 241.321 157.267 240.22C157.162 238.122 156.409 236.061 155.922 233.987C155.777 233.983 155.628 233.983 155.48 233.983V238.993C155.328 239 155.172 239.007 155.02 239.014C154.594 237.284 154.172 235.554 153.746 233.825ZM131.01 240.132C131.598 240.882 132.277 241.75 132.956 242.615C134.426 241.28 136.402 240.203 137.233 238.547C138.246 236.52 136.679 236.534 135.219 237.237C135.182 236.851 135.223 236.439 135.091 236.091C134.774 235.237 134.378 234.412 134.013 233.578C133.483 234.23 132.784 234.807 132.466 235.551C131.909 236.858 131.584 238.264 131.01 240.132ZM124.121 227.892C126.091 227.348 127.243 227.166 128.263 226.699C128.942 226.389 129.436 225.676 130.013 225.145C129.307 224.956 128.591 224.581 127.902 224.625C126.767 224.696 125.571 224.855 124.547 225.307C122.939 226.024 121.453 227.02 119.915 227.895C121.689 228.544 123.463 229.196 125.24 229.838C125.365 229.882 125.537 229.865 125.665 229.821C127.179 229.311 128.689 228.794 130.199 228.277C128.841 228.25 127.483 228.24 126.125 228.193C125.716 228.179 125.304 228.074 124.121 227.892ZM136.932 197.034C136.591 196.716 136.027 195.747 135.314 195.622C133.676 195.335 129.871 198.639 129.713 200.277C129.534 202.145 130.719 202.794 132.317 202.916C134.422 203.071 136.719 200.399 136.932 197.034ZM150.135 249.946C149.966 250.01 149.797 250.071 149.628 250.135C149.534 248.581 149.594 246.993 149.267 245.49C149.138 244.912 148.176 244.328 147.49 244.156C147.186 244.078 146.385 244.946 146.226 245.504C145.662 247.493 147.203 251.294 149.034 252.328C149.652 252.676 150.757 252.804 151.321 252.483C153.186 251.419 154.094 246.858 152.909 245.105C152.608 244.659 152.071 244.372 151.645 244.01C151.314 244.433 150.777 244.818 150.692 245.281C150.419 246.821 150.311 248.389 150.135 249.946ZM144.719 227.635C141.402 227.909 138.709 231.97 139.179 235.335C139.311 236.27 140.365 237.858 140.841 237.804C141.899 237.686 143.365 236.933 143.75 236.041C144.649 233.973 145.105 231.686 145.513 229.446C145.625 228.841 144.932 228.091 144.719 227.635ZM121.314 220.453C121.273 220.233 121.236 220.017 121.196 219.797C123.111 219.389 125.037 219.027 126.926 218.531C127.496 218.382 127.966 217.845 128.48 217.487C127.983 217.318 127.439 216.926 126.996 217.017C123.507 217.73 120.017 218.46 116.574 219.358C115.469 219.645 115.28 220.743 116.551 221.007C119.885 221.696 123.267 222.189 126.652 222.561C127.105 222.612 127.682 221.531 128.203 220.973C127.554 220.564 126.902 219.801 126.263 219.814C124.611 219.845 122.963 220.216 121.314 220.453ZM148.027 235.476C147.932 235.439 147.841 235.402 147.75 235.365C148.057 233.551 148.388 231.74 148.642 229.916C148.686 229.612 148.378 229.26 148.233 228.933C148.024 229.098 147.672 229.233 147.625 229.439C146.888 232.76 146.02 236.071 145.625 239.436C145.544 240.125 147.27 241.666 148.145 241.652C149.061 241.639 150.203 240.368 150.774 239.375C151.22 238.605 150.973 237.416 150.98 236.416C150.99 234.047 150.97 231.679 150.963 229.311C149.986 231.365 149.007 233.422 148.027 235.476ZM174.307 241.24C174.709 240.439 175.507 239.612 175.402 238.919C174.936 235.841 176.122 236.237 178.135 237.27C178.638 237.531 179.655 236.787 180.436 236.507C179.757 235.976 178.97 234.909 178.419 235.017C176.361 235.426 172.858 232.754 172.581 237.46C172.578 237.524 171.811 237.493 171.422 237.598C169.338 238.156 167.473 238.129 165.976 236.189C165.747 235.892 164.757 236.182 164.115 236.203C165.216 238.284 166.307 240.372 167.497 242.399C167.524 242.446 169.243 241.851 169.27 241.49C169.537 237.943 171.003 239 172.696 240.466C173.003 240.733 173.453 240.838 174.307 241.24ZM124.138 210.946C125.53 210.946 126.953 210.97 128.372 210.929C128.763 210.919 129.145 210.71 129.534 210.591C129.314 210.254 129.084 209.612 128.875 209.618C124.608 209.747 120.341 209.943 116.081 210.24C116.024 210.243 115.824 212.264 116.095 212.375C118.453 213.365 120.855 214.466 123.348 214.855C125.203 215.145 127.861 216.294 128.726 213.345C128.817 213.041 125.909 211.855 124.138 210.946ZM118.804 203.74C118.807 203.48 118.811 203.22 118.814 202.96C121.236 202.96 123.662 202.993 126.081 202.926C126.53 202.916 126.969 202.507 127.415 202.284C126.969 202.017 126.54 201.558 126.078 201.517C122.351 201.186 118.622 200.868 114.885 200.703C113.986 200.662 113.061 201.206 112.152 201.48C112.649 202.439 112.905 203.706 113.682 204.297C117.584 207.287 122.226 207.493 126.878 207.24C127.713 207.196 128.5 206.294 129.311 205.787C128.459 205.24 127.655 204.331 126.753 204.22C124.125 203.889 121.456 203.875 118.804 203.74ZM183.591 261.625C183.159 259.662 182.101 257.588 182.456 255.797C182.959 253.274 181.706 252.375 180.061 251.402C178.189 250.297 176.794 251.216 175.54 252.581C174.662 253.537 173.838 254.172 172.902 252.588C172.686 252.223 172.088 252.085 171.665 251.845C171.746 252.233 171.699 252.727 171.926 252.997C174.774 256.389 177.618 259.791 180.591 263.075C181.04 263.571 182.172 263.713 182.905 263.571C183.236 263.504 183.355 262.348 183.591 261.625ZM169.084 253.73C169.757 254.956 170.172 255.635 170.503 256.355C170.726 256.845 170.831 257.392 170.99 257.912C170.503 257.727 170.01 257.544 169.523 257.348C169.138 257.193 168.757 257.02 168.371 256.858C168.365 257.375 168.304 257.899 168.358 258.409C168.483 259.578 168.662 260.747 168.817 261.912C168.263 260.764 167.679 259.632 167.169 258.463C166.821 257.672 166.655 256.797 166.257 256.037C165.524 254.635 164.679 253.291 163.882 251.922C164.064 253.456 164.054 255.044 164.459 256.517C165.767 261.287 167.628 265.825 171.24 269.365C172.932 271.024 173.98 270.652 174.388 268.341C175.378 262.764 174.973 257.612 169.084 253.73ZM160.598 267.71C160.392 267.757 160.186 267.804 159.976 267.855C159.649 266.554 159.182 265.274 159.024 263.956C158.645 260.821 158.439 257.666 158.091 254.527C158.037 254.024 157.608 253.561 157.351 253.081C156.929 253.561 156.145 254.031 156.132 254.524C155.946 260.325 156.28 266.054 159.28 271.257C159.709 271.997 160.203 272.75 160.828 273.314C162.074 274.446 163.115 274.176 163.915 272.666C165.919 268.902 165.301 261.243 162.594 258.26C162.01 257.612 161.007 257.338 160.192 256.895C159.939 257.696 159.412 258.524 159.483 259.294C159.746 262.112 160.209 264.906 160.598 267.71ZM116.341 194.882C116.314 194.635 116.29 194.392 116.267 194.145C119.382 194.547 122.496 194.977 125.618 195.331C126.378 195.416 127.169 195.25 127.946 195.203C127.257 194.612 126.652 193.71 125.861 193.49C123.216 192.757 120.5 192.284 117.817 191.683C115.709 191.21 113.632 190.45 111.507 190.308C110.419 190.233 109.26 191.233 108.132 191.747C108.655 192.841 108.905 194.247 109.743 194.98C114.574 199.203 120.571 199.358 126.544 199.355C127.044 199.355 127.547 198.541 128.047 198.102C127.54 197.686 127.088 197.017 126.513 196.892C123.138 196.152 119.733 195.541 116.341 194.882ZM147.48 267.531C147.301 267.551 147.125 267.571 146.946 267.595C146.905 266.747 146.726 265.879 146.844 265.058C147.277 262.071 147.888 259.108 148.247 256.115C148.324 255.463 147.642 254.716 147.307 254.014C146.868 254.49 146.176 254.899 146.027 255.456C144.557 260.939 143.578 266.48 145.5 272.047C145.831 273.01 146.838 273.74 147.53 274.581C148.287 273.953 149.25 273.46 149.75 272.672C150.807 271 151.213 268.213 152.625 267.608C155.676 266.304 154.49 264.385 153.909 262.787C153.284 261.081 151.969 259.618 150.892 258.095C150.605 257.689 150.071 257.453 149.652 257.139C149.378 257.629 148.946 258.095 148.858 258.615C148.355 261.578 147.929 264.558 147.48 267.531ZM120.29 260.912C119.959 263.355 120.628 263.977 122.605 262.791C125.922 260.794 129.118 258.558 132.155 256.156C133.189 255.341 133.638 253.743 134.223 252.443C134.328 252.21 133.871 251.446 133.534 251.331C131.003 250.466 130.442 249.389 131.29 246.97C131.534 246.274 131.554 245.497 131.679 244.757C130.804 245.004 129.655 244.98 129.094 245.544C124.723 249.919 121.953 255.247 120.29 260.912ZM125.125 238.054C123.804 237.77 123.034 237.341 122.436 237.517C115.76 239.46 110.77 243.669 107.084 249.436C106.48 250.382 106.105 252.149 106.594 252.933C107.03 253.635 108.824 253.764 109.983 253.672C111.236 253.574 112.453 252.943 113.672 252.51C114.858 252.095 115.571 250.865 117.442 251.821C118.321 252.27 121.165 250.318 122.03 248.824C122.581 247.872 121.28 245.676 120.432 244.267C120.294 244.037 118.192 245.007 116.986 245.385C116.52 245.534 116.024 245.581 115.537 245.672C115.774 245.321 115.939 244.872 116.257 244.629C118.432 242.966 120.635 241.341 122.834 239.71C123.392 239.294 123.963 238.892 125.125 238.054ZM138.682 255.97C138.53 255.852 138.378 255.73 138.226 255.612C138.601 254.686 139.132 253.791 139.304 252.831C139.48 251.868 139.297 250.841 139.27 249.845C138.442 250.449 137.314 250.875 136.828 251.686C133.469 257.294 132.091 263.453 132.257 269.953C132.277 270.706 132.713 271.892 133.23 272.068C133.821 272.27 134.942 271.767 135.449 271.216C136.905 269.629 137.828 267.095 139.578 266.314C143.882 264.399 143.084 260.747 143.182 257.517C143.23 256.004 141.956 254.446 141.284 252.906C140.419 253.926 139.551 254.949 138.682 255.97ZM110.993 182.186C109.692 182.186 108.388 182.108 107.098 182.22C106.469 182.274 105.875 182.679 105.263 182.926C105.635 183.497 105.875 184.301 106.402 184.591C108.662 185.845 110.895 187.355 113.344 188.024C118.611 189.463 124.007 190.416 129.334 191.645C129.966 191.791 130.939 192.365 130.986 192.818C131.236 195.294 131.365 195.51 133.213 194.385C133.959 193.929 135.044 192.568 134.888 192.331C133.868 190.777 134.98 188.338 132.297 187.382C125.361 184.906 118.578 181.966 110.993 182.186ZM109.209 236.439C112.831 235.514 116.594 234.595 120.331 233.564C121.044 233.368 121.638 232.75 122.29 232.325C121.591 232.26 120.888 232.122 120.192 232.145C115 232.318 109.797 232.382 104.618 232.75C99.0235 233.149 93.4424 233.76 87.8782 234.47C86.7904 234.608 85.814 235.615 84.787 236.223C85.635 236.939 86.4458 237.706 87.3444 238.352C87.8005 238.679 88.4086 238.96 88.9492 238.97C95.5708 239.081 102.03 242.162 108.746 240.122C110.253 239.666 111.621 238.754 113.054 238.051C111.726 237.493 110.402 236.939 109.209 236.439ZM94.5437 226.531C94.5168 226.48 94.4897 226.429 94.4661 226.379C100.628 226.379 106.794 226.493 112.949 226.311C115.037 226.254 117.615 227.382 119.108 224.74C116.942 224.2 114.807 223.375 112.611 223.169C105.277 222.48 97.912 222.098 90.5776 221.423C86.6958 221.064 82.8546 220.301 78.983 219.811C78.3512 219.73 77.6586 220.118 76.9931 220.291C77.2363 221.054 77.4526 221.835 77.7465 222.581C77.8411 222.825 78.1418 222.99 78.358 223.183C86.6654 230.602 96.9695 230.142 107.074 230.402C107.456 230.412 108.152 229.757 108.169 229.385C108.189 228.929 107.753 228.23 107.331 228.027C106.578 227.669 105.692 227.52 104.848 227.436C101.415 227.105 97.9796 226.828 94.5437 226.531ZM64.5302 192.649C63.912 192.882 63.3174 193.108 62.7228 193.331C63.1012 193.919 63.3917 194.595 63.8715 195.085C71.6687 203.037 81.9762 205.487 92.26 207.956C92.6721 208.054 93.2093 207.622 93.689 207.436C93.216 207.213 92.7194 207.024 92.2769 206.754C91.689 206.399 91.1451 205.98 90.5809 205.588C91.1552 205.031 91.7059 204.034 92.3106 204C93.7228 203.919 95.1688 204.254 96.5843 204.507C101.27 205.352 105.946 206.257 110.635 207.075C111.263 207.186 111.959 206.926 112.625 206.838C112.182 206.294 111.848 205.504 111.277 205.254C109.591 204.52 107.851 203.713 106.057 203.443C95.7228 201.889 85.7566 199.037 75.9289 195.537C72.2802 194.237 68.3917 193.605 64.5302 192.649ZM104.682 188.27C105.385 188.054 105.993 187.868 106.601 187.679C106.233 187.267 105.939 186.706 105.48 186.47C104.334 185.885 103.155 185.318 101.922 184.973C89.5877 181.537 78.1147 176.227 67.3546 169.304C65.0606 167.828 62.5606 166.656 60.0944 165.48C59.385 165.142 58.4525 165.274 57.6214 165.193C57.9255 166.058 58.0201 167.091 58.564 167.757C66.0573 176.936 75.6721 183.118 86.5944 187.429C87.8985 187.946 88.9796 188.129 88.8174 186.243C88.5674 183.335 90.1552 184.088 91.7937 184.575C96.0742 185.845 100.382 187.041 104.682 188.27ZM106.922 197.629C107.338 197.504 107.963 197.311 108.584 197.122C108.213 196.537 107.966 195.672 107.436 195.426C105.892 194.71 104.273 194.044 102.611 193.71C92.787 191.733 83.3275 189 74.5775 183.767C70.0539 181.061 64.7498 179.645 59.7532 177.764C58.9424 177.46 57.9019 177.771 56.966 177.798C57.2836 178.713 57.3275 179.943 57.9627 180.493C62.1721 184.139 66.1383 188.287 70.9052 191.007C75.8579 193.835 81.6181 195.254 87.0471 197.227C87.6552 197.45 88.4154 197.257 89.1079 197.257C88.9559 196.716 88.9154 196.112 88.6383 195.646C87.314 193.392 88.1958 193.504 90.1451 193.97C95.6248 195.274 101.152 196.385 106.922 197.629ZM94.4052 214.852C99.9627 215.402 105.659 216.048 111.371 216.48C112.801 216.588 114.284 216.014 115.74 215.757C114.398 214.767 113.098 213.72 111.692 212.828C111.267 212.558 110.557 212.76 109.986 212.683C104.409 211.912 98.7701 211.416 93.2735 210.267C87.635 209.088 82.1823 207.031 76.5505 205.821C73.7971 205.227 70.8174 205.676 67.939 205.652C70.2397 207.777 72.4694 209.983 74.8681 211.99C75.9525 212.896 78.3377 213.267 78.4593 214.119C78.8951 217.189 81.3174 217.085 83.1924 217.575C87.0978 218.598 91.0742 219.426 95.064 220.054C97.7667 220.483 100.54 220.48 103.287 220.564C103.733 220.578 104.196 220.041 104.652 219.76C104.246 219.477 103.871 219.125 103.429 218.923C100.402 217.537 97.3579 216.179 94.4052 214.852ZM112.115 179.946C97.2802 173.531 84.0606 165.862 71.1417 157.632C66.2769 154.531 61.2938 151.605 56.287 148.73C55.4154 148.227 53.7566 147.882 53.1958 148.348C52.5404 148.895 52.2228 150.605 52.5809 151.463C53.4998 153.656 54.635 155.852 56.135 157.676C57.6687 159.541 61.5505 159.139 61.2937 162.919C61.2769 163.166 61.9019 163.497 62.2667 163.72C68.0438 167.264 73.8343 170.787 79.6079 174.338C81.2296 175.331 82.9694 175.304 83.689 173.588C85.0978 170.233 86.9154 171.558 88.8883 172.706C90.0133 173.362 91.1147 174.058 92.287 174.608C98.3681 177.473 104.108 181.547 112.115 179.946ZM153.118 227.747C153.287 228.125 153.544 229.713 154.469 230.419C154.976 230.808 157 230.02 157.669 229.21C159.145 227.419 159.078 228.825 159.297 229.787C159.459 230.487 159.321 231.325 159.662 231.895C160.128 232.679 160.824 233.595 161.611 233.828C162.135 233.983 163.145 233.179 163.642 232.561C164.203 231.862 164.432 230.895 164.804 230.044C165.348 231.02 165.905 231.993 166.436 232.977C166.713 233.483 166.855 234.098 167.226 234.51C167.78 235.118 168.628 236.125 169.088 236C169.919 235.774 170.74 234.946 171.209 234.159C171.608 233.483 171.642 232.507 171.605 231.679C171.534 230.142 172.23 230.297 173.135 230.882C173.861 231.352 174.459 232.105 175.24 232.385C176.088 232.689 177.402 232.987 177.926 232.564C178.513 232.091 178.753 230.74 178.584 229.879C178.236 228.112 177.368 226.639 175.135 226.686C172.105 226.754 168.956 226.237 166.074 226.902C164.007 227.379 163.206 226.73 162.142 225.466C159.078 221.821 156.132 218.108 151.709 215.838C150.527 215.233 149.703 213.409 149.277 211.977C148.706 210.064 148.571 207.997 148.446 205.987C148.013 199.142 144.763 193.939 139.297 190.014C138.638 189.541 137.763 189.368 136.99 189.058C136.905 190.007 136.449 191.142 136.814 191.865C137.696 193.625 138.858 195.277 140.101 196.818C140.953 197.875 141.074 198.108 139.682 198.899C136.618 200.635 136.459 203.436 139.429 205.243C141.804 206.686 142.449 207.281 139.807 209.206C137.547 210.852 138.226 212.686 141.007 213.348C141.561 213.48 142.172 213.375 142.726 213.51C143.223 213.629 143.675 213.922 144.148 214.142C143.77 214.504 143.371 214.841 143.023 215.23C142.135 216.223 140.648 217.172 140.534 218.26C140.307 220.416 143.182 221.23 145.371 219.781C145.909 219.422 146.493 219.135 147.057 218.814C147.01 219.5 147.027 220.2 146.898 220.868C146.763 221.575 146.301 222.26 146.324 222.943C146.358 223.879 146.439 225.294 147.003 225.615C147.844 226.095 149.159 225.953 150.213 225.76C150.831 225.649 151.378 224.963 151.888 224.463C152.794 223.571 153.334 223.551 153.344 224.99C153.348 225.564 153.253 226.142 153.118 227.747ZM54.7465 145.683C74.6046 157.5 93.5843 170.926 115.29 179.382C122.388 182.145 129.986 183.689 136.949 186.723C143.547 189.598 148.078 194.946 149.523 202.331C149.996 204.737 150.294 207.189 150.49 209.635C150.713 212.466 151.922 214.372 154.456 215.858C156.642 217.142 158.682 218.922 160.29 220.889C162.409 223.473 164.892 224.706 168.148 224.7C170.172 224.693 172.199 224.801 174.223 224.855C178.243 224.963 179.223 225.446 180.067 229.172C180.949 233.064 182.726 236.328 184.844 239.683C187.763 244.304 189.865 249.446 192.192 254.422C193.145 256.466 192.04 257.446 189.453 257.047C184.736 256.318 184.736 256.318 185.48 261.112C185.571 261.683 185.773 262.243 185.787 262.814C185.875 266.466 183.736 267.835 180.5 266.223C176.983 264.473 177.121 264.504 176.317 268.416C175.966 270.139 175.341 272.456 174.078 273.193C171.98 274.412 170.523 272.179 169.121 270.743C168.537 270.142 167.855 269.645 167.216 269.098C166.882 269.868 166.469 270.612 166.223 271.406C165.5 273.72 165.338 276.74 162.395 277.135C159.216 277.561 158.216 274.581 156.976 272.331C155.426 269.524 155.385 269.436 152.963 271.76C151.726 272.943 150.844 274.48 149.719 275.784C147.253 278.642 145.459 278.416 143.942 275.047C143.473 274.004 143.199 272.865 142.885 271.754C142.02 268.7 141.73 268.49 139.007 270.365C137.493 271.409 136.426 273.075 134.993 274.267C132.284 276.524 130.375 275.838 130.169 272.291C129.99 269.156 130.527 265.98 130.686 262.818C130.716 262.169 130.463 261.51 130.341 260.852C129.689 261.047 128.963 261.118 128.398 261.456C126.297 262.727 124.338 264.27 122.142 265.328C121.017 265.868 119.301 266.02 118.24 265.52C117.669 265.254 117.561 263.152 117.858 262.044C118.486 259.686 119.544 257.443 120.361 255.132C120.578 254.51 120.557 253.808 120.648 253.142C119.993 253.348 119.348 253.595 118.682 253.76C115.23 254.622 111.804 255.716 108.297 256.186C106.844 256.379 104.696 255.635 103.828 254.547C103.169 253.723 103.635 251.456 104.317 250.23C105.493 248.112 107.243 246.311 108.719 244.352C109.047 243.916 109.226 243.368 109.476 242.875C108.841 242.716 108.192 242.392 107.578 242.443C106.287 242.547 105.02 242.902 103.73 243.058C97.5505 243.791 91.7836 241.787 85.9593 240.254C85.0235 240.007 84.0944 239.392 83.3816 238.713C81.2532 236.689 81.7667 234.301 84.5437 233.399C86.3174 232.821 88.1789 232.507 89.9998 232.078C88.2059 231.325 86.2701 230.794 84.6417 229.774C81.4931 227.804 78.3883 225.71 75.5437 223.335C74.6958 222.625 74.0471 220.341 74.5437 219.585C76.6248 216.399 74.3985 215.01 72.4931 213.358C70.537 211.659 68.3681 210.145 66.6823 208.213C64.4289 205.632 64.6485 204.703 67.6383 203.078C68.9728 202.355 68.564 202.071 67.787 201.399C65.4964 199.419 63.0133 197.605 61.0167 195.358C58.7059 192.767 58.9796 191.977 62.4019 190.794C64.1046 190.206 63.5539 189.183 63.0843 188.544C62.341 187.534 61.1079 186.899 60.2465 185.956C58.3208 183.848 56.1046 181.865 54.7431 179.422C53.2937 176.811 54.7059 175.162 57.6012 175.493C59.2802 175.683 60.939 176.047 62.6046 176.335C61.439 174.926 60.2667 173.52 59.1046 172.105C58.0066 170.764 56.8951 169.433 55.8377 168.058C54.5674 166.399 53.966 164.723 56.0404 163.193C57.7937 161.902 56.5437 161.24 55.6248 160.196C53.76 158.075 52.1316 155.747 50.4019 153.504V150.027C50.4019 145.683 50.4019 145.683 54.7465 145.683Z" fill="white"/>
<path d="M256.655 214.355C256.351 213.608 255.902 212.754 255.256 212.345C254.229 211.686 252.993 211.352 251.844 210.882C251.844 211.108 251.753 211.412 251.865 211.544C253.067 212.99 254.307 214.409 255.881 216.237C256.314 215.24 256.783 214.679 256.655 214.355ZM248.875 230.125C249.442 231.169 250.175 232.122 250.838 233.115C251.064 231.646 251.476 230.173 251.449 228.706C251.436 227.967 250.713 227.169 250.158 226.527C249.726 226.024 249.067 225.72 248.51 225.328C248.361 226 248.216 226.673 247.963 227.825C248.162 228.342 248.419 229.287 248.875 230.125ZM209.402 240.635C208.091 240.173 206.608 239.102 205.52 239.416C204.456 239.72 203.736 241.399 203.044 242.581C202.983 242.686 204.236 243.564 205.375 244.48C206.922 243 208.162 241.818 209.402 240.635ZM249.5 207.095C249.973 207.527 250.425 207.99 250.929 208.385C251.142 208.554 251.452 208.602 251.729 208.679C253.422 209.173 255.253 210.615 256.665 208.352C257.365 207.23 255.236 205.088 252.858 204.467C252.527 204.382 252.125 204.581 251.753 204.649C251.861 204.892 251.915 205.186 252.088 205.365C252.544 205.845 253.057 206.271 253.544 206.72H250.598C250.783 206.656 250.142 206.875 249.5 207.095ZM262.456 234.767C262.875 233.46 260.452 231.203 258.736 231.372C257.638 231.48 256.598 232.206 255.534 232.656C256.895 233.912 258.256 235.166 259.814 236.598C261.104 235.747 262.25 235.406 262.456 234.767ZM227.912 237.23C227.669 237.882 227.432 238.534 227.192 239.186C226.969 238.564 226.838 237.879 226.486 237.345C226.327 237.105 225.716 237.098 225.317 237.125C225.202 237.135 225.091 237.615 225.027 237.892C224.598 239.71 222.571 242.21 225.138 243.156C227.723 244.105 227.871 240.963 228.517 239.227C228.946 238.071 229.01 236.787 229.243 235.558C229.034 235.5 228.827 235.443 228.621 235.385C228.385 236 228.145 236.615 227.912 237.23ZM249.615 221.453C249.243 221.47 248.881 221.75 248.513 221.909C248.699 222.274 248.827 222.686 249.084 222.99C250.294 224.423 251.523 225.835 252.777 227.23C253.29 227.801 253.875 228.301 254.429 228.835C254.743 228.068 255.057 227.301 255.219 226.906C255.064 223.75 252.409 221.342 249.615 221.453ZM227.223 251.298C227.963 251.473 229.091 250.865 229.753 250.271C230.463 249.635 230.905 248.652 231.29 247.747C231.473 247.321 231.253 246.723 231.216 246.203C230.831 246.534 230.432 246.848 230.071 247.203C229.78 247.49 229.53 247.818 229.26 248.132C229.142 247.811 228.983 247.5 228.915 247.173C228.74 246.294 228.601 245.406 228.449 244.524C227.686 245.433 226.848 246.291 226.196 247.274C225.912 247.7 226.01 248.379 225.865 249.477C226.165 249.916 226.567 251.142 227.223 251.298ZM218.875 251.173C219.868 250.777 221.047 250.598 221.807 249.936C222.743 249.115 223.52 247.977 224.013 246.825C224.588 245.477 224.186 244.791 222.689 245.825C222.402 246.021 221.949 246.304 221.716 246.206C218.726 244.96 218.24 245.247 218.152 249.142C218.236 249.379 218.554 250.274 218.875 251.173ZM254.736 221.723C255.24 222.068 256.371 222.402 256.503 222.22C256.963 221.591 257.429 220.683 257.314 219.977C256.983 217.902 252.611 215.642 250.645 216.433C250.152 216.632 249.773 217.108 249.132 217.632C251.091 219.075 252.878 220.453 254.736 221.723ZM198.378 254.098C200.473 252.321 202.635 250.605 204.537 248.639C204.892 248.271 204.199 246.885 203.99 245.97C203.118 246.264 201.851 246.294 201.446 246.899C200.091 248.946 199.04 251.196 197.75 253.602C198.003 253.804 198.341 254.129 198.378 254.098ZM213.621 248.183C214.8 247.524 215.838 246.426 216.604 245.301C216.915 244.852 216.334 243.791 216.162 243.01C215.621 243.345 215.108 243.744 214.53 243.99C214.094 244.176 213.493 244.352 213.108 244.189C212.348 243.872 211.682 243.318 210.976 242.862C210.618 243.899 210.257 244.936 210.094 245.402C210.169 248.717 211.287 249.49 213.621 248.183ZM248.277 241.713C248.084 241.139 247.611 240.656 247.263 240.135C246.854 240.48 246.213 240.754 246.084 241.179C245.689 242.517 245.517 243.963 244.561 241.412C244.436 241.081 244.007 240.865 243.719 240.595C243.503 240.96 243.013 241.439 243.111 241.669C243.969 243.652 244.905 245.608 245.946 247.5C246 247.598 247.632 247.217 247.841 246.75C248.287 245.75 248.28 244.548 248.314 244.338C248.314 242.842 248.449 242.223 248.277 241.713ZM232.449 239.014C232.294 239.007 232.138 239 231.986 238.99V233.98C231.838 233.984 231.692 233.984 231.544 233.984C231.057 236.061 230.304 238.122 230.199 240.217C230.142 241.321 230.973 243.152 231.838 243.47C233.604 244.125 234.375 242.47 234.473 240.963C234.628 238.615 234.513 236.247 234.513 233.892L233.719 233.825C233.294 235.554 232.871 237.284 232.449 239.014ZM255 235.551C254.686 234.808 253.983 234.23 253.452 233.578C253.088 234.413 252.692 235.237 252.375 236.092C252.243 236.44 252.284 236.852 252.246 237.237C250.787 236.534 249.216 236.521 250.233 238.548C251.064 240.203 253.04 241.281 254.51 242.615C255.189 241.75 255.868 240.882 256.456 240.132C255.881 238.264 255.557 236.859 255 235.551ZM261.338 228.193C259.983 228.24 258.625 228.25 257.267 228.277C258.777 228.791 260.287 229.311 261.8 229.821C261.932 229.865 262.101 229.882 262.226 229.835C264.003 229.196 265.777 228.544 267.55 227.896C266.013 227.021 264.527 226.024 262.919 225.308C261.898 224.855 260.699 224.696 259.564 224.625C258.875 224.581 258.159 224.956 257.452 225.146C258.03 225.676 258.523 226.389 259.199 226.7C260.223 227.166 261.375 227.348 263.341 227.892C262.162 228.075 261.753 228.179 261.338 228.193ZM255.148 202.916C256.746 202.794 257.932 202.149 257.753 200.277C257.594 198.639 253.79 195.335 252.152 195.622C251.439 195.747 250.875 196.717 250.534 197.034C250.746 200.399 253.04 203.071 255.148 202.916ZM236.773 245.284C236.689 244.818 236.152 244.433 235.821 244.011C235.392 244.372 234.858 244.659 234.557 245.105C233.371 246.858 234.28 251.419 236.142 252.483C236.709 252.804 237.814 252.676 238.432 252.328C240.267 251.294 241.804 247.494 241.24 245.504C241.081 244.946 240.28 244.078 239.979 244.156C239.294 244.328 238.327 244.913 238.199 245.49C237.871 246.994 237.932 248.581 237.838 250.136C237.669 250.075 237.5 250.011 237.327 249.946C237.155 248.389 237.047 246.821 236.773 245.284ZM241.952 229.446C242.361 231.686 242.817 233.973 243.713 236.041C244.101 236.933 245.567 237.686 246.621 237.804C247.101 237.858 248.155 236.271 248.284 235.335C248.757 231.97 246.064 227.909 242.746 227.636C242.534 228.092 241.841 228.842 241.952 229.446ZM261.202 219.815C260.564 219.801 259.912 220.565 259.263 220.97C259.784 221.531 260.361 222.612 260.814 222.561C264.199 222.19 267.581 221.696 270.915 221.004C272.186 220.744 271.996 219.646 270.895 219.358C267.449 218.46 263.956 217.73 260.469 217.017C260.023 216.926 259.483 217.318 258.983 217.487C259.5 217.845 259.969 218.382 260.54 218.531C262.429 219.027 264.354 219.386 266.267 219.798C266.229 220.017 266.189 220.237 266.152 220.453C264.503 220.217 262.854 219.845 261.202 219.815ZM236.5 229.311C236.493 231.679 236.476 234.048 236.49 236.416C236.493 237.416 236.246 238.605 236.689 239.375C237.263 240.369 238.405 241.639 239.317 241.652C240.196 241.666 241.922 240.125 241.841 239.436C241.442 236.071 240.577 232.761 239.841 229.436C239.794 229.233 239.442 229.098 239.233 228.933C239.088 229.261 238.784 229.612 238.824 229.916C239.078 231.74 239.409 233.551 239.716 235.369C239.625 235.406 239.53 235.44 239.439 235.477C238.459 233.423 237.479 231.365 236.5 229.311ZM214.77 240.467C216.463 239 217.932 237.943 218.196 241.49C218.223 241.852 219.942 242.446 219.969 242.399C221.162 240.372 222.25 238.284 223.351 236.203C222.713 236.183 221.719 235.892 221.49 236.19C219.993 238.125 218.125 238.156 216.044 237.598C215.655 237.494 214.888 237.524 214.885 237.46C214.611 232.754 211.105 235.426 209.047 235.017C208.496 234.909 207.709 235.977 207.03 236.504C207.811 236.788 208.827 237.531 209.331 237.271C211.344 236.237 212.53 235.842 212.064 238.919C211.959 239.612 212.757 240.44 213.159 241.24C214.013 240.838 214.463 240.733 214.77 240.467ZM258.736 213.345C259.605 216.294 262.263 215.146 264.118 214.855C266.611 214.467 269.01 213.365 271.371 212.379C271.642 212.264 271.442 210.244 271.385 210.24C267.125 209.943 262.861 209.747 258.591 209.619C258.382 209.612 258.152 210.254 257.932 210.592C258.321 210.71 258.702 210.919 259.094 210.929C260.513 210.973 261.936 210.946 263.331 210.946C261.557 211.852 258.648 213.041 258.736 213.345ZM260.713 204.217C259.807 204.331 259.007 205.244 258.155 205.788C258.966 206.294 259.753 207.196 260.588 207.24C265.24 207.49 269.878 207.288 273.784 204.298C274.557 203.706 274.817 202.44 275.314 201.48C274.402 201.206 273.479 200.663 272.581 200.703C268.848 200.869 265.115 201.186 261.388 201.517C260.925 201.558 260.496 202.017 260.054 202.284C260.496 202.507 260.936 202.916 261.385 202.926C263.804 202.99 266.226 202.956 268.648 202.956C268.655 203.22 268.659 203.48 268.665 203.74C266.01 203.875 263.341 203.889 260.713 204.217ZM204.564 263.568C205.29 263.713 206.425 263.571 206.875 263.075C209.848 259.791 212.692 256.389 215.544 252.997C215.767 252.727 215.723 252.234 215.8 251.845C215.378 252.085 214.78 252.223 214.564 252.588C213.628 254.173 212.807 253.538 211.925 252.578C210.675 251.217 209.277 250.298 207.405 251.406C205.76 252.375 204.506 253.274 205.007 255.798C205.365 257.588 204.307 259.663 203.875 261.625C204.111 262.348 204.229 263.504 204.564 263.568ZM213.077 268.342C213.49 270.652 214.534 271.024 216.226 269.365C219.838 265.825 221.702 261.288 223.007 256.517C223.412 255.044 223.405 253.46 223.584 251.923C222.787 253.291 221.942 254.636 221.209 256.038C220.811 256.794 220.645 257.676 220.3 258.463C219.784 259.632 219.202 260.764 218.648 261.913C218.804 260.747 218.983 259.578 219.108 258.409C219.159 257.899 219.101 257.375 219.094 256.859C218.709 257.021 218.327 257.193 217.939 257.348C217.456 257.544 216.963 257.727 216.476 257.913C216.635 257.392 216.74 256.845 216.963 256.355C217.294 255.636 217.709 254.957 218.378 253.73C212.493 257.612 212.088 262.764 213.077 268.342ZM227.983 259.298C228.054 258.524 227.523 257.696 227.273 256.896C226.463 257.338 225.459 257.612 224.868 258.26C222.162 261.244 221.547 268.902 223.55 272.669C224.351 274.176 225.392 274.446 226.642 273.318C227.267 272.75 227.756 271.997 228.182 271.257C231.186 266.054 231.52 260.325 231.334 254.524C231.317 254.031 230.54 253.561 230.115 253.081C229.858 253.561 229.429 254.024 229.371 254.524C229.027 257.666 228.821 260.821 228.442 263.956C228.284 265.274 227.814 266.554 227.486 267.852C227.28 267.804 227.074 267.757 226.868 267.71C227.256 264.906 227.719 262.112 227.983 259.298ZM260.952 196.892C260.381 197.017 259.925 197.686 259.419 198.102C259.919 198.541 260.422 199.355 260.925 199.355C266.895 199.358 272.892 199.203 277.723 194.98C278.561 194.247 278.811 192.842 279.334 191.747C278.206 191.233 277.047 190.233 275.959 190.308C273.834 190.45 271.756 191.21 269.648 191.683C266.966 192.284 264.25 192.757 261.604 193.49C260.814 193.71 260.209 194.612 259.52 195.203C260.297 195.25 261.084 195.416 261.848 195.331C264.969 194.977 268.084 194.548 271.199 194.146C271.175 194.392 271.152 194.635 271.125 194.882C267.733 195.541 264.327 196.152 260.952 196.892ZM238.608 258.615C238.52 258.092 238.088 257.629 237.814 257.139C237.395 257.453 236.861 257.689 236.574 258.095C235.496 259.619 234.182 261.081 233.561 262.787C232.976 264.385 231.79 266.304 234.841 267.608C236.253 268.213 236.659 271 237.716 272.673C238.216 273.46 239.182 273.953 239.932 274.581C240.628 273.74 241.635 273.01 241.969 272.048C243.888 266.48 242.909 260.939 241.439 255.456C241.29 254.899 240.598 254.49 240.159 254.014C239.824 254.717 239.142 255.46 239.219 256.115C239.577 259.108 240.189 262.071 240.621 265.058C240.74 265.879 240.561 266.747 240.52 267.595L239.986 267.531C239.537 264.558 239.115 261.578 238.608 258.615ZM258.371 245.544C257.811 244.98 256.665 245.004 255.787 244.757C255.912 245.497 255.932 246.271 256.175 246.97C257.023 249.389 256.463 250.467 253.932 251.331C253.598 251.446 253.138 252.21 253.243 252.443C253.827 253.744 254.277 255.342 255.311 256.156C258.348 258.558 261.544 260.794 264.861 262.791C266.834 263.977 267.507 263.355 267.172 260.912C265.513 255.247 262.743 249.919 258.371 245.544ZM264.632 239.71C266.831 241.342 269.034 242.967 271.209 244.629C271.527 244.872 271.692 245.321 271.929 245.673C271.446 245.581 270.946 245.534 270.479 245.389C269.273 245.007 267.172 244.034 267.034 244.267C266.186 245.676 264.888 247.872 265.436 248.825C266.3 250.318 269.145 252.271 270.023 251.821C271.895 250.865 272.608 252.095 273.794 252.51C275.013 252.943 276.229 253.575 277.483 253.673C278.642 253.764 280.432 253.635 280.871 252.933C281.358 252.149 280.986 250.382 280.382 249.436C276.696 243.669 271.706 239.456 265.03 237.517C264.432 237.342 263.662 237.771 262.341 238.054C263.5 238.892 264.071 239.294 264.632 239.71ZM246.182 252.906C245.507 254.446 244.24 256 244.284 257.517C244.382 260.747 243.584 264.399 247.888 266.315C249.638 267.095 250.561 269.629 252.02 271.217C252.523 271.771 253.645 272.271 254.236 272.068C254.757 271.892 255.189 270.703 255.209 269.953C255.375 263.453 253.996 257.294 250.638 251.686C250.152 250.875 249.027 250.45 248.196 249.845C248.169 250.842 247.986 251.869 248.162 252.828C248.334 253.791 248.865 254.686 249.24 255.612C249.088 255.733 248.932 255.852 248.78 255.97C247.915 254.95 247.05 253.929 246.182 252.906ZM255.169 187.382C252.49 188.342 253.598 190.777 252.574 192.331C252.422 192.568 253.506 193.929 254.253 194.385C256.098 195.51 256.229 195.298 256.479 192.818C256.527 192.365 257.5 191.791 258.132 191.646C263.456 190.416 268.854 189.463 274.121 188.024C276.567 187.352 278.804 185.845 281.064 184.595C281.588 184.301 281.831 183.497 282.202 182.926C281.591 182.679 280.996 182.274 280.368 182.22C279.077 182.108 277.773 182.186 276.473 182.186C268.888 181.966 262.104 184.906 255.169 187.382ZM274.409 238.051C275.844 238.754 277.213 239.666 278.723 240.122C285.436 242.162 291.895 239.081 298.513 238.97C299.057 238.96 299.665 238.679 300.121 238.352C301.02 237.706 301.831 236.939 302.679 236.223C301.652 235.615 300.675 234.608 299.588 234.47C294.023 233.76 288.442 233.149 282.848 232.75C277.669 232.382 272.466 232.318 267.273 232.146C266.577 232.125 265.875 232.26 265.175 232.325C265.827 232.75 266.422 233.369 267.135 233.564C270.871 234.592 274.635 235.514 278.256 236.439C277.067 236.936 275.736 237.494 274.409 238.051ZM282.618 227.436C281.773 227.521 280.888 227.669 280.135 228.027C279.709 228.23 279.277 228.929 279.297 229.385C279.314 229.757 280.01 230.412 280.392 230.402C290.496 230.142 300.8 230.602 309.108 223.183C309.321 222.99 309.625 222.825 309.719 222.581C310.013 221.835 310.226 221.054 310.473 220.291C309.807 220.119 309.115 219.73 308.483 219.811C304.611 220.301 300.77 221.064 296.888 221.423C289.55 222.098 282.189 222.48 274.854 223.166C272.659 223.375 270.52 224.2 268.358 224.74C269.854 227.382 272.429 226.254 274.513 226.311C280.672 226.494 286.838 226.375 293 226.375C292.973 226.429 292.949 226.48 292.922 226.531C289.486 226.828 286.047 227.105 282.618 227.436ZM311.54 195.537C301.713 199.037 291.743 201.889 281.409 203.443C279.615 203.713 277.875 204.517 276.189 205.254C275.618 205.504 275.284 206.294 274.841 206.838C275.507 206.926 276.202 207.183 276.831 207.075C281.523 206.257 286.196 205.352 290.882 204.507C292.297 204.25 293.743 203.919 295.155 204C295.76 204.034 296.311 205.031 296.885 205.588C296.321 205.98 295.773 206.399 295.189 206.754C294.743 207.024 294.25 207.213 293.777 207.436C294.257 207.622 294.794 208.054 295.202 207.956C305.49 205.487 315.797 203.037 323.591 195.085C324.071 194.595 324.365 193.919 324.743 193.331C324.148 193.108 323.554 192.882 322.936 192.649C319.074 193.605 315.189 194.237 311.54 195.537ZM295.672 184.575C297.314 184.088 298.898 183.335 298.648 186.244C298.486 188.129 299.567 187.946 300.875 187.429C311.797 183.119 321.409 176.936 328.898 167.757C329.442 167.091 329.54 166.058 329.844 165.193C329.013 165.274 328.081 165.142 327.375 165.48C324.905 166.656 322.405 167.828 320.111 169.304C309.351 176.227 297.878 181.537 285.544 184.973C284.311 185.318 283.128 185.885 281.986 186.473C281.527 186.706 281.233 187.267 280.861 187.679C281.469 187.869 282.081 188.054 282.787 188.271C287.088 187.041 291.388 185.845 295.672 184.575ZM297.321 193.97C299.267 193.504 300.152 193.392 298.827 195.646C298.55 196.112 298.51 196.716 298.361 197.257C299.05 197.257 299.811 197.45 300.419 197.227C305.851 195.254 311.608 193.835 316.561 191.007C321.327 188.284 325.294 184.139 329.503 180.493C330.138 179.943 330.182 178.713 330.5 177.798C329.564 177.771 328.523 177.46 327.713 177.764C322.716 179.645 317.412 181.061 312.888 183.767C304.138 189 294.679 191.733 284.854 193.71C283.192 194.044 281.574 194.71 280.03 195.426C279.496 195.672 279.257 196.537 278.878 197.122C279.503 197.311 280.128 197.504 280.544 197.629C286.314 196.385 291.841 195.274 297.321 193.97ZM284.037 218.922C283.594 219.125 283.219 219.48 282.814 219.76C283.27 220.041 283.733 220.575 284.179 220.564C286.922 220.48 289.699 220.483 292.402 220.058C296.392 219.426 300.365 218.595 304.277 217.575C306.148 217.085 308.571 217.186 309.007 214.118C309.128 213.267 311.513 212.895 312.598 211.99C314.996 209.983 317.226 207.777 319.527 205.652C316.648 205.676 313.669 205.227 310.915 205.821C305.284 207.031 299.831 209.088 294.192 210.267C288.696 211.416 283.057 211.912 277.479 212.683C276.909 212.76 276.199 212.558 275.773 212.828C274.368 213.72 273.067 214.767 271.726 215.757C273.182 216.017 274.665 216.588 276.094 216.48C281.807 216.047 287.503 215.402 293.061 214.852C290.108 216.179 287.064 217.537 284.037 218.922ZM295.175 174.612C296.348 174.058 297.456 173.362 298.577 172.706C300.55 171.558 302.368 170.23 303.777 173.588C304.496 175.304 306.236 175.331 307.858 174.338C313.632 170.787 319.422 167.264 325.199 163.72C325.564 163.497 326.189 163.166 326.172 162.919C325.912 159.139 329.794 159.541 331.331 157.676C332.831 155.852 333.966 153.656 334.885 151.463C335.243 150.605 334.925 148.895 334.27 148.348C333.709 147.882 332.054 148.227 331.175 148.73C326.172 151.605 321.189 154.531 316.321 157.632C303.405 165.862 290.186 173.531 275.351 179.946C283.358 181.547 289.098 177.473 295.175 174.612ZM234.121 224.99C234.132 223.554 234.669 223.568 235.577 224.463C236.088 224.963 236.635 225.649 237.253 225.76C238.307 225.953 239.621 226.095 240.459 225.615C241.027 225.294 241.105 223.879 241.142 222.943C241.165 222.26 240.702 221.575 240.567 220.868C240.439 220.2 240.456 219.5 240.409 218.814C240.973 219.135 241.557 219.422 242.094 219.781C244.284 221.23 247.159 220.416 246.932 218.26C246.817 217.172 245.331 216.223 244.442 215.23C244.094 214.841 243.696 214.504 243.317 214.142C243.79 213.922 244.243 213.629 244.74 213.51C245.294 213.375 245.905 213.48 246.463 213.348C249.24 212.686 249.919 210.852 247.659 209.206C245.017 207.281 245.662 206.686 248.037 205.243C251.007 203.436 250.844 200.635 247.784 198.895C246.392 198.108 246.51 197.875 247.365 196.818C248.608 195.277 249.77 193.625 250.655 191.865C251.017 191.142 250.561 190.007 250.476 189.058C249.702 189.368 248.827 189.541 248.169 190.014C242.702 193.939 239.449 199.142 239.02 205.987C238.895 207.997 238.76 210.064 238.189 211.977C237.76 213.409 236.939 215.233 235.757 215.838C231.334 218.108 228.385 221.825 225.321 225.466C224.26 226.73 223.459 227.379 221.392 226.902C218.51 226.237 215.365 226.757 212.331 226.689C210.098 226.639 209.229 228.112 208.882 229.879C208.709 230.74 208.956 232.091 209.54 232.564C210.064 232.99 211.378 232.686 212.226 232.385C213.007 232.105 213.604 231.352 214.331 230.882C215.236 230.297 215.932 230.142 215.861 231.676C215.824 232.507 215.858 233.483 216.257 234.159C216.726 234.946 217.547 235.774 218.375 236C218.838 236.125 219.689 235.118 220.24 234.51C220.611 234.098 220.753 233.483 221.03 232.977C221.564 231.993 222.115 231.02 222.662 230.044C223.037 230.895 223.263 231.862 223.824 232.561C224.317 233.179 225.331 233.98 225.858 233.828C226.642 233.595 227.338 232.679 227.807 231.895C228.145 231.325 228.007 230.487 228.169 229.787C228.388 228.825 228.317 227.419 229.797 229.21C230.466 230.02 232.49 230.808 232.996 230.419C233.925 229.713 234.182 228.129 234.348 227.747C234.213 226.142 234.118 225.564 234.121 224.99ZM337.064 150.027V153.504C335.338 155.747 333.706 158.075 331.841 160.196C330.922 161.24 329.675 161.902 331.422 163.193C333.5 164.723 332.898 166.399 331.628 168.058C330.571 169.433 329.459 170.764 328.358 172.105C327.199 173.52 326.027 174.926 324.861 176.335C326.527 176.047 328.186 175.683 329.861 175.493C332.76 175.162 334.172 176.811 332.719 179.422C331.361 181.865 329.142 183.848 327.219 185.956C326.358 186.899 325.125 187.534 324.382 188.544C323.912 189.183 323.361 190.206 325.064 190.794C328.49 191.977 328.76 192.767 326.449 195.358C324.452 197.605 321.969 199.419 319.679 201.399C318.905 202.071 318.493 202.355 319.827 203.078C322.821 204.703 323.037 205.632 320.784 208.213C319.098 210.145 316.929 211.659 314.973 213.358C313.067 215.01 310.841 216.395 312.922 219.585C313.419 220.341 312.773 222.625 311.922 223.335C309.077 225.71 305.973 227.804 302.824 229.774C301.196 230.794 299.263 231.325 297.466 232.078C299.287 232.507 301.148 232.821 302.922 233.399C305.699 234.301 306.213 236.686 304.084 238.713C303.371 239.392 302.442 240.007 301.507 240.254C295.682 241.787 289.915 243.791 283.736 243.058C282.446 242.906 281.179 242.547 279.888 242.443C279.27 242.392 278.625 242.72 277.993 242.875C278.24 243.368 278.419 243.916 278.746 244.352C280.219 246.311 281.969 248.108 283.148 250.23C283.831 251.456 284.297 253.723 283.638 254.547C282.767 255.635 280.621 256.379 279.169 256.186C275.662 255.713 272.236 254.622 268.784 253.76C268.118 253.595 267.473 253.352 266.817 253.142C266.909 253.808 266.888 254.51 267.108 255.132C267.922 257.443 268.979 259.686 269.608 262.044C269.905 263.156 269.797 265.254 269.226 265.52C268.165 266.017 266.449 265.868 265.324 265.328C263.128 264.27 261.169 262.727 259.067 261.456C258.503 261.115 257.777 261.047 257.125 260.852C257.003 261.51 256.75 262.169 256.78 262.818C256.936 265.98 257.476 269.156 257.294 272.291C257.091 275.838 255.186 276.524 252.473 274.267C251.044 273.075 249.973 271.409 248.459 270.365C245.736 268.49 245.446 268.7 244.581 271.754C244.27 272.865 243.993 274.004 243.52 275.047C242.007 278.416 240.213 278.642 237.746 275.784C236.621 274.48 235.736 272.943 234.503 271.76C232.081 269.436 232.04 269.524 230.49 272.331C229.25 274.581 228.246 277.561 225.067 277.135C222.125 276.74 221.966 273.72 221.246 271.406C220.996 270.612 220.584 269.868 220.246 269.098C219.611 269.645 218.929 270.145 218.344 270.74C216.942 272.179 215.486 274.409 213.392 273.189C212.125 272.456 211.5 270.139 211.148 268.416C210.344 264.5 210.483 264.473 206.966 266.223C203.729 267.835 201.591 266.466 201.679 262.814C201.692 262.243 201.895 261.683 201.983 261.112C202.729 256.318 202.729 256.318 198.013 257.044C195.425 257.446 194.321 256.466 195.273 254.422C197.601 249.443 199.702 244.304 202.618 239.683C204.74 236.328 206.517 233.064 207.398 229.176C208.243 225.443 209.223 224.963 213.243 224.855C215.267 224.801 217.294 224.693 219.317 224.7C222.574 224.706 225.057 223.473 227.175 220.889C228.784 218.922 230.824 217.142 233.01 215.858C235.544 214.372 236.753 212.466 236.976 209.635C237.172 207.189 237.469 204.737 237.942 202.331C239.388 194.946 243.915 189.598 250.517 186.723C257.479 183.689 265.077 182.145 272.175 179.382C293.882 170.926 312.861 157.5 332.716 145.683C337.064 145.683 337.064 145.683 337.064 150.027Z" fill="white"/>
</svg>
