<svg width="388" height="420" viewBox="0 0 388 420" fill="none" xmlns="http://www.w3.org/2000/svg">
<path d="M136.044 156.193L167.071 187.22" stroke="white" stroke-width="11.2432" stroke-miterlimit="10" stroke-linecap="round"/>
<path d="M167.071 156.193L136.044 187.22" stroke="white" stroke-width="11.2432" stroke-miterlimit="10" stroke-linecap="round"/>
<path d="M223.618 156.193L254.645 187.22" stroke="white" stroke-width="11.2432" stroke-miterlimit="10" stroke-linecap="round"/>
<path d="M254.645 156.193L223.618 187.22" stroke="white" stroke-width="11.2432" stroke-miterlimit="10" stroke-linecap="round"/>
<path d="M179.832 199.737H210.859" stroke="white" stroke-width="11.2432" stroke-miterlimit="10" stroke-linecap="round"/>
<path d="M214.291 92.0137H176.399C126.324 92.0137 85.5879 132.75 85.5879 182.824V263.088C85.5879 265.808 85.7095 268.5 85.946 271.162L99.7129 283.943H105.916C103.956 277.324 102.885 270.331 102.885 263.088V182.824C102.885 142.287 135.862 109.311 176.399 109.311H214.291C254.828 109.311 287.804 142.287 287.804 182.824V263.088C287.804 270.331 286.737 277.324 284.774 283.943H288.794L305.034 266.446C305.074 265.331 305.101 264.213 305.101 263.088V182.824C305.101 132.75 264.365 92.0137 214.291 92.0137Z" fill="white"/>
<path d="M132.028 299.706C129.099 297.416 125.153 293.814 121.542 288.578C117.761 283.095 115.775 277.889 114.694 274.24C112.717 278.355 110.481 284.112 109.238 291.253C108.241 296.987 108.16 302.041 108.383 306.017C105.241 299.122 99.062 288.324 87.4066 279.632C83.6971 276.865 80.0485 274.77 76.7106 273.172C79.5991 277.02 82.8762 282.112 85.7005 288.47C89.4133 296.824 91.0451 304.429 91.7985 310.085C85.9133 299.341 78.7917 287.669 70.187 275.524C62.4133 264.557 54.616 254.875 47.1836 246.422C54.5687 248.865 63.6329 252.595 73.2883 258.405C85.1836 265.564 94.0113 273.49 100.143 279.912C101.17 276.612 103.157 271.669 107.099 266.645C110.113 262.804 113.298 260.149 115.765 258.405C116.579 262.318 118.204 267.865 121.65 273.814C124.444 278.635 127.569 282.226 130.103 284.726C130.525 282.72 131.413 279.733 133.42 276.595C134.849 274.355 136.423 272.71 137.7 271.568C138.67 275.507 140.187 280.247 142.619 285.368C145.65 291.747 149.16 296.72 152.143 300.348C149.7 299.24 145.94 297.162 142.407 293.392C139.88 290.699 138.275 288.003 137.271 285.956C136.302 287.547 135.292 289.46 134.383 291.682C133.157 294.672 132.45 297.426 132.028 299.706Z" fill="white"/>
<path d="M255.439 299.706C258.368 297.416 262.314 293.814 265.926 288.578C269.706 283.095 271.692 277.889 272.774 274.24C274.75 278.355 276.986 284.112 278.23 291.253C279.226 296.987 279.307 302.041 279.084 306.017C282.226 299.122 288.405 288.324 300.061 279.632C303.77 276.865 307.419 274.77 310.757 273.172C307.868 277.02 304.591 282.112 301.767 288.47C298.054 296.824 296.422 304.429 295.669 310.085C301.554 299.341 308.676 287.669 317.28 275.524C325.054 264.557 332.851 254.875 340.284 246.422C332.899 248.865 323.834 252.595 314.179 258.405C302.284 265.564 293.456 273.49 287.324 279.912C286.297 276.612 284.311 271.669 280.368 266.645C277.355 262.804 274.169 260.149 271.703 258.405C270.888 262.318 269.263 267.865 265.817 273.814C263.024 278.635 259.899 282.226 257.365 284.726C256.942 282.72 256.054 279.733 254.047 276.595C252.618 274.355 251.044 272.71 249.767 271.568C248.797 275.507 247.28 280.247 244.848 285.368C241.817 291.747 238.307 296.72 235.324 300.348C237.767 299.24 241.527 297.162 245.061 293.392C247.588 290.699 249.192 288.003 250.196 285.956C251.165 287.547 252.176 289.46 253.084 291.682C254.311 294.672 255.017 297.426 255.439 299.706Z" fill="white"/>
</svg>
