<svg width="388" height="420" viewBox="0 0 388 420" fill="none" xmlns="http://www.w3.org/2000/svg">
<g clip-path="url(#clip0_2011_95905)">
<mask id="mask0_2011_95905" style="mask-type:luminance" maskUnits="userSpaceOnUse" x="-34" y="-17" width="455" height="454">
<path d="M-33.0449 -16.8517H420.516V436.852H-33.0449V-16.8517Z" fill="white"/>
</mask>
<g mask="url(#mask0_2011_95905)">
<path d="M267.312 279.114C265.109 281.668 262.46 283.828 259.603 285.4L253.278 288.881C247.859 291.863 242.909 296.123 239.016 301.153L232.734 309.269L233.995 305.869C237.241 297.112 244.807 289.263 253.564 285.565L257.162 284.046C259.742 282.956 262.267 281.493 264.636 279.714L270.767 275.109L267.312 279.114ZM239.495 252.507C240.074 248.73 240.844 244.802 241.735 241.032C242.151 244.947 241.644 248.871 241.12 252.777C240.461 256.655 239.205 260.349 237.687 263.95C237.909 260.073 238.921 256.279 239.495 252.507ZM253.06 251.602C254.243 244.336 253.838 237.001 254.512 229.686C255.584 237.426 255.929 245.279 254.443 252.976C253.463 256.893 252.415 260.854 251.049 264.651C251.415 260.249 252.362 255.932 253.06 251.602ZM266.874 246.555C267.28 241.076 267.281 235.57 268.095 230.115C268.6 235.669 268.852 241.118 268.512 246.714C267.913 252.231 266.37 257.582 264.767 262.867C265.068 257.352 266.347 252.024 266.874 246.555ZM299.496 268.557L297.268 251.396C297.175 250.675 296.545 250.169 295.859 250.263L295.755 250.277C291.012 250.927 287.264 254.837 286.613 259.818C286.325 262.023 286.092 263.794 286.092 263.794C285.169 267.321 282.509 270.052 279.131 270.939L279.055 270.958C278.56 271.089 278.078 270.695 278.078 270.157L279.029 252.07C279.21 248.631 279.201 245.184 279.004 241.745L278.078 225.701C278.078 223.271 276.209 219.612 274.343 218.769C272.905 218.119 271.083 219.149 269.816 220.315L268.706 221.551L268.095 220.089C265.649 215.538 260.591 216.2 256.599 221.301L254.036 224.691C248.663 225.089 246.178 228.603 243.162 233.61C242.676 234.416 242.288 235.283 242.007 236.189L241.609 237.473C241.511 237.788 241.315 238.058 241.053 238.241L240.355 238.726C234.38 242.884 229.285 249.58 228.03 256.993L226.734 264.651L207.468 293.211C203.053 299.755 204.852 308.86 211.382 313.018L221.435 319.42C227.299 323.153 234.422 324.006 240.935 321.753L263.031 314.109C265.598 313.12 267.891 311.478 269.706 309.331L297.367 276.621C299.101 274.355 299.871 271.438 299.496 268.557Z" fill="white"/>
</g>
<mask id="mask1_2011_95905" style="mask-type:luminance" maskUnits="userSpaceOnUse" x="-34" y="-17" width="455" height="454">
<path d="M-33.0449 -16.8517H420.516V436.852H-33.0449V-16.8517Z" fill="white"/>
</mask>
<g mask="url(#mask1_2011_95905)">
<path d="M121.817 275.109L127.948 279.714C130.318 281.493 132.842 282.957 135.423 284.046L139.02 285.565C147.778 289.263 155.343 297.112 158.589 305.869L159.85 309.269L153.568 301.153C149.676 296.123 144.725 291.863 139.306 288.881L132.981 285.4C130.124 283.828 127.474 281.668 125.272 279.114L121.817 275.109ZM154.897 263.95C153.379 260.349 152.123 256.655 151.465 252.777C150.94 248.871 150.433 244.947 150.85 241.032C151.74 244.802 152.51 248.73 153.089 252.507C153.663 256.279 154.675 260.073 154.897 263.95ZM141.536 264.651C140.17 260.854 139.121 256.893 138.14 252.976C136.655 245.279 137 237.426 138.072 229.686C138.746 237.001 138.342 244.336 139.524 251.602C140.223 255.932 141.169 260.249 141.536 264.651ZM127.817 262.867C126.214 257.582 124.672 252.231 124.072 246.714C123.732 241.118 123.984 235.669 124.49 230.115C125.303 235.57 125.304 241.076 125.71 246.555C126.237 252.024 127.517 257.352 127.817 262.867ZM95.2164 276.621L122.878 309.331C124.693 311.478 126.986 313.12 129.552 314.11L151.65 321.753C158.162 324.006 165.286 323.153 171.149 319.42L181.203 313.019C187.732 308.86 189.531 299.755 185.116 293.211L165.85 264.651L164.554 256.993C163.3 249.58 158.204 242.884 152.229 238.726L151.531 238.241C151.27 238.058 151.073 237.788 150.976 237.473L150.578 236.189C150.297 235.283 149.908 234.416 149.422 233.61C146.407 228.603 143.921 225.089 138.547 224.691L135.985 221.301C131.994 216.2 126.935 215.538 124.49 220.089L123.878 221.551L122.769 220.315C121.501 219.15 119.679 218.119 118.241 218.769C116.376 219.612 114.506 223.271 114.506 225.701L113.581 241.745C113.383 245.184 113.374 248.631 113.555 252.07L114.506 270.157C114.506 270.695 114.025 271.089 113.529 270.958L113.453 270.939C110.075 270.052 107.415 267.321 106.491 263.794C106.491 263.794 106.259 262.023 105.971 259.818C105.32 254.837 101.572 250.927 96.8293 250.277L96.7257 250.263C96.0397 250.169 95.4099 250.675 95.3166 251.396L93.0885 268.557C92.7136 271.438 93.4833 274.355 95.2164 276.621Z" fill="white"/>
</g>
<mask id="mask2_2011_95905" style="mask-type:luminance" maskUnits="userSpaceOnUse" x="-34" y="-17" width="455" height="454">
<path d="M-33.0449 -16.8517H420.516V436.852H-33.0449V-16.8517Z" fill="white"/>
</mask>
<g mask="url(#mask2_2011_95905)">
<path d="M175.869 180.504C170.985 176.287 166.176 171.982 161.444 167.596C166.609 171.461 171.698 175.406 176.712 179.441C187.018 186.979 198.916 192.255 211.403 194.964C217.693 196.357 223.962 197.858 230.209 199.468C209.341 196.323 193.073 194.152 175.869 180.504ZM145.656 139.815C146.612 143.242 147.488 146.649 148.993 149.87C150.408 153.131 152.374 156.048 154.31 159.033C149.195 153.946 146.089 147.013 145.656 139.815ZM267.193 196.899L259.285 197.464C255.236 197.753 251.171 197.745 247.124 197.441L239.91 196.899C234.515 189.641 231.384 180.949 230.912 171.915L230.637 166.644C226.598 168.799 223.817 172.739 223.138 177.267L222.933 178.633L222.848 178.392C221.894 175.701 219.965 173.465 217.443 172.125L216.798 171.782L217.196 172.729C219.024 177.076 219.43 181.89 218.358 186.482L218.225 187.052L201.76 180.235C189.984 175.358 180.533 166.136 175.369 154.481L171.716 146.236L171.203 147.137C168.548 151.793 167.714 157.27 168.862 162.506L164.9 159.864C158.233 155.418 152.794 149.362 149.086 142.256L144.609 133.678L144.374 147.248C144.161 159.536 149.428 171.28 158.743 179.292L174.569 192.903L173.805 192.712C170.141 191.796 166.592 190.469 163.225 188.758L159.589 186.909L183.372 200.819C190.952 205.252 199.623 207.469 208.401 207.217L219.794 206.889C218.77 209.533 216.997 211.82 214.691 213.469L212.518 215.024H217.713C220.135 215.024 222.547 214.694 224.88 214.042L227.499 213.311C227.499 215.28 227.022 217.219 226.11 218.964L224.641 221.776L227.593 219.649C230.237 217.744 232.31 215.15 233.584 212.149L233.788 211.669C234.766 209.369 236.249 207.318 238.129 205.67L241.622 202.608L242.135 202.662C249.968 203.481 257.885 202.888 265.508 200.911L268.871 200.039V199.851C268.871 198.64 268.234 197.519 267.193 196.899Z" fill="white"/>
</g>
<mask id="mask3_2011_95905" style="mask-type:luminance" maskUnits="userSpaceOnUse" x="-34" y="-17" width="455" height="454">
<path d="M-33.0449 -16.8517H420.516V436.852H-33.0449V-16.8517Z" fill="white"/>
</mask>
<g mask="url(#mask3_2011_95905)">
<path d="M224.218 222.587L224.642 221.775L224.458 221.907L224.218 222.587Z" fill="white"/>
</g>
<mask id="mask4_2011_95905" style="mask-type:luminance" maskUnits="userSpaceOnUse" x="-34" y="-17" width="455" height="454">
<path d="M-33.0449 -16.8517H420.516V436.852H-33.0449V-16.8517Z" fill="white"/>
</mask>
<g mask="url(#mask4_2011_95905)">
<path d="M299.589 198.052V173.696L212.659 86.1445L299.589 198.052Z" fill="white"/>
</g>
<mask id="mask5_2011_95905" style="mask-type:luminance" maskUnits="userSpaceOnUse" x="-34" y="-17" width="455" height="454">
<path d="M-33.0449 -16.8517H420.516V436.852H-33.0449V-16.8517Z" fill="white"/>
</mask>
<g mask="url(#mask5_2011_95905)">
<path d="M89.0654 198.052V173.696L175.996 86.1445L89.0654 198.052Z" fill="white"/>
</g>
<mask id="mask6_2011_95905" style="mask-type:luminance" maskUnits="userSpaceOnUse" x="-34" y="-17" width="455" height="454">
<path d="M-33.0449 -16.8517H420.516V436.852H-33.0449V-16.8517Z" fill="white"/>
</mask>
<g mask="url(#mask6_2011_95905)">
<path d="M142.494 161.303L104.918 217.042L112.994 214.76C113.238 214.691 113.468 214.579 113.673 214.43L116.24 212.559C117.773 211.442 119.754 211.142 121.549 211.755C122.129 211.953 122.771 211.818 123.222 211.403L123.825 210.848C125.459 209.345 127.852 209.007 129.837 210L148.452 173.592C145.849 169.816 143.841 165.676 142.494 161.303Z" fill="white"/>
</g>
<mask id="mask7_2011_95905" style="mask-type:luminance" maskUnits="userSpaceOnUse" x="-34" y="-17" width="455" height="454">
<path d="M-33.0449 -16.8517H420.516V436.852H-33.0449V-16.8517Z" fill="white"/>
</mask>
<g mask="url(#mask7_2011_95905)">
<path d="M160.089 150.83L193.161 86.1438L154.394 143.65C156.037 146.237 157.947 148.643 160.089 150.83Z" fill="white"/>
</g>
<mask id="mask8_2011_95905" style="mask-type:luminance" maskUnits="userSpaceOnUse" x="-34" y="-17" width="455" height="454">
<path d="M-33.0449 -16.8517H420.516V436.852H-33.0449V-16.8517Z" fill="white"/>
</mask>
<g mask="url(#mask8_2011_95905)">
<path d="M181.41 204.176L175.814 200.903L169.023 234.777L175.432 249.38C175.808 250.235 176.124 251.116 176.378 252.016L178.661 260.087C178.854 260.77 179.561 261.168 180.245 260.98L191.088 257.991L192.409 208.965C188.587 207.814 184.895 206.215 181.41 204.176Z" fill="white"/>
</g>
<mask id="mask9_2011_95905" style="mask-type:luminance" maskUnits="userSpaceOnUse" x="-34" y="-17" width="455" height="454">
<path d="M-33.0449 -16.8517H420.516V436.852H-33.0449V-16.8517Z" fill="white"/>
</mask>
<g mask="url(#mask9_2011_95905)">
<path d="M193.429 171.073L195.234 104.052L183.758 161.285C186.473 165.026 189.726 168.323 193.429 171.073Z" fill="white"/>
</g>
<mask id="mask10_2011_95905" style="mask-type:luminance" maskUnits="userSpaceOnUse" x="-34" y="-17" width="455" height="454">
<path d="M-33.0449 -16.8517H420.516V436.852H-33.0449V-16.8517Z" fill="white"/>
</mask>
<g mask="url(#mask10_2011_95905)">
<path d="M271.449 203.388L266.486 204.676C260.761 206.16 254.92 206.904 249.045 206.906L251.049 212.013L254.685 211.509C255.177 211.441 255.637 211.223 256.001 210.885L257.273 209.706C259.913 207.259 263.836 206.808 266.962 208.594L267.901 209.131C268.399 209.415 268.977 209.526 269.544 209.448L274.636 208.742L271.449 203.388Z" fill="white"/>
</g>
<mask id="mask11_2011_95905" style="mask-type:luminance" maskUnits="userSpaceOnUse" x="-34" y="-17" width="455" height="454">
<path d="M-33.0449 -16.8517H420.516V436.852H-33.0449V-16.8517Z" fill="white"/>
</mask>
<g mask="url(#mask11_2011_95905)">
<path d="M234.2 160.337L234.728 170.43L243.698 193.284L247.415 193.563C251.259 193.854 255.159 193.86 259.009 193.585L265.343 193.133L201.646 86.1443L231.36 161.851L234.2 160.337Z" fill="white"/>
</g>
</g>
<defs>
<clipPath id="clip0_2011_95905">
<rect width="387.47" height="420" fill="white"/>
</clipPath>
</defs>
</svg>
