<svg width="388" height="420" viewBox="0 0 388 420" fill="none" xmlns="http://www.w3.org/2000/svg">
<path d="M91.0742 222.703C91.0742 235.932 101.797 246.655 115.027 246.655C128.253 246.655 138.976 235.932 138.976 222.703C138.976 209.476 128.253 198.753 115.027 198.753C101.797 198.753 91.0742 209.476 91.0742 222.703Z" stroke="white" stroke-width="12.1081" stroke-miterlimit="10" stroke-linecap="round"/>
<path d="M188.456 222.703C188.456 237.034 200.071 248.652 214.402 248.652C228.733 248.652 240.351 237.034 240.351 222.703C240.351 208.375 228.733 196.757 214.402 196.757C200.071 196.757 188.456 208.375 188.456 222.703Z" stroke="white" stroke-width="12.1081" stroke-miterlimit="10" stroke-linecap="round"/>
<path d="M90.7803 177.051L139.274 167.236" stroke="white" stroke-width="12.1081" stroke-miterlimit="10" stroke-linecap="round" stroke-linejoin="round"/>
<path d="M238.649 177.051L190.155 167.236" stroke="white" stroke-width="12.1081" stroke-miterlimit="10" stroke-linecap="round" stroke-linejoin="round"/>
<path d="M186.436 300.196H139.091C139.091 300.196 135.936 253.446 162.763 253.446C189.594 253.446 186.436 300.196 186.436 300.196Z" stroke="white" stroke-width="12.1081" stroke-miterlimit="10" stroke-linecap="round" stroke-linejoin="round"/>
<path d="M232.01 135.601C232.01 135.601 256.114 135.987 257.729 116.213C257.729 116.213 247.729 144.088 270.047 150.987C270.047 150.987 287.327 154.571 298.949 142.676C298.949 142.676 277.993 161.862 283.517 173.46C283.517 173.46 285.729 187.973 310.486 189.902C310.486 189.902 279.263 193.443 280.591 210.152" stroke="white" stroke-width="12.1081" stroke-miterlimit="10" stroke-linecap="round" stroke-linejoin="round"/>
</svg>
