<svg width="388" height="420" viewBox="0 0 388 420" fill="none" xmlns="http://www.w3.org/2000/svg">
<path d="M268.27 150.949C271.183 150.949 273.872 152.51 275.328 155.034L275.639 155.585L275.328 155.024C273.872 152.5 271.183 150.946 268.27 150.946C265.355 150.946 262.666 152.547 261.21 155.071L254.696 166.422L261.21 155.074C262.666 152.551 265.355 150.949 268.27 150.949Z" fill="white"/>
<path d="M223.703 253.243L268.267 175.885L312.835 253.243H223.703ZM163.764 253.243H74.6323L119.2 175.885L163.764 253.243ZM330.376 253.243C330.379 251.514 330.034 250.223 329.294 248.939L276.267 156.774C276.362 157.267 276.416 157.767 276.416 158.291C276.416 157.767 276.362 157.203 276.267 156.706L276.257 156.774C275.524 153.027 272.23 150.324 268.267 150.324H200.653V145.696C200.653 141.199 197.369 137.551 192.869 137.551C188.369 137.551 185.085 141.199 185.085 145.696V150.324H119.808C116.896 150.324 114.359 151.723 112.919 154.02C112.872 154.074 112.825 154.071 112.781 154.128C112.767 154.149 112.757 154.152 112.747 154.172C112.528 154.456 112.321 154.733 112.139 155.047L58.1728 248.953C57.4329 250.237 57.0883 251.514 57.0917 253.243H57.085C57.085 253.243 57.0951 253.142 57.0951 253.213C57.0985 253.389 57.1153 253.446 57.1221 253.625C57.943 269.703 85.4092 282.561 119.2 282.561C152.987 282.561 180.453 269.615 181.271 253.537C181.281 253.358 181.298 253.405 181.301 253.226C181.301 253.159 181.311 253.243 181.311 253.243H181.304C181.304 251.514 180.963 250.439 180.223 249.152L132.767 166.757H185.085V172.483C185.085 176.983 188.369 180.632 192.869 180.632C197.369 180.632 200.653 176.983 200.653 172.483V166.757H254.7L261.21 155.237C262.666 152.713 265.355 151.027 268.267 151.027C271.183 151.027 273.872 152.541 275.328 155.064L275.642 155.605L275.328 155.047C273.872 152.52 271.183 150.956 268.267 150.956C265.355 150.956 262.666 152.551 261.21 155.074L254.7 166.422L207.244 248.987C206.504 250.27 206.163 251.514 206.163 253.243H206.156C206.156 253.243 206.166 253.142 206.166 253.213C206.169 253.389 206.186 253.446 206.196 253.625C207.014 269.703 234.48 282.561 268.267 282.561C302.058 282.561 329.524 269.615 330.342 253.537C330.352 253.358 330.369 253.405 330.372 253.226C330.372 253.159 330.382 253.243 330.382 253.243L330.376 253.243Z" fill="white"/>
</svg>
