<svg width="388" height="420" viewBox="0 0 388 420" fill="none" xmlns="http://www.w3.org/2000/svg">
<path d="M195.033 112.71L195.03 112.706L195.026 112.71C195.026 112.743 195.03 112.774 195.03 112.804C195.03 112.774 195.033 112.743 195.033 112.71Z" fill="white"/>
<path d="M195.03 112.804C195.03 125.443 190.003 135.686 183.8 135.686C190.003 135.686 195.03 134.375 195.03 147.01C195.03 134.375 200.057 135.686 206.26 135.686C200.057 135.686 195.03 125.443 195.03 112.804Z" fill="white"/>
<path d="M183.753 135.679L183.75 135.686L183.753 135.69C183.766 135.69 183.783 135.686 183.8 135.686C183.783 135.686 183.766 135.679 183.753 135.679Z" fill="white"/>
<path d="M195.027 158.659L195.03 158.665L195.034 158.659C195.034 158.628 195.03 158.598 195.03 158.564C195.03 158.598 195.027 158.628 195.027 158.659Z" fill="white"/>
<path d="M206.307 135.689L206.311 135.686L206.307 135.679C206.29 135.679 206.277 135.686 206.26 135.686C206.277 135.686 206.29 135.689 206.307 135.689Z" fill="white"/>
<path d="M212.732 154.182H212.729C212.729 154.196 212.732 154.206 212.732 154.219C212.732 154.206 212.732 154.196 212.732 154.182Z" fill="white"/>
<path d="M212.732 154.22C212.732 159.091 210.793 163.037 208.401 163.037C210.793 163.037 212.732 162.534 212.732 167.406C212.732 162.534 214.668 163.037 217.06 163.037C214.668 163.037 212.732 159.091 212.732 154.22Z" fill="white"/>
<path d="M208.384 163.037L208.381 163.041H208.384C208.391 163.041 208.394 163.041 208.401 163.041C208.394 163.041 208.391 163.037 208.384 163.037Z" fill="white"/>
<path d="M212.729 171.895L212.732 171.899V171.895C212.732 171.882 212.732 171.871 212.732 171.858C212.732 171.871 212.729 171.882 212.729 171.895Z" fill="white"/>
<path d="M217.077 163.041H217.081L217.077 163.037C217.07 163.037 217.067 163.041 217.061 163.041C217.067 163.041 217.071 163.041 217.077 163.041Z" fill="white"/>
<path d="M177.331 154.182H177.327C177.327 154.196 177.327 154.206 177.327 154.219C177.327 154.206 177.331 154.196 177.331 154.182Z" fill="white"/>
<path d="M177.327 154.22C177.327 159.091 175.391 163.037 172.999 163.037C175.391 163.037 177.327 162.534 177.327 167.406C177.327 162.534 179.266 163.037 181.658 163.037C179.266 163.037 177.327 159.091 177.327 154.22Z" fill="white"/>
<path d="M172.982 163.037L172.979 163.041H172.982C172.989 163.041 172.993 163.041 172.999 163.041C172.992 163.041 172.989 163.037 172.982 163.037Z" fill="white"/>
<path d="M177.327 171.895V171.899L177.331 171.895C177.331 171.882 177.327 171.871 177.327 171.858C177.327 171.871 177.327 171.882 177.327 171.895Z" fill="white"/>
<path d="M181.675 163.041H181.679L181.675 163.037C181.668 163.037 181.665 163.041 181.658 163.041C181.665 163.041 181.668 163.041 181.675 163.041Z" fill="white"/>
<path d="M118.517 305.909C118.517 305.909 195.03 316.537 195.03 88.0542V306" fill="white"/>
<path d="M91.6787 277.669C91.6787 277.669 177.327 288.75 177.327 163.037C177.327 163.037 177.898 250.936 91.6787 250.936" fill="white"/>
<path d="M271.543 305.909C271.543 305.909 195.03 316.537 195.03 88.0542L192.722 306" fill="white"/>
<path d="M298.382 277.669C298.382 277.669 212.733 288.75 212.733 163.037C212.733 163.037 212.162 250.936 298.382 250.936" fill="white"/>
</svg>
