<svg width="388" height="420" viewBox="0 0 388 420" fill="none" xmlns="http://www.w3.org/2000/svg">
<path d="M184.496 260.358C152.969 260.358 127.313 234.703 127.313 203.176C127.313 171.649 152.969 145.993 184.496 145.993C216.023 145.993 241.678 171.649 241.678 203.176C241.678 234.703 216.023 260.358 184.496 260.358ZM281.86 277.436L258.526 254.105C268.867 239.169 274.354 221.301 274.354 203.176C274.354 153.105 233.465 112.639 183.232 113.328C134.823 113.99 95.3131 153.503 94.6476 201.912C93.9584 252.145 134.425 293.034 184.496 293.034C202.621 293.034 220.489 287.544 235.425 277.206L258.712 300.426C262.063 303.767 267.418 303.895 270.982 300.78C274.908 297.348 278.631 293.689 282.127 289.828C285.347 286.27 285.252 280.828 281.86 277.436Z" fill="white"/>
<path d="M183.621 227.048C170.506 227.048 159.841 216.379 159.841 203.267C159.841 190.152 170.506 179.487 183.621 179.487C196.733 179.487 207.402 190.152 207.402 203.267C207.402 216.379 196.733 227.048 183.621 227.048ZM183.621 161.193C160.419 161.193 141.547 180.068 141.547 203.267C141.547 226.467 160.419 245.342 183.621 245.342C206.821 245.342 225.692 226.467 225.692 203.267C225.692 180.068 206.821 161.193 183.621 161.193Z" fill="white"/>
</svg>
