<svg width="388" height="420" viewBox="0 0 388 420" fill="none" xmlns="http://www.w3.org/2000/svg">
<path d="M174.025 165.473L206.004 207.321C207.001 208.622 206.183 210.51 204.555 210.679L155.545 215.777C155.464 215.787 155.383 215.77 155.308 215.737L96.0416 186.733C95.8929 186.659 95.7983 186.51 95.7983 186.345V136.72L174.025 165.473Z" stroke="white" stroke-width="12.973" stroke-miterlimit="10"/>
<path d="M208.275 210.294L233.636 149.432C233.643 149.415 233.643 149.395 233.64 149.375L221.393 104.186C221.386 104.169 221.376 104.155 221.363 104.142L193.478 80.9019L178.677 112.192L174.025 165.473" stroke="white" stroke-width="12.973" stroke-miterlimit="10"/>
<path d="M176.353 126.78L116.944 110.081L125.609 150.554" stroke="white" stroke-width="12.973" stroke-miterlimit="10"/>
<path d="M183.752 102.777L151.616 85.9766L150.714 119.575" stroke="white" stroke-width="12.973" stroke-miterlimit="10"/>
<path d="M236.352 354.01L249.362 346.5L250.66 294.922L214.187 207.818L202.366 212.77L237.775 297.341L236.352 354.01Z" fill="white"/>
<path d="M202.535 248.017L218.386 250.46C219.481 250.628 220.346 249.551 219.944 248.52L214.133 233.571C213.731 232.541 212.366 232.328 211.674 233.189L201.633 245.699C200.941 246.561 201.441 247.848 202.535 248.017Z" fill="white"/>
<path d="M264.244 317.642L250.352 309.622C249.392 309.068 248.196 309.757 248.196 310.865V326.906C248.196 328.01 249.392 328.699 250.352 328.149L264.244 320.129C265.2 319.574 265.2 318.193 264.244 317.642Z" fill="white"/>
<path d="M186.284 290.666C186.237 290.696 186.197 290.733 186.149 290.767C186.193 290.733 186.237 290.696 186.284 290.666ZM195.984 287.885C195.892 287.875 195.798 287.865 195.707 287.858C195.801 287.865 195.892 287.875 195.984 287.885ZM208.852 298.199L195.588 267.365C195.21 266.483 194.142 266.483 193.764 267.365L180.497 298.206C179.44 300.716 178.842 303.547 178.842 306.547C178.842 316.892 185.93 325.277 194.676 325.277C203.423 325.277 210.511 316.892 210.511 306.547C210.511 303.547 209.913 300.713 208.852 298.199Z" fill="white"/>
</svg>
