<svg width="388" height="420" viewBox="0 0 388 420" fill="none" xmlns="http://www.w3.org/2000/svg">
<path d="M138.874 88.2197C134.55 88.2197 130.489 90.9495 129.026 95.2569L72.5028 261.541C70.665 266.946 73.5839 272.868 78.9893 274.706L245.273 331.23C246.368 331.601 247.486 331.781 248.591 331.781C252.915 331.781 256.976 329.051 258.439 324.743L314.962 158.46C316.8 153.054 313.881 147.132 308.476 145.294L142.192 88.7704C141.094 88.3988 139.979 88.2197 138.874 88.2197ZM143.175 107.375L296.358 159.443L244.29 312.625L91.1075 260.554L143.175 107.375Z" fill="white"/>
<path d="M183.918 133.557C180.736 133.557 177.587 135.006 175.56 137.746L119.317 213.655C115.918 218.243 116.891 224.773 121.479 228.172L197.388 284.415C199.236 285.783 201.398 286.442 203.547 286.442C206.729 286.442 209.878 284.993 211.908 282.253L268.148 206.344C271.547 201.756 270.574 195.223 265.986 191.827L190.077 135.584C188.229 134.216 186.067 133.557 183.918 133.557ZM183.918 143.071C184.199 143.071 184.361 143.189 184.412 143.229L260.324 199.469C260.506 199.604 260.614 199.797 260.652 200.04C260.689 200.283 260.638 200.5 260.503 200.679L204.263 276.591C204.037 276.898 203.685 276.929 203.547 276.929C203.266 276.929 203.104 276.811 203.054 276.77L127.141 220.53C126.959 220.395 126.851 220.202 126.814 219.959C126.777 219.716 126.827 219.5 126.962 219.321L183.202 143.408C183.429 143.101 183.78 143.071 183.918 143.071Z" fill="white"/>
<path d="M201.544 170.361C199.787 170.361 198.01 170.807 196.385 171.746L159.277 193.169C154.334 196.023 152.625 202.402 155.48 207.348L176.902 244.456C178.821 247.777 182.328 249.638 185.922 249.638C187.679 249.638 189.456 249.192 191.081 248.253L228.189 226.831C233.132 223.976 234.841 217.598 231.986 212.652L210.564 175.544C208.645 172.223 205.138 170.361 201.544 170.361ZM201.547 177.28C202.527 177.28 203.838 177.733 204.571 179.003L225.997 216.111C226.932 217.736 226.355 219.902 224.73 220.838L187.622 242.263C187.098 242.564 186.524 242.719 185.922 242.719C184.939 242.719 183.628 242.267 182.895 240.996L161.47 203.888C160.534 202.263 161.111 200.098 162.736 199.162L199.845 177.736C200.368 177.436 200.943 177.28 201.547 177.28Z" fill="white"/>
</svg>
