<svg width="388" height="420" viewBox="0 0 388 420" fill="none" xmlns="http://www.w3.org/2000/svg">
<path d="M155.184 197.892H148.893C145.771 197.892 144.437 199.558 144.437 201.291V219.081C144.437 222.203 147.109 222.973 149.042 222.973H155.035C157.663 222.973 158.275 221.808 158.275 219.132V201.291C158.275 199.01 158.011 197.892 155.184 197.892Z" fill="white"/>
<path d="M271.779 197.892H265.485C262.363 197.892 262.059 199.558 262.059 201.291V219.081C262.059 222.203 263.701 222.973 265.633 222.973H271.63C274.255 222.973 275.032 221.808 275.032 219.132V201.291C275.032 199.01 274.603 197.892 271.779 197.892Z" fill="white"/>
<path d="M123.721 197.892H117.427C114.305 197.892 113.302 199.558 113.302 201.291V219.081C113.302 222.203 115.643 222.973 117.576 222.973H123.572C126.197 222.973 126.275 221.808 126.275 219.132V201.291C126.275 199.01 126.545 197.892 123.721 197.892Z" fill="white"/>
<path d="M303.244 197.892H296.95C293.829 197.892 292.329 199.558 292.329 201.291V219.081C292.329 222.203 295.167 222.973 297.099 222.973H303.096C305.721 222.973 306.167 221.808 306.167 219.132V201.291C306.167 199.01 306.069 197.892 303.244 197.892Z" fill="white"/>
<path d="M312.221 219.825C312.221 225.673 309.488 228.162 304.187 228.162H296.059C290.903 228.162 287.14 225.771 287.14 219.825V200.794C287.14 195.048 290.856 191.838 296.109 191.838H304.234C310.677 191.838 312.221 196.037 312.221 200.598V219.825ZM281.086 219.825C281.086 225.673 278.022 228.162 272.721 228.162H264.592C259.44 228.162 255.14 225.771 255.14 219.825V200.794C255.14 195.048 259.39 191.838 264.643 191.838H272.768C279.211 191.838 281.086 196.037 281.086 200.598V219.825ZM249.086 203.372C249.086 207.037 247.846 209.419 245.518 210.311C247.947 211.5 249.086 213.879 249.086 217.642V220.021C249.086 225.622 246.309 228.693 240.265 228.693C234.616 228.693 229.461 229.139 225.099 227.605L225.299 223.838H238.677C241.751 223.838 243.032 222.946 243.032 219.429V217.345C243.032 214.027 240.995 213.183 238.123 213.085L227.464 212.689V208.129L238.072 207.635C241.491 207.436 243.032 206.345 243.032 203.571V201.193C243.032 198.22 241.552 197.892 238.974 197.892H224.005V193.362C229.194 191.825 234.339 191.875 240.136 191.973C245.589 192.075 249.086 195.494 249.086 200.497V203.372ZM164.329 219.825C164.329 225.673 161.43 228.162 156.126 228.162H147.998C142.846 228.162 139.248 225.771 139.248 219.825V200.794C139.248 195.048 142.795 191.838 148.049 191.838H156.177C162.62 191.838 164.329 196.037 164.329 200.598V219.825ZM132.329 219.825C132.329 225.673 129.964 228.162 124.663 228.162H116.535C111.38 228.162 106.383 225.771 106.383 219.825V200.794C106.383 195.048 111.332 191.838 116.586 191.838H124.711C131.153 191.838 132.329 196.037 132.329 200.598V219.825ZM101.194 203.372C101.194 207.037 99.954 209.419 97.6263 210.311C100.055 211.5 101.194 213.879 101.194 217.642V220.021C101.194 225.622 98.3357 228.693 92.2884 228.693C86.6398 228.693 81.4438 229.139 77.0824 227.605L77.2411 223.838H90.6195C93.6905 223.838 95.1398 222.946 95.1398 219.429V217.345C95.1398 214.027 93.1026 213.183 90.231 213.085L79.5722 212.689V208.129L90.6128 207.635C94.0317 207.436 96.0047 206.345 96.0047 203.571V201.193C96.0047 198.22 93.4945 197.892 90.9168 197.892H76.9776V193.362C81.302 191.825 86.8797 191.875 92.677 191.973C98.1297 192.075 101.194 195.494 101.194 200.497V203.372ZM328.444 198.757H323.447C317.944 171.946 294.792 152.629 267.065 152.629C237.255 152.629 212.731 175.105 209.748 204.129C209.643 204.122 209.545 203.946 209.44 203.946H178.028C177.924 203.946 177.826 203.896 177.721 203.899C174.738 174.875 150.214 152.662 120.403 152.662C92.6769 152.662 69.5249 171.946 64.0215 198.757H59.0249C52.4236 198.757 47.0688 203.396 47.0688 210C47.0688 216.605 52.4236 221.244 59.0249 221.244H64.0215C69.5249 248.054 92.6769 267.169 120.403 267.169C150.214 267.169 174.738 244.798 177.721 215.771C177.826 215.777 177.924 216.054 178.028 216.054H209.44C209.545 216.054 209.643 215.906 209.748 215.902C212.731 244.926 237.255 267.24 267.065 267.24C294.792 267.24 317.944 248.054 323.447 221.244H328.444C335.045 221.244 340.4 216.605 340.4 210C340.4 203.396 335.045 198.757 328.444 198.757Z" fill="white"/>
</svg>
