<svg width="388" height="420" viewBox="0 0 388 420" fill="none" xmlns="http://www.w3.org/2000/svg">
<path d="M167.787 178.615C138.976 178.615 115.534 202.057 115.534 230.868C115.534 259.682 138.976 283.122 167.787 283.122C196.601 283.122 220.04 259.682 220.04 230.868C220.04 202.057 196.601 178.615 167.787 178.615ZM167.787 299.466C129.963 299.466 99.1924 268.693 99.1924 230.868C99.1924 193.047 129.963 162.274 167.787 162.274C205.611 162.274 236.382 193.047 236.382 230.868C236.382 268.693 205.611 299.466 167.787 299.466Z" fill="white"/>
<path d="M203.084 117.108C203.084 117.108 245.267 146.422 260.284 100.666" stroke="white" stroke-width="10.3784" stroke-miterlimit="10" stroke-linecap="round" stroke-linejoin="round"/>
<path d="M220.76 172.811C220.76 172.811 242.682 137.49 195.74 137.571" stroke="white" stroke-width="10.3784" stroke-miterlimit="10" stroke-linecap="round" stroke-linejoin="round"/>
<path d="M272.71 169.899C272.71 169.899 242.676 136.561 238.598 193.5" stroke="white" stroke-width="10.3784" stroke-miterlimit="10" stroke-linecap="round" stroke-linejoin="round"/>
<path d="M277.567 117.47C277.567 117.47 254.827 153.379 301.841 155.189" stroke="white" stroke-width="10.3784" stroke-miterlimit="10" stroke-linecap="round" stroke-linejoin="round"/>
</svg>
