<svg width="388" height="420" viewBox="0 0 388 420" fill="none" xmlns="http://www.w3.org/2000/svg">
<path d="M180.804 142.26C199.128 125.382 224.935 105.101 241.929 93.8984C232.905 97.4424 224.189 101.3 214.814 106.338C190.479 119.422 166.76 135.091 152.402 148.615C153.3 145.993 154.672 142.76 156.8 139.311C159.196 135.432 161.794 132.507 163.935 130.425C150.827 138.834 124.969 156.635 106.094 191.773C89.3003 223.047 84.1044 257.314 83.6348 272.635C101.253 235.702 131.256 187.892 180.804 142.26Z" fill="white"/>
<path d="M180.804 142.26C199.128 125.382 224.935 105.101 241.929 93.8984C232.905 97.4424 224.189 101.3 214.814 106.338C190.479 119.422 166.76 135.091 152.402 148.615C153.3 145.993 154.672 142.76 156.8 139.311C159.196 135.432 161.794 132.507 163.935 130.425C150.827 138.834 124.969 156.635 106.094 191.773C89.3003 223.047 84.1044 257.314 83.6348 272.635C101.253 235.702 131.256 187.892 180.804 142.26Z" stroke="white" stroke-width="0.864865" stroke-miterlimit="10"/>
<path d="M148.084 271.095C150.763 268.193 153.705 264.561 156.519 260.132C158.506 257.01 160.09 254.02 161.361 251.291C152.107 259.47 141.891 267.912 130.685 276.409C119.658 284.763 108.942 292.203 98.7222 298.821C107.506 285.274 117.432 271.223 128.658 256.939C156.925 220.966 187.04 190.051 213.803 167.838C211.678 170.608 209.442 173.875 207.29 177.659C205.712 180.443 204.401 183.108 203.313 185.591C219.513 168.365 240.587 149.382 267.371 131.997C277.097 125.682 286.611 120.209 295.732 115.456C274.817 138.872 258.354 157.388 248.242 168.777C214.813 206.426 201.067 218.443 182.557 239.801C169.665 254.672 157.087 265.388 148.084 271.095Z" fill="white"/>
<path d="M148.084 271.095C150.763 268.193 153.705 264.561 156.519 260.132C158.506 257.01 160.09 254.02 161.361 251.291C152.107 259.47 141.891 267.912 130.685 276.409C119.658 284.763 108.942 292.203 98.7222 298.821C107.506 285.274 117.432 271.223 128.658 256.939C156.925 220.966 187.04 190.051 213.803 167.838C211.678 170.608 209.442 173.875 207.29 177.659C205.712 180.443 204.401 183.108 203.313 185.591C219.513 168.365 240.587 149.382 267.371 131.997C277.097 125.682 286.611 120.209 295.732 115.456C274.817 138.872 258.354 157.388 248.242 168.777C214.813 206.426 201.067 218.443 182.557 239.801C169.665 254.672 157.087 265.388 148.084 271.095Z" stroke="white" stroke-width="0.864865" stroke-miterlimit="10"/>
<path d="M259.851 220.088C276.895 201.919 297.412 176.301 308.774 159.409C305.145 168.399 301.21 177.081 296.081 186.409C282.777 210.622 266.892 234.199 253.237 248.432C255.865 247.554 259.112 246.213 262.581 244.115C266.48 241.757 269.429 239.186 271.53 237.064C263 250.094 244.966 275.787 209.655 294.338C178.23 310.848 143.916 315.726 128.588 316.057C165.682 298.78 213.767 269.213 259.851 220.088Z" fill="white"/>
<path d="M259.851 220.088C276.895 201.919 297.412 176.301 308.774 159.409C305.145 168.399 301.21 177.081 296.081 186.409C282.777 210.622 266.892 234.199 253.237 248.432C255.865 247.554 259.112 246.213 262.581 244.115C266.48 241.757 269.429 239.186 271.53 237.064C263 250.094 244.966 275.787 209.655 294.338C178.23 310.848 143.916 315.726 128.588 316.057C165.682 298.78 213.767 269.213 259.851 220.088Z" stroke="white" stroke-width="0.864865" stroke-miterlimit="10"/>
</svg>
