<svg width="388" height="420" viewBox="0 0 388 420" fill="none" xmlns="http://www.w3.org/2000/svg">
<path d="M111.948 186.241L86.5035 143.187C86.2144 142.698 86.649 142.1 87.2036 142.224L136.013 153.118C136.157 153.151 136.285 153.231 136.378 153.346L183.523 212.166C183.936 212.682 183.405 213.413 182.787 213.179L112.277 186.518C112.139 186.466 112.023 186.368 111.948 186.241Z" fill="white"/>
<path d="M275.529 186.241L300.973 143.187C301.262 142.698 300.828 142.1 300.273 142.224L251.464 153.118C251.32 153.151 251.191 153.231 251.099 153.346L203.954 212.166C203.541 212.682 204.072 213.413 204.69 213.179L275.2 186.518C275.338 186.466 275.454 186.368 275.529 186.241Z" fill="white"/>
<path d="M107.777 249.312L60.6109 232.686C60.0749 232.497 60.0234 231.76 60.5278 231.498L104.921 208.47C105.052 208.402 105.202 208.381 105.346 208.41L179.27 223.164C179.918 223.293 179.981 224.195 179.358 224.413L108.207 249.312C108.067 249.361 107.916 249.361 107.777 249.312Z" fill="white"/>
<path d="M279.7 249.312L326.866 232.686C327.402 232.497 327.454 231.76 326.949 231.498L282.556 208.47C282.425 208.402 282.275 208.381 282.131 208.41L208.207 223.164C207.559 223.293 207.496 224.195 208.119 224.413L279.27 249.312C279.41 249.361 279.561 249.361 279.7 249.312Z" fill="white"/>
<path d="M155.873 280.81L122.75 293.249C122.218 293.449 121.704 292.917 121.923 292.392L135.51 259.723C135.566 259.587 135.668 259.474 135.797 259.403L182.572 233.782C183.151 233.464 183.779 234.114 183.442 234.682L156.203 280.534C156.128 280.661 156.011 280.759 155.873 280.81Z" fill="white"/>
<path d="M231.787 280.81L264.911 293.249C265.443 293.449 265.956 292.917 265.738 292.392L252.151 259.723C252.094 259.587 251.993 259.474 251.863 259.403L205.089 233.782C204.509 233.464 203.882 234.114 204.219 234.682L231.457 280.534C231.533 280.661 231.649 280.759 231.787 280.81Z" fill="white"/>
</svg>
