<svg width="388" height="420" viewBox="0 0 388 420" fill="none" xmlns="http://www.w3.org/2000/svg">
<circle cx="105.79" cy="131.591" r="13.3051" fill="white"/>
<path fill-rule="evenodd" clip-rule="evenodd" d="M138.963 120.55C141.342 116.988 145.568 115.125 149.802 115.769C190.804 122.015 215.236 151.179 227.168 184.073C233.014 183.989 238.879 184.202 244.737 184.667C239.043 166.115 230.692 151.209 221.158 141.988C217.569 138.516 216.758 133.067 219.182 128.701C221.606 124.336 226.66 122.142 231.504 123.353C260.614 130.63 288.215 132.945 314.375 130.453C317.47 130.159 320.544 131.183 322.844 133.274C325.144 135.365 326.455 138.329 326.456 141.437C326.456 156.119 325.48 168.139 323.115 176.813C321.511 182.692 315.446 186.157 309.567 184.554C303.688 182.951 300.222 176.885 301.825 171.006C302.912 167.022 303.72 161.184 304.116 153.268C287.902 153.956 271.329 153.004 254.407 150.444C260.383 161.533 265.124 174.257 268.502 187.829C281.588 190.22 294.457 193.56 306.809 197.298C311.964 198.858 315.239 203.911 314.558 209.253C309.921 245.636 292.38 277.168 262.751 303.66C259.063 306.958 253.63 307.398 249.46 304.736C245.29 302.073 243.401 296.959 244.84 292.226C253.327 264.306 254.402 234.151 250.005 207.353C244.386 206.699 238.814 206.289 233.31 206.162C239.184 235.381 237.118 266.124 228.868 288.865C227.682 292.135 225.024 294.654 221.695 295.662C210.569 299.034 199.09 295.107 188.999 288.823C184.398 296.616 178.458 303.739 171.149 310.135C167.014 313.753 160.847 313.777 156.684 310.192C145.185 300.29 134.507 289.127 124.635 276.728C120.76 284.858 117.148 293.864 113.839 303.831C112.671 307.349 109.814 310.047 106.234 311.01C102.654 311.973 98.8291 311.075 96.0533 308.618C83.3207 297.346 75.787 279.258 71.8357 256.753C67.8449 234.023 67.2368 205.223 69.7296 170.656L69.7745 170.171C70.3538 165.187 74.2427 161.194 79.2559 160.516C84.4308 159.816 89.3881 162.84 91.1336 167.762C100.259 193.491 110.964 216.289 123.207 236.23C126.256 232.144 129.412 228.33 132.668 224.78C119.634 203.289 108.172 178.881 100.584 154.704C102.259 155.08 104.001 155.28 105.79 155.28C112.016 155.28 117.681 152.876 121.909 148.947C128.467 169.578 138.155 190.611 149.265 209.529C155.921 204.426 162.888 200.175 170.121 196.699C163.529 177.659 153.147 156.246 138.702 132.393C136.483 128.729 136.585 124.112 138.963 120.55ZM145.235 243.915C142.197 247.549 139.245 251.504 136.39 255.805C144.819 267.207 153.861 277.471 163.503 286.616C166.639 282.983 169.307 279.086 171.495 274.904C163.219 266.985 154.982 257.308 147.159 246.588C146.516 245.706 145.875 244.814 145.235 243.915ZM90.5792 222.916C91.0262 234.17 92.0305 244.169 93.5698 252.936C95.2889 262.727 97.6171 270.639 100.372 276.933C103.419 269.713 106.667 262.981 110.104 256.718C103.121 246.177 96.6145 234.907 90.5792 222.916ZM211.006 207.353C206.255 208.01 201.582 208.942 197.003 210.178C198.691 217.433 199.848 224.45 200.457 231.225C201.648 244.465 200.738 256.797 197.682 268.11C203.058 271.912 207.232 273.736 210.305 274.442C215.488 255.549 216.28 230.787 211.006 207.353ZM272.863 211.202C274.769 226.131 275.169 241.861 273.783 257.689C282.335 244.6 288.085 230.622 291.133 215.726C285.037 214.038 278.939 212.513 272.863 211.202ZM176.213 218.349C171.083 221.079 166.062 224.349 161.187 228.234C162.445 230.05 163.712 231.834 164.986 233.581C169.507 239.777 174.053 245.42 178.522 250.415C179.036 245.02 179.026 239.289 178.479 233.201C178.053 228.461 177.298 223.511 176.213 218.349ZM172.149 146.714C179.897 161.506 186.137 175.605 190.803 188.994C195.249 187.777 199.74 186.808 204.263 186.06C197.273 169.426 186.732 155.499 172.149 146.714ZM103.486 120.814C109.44 119.521 115.316 123.301 116.609 129.256C117.111 131.569 117.662 133.897 118.259 136.238C116.373 141.294 111.503 144.895 105.79 144.895L105.447 144.891C102.116 144.806 99.0908 143.497 96.8015 141.397C96.1683 138.901 95.5822 136.413 95.0447 133.937C93.7521 127.983 97.5309 122.107 103.486 120.814Z" fill="white"/>
</svg>
