<svg width="387" height="420" viewBox="0 0 387 420" fill="none" xmlns="http://www.w3.org/2000/svg">
<path d="M191.23 74.8169V108.817" stroke="white" stroke-width="11.14" stroke-linecap="round"/>
<path d="M310.231 142.614L279.595 160.301" stroke="white" stroke-width="11.14" stroke-linecap="round"/>
<path d="M73.0005 142.614L103.636 160.301" stroke="white" stroke-width="11.14" stroke-linecap="round"/>
<path d="M73.0005 275.582L103.636 257.895" stroke="white" stroke-width="11.14" stroke-linecap="round"/>
<path d="M310.231 275.582L279.595 257.895" stroke="white" stroke-width="11.14" stroke-linecap="round"/>
<path d="M252.001 320L242.001 301" stroke="white" stroke-width="11.14" stroke-linecap="round"/>
<path d="M253.889 187.147C265.043 216.657 253.306 249.204 227.496 265.258L210.629 234.099C209.481 231.979 206.832 231.191 204.712 232.338C202.592 233.486 201.805 236.135 202.952 238.255L219.79 269.36C218.579 269.903 217.345 270.415 216.087 270.891C182.523 283.577 145.029 266.652 132.343 233.088C119.657 199.524 136.582 162.031 170.146 149.345C203.71 136.659 241.202 153.583 253.889 187.147Z" fill="white"/>
</svg>
