<svg width="388" height="420" viewBox="0 0 388 420" fill="none" xmlns="http://www.w3.org/2000/svg">
<path d="M287.082 216.628C284.626 223.256 276.859 227.125 270.798 227.402C269.328 227.463 268.541 227.3 263.305 225.3C273.713 220.838 281.126 209.675 281.126 196.611C281.126 195.229 281.014 193.875 280.855 192.537C282.028 194.973 283.099 197.51 284.17 200.104C287.038 207.044 288.936 211.625 287.082 216.628ZM226.163 216.142C223.977 216.55 223.041 216.686 221.805 215.902C220.058 214.787 218.727 212.429 218.061 209.256C216.686 202.682 218.362 194.395 222.237 188.635C224.085 185.881 226.311 183.854 228.639 182.28C226.592 186.564 225.416 191.439 225.416 196.611C225.416 203.74 227.639 210.294 231.332 215.517C229.173 215.594 227.497 215.892 226.163 216.142ZM277.876 182.213C276.697 180.794 275.332 179.5 273.849 178.277C272.389 177.077 270.801 175.966 268.974 175.01C268.838 174.939 268.73 174.848 268.592 174.78C256.126 168.479 243.518 172.841 238.132 174.702C238.024 174.74 237.903 174.783 237.791 174.821C236.771 175.175 235.659 175.574 234.49 176.03C233.572 176.388 232.626 176.777 231.656 177.229C227.541 179.152 223.129 182.044 219.801 187C215.518 193.371 213.666 202.557 215.193 209.858C216.031 213.868 217.774 216.814 220.23 218.375C222.494 219.817 224.447 219.446 226.703 219.023C228.447 218.696 230.605 218.334 233.693 218.483C234.284 218.51 234.852 218.523 235.521 218.594C235.646 218.608 235.771 218.625 235.893 218.638C236.751 218.743 237.575 218.898 238.825 219.267C241.092 219.932 244.781 221.3 252.744 224.371L252.95 224.449L256.268 225.733L257.74 226.3C258.159 226.463 258.545 226.611 258.926 226.76C266.703 229.77 268.291 230.348 270.291 230.348C270.497 230.348 270.707 230.341 270.93 230.331C278.109 230.003 286.906 225.544 289.832 217.648C292.085 211.567 289.788 206.013 286.879 198.979C284.457 193.128 281.98 187.155 277.876 182.213Z" fill="white"/>
<path d="M153.66 206.878C152.292 206.8 151.379 206.442 150.511 205.908C156.846 200.26 160.91 191.625 160.91 181.952C160.91 179.101 160.531 176.354 159.873 173.733C162.025 177.689 163.011 181.655 163.883 185.233C165.623 192.365 166.876 197.517 164.092 201.658C161.876 204.949 157.569 207.091 153.66 206.878ZM101.91 195.652C97.3457 190.375 98.5619 182.496 99.295 179.354C100.765 173.064 105.14 167.314 111.015 163.196C107.386 168.398 105.2 174.892 105.2 181.952C105.2 188.976 107.363 195.439 110.961 200.625C108.285 199.973 104.542 198.696 101.91 195.652ZM166.525 203.297C170.031 198.081 168.575 192.104 166.734 184.537C165.606 179.905 164.325 174.652 160.646 169.385C159.2 167.314 157.369 165.28 155.231 163.402C153.69 162.04 151.981 160.77 150.133 159.621C146.836 157.567 143.096 155.925 139.035 154.942C137.812 154.604 136.562 154.351 135.275 154.223C132.623 153.875 129.869 153.81 127.038 154.104C125.778 154.236 124.535 154.459 123.305 154.723C121.285 155.155 119.312 155.75 117.406 156.5C107.042 160.577 98.6903 169.05 96.4403 178.685C95.6058 182.267 94.2477 191.273 99.6903 197.571C103.667 202.169 109.673 203.392 112.238 203.912C112.795 204.027 113.298 204.108 113.819 204.165C114.444 204.233 115.119 204.263 115.954 204.26C116.572 204.26 117.271 204.243 118.136 204.212C119.177 204.175 120.43 204.118 122.011 204.047L124.325 203.942C138.886 203.29 140.082 203.452 141.403 203.871C143.285 204.476 144.548 205.209 145.623 205.966C146.059 206.277 146.477 206.588 146.873 206.898C146.923 206.939 146.974 206.976 147.025 207.017C147.379 207.294 147.731 207.564 148.092 207.827C149.471 208.834 150.998 209.665 153.498 209.804C153.741 209.817 153.981 209.824 154.224 209.824C158.984 209.824 163.856 207.263 166.525 203.297Z" fill="white"/>
<path d="M295.426 137.007C294.896 136.395 293.967 136.331 293.359 136.865C283.072 145.831 271.393 152.642 258.653 157.112C249.356 160.372 239.622 162.321 229.727 162.895C228.923 162.943 228.305 163.639 228.352 164.446C228.396 165.223 229.041 165.824 229.815 165.824C229.842 165.824 229.869 165.824 229.9 165.821C240.068 165.23 250.068 163.23 259.622 159.878C272.717 155.287 284.714 148.287 295.285 139.074C295.896 138.544 295.96 137.618 295.426 137.007Z" fill="white"/>
<path d="M140.798 138.993C147.747 146.145 155.761 152.155 164.622 156.858C164.838 156.976 165.075 157.03 165.308 157.03C165.832 157.03 166.338 156.746 166.602 156.25C166.984 155.537 166.71 154.648 165.994 154.27C157.406 149.706 149.636 143.882 142.903 136.949C134.065 127.848 127.268 117.165 122.697 105.196C122.406 104.436 121.555 104.057 120.805 104.348C120.045 104.635 119.666 105.483 119.957 106.24C124.67 118.584 131.68 129.605 140.798 138.993Z" fill="white"/>
<path d="M241.623 271.618C239.889 280.818 232.112 291.922 223.126 298.024C206.187 309.53 186.224 303.061 180.504 300.804C176.302 299.145 165.133 294.736 160.802 284.027C159.46 280.709 157.666 273.706 160.467 270.963C161.156 270.291 161.974 270.037 163.166 270.037C164.237 270.037 165.609 270.243 167.457 270.544C169.319 270.845 171.43 271.182 173.994 271.378C186.731 272.338 201.67 268.905 212.957 262.389C214.511 261.49 215.761 260.669 216.873 259.932C219.41 258.264 221.089 257.159 224.163 256.706C229.771 255.882 237.359 257.615 240.335 261.949C241.93 264.277 242.379 267.622 241.623 271.618ZM223.737 253.804C220.018 254.355 217.916 255.736 215.261 257.486C214.19 258.193 212.987 258.986 211.487 259.851C200.687 266.088 186.393 269.382 174.217 268.456C171.775 268.27 169.731 267.936 167.927 267.645C163.808 266.983 160.835 266.507 158.42 268.868C153.707 273.473 157.315 283.22 158.085 285.125C162.886 297.003 175.335 301.916 179.43 303.534C182.812 304.868 190.9 307.591 200.545 307.591C208.17 307.591 216.771 305.885 224.775 300.449C234.498 293.848 242.612 282.216 244.508 272.162C245.406 267.378 244.802 263.274 242.751 260.291C238.95 254.753 230.305 252.838 223.737 253.804Z" fill="white"/>
</svg>
