<svg width="388" height="420" viewBox="0 0 388 420" fill="none" xmlns="http://www.w3.org/2000/svg">
<path d="M167.3 161.656C163.172 161.656 159.624 158.537 159.185 154.341C158.712 149.852 161.966 145.831 166.456 145.358C167.635 145.233 168.837 145.139 170.026 145.075C174.52 144.845 178.381 148.294 178.621 152.798C178.861 157.304 175.405 161.152 170.898 161.392C169.986 161.443 169.067 161.517 168.165 161.608C167.874 161.642 167.587 161.656 167.3 161.656ZM143.442 169.446C140.624 169.446 137.885 167.987 136.368 165.372C134.104 161.47 135.432 156.47 139.337 154.206C140.371 153.605 141.429 153.027 142.486 152.487C146.503 150.429 151.425 152.021 153.483 156.037C155.54 160.054 153.949 164.977 149.932 167.034C149.128 167.443 148.32 167.885 147.533 168.341C146.246 169.088 144.834 169.446 143.442 169.446ZM124.78 186.281C123.118 186.281 121.435 185.774 119.986 184.723C116.337 182.071 115.527 176.96 118.179 173.311C118.878 172.341 119.614 171.382 120.364 170.46C123.202 166.95 128.347 166.409 131.854 169.247C135.364 172.088 135.905 177.233 133.064 180.74C132.496 181.443 131.935 182.176 131.401 182.912C129.8 185.112 127.31 186.281 124.78 186.281ZM114.597 209.24C114.04 209.24 113.472 209.183 112.908 209.064C108.493 208.135 105.662 203.801 106.591 199.385C106.837 198.216 107.118 197.037 107.425 195.885C108.587 191.524 113.067 188.936 117.425 190.095C121.787 191.257 124.378 195.737 123.216 200.095C122.983 200.97 122.77 201.862 122.584 202.75C121.776 206.598 118.378 209.24 114.597 209.24ZM114.604 234.362C110.827 234.362 107.435 231.73 106.621 227.885C106.371 226.716 106.152 225.527 105.966 224.348C105.263 219.892 108.307 215.71 112.767 215.007C117.223 214.308 121.405 217.352 122.108 221.808C122.25 222.7 122.415 223.602 122.604 224.49C123.544 228.902 120.726 233.243 116.31 234.179C115.74 234.301 115.165 234.362 114.604 234.362ZM124.858 257.294C122.337 257.294 119.848 256.129 118.25 253.936C117.55 252.977 116.868 251.987 116.216 250.987C113.75 247.206 114.814 242.142 118.594 239.679C122.371 237.213 127.435 238.277 129.902 242.058C130.402 242.821 130.922 243.581 131.456 244.311C134.115 247.956 133.31 253.068 129.665 255.727C128.212 256.784 126.527 257.294 124.858 257.294ZM143.523 274.102C142.138 274.102 140.733 273.747 139.442 273.004C138.408 272.406 137.378 271.774 136.381 271.125C132.598 268.666 131.523 263.605 133.983 259.821C136.442 256.037 141.5 254.963 145.283 257.423C146.047 257.916 146.831 258.399 147.621 258.855C151.527 261.112 152.865 266.108 150.608 270.017C149.094 272.635 146.348 274.102 143.523 274.102ZM167.439 281.845C167.158 281.845 166.875 281.831 166.587 281.801C165.402 281.679 164.202 281.524 163.027 281.338C158.567 280.639 155.52 276.46 156.219 272C156.919 267.544 161.098 264.493 165.557 265.193C166.452 265.335 167.365 265.453 168.267 265.544C172.756 266.01 176.02 270.024 175.557 274.514C175.121 278.716 171.574 281.845 167.439 281.845Z" fill="white"/>
<path d="M223.668 161.318C194.858 161.318 171.415 184.76 171.415 213.571C171.415 242.385 194.858 265.825 223.668 265.825C252.483 265.825 275.922 242.385 275.922 213.571C275.922 184.76 252.483 161.318 223.668 161.318ZM223.668 282.169C185.844 282.169 155.074 251.395 155.074 213.571C155.074 175.75 185.844 144.977 223.668 144.977C261.493 144.977 292.263 175.75 292.263 213.571C292.263 251.395 261.493 282.169 223.668 282.169Z" fill="white"/>
</svg>
