<svg width="388" height="420" viewBox="0 0 388 420" fill="none" xmlns="http://www.w3.org/2000/svg">
<path d="M111.45 271.78C111.45 271.78 143.477 258.233 144.706 217.997C145.94 177.76 151.69 148.196 151.69 148.196C151.69 148.196 157.436 121.919 191.105 119.868C224.771 117.814 236.679 131.365 236.679 131.365C236.679 131.365 249.406 140.395 249.815 161.747C250.227 183.098 253.923 270.959 246.122 287.794C238.321 304.628 221.075 314.071 221.075 314.071C221.075 314.071 223.95 298.263 221.487 285.638C219.024 273.013 205.473 289.436 205.473 289.436C205.473 289.436 193.977 304.216 186.588 305.449C179.196 306.682 190.693 273.422 188.639 269.73C186.588 266.034 159.49 297.236 151.69 296.828C143.889 296.416 161.541 269.986 158.669 267.395C155.794 264.801 127.875 293.953 111.45 271.78Z" fill="white"/>
<path d="M176.304 193.689H224.365C225.571 193.689 225.99 195.25 224.939 195.824C216.598 200.371 195.021 209.54 175.629 195.763C174.71 195.111 175.169 193.689 176.304 193.689Z" fill="#593CA9"/>
<path d="M171.145 165.716L194.122 177.645C195.105 178.155 195.057 179.949 194.047 180.358C188.257 182.713 174.916 185.821 169.645 167.574C169.304 166.385 170.22 165.236 171.145 165.716Z" fill="#593CA9"/>
<path d="M229.534 165.716L206.554 177.645C205.575 178.155 205.619 179.949 206.629 180.358C212.423 182.713 225.764 185.821 231.031 167.574C231.375 166.385 230.456 165.236 229.534 165.716Z" fill="#593CA9"/>
</svg>
