<svg width="388" height="420" viewBox="0 0 388 420" fill="none" xmlns="http://www.w3.org/2000/svg">
<path d="M280.783 226.118V232.592H272.615V226.118H270.315V218.412H272.615V212.561L262.231 218.412H259.93L246.253 226.118H248.553L237.063 232.593V226.118H234.763V218.412H237.063V192.529L272.615 212.561V192.529H280.783V218.412H278.482V226.118H280.783ZM122.632 199.574H126.722V192.529L139.226 199.574H135.136L148.814 207.281H152.904L162.274 212.561V207.281H158.185V199.574H162.274V192.529H170.442V199.574H166.352V207.281H170.442V232.592H162.274V212.561L126.722 232.593V207.281H122.632V199.574ZM181.672 207.281H177.582V199.575H181.672V207.281ZM303.163 172.031V137.78L242.375 172.031H232.019L217.328 180.308H227.684L192.823 199.95V162.612H180.839V154.335H192.823V137.78L163.442 154.335H151.457L136.767 162.612H148.751L83.1502 199.574H79.0604L65.3827 207.281H69.4726L60.1016 212.561L110.252 240.817H116.91L144.264 256.23H137.606L192.823 287.342V256.23H199.48V240.817H192.823V225.171L232.244 247.382H225.015L273.139 274.498H280.368L303.163 287.342V274.498H295.935V247.382H303.163V226.118H300.863V218.412H303.163V180.308H292.807V172.031H303.163Z" fill="white"/>
</svg>
