<svg width="388" height="420" viewBox="0 0 388 420" fill="none" xmlns="http://www.w3.org/2000/svg">
<path d="M231.953 164.335L213.132 126.308L213.284 88.6691C213.305 83.1252 208.828 78.6117 203.281 78.588L183.376 78.5103C177.828 78.4867 173.315 82.9631 173.295 88.5103L173.143 126.149L154.014 164.02L181.676 164.132C181.666 170.365 186.7 175.433 192.936 175.46C199.176 175.483 204.251 170.456 204.291 164.223L231.953 164.335Z" fill="white"/>
<path d="M156.376 171.304C154.153 170.379 151.599 171.433 150.673 173.656L100.659 293.429C100.433 293.977 100.325 294.544 100.325 295.105C100.322 296.811 101.332 298.436 103.007 299.132C105.234 300.061 107.788 299.007 108.713 296.784L158.724 177.01C159.649 174.784 158.599 172.233 156.376 171.304Z" fill="white"/>
<path d="M286.001 293.429L235.987 173.656C235.061 171.433 232.507 170.379 230.284 171.304C228.061 172.233 227.011 174.784 227.936 177.01L277.947 296.784C278.872 299.007 281.426 300.061 283.649 299.132C285.325 298.436 286.335 296.811 286.335 295.105C286.335 294.544 286.227 293.977 286.001 293.429Z" fill="white"/>
<path d="M137.936 265.612C137.824 265.949 137.713 266.284 137.605 266.622C136.085 271.409 138.73 276.52 143.514 278.041C144.429 278.335 145.358 278.47 146.274 278.47C150.125 278.47 153.703 276 154.933 272.135C155.01 271.892 155.091 271.649 155.169 271.409C156.77 266.652 154.21 261.497 149.453 259.895C144.689 258.291 139.537 260.855 137.936 265.612Z" fill="white"/>
<path d="M187.501 226.385C187.142 226.419 186.788 226.456 186.433 226.493C181.443 227.054 177.852 231.551 178.409 236.541C178.933 241.189 182.869 244.622 187.433 244.622C187.771 244.622 188.115 244.602 188.46 244.564C188.707 244.537 188.95 244.51 189.2 244.487C194.196 244.017 197.872 239.585 197.403 234.588C196.933 229.588 192.507 225.919 187.501 226.385Z" fill="white"/>
<path d="M209.295 320.666C209.072 320.764 208.852 320.862 208.629 320.956C204.007 322.919 201.852 328.257 203.815 332.879C205.288 336.338 208.649 338.416 212.187 338.416C213.372 338.416 214.578 338.183 215.741 337.689C216.072 337.548 216.403 337.402 216.734 337.257C221.315 335.203 223.362 329.821 221.308 325.24C219.254 320.659 213.879 318.612 209.295 320.666Z" fill="white"/>
<path d="M219.842 232.7C219.517 232.531 219.196 232.365 218.869 232.203C214.375 229.963 208.916 231.791 206.68 236.284C204.44 240.777 206.267 246.237 210.761 248.477C210.98 248.585 211.196 248.696 211.413 248.811C212.757 249.514 214.2 249.848 215.619 249.848C218.896 249.848 222.058 248.071 223.683 244.97C226.011 240.521 224.291 235.027 219.842 232.7Z" fill="white"/>
<path d="M186.859 323.669C186.612 323.632 186.369 323.591 186.126 323.551C181.17 322.699 176.474 326.017 175.619 330.963C174.764 335.909 178.085 340.615 183.031 341.466C183.386 341.527 183.737 341.588 184.092 341.642C184.562 341.713 185.028 341.747 185.487 341.747C189.896 341.747 193.771 338.53 194.46 334.037C195.224 329.074 191.822 324.432 186.859 323.669Z" fill="white"/>
<path d="M239.064 303.247C234.855 300.51 229.223 301.71 226.49 305.923C226.355 306.132 226.216 306.338 226.078 306.544C223.267 310.706 224.365 316.358 228.527 319.166C230.085 320.22 231.855 320.723 233.605 320.723C236.524 320.723 239.392 319.318 241.149 316.716C241.348 316.419 241.544 316.122 241.74 315.821C244.473 311.612 243.277 305.98 239.064 303.247Z" fill="white"/>
<path d="M166.406 314C166.217 313.831 166.035 313.666 165.849 313.493C162.163 310.085 156.41 310.311 153.004 314C149.595 317.686 149.822 323.439 153.508 326.848C153.771 327.088 154.035 327.328 154.301 327.564C156.035 329.112 158.197 329.872 160.349 329.872C162.849 329.872 165.339 328.848 167.136 326.835C170.481 323.088 170.153 317.341 166.406 314Z" fill="white"/>
<path d="M227.716 264.541C229.392 267.494 232.466 269.149 235.632 269.149C237.152 269.149 238.693 268.767 240.112 267.96C244.476 265.483 246.007 259.936 243.531 255.568C243.348 255.25 243.166 254.936 242.98 254.622C240.412 250.308 234.838 248.889 230.52 251.456C226.203 254.024 224.787 259.605 227.355 263.919C227.476 264.125 227.598 264.335 227.716 264.541Z" fill="white"/>
<path d="M154.473 294.767C154.413 294.537 154.352 294.304 154.294 294.075C153.071 289.203 148.132 286.25 143.264 287.466C138.392 288.689 135.436 293.625 136.659 298.497C136.747 298.855 136.842 299.21 136.936 299.564C138.041 303.605 141.703 306.257 145.7 306.257C146.494 306.257 147.301 306.152 148.105 305.933C152.946 304.608 155.801 299.608 154.473 294.767Z" fill="white"/>
<path d="M156.919 238.676C156.639 238.899 156.362 239.122 156.085 239.352C152.206 242.541 151.652 248.271 154.845 252.149C156.642 254.331 159.243 255.46 161.868 255.46C163.902 255.46 165.949 254.781 167.639 253.389C167.831 253.23 168.024 253.078 168.216 252.923C172.152 249.804 172.811 244.085 169.693 240.149C166.574 236.216 160.855 235.554 156.919 238.676Z" fill="white"/>
<path d="M241.987 275.132C236.967 275.132 232.896 279.203 232.896 284.223C232.896 284.473 232.892 284.723 232.889 284.973C232.801 289.993 236.798 294.135 241.818 294.223C241.875 294.223 241.926 294.223 241.983 294.223C246.929 294.223 250.98 290.257 251.068 285.294C251.075 284.936 251.078 284.581 251.078 284.223C251.078 279.203 247.007 275.132 241.987 275.132Z" fill="white"/>
</svg>
