<svg width="388" height="420" viewBox="0 0 388 420" fill="none" xmlns="http://www.w3.org/2000/svg">
<path d="M190.926 309.932C134 309.932 87.8516 263.784 87.8516 206.855C87.8516 149.929 134 103.78 190.926 103.78C247.855 103.78 294.004 149.929 294.004 206.855C294.004 230.726 285.889 252.696 272.271 270.169C268.662 266.493 263.642 264.209 258.085 264.209C247.112 264.209 238.213 273.105 238.213 284.078C238.213 288.645 239.76 292.851 242.352 296.209C227.217 304.939 209.656 309.932 190.926 309.932ZM301.48 210C301.48 150.493 253.24 102.25 193.733 102.25C134.227 102.25 85.9834 150.493 85.9834 210C85.9834 269.507 134.227 317.747 193.733 317.747C214.23 317.747 233.385 312.027 249.7 302.091C252.247 303.28 255.088 303.946 258.085 303.946C269.058 303.946 277.953 295.051 277.953 284.078C277.953 282.057 277.649 280.111 277.088 278.274C292.331 259.686 301.48 235.912 301.48 210Z" fill="white"/>
</svg>
