<svg width="388" height="420" viewBox="0 0 388 420" fill="none" xmlns="http://www.w3.org/2000/svg">
<path d="M221.08 96.0068H166.384C162.894 96.0068 160.036 98.8616 160.036 102.355V116.189C160.036 119.679 162.894 122.537 166.384 122.537H171.147C173.34 120.537 176.498 119.27 180.022 119.27C183.549 119.27 186.708 120.537 188.901 122.537H199.83C202.026 120.537 205.184 119.27 208.708 119.27C212.235 119.27 215.394 120.537 217.586 122.537H221.08C224.573 122.537 227.428 119.679 227.428 116.189V102.355C227.428 98.8616 224.573 96.0068 221.08 96.0068Z" stroke="white" stroke-width="6.91892" stroke-miterlimit="10"/>
<path d="M278.776 227.78C278.776 274.75 240.702 312.824 193.732 312.824C146.763 312.824 108.688 274.75 108.688 227.78C108.688 180.811 146.763 142.733 193.732 142.733C240.702 142.733 278.776 180.811 278.776 227.78Z" stroke="white" stroke-width="14.7027" stroke-miterlimit="10"/>
<path d="M203.158 227.78C203.158 232.986 198.939 237.206 193.733 237.206C188.527 237.206 184.307 232.986 184.307 227.78C184.307 222.574 188.527 218.354 193.733 218.354C198.939 218.354 203.158 222.574 203.158 227.78Z" stroke="white" stroke-width="6.05405" stroke-miterlimit="10"/>
<path d="M143.475 188.639C151.181 192.939 159.408 197.966 166.844 202.767C168.746 204.007 170.762 205.091 172.725 206.25C176.715 208.568 179.901 211.848 182.742 215.487C184.158 217.355 185.489 219.338 186.526 221.699L185.999 222.385C179.043 221.061 172.587 217.852 167.509 213.041C164.762 210.183 160.583 206.348 157.604 203.659C152.796 199.105 147.533 194.078 142.948 189.324L143.475 188.639Z" fill="white"/>
<path d="M182.299 288.304C145.498 278.45 128.725 239.45 140.265 204.348C140.846 202.524 142.799 201.517 144.623 202.102C146.522 202.703 147.522 204.828 146.782 206.676C143.776 214.244 142.1 222.396 141.985 230.622C141.34 256.561 157.546 280.014 182.299 288.304Z" fill="white"/>
<path d="M164.305 269.865C150.589 259.842 145.619 233.781 151.626 218.217C152.339 216.439 154.359 215.578 156.139 216.291C158.089 217.054 158.906 219.45 157.845 221.25C155.974 224.524 154.872 228.757 154.308 232.977C152.815 245.662 154.775 260.49 164.305 269.865Z" fill="white"/>
<path d="M192.01 129.169C192.01 134.635 186.645 139.068 180.023 139.068C173.405 139.068 168.04 134.635 168.04 129.169C168.04 123.703 173.405 119.27 180.023 119.27C186.645 119.27 192.01 123.703 192.01 129.169Z" stroke="white" stroke-width="8.64865" stroke-miterlimit="10"/>
<path d="M220.695 129.169C220.695 134.635 215.326 139.068 208.708 139.068C202.09 139.068 196.725 134.635 196.725 129.169C196.725 123.703 202.09 119.27 208.708 119.27C215.326 119.27 220.695 123.703 220.695 129.169Z" stroke="white" stroke-width="8.64865" stroke-miterlimit="10"/>
<path d="M126.608 151.253C122.517 145.753 115.899 142.811 109.044 143.446L100.193 144.264L106.244 141.247C113.885 137.436 117.402 128.297 114.264 120.426L114.946 120.588C126.592 123.362 138.801 117.831 144.75 107.088C147.5 116.774 155.889 123.598 165.848 124.25L167.034 124.328L164.994 125.324C157.625 128.916 152.176 135.666 150.179 143.682C142.2 141.527 133.598 143.98 127.733 150.084L126.608 151.253Z" stroke="white" stroke-width="4.32432" stroke-miterlimit="10" stroke-linecap="round"/>
<path d="M166.834 124.696C160.26 126.115 153.746 127.007 147.246 128.561C140.733 130.01 134.425 131.858 127.936 133.578C139.311 126.223 153.415 123.23 166.834 124.696Z" fill="white"/>
<path d="M260.857 151.253C264.948 145.753 271.566 142.811 278.421 143.446L287.272 144.264L281.222 141.247C273.58 137.436 270.063 128.297 273.201 120.426L272.519 120.588C260.874 123.362 248.664 117.831 242.715 107.088C239.965 116.774 231.576 123.598 221.617 124.25L220.431 124.328L222.472 125.324C229.84 128.916 235.289 135.666 237.286 143.682C245.266 141.527 253.867 143.98 259.732 150.084L260.857 151.253Z" stroke="white" stroke-width="4.32432" stroke-miterlimit="10" stroke-linecap="round"/>
<path d="M220.631 124.696C234.05 123.23 248.155 126.223 259.53 133.578C253.04 131.858 246.733 130.01 240.219 128.561C233.719 127.007 227.209 126.115 220.631 124.696Z" fill="white"/>
</svg>
