<svg width="388" height="420" viewBox="0 0 388 420" fill="none" xmlns="http://www.w3.org/2000/svg">
<path d="M193.47 300.439C231.281 275.767 289.582 265.311 334.717 275.686V276.524L325.7 276.73C292.67 277.774 259.801 282.5 228.024 290.828C216.463 293.851 205.129 297.49 193.788 301.226L193.47 300.439Z" fill="white"/>
<path d="M204.791 290.422C235.95 267.155 283.818 256.23 323.207 263.959L323.217 264.632L315.565 264.936C287.541 266.348 259.761 271.48 233.362 280.216C223.75 283.378 214.419 287.152 205.098 291.03L204.791 290.422Z" fill="white"/>
<path d="M204.754 285.365C231.021 259.916 275.319 245.135 313.312 249.72L313.393 250.385L306.207 251.297C279.937 254.919 254.288 262.223 230.454 272.98C221.771 276.882 213.444 281.358 205.136 285.936L204.754 285.365Z" fill="white"/>
<path d="M202.879 281.162C223.825 255.267 263.433 235.943 298.677 234.872L298.886 235.513L292.437 237.459C268.873 244.804 246.319 254.818 225.45 267.253C217.859 271.774 210.582 276.696 203.325 281.693L202.879 281.162Z" fill="white"/>
<path d="M199.93 278.209C214.724 250.919 249.025 227.584 281.974 222.888L282.278 223.5L276.542 226.081C255.633 235.746 236.126 247.922 218.697 262.256C212.356 267.473 206.396 273.037 200.464 278.672L199.93 278.209Z" fill="white"/>
<path d="M191.964 300.439C154.153 275.767 95.8558 265.311 50.7207 275.686V276.524L59.7376 276.73C92.7646 277.774 125.636 282.5 157.413 290.828C168.974 293.851 180.309 297.49 191.646 301.226L191.964 300.439Z" fill="white"/>
<path d="M180.646 290.422C149.487 267.155 101.619 256.23 62.2303 263.959L62.2168 264.632L69.8688 264.936C97.8925 266.348 125.673 271.48 152.075 280.216C161.683 283.378 171.017 287.152 180.335 291.03L180.646 290.422Z" fill="white"/>
<path d="M180.683 285.365C154.416 259.916 110.116 245.135 72.126 249.72L72.0449 250.385L79.2273 251.297C105.501 254.919 131.146 262.223 154.984 272.98C163.667 276.882 171.994 281.358 180.298 285.936L180.683 285.365Z" fill="white"/>
<path d="M182.558 281.162C161.609 255.267 122.004 235.943 86.7612 234.872L86.5483 235.513L93.001 237.459C116.565 244.804 139.119 254.818 159.988 267.253C167.579 271.774 174.852 276.696 182.113 281.693L182.558 281.162Z" fill="white"/>
<path d="M185.505 278.209C170.714 250.919 136.414 227.584 103.464 222.888L103.16 223.5L108.897 226.081C129.805 235.746 149.312 247.922 166.738 262.256C173.079 267.473 179.042 273.037 184.974 278.672L185.505 278.209Z" fill="white"/>
<path d="M192.717 280.976C186.629 280.976 181.484 284.622 181.484 288.939C181.484 293.257 186.629 296.902 192.717 296.902C198.808 296.902 203.953 293.257 203.953 288.939C203.953 284.622 198.808 280.976 192.717 280.976ZM192.717 305.551C181.754 305.551 172.835 298.101 172.835 288.939C172.835 279.777 181.754 272.328 192.717 272.328C203.68 272.328 212.602 279.777 212.602 288.939C212.602 298.101 203.68 305.551 192.717 305.551Z" fill="white"/>
<path d="M207.143 229.703C204.065 229.703 201.572 225.098 201.572 219.419C201.572 213.74 204.065 209.135 207.143 209.135C210.217 209.135 212.71 213.74 212.71 219.419C212.71 225.098 210.217 229.703 207.143 229.703ZM198.991 235.382L194.284 240.368C193.433 241.267 192.001 241.267 191.153 240.368L186.443 235.382C185.251 234.115 186.149 232.034 187.889 232.034H197.548C199.288 232.034 200.186 234.115 198.991 235.382ZM178.295 229.703C175.22 229.703 172.724 225.098 172.724 219.419C172.724 213.74 175.22 209.135 178.295 209.135C181.372 209.135 183.866 213.74 183.866 219.419C183.866 225.098 181.372 229.703 178.295 229.703ZM254.869 216.838C253.102 203.807 245.166 192.273 233.463 184.165C232.69 183.632 232.447 182.574 232.933 181.75L233.693 180.459C245.484 160.449 250.214 135.905 246.896 111.929L245.879 107.145C244.227 99.3546 236.281 96.0843 230.805 100.936L228.055 103.371C214.619 117.77 206.578 137.757 205.673 159.013L205.173 170.703C205.122 171.905 204.092 172.821 202.933 172.665C199.609 172.226 196.197 171.993 192.717 171.993C189.237 171.993 185.825 172.226 182.501 172.665C181.345 172.821 180.315 171.905 180.264 170.703L179.764 159.013C178.855 137.757 170.815 117.77 157.382 103.371L154.629 100.936C149.153 96.0843 141.207 99.3546 139.555 107.145L138.541 111.929C135.224 135.905 139.95 160.449 151.744 180.459L152.504 181.75C152.987 182.574 152.744 183.632 151.974 184.165C140.271 192.273 132.332 203.807 130.568 216.838C130.349 218.456 131.241 220.034 132.713 220.645C147.382 226.736 161.393 235.909 172.866 246.912C184.089 257.679 201.349 257.679 212.572 246.912C224.045 235.909 238.051 226.736 252.724 220.645C254.193 220.034 255.089 218.456 254.869 216.838Z" fill="white"/>
</svg>
