<svg width="388" height="420" viewBox="0 0 388 420" fill="none" xmlns="http://www.w3.org/2000/svg">
<g clip-path="url(#clip0_2011_96309)">
<mask id="mask0_2011_96309" style="mask-type:luminance" maskUnits="userSpaceOnUse" x="-34" y="-17" width="455" height="454">
<path d="M-33.0449 -16.8517H420.516V436.852H-33.0449V-16.8517Z" fill="white"/>
</mask>
<g mask="url(#mask0_2011_96309)">
<path d="M203.572 103.805L229.73 129.629L211.027 118.394L210.714 136.618L198.033 122.158L184.304 137.296L186.563 127.115L176.862 130.173L203.572 103.805ZM140.242 195.367L163.111 159.605L144.585 195.367H151.816L155.819 186.199L152.774 195.367H185.548L194.078 187.195C195.899 185.272 196.725 182.571 196.286 179.956L192.546 157.616L207.842 180.579C210.791 185.006 212.511 190.087 212.871 195.367H246.695L238.84 174.379L248.954 195.367H265.956L245.825 163.172L270.286 195.367H302.922L203.572 97.2903L145.562 154.556L153.933 144.971L154.05 137.133L132.757 149.011L153.006 127.115L161.503 136.302L164.094 133.336L153.006 121.348L84.5479 195.367H101.409L127.364 172.521L104.221 195.367H140.242Z" fill="white"/>
</g>
<mask id="mask1_2011_96309" style="mask-type:luminance" maskUnits="userSpaceOnUse" x="-34" y="-17" width="455" height="454">
<path d="M-33.0449 -16.8517H420.516V436.852H-33.0449V-16.8517Z" fill="white"/>
</mask>
<g mask="url(#mask1_2011_96309)">
<path d="M214.987 307.287C210.949 308.22 206.149 302.367 204.267 294.214C203.491 290.853 203.341 287.633 203.705 284.935L215.33 282.249C216.84 284.515 218.116 287.474 218.893 290.836C220.775 298.989 219.026 306.355 214.987 307.287ZM206.263 269.492C209.014 268.857 211.882 271.103 212.669 274.51C212.942 275.698 212.922 276.867 212.669 277.916L204.198 279.874C203.511 279.041 202.98 277.999 202.706 276.811C201.92 273.404 203.512 270.128 206.263 269.492ZM198.316 251.23C195.721 251.105 193.823 246.756 194.076 241.518C194.181 239.358 194.638 237.391 195.318 235.825L202.787 236.186C203.312 237.81 203.578 239.812 203.474 241.972C203.221 247.211 200.911 251.356 198.316 251.23ZM199.49 226.946C201.258 227.032 202.605 228.875 202.499 231.064C202.462 231.827 202.251 232.529 201.92 233.119L196.477 232.855C196.204 232.237 196.061 231.518 196.098 230.755C196.204 228.566 197.723 226.86 199.49 226.946ZM197.386 208.86C197.483 207.818 197.748 206.876 198.11 206.134L201.715 206.471C201.933 207.267 202.019 208.241 201.921 209.284C201.685 211.812 200.479 213.767 199.226 213.649C197.973 213.533 197.15 211.388 197.386 208.86ZM200.321 201.93C201.174 202.01 201.786 202.931 201.687 203.987C201.653 204.355 201.535 204.69 201.362 204.969L198.735 204.723C198.617 204.417 198.563 204.066 198.598 203.698C198.696 202.642 199.468 201.851 200.321 201.93ZM188.771 214.632C188.6 215.199 188.308 215.688 187.947 216.07L183.899 214.847C183.81 214.33 183.838 213.761 184.009 213.193C184.5 211.565 185.965 210.567 187.28 210.964C188.594 211.362 189.262 213.003 188.771 214.632ZM187.452 223.029C186.276 226.925 183.757 229.612 181.827 229.029C179.896 228.445 179.286 224.814 180.461 220.917C180.946 219.311 181.661 217.915 182.467 216.864L188.023 218.543C188.114 219.864 187.937 221.422 187.452 223.029ZM179.845 285.169C176.228 285.453 172.832 279.765 172.259 272.465C172.023 269.454 172.309 266.649 172.975 264.361L183.384 263.543C184.398 265.699 185.12 268.426 185.356 271.436C185.929 278.737 183.462 284.885 179.845 285.169ZM177.188 251.327C179.652 251.133 181.843 253.448 182.082 256.499C182.166 257.563 181.997 258.572 181.642 259.448L174.056 260.044C173.57 259.234 173.245 258.264 173.161 257.2C172.922 254.149 174.725 251.52 177.188 251.327ZM237.855 255.35L218.414 231.468C212.986 224.799 209.977 216.488 209.877 207.889L209.754 197.139C209.693 191.871 208.107 186.733 205.186 182.348L198.155 171.795L199.434 179.428C200.045 183.072 198.896 186.789 196.337 189.451L171.057 213.67C170.552 214.154 170.052 214.643 169.559 215.138C154.516 230.189 145.677 250.348 144.148 271.575L141.708 305.463L178.068 326.462C181.73 328.576 187.587 329.837 193.737 329.837C199.888 329.837 205.746 328.576 209.406 326.462L263.08 295.463C257.59 285.296 248.942 270.479 237.855 255.35Z" fill="white"/>
</g>
</g>
<defs>
<clipPath id="clip0_2011_96309">
<rect width="387.47" height="420" fill="white"/>
</clipPath>
</defs>
</svg>
