<svg width="388" height="420" viewBox="0 0 388 420" fill="none" xmlns="http://www.w3.org/2000/svg">
<path d="M119.623 121.156C120.668 118.33 124.664 118.33 125.71 121.156L139.678 158.905C140.007 159.793 140.707 160.493 141.595 160.822L179.344 174.79C182.169 175.836 182.169 179.832 179.344 180.877L141.595 194.846C140.707 195.174 140.007 195.875 139.678 196.763L125.71 234.512C124.664 237.337 120.668 237.337 119.623 234.512L105.654 196.763C105.326 195.875 104.625 195.174 103.737 194.846L65.988 180.877C63.1627 179.832 63.1627 175.836 65.988 174.79L103.737 160.822C104.625 160.493 105.326 159.793 105.654 158.905L119.623 121.156Z" fill="white"/>
<path d="M182.536 89.7175C183.368 87.4484 186.578 87.4484 187.41 89.7175L194.904 110.142C195.165 110.853 195.724 111.415 196.434 111.68L216.748 119.26C218.999 120.1 218.999 123.285 216.748 124.125L196.434 131.705C195.724 131.97 195.165 132.532 194.904 133.243L187.41 153.667C186.578 155.936 183.368 155.936 182.536 153.667L175.042 133.243C174.781 132.532 174.222 131.97 173.512 131.705L153.198 124.125C150.947 123.285 150.947 120.1 153.198 119.26L173.512 111.68C174.222 111.415 174.781 110.853 175.042 110.142L182.536 89.7175Z" fill="white"/>
<path d="M228.66 149.713C229.705 146.888 233.701 146.888 234.747 149.713L257.655 211.622C257.984 212.51 258.684 213.211 259.572 213.539L321.482 236.448C324.307 237.493 324.307 241.489 321.482 242.535L259.572 265.443C258.684 265.772 257.984 266.472 257.655 267.361L234.747 329.27C233.701 332.095 229.705 332.095 228.66 329.27L205.751 267.361C205.422 266.472 204.722 265.772 203.834 265.443L141.925 242.535C139.099 241.489 139.099 237.493 141.925 236.448L203.834 213.539C204.722 213.211 205.422 212.51 205.751 211.622L228.66 149.713Z" fill="white"/>
</svg>
