<svg width="388" height="420" viewBox="0 0 388 420" fill="none" xmlns="http://www.w3.org/2000/svg">
<path d="M128.993 288.23L147.583 277.835L149.893 275.195V271.125L147.693 268.925H137.738L130.753 271.125L128.388 263.535L136.693 260.95H151.433L158.418 267.99V277.89L152.973 283.995L138.673 292.025H158.418V300H128.993V288.23ZM172.647 260.95H187.882L195.527 267.88V293.07L187.882 300H172.647L165.002 293.07V267.88L172.647 260.95ZM185.022 292.575L187.552 290.265V274.92L176.497 292.575H185.022ZM175.507 268.375L172.977 270.685V286.03L184.032 268.375H175.507ZM208.412 275.03L206.872 276.57L201.042 270.74L210.832 260.95H217.542V292.575H222.547V300H204.012V292.575H209.017V275.14L209.732 273.215L209.567 273.105L208.412 275.03ZM237.98 267.825L235.78 270.025V274.095C236.66 274.755 237.32 275.305 238.145 275.965H245.955C246.78 275.305 247.44 274.755 248.32 274.095V270.025L246.12 267.825H237.98ZM238.365 283.94L235.505 286.195V289.77L237.76 292.025H246.34L248.595 289.77V286.195L245.735 283.94H238.365ZM234.295 259.85H249.805L256.845 266.835V276.9L253.05 279.925L257.12 283.115V293.015L250.08 300H234.02L226.98 293.015V283.115L231.05 279.925L227.255 276.9V266.835L234.295 259.85Z" fill="white"/>
<path d="M104.359 117.591H154.773L180.071 140.523V223.879L154.773 246.811H104.359L79.0611 223.879V140.523L104.359 117.591ZM145.309 222.241L153.681 214.597V163.819L117.099 222.241H145.309ZM113.823 142.161L105.451 149.805V200.583L142.033 142.161H113.823ZM200.366 207.863L261.882 173.465L269.526 164.729V151.261L262.246 143.981H229.304L206.19 151.261L198.364 126.145L225.846 117.591H274.622L297.736 140.887V173.647L279.718 193.849L232.398 220.421H297.736V246.811H200.366V207.863Z" fill="white"/>
</svg>
