<svg width="388" height="420" viewBox="0 0 388 420" fill="none" xmlns="http://www.w3.org/2000/svg">
<path d="M131.806 288.23L150.396 277.835L152.706 275.195V271.125L150.506 268.925H140.551L133.566 271.125L131.201 263.535L139.506 260.95H154.246L161.231 267.99V277.89L155.786 283.995L141.486 292.025H161.231V300H131.806V288.23ZM175.46 260.95H190.695L198.34 267.88V293.07L190.695 300H175.46L167.815 293.07V267.88L175.46 260.95ZM187.835 292.575L190.365 290.265V274.92L179.31 292.575H187.835ZM178.32 268.375L175.79 270.685V286.03L186.845 268.375H178.32ZM211.225 275.03L209.685 276.57L203.855 270.74L213.645 260.95H220.355V292.575H225.36V300H206.825V292.575H211.83V275.14L212.545 273.215L212.38 273.105L211.225 275.03ZM244.052 290.98V300H235.527V288.89L247.132 268.925H227.002V260.95H255.877V270.63L244.052 290.98Z" fill="white"/>
<path d="M117.436 164.183L112.34 169.279L93.0482 149.987L125.444 117.591H147.648V222.241H164.21V246.811H102.876V222.241H119.438V164.547L121.804 158.177L121.258 157.813L117.436 164.183ZM178.976 207.863L240.492 173.465L248.136 164.729V151.261L240.856 143.981H207.914L184.8 151.261L176.974 126.145L204.456 117.591H253.232L276.346 140.887V173.647L258.328 193.849L211.008 220.421H276.346V246.811H178.976V207.863Z" fill="white"/>
</svg>
