<svg width="388" height="420" viewBox="0 0 388 420" fill="none" xmlns="http://www.w3.org/2000/svg">
<path d="M131.519 288.23L150.109 277.835L152.419 275.195V271.125L150.219 268.925H140.264L133.279 271.125L130.914 263.535L139.219 260.95H153.959L160.944 267.99V277.89L155.499 283.995L141.199 292.025H160.944V300H131.519V288.23ZM175.173 260.95H190.408L198.053 267.88V293.07L190.408 300H175.173L167.528 293.07V267.88L175.173 260.95ZM187.548 292.575L190.078 290.265V274.92L179.023 292.575H187.548ZM178.033 268.375L175.503 270.685V286.03L186.558 268.375H178.033ZM210.938 275.03L209.398 276.57L203.568 270.74L213.358 260.95H220.068V292.575H225.073V300H206.538V292.575H211.543V275.14L212.258 273.215L212.093 273.105L210.938 275.03ZM243.765 290.98V300H235.24V288.89L246.845 268.925H226.715V260.95H255.59V270.63L243.765 290.98Z" fill="white"/>
<path d="M120.729 164.183L115.633 169.279L96.3407 149.987L128.737 117.591H150.941V222.241H167.503V246.811H106.169V222.241H122.731V164.547L125.097 158.177L124.551 157.813L120.729 164.183ZM211.025 117.591H261.439L286.737 140.523V223.879L261.439 246.811H211.025L185.727 223.879V140.523L211.025 117.591ZM251.975 222.241L260.347 214.597V163.819L223.765 222.241H251.975ZM220.489 142.161L212.117 149.805V200.583L248.699 142.161H220.489Z" fill="white"/>
</svg>
