<svg width="388" height="420" viewBox="0 0 388 420" fill="none" xmlns="http://www.w3.org/2000/svg">
<path d="M131.867 288.23L150.457 277.835L152.767 275.195V271.125L150.567 268.925H140.612L133.627 271.125L131.262 263.535L139.567 260.95H154.307L161.292 267.99V277.89L155.847 283.995L141.547 292.025H161.292V300H131.867V288.23ZM175.521 260.95H190.756L198.401 267.88V293.07L190.756 300H175.521L167.876 293.07V267.88L175.521 260.95ZM187.896 292.575L190.426 290.265V274.92L179.371 292.575H187.896ZM178.381 268.375L175.851 270.685V286.03L186.906 268.375H178.381ZM211.286 275.03L209.746 276.57L203.916 270.74L213.706 260.95H220.416V292.575H225.421V300H206.886V292.575H211.891V275.14L212.606 273.215L212.441 273.105L211.286 275.03ZM244.113 290.98V300H235.588V288.89L247.193 268.925H227.063V260.95H255.938V270.63L244.113 290.98Z" fill="white"/>
<path d="M102.404 117.591H152.818L178.116 140.523V223.879L152.818 246.811H102.404L77.106 223.879V140.523L102.404 117.591ZM143.354 222.241L151.726 214.597V163.819L115.144 222.241H143.354ZM111.868 142.161L103.496 149.805V200.583L140.078 142.161H111.868ZM204.92 117.591H297.74V143.981H233.13V165.275H276.264L299.56 188.389V223.697L276.264 246.811H229.126L201.826 237.711L210.198 212.595L233.676 220.421H263.888L271.35 213.141V198.945L263.888 191.665H204.92V117.591Z" fill="white"/>
</svg>
