<svg width="388" height="420" viewBox="0 0 388 420" fill="none" xmlns="http://www.w3.org/2000/svg">
<path d="M131.806 288.23L150.396 277.835L152.706 275.195V271.125L150.506 268.925H140.551L133.566 271.125L131.201 263.535L139.506 260.95H154.246L161.231 267.99V277.89L155.786 283.995L141.486 292.025H161.231V300H131.806V288.23ZM175.46 260.95H190.695L198.34 267.88V293.07L190.695 300H175.46L167.815 293.07V267.88L175.46 260.95ZM187.835 292.575L190.365 290.265V274.92L179.31 292.575H187.835ZM178.32 268.375L175.79 270.685V286.03L186.845 268.375H178.32ZM211.225 275.03L209.685 276.57L203.855 270.74L213.645 260.95H220.355V292.575H225.36V300H206.825V292.575H211.83V275.14L212.545 273.215L212.38 273.105L211.225 275.03ZM244.052 290.98V300H235.527V288.89L247.132 268.925H227.002V260.95H255.877V270.63L244.052 290.98Z" fill="white"/>
<path d="M105.187 117.591H155.601L180.899 140.523V223.879L155.601 246.811H105.187L79.8888 223.879V140.523L105.187 117.591ZM146.137 222.241L154.509 214.597V163.819L117.927 222.241H146.137ZM114.651 142.161L106.279 149.805V200.583L142.861 142.161H114.651ZM252.378 143.981H199.598V117.591H296.786V139.795L264.208 168.369L257.838 172.191L258.202 172.737L264.572 170.371H273.49L296.786 193.485V223.697L273.49 246.811H221.802L195.594 237.893L204.148 212.595L227.08 220.421H261.478L268.576 213.141V202.221L261.478 194.941H223.258V172.009L252.742 145.983L259.112 142.161L258.748 141.615L252.378 143.981Z" fill="white"/>
</svg>
