<svg width="388" height="420" viewBox="0 0 388 420" fill="none" xmlns="http://www.w3.org/2000/svg">
<path d="M131.397 288.23L149.987 277.835L152.297 275.195V271.125L150.097 268.925H140.142L133.157 271.125L130.792 263.535L139.097 260.95H153.837L160.822 267.99V277.89L155.377 283.995L141.077 292.025H160.822V300H131.397V288.23ZM175.051 260.95H190.286L197.931 267.88V293.07L190.286 300H175.051L167.406 293.07V267.88L175.051 260.95ZM187.426 292.575L189.956 290.265V274.92L178.901 292.575H187.426ZM177.911 268.375L175.381 270.685V286.03L186.436 268.375H177.911ZM210.816 275.03L209.276 276.57L203.446 270.74L213.236 260.95H219.946V292.575H224.951V300H206.416V292.575H211.421V275.14L212.136 273.215L211.971 273.105L210.816 275.03ZM243.643 290.98V300H235.118V288.89L246.723 268.925H226.593V260.95H255.468V270.63L243.643 290.98Z" fill="white"/>
<path d="M99.8015 117.591H150.216L175.514 140.523V223.879L150.216 246.811H99.8015L74.5035 223.879V140.523L99.8015 117.591ZM140.752 222.241L149.124 214.597V163.819L112.542 222.241H140.752ZM109.266 142.161L100.894 149.805V200.583L137.476 142.161H109.266ZM201.043 223.515V140.887L224.157 117.591H275.117L301.325 126.327L292.953 151.443L270.567 143.981H236.533L229.253 151.261V167.459L240.719 164.911H277.119L300.233 188.207V223.515L277.119 246.811H224.157L201.043 223.515ZM264.743 191.301H236.169L229.253 192.939V213.141L236.533 220.421H264.743L272.023 213.141V198.581L264.743 191.301Z" fill="white"/>
</svg>
