<svg width="388" height="420" viewBox="0 0 388 420" fill="none" xmlns="http://www.w3.org/2000/svg">
<path d="M132.276 288.23L150.866 277.835L153.176 275.195V271.125L150.976 268.925H141.021L134.036 271.125L131.671 263.535L139.976 260.95H154.716L161.701 267.99V277.89L156.256 283.995L141.956 292.025H161.701V300H132.276V288.23ZM175.929 260.95H191.164L198.809 267.88V293.07L191.164 300H175.929L168.284 293.07V267.88L175.929 260.95ZM188.304 292.575L190.834 290.265V274.92L179.779 292.575H188.304ZM178.789 268.375L176.259 270.685V286.03L187.314 268.375H178.789ZM211.694 275.03L210.154 276.57L204.324 270.74L214.114 260.95H220.824V292.575H225.829V300H207.294V292.575H212.299V275.14L213.014 273.215L212.849 273.105L211.694 275.03ZM244.522 290.98V300H235.997V288.89L247.602 268.925H227.472V260.95H256.347V270.63L244.522 290.98Z" fill="white"/>
<path d="M120.675 117.591H171.089L196.387 140.523V223.879L171.089 246.811H120.675L95.377 223.879V140.523L120.675 117.591ZM161.625 222.241L169.997 214.597V163.819L133.415 222.241H161.625ZM130.139 142.161L121.767 149.805V200.583L158.349 142.161H130.139ZM239.025 164.183L233.929 169.279L214.637 149.987L247.033 117.591H269.237V222.241H285.799V246.811H224.465V222.241H241.027V164.547L243.393 158.177L242.847 157.813L239.025 164.183Z" fill="white"/>
</svg>
