<svg width="388" height="420" viewBox="0 0 388 420" fill="none" xmlns="http://www.w3.org/2000/svg">
<path d="M128.463 288.23L147.053 277.835L149.363 275.195V271.125L147.163 268.925H137.208L130.223 271.125L127.858 263.535L136.163 260.95H150.903L157.888 267.99V277.89L152.443 283.995L138.143 292.025H157.888V300H128.463V288.23ZM172.117 260.95H187.352L194.997 267.88V293.07L187.352 300H172.117L164.472 293.07V267.88L172.117 260.95ZM184.492 292.575L187.022 290.265V274.92L175.967 292.575H184.492ZM174.977 268.375L172.447 270.685V286.03L183.502 268.375H174.977ZM207.882 275.03L206.342 276.57L200.512 270.74L210.302 260.95H217.012V292.575H222.017V300H203.482V292.575H208.487V275.14L209.202 273.215L209.037 273.105L207.882 275.03ZM237.45 267.825L235.25 270.025V274.095C236.13 274.755 236.79 275.305 237.615 275.965H245.425C246.25 275.305 246.91 274.755 247.79 274.095V270.025L245.59 267.825H237.45ZM237.835 283.94L234.975 286.195V289.77L237.23 292.025H245.81L248.065 289.77V286.195L245.205 283.94H237.835ZM233.765 259.85H249.275L256.315 266.835V276.9L252.52 279.925L256.59 283.115V293.015L249.55 300H233.49L226.45 293.015V283.115L230.52 279.925L226.725 276.9V266.835L233.765 259.85Z" fill="white"/>
<path d="M119.736 117.591H170.15L195.448 140.523V223.879L170.15 246.811H119.736L94.4381 223.879V140.523L119.736 117.591ZM160.686 222.241L169.058 214.597V163.819L132.476 222.241H160.686ZM129.2 142.161L120.828 149.805V200.583L157.41 142.161H129.2ZM238.086 164.183L232.99 169.279L213.698 149.987L246.094 117.591H268.298V222.241H284.86V246.811H223.526V222.241H240.088V164.547L242.454 158.177L241.908 157.813L238.086 164.183Z" fill="white"/>
</svg>
