<svg width="388" height="420" viewBox="0 0 388 420" fill="none" xmlns="http://www.w3.org/2000/svg">
<path d="M131.928 288.23L150.518 277.835L152.828 275.195V271.125L150.628 268.925H140.673L133.688 271.125L131.323 263.535L139.628 260.95H154.368L161.353 267.99V277.89L155.908 283.995L141.608 292.025H161.353V300H131.928V288.23ZM175.582 260.95H190.817L198.462 267.88V293.07L190.817 300H175.582L167.937 293.07V267.88L175.582 260.95ZM187.957 292.575L190.487 290.265V274.92L179.432 292.575H187.957ZM178.442 268.375L175.912 270.685V286.03L186.967 268.375H178.442ZM211.347 275.03L209.807 276.57L203.977 270.74L213.767 260.95H220.477V292.575H225.482V300H206.947V292.575H211.952V275.14L212.667 273.215L212.502 273.105L211.347 275.03ZM244.174 290.98V300H235.649V288.89L247.254 268.925H227.124V260.95H255.999V270.63L244.174 290.98Z" fill="white"/>
<path d="M119.019 117.591H169.433L194.731 140.523V223.879L169.433 246.811H119.019L93.7208 223.879V140.523L119.019 117.591ZM159.969 222.241L168.341 214.597V163.819L131.759 222.241H159.969ZM128.483 142.161L120.111 149.805V200.583L156.693 142.161H128.483ZM263.891 216.963V246.811H235.681V210.047L274.083 143.981H207.471V117.591H303.021V149.623L263.891 216.963Z" fill="white"/>
</svg>
