<svg width="388" height="420" viewBox="0 0 388 420" fill="none" xmlns="http://www.w3.org/2000/svg">
<path d="M131.988 288.23L150.578 277.835L152.888 275.195V271.125L150.688 268.925H140.733L133.748 271.125L131.383 263.535L139.688 260.95H154.428L161.413 267.99V277.89L155.968 283.995L141.668 292.025H161.413V300H131.988V288.23ZM175.642 260.95H190.877L198.522 267.88V293.07L190.877 300H175.642L167.997 293.07V267.88L175.642 260.95ZM188.017 292.575L190.547 290.265V274.92L179.492 292.575H188.017ZM178.502 268.375L175.972 270.685V286.03L187.027 268.375H178.502ZM211.407 275.03L209.867 276.57L204.037 270.74L213.827 260.95H220.537V292.575H225.542V300H207.007V292.575H212.012V275.14L212.727 273.215L212.562 273.105L211.407 275.03ZM244.234 290.98V300H235.709V288.89L247.314 268.925H227.184V260.95H256.059V270.63L244.234 290.98Z" fill="white"/>
<path d="M109.393 117.591H159.807L185.105 140.523V223.879L159.807 246.811H109.393L84.0948 223.879V140.523L109.393 117.591ZM150.343 222.241L158.715 214.597V163.819L122.133 222.241H150.343ZM118.857 142.161L110.485 149.805V200.583L147.067 142.161H118.857ZM307.277 140.887V223.515L284.163 246.811H233.203L206.995 238.075L215.367 212.959L237.753 220.421H271.787L279.067 213.141V196.943L267.601 199.491H231.201L208.087 176.195V140.887L231.201 117.591H284.163L307.277 140.887ZM243.577 173.101H272.151L279.067 171.463V151.261L271.787 143.981H243.577L236.297 151.261V165.821L243.577 173.101Z" fill="white"/>
</svg>
