<svg width="388" height="420" viewBox="0 0 388 420" fill="none" xmlns="http://www.w3.org/2000/svg">
<path d="M131.337 288.23L149.927 277.835L152.237 275.195V271.125L150.037 268.925H140.082L133.097 271.125L130.732 263.535L139.037 260.95H153.777L160.762 267.99V277.89L155.317 283.995L141.017 292.025H160.762V300H131.337V288.23ZM174.99 260.95H190.225L197.87 267.88V293.07L190.225 300H174.99L167.345 293.07V267.88L174.99 260.95ZM187.365 292.575L189.895 290.265V274.92L178.84 292.575H187.365ZM177.85 268.375L175.32 270.685V286.03L186.375 268.375H177.85ZM210.755 275.03L209.215 276.57L203.385 270.74L213.175 260.95H219.885V292.575H224.89V300H206.355V292.575H211.36V275.14L212.075 273.215L211.91 273.105L210.755 275.03ZM243.583 290.98V300H235.058V288.89L246.663 268.925H226.533V260.95H255.408V270.63L243.583 290.98Z" fill="white"/>
<path d="M101.074 117.591H151.488L176.786 140.523V223.879L151.488 246.811H101.074L75.776 223.879V140.523L101.074 117.591ZM142.024 222.241L150.396 214.597V163.819L113.814 222.241H142.024ZM110.538 142.161L102.166 149.805V200.583L138.748 142.161H110.538ZM290.222 196.579H303.508V222.969H290.222V246.811H262.012V222.969H195.036V197.307L266.926 117.591H290.222V196.579ZM260.01 164.547L232.892 194.577L226.522 198.399L226.886 198.945L233.256 196.579H262.012V164.911L264.378 158.541L263.832 158.177L260.01 164.547Z" fill="white"/>
</svg>
