<svg width="388" height="420" viewBox="0 0 388 420" fill="none" xmlns="http://www.w3.org/2000/svg">
<path d="M131.458 288.23L150.048 277.835L152.358 275.195V271.125L150.158 268.925H140.203L133.218 271.125L130.853 263.535L139.158 260.95H153.898L160.883 267.99V277.89L155.438 283.995L141.138 292.025H160.883V300H131.458V288.23ZM175.112 260.95H190.347L197.992 267.88V293.07L190.347 300H175.112L167.467 293.07V267.88L175.112 260.95ZM187.487 292.575L190.017 290.265V274.92L178.962 292.575H187.487ZM177.972 268.375L175.442 270.685V286.03L186.497 268.375H177.972ZM210.877 275.03L209.337 276.57L203.507 270.74L213.297 260.95H220.007V292.575H225.012V300H206.477V292.575H211.482V275.14L212.197 273.215L212.032 273.105L210.877 275.03ZM243.704 290.98V300H235.179V288.89L246.784 268.925H226.654V260.95H255.529V270.63L243.704 290.98Z" fill="white"/>
<path d="M107.263 117.591H157.677L182.975 140.523V223.879L157.677 246.811H107.263L81.9649 223.879V140.523L107.263 117.591ZM148.213 222.241L156.585 214.597V163.819L120.003 222.241H148.213ZM116.727 142.161L108.355 149.805V200.583L144.937 142.161H116.727ZM244.905 140.341L237.625 147.621V161.089C240.537 163.273 242.721 165.093 245.451 167.277H271.295C274.025 165.093 276.209 163.273 279.121 161.089V147.621L271.841 140.341H244.905ZM246.179 193.667L236.715 201.129V212.959L244.177 220.421H272.569L280.031 212.959V201.129L270.567 193.667H246.179ZM232.711 113.951H284.035L307.331 137.065V170.371L294.773 180.381L308.241 190.937V223.697L284.945 246.811H231.801L208.505 223.697V190.937L221.973 180.381L209.415 170.371V137.065L232.711 113.951Z" fill="white"/>
</svg>
