<svg width="388" height="420" viewBox="0 0 388 420" fill="none" xmlns="http://www.w3.org/2000/svg">
<path d="M128.524 288.23L147.114 277.835L149.424 275.195V271.125L147.224 268.925H137.269L130.284 271.125L127.919 263.535L136.224 260.95H150.964L157.949 267.99V277.89L152.504 283.995L138.204 292.025H157.949V300H128.524V288.23ZM172.177 260.95H187.412L195.057 267.88V293.07L187.412 300H172.177L164.532 293.07V267.88L172.177 260.95ZM184.552 292.575L187.082 290.265V274.92L176.027 292.575H184.552ZM175.037 268.375L172.507 270.685V286.03L183.562 268.375H175.037ZM207.942 275.03L206.402 276.57L200.572 270.74L210.362 260.95H217.072V292.575H222.077V300H203.542V292.575H208.547V275.14L209.262 273.215L209.097 273.105L207.942 275.03ZM237.51 267.825L235.31 270.025V274.095C236.19 274.755 236.85 275.305 237.675 275.965H245.485C246.31 275.305 246.97 274.755 247.85 274.095V270.025L245.65 267.825H237.51ZM237.895 283.94L235.035 286.195V289.77L237.29 292.025H245.87L248.125 289.77V286.195L245.265 283.94H237.895ZM233.825 259.85H249.335L256.375 266.835V276.9L252.58 279.925L256.65 283.115V293.015L249.61 300H233.55L226.51 293.015V283.115L230.58 279.925L226.785 276.9V266.835L233.825 259.85Z" fill="white"/>
<path d="M104.778 117.591H155.192L180.49 140.523V223.879L155.192 246.811H104.778L79.4801 223.879V140.523L104.778 117.591ZM145.728 222.241L154.1 214.597V163.819L117.518 222.241H145.728ZM114.242 142.161L105.87 149.805V200.583L142.452 142.161H114.242ZM251.969 143.981H199.189V117.591H296.377V139.795L263.799 168.369L257.429 172.191L257.793 172.737L264.163 170.371H273.081L296.377 193.485V223.697L273.081 246.811H221.393L195.185 237.893L203.739 212.595L226.671 220.421H261.069L268.167 213.141V202.221L261.069 194.941H222.849V172.009L252.333 145.983L258.703 142.161L258.339 141.615L251.969 143.981Z" fill="white"/>
</svg>
