<svg width="388" height="420" viewBox="0 0 388 420" fill="none" xmlns="http://www.w3.org/2000/svg">
<path d="M129.054 288.23L147.644 277.835L149.954 275.195V271.125L147.754 268.925H137.799L130.814 271.125L128.449 263.535L136.754 260.95H151.494L158.479 267.99V277.89L153.034 283.995L138.734 292.025H158.479V300H129.054V288.23ZM172.708 260.95H187.943L195.588 267.88V293.07L187.943 300H172.708L165.063 293.07V267.88L172.708 260.95ZM185.083 292.575L187.613 290.265V274.92L176.558 292.575H185.083ZM175.568 268.375L173.038 270.685V286.03L184.093 268.375H175.568ZM208.473 275.03L206.933 276.57L201.103 270.74L210.893 260.95H217.603V292.575H222.608V300H204.073V292.575H209.078V275.14L209.793 273.215L209.628 273.105L208.473 275.03ZM238.041 267.825L235.841 270.025V274.095C236.721 274.755 237.381 275.305 238.206 275.965H246.016C246.841 275.305 247.501 274.755 248.381 274.095V270.025L246.181 267.825H238.041ZM238.426 283.94L235.566 286.195V289.77L237.821 292.025H246.401L248.656 289.77V286.195L245.796 283.94H238.426ZM234.356 259.85H249.866L256.906 266.835V276.9L253.111 279.925L257.181 283.115V293.015L250.141 300H234.081L227.041 293.015V283.115L231.111 279.925L227.316 276.9V266.835L234.356 259.85Z" fill="white"/>
<path d="M101.665 117.591H152.079L177.377 140.523V223.879L152.079 246.811H101.665L76.3673 223.879V140.523L101.665 117.591ZM142.615 222.241L150.987 214.597V163.819L114.405 222.241H142.615ZM111.129 142.161L102.757 149.805V200.583L139.339 142.161H111.129ZM290.813 196.579H304.099V222.969H290.813V246.811H262.603V222.969H195.627V197.307L267.517 117.591H290.813V196.579ZM260.601 164.547L233.483 194.577L227.113 198.399L227.477 198.945L233.847 196.579H262.603V164.911L264.969 158.541L264.423 158.177L260.601 164.547Z" fill="white"/>
</svg>
