<svg width="388" height="420" viewBox="0 0 388 420" fill="none" xmlns="http://www.w3.org/2000/svg">
<path d="M262.208 278.516H308.938M308.938 278.516L282.977 252.638M308.938 278.516L282.977 304.394M205.094 102.546L179.132 128.424H184.325M189.517 128.424C210.173 128.424 229.983 136.603 244.589 151.162C259.195 165.721 267.4 185.468 267.4 206.058C267.4 226.647 259.195 246.394 244.589 260.953C229.983 275.512 210.173 283.691 189.517 283.691H101.249M150.638 138.775C138.779 145.585 128.93 155.39 122.082 167.202C115.235 179.014 111.631 192.416 111.633 206.058C111.633 223.53 117.428 239.658 127.21 252.638M225.863 204.908V164.653L168.748 173.854V214.109M225.863 204.908V218.709C225.863 221.149 224.768 223.49 222.821 225.215C220.874 226.941 218.232 227.91 215.478 227.91H210.286C207.532 227.91 204.89 226.941 202.943 225.215C200.995 223.49 199.901 221.149 199.901 218.709V214.109C199.901 211.668 200.995 209.328 202.943 207.602C204.89 205.877 207.532 204.907 210.286 204.907L225.863 204.908ZM168.748 214.109V227.91C168.748 230.35 167.654 232.691 165.706 234.416C163.759 236.142 161.118 237.111 158.364 237.111H153.171C150.417 237.111 147.776 236.142 145.828 234.416C143.881 232.691 142.787 230.35 142.787 227.91V223.31C142.787 220.869 143.881 218.529 145.828 216.803C147.776 215.078 150.417 214.109 153.171 214.109L168.748 214.109Z" stroke="white" stroke-width="14.2786" stroke-linecap="round" stroke-linejoin="round"/>
</svg>
