<svg width="388" height="420" viewBox="0 0 388 420" fill="none" xmlns="http://www.w3.org/2000/svg">
<path d="M248.869 242.433C230.957 242.433 216.437 227.913 216.437 210.001C216.437 192.089 230.957 177.568 248.869 177.568C266.781 177.568 281.301 192.089 281.301 210.001C281.301 227.913 266.781 242.433 248.869 242.433Z" fill="white"/>
<path d="M173.193 176.486C155.281 176.486 140.761 161.966 140.761 144.054C140.761 126.141 155.281 111.621 173.193 111.621C191.105 111.621 205.626 126.141 205.626 144.054C205.626 161.966 191.105 176.486 173.193 176.486Z" fill="white"/>
<path d="M173.193 308.379C155.281 308.379 140.761 293.858 140.761 275.946C140.761 258.034 155.281 243.514 173.193 243.514C191.105 243.514 205.626 258.034 205.626 275.946C205.626 293.858 191.105 308.379 173.193 308.379Z" fill="white"/>
</svg>
