<svg width="388" height="420" viewBox="0 0 388 420" fill="none" xmlns="http://www.w3.org/2000/svg">
<path d="M245.436 217.406L172.189 260.494C170.844 261.301 169.361 261.707 167.882 261.707C166.399 261.707 164.919 261.301 163.574 260.629C160.878 259.011 159.263 256.186 159.263 253.088V166.913C159.263 163.815 160.878 160.99 163.574 159.372C166.263 157.892 169.632 157.892 172.189 159.507L245.436 202.595C248.132 204.075 249.747 206.903 249.747 210.001C249.747 213.099 248.132 215.926 245.436 217.406ZM193.733 136.751C153.341 136.751 120.486 169.605 120.486 210.001C120.486 250.396 153.341 283.251 193.733 283.251C234.128 283.251 266.98 250.396 266.98 210.001C266.98 169.605 234.128 136.751 193.733 136.751ZM193.733 313.409C136.642 313.409 90.3242 267.092 90.3242 210.001C90.3242 152.909 136.642 106.592 193.733 106.592C250.824 106.592 297.142 152.909 297.142 210.001C297.142 267.092 250.824 313.409 193.733 313.409Z" fill="white"/>
</svg>
