<svg width="388" height="420" viewBox="0 0 388 420" fill="none" xmlns="http://www.w3.org/2000/svg">
<path d="M124.871 190.104L123.003 198.303L131.618 199.344C149.884 201.834 152.27 213.661 151.026 222.07C149.053 235.665 141.374 245.837 120.202 246.874C112.418 247.286 104.219 246.148 95.6074 245.006L98.4081 228.297C105.361 228.918 111.381 229.229 116.155 228.918C123.628 228.503 127.78 226.844 128.918 220.618C129.648 216.675 127.466 216.05 120.928 215.219L109.303 213.455C104.945 212.834 102.249 209.303 103.077 205.155L109.202 174.02H155.175L152.27 190.104H124.871Z" fill="white"/>
<path d="M181.121 209.616C178.736 228.298 179.358 230.372 186.52 230.372C193.99 230.372 195.446 228.298 197.621 210.031C199.908 191.352 199.179 189.278 192.331 189.278C184.963 189.278 183.51 191.352 181.121 209.616ZM219.729 210.656C215.783 238.676 207.689 247.082 185.378 247.082C164.206 247.082 154.969 237.845 159.017 208.994C162.959 180.974 171.473 172.568 193.368 172.568C215.679 172.568 223.777 181.805 219.729 210.656Z" fill="white"/>
<path d="M249.202 209.616C246.817 228.298 247.439 230.372 254.601 230.372C262.074 230.372 263.527 228.298 265.702 210.031C267.99 191.352 267.26 189.278 260.412 189.278C253.044 189.278 251.591 191.352 249.202 209.616ZM287.81 210.656C283.865 238.676 275.77 247.082 253.459 247.082C232.287 247.082 223.05 237.845 227.098 208.994C231.044 180.974 239.554 172.568 261.449 172.568C283.76 172.568 291.858 181.805 287.81 210.656Z" fill="white"/>
</svg>
