<svg width="388" height="420" viewBox="0 0 388 420" fill="none" xmlns="http://www.w3.org/2000/svg">
<path d="M187.476 255.48H292.834C301.074 255.48 304.875 245.237 298.628 239.865L223.01 146.028C221.344 144.595 219.28 143.879 217.216 143.879C215.155 143.879 213.091 144.595 211.425 146.028L163.841 205.078L184.3 233.494C189.462 238.599 191.158 246.126 188.598 253.024C188.28 253.882 187.898 254.7 187.476 255.48Z" fill="white"/>
<path d="M171.273 255.479C179.509 255.479 183.31 245.236 177.064 239.864L140.749 189.432C139.084 187.999 137.02 187.283 134.955 187.283C132.891 187.283 130.827 187.999 129.162 189.432L92.8473 239.864C86.6007 245.236 90.4014 255.479 98.6379 255.479H171.273Z" fill="white"/>
</svg>
