<svg width="388" height="420" viewBox="0 0 388 420" fill="none" xmlns="http://www.w3.org/2000/svg">
<path d="M262.207 278.515H308.937M308.937 278.515L282.976 252.637M308.937 278.515L282.976 304.393M205.093 102.545L179.132 128.423H184.324M189.516 128.423C210.172 128.423 229.982 136.602 244.588 151.161C259.194 165.72 267.399 185.467 267.399 206.057C267.399 226.647 259.194 246.393 244.588 260.952C229.982 275.511 210.172 283.691 189.516 283.691H101.248M150.637 138.774C138.778 145.584 128.929 155.389 122.081 167.201C115.234 179.013 111.63 192.415 111.633 206.057C111.633 223.53 117.427 239.657 127.209 252.637M225.862 204.907V164.652L168.747 173.853V214.108M225.862 204.907V218.708C225.862 221.148 224.768 223.489 222.82 225.214C220.873 226.94 218.231 227.909 215.477 227.909H210.285C207.531 227.909 204.889 226.94 202.942 225.214C200.995 223.489 199.9 221.148 199.9 218.708V214.108C199.9 211.667 200.995 209.327 202.942 207.601C204.889 205.876 207.531 204.907 210.285 204.907L225.862 204.907ZM168.747 214.108V227.909C168.747 230.349 167.653 232.69 165.706 234.415C163.758 236.141 161.117 237.11 158.363 237.11H153.17C150.416 237.11 147.775 236.141 145.827 234.415C143.88 232.69 142.786 230.349 142.786 227.909V223.309C142.786 220.868 143.88 218.528 145.827 216.803C147.775 215.077 150.416 214.108 153.17 214.108L168.747 214.108Z" stroke="white" stroke-width="14.2786" stroke-linecap="round" stroke-linejoin="round"/>
</svg>
