<svg width="388" height="420" viewBox="0 0 388 420" fill="none" xmlns="http://www.w3.org/2000/svg">
<path d="M223.309 80.8316L209.988 93.8181L213.144 112.169C213.178 112.426 213.178 112.646 213.178 112.903C213.178 113.859 212.738 114.737 211.674 114.737C211.161 114.737 210.647 114.555 210.208 114.298L193.732 105.636L177.255 114.298C176.779 114.555 176.303 114.737 175.789 114.737C174.725 114.737 174.248 113.859 174.248 112.903C174.248 112.646 174.286 112.426 174.316 112.169L177.475 93.8181L164.117 80.8316C163.678 80.3519 163.201 79.7269 163.201 79.0715C163.201 77.9667 164.34 77.5276 165.255 77.3789L183.681 74.7032L191.934 58.0073C192.265 57.308 192.887 56.5039 193.732 56.5039C194.576 56.5039 195.198 57.308 195.529 58.0073L203.786 74.7032L222.208 77.3789C223.086 77.5276 224.262 77.9667 224.262 79.0715C224.262 79.7269 223.786 80.3519 223.309 80.8316Z" fill="white"/>
<path d="M223.309 320.024L209.988 333.013L213.144 351.361C213.178 351.618 213.178 351.838 213.178 352.094C213.178 353.054 212.738 353.929 211.674 353.929C211.161 353.929 210.647 353.747 210.208 353.49L193.732 344.831L177.255 353.49C176.779 353.747 176.303 353.929 175.789 353.929C174.725 353.929 174.248 353.054 174.248 352.094C174.248 351.838 174.286 351.618 174.316 351.361L177.475 333.013L164.117 320.024C163.678 319.547 163.201 318.922 163.201 318.263C163.201 317.162 164.34 316.723 165.255 316.571L183.681 313.899L191.934 297.203C192.265 296.5 192.887 295.699 193.732 295.699C194.576 295.699 195.198 296.5 195.529 297.203L203.786 313.899L222.208 316.571C223.086 316.723 224.262 317.162 224.262 318.263C224.262 318.922 223.786 319.547 223.309 320.024Z" fill="white"/>
<path d="M284.371 112.52L271.053 125.51L274.209 143.857C274.239 144.114 274.239 144.334 274.239 144.591C274.239 145.55 273.8 146.425 272.736 146.425C272.222 146.425 271.709 146.243 271.269 145.986L254.793 137.327L238.317 145.986C237.84 146.243 237.364 146.425 236.851 146.425C235.786 146.425 235.31 145.55 235.31 144.591C235.31 144.334 235.347 144.114 235.381 143.857L238.536 125.51L225.178 112.52C224.739 112.043 224.263 111.418 224.263 110.76C224.263 109.658 225.401 109.219 226.317 109.067L244.742 106.395L252.996 89.6987C253.327 88.996 253.949 88.1953 254.793 88.1953C255.638 88.1953 256.259 88.996 256.59 89.6987L264.847 106.395L283.269 109.067C284.148 109.219 285.324 109.658 285.324 110.76C285.324 111.418 284.851 112.043 284.371 112.52Z" fill="white"/>
<path d="M162.249 112.52L148.928 125.51L152.083 143.857C152.117 144.114 152.117 144.334 152.117 144.591C152.117 145.55 151.678 146.425 150.614 146.425C150.1 146.425 149.587 146.243 149.147 145.986L132.671 137.327L116.191 145.986C115.718 146.243 115.242 146.425 114.728 146.425C113.661 146.425 113.188 145.55 113.188 144.591C113.188 144.334 113.225 144.114 113.255 143.857L116.414 125.51L103.053 112.52C102.617 112.043 102.141 111.418 102.141 110.76C102.141 109.658 103.279 109.219 104.195 109.067L122.617 106.395L130.874 89.6987C131.205 88.996 131.823 88.1953 132.671 88.1953C133.516 88.1953 134.137 88.996 134.468 89.6987L142.722 106.395L161.147 109.067C162.022 109.219 163.201 109.658 163.201 110.76C163.201 111.418 162.725 112.043 162.249 112.52Z" fill="white"/>
<path d="M193.732 152.389C185.958 152.389 178.414 153.912 171.303 156.919C164.441 159.821 158.282 163.973 152.995 169.264C147.705 174.551 143.553 180.71 140.651 187.571C137.644 194.679 136.12 202.227 136.12 210C136.12 217.774 137.644 225.321 140.651 232.429C143.553 239.291 147.705 245.449 152.995 250.737C158.282 256.027 164.441 260.179 171.303 263.081C178.414 266.088 185.958 267.612 193.732 267.612C201.505 267.612 209.053 266.088 216.161 263.081C223.022 260.179 229.181 256.027 234.468 250.737C239.759 245.449 243.911 239.291 246.813 232.429C249.819 225.321 251.343 217.774 251.343 210C251.343 202.227 249.819 194.679 246.813 187.571C243.911 180.71 239.759 174.551 234.468 169.264C229.181 163.973 223.022 159.821 216.161 156.919C209.053 153.912 201.505 152.389 193.732 152.389ZM193.732 162.196C220.134 162.196 241.539 183.598 241.539 210C241.539 236.402 220.134 257.808 193.732 257.808C167.33 257.808 145.924 236.402 145.924 210C145.924 183.598 167.33 162.196 193.732 162.196Z" fill="white"/>
<path d="M208.134 219.192C203.056 219.192 198.941 215.077 198.941 209.999C198.941 204.922 203.056 200.807 208.134 200.807C213.212 200.807 217.33 204.922 217.33 209.999C217.33 215.077 213.212 219.192 208.134 219.192Z" fill="white"/>
<path d="M186.685 200.5C181.608 200.5 177.489 196.385 177.489 191.307C177.489 186.23 181.608 182.111 186.685 182.111C191.763 182.111 195.878 186.23 195.878 191.307C195.878 196.385 191.763 200.5 186.685 200.5Z" fill="white"/>
<path d="M186.685 237.889C181.608 237.889 177.489 233.77 177.489 228.693C177.489 223.615 181.608 219.5 186.685 219.5C191.763 219.5 195.878 223.615 195.878 228.693C195.878 233.77 191.763 237.889 186.685 237.889Z" fill="white"/>
</svg>
