<svg width="388" height="420" viewBox="0 0 388 420" fill="none" xmlns="http://www.w3.org/2000/svg">
<path d="M223.311 80.8316L209.99 93.8181L213.146 112.169C213.18 112.426 213.18 112.646 213.18 112.903C213.18 113.859 212.74 114.737 211.676 114.737C211.163 114.737 210.649 114.555 210.21 114.298L193.734 105.636L177.257 114.298C176.781 114.555 176.304 114.737 175.791 114.737C174.727 114.737 174.25 113.859 174.25 112.903C174.25 112.646 174.288 112.426 174.318 112.169L177.477 93.8181L164.119 80.8316C163.679 80.3519 163.203 79.7269 163.203 79.0715C163.203 77.9667 164.342 77.5276 165.257 77.3789L183.683 74.7032L191.936 58.0073C192.267 57.308 192.889 56.5039 193.734 56.5039C194.578 56.5039 195.2 57.308 195.531 58.0073L203.788 74.7032L222.21 77.3789C223.088 77.5276 224.264 77.9667 224.264 79.0715C224.264 79.7269 223.788 80.3519 223.311 80.8316Z" fill="white"/>
<path d="M223.311 320.024L209.99 333.013L213.146 351.361C213.18 351.618 213.18 351.838 213.18 352.094C213.18 353.054 212.74 353.929 211.676 353.929C211.163 353.929 210.649 353.747 210.21 353.49L193.734 344.831L177.257 353.49C176.781 353.747 176.304 353.929 175.791 353.929C174.727 353.929 174.25 353.054 174.25 352.094C174.25 351.838 174.288 351.618 174.318 351.361L177.477 333.013L164.119 320.024C163.679 319.547 163.203 318.922 163.203 318.263C163.203 317.162 164.342 316.723 165.257 316.571L183.683 313.899L191.936 297.203C192.267 296.5 192.889 295.699 193.734 295.699C194.578 295.699 195.2 296.5 195.531 297.203L203.788 313.899L222.21 316.571C223.088 316.723 224.264 317.162 224.264 318.263C224.264 318.922 223.788 319.547 223.311 320.024Z" fill="white"/>
<path d="M284.373 288.334L271.055 301.32L274.211 319.671C274.241 319.928 274.241 320.148 274.241 320.405C274.241 321.361 273.802 322.239 272.738 322.239C272.224 322.239 271.711 322.057 271.271 321.8L254.795 313.138L238.319 321.8C237.842 322.057 237.366 322.239 236.853 322.239C235.788 322.239 235.312 321.361 235.312 320.405C235.312 320.148 235.349 319.928 235.383 319.671L238.538 301.32L225.18 288.334C224.741 287.857 224.265 287.229 224.265 286.573C224.265 285.469 225.403 285.03 226.319 284.881L244.744 282.205L252.998 265.509C253.329 264.81 253.95 264.006 254.795 264.006C255.64 264.006 256.261 264.81 256.592 265.509L264.849 282.205L283.271 284.881C284.15 285.03 285.325 285.469 285.325 286.573C285.325 287.229 284.852 287.857 284.373 288.334Z" fill="white"/>
<path d="M284.373 112.52L271.055 125.51L274.211 143.857C274.241 144.114 274.241 144.334 274.241 144.591C274.241 145.55 273.802 146.425 272.738 146.425C272.224 146.425 271.711 146.243 271.271 145.986L254.795 137.327L238.319 145.986C237.842 146.243 237.366 146.425 236.853 146.425C235.788 146.425 235.312 145.55 235.312 144.591C235.312 144.334 235.349 144.114 235.383 143.857L238.538 125.51L225.18 112.52C224.741 112.043 224.265 111.418 224.265 110.76C224.265 109.658 225.403 109.219 226.319 109.067L244.744 106.395L252.998 89.6987C253.329 88.996 253.95 88.1953 254.795 88.1953C255.64 88.1953 256.261 88.996 256.592 89.6987L264.849 106.395L283.271 109.067C284.15 109.219 285.325 109.658 285.325 110.76C285.325 111.418 284.852 112.043 284.373 112.52Z" fill="white"/>
<path d="M162.251 288.334L148.93 301.32L152.085 319.671C152.119 319.928 152.119 320.148 152.119 320.405C152.119 321.361 151.68 322.239 150.616 322.239C150.102 322.239 149.589 322.057 149.149 321.8L132.673 313.138L116.193 321.8C115.72 322.057 115.244 322.239 114.73 322.239C113.663 322.239 113.19 321.361 113.19 320.405C113.19 320.148 113.227 319.928 113.257 319.671L116.416 301.32L103.055 288.334C102.619 287.857 102.143 287.229 102.143 286.573C102.143 285.469 103.281 285.03 104.197 284.881L122.619 282.205L130.876 265.509C131.207 264.81 131.825 264.006 132.673 264.006C133.518 264.006 134.139 264.81 134.47 265.509L142.724 282.205L161.149 284.881C162.024 285.03 163.203 285.469 163.203 286.573C163.203 287.229 162.727 287.857 162.251 288.334Z" fill="white"/>
<path d="M162.251 112.52L148.93 125.51L152.085 143.857C152.119 144.114 152.119 144.334 152.119 144.591C152.119 145.55 151.68 146.425 150.616 146.425C150.102 146.425 149.589 146.243 149.149 145.986L132.673 137.327L116.193 145.986C115.72 146.243 115.244 146.425 114.73 146.425C113.663 146.425 113.19 145.55 113.19 144.591C113.19 144.334 113.227 144.114 113.257 143.857L116.416 125.51L103.055 112.52C102.619 112.043 102.143 111.418 102.143 110.76C102.143 109.658 103.281 109.219 104.197 109.067L122.619 106.395L130.876 89.6987C131.207 88.996 131.825 88.1953 132.673 88.1953C133.518 88.1953 134.139 88.996 134.47 89.6987L142.724 106.395L161.149 109.067C162.024 109.219 163.203 109.658 163.203 110.76C163.203 111.418 162.727 112.043 162.251 112.52Z" fill="white"/>
<path d="M193.734 152.389C185.96 152.389 178.416 153.912 171.305 156.919C164.443 159.821 158.284 163.973 152.997 169.264C147.707 174.551 143.555 180.71 140.652 187.571C137.646 194.679 136.122 202.227 136.122 210C136.122 217.774 137.646 225.321 140.652 232.429C143.555 239.291 147.707 245.449 152.997 250.737C158.284 256.027 164.443 260.179 171.305 263.081C178.416 266.088 185.96 267.612 193.734 267.612C201.507 267.612 209.055 266.088 216.163 263.081C223.024 260.179 229.183 256.027 234.47 250.737C239.761 245.449 243.913 239.291 246.815 232.429C249.821 225.321 251.345 217.774 251.345 210C251.345 202.227 249.821 194.679 246.815 187.571C243.913 180.71 239.761 174.551 234.47 169.264C229.183 163.973 223.024 159.821 216.163 156.919C209.055 153.912 201.507 152.389 193.734 152.389ZM193.734 162.196C220.136 162.196 241.541 183.598 241.541 210C241.541 236.402 220.136 257.808 193.734 257.808C167.332 257.808 145.926 236.402 145.926 210C145.926 183.598 167.332 162.196 193.734 162.196Z" fill="white"/>
<path d="M208.136 219.192C203.058 219.192 198.943 215.077 198.943 209.999C198.943 204.922 203.058 200.807 208.136 200.807C213.214 200.807 217.332 204.922 217.332 209.999C217.332 215.077 213.214 219.192 208.136 219.192Z" fill="white"/>
<path d="M186.687 200.5C181.609 200.5 177.491 196.385 177.491 191.307C177.491 186.23 181.609 182.111 186.687 182.111C191.765 182.111 195.88 186.23 195.88 191.307C195.88 196.385 191.765 200.5 186.687 200.5Z" fill="white"/>
<path d="M186.687 237.889C181.609 237.889 177.491 233.77 177.491 228.693C177.491 223.615 181.609 219.5 186.687 219.5C191.765 219.5 195.88 223.615 195.88 228.693C195.88 233.77 191.765 237.889 186.687 237.889Z" fill="white"/>
</svg>
