<svg width="388" height="420" viewBox="0 0 388 420" fill="none" xmlns="http://www.w3.org/2000/svg">
<path d="M223.309 80.8316L209.988 93.8181L213.144 112.169C213.178 112.426 213.178 112.646 213.178 112.903C213.178 113.859 212.738 114.737 211.674 114.737C211.161 114.737 210.647 114.555 210.208 114.298L193.732 105.636L177.255 114.298C176.779 114.555 176.303 114.737 175.789 114.737C174.725 114.737 174.248 113.859 174.248 112.903C174.248 112.646 174.286 112.426 174.316 112.169L177.475 93.8181L164.117 80.8316C163.678 80.3519 163.201 79.7269 163.201 79.0715C163.201 77.9667 164.34 77.5276 165.255 77.3789L183.681 74.7032L191.934 58.0073C192.265 57.308 192.887 56.5039 193.732 56.5039C194.576 56.5039 195.198 57.308 195.529 58.0073L203.786 74.7032L222.208 77.3789C223.086 77.5276 224.262 77.9667 224.262 79.0715C224.262 79.7269 223.786 80.3519 223.309 80.8316Z" fill="white"/>
<path d="M337.425 204.75L324.104 217.74L327.259 236.088C327.29 236.345 327.29 236.564 327.29 236.824C327.29 237.781 326.854 238.656 325.786 238.656C325.273 238.656 324.763 238.476 324.324 238.22L307.847 229.558L291.368 238.22C290.891 238.476 290.415 238.656 289.901 238.656C288.837 238.656 288.361 237.781 288.361 236.824C288.361 236.564 288.398 236.345 288.432 236.088L291.587 217.74L278.229 204.75C277.79 204.274 277.313 203.649 277.313 202.99C277.313 201.889 278.455 201.449 279.368 201.301L297.793 198.625L306.047 181.929C306.381 181.23 306.999 180.426 307.847 180.426C308.692 180.426 309.31 181.23 309.641 181.929L317.898 198.625L336.324 201.301C337.199 201.449 338.378 201.889 338.378 202.99C338.378 203.649 337.901 204.274 337.425 204.75Z" fill="white"/>
<path d="M284.371 288.334L271.053 301.32L274.209 319.671C274.239 319.928 274.239 320.148 274.239 320.405C274.239 321.361 273.8 322.239 272.736 322.239C272.222 322.239 271.709 322.057 271.269 321.8L254.793 313.138L238.317 321.8C237.84 322.057 237.364 322.239 236.851 322.239C235.786 322.239 235.31 321.361 235.31 320.405C235.31 320.148 235.347 319.928 235.381 319.671L238.536 301.32L225.178 288.334C224.739 287.857 224.263 287.229 224.263 286.573C224.263 285.469 225.401 285.03 226.317 284.881L244.742 282.205L252.996 265.509C253.327 264.81 253.949 264.006 254.793 264.006C255.638 264.006 256.259 264.81 256.59 265.509L264.847 282.205L283.269 284.881C284.148 285.03 285.324 285.469 285.324 286.573C285.324 287.229 284.851 287.857 284.371 288.334Z" fill="white"/>
<path d="M109.198 204.75L95.877 217.74L99.0324 236.088C99.0629 236.345 99.0629 236.564 99.0629 236.824C99.0629 237.781 98.627 238.656 97.5629 238.656C97.0493 238.656 96.5358 238.476 96.0966 238.22L79.6203 229.558L63.1406 238.22C62.6642 238.476 62.1878 238.656 61.6743 238.656C60.6102 238.656 60.1338 237.781 60.1338 236.824C60.1338 236.564 60.171 236.345 60.2047 236.088L63.3601 217.74L50.002 204.75C49.5628 204.274 49.0898 203.649 49.0898 202.99C49.0898 201.889 50.2284 201.449 51.1439 201.301L69.5662 198.625L77.8196 181.929C78.154 181.23 78.7723 180.426 79.6203 180.426C80.4649 180.426 81.0865 181.23 81.4175 181.929L89.6709 198.625L108.097 201.301C108.972 201.449 110.151 201.889 110.151 202.99C110.151 203.649 109.674 204.274 109.198 204.75Z" fill="white"/>
<path d="M162.25 288.334L148.929 301.32L152.084 319.671C152.118 319.928 152.118 320.148 152.118 320.405C152.118 321.361 151.679 322.239 150.615 322.239C150.101 322.239 149.588 322.057 149.148 321.8L132.672 313.138L116.192 321.8C115.719 322.057 115.243 322.239 114.729 322.239C113.662 322.239 113.189 321.361 113.189 320.405C113.189 320.148 113.226 319.928 113.256 319.671L116.415 301.32L103.054 288.334C102.618 287.857 102.142 287.229 102.142 286.573C102.142 285.469 103.28 285.03 104.196 284.881L122.618 282.205L130.875 265.509C131.206 264.81 131.824 264.006 132.672 264.006C133.517 264.006 134.138 264.81 134.469 265.509L142.723 282.205L161.148 284.881C162.023 285.03 163.202 285.469 163.202 286.573C163.202 287.229 162.726 287.857 162.25 288.334Z" fill="white"/>
<path d="M193.732 152.389C185.958 152.389 178.414 153.912 171.303 156.919C164.441 159.821 158.282 163.973 152.995 169.264C147.705 174.551 143.553 180.71 140.651 187.571C137.644 194.679 136.12 202.227 136.12 210C136.12 217.774 137.644 225.321 140.651 232.429C143.553 239.291 147.705 245.449 152.995 250.737C158.282 256.027 164.441 260.179 171.303 263.081C178.414 266.088 185.958 267.612 193.732 267.612C201.505 267.612 209.053 266.088 216.161 263.081C223.022 260.179 229.181 256.027 234.468 250.737C239.759 245.449 243.911 239.291 246.813 232.429C249.819 225.321 251.343 217.774 251.343 210C251.343 202.227 249.819 194.679 246.813 187.571C243.911 180.71 239.759 174.551 234.468 169.264C229.181 163.973 223.022 159.821 216.161 156.919C209.053 153.912 201.505 152.389 193.732 152.389ZM193.732 162.196C220.134 162.196 241.539 183.598 241.539 210C241.539 236.402 220.134 257.808 193.732 257.808C167.33 257.808 145.924 236.402 145.924 210C145.924 183.598 167.33 162.196 193.732 162.196Z" fill="white"/>
<path d="M208.134 219.192C203.056 219.192 198.941 215.077 198.941 209.999C198.941 204.922 203.056 200.807 208.134 200.807C213.212 200.807 217.33 204.922 217.33 209.999C217.33 215.077 213.212 219.192 208.134 219.192Z" fill="white"/>
<path d="M186.685 200.5C181.608 200.5 177.489 196.385 177.489 191.307C177.489 186.23 181.608 182.111 186.685 182.111C191.763 182.111 195.878 186.23 195.878 191.307C195.878 196.385 191.763 200.5 186.685 200.5Z" fill="white"/>
<path d="M186.685 237.889C181.608 237.889 177.489 233.77 177.489 228.693C177.489 223.615 181.608 219.5 186.685 219.5C191.763 219.5 195.878 223.615 195.878 228.693C195.878 233.77 191.763 237.889 186.685 237.889Z" fill="white"/>
</svg>
