<svg width="388" height="420" viewBox="0 0 388 420" fill="none" xmlns="http://www.w3.org/2000/svg">
<path d="M223.309 320.024L209.988 333.013L213.144 351.361C213.178 351.618 213.178 351.838 213.178 352.094C213.178 353.054 212.738 353.929 211.674 353.929C211.161 353.929 210.647 353.747 210.208 353.49L193.732 344.831L177.255 353.49C176.779 353.747 176.303 353.929 175.789 353.929C174.725 353.929 174.248 353.054 174.248 352.094C174.248 351.838 174.286 351.618 174.316 351.361L177.475 333.013L164.117 320.024C163.678 319.547 163.201 318.922 163.201 318.263C163.201 317.162 164.34 316.723 165.255 316.571L183.681 313.899L191.934 297.203C192.265 296.5 192.887 295.699 193.732 295.699C194.576 295.699 195.198 296.5 195.529 297.203L203.786 313.899L222.208 316.571C223.086 316.723 224.262 317.162 224.262 318.263C224.262 318.922 223.786 319.547 223.309 320.024Z" fill="white"/>
<path d="M284.371 288.334L271.053 301.32L274.209 319.671C274.239 319.928 274.239 320.148 274.239 320.405C274.239 321.361 273.8 322.239 272.736 322.239C272.222 322.239 271.709 322.057 271.269 321.8L254.793 313.138L238.317 321.8C237.84 322.057 237.364 322.239 236.851 322.239C235.786 322.239 235.31 321.361 235.31 320.405C235.31 320.148 235.347 319.928 235.381 319.671L238.536 301.32L225.178 288.334C224.739 287.857 224.263 287.229 224.263 286.573C224.263 285.469 225.401 285.03 226.317 284.881L244.742 282.205L252.996 265.509C253.327 264.81 253.949 264.006 254.793 264.006C255.638 264.006 256.259 264.81 256.59 265.509L264.847 282.205L283.269 284.881C284.148 285.03 285.324 285.469 285.324 286.573C285.324 287.229 284.851 287.857 284.371 288.334Z" fill="white"/>
<path d="M162.249 288.334L148.928 301.32L152.083 319.671C152.117 319.928 152.117 320.148 152.117 320.405C152.117 321.361 151.678 322.239 150.614 322.239C150.1 322.239 149.587 322.057 149.147 321.8L132.671 313.138L116.191 321.8C115.718 322.057 115.242 322.239 114.728 322.239C113.661 322.239 113.188 321.361 113.188 320.405C113.188 320.148 113.225 319.928 113.255 319.671L116.414 301.32L103.053 288.334C102.617 287.857 102.141 287.229 102.141 286.573C102.141 285.469 103.279 285.03 104.195 284.881L122.617 282.205L130.874 265.509C131.205 264.81 131.823 264.006 132.671 264.006C133.516 264.006 134.137 264.81 134.468 265.509L142.722 282.205L161.147 284.881C162.022 285.03 163.201 285.469 163.201 286.573C163.201 287.229 162.725 287.857 162.249 288.334Z" fill="white"/>
<path d="M193.732 152.389C185.958 152.389 178.414 153.912 171.303 156.919C164.441 159.821 158.282 163.973 152.995 169.264C147.705 174.551 143.553 180.71 140.651 187.571C137.644 194.679 136.12 202.227 136.12 210C136.12 217.774 137.644 225.321 140.651 232.429C143.553 239.291 147.705 245.449 152.995 250.737C158.282 256.027 164.441 260.179 171.303 263.081C178.414 266.088 185.958 267.612 193.732 267.612C201.505 267.612 209.053 266.088 216.161 263.081C223.022 260.179 229.181 256.027 234.468 250.737C239.759 245.449 243.911 239.291 246.813 232.429C249.819 225.321 251.343 217.774 251.343 210C251.343 202.227 249.819 194.679 246.813 187.571C243.911 180.71 239.759 174.551 234.468 169.264C229.181 163.973 223.022 159.821 216.161 156.919C209.053 153.912 201.505 152.389 193.732 152.389ZM193.732 162.196C220.134 162.196 241.539 183.598 241.539 210C241.539 236.402 220.134 257.808 193.732 257.808C167.33 257.808 145.924 236.402 145.924 210C145.924 183.598 167.33 162.196 193.732 162.196Z" fill="white"/>
<path d="M208.134 219.192C203.056 219.192 198.941 215.077 198.941 209.999C198.941 204.922 203.056 200.807 208.134 200.807C213.212 200.807 217.33 204.922 217.33 209.999C217.33 215.077 213.212 219.192 208.134 219.192Z" fill="white"/>
<path d="M186.685 200.5C181.608 200.5 177.489 196.385 177.489 191.307C177.489 186.23 181.608 182.111 186.685 182.111C191.763 182.111 195.878 186.23 195.878 191.307C195.878 196.385 191.763 200.5 186.685 200.5Z" fill="white"/>
<path d="M186.685 237.889C181.608 237.889 177.489 233.77 177.489 228.693C177.489 223.615 181.608 219.5 186.685 219.5C191.763 219.5 195.878 223.615 195.878 228.693C195.878 233.77 191.763 237.889 186.685 237.889Z" fill="white"/>
</svg>
