<svg width="388" height="420" viewBox="0 0 388 420" fill="none" xmlns="http://www.w3.org/2000/svg">
<path d="M248.399 242.433C230.487 242.433 215.967 227.913 215.967 210.001C215.967 192.089 230.487 177.568 248.399 177.568C266.311 177.568 280.832 192.089 280.832 210.001C280.832 227.913 266.311 242.433 248.399 242.433Z" fill="white"/>
<path d="M172.723 176.486C154.811 176.486 140.291 161.966 140.291 144.054C140.291 126.141 154.811 111.621 172.723 111.621C190.636 111.621 205.156 126.141 205.156 144.054C205.156 161.966 190.636 176.486 172.723 176.486Z" fill="white"/>
<path d="M172.723 308.379C154.811 308.379 140.291 293.858 140.291 275.946C140.291 258.034 154.811 243.514 172.723 243.514C190.636 243.514 205.156 258.034 205.156 275.946C205.156 293.858 190.636 308.379 172.723 308.379Z" fill="white"/>
</svg>
