<svg width="388" height="420" viewBox="0 0 388 420" fill="none" xmlns="http://www.w3.org/2000/svg">
<path d="M223.309 80.8316L209.988 93.8181L213.144 112.169C213.178 112.426 213.178 112.646 213.178 112.903C213.178 113.859 212.738 114.737 211.674 114.737C211.161 114.737 210.647 114.555 210.208 114.298L193.732 105.636L177.255 114.298C176.779 114.555 176.303 114.737 175.789 114.737C174.725 114.737 174.248 113.859 174.248 112.903C174.248 112.646 174.286 112.426 174.316 112.169L177.475 93.8181L164.117 80.8316C163.678 80.3519 163.201 79.7269 163.201 79.0715C163.201 77.9667 164.34 77.5276 165.255 77.3789L183.681 74.7032L191.934 58.0073C192.265 57.308 192.887 56.5039 193.732 56.5039C194.576 56.5039 195.198 57.308 195.529 58.0073L203.786 74.7032L222.208 77.3789C223.086 77.5276 224.262 77.9667 224.262 79.0715C224.262 79.7269 223.786 80.3519 223.309 80.8316Z" fill="white"/>
<path d="M193.733 247.021C190.348 247.021 187.604 244.274 187.604 240.889V179.109C187.604 175.727 190.348 172.98 193.733 172.98C197.118 172.98 199.861 175.727 199.861 179.109V240.889C199.861 244.274 197.118 247.021 193.733 247.021Z" fill="white"/>
<path d="M174.121 229.612C170.736 229.612 167.989 226.868 167.989 223.483V196.517C167.989 193.132 170.736 190.389 174.121 190.389C177.506 190.389 180.249 193.132 180.249 196.517V223.483C180.249 226.868 177.506 229.612 174.121 229.612Z" fill="white"/>
<path d="M213.344 229.612C209.959 229.612 207.216 226.868 207.216 223.483V196.517C207.216 193.132 209.959 190.389 213.344 190.389C216.729 190.389 219.476 193.132 219.476 196.517V223.483C219.476 226.868 216.729 229.612 213.344 229.612Z" fill="white"/>
<path d="M193.732 152.389C185.958 152.389 178.414 153.912 171.303 156.919C164.441 159.821 158.282 163.973 152.995 169.264C147.705 174.551 143.553 180.71 140.651 187.571C137.644 194.679 136.12 202.227 136.12 210C136.12 217.774 137.644 225.321 140.651 232.429C143.553 239.291 147.705 245.449 152.995 250.737C158.282 256.027 164.441 260.179 171.303 263.081C178.414 266.088 185.958 267.612 193.732 267.612C201.505 267.612 209.053 266.088 216.161 263.081C223.022 260.179 229.181 256.027 234.468 250.737C239.759 245.449 243.911 239.291 246.813 232.429C249.819 225.321 251.343 217.774 251.343 210C251.343 202.227 249.819 194.679 246.813 187.571C243.911 180.71 239.759 174.551 234.468 169.264C229.181 163.973 223.022 159.821 216.161 156.919C209.053 153.912 201.505 152.389 193.732 152.389ZM193.732 162.196C220.134 162.196 241.539 183.598 241.539 210C241.539 236.402 220.134 257.808 193.732 257.808C167.33 257.808 145.924 236.402 145.924 210C145.924 183.598 167.33 162.196 193.732 162.196Z" fill="white"/>
</svg>
