<svg width="388" height="420" viewBox="0 0 388 420" fill="none" xmlns="http://www.w3.org/2000/svg">
<path d="M223.312 80.8316L209.991 93.8181L213.147 112.169C213.181 112.426 213.181 112.646 213.181 112.903C213.181 113.859 212.741 114.737 211.677 114.737C211.164 114.737 210.65 114.555 210.211 114.298L193.735 105.636L177.258 114.298C176.782 114.555 176.305 114.737 175.792 114.737C174.728 114.737 174.251 113.859 174.251 112.903C174.251 112.646 174.289 112.426 174.319 112.169L177.478 93.8181L164.12 80.8316C163.68 80.3519 163.204 79.7269 163.204 79.0715C163.204 77.9667 164.343 77.5276 165.258 77.3789L183.684 74.7032L191.937 58.0073C192.268 57.308 192.89 56.5039 193.735 56.5039C194.579 56.5039 195.201 57.308 195.532 58.0073L203.789 74.7032L222.211 77.3789C223.089 77.5276 224.265 77.9667 224.265 79.0715C224.265 79.7269 223.789 80.3519 223.312 80.8316Z" fill="white"/>
<path d="M223.312 320.024L209.991 333.013L213.147 351.361C213.181 351.618 213.181 351.838 213.181 352.094C213.181 353.054 212.741 353.929 211.677 353.929C211.164 353.929 210.65 353.747 210.211 353.49L193.735 344.831L177.258 353.49C176.782 353.747 176.305 353.929 175.792 353.929C174.728 353.929 174.251 353.054 174.251 352.094C174.251 351.838 174.289 351.618 174.319 351.361L177.478 333.013L164.12 320.024C163.68 319.547 163.204 318.922 163.204 318.263C163.204 317.162 164.343 316.723 165.258 316.571L183.684 313.899L191.937 297.203C192.268 296.5 192.89 295.699 193.735 295.699C194.579 295.699 195.201 296.5 195.532 297.203L203.789 313.899L222.211 316.571C223.089 316.723 224.265 317.162 224.265 318.263C224.265 318.922 223.789 319.547 223.312 320.024Z" fill="white"/>
<path d="M193.736 247.021C190.351 247.021 187.607 244.274 187.607 240.889V179.109C187.607 175.727 190.351 172.98 193.736 172.98C197.121 172.98 199.864 175.727 199.864 179.109V240.889C199.864 244.274 197.121 247.021 193.736 247.021Z" fill="white"/>
<path d="M174.124 229.612C170.739 229.612 167.992 226.868 167.992 223.483V196.517C167.992 193.132 170.739 190.389 174.124 190.389C177.509 190.389 180.252 193.132 180.252 196.517V223.483C180.252 226.868 177.509 229.612 174.124 229.612Z" fill="white"/>
<path d="M213.347 229.612C209.962 229.612 207.219 226.868 207.219 223.483V196.517C207.219 193.132 209.962 190.389 213.347 190.389C216.732 190.389 219.479 193.132 219.479 196.517V223.483C219.479 226.868 216.732 229.612 213.347 229.612Z" fill="white"/>
<path d="M193.735 152.389C185.961 152.389 178.417 153.912 171.305 156.919C164.444 159.821 158.285 163.973 152.998 169.264C147.708 174.551 143.555 180.71 140.653 187.571C137.647 194.679 136.123 202.227 136.123 210C136.123 217.774 137.647 225.321 140.653 232.429C143.555 239.291 147.708 245.449 152.998 250.737C158.285 256.027 164.444 260.179 171.305 263.081C178.417 266.088 185.961 267.612 193.735 267.612C201.508 267.612 209.055 266.088 216.164 263.081C223.025 260.179 229.184 256.027 234.471 250.737C239.762 245.449 243.914 239.291 246.816 232.429C249.822 225.321 251.346 217.774 251.346 210C251.346 202.227 249.822 194.679 246.816 187.571C243.914 180.71 239.762 174.551 234.471 169.264C229.184 163.973 223.025 159.821 216.164 156.919C209.055 153.912 201.508 152.389 193.735 152.389ZM193.735 162.196C220.137 162.196 241.542 183.598 241.542 210C241.542 236.402 220.137 257.808 193.735 257.808C167.333 257.808 145.927 236.402 145.927 210C145.927 183.598 167.333 162.196 193.735 162.196Z" fill="white"/>
</svg>
