<svg width="388" height="420" viewBox="0 0 388 420" fill="none" xmlns="http://www.w3.org/2000/svg">
<path d="M223.311 80.8316L209.99 93.8181L213.146 112.169C213.18 112.426 213.18 112.646 213.18 112.903C213.18 113.859 212.74 114.737 211.676 114.737C211.163 114.737 210.649 114.555 210.21 114.298L193.734 105.636L177.257 114.298C176.781 114.555 176.304 114.737 175.791 114.737C174.727 114.737 174.25 113.859 174.25 112.903C174.25 112.646 174.288 112.426 174.318 112.169L177.477 93.8181L164.119 80.8316C163.679 80.3519 163.203 79.7269 163.203 79.0715C163.203 77.9667 164.342 77.5276 165.257 77.3789L183.683 74.7032L191.936 58.0073C192.267 57.308 192.889 56.5039 193.734 56.5039C194.578 56.5039 195.2 57.308 195.531 58.0073L203.788 74.7032L222.21 77.3789C223.088 77.5276 224.264 77.9667 224.264 79.0715C224.264 79.7269 223.788 80.3519 223.311 80.8316Z" fill="white"/>
<path d="M337.426 204.75L324.105 217.74L327.26 236.088C327.291 236.345 327.291 236.564 327.291 236.824C327.291 237.781 326.855 238.656 325.787 238.656C325.274 238.656 324.764 238.476 324.325 238.22L307.848 229.558L291.369 238.22C290.892 238.476 290.416 238.656 289.902 238.656C288.838 238.656 288.362 237.781 288.362 236.824C288.362 236.564 288.399 236.345 288.433 236.088L291.588 217.74L278.23 204.75C277.791 204.274 277.314 203.649 277.314 202.99C277.314 201.889 278.456 201.449 279.369 201.301L297.794 198.625L306.048 181.929C306.382 181.23 307 180.426 307.848 180.426C308.693 180.426 309.311 181.23 309.642 181.929L317.899 198.625L336.325 201.301C337.2 201.449 338.379 201.889 338.379 202.99C338.379 203.649 337.902 204.274 337.426 204.75Z" fill="white"/>
<path d="M284.371 288.334L271.053 301.32L274.209 319.671C274.239 319.928 274.239 320.148 274.239 320.405C274.239 321.361 273.8 322.239 272.736 322.239C272.222 322.239 271.709 322.057 271.269 321.8L254.793 313.138L238.317 321.8C237.84 322.057 237.364 322.239 236.851 322.239C235.786 322.239 235.31 321.361 235.31 320.405C235.31 320.148 235.347 319.928 235.381 319.671L238.536 301.32L225.178 288.334C224.739 287.857 224.263 287.229 224.263 286.573C224.263 285.469 225.401 285.03 226.317 284.881L244.742 282.205L252.996 265.509C253.327 264.81 253.949 264.006 254.793 264.006C255.638 264.006 256.259 264.81 256.59 265.509L264.847 282.205L283.269 284.881C284.148 285.03 285.324 285.469 285.324 286.573C285.324 287.229 284.851 287.857 284.371 288.334Z" fill="white"/>
<path d="M284.371 112.52L271.053 125.51L274.209 143.857C274.239 144.114 274.239 144.334 274.239 144.591C274.239 145.55 273.8 146.425 272.736 146.425C272.222 146.425 271.709 146.243 271.269 145.986L254.793 137.327L238.317 145.986C237.84 146.243 237.364 146.425 236.851 146.425C235.786 146.425 235.31 145.55 235.31 144.591C235.31 144.334 235.347 144.114 235.381 143.857L238.536 125.51L225.178 112.52C224.739 112.043 224.263 111.418 224.263 110.76C224.263 109.658 225.401 109.219 226.317 109.067L244.742 106.395L252.996 89.6987C253.327 88.996 253.949 88.1953 254.793 88.1953C255.638 88.1953 256.259 88.996 256.59 89.6987L264.847 106.395L283.269 109.067C284.148 109.219 285.324 109.658 285.324 110.76C285.324 111.418 284.851 112.043 284.371 112.52Z" fill="white"/>
<path d="M109.2 204.75L95.879 217.74L99.0344 236.088C99.0648 236.345 99.0648 236.564 99.0648 236.824C99.0648 237.781 98.629 238.656 97.5648 238.656C97.0513 238.656 96.5378 238.476 96.0986 238.22L79.6222 229.558L63.1425 238.22C62.6662 238.476 62.1898 238.656 61.6763 238.656C60.6121 238.656 60.1357 237.781 60.1357 236.824C60.1357 236.564 60.1729 236.345 60.2067 236.088L63.3621 217.74L50.004 204.75C49.5648 204.274 49.0918 203.649 49.0918 202.99C49.0918 201.889 50.2303 201.449 51.1459 201.301L69.5681 198.625L77.8215 181.929C78.156 181.23 78.7742 180.426 79.6222 180.426C80.4668 180.426 81.0884 181.23 81.4195 181.929L89.6729 198.625L108.099 201.301C108.974 201.449 110.153 201.889 110.153 202.99C110.153 203.649 109.676 204.274 109.2 204.75Z" fill="white"/>
<path d="M162.25 288.334L148.929 301.32L152.084 319.671C152.118 319.928 152.118 320.148 152.118 320.405C152.118 321.361 151.679 322.239 150.615 322.239C150.101 322.239 149.588 322.057 149.148 321.8L132.672 313.138L116.192 321.8C115.719 322.057 115.243 322.239 114.729 322.239C113.662 322.239 113.189 321.361 113.189 320.405C113.189 320.148 113.226 319.928 113.256 319.671L116.415 301.32L103.054 288.334C102.618 287.857 102.142 287.229 102.142 286.573C102.142 285.469 103.28 285.03 104.196 284.881L122.618 282.205L130.875 265.509C131.206 264.81 131.824 264.006 132.672 264.006C133.517 264.006 134.138 264.81 134.469 265.509L142.723 282.205L161.148 284.881C162.023 285.03 163.202 285.469 163.202 286.573C163.202 287.229 162.726 287.857 162.25 288.334Z" fill="white"/>
<path d="M162.25 112.52L148.929 125.51L152.084 143.857C152.118 144.114 152.118 144.334 152.118 144.591C152.118 145.55 151.679 146.425 150.615 146.425C150.101 146.425 149.588 146.243 149.148 145.986L132.672 137.327L116.192 145.986C115.719 146.243 115.243 146.425 114.729 146.425C113.662 146.425 113.189 145.55 113.189 144.591C113.189 144.334 113.226 144.114 113.256 143.857L116.415 125.51L103.054 112.52C102.618 112.043 102.142 111.418 102.142 110.76C102.142 109.658 103.28 109.219 104.196 109.067L122.618 106.395L130.875 89.6987C131.206 88.996 131.824 88.1953 132.672 88.1953C133.517 88.1953 134.138 88.996 134.469 89.6987L142.723 106.395L161.148 109.067C162.023 109.219 163.202 109.658 163.202 110.76C163.202 111.418 162.726 112.043 162.25 112.52Z" fill="white"/>
<path d="M193.732 247.021C190.347 247.021 187.604 244.274 187.604 240.889V179.109C187.604 175.727 190.347 172.98 193.732 172.98C197.117 172.98 199.86 175.727 199.86 179.109V240.889C199.86 244.274 197.117 247.021 193.732 247.021Z" fill="white"/>
<path d="M174.121 229.612C170.736 229.612 167.989 226.868 167.989 223.483V196.517C167.989 193.132 170.736 190.389 174.121 190.389C177.506 190.389 180.249 193.132 180.249 196.517V223.483C180.249 226.868 177.506 229.612 174.121 229.612Z" fill="white"/>
<path d="M213.343 229.612C209.958 229.612 207.215 226.868 207.215 223.483V196.517C207.215 193.132 209.958 190.389 213.343 190.389C216.728 190.389 219.475 193.132 219.475 196.517V223.483C219.475 226.868 216.728 229.612 213.343 229.612Z" fill="white"/>
<path d="M193.734 152.389C185.96 152.389 178.416 153.912 171.305 156.919C164.443 159.821 158.284 163.973 152.997 169.264C147.707 174.551 143.555 180.71 140.652 187.571C137.646 194.679 136.122 202.227 136.122 210C136.122 217.774 137.646 225.321 140.652 232.429C143.555 239.291 147.707 245.449 152.997 250.737C158.284 256.027 164.443 260.179 171.305 263.081C178.416 266.088 185.96 267.612 193.734 267.612C201.507 267.612 209.055 266.088 216.163 263.081C223.024 260.179 229.183 256.027 234.47 250.737C239.761 245.449 243.913 239.291 246.815 232.429C249.821 225.321 251.345 217.774 251.345 210C251.345 202.227 249.821 194.679 246.815 187.571C243.913 180.71 239.761 174.551 234.47 169.264C229.183 163.973 223.024 159.821 216.163 156.919C209.055 153.912 201.507 152.389 193.734 152.389ZM193.734 162.196C220.136 162.196 241.541 183.598 241.541 210C241.541 236.402 220.136 257.808 193.734 257.808C167.332 257.808 145.926 236.402 145.926 210C145.926 183.598 167.332 162.196 193.734 162.196Z" fill="white"/>
</svg>
