<svg width="388" height="420" viewBox="0 0 388 420" fill="none" xmlns="http://www.w3.org/2000/svg">
<path d="M223.311 320.024L209.99 333.013L213.146 351.361C213.18 351.618 213.18 351.838 213.18 352.094C213.18 353.054 212.74 353.929 211.676 353.929C211.163 353.929 210.649 353.747 210.21 353.49L193.734 344.831L177.257 353.49C176.781 353.747 176.304 353.929 175.791 353.929C174.727 353.929 174.25 353.054 174.25 352.094C174.25 351.838 174.288 351.618 174.318 351.361L177.477 333.013L164.119 320.024C163.679 319.547 163.203 318.922 163.203 318.263C163.203 317.162 164.342 316.723 165.257 316.571L183.683 313.899L191.936 297.203C192.267 296.5 192.889 295.699 193.734 295.699C194.578 295.699 195.2 296.5 195.531 297.203L203.788 313.899L222.21 316.571C223.088 316.723 224.264 317.162 224.264 318.263C224.264 318.922 223.788 319.547 223.311 320.024Z" fill="white"/>
<path d="M284.371 288.334L271.053 301.32L274.209 319.671C274.239 319.928 274.239 320.148 274.239 320.405C274.239 321.361 273.8 322.239 272.736 322.239C272.222 322.239 271.709 322.057 271.269 321.8L254.793 313.138L238.317 321.8C237.84 322.057 237.364 322.239 236.851 322.239C235.786 322.239 235.31 321.361 235.31 320.405C235.31 320.148 235.347 319.928 235.381 319.671L238.536 301.32L225.178 288.334C224.739 287.857 224.263 287.229 224.263 286.573C224.263 285.469 225.401 285.03 226.317 284.881L244.742 282.205L252.996 265.509C253.327 264.81 253.949 264.006 254.793 264.006C255.638 264.006 256.259 264.81 256.59 265.509L264.847 282.205L283.269 284.881C284.148 285.03 285.324 285.469 285.324 286.573C285.324 287.229 284.851 287.857 284.371 288.334Z" fill="white"/>
<path d="M162.25 288.334L148.929 301.32L152.084 319.671C152.118 319.928 152.118 320.148 152.118 320.405C152.118 321.361 151.679 322.239 150.615 322.239C150.101 322.239 149.588 322.057 149.148 321.8L132.672 313.138L116.192 321.8C115.719 322.057 115.243 322.239 114.729 322.239C113.662 322.239 113.189 321.361 113.189 320.405C113.189 320.148 113.226 319.928 113.256 319.671L116.415 301.32L103.054 288.334C102.618 287.857 102.142 287.229 102.142 286.573C102.142 285.469 103.28 285.03 104.196 284.881L122.618 282.205L130.875 265.509C131.206 264.81 131.824 264.006 132.672 264.006C133.517 264.006 134.138 264.81 134.469 265.509L142.723 282.205L161.148 284.881C162.023 285.03 163.202 285.469 163.202 286.573C163.202 287.229 162.726 287.857 162.25 288.334Z" fill="white"/>
<path d="M193.732 247.021C190.347 247.021 187.604 244.274 187.604 240.889V179.109C187.604 175.727 190.347 172.98 193.732 172.98C197.117 172.98 199.86 175.727 199.86 179.109V240.889C199.86 244.274 197.117 247.021 193.732 247.021Z" fill="white"/>
<path d="M174.121 229.612C170.736 229.612 167.989 226.868 167.989 223.483V196.517C167.989 193.132 170.736 190.389 174.121 190.389C177.506 190.389 180.249 193.132 180.249 196.517V223.483C180.249 226.868 177.506 229.612 174.121 229.612Z" fill="white"/>
<path d="M213.343 229.612C209.958 229.612 207.215 226.868 207.215 223.483V196.517C207.215 193.132 209.958 190.389 213.343 190.389C216.728 190.389 219.475 193.132 219.475 196.517V223.483C219.475 226.868 216.728 229.612 213.343 229.612Z" fill="white"/>
<path d="M193.734 152.389C185.96 152.389 178.416 153.912 171.305 156.919C164.443 159.821 158.284 163.973 152.997 169.264C147.707 174.551 143.555 180.71 140.652 187.571C137.646 194.679 136.122 202.227 136.122 210C136.122 217.774 137.646 225.321 140.652 232.429C143.555 239.291 147.707 245.449 152.997 250.737C158.284 256.027 164.443 260.179 171.305 263.081C178.416 266.088 185.96 267.612 193.734 267.612C201.507 267.612 209.055 266.088 216.163 263.081C223.024 260.179 229.183 256.027 234.47 250.737C239.761 245.449 243.913 239.291 246.815 232.429C249.821 225.321 251.345 217.774 251.345 210C251.345 202.227 249.821 194.679 246.815 187.571C243.913 180.71 239.761 174.551 234.47 169.264C229.183 163.973 223.024 159.821 216.163 156.919C209.055 153.912 201.507 152.389 193.734 152.389ZM193.734 162.196C220.136 162.196 241.541 183.598 241.541 210C241.541 236.402 220.136 257.808 193.734 257.808C167.332 257.808 145.926 236.402 145.926 210C145.926 183.598 167.332 162.196 193.734 162.196Z" fill="white"/>
</svg>
