<svg width="388" height="420" viewBox="0 0 388 420" fill="none" xmlns="http://www.w3.org/2000/svg">
<path d="M193.733 340.595C181.79 340.595 172.111 330.916 172.111 318.974V101.028C172.111 89.0853 181.79 79.4062 193.733 79.4062C205.676 79.4062 215.355 89.0853 215.355 101.028V318.974C215.355 330.916 205.676 340.595 193.733 340.595Z" fill="white"/>
<path d="M124.543 279.189C112.601 279.189 102.922 269.51 102.922 257.567V162.432C102.922 150.49 112.601 140.811 124.543 140.811C136.486 140.811 146.165 150.49 146.165 162.432V257.567C146.165 269.51 136.486 279.189 124.543 279.189Z" fill="white"/>
<path d="M262.922 279.189C250.98 279.189 241.301 269.51 241.301 257.567V162.432C241.301 150.49 250.98 140.811 262.922 140.811C274.865 140.811 284.544 150.49 284.544 162.432V257.567C284.544 269.51 274.865 279.189 262.922 279.189Z" fill="white"/>
</svg>
