<svg width="388" height="420" viewBox="0 0 388 420" fill="none" xmlns="http://www.w3.org/2000/svg">
<path d="M223.309 80.8316L209.988 93.8181L213.144 112.169C213.178 112.426 213.178 112.646 213.178 112.903C213.178 113.859 212.738 114.737 211.674 114.737C211.161 114.737 210.647 114.555 210.208 114.298L193.732 105.636L177.255 114.298C176.779 114.555 176.303 114.737 175.789 114.737C174.725 114.737 174.248 113.859 174.248 112.903C174.248 112.646 174.286 112.426 174.316 112.169L177.475 93.8181L164.117 80.8316C163.678 80.3519 163.201 79.7269 163.201 79.0715C163.201 77.9667 164.34 77.5276 165.255 77.3789L183.681 74.7032L191.934 58.0073C192.265 57.308 192.887 56.5039 193.732 56.5039C194.576 56.5039 195.198 57.308 195.529 58.0073L203.786 74.7032L222.208 77.3789C223.086 77.5276 224.262 77.9667 224.262 79.0715C224.262 79.7269 223.786 80.3519 223.309 80.8316Z" fill="white"/>
<path d="M193.732 241.611C176.049 241.611 161.664 227.226 161.664 209.54C161.664 191.858 176.049 177.473 193.732 177.473C211.414 177.473 225.803 191.858 225.803 209.54C225.803 227.226 211.414 241.611 193.732 241.611Z" fill="white"/>
<path d="M193.732 172.537C173.296 172.537 156.729 189.105 156.729 209.54C156.729 229.976 173.296 246.544 193.732 246.544C214.168 246.544 230.735 229.976 230.735 209.54C230.735 189.105 214.168 172.537 193.732 172.537ZM193.732 182.405C200.982 182.405 207.796 185.23 212.921 190.355C218.046 195.48 220.867 202.294 220.867 209.54C220.867 216.79 218.046 223.605 212.921 228.73C207.796 233.855 200.982 236.676 193.732 236.676C186.482 236.676 179.668 233.855 174.543 228.73C169.418 223.605 166.597 216.79 166.597 209.54C166.597 202.294 169.418 195.48 174.543 190.355C179.668 185.23 186.482 182.405 193.732 182.405Z" fill="white"/>
<path d="M193.732 151.57C185.911 151.57 178.316 153.104 171.164 156.128C164.259 159.05 158.059 163.226 152.739 168.55C147.418 173.868 143.239 180.067 140.32 186.972C137.293 194.128 135.759 201.719 135.759 209.54C135.759 217.361 137.293 224.955 140.32 232.111C143.239 239.013 147.418 245.212 152.739 250.533C158.059 255.854 164.259 260.033 171.164 262.952C178.316 265.979 185.911 267.513 193.732 267.513C201.553 267.513 209.147 265.979 216.299 262.952C223.205 260.033 229.404 255.854 234.725 250.533C240.046 245.212 244.225 239.013 247.144 232.111C250.171 224.955 251.705 217.361 251.705 209.54C251.705 201.719 250.171 194.128 247.144 186.972C244.225 180.067 240.046 173.868 234.725 168.55C229.404 163.226 223.205 159.05 216.299 156.128C209.147 153.104 201.553 151.57 193.732 151.57ZM193.732 161.435C220.299 161.435 241.836 182.972 241.836 209.54C241.836 236.107 220.299 257.645 193.732 257.645C167.164 257.645 145.627 236.107 145.627 209.54C145.627 182.972 167.164 161.435 193.732 161.435Z" fill="white"/>
</svg>
