<svg width="388" height="420" viewBox="0 0 388 420" fill="none" xmlns="http://www.w3.org/2000/svg">
<path d="M223.309 80.8302L209.988 93.8167L213.144 112.168C213.178 112.425 213.178 112.644 213.178 112.901C213.178 113.857 212.738 114.736 211.674 114.736C211.161 114.736 210.647 114.553 210.208 114.296L193.732 105.634L177.255 114.296C176.779 114.553 176.303 114.736 175.789 114.736C174.725 114.736 174.248 113.857 174.248 112.901C174.248 112.644 174.286 112.425 174.316 112.168L177.475 93.8167L164.117 80.8302C163.678 80.3538 163.201 79.7255 163.201 79.07C163.201 77.9653 164.34 77.5295 165.255 77.3775L183.681 74.7018L191.934 58.0059C192.265 57.3065 192.887 56.5059 193.732 56.5059C194.576 56.5059 195.198 57.3065 195.529 58.0059L203.786 74.7018L222.208 77.3775C223.086 77.5295 224.262 77.9653 224.262 79.07C224.262 79.7255 223.786 80.3538 223.309 80.8302Z" fill="white"/>
<path d="M223.309 320.024L209.988 333.013L213.144 351.361C213.178 351.618 213.178 351.838 213.178 352.094C213.178 353.051 212.738 353.929 211.674 353.929C211.161 353.929 210.647 353.747 210.208 353.49L193.732 344.831L177.255 353.49C176.779 353.747 176.303 353.929 175.789 353.929C174.725 353.929 174.248 353.051 174.248 352.094C174.248 351.838 174.286 351.618 174.316 351.361L177.475 333.013L164.117 320.024C163.678 319.547 163.201 318.922 163.201 318.263C163.201 317.162 164.34 316.723 165.255 316.574L183.681 313.899L191.934 297.203C192.265 296.5 192.887 295.699 193.732 295.699C194.576 295.699 195.198 296.5 195.529 297.203L203.786 313.899L222.208 316.574C223.086 316.723 224.262 317.162 224.262 318.263C224.262 318.922 223.786 319.547 223.309 320.024Z" fill="white"/>
<path d="M337.425 162.102L324.104 175.092L327.259 193.443C327.29 193.7 327.29 193.919 327.29 194.176C327.29 195.132 326.854 196.01 325.79 196.01C325.273 196.01 324.759 195.828 324.324 195.571L307.847 186.909L291.368 195.571C290.891 195.828 290.415 196.01 289.901 196.01C288.837 196.01 288.361 195.132 288.361 194.176C288.361 193.919 288.398 193.7 288.432 193.443L291.587 175.092L278.229 162.102C277.79 161.625 277.313 161 277.313 160.345C277.313 159.24 278.455 158.801 279.371 158.652L297.793 155.977L306.05 139.281C306.378 138.581 306.999 137.777 307.847 137.777C308.692 137.777 309.31 138.581 309.645 139.281L317.898 155.977L336.324 158.652C337.199 158.801 338.378 159.24 338.378 160.345C338.378 161 337.901 161.625 337.425 162.102Z" fill="white"/>
<path d="M284.369 288.334L271.051 301.32L274.207 319.671C274.237 319.928 274.237 320.148 274.237 320.405C274.237 321.361 273.798 322.239 272.734 322.239C272.22 322.239 271.707 322.057 271.271 321.8L254.791 313.138L238.315 321.8C237.838 322.057 237.362 322.239 236.849 322.239C235.784 322.239 235.308 321.361 235.308 320.405C235.308 320.148 235.345 319.928 235.379 319.671L238.534 301.32L225.176 288.334C224.737 287.857 224.261 287.232 224.261 286.573C224.261 285.469 225.399 285.033 226.315 284.881L244.74 282.209L252.994 265.509C253.325 264.81 253.947 264.006 254.791 264.006C255.636 264.006 256.257 264.81 256.588 265.509L264.845 282.209L283.268 284.881C284.146 285.033 285.322 285.469 285.322 286.573C285.322 287.232 284.849 287.857 284.369 288.334Z" fill="white"/>
<path d="M284.369 112.52L271.051 125.51L274.207 143.857C274.237 144.114 274.237 144.334 274.237 144.591C274.237 145.55 273.798 146.425 272.734 146.425C272.22 146.425 271.707 146.243 271.271 145.986L254.791 137.327L238.315 145.986C237.838 146.243 237.362 146.425 236.849 146.425C235.784 146.425 235.308 145.55 235.308 144.591C235.308 144.334 235.345 144.114 235.379 143.857L238.534 125.51L225.176 112.52C224.737 112.043 224.261 111.418 224.261 110.76C224.261 109.658 225.399 109.219 226.315 109.067L244.74 106.395L252.994 89.6987C253.325 88.996 253.947 88.1953 254.791 88.1953C255.636 88.1953 256.257 88.996 256.588 89.6987L264.845 106.395L283.268 109.067C284.146 109.219 285.322 109.658 285.322 110.76C285.322 111.418 284.849 112.043 284.369 112.52Z" fill="white"/>
<path d="M109.196 162.102L95.8755 175.092L99.0309 193.443C99.0647 193.7 99.0647 193.919 99.0647 194.176C99.0647 195.132 98.6255 196.01 97.5614 196.01C97.0478 196.01 96.5343 195.828 96.0951 195.571L79.6188 186.909L63.1391 195.571C62.6627 195.828 62.1863 196.01 61.6728 196.01C60.6087 196.01 60.1323 195.132 60.1323 194.176C60.1323 193.919 60.1695 193.7 60.2032 193.443L63.3586 175.092L50.0005 162.102C49.5613 161.625 49.085 161 49.085 160.345C49.085 159.24 50.2269 158.801 51.139 158.652L69.5647 155.977L77.8214 139.281C78.1525 138.581 78.7708 137.777 79.6187 137.777C80.4633 137.777 81.0816 138.581 81.416 139.281L89.6694 155.977L108.095 158.652C108.97 158.801 110.149 159.24 110.149 160.345C110.149 161 109.673 161.625 109.196 162.102Z" fill="white"/>
<path d="M337.425 238.75L324.104 251.74L327.259 270.088C327.29 270.345 327.29 270.564 327.29 270.821C327.29 271.781 326.854 272.656 325.79 272.656C325.273 272.656 324.759 272.473 324.324 272.216L307.847 263.558L291.368 272.216C290.891 272.473 290.415 272.656 289.901 272.656C288.837 272.656 288.361 271.781 288.361 270.821C288.361 270.564 288.398 270.345 288.432 270.088L291.587 251.74L278.229 238.75C277.79 238.274 277.313 237.649 277.313 236.99C277.313 235.889 278.455 235.449 279.371 235.301L297.793 232.625L306.05 215.929C306.378 215.226 306.999 214.426 307.847 214.426C308.692 214.426 309.31 215.226 309.645 215.929L317.898 232.625L336.324 235.301C337.199 235.449 338.378 235.889 338.378 236.99C338.378 237.649 337.901 238.274 337.425 238.75Z" fill="white"/>
<path d="M109.196 238.75L95.8755 251.74L99.0309 270.088C99.0647 270.345 99.0647 270.564 99.0647 270.821C99.0647 271.781 98.6255 272.656 97.5614 272.656C97.0478 272.656 96.5343 272.473 96.0951 272.216L79.6188 263.558L63.1391 272.216C62.6627 272.473 62.1863 272.656 61.6728 272.656C60.6087 272.656 60.1323 271.781 60.1323 270.821C60.1323 270.564 60.1695 270.345 60.2032 270.088L63.3586 251.74L50.0005 238.75C49.5613 238.274 49.085 237.649 49.085 236.99C49.085 235.889 50.2269 235.449 51.139 235.301L69.5647 232.625L77.8214 215.929C78.1525 215.226 78.7708 214.426 79.6187 214.426C80.4633 214.426 81.0816 215.226 81.416 215.929L89.6694 232.625L108.095 235.301C108.97 235.449 110.149 235.889 110.149 236.99C110.149 237.649 109.673 238.274 109.196 238.75Z" fill="white"/>
<path d="M162.248 288.334L148.927 301.32L152.082 319.671C152.116 319.928 152.116 320.148 152.116 320.405C152.116 321.361 151.677 322.239 150.613 322.239C150.099 322.239 149.586 322.057 149.146 321.8L132.67 313.138L116.19 321.8C115.717 322.057 115.241 322.239 114.728 322.239C113.66 322.239 113.187 321.361 113.187 320.405C113.187 320.148 113.224 319.928 113.255 319.671L116.413 301.32L103.052 288.334C102.616 287.857 102.14 287.232 102.14 286.573C102.14 285.469 103.278 285.033 104.194 284.881L122.616 282.209L130.873 265.509C131.204 264.81 131.825 264.006 132.67 264.006C133.515 264.006 134.136 264.81 134.467 265.509L142.721 282.209L161.146 284.881C162.021 285.033 163.2 285.469 163.2 286.573C163.2 287.232 162.724 287.857 162.248 288.334Z" fill="white"/>
<path d="M162.248 112.52L148.927 125.51L152.082 143.857C152.116 144.114 152.116 144.334 152.116 144.591C152.116 145.55 151.677 146.425 150.613 146.425C150.099 146.425 149.586 146.243 149.146 145.986L132.67 137.327L116.19 145.986C115.717 146.243 115.241 146.425 114.728 146.425C113.66 146.425 113.187 145.55 113.187 144.591C113.187 144.334 113.224 144.114 113.255 143.857L116.413 125.51L103.052 112.52C102.616 112.043 102.14 111.418 102.14 110.76C102.14 109.658 103.278 109.219 104.194 109.067L122.616 106.395L130.873 89.6987C131.204 88.996 131.825 88.1953 132.67 88.1953C133.515 88.1953 134.136 88.996 134.467 89.6987L142.721 106.395L161.146 109.067C162.021 109.219 163.2 109.658 163.2 110.76C163.2 111.418 162.724 112.043 162.248 112.52Z" fill="white"/>
<path d="M193.731 241.611C176.048 241.611 161.663 227.226 161.663 209.54C161.663 191.858 176.048 177.473 193.731 177.473C211.413 177.473 225.802 191.858 225.802 209.54C225.802 227.226 211.413 241.611 193.731 241.611Z" fill="white"/>
<path d="M193.731 172.537C173.295 172.537 156.728 189.105 156.728 209.54C156.728 229.98 173.295 246.544 193.731 246.544C214.167 246.544 230.734 229.98 230.734 209.54C230.734 189.105 214.167 172.537 193.731 172.537ZM193.731 182.405C200.981 182.405 207.795 185.23 212.92 190.355C218.045 195.48 220.866 202.294 220.866 209.54C220.866 216.79 218.045 223.605 212.92 228.73C207.795 233.855 200.981 236.679 193.731 236.679C186.481 236.679 179.667 233.855 174.542 228.73C169.417 223.605 166.596 216.79 166.596 209.54C166.596 202.294 169.417 195.48 174.542 190.355C179.667 185.23 186.481 182.405 193.731 182.405Z" fill="white"/>
<path d="M193.731 151.57C185.91 151.57 178.315 153.104 171.163 156.128C164.258 159.05 158.058 163.226 152.738 168.55C147.417 173.871 143.238 180.067 140.319 186.972C137.292 194.128 135.758 201.719 135.758 209.54C135.758 217.364 137.292 224.955 140.319 232.111C143.238 239.013 147.417 245.212 152.738 250.533C158.058 255.854 164.258 260.033 171.163 262.952C178.315 265.979 185.91 267.513 193.731 267.513C201.552 267.513 209.146 265.979 216.298 262.952C223.204 260.033 229.403 255.854 234.724 250.533C240.045 245.212 244.224 239.013 247.143 232.111C250.17 224.955 251.704 217.364 251.704 209.54C251.704 201.719 250.17 194.128 247.143 186.972C244.224 180.067 240.045 173.871 234.724 168.55C229.403 163.226 223.204 159.05 216.298 156.128C209.146 153.104 201.552 151.57 193.731 151.57ZM193.731 161.435C220.298 161.435 241.836 182.972 241.836 209.54C241.836 236.107 220.298 257.645 193.731 257.645C167.163 257.645 145.626 236.107 145.626 209.54C145.626 182.972 167.163 161.435 193.731 161.435Z" fill="white"/>
</svg>
