<svg width="388" height="420" viewBox="0 0 388 420" fill="none" xmlns="http://www.w3.org/2000/svg">
<path d="M81.8039 245.628L88.4458 200.381C88.8613 197.266 89.3782 194.256 90.4154 191.145L73.6046 194.776L71.7363 181.388L92.5944 174.02H114.287L104.219 245.628H81.8039Z" fill="white"/>
<path d="M142.412 209.616C140.024 228.298 140.649 230.372 147.808 230.372C155.281 230.372 156.733 228.298 158.912 210.031C161.196 191.352 160.47 189.278 153.622 189.278C146.254 189.278 144.801 191.352 142.412 209.616ZM181.017 210.656C177.074 238.676 168.98 247.082 146.669 247.082C125.497 247.082 116.26 237.845 120.308 208.994C124.25 180.974 132.76 172.568 154.659 172.568C176.97 172.568 185.064 181.805 181.017 210.656Z" fill="white"/>
<path d="M210.493 209.616C208.105 228.298 208.73 230.372 215.889 230.372C223.362 230.372 224.814 228.298 226.993 210.031C229.277 191.352 228.551 189.278 221.703 189.278C214.331 189.278 212.882 191.352 210.493 209.616ZM249.101 210.656C245.156 238.676 237.061 247.082 214.75 247.082C193.578 247.082 184.341 237.845 188.389 208.994C192.331 180.974 200.841 172.568 222.74 172.568C245.054 172.568 253.145 181.805 249.101 210.656Z" fill="white"/>
<path d="M278.574 209.616C276.186 228.298 276.811 230.372 283.97 230.372C291.443 230.372 292.895 228.298 295.074 210.031C297.358 191.352 296.632 189.278 289.784 189.278C282.412 189.278 280.963 191.352 278.574 209.616ZM317.183 210.656C313.237 238.676 305.142 247.082 282.831 247.082C261.659 247.082 252.422 237.845 256.47 208.994C260.412 180.974 268.922 172.568 290.821 172.568C313.135 172.568 321.226 181.805 317.183 210.656Z" fill="white"/>
</svg>
