<svg width="388" height="420" viewBox="0 0 388 420" fill="none" xmlns="http://www.w3.org/2000/svg">
<path d="M223.31 320.024L209.989 333.013L213.145 351.361C213.179 351.618 213.179 351.838 213.179 352.094C213.179 353.054 212.739 353.929 211.675 353.929C211.162 353.929 210.648 353.747 210.209 353.49L193.733 344.831L177.256 353.49C176.78 353.747 176.304 353.929 175.79 353.929C174.726 353.929 174.249 353.054 174.249 352.094C174.249 351.838 174.287 351.618 174.317 351.361L177.476 333.013L164.118 320.024C163.679 319.547 163.202 318.922 163.202 318.263C163.202 317.162 164.341 316.723 165.256 316.571L183.682 313.899L191.935 297.203C192.266 296.5 192.888 295.699 193.733 295.699C194.577 295.699 195.199 296.5 195.53 297.203L203.787 313.899L222.209 316.571C223.087 316.723 224.263 317.162 224.263 318.263C224.263 318.922 223.787 319.547 223.31 320.024Z" fill="white"/>
<path d="M284.371 288.334L271.053 301.32L274.209 319.671C274.239 319.928 274.239 320.148 274.239 320.405C274.239 321.361 273.8 322.239 272.736 322.239C272.222 322.239 271.709 322.057 271.269 321.8L254.793 313.138L238.317 321.8C237.84 322.057 237.364 322.239 236.851 322.239C235.786 322.239 235.31 321.361 235.31 320.405C235.31 320.148 235.347 319.928 235.381 319.671L238.536 301.32L225.178 288.334C224.739 287.857 224.263 287.229 224.263 286.573C224.263 285.469 225.401 285.03 226.317 284.881L244.742 282.205L252.996 265.509C253.327 264.81 253.949 264.006 254.793 264.006C255.638 264.006 256.259 264.81 256.59 265.509L264.847 282.205L283.269 284.881C284.148 285.03 285.324 285.469 285.324 286.573C285.324 287.229 284.851 287.857 284.371 288.334Z" fill="white"/>
<path d="M162.25 288.334L148.929 301.32L152.084 319.671C152.118 319.928 152.118 320.148 152.118 320.405C152.118 321.361 151.679 322.239 150.615 322.239C150.101 322.239 149.588 322.057 149.148 321.8L132.672 313.138L116.192 321.8C115.719 322.057 115.243 322.239 114.729 322.239C113.662 322.239 113.189 321.361 113.189 320.405C113.189 320.148 113.226 319.928 113.256 319.671L116.415 301.32L103.054 288.334C102.618 287.857 102.142 287.229 102.142 286.573C102.142 285.469 103.28 285.03 104.196 284.881L122.618 282.205L130.875 265.509C131.206 264.81 131.824 264.006 132.672 264.006C133.517 264.006 134.138 264.81 134.469 265.509L142.723 282.205L161.148 284.881C162.023 285.03 163.202 285.469 163.202 286.573C163.202 287.229 162.726 287.857 162.25 288.334Z" fill="white"/>
<path d="M193.733 241.611C176.05 241.611 161.665 227.226 161.665 209.54C161.665 191.858 176.05 177.473 193.733 177.473C211.415 177.473 225.804 191.858 225.804 209.54C225.804 227.226 211.415 241.611 193.733 241.611Z" fill="white"/>
<path d="M193.733 172.537C173.297 172.537 156.729 189.105 156.729 209.54C156.729 229.98 173.297 246.544 193.733 246.544C214.169 246.544 230.736 229.98 230.736 209.54C230.736 189.105 214.169 172.537 193.733 172.537ZM193.733 182.405C200.983 182.405 207.797 185.23 212.922 190.355C218.047 195.48 220.868 202.294 220.868 209.54C220.868 216.79 218.047 223.605 212.922 228.73C207.797 233.855 200.983 236.679 193.733 236.679C186.483 236.679 179.669 233.855 174.544 228.73C169.419 223.605 166.598 216.79 166.598 209.54C166.598 202.294 169.419 195.48 174.544 190.355C179.669 185.23 186.483 182.405 193.733 182.405Z" fill="white"/>
<path d="M193.733 151.57C185.912 151.57 178.317 153.104 171.165 156.128C164.26 159.05 158.06 163.226 152.739 168.55C147.419 173.871 143.239 180.067 140.321 186.972C137.294 194.128 135.76 201.719 135.76 209.54C135.76 217.364 137.294 224.955 140.321 232.111C143.239 239.013 147.419 245.212 152.739 250.533C158.06 255.854 164.26 260.033 171.165 262.952C178.317 265.979 185.912 267.513 193.733 267.513C201.554 267.513 209.148 265.979 216.3 262.952C223.206 260.033 229.405 255.854 234.726 250.533C240.047 245.212 244.226 239.013 247.145 232.111C250.172 224.955 251.706 217.364 251.706 209.54C251.706 201.719 250.172 194.128 247.145 186.972C244.226 180.067 240.047 173.871 234.726 168.55C229.405 163.226 223.206 159.05 216.3 156.128C209.148 153.104 201.554 151.57 193.733 151.57ZM193.733 161.435C220.3 161.435 241.837 182.972 241.837 209.54C241.837 236.107 220.3 257.645 193.733 257.645C167.165 257.645 145.628 236.107 145.628 209.54C145.628 182.972 167.165 161.435 193.733 161.435Z" fill="white"/>
</svg>
