<svg width="388" height="420" viewBox="0 0 388 420" fill="none" xmlns="http://www.w3.org/2000/svg">
<path d="M223.311 80.8316L209.99 93.8181L213.146 112.169C213.18 112.426 213.18 112.646 213.18 112.903C213.18 113.859 212.74 114.737 211.676 114.737C211.163 114.737 210.649 114.555 210.21 114.298L193.734 105.636L177.257 114.298C176.781 114.555 176.304 114.737 175.791 114.737C174.727 114.737 174.25 113.859 174.25 112.903C174.25 112.646 174.288 112.426 174.318 112.169L177.477 93.8181L164.119 80.8316C163.679 80.3519 163.203 79.7269 163.203 79.0715C163.203 77.9667 164.342 77.5276 165.257 77.3789L183.683 74.7032L191.936 58.0073C192.267 57.308 192.889 56.5039 193.734 56.5039C194.578 56.5039 195.2 57.308 195.531 58.0073L203.788 74.7032L222.21 77.3789C223.088 77.5276 224.264 77.9667 224.264 79.0715C224.264 79.7269 223.788 80.3519 223.311 80.8316Z" fill="white"/>
<path d="M223.311 320.024L209.99 333.013L213.146 351.361C213.18 351.618 213.18 351.838 213.18 352.094C213.18 353.054 212.74 353.929 211.676 353.929C211.163 353.929 210.649 353.747 210.21 353.49L193.734 344.831L177.257 353.49C176.781 353.747 176.304 353.929 175.791 353.929C174.727 353.929 174.25 353.054 174.25 352.094C174.25 351.838 174.288 351.618 174.318 351.361L177.477 333.013L164.119 320.024C163.679 319.547 163.203 318.922 163.203 318.263C163.203 317.162 164.342 316.723 165.257 316.571L183.683 313.899L191.936 297.203C192.267 296.5 192.889 295.699 193.734 295.699C194.578 295.699 195.2 296.5 195.531 297.203L203.788 313.899L222.21 316.571C223.088 316.723 224.264 317.162 224.264 318.263C224.264 318.922 223.788 319.547 223.311 320.024Z" fill="white"/>
<path d="M284.371 288.334L271.053 301.32L274.209 319.671C274.239 319.928 274.239 320.148 274.239 320.405C274.239 321.361 273.8 322.239 272.736 322.239C272.222 322.239 271.709 322.057 271.269 321.8L254.793 313.138L238.317 321.8C237.84 322.057 237.364 322.239 236.851 322.239C235.786 322.239 235.31 321.361 235.31 320.405C235.31 320.148 235.347 319.928 235.381 319.671L238.536 301.32L225.178 288.334C224.739 287.857 224.263 287.229 224.263 286.573C224.263 285.469 225.401 285.03 226.317 284.881L244.742 282.205L252.996 265.509C253.327 264.81 253.949 264.006 254.793 264.006C255.638 264.006 256.259 264.81 256.59 265.509L264.847 282.205L283.269 284.881C284.148 285.03 285.324 285.469 285.324 286.573C285.324 287.229 284.851 287.857 284.371 288.334Z" fill="white"/>
<path d="M284.371 112.52L271.053 125.51L274.209 143.857C274.239 144.114 274.239 144.334 274.239 144.591C274.239 145.55 273.8 146.425 272.736 146.425C272.222 146.425 271.709 146.243 271.269 145.986L254.793 137.327L238.317 145.986C237.84 146.243 237.364 146.425 236.851 146.425C235.786 146.425 235.31 145.55 235.31 144.591C235.31 144.334 235.347 144.114 235.381 143.857L238.536 125.51L225.178 112.52C224.739 112.043 224.263 111.418 224.263 110.76C224.263 109.658 225.401 109.219 226.317 109.067L244.742 106.395L252.996 89.6987C253.327 88.996 253.949 88.1953 254.793 88.1953C255.638 88.1953 256.259 88.996 256.59 89.6987L264.847 106.395L283.269 109.067C284.148 109.219 285.324 109.658 285.324 110.76C285.324 111.418 284.851 112.043 284.371 112.52Z" fill="white"/>
<path d="M162.25 288.334L148.929 301.32L152.084 319.671C152.118 319.928 152.118 320.148 152.118 320.405C152.118 321.361 151.679 322.239 150.615 322.239C150.101 322.239 149.588 322.057 149.148 321.8L132.672 313.138L116.192 321.8C115.719 322.057 115.243 322.239 114.729 322.239C113.662 322.239 113.189 321.361 113.189 320.405C113.189 320.148 113.226 319.928 113.256 319.671L116.415 301.32L103.054 288.334C102.618 287.857 102.142 287.229 102.142 286.573C102.142 285.469 103.28 285.03 104.196 284.881L122.618 282.205L130.875 265.509C131.206 264.81 131.824 264.006 132.672 264.006C133.517 264.006 134.138 264.81 134.469 265.509L142.723 282.205L161.148 284.881C162.023 285.03 163.202 285.469 163.202 286.573C163.202 287.229 162.726 287.857 162.25 288.334Z" fill="white"/>
<path d="M162.25 112.52L148.929 125.51L152.084 143.857C152.118 144.114 152.118 144.334 152.118 144.591C152.118 145.55 151.679 146.425 150.615 146.425C150.101 146.425 149.588 146.243 149.148 145.986L132.672 137.327L116.192 145.986C115.719 146.243 115.243 146.425 114.729 146.425C113.662 146.425 113.189 145.55 113.189 144.591C113.189 144.334 113.226 144.114 113.256 143.857L116.415 125.51L103.054 112.52C102.618 112.043 102.142 111.418 102.142 110.76C102.142 109.658 103.28 109.219 104.196 109.067L122.618 106.395L130.875 89.6987C131.206 88.996 131.824 88.1953 132.672 88.1953C133.517 88.1953 134.138 88.996 134.469 89.6987L142.723 106.395L161.148 109.067C162.023 109.219 163.202 109.658 163.202 110.76C163.202 111.418 162.726 112.043 162.25 112.52Z" fill="white"/>
<path d="M193.733 241.611C176.05 241.611 161.665 227.226 161.665 209.54C161.665 191.858 176.05 177.473 193.733 177.473C211.415 177.473 225.804 191.858 225.804 209.54C225.804 227.226 211.415 241.611 193.733 241.611Z" fill="white"/>
<path d="M193.733 172.537C173.297 172.537 156.729 189.105 156.729 209.54C156.729 229.976 173.297 246.544 193.733 246.544C214.169 246.544 230.736 229.976 230.736 209.54C230.736 189.105 214.169 172.537 193.733 172.537ZM193.733 182.405C200.983 182.405 207.797 185.23 212.922 190.355C218.047 195.48 220.868 202.294 220.868 209.54C220.868 216.79 218.047 223.605 212.922 228.73C207.797 233.855 200.983 236.676 193.733 236.676C186.483 236.676 179.669 233.855 174.544 228.73C169.419 223.605 166.598 216.79 166.598 209.54C166.598 202.294 169.419 195.48 174.544 190.355C179.669 185.23 186.483 182.405 193.733 182.405Z" fill="white"/>
<path d="M193.733 151.57C185.912 151.57 178.317 153.104 171.165 156.128C164.26 159.05 158.06 163.226 152.739 168.55C147.419 173.868 143.239 180.067 140.321 186.972C137.294 194.128 135.76 201.719 135.76 209.54C135.76 217.361 137.294 224.955 140.321 232.111C143.239 239.013 147.419 245.212 152.739 250.533C158.06 255.854 164.26 260.033 171.165 262.952C178.317 265.979 185.912 267.513 193.733 267.513C201.554 267.513 209.148 265.979 216.3 262.952C223.206 260.033 229.405 255.854 234.726 250.533C240.047 245.212 244.226 239.013 247.145 232.111C250.172 224.955 251.706 217.361 251.706 209.54C251.706 201.719 250.172 194.128 247.145 186.972C244.226 180.067 240.047 173.868 234.726 168.55C229.405 163.226 223.206 159.05 216.3 156.128C209.148 153.104 201.554 151.57 193.733 151.57ZM193.733 161.435C220.3 161.435 241.837 182.972 241.837 209.54C241.837 236.107 220.3 257.645 193.733 257.645C167.165 257.645 145.628 236.107 145.628 209.54C145.628 182.972 167.165 161.435 193.733 161.435Z" fill="white"/>
</svg>
