<svg width="388" height="420" viewBox="0 0 388 420" fill="none" xmlns="http://www.w3.org/2000/svg">
<path d="M95.5665 262.458C95.8426 267.223 96.8438 272.904 99.1717 279.35C103.238 290.608 113.759 297.231 113.759 297.231L113.782 297.192C115.248 298.196 116.924 298.731 118.486 298.695C120.049 298.659 121.387 298.053 122.241 296.996C122.693 296.434 122.996 295.761 123.132 295.015C123.268 294.269 123.235 293.465 123.034 292.649C122.833 291.833 122.469 291.021 121.962 290.259C121.455 289.497 120.815 288.8 120.079 288.208C119.598 287.821 119.081 287.483 118.54 287.203C116.143 285.536 109.707 280.736 106.835 275.286C100.419 263.111 97.8618 245.927 97.8618 245.927C97.8618 245.927 94.9596 251.976 95.5665 262.458Z" fill="white"/>
<path d="M65.5584 253.139C65.301 255.152 65.2382 256.268 65.2382 256.268L65.3052 256.284C64.343 264.501 68.2103 271.703 73.9599 272.4C79.5106 273.053 84.8322 267.397 86.0807 259.516C86.1237 259.291 86.1685 259.02 86.2134 258.727C86.7346 255.323 87.0784 249.117 86.4871 234.886C86.1345 228.802 86.7958 221.963 87.1281 220.239C89.8746 203.93 100.704 187.177 100.704 187.177C100.704 187.177 86.1124 196.718 76.6086 216.677C68.8459 232.981 66.3306 247.099 65.5584 253.139Z" fill="white"/>
<path d="M69.2133 191.74C65.9328 195.373 63.6077 200.569 62.7147 204.793C62.3253 206.829 62.902 209.142 64.5036 209.732C66.2304 210.365 68.2858 208.984 69.0942 206.648C69.7696 204.902 69.3655 202.514 69.6196 201.509C69.8714 198.414 72.0083 194.522 73.1257 192.744C78.0811 185.353 85.7993 185.509 85.7993 185.509C85.7993 185.509 83.1638 184.129 77.3168 186.185C73.4582 187.713 70.6837 190.208 69.2133 191.74Z" fill="white"/>
<path d="M105.525 223.095C105.676 280.08 162.479 300.725 162.479 300.725L162.503 300.652C150.962 290.704 142.399 280.411 141.904 261.779C140.675 229.711 169.994 209.694 193.372 208.518C193.372 208.518 187.764 163.858 139.96 170.283C123.861 173.87 112.138 186.342 108.243 200.427C105.696 209.383 105.506 216.097 105.525 223.095Z" fill="white"/>
<path d="M247.292 311.34C252.057 311.064 257.738 310.063 264.183 307.735C275.441 303.669 282.064 293.148 282.064 293.148L282.026 293.125C283.029 291.659 283.564 289.983 283.528 288.42C283.492 286.858 282.887 285.52 281.829 284.666C281.267 284.214 280.594 283.911 279.849 283.775C279.103 283.639 278.299 283.672 277.483 283.873C276.667 284.073 275.854 284.438 275.092 284.945C274.33 285.452 273.633 286.091 273.041 286.827C272.655 287.309 272.317 287.826 272.036 288.366C270.37 290.764 265.569 297.2 260.12 300.072C247.944 306.488 230.76 309.045 230.76 309.045C230.76 309.045 236.809 311.947 247.292 311.34Z" fill="white"/>
<path d="M237.972 341.348C239.985 341.606 241.101 341.669 241.101 341.669L241.117 341.602C249.335 342.564 256.536 338.696 257.233 332.947C257.887 327.396 252.23 322.075 244.35 320.826C244.124 320.783 243.853 320.738 243.56 320.693C240.156 320.172 233.95 319.828 219.72 320.42C213.635 320.772 206.797 320.111 205.073 319.779C188.764 317.032 172.011 306.203 172.011 306.203C172.011 306.203 181.551 320.794 201.511 330.298C217.814 338.061 231.933 340.576 237.972 341.348Z" fill="white"/>
<path d="M176.575 337.694C180.208 340.975 185.404 343.3 189.628 344.193C191.663 344.582 193.977 344.006 194.567 342.404C195.2 340.677 193.819 338.622 191.483 337.813C189.737 337.138 187.349 337.542 186.344 337.288C183.249 337.036 179.357 334.899 177.579 333.782C170.188 328.827 170.344 321.108 170.344 321.108C170.344 321.108 168.964 323.744 171.02 329.591C172.548 333.45 175.043 336.224 176.575 337.694Z" fill="white"/>
<path d="M207.942 301.369C264.927 301.217 285.571 244.414 285.571 244.414L285.499 244.391C275.55 255.932 265.258 264.495 246.626 264.989C214.557 266.219 194.541 236.899 193.365 213.521C193.365 213.521 148.705 219.129 155.129 266.933C158.717 283.032 171.188 294.756 185.274 298.65C194.23 301.198 200.944 301.388 207.942 301.369Z" fill="white"/>
<path d="M296.189 159.603C295.913 154.838 294.912 149.157 292.584 142.711C288.518 131.453 277.997 124.83 277.997 124.83L277.974 124.869C276.508 123.865 274.832 123.33 273.27 123.366C271.707 123.402 270.369 124.008 269.515 125.065C269.063 125.627 268.76 126.3 268.624 127.046C268.488 127.792 268.521 128.596 268.722 129.412C268.923 130.228 269.287 131.04 269.794 131.802C270.301 132.564 270.94 133.261 271.676 133.853C272.158 134.24 272.675 134.578 273.215 134.858C275.613 136.525 282.049 141.325 284.921 146.775C291.337 158.95 293.894 176.134 293.894 176.134C293.894 176.134 296.796 170.086 296.189 159.603Z" fill="white"/>
<path d="M326.197 168.923C326.455 166.91 326.518 165.794 326.518 165.794L326.451 165.778C327.413 157.56 323.546 150.359 317.796 149.662C312.245 149.009 306.924 154.665 305.675 162.545C305.632 162.771 305.587 163.042 305.543 163.335C305.021 166.739 304.677 172.945 305.269 187.175C305.621 193.26 304.96 200.098 304.628 201.822C301.881 218.131 291.052 234.884 291.052 234.884C291.052 234.884 305.643 225.344 315.147 205.384C322.91 189.081 325.425 174.962 326.197 168.923Z" fill="white"/>
<path d="M322.543 230.321C325.823 226.688 328.148 221.493 329.041 217.269C329.431 215.233 328.854 212.92 327.252 212.329C325.525 211.697 323.47 213.078 322.662 215.413C321.986 217.16 322.39 219.548 322.136 220.552C321.884 223.647 319.748 227.54 318.63 229.317C313.675 236.708 305.957 236.552 305.957 236.552C305.957 236.552 308.592 237.933 314.439 235.877C318.298 234.348 321.072 231.853 322.543 230.321Z" fill="white"/>
<path d="M286.231 198.966C286.08 141.981 229.277 121.337 229.277 121.337L229.253 121.409C240.794 131.358 249.357 141.65 249.851 160.282C251.081 192.351 221.762 212.367 198.383 213.543C198.383 213.543 203.992 258.204 251.796 251.779C267.895 248.191 279.618 235.72 283.513 221.634C286.06 212.679 286.25 205.965 286.231 198.966Z" fill="white"/>
<path d="M144.463 110.721C139.698 110.997 134.017 111.998 127.571 114.326C116.313 118.392 109.691 128.913 109.691 128.913L109.729 128.936C108.726 130.402 108.19 132.078 108.227 133.641C108.263 135.203 108.868 136.541 109.925 137.395C110.487 137.847 111.161 138.15 111.906 138.286C112.652 138.422 113.456 138.389 114.272 138.188C115.088 137.988 115.9 137.623 116.662 137.116C117.425 136.609 118.121 135.97 118.714 135.234C119.1 134.752 119.438 134.235 119.719 133.695C121.385 131.297 126.186 124.861 131.635 121.989C143.811 115.573 160.995 113.016 160.995 113.016C160.995 113.016 154.946 110.114 144.463 110.721Z" fill="white"/>
<path d="M153.783 80.7122C151.77 80.4548 150.654 80.392 150.654 80.392L150.638 80.459C142.42 79.4968 135.219 83.3641 134.522 89.1137C133.868 94.6644 139.525 99.986 147.405 101.234C147.631 101.278 147.902 101.322 148.195 101.367C151.599 101.888 157.805 102.232 172.035 101.641C178.12 101.288 184.958 101.95 186.682 102.282C202.991 105.028 219.744 115.857 219.744 115.857C219.744 115.857 210.204 101.266 190.244 91.7624C173.941 83.9997 159.822 81.4844 153.783 80.7122Z" fill="white"/>
<path d="M215.183 84.3666C211.549 81.0861 206.354 78.761 202.13 77.868C200.094 77.4787 197.781 78.0553 197.191 79.6569C196.558 81.3838 197.939 83.4391 200.274 84.2476C202.021 84.9229 204.409 84.5189 205.414 84.7729C208.509 85.0248 212.401 87.1616 214.179 88.279C221.57 93.2344 221.413 100.953 221.413 100.953C221.413 100.953 222.794 98.3171 220.738 92.4701C219.21 88.6115 216.715 85.8371 215.183 84.3666Z" fill="white"/>
<path d="M183.813 120.691C126.828 120.843 106.184 177.646 106.184 177.646L106.256 177.669C116.204 166.128 126.497 157.565 145.129 157.071C177.198 155.841 197.214 185.161 198.39 208.539C198.39 208.539 243.05 202.931 236.626 155.127C233.038 139.028 220.567 127.304 206.481 123.41C197.525 120.862 190.811 120.672 183.813 120.691Z" fill="white"/>
</svg>
