<svg width="388" height="420" viewBox="0 0 388 420" fill="none" xmlns="http://www.w3.org/2000/svg">
<path d="M223.31 80.8316L209.989 93.8181L213.145 112.169C213.179 112.426 213.179 112.646 213.179 112.903C213.179 113.859 212.739 114.737 211.675 114.737C211.162 114.737 210.648 114.555 210.209 114.298L193.733 105.636L177.256 114.298C176.78 114.555 176.304 114.737 175.79 114.737C174.726 114.737 174.249 113.859 174.249 112.903C174.249 112.646 174.287 112.426 174.317 112.169L177.476 93.8181L164.118 80.8316C163.679 80.3519 163.202 79.7269 163.202 79.0715C163.202 77.9667 164.341 77.5276 165.256 77.3789L183.682 74.7032L191.935 58.0073C192.266 57.308 192.888 56.5039 193.733 56.5039C194.577 56.5039 195.199 57.308 195.53 58.0073L203.787 74.7032L222.209 77.3789C223.087 77.5276 224.263 77.9667 224.263 79.0715C224.263 79.7269 223.787 80.3519 223.31 80.8316Z" fill="white"/>
<path d="M223.31 320.024L209.989 333.013L213.145 351.361C213.179 351.618 213.179 351.838 213.179 352.094C213.179 353.054 212.739 353.929 211.675 353.929C211.162 353.929 210.648 353.747 210.209 353.49L193.733 344.831L177.256 353.49C176.78 353.747 176.304 353.929 175.79 353.929C174.726 353.929 174.249 353.054 174.249 352.094C174.249 351.838 174.287 351.618 174.317 351.361L177.476 333.013L164.118 320.024C163.679 319.547 163.202 318.922 163.202 318.263C163.202 317.162 164.341 316.723 165.256 316.571L183.682 313.899L191.935 297.203C192.266 296.5 192.888 295.699 193.733 295.699C194.577 295.699 195.199 296.5 195.53 297.203L203.787 313.899L222.209 316.571C223.087 316.723 224.263 317.162 224.263 318.263C224.263 318.922 223.787 319.547 223.31 320.024Z" fill="white"/>
<path d="M193.733 173.227C173.422 173.227 156.959 189.689 156.959 210C156.959 230.311 173.422 246.774 193.733 246.774C214.043 246.774 230.506 230.311 230.506 210C230.506 189.689 214.043 173.227 193.733 173.227ZM193.733 185.483C207.253 185.483 218.25 196.483 218.25 210C218.25 223.517 207.253 234.517 193.733 234.517C180.216 234.517 169.216 223.517 169.216 210C169.216 196.483 180.216 185.483 193.733 185.483Z" fill="white"/>
<path d="M199.862 237.455H187.605V179.645H199.862V237.455Z" fill="white"/>
<path d="M193.733 152.389C185.959 152.389 178.415 153.912 171.304 156.919C164.442 159.821 158.283 163.973 152.996 169.264C147.706 174.551 143.554 180.71 140.651 187.571C137.645 194.679 136.121 202.227 136.121 210C136.121 217.774 137.645 225.321 140.651 232.429C143.554 239.291 147.706 245.449 152.996 250.737C158.283 256.027 164.442 260.179 171.304 263.081C178.415 266.088 185.959 267.612 193.733 267.612C201.506 267.612 209.054 266.088 216.162 263.081C223.023 260.179 229.182 256.027 234.469 250.737C239.76 245.449 243.912 239.291 246.814 232.429C249.82 225.321 251.344 217.774 251.344 210C251.344 202.227 249.82 194.679 246.814 187.571C243.912 180.71 239.76 174.551 234.469 169.264C229.182 163.973 223.023 159.821 216.162 156.919C209.054 153.912 201.506 152.389 193.733 152.389ZM193.733 162.196C220.135 162.196 241.54 183.598 241.54 210C241.54 236.402 220.135 257.808 193.733 257.808C167.331 257.808 145.925 236.402 145.925 210C145.925 183.598 167.331 162.196 193.733 162.196Z" fill="white"/>
</svg>
