<svg width="388" height="420" viewBox="0 0 388 420" fill="none" xmlns="http://www.w3.org/2000/svg">
<path d="M223.309 80.8316L209.988 93.8181L213.144 112.169C213.178 112.426 213.178 112.646 213.178 112.903C213.178 113.859 212.738 114.737 211.674 114.737C211.161 114.737 210.647 114.555 210.208 114.298L193.732 105.636L177.255 114.298C176.779 114.555 176.303 114.737 175.789 114.737C174.725 114.737 174.248 113.859 174.248 112.903C174.248 112.646 174.286 112.426 174.316 112.169L177.475 93.8181L164.117 80.8316C163.678 80.3519 163.201 79.7269 163.201 79.0715C163.201 77.9667 164.34 77.5276 165.255 77.3789L183.681 74.7032L191.934 58.0073C192.265 57.308 192.887 56.5039 193.732 56.5039C194.576 56.5039 195.198 57.308 195.529 58.0073L203.786 74.7032L222.208 77.3789C223.086 77.5276 224.262 77.9667 224.262 79.0715C224.262 79.7269 223.786 80.3519 223.309 80.8316Z" fill="white"/>
<path d="M337.424 204.75L324.103 217.74L327.258 236.088C327.289 236.345 327.289 236.564 327.289 236.824C327.289 237.781 326.853 238.656 325.785 238.656C325.272 238.656 324.762 238.476 324.323 238.22L307.846 229.558L291.367 238.22C290.89 238.476 290.414 238.656 289.9 238.656C288.836 238.656 288.36 237.781 288.36 236.824C288.36 236.564 288.397 236.345 288.431 236.088L291.586 217.74L278.228 204.75C277.789 204.274 277.312 203.649 277.312 202.99C277.312 201.889 278.454 201.449 279.367 201.301L297.792 198.625L306.046 181.929C306.38 181.23 306.998 180.426 307.846 180.426C308.691 180.426 309.309 181.23 309.64 181.929L317.897 198.625L336.323 201.301C337.198 201.449 338.377 201.889 338.377 202.99C338.377 203.649 337.9 204.274 337.424 204.75Z" fill="white"/>
<path d="M284.371 288.334L271.053 301.32L274.209 319.671C274.239 319.928 274.239 320.148 274.239 320.405C274.239 321.361 273.8 322.239 272.736 322.239C272.222 322.239 271.709 322.057 271.269 321.8L254.793 313.138L238.317 321.8C237.84 322.057 237.364 322.239 236.851 322.239C235.786 322.239 235.31 321.361 235.31 320.405C235.31 320.148 235.347 319.928 235.381 319.671L238.536 301.32L225.178 288.334C224.739 287.857 224.263 287.229 224.263 286.573C224.263 285.469 225.401 285.03 226.317 284.881L244.742 282.205L252.996 265.509C253.327 264.81 253.949 264.006 254.793 264.006C255.638 264.006 256.259 264.81 256.59 265.509L264.847 282.205L283.269 284.881C284.148 285.03 285.324 285.469 285.324 286.573C285.324 287.229 284.851 287.857 284.371 288.334Z" fill="white"/>
<path d="M109.198 204.75L95.877 217.74L99.0324 236.088C99.0629 236.345 99.0629 236.564 99.0629 236.824C99.0629 237.781 98.627 238.656 97.5629 238.656C97.0493 238.656 96.5358 238.476 96.0966 238.22L79.6203 229.558L63.1406 238.22C62.6642 238.476 62.1878 238.656 61.6743 238.656C60.6102 238.656 60.1338 237.781 60.1338 236.824C60.1338 236.564 60.171 236.345 60.2047 236.088L63.3601 217.74L50.002 204.75C49.5628 204.274 49.0898 203.649 49.0898 202.99C49.0898 201.889 50.2284 201.449 51.1439 201.301L69.5662 198.625L77.8196 181.929C78.154 181.23 78.7723 180.426 79.6203 180.426C80.4649 180.426 81.0865 181.23 81.4175 181.929L89.6709 198.625L108.097 201.301C108.972 201.449 110.151 201.889 110.151 202.99C110.151 203.649 109.674 204.274 109.198 204.75Z" fill="white"/>
<path d="M162.249 288.334L148.928 301.32L152.083 319.671C152.117 319.928 152.117 320.148 152.117 320.405C152.117 321.361 151.678 322.239 150.614 322.239C150.1 322.239 149.587 322.057 149.147 321.8L132.671 313.138L116.191 321.8C115.718 322.057 115.242 322.239 114.728 322.239C113.661 322.239 113.188 321.361 113.188 320.405C113.188 320.148 113.225 319.928 113.255 319.671L116.414 301.32L103.053 288.334C102.617 287.857 102.141 287.229 102.141 286.573C102.141 285.469 103.279 285.03 104.195 284.881L122.617 282.205L130.874 265.509C131.205 264.81 131.823 264.006 132.671 264.006C133.516 264.006 134.137 264.81 134.468 265.509L142.722 282.205L161.147 284.881C162.022 285.03 163.201 285.469 163.201 286.573C163.201 287.229 162.725 287.857 162.249 288.334Z" fill="white"/>
<path d="M193.732 173.227C173.421 173.227 156.958 189.689 156.958 210C156.958 230.311 173.421 246.774 193.732 246.774C214.042 246.774 230.505 230.311 230.505 210C230.505 189.689 214.042 173.227 193.732 173.227ZM193.732 185.483C207.252 185.483 218.249 196.483 218.249 210C218.249 223.517 207.252 234.517 193.732 234.517C180.215 234.517 169.215 223.517 169.215 210C169.215 196.483 180.215 185.483 193.732 185.483Z" fill="white"/>
<path d="M199.861 237.455H187.604V179.645H199.861V237.455Z" fill="white"/>
<path d="M193.732 152.389C185.958 152.389 178.414 153.912 171.303 156.919C164.441 159.821 158.282 163.973 152.995 169.264C147.705 174.551 143.553 180.71 140.651 187.571C137.644 194.679 136.12 202.227 136.12 210C136.12 217.774 137.644 225.321 140.651 232.429C143.553 239.291 147.705 245.449 152.995 250.737C158.282 256.027 164.441 260.179 171.303 263.081C178.414 266.088 185.958 267.612 193.732 267.612C201.505 267.612 209.053 266.088 216.161 263.081C223.022 260.179 229.181 256.027 234.468 250.737C239.759 245.449 243.911 239.291 246.813 232.429C249.819 225.321 251.343 217.774 251.343 210C251.343 202.227 249.819 194.679 246.813 187.571C243.911 180.71 239.759 174.551 234.468 169.264C229.181 163.973 223.022 159.821 216.161 156.919C209.053 153.912 201.505 152.389 193.732 152.389ZM193.732 162.196C220.134 162.196 241.539 183.598 241.539 210C241.539 236.402 220.134 257.808 193.732 257.808C167.33 257.808 145.924 236.402 145.924 210C145.924 183.598 167.33 162.196 193.732 162.196Z" fill="white"/>
</svg>
