<svg width="388" height="420" viewBox="0 0 388 420" fill="none" xmlns="http://www.w3.org/2000/svg">
<path d="M262.207 278.516H308.937M308.937 278.516L282.976 252.638M308.937 278.516L282.976 304.394M205.093 102.546L179.132 128.424H184.324M189.516 128.424C210.172 128.424 229.982 136.603 244.588 151.162C259.194 165.721 267.399 185.468 267.399 206.058C267.399 226.647 259.194 246.394 244.588 260.953C229.982 275.512 210.172 283.692 189.516 283.692H101.248M150.637 138.775C138.778 145.585 128.929 155.39 122.081 167.202C115.234 179.014 111.63 192.416 111.633 206.058C111.633 223.53 117.427 239.658 127.209 252.638M225.862 204.908V164.653L168.747 173.854V214.109M225.862 204.908V218.709C225.862 221.149 224.768 223.49 222.82 225.215C220.873 226.941 218.231 227.91 215.477 227.91H210.285C207.531 227.91 204.889 226.941 202.942 225.215C200.995 223.49 199.9 221.149 199.9 218.709V214.109C199.9 211.668 200.995 209.328 202.942 207.602C204.889 205.877 207.531 204.908 210.285 204.908L225.862 204.908ZM168.747 214.109V227.91C168.747 230.35 167.653 232.691 165.706 234.416C163.758 236.142 161.117 237.111 158.363 237.111H153.17C150.416 237.111 147.775 236.142 145.827 234.416C143.88 232.691 142.786 230.35 142.786 227.91V223.31C142.786 220.869 143.88 218.529 145.827 216.804C147.775 215.078 150.416 214.109 153.17 214.109L168.747 214.109Z" stroke="white" stroke-width="14.2786" stroke-linecap="round" stroke-linejoin="round"/>
</svg>
