<svg width="388" height="420" viewBox="0 0 388 420" fill="none" xmlns="http://www.w3.org/2000/svg">
<path d="M223.31 80.8316L209.989 93.8181L213.145 112.169C213.179 112.426 213.179 112.646 213.179 112.903C213.179 113.859 212.739 114.737 211.675 114.737C211.162 114.737 210.648 114.555 210.209 114.298L193.733 105.636L177.256 114.298C176.78 114.555 176.304 114.737 175.79 114.737C174.726 114.737 174.249 113.859 174.249 112.903C174.249 112.646 174.287 112.426 174.317 112.169L177.476 93.8181L164.118 80.8316C163.679 80.3519 163.202 79.7269 163.202 79.0715C163.202 77.9667 164.341 77.5276 165.256 77.3789L183.682 74.7032L191.935 58.0073C192.266 57.308 192.888 56.5039 193.733 56.5039C194.577 56.5039 195.199 57.308 195.53 58.0073L203.787 74.7032L222.209 77.3789C223.087 77.5276 224.263 77.9667 224.263 79.0715C224.263 79.7269 223.787 80.3519 223.31 80.8316Z" fill="white"/>
<path d="M223.31 320.024L209.989 333.013L213.145 351.361C213.179 351.618 213.179 351.838 213.179 352.094C213.179 353.054 212.739 353.929 211.675 353.929C211.162 353.929 210.648 353.747 210.209 353.49L193.733 344.831L177.256 353.49C176.78 353.747 176.304 353.929 175.79 353.929C174.726 353.929 174.249 353.054 174.249 352.094C174.249 351.838 174.287 351.618 174.317 351.361L177.476 333.013L164.118 320.024C163.679 319.547 163.202 318.922 163.202 318.263C163.202 317.162 164.341 316.723 165.256 316.571L183.682 313.899L191.935 297.203C192.266 296.5 192.888 295.699 193.733 295.699C194.577 295.699 195.199 296.5 195.53 297.203L203.787 313.899L222.209 316.571C223.087 316.723 224.263 317.162 224.263 318.263C224.263 318.922 223.787 319.547 223.31 320.024Z" fill="white"/>
<path d="M337.425 204.75L324.104 217.74L327.259 236.088C327.29 236.345 327.29 236.564 327.29 236.824C327.29 237.781 326.854 238.656 325.786 238.656C325.273 238.656 324.763 238.476 324.324 238.22L307.847 229.558L291.368 238.22C290.891 238.476 290.415 238.656 289.901 238.656C288.837 238.656 288.361 237.781 288.361 236.824C288.361 236.564 288.398 236.345 288.432 236.088L291.587 217.74L278.229 204.75C277.79 204.274 277.313 203.649 277.313 202.99C277.313 201.889 278.455 201.449 279.368 201.301L297.793 198.625L306.047 181.929C306.381 181.23 306.999 180.426 307.847 180.426C308.692 180.426 309.31 181.23 309.641 181.929L317.898 198.625L336.324 201.301C337.199 201.449 338.378 201.889 338.378 202.99C338.378 203.649 337.901 204.274 337.425 204.75Z" fill="white"/>
<path d="M284.372 288.334L271.054 301.32L274.21 319.671C274.24 319.928 274.24 320.148 274.24 320.405C274.24 321.361 273.801 322.239 272.737 322.239C272.223 322.239 271.71 322.057 271.27 321.8L254.794 313.138L238.318 321.8C237.841 322.057 237.365 322.239 236.852 322.239C235.787 322.239 235.311 321.361 235.311 320.405C235.311 320.148 235.348 319.928 235.382 319.671L238.537 301.32L225.179 288.334C224.74 287.857 224.264 287.229 224.264 286.573C224.264 285.469 225.402 285.03 226.318 284.881L244.743 282.205L252.997 265.509C253.328 264.81 253.949 264.006 254.794 264.006C255.639 264.006 256.26 264.81 256.591 265.509L264.848 282.205L283.27 284.881C284.149 285.03 285.324 285.469 285.324 286.573C285.324 287.229 284.852 287.857 284.372 288.334Z" fill="white"/>
<path d="M284.372 112.52L271.054 125.51L274.21 143.857C274.24 144.114 274.24 144.334 274.24 144.591C274.24 145.55 273.801 146.425 272.737 146.425C272.223 146.425 271.71 146.243 271.27 145.986L254.794 137.327L238.318 145.986C237.841 146.243 237.365 146.425 236.852 146.425C235.787 146.425 235.311 145.55 235.311 144.591C235.311 144.334 235.348 144.114 235.382 143.857L238.537 125.51L225.179 112.52C224.74 112.043 224.264 111.418 224.264 110.76C224.264 109.658 225.402 109.219 226.318 109.067L244.743 106.395L252.997 89.6987C253.328 88.996 253.949 88.1953 254.794 88.1953C255.639 88.1953 256.26 88.996 256.591 89.6987L264.848 106.395L283.27 109.067C284.149 109.219 285.324 109.658 285.324 110.76C285.324 111.418 284.852 112.043 284.372 112.52Z" fill="white"/>
<path d="M109.199 204.75L95.878 217.74L99.0334 236.088C99.0638 236.345 99.0638 236.564 99.0638 236.824C99.0638 237.781 98.628 238.656 97.5638 238.656C97.0503 238.656 96.5368 238.476 96.0976 238.22L79.6213 229.558L63.1415 238.22C62.6652 238.476 62.1888 238.656 61.6753 238.656C60.6111 238.656 60.1348 237.781 60.1348 236.824C60.1348 236.564 60.172 236.345 60.2057 236.088L63.3611 217.74L50.003 204.75C49.5638 204.274 49.0908 203.649 49.0908 202.99C49.0908 201.889 50.2293 201.449 51.1449 201.301L69.5672 198.625L77.8206 181.929C78.155 181.23 78.7733 180.426 79.6212 180.426C80.4658 180.426 81.0874 181.23 81.4185 181.929L89.6719 198.625L108.098 201.301C108.973 201.449 110.152 201.889 110.152 202.99C110.152 203.649 109.675 204.274 109.199 204.75Z" fill="white"/>
<path d="M162.25 288.334L148.929 301.32L152.084 319.671C152.118 319.928 152.118 320.148 152.118 320.405C152.118 321.361 151.679 322.239 150.615 322.239C150.101 322.239 149.588 322.057 149.148 321.8L132.672 313.138L116.192 321.8C115.719 322.057 115.243 322.239 114.729 322.239C113.662 322.239 113.189 321.361 113.189 320.405C113.189 320.148 113.226 319.928 113.256 319.671L116.415 301.32L103.054 288.334C102.618 287.857 102.142 287.229 102.142 286.573C102.142 285.469 103.28 285.03 104.196 284.881L122.618 282.205L130.875 265.509C131.206 264.81 131.824 264.006 132.672 264.006C133.517 264.006 134.138 264.81 134.469 265.509L142.723 282.205L161.148 284.881C162.023 285.03 163.202 285.469 163.202 286.573C163.202 287.229 162.726 287.857 162.25 288.334Z" fill="white"/>
<path d="M162.25 112.52L148.929 125.51L152.084 143.857C152.118 144.114 152.118 144.334 152.118 144.591C152.118 145.55 151.679 146.425 150.615 146.425C150.101 146.425 149.588 146.243 149.148 145.986L132.672 137.327L116.192 145.986C115.719 146.243 115.243 146.425 114.729 146.425C113.662 146.425 113.189 145.55 113.189 144.591C113.189 144.334 113.226 144.114 113.256 143.857L116.415 125.51L103.054 112.52C102.618 112.043 102.142 111.418 102.142 110.76C102.142 109.658 103.28 109.219 104.196 109.067L122.618 106.395L130.875 89.6987C131.206 88.996 131.824 88.1953 132.672 88.1953C133.517 88.1953 134.138 88.996 134.469 89.6987L142.723 106.395L161.148 109.067C162.023 109.219 163.202 109.658 163.202 110.76C163.202 111.418 162.726 112.043 162.25 112.52Z" fill="white"/>
<path d="M193.733 152.389C185.959 152.389 178.415 153.912 171.304 156.919C164.442 159.821 158.283 163.973 152.996 169.264C147.706 174.551 143.554 180.71 140.651 187.571C137.645 194.679 136.121 202.227 136.121 210C136.121 217.774 137.645 225.321 140.651 232.429C143.554 239.291 147.706 245.449 152.996 250.737C158.283 256.027 164.442 260.179 171.304 263.081C178.415 266.088 185.959 267.612 193.733 267.612C201.506 267.612 209.054 266.088 216.162 263.081C223.023 260.179 229.182 256.027 234.469 250.737C239.76 245.449 243.912 239.291 246.814 232.429C249.82 225.321 251.344 217.774 251.344 210C251.344 202.227 249.82 194.679 246.814 187.571C243.912 180.71 239.76 174.551 234.469 169.264C229.182 163.973 223.023 159.821 216.162 156.919C209.054 153.912 201.506 152.389 193.733 152.389ZM193.733 162.196C220.135 162.196 241.54 183.598 241.54 210C241.54 236.402 220.135 257.808 193.733 257.808C167.331 257.808 145.925 236.402 145.925 210C145.925 183.598 167.331 162.196 193.733 162.196Z" fill="white"/>
<path d="M208.135 219.192C203.057 219.192 198.942 215.077 198.942 209.999C198.942 204.922 203.057 200.807 208.135 200.807C213.213 200.807 217.331 204.922 217.331 209.999C217.331 215.077 213.213 219.192 208.135 219.192Z" fill="white"/>
<path d="M186.686 200.5C181.608 200.5 177.49 196.385 177.49 191.307C177.49 186.23 181.608 182.111 186.686 182.111C191.764 182.111 195.879 186.23 195.879 191.307C195.879 196.385 191.764 200.5 186.686 200.5Z" fill="white"/>
<path d="M186.686 237.889C181.608 237.889 177.49 233.77 177.49 228.693C177.49 223.615 181.608 219.5 186.686 219.5C191.764 219.5 195.879 223.615 195.879 228.693C195.879 233.77 191.764 237.889 186.686 237.889Z" fill="white"/>
</svg>
