<svg width="388" height="420" viewBox="0 0 388 420" fill="none" xmlns="http://www.w3.org/2000/svg">
<path d="M223.31 80.8316L209.989 93.8181L213.145 112.169C213.179 112.426 213.179 112.646 213.179 112.903C213.179 113.859 212.739 114.737 211.675 114.737C211.162 114.737 210.648 114.555 210.209 114.298L193.733 105.636L177.256 114.298C176.78 114.555 176.304 114.737 175.79 114.737C174.726 114.737 174.249 113.859 174.249 112.903C174.249 112.646 174.287 112.426 174.317 112.169L177.476 93.8181L164.118 80.8316C163.679 80.3519 163.202 79.7269 163.202 79.0715C163.202 77.9667 164.341 77.5276 165.256 77.3789L183.682 74.7032L191.935 58.0073C192.266 57.308 192.888 56.5039 193.733 56.5039C194.577 56.5039 195.199 57.308 195.53 58.0073L203.787 74.7032L222.209 77.3789C223.087 77.5276 224.263 77.9667 224.263 79.0715C224.263 79.7269 223.787 80.3519 223.31 80.8316Z" fill="white"/>
<path d="M193.733 152.389C185.959 152.389 178.415 153.912 171.304 156.919C164.442 159.821 158.283 163.973 152.996 169.264C147.706 174.551 143.554 180.71 140.651 187.571C137.645 194.679 136.121 202.227 136.121 210C136.121 217.774 137.645 225.321 140.651 232.429C143.554 239.291 147.706 245.449 152.996 250.737C158.283 256.027 164.442 260.179 171.304 263.081C178.415 266.088 185.959 267.612 193.733 267.612C201.506 267.612 209.054 266.088 216.162 263.081C223.023 260.179 229.182 256.027 234.469 250.737C239.76 245.449 243.912 239.291 246.814 232.429C249.82 225.321 251.344 217.774 251.344 210C251.344 202.227 249.82 194.679 246.814 187.571C243.912 180.71 239.76 174.551 234.469 169.264C229.182 163.973 223.023 159.821 216.162 156.919C209.054 153.912 201.506 152.389 193.733 152.389ZM193.733 162.196C220.135 162.196 241.54 183.598 241.54 210C241.54 236.402 220.135 257.808 193.733 257.808C167.331 257.808 145.925 236.402 145.925 210C145.925 183.598 167.331 162.196 193.733 162.196Z" fill="white"/>
<path d="M208.135 219.192C203.057 219.192 198.942 215.077 198.942 209.999C198.942 204.922 203.057 200.807 208.135 200.807C213.213 200.807 217.331 204.922 217.331 209.999C217.331 215.077 213.213 219.192 208.135 219.192Z" fill="white"/>
<path d="M186.686 200.5C181.608 200.5 177.49 196.385 177.49 191.307C177.49 186.23 181.608 182.111 186.686 182.111C191.764 182.111 195.879 186.23 195.879 191.307C195.879 196.385 191.764 200.5 186.686 200.5Z" fill="white"/>
<path d="M186.686 237.889C181.608 237.889 177.49 233.77 177.49 228.693C177.49 223.615 181.608 219.5 186.686 219.5C191.764 219.5 195.879 223.615 195.879 228.693C195.879 233.77 191.764 237.889 186.686 237.889Z" fill="white"/>
</svg>
