<svg width="388" height="420" viewBox="0 0 388 420" fill="none" xmlns="http://www.w3.org/2000/svg">
<path d="M223.312 80.8316L209.991 93.8181L213.147 112.169C213.18 112.426 213.181 112.646 213.181 112.903C213.181 113.859 212.741 114.737 211.677 114.737C211.164 114.737 210.65 114.555 210.211 114.298L193.735 105.636L177.258 114.298C176.782 114.555 176.305 114.737 175.792 114.737C174.728 114.737 174.251 113.859 174.251 112.903C174.251 112.646 174.289 112.426 174.319 112.169L177.478 93.8181L164.12 80.8316C163.68 80.3519 163.204 79.7269 163.204 79.0715C163.204 77.9667 164.343 77.5276 165.258 77.3789L183.684 74.7032L191.937 58.0073C192.268 57.308 192.89 56.5039 193.735 56.5039C194.579 56.5039 195.201 57.308 195.532 58.0073L203.789 74.7032L222.211 77.3789C223.089 77.5276 224.265 77.9667 224.265 79.0715C224.265 79.7269 223.789 80.3519 223.312 80.8316Z" fill="white"/>
<path d="M223.312 320.024L209.991 333.013L213.147 351.361C213.18 351.618 213.181 351.838 213.181 352.094C213.181 353.054 212.741 353.929 211.677 353.929C211.164 353.929 210.65 353.747 210.211 353.49L193.735 344.831L177.258 353.49C176.782 353.747 176.305 353.929 175.792 353.929C174.728 353.929 174.251 353.054 174.251 352.094C174.251 351.838 174.289 351.618 174.319 351.361L177.478 333.013L164.12 320.024C163.68 319.547 163.204 318.922 163.204 318.263C163.204 317.162 164.343 316.723 165.258 316.571L183.684 313.899L191.937 297.203C192.268 296.5 192.89 295.699 193.735 295.699C194.579 295.699 195.201 296.5 195.532 297.203L203.789 313.899L222.211 316.571C223.089 316.723 224.265 317.162 224.265 318.263C224.265 318.922 223.789 319.547 223.312 320.024Z" fill="white"/>
<path d="M284.372 288.334L271.054 301.32L274.21 319.671C274.24 319.928 274.24 320.148 274.24 320.405C274.24 321.361 273.801 322.239 272.737 322.239C272.223 322.239 271.71 322.057 271.27 321.8L254.794 313.138L238.318 321.8C237.841 322.057 237.365 322.239 236.852 322.239C235.787 322.239 235.311 321.361 235.311 320.405C235.311 320.148 235.348 319.928 235.382 319.671L238.537 301.32L225.179 288.334C224.74 287.857 224.264 287.229 224.264 286.573C224.264 285.469 225.402 285.03 226.318 284.881L244.743 282.205L252.997 265.509C253.328 264.81 253.949 264.006 254.794 264.006C255.639 264.006 256.26 264.81 256.591 265.509L264.848 282.205L283.27 284.881C284.149 285.03 285.324 285.469 285.324 286.573C285.324 287.229 284.852 287.857 284.372 288.334Z" fill="white"/>
<path d="M284.372 112.52L271.054 125.51L274.21 143.857C274.24 144.114 274.24 144.334 274.24 144.591C274.24 145.55 273.801 146.425 272.737 146.425C272.223 146.425 271.71 146.243 271.27 145.986L254.794 137.327L238.318 145.986C237.841 146.243 237.365 146.425 236.852 146.425C235.787 146.425 235.311 145.55 235.311 144.591C235.311 144.334 235.348 144.114 235.382 143.857L238.537 125.51L225.179 112.52C224.74 112.043 224.264 111.418 224.264 110.76C224.264 109.658 225.402 109.219 226.318 109.067L244.743 106.395L252.997 89.6987C253.328 88.996 253.949 88.1953 254.794 88.1953C255.639 88.1953 256.26 88.996 256.591 89.6987L264.848 106.395L283.27 109.067C284.149 109.219 285.324 109.658 285.324 110.76C285.324 111.418 284.852 112.043 284.372 112.52Z" fill="white"/>
<path d="M162.251 288.334L148.93 301.32L152.085 319.671C152.119 319.928 152.119 320.148 152.119 320.405C152.119 321.361 151.68 322.239 150.616 322.239C150.102 322.239 149.589 322.057 149.149 321.8L132.673 313.138L116.193 321.8C115.72 322.057 115.244 322.239 114.73 322.239C113.663 322.239 113.19 321.361 113.19 320.405C113.19 320.148 113.227 319.928 113.257 319.671L116.416 301.32L103.055 288.334C102.619 287.857 102.143 287.229 102.143 286.573C102.143 285.469 103.281 285.03 104.197 284.881L122.619 282.205L130.876 265.509C131.207 264.81 131.825 264.006 132.673 264.006C133.518 264.006 134.139 264.81 134.47 265.509L142.724 282.205L161.149 284.881C162.024 285.03 163.203 285.469 163.203 286.573C163.203 287.229 162.727 287.857 162.251 288.334Z" fill="white"/>
<path d="M162.251 112.52L148.93 125.51L152.085 143.857C152.119 144.114 152.119 144.334 152.119 144.591C152.119 145.55 151.68 146.425 150.616 146.425C150.102 146.425 149.589 146.243 149.149 145.986L132.673 137.327L116.193 145.986C115.72 146.243 115.244 146.425 114.73 146.425C113.663 146.425 113.19 145.55 113.19 144.591C113.19 144.334 113.227 144.114 113.257 143.857L116.416 125.51L103.055 112.52C102.619 112.043 102.143 111.418 102.143 110.76C102.143 109.658 103.281 109.219 104.197 109.067L122.619 106.395L130.876 89.6987C131.207 88.996 131.825 88.1953 132.673 88.1953C133.518 88.1953 134.139 88.996 134.47 89.6987L142.724 106.395L161.149 109.067C162.024 109.219 163.203 109.658 163.203 110.76C163.203 111.418 162.727 112.043 162.251 112.52Z" fill="white"/>
<path d="M193.733 247.021C190.348 247.021 187.604 244.274 187.604 240.889V179.109C187.604 175.727 190.348 172.98 193.733 172.98C197.118 172.98 199.861 175.727 199.861 179.109V240.889C199.861 244.274 197.118 247.021 193.733 247.021Z" fill="white"/>
<path d="M174.122 229.612C170.737 229.612 167.99 226.868 167.99 223.483V196.517C167.99 193.132 170.737 190.389 174.122 190.389C177.507 190.389 180.25 193.132 180.25 196.517V223.483C180.25 226.868 177.507 229.612 174.122 229.612Z" fill="white"/>
<path d="M213.344 229.612C209.959 229.612 207.216 226.868 207.216 223.483V196.517C207.216 193.132 209.959 190.389 213.344 190.389C216.729 190.389 219.476 193.132 219.476 196.517V223.483C219.476 226.868 216.729 229.612 213.344 229.612Z" fill="white"/>
<path d="M193.735 152.389C185.961 152.389 178.417 153.912 171.305 156.919C164.444 159.821 158.285 163.973 152.998 169.264C147.708 174.551 143.555 180.71 140.653 187.571C137.647 194.679 136.123 202.227 136.123 210C136.123 217.774 137.647 225.321 140.653 232.429C143.555 239.291 147.708 245.449 152.998 250.737C158.285 256.027 164.444 260.179 171.305 263.081C178.417 266.088 185.961 267.612 193.735 267.612C201.508 267.612 209.055 266.088 216.164 263.081C223.025 260.179 229.184 256.027 234.471 250.737C239.762 245.449 243.914 239.291 246.816 232.429C249.822 225.321 251.346 217.774 251.346 210C251.346 202.227 249.822 194.679 246.816 187.571C243.914 180.71 239.762 174.551 234.471 169.264C229.184 163.973 223.025 159.821 216.164 156.919C209.055 153.912 201.508 152.389 193.735 152.389ZM193.735 162.196C220.137 162.196 241.542 183.598 241.542 210C241.542 236.402 220.137 257.808 193.735 257.808C167.333 257.808 145.927 236.402 145.927 210C145.927 183.598 167.333 162.196 193.735 162.196Z" fill="white"/>
</svg>
