<svg width="388" height="420" viewBox="0 0 388 420" fill="none" xmlns="http://www.w3.org/2000/svg">
<path d="M223.313 80.8316L209.992 93.8181L213.148 112.169C213.181 112.426 213.181 112.646 213.181 112.903C213.181 113.859 212.742 114.737 211.678 114.737C211.165 114.737 210.651 114.555 210.212 114.298L193.735 105.636L177.259 114.298C176.783 114.555 176.306 114.737 175.793 114.737C174.729 114.737 174.252 113.859 174.252 112.903C174.252 112.646 174.29 112.426 174.32 112.169L177.479 93.8181L164.121 80.8316C163.681 80.3519 163.205 79.7269 163.205 79.0715C163.205 77.9667 164.344 77.5276 165.259 77.3789L183.685 74.7032L191.938 58.0073C192.269 57.308 192.891 56.5039 193.735 56.5039C194.58 56.5039 195.202 57.308 195.533 58.0073L203.79 74.7032L222.212 77.3789C223.09 77.5276 224.266 77.9667 224.266 79.0715C224.266 79.7269 223.79 80.3519 223.313 80.8316Z" fill="white"/>
<path d="M337.428 204.75L324.107 217.74L327.262 236.088C327.293 236.345 327.293 236.564 327.293 236.824C327.293 237.781 326.857 238.656 325.789 238.656C325.276 238.656 324.766 238.476 324.327 238.22L307.85 229.558L291.37 238.22C290.894 238.476 290.418 238.656 289.904 238.656C288.84 238.656 288.364 237.781 288.364 236.824C288.364 236.564 288.401 236.345 288.435 236.088L291.59 217.74L278.232 204.75C277.793 204.274 277.316 203.649 277.316 202.99C277.316 201.889 278.458 201.449 279.37 201.301L297.796 198.625L306.05 181.929C306.384 181.23 307.002 180.426 307.85 180.426C308.695 180.426 309.313 181.23 309.644 181.929L317.901 198.625L336.327 201.301C337.202 201.449 338.381 201.889 338.381 202.99C338.381 203.649 337.904 204.274 337.428 204.75Z" fill="white"/>
<path d="M284.372 288.334L271.054 301.32L274.21 319.671C274.24 319.928 274.24 320.148 274.24 320.405C274.24 321.361 273.801 322.239 272.737 322.239C272.223 322.239 271.71 322.057 271.27 321.8L254.794 313.138L238.318 321.8C237.841 322.057 237.365 322.239 236.852 322.239C235.787 322.239 235.311 321.361 235.311 320.405C235.311 320.148 235.348 319.928 235.382 319.671L238.537 301.32L225.179 288.334C224.74 287.857 224.264 287.229 224.264 286.573C224.264 285.469 225.402 285.03 226.318 284.881L244.743 282.205L252.997 265.509C253.328 264.81 253.949 264.006 254.794 264.006C255.639 264.006 256.26 264.81 256.591 265.509L264.848 282.205L283.27 284.881C284.149 285.03 285.324 285.469 285.324 286.573C285.324 287.229 284.852 287.857 284.372 288.334Z" fill="white"/>
<path d="M109.202 204.75L95.8809 217.74L99.0363 236.088C99.0668 236.345 99.0668 236.564 99.0668 236.824C99.0668 237.781 98.631 238.656 97.5668 238.656C97.0533 238.656 96.5397 238.476 96.1005 238.22L79.6242 229.558L63.1445 238.22C62.6681 238.476 62.1918 238.656 61.6782 238.656C60.6141 238.656 60.1377 237.781 60.1377 236.824C60.1377 236.564 60.1749 236.345 60.2086 236.088L63.364 217.74L50.0059 204.75C49.5667 204.274 49.0938 203.649 49.0938 202.99C49.0938 201.889 50.2323 201.449 51.1478 201.301L69.5701 198.625L77.8235 181.929C78.1579 181.23 78.7762 180.426 79.6242 180.426C80.4688 180.426 81.0904 181.23 81.4215 181.929L89.6748 198.625L108.101 201.301C108.976 201.449 110.155 201.889 110.155 202.99C110.155 203.649 109.678 204.274 109.202 204.75Z" fill="white"/>
<path d="M162.252 288.334L148.931 301.32L152.086 319.671C152.12 319.928 152.12 320.148 152.12 320.405C152.12 321.361 151.681 322.239 150.617 322.239C150.103 322.239 149.59 322.057 149.15 321.8L132.674 313.138L116.194 321.8C115.721 322.057 115.245 322.239 114.731 322.239C113.664 322.239 113.191 321.361 113.191 320.405C113.191 320.148 113.228 319.928 113.258 319.671L116.417 301.32L103.056 288.334C102.62 287.857 102.144 287.229 102.144 286.573C102.144 285.469 103.282 285.03 104.198 284.881L122.62 282.205L130.877 265.509C131.208 264.81 131.826 264.006 132.674 264.006C133.519 264.006 134.14 264.81 134.471 265.509L142.725 282.205L161.15 284.881C162.025 285.03 163.204 285.469 163.204 286.573C163.204 287.229 162.728 287.857 162.252 288.334Z" fill="white"/>
<path d="M193.734 247.021C190.349 247.021 187.605 244.274 187.605 240.889V179.109C187.605 175.727 190.349 172.98 193.734 172.98C197.119 172.98 199.862 175.727 199.862 179.109V240.889C199.862 244.274 197.119 247.021 193.734 247.021Z" fill="white"/>
<path d="M174.123 229.612C170.738 229.612 167.991 226.868 167.991 223.483V196.517C167.991 193.132 170.738 190.389 174.123 190.389C177.508 190.389 180.251 193.132 180.251 196.517V223.483C180.251 226.868 177.508 229.612 174.123 229.612Z" fill="white"/>
<path d="M213.345 229.612C209.96 229.612 207.217 226.868 207.217 223.483V196.517C207.217 193.132 209.96 190.389 213.345 190.389C216.73 190.389 219.477 193.132 219.477 196.517V223.483C219.477 226.868 216.73 229.612 213.345 229.612Z" fill="white"/>
<path d="M193.736 152.389C185.962 152.389 178.418 153.912 171.306 156.919C164.445 159.821 158.286 163.973 152.999 169.264C147.708 174.551 143.556 180.71 140.654 187.571C137.648 194.679 136.124 202.227 136.124 210C136.124 217.774 137.648 225.321 140.654 232.429C143.556 239.291 147.708 245.449 152.999 250.737C158.286 256.027 164.445 260.179 171.306 263.081C178.418 266.088 185.962 267.612 193.736 267.612C201.509 267.612 209.056 266.088 216.165 263.081C223.026 260.179 229.185 256.027 234.472 250.737C239.763 245.449 243.915 239.291 246.817 232.429C249.823 225.321 251.347 217.774 251.347 210C251.347 202.227 249.823 194.679 246.817 187.571C243.915 180.71 239.763 174.551 234.472 169.264C229.185 163.973 223.026 159.821 216.165 156.919C209.056 153.912 201.509 152.389 193.736 152.389ZM193.736 162.196C220.138 162.196 241.543 183.598 241.543 210C241.543 236.402 220.138 257.808 193.736 257.808C167.333 257.808 145.928 236.402 145.928 210C145.928 183.598 167.333 162.196 193.736 162.196Z" fill="white"/>
</svg>
