<svg width="388" height="420" viewBox="0 0 388 420" fill="none" xmlns="http://www.w3.org/2000/svg">
<path d="M223.31 80.8316L209.989 93.8181L213.145 112.169C213.179 112.426 213.179 112.646 213.179 112.903C213.179 113.859 212.739 114.737 211.675 114.737C211.162 114.737 210.648 114.555 210.209 114.298L193.733 105.636L177.256 114.298C176.78 114.555 176.304 114.737 175.79 114.737C174.726 114.737 174.249 113.859 174.249 112.903C174.249 112.646 174.287 112.426 174.317 112.169L177.476 93.8181L164.118 80.8316C163.679 80.3519 163.202 79.7269 163.202 79.0715C163.202 77.9667 164.341 77.5276 165.256 77.3789L183.682 74.7032L191.935 58.0073C192.266 57.308 192.888 56.5039 193.733 56.5039C194.577 56.5039 195.199 57.308 195.53 58.0073L203.787 74.7032L222.209 77.3789C223.087 77.5276 224.263 77.9667 224.263 79.0715C224.263 79.7269 223.787 80.3519 223.31 80.8316Z" fill="white"/>
<path d="M193.733 241.611C176.05 241.611 161.665 227.226 161.665 209.54C161.665 191.858 176.05 177.473 193.733 177.473C211.415 177.473 225.804 191.858 225.804 209.54C225.804 227.226 211.415 241.611 193.733 241.611Z" fill="white"/>
<path d="M193.733 172.537C173.297 172.537 156.729 189.105 156.729 209.54C156.729 229.976 173.297 246.544 193.733 246.544C214.169 246.544 230.736 229.976 230.736 209.54C230.736 189.105 214.169 172.537 193.733 172.537ZM193.733 182.405C200.983 182.405 207.797 185.23 212.922 190.355C218.047 195.48 220.868 202.294 220.868 209.54C220.868 216.79 218.047 223.605 212.922 228.73C207.797 233.855 200.983 236.676 193.733 236.676C186.483 236.676 179.669 233.855 174.544 228.73C169.419 223.605 166.598 216.79 166.598 209.54C166.598 202.294 169.419 195.48 174.544 190.355C179.669 185.23 186.483 182.405 193.733 182.405Z" fill="white"/>
<path d="M193.733 151.57C185.912 151.57 178.317 153.104 171.165 156.128C164.26 159.05 158.06 163.226 152.739 168.55C147.419 173.868 143.239 180.067 140.321 186.972C137.294 194.128 135.76 201.719 135.76 209.54C135.76 217.361 137.294 224.955 140.321 232.111C143.239 239.013 147.419 245.212 152.739 250.533C158.06 255.854 164.26 260.033 171.165 262.952C178.317 265.979 185.912 267.513 193.733 267.513C201.554 267.513 209.148 265.979 216.3 262.952C223.206 260.033 229.405 255.854 234.726 250.533C240.047 245.212 244.226 239.013 247.145 232.111C250.172 224.955 251.706 217.361 251.706 209.54C251.706 201.719 250.172 194.128 247.145 186.972C244.226 180.067 240.047 173.868 234.726 168.55C229.405 163.226 223.206 159.05 216.3 156.128C209.148 153.104 201.554 151.57 193.733 151.57ZM193.733 161.435C220.3 161.435 241.837 182.972 241.837 209.54C241.837 236.107 220.3 257.645 193.733 257.645C167.165 257.645 145.628 236.107 145.628 209.54C145.628 182.972 167.165 161.435 193.733 161.435Z" fill="white"/>
</svg>
