<svg width="388" height="420" viewBox="0 0 388 420" fill="none" xmlns="http://www.w3.org/2000/svg">
<path d="M223.311 320.024L209.99 333.013L213.146 351.361C213.18 351.618 213.18 351.838 213.18 352.094C213.18 353.054 212.74 353.929 211.676 353.929C211.163 353.929 210.649 353.747 210.21 353.49L193.734 344.831L177.257 353.49C176.781 353.747 176.304 353.929 175.791 353.929C174.727 353.929 174.25 353.054 174.25 352.094C174.25 351.838 174.288 351.618 174.318 351.361L177.477 333.013L164.119 320.024C163.679 319.547 163.203 318.922 163.203 318.263C163.203 317.162 164.342 316.723 165.257 316.571L183.683 313.899L191.936 297.203C192.267 296.5 192.889 295.699 193.734 295.699C194.578 295.699 195.2 296.5 195.531 297.203L203.788 313.899L222.21 316.571C223.088 316.723 224.264 317.162 224.264 318.263C224.264 318.922 223.788 319.547 223.311 320.024Z" fill="white"/>
<path d="M284.372 288.334L271.054 301.32L274.21 319.671C274.24 319.928 274.24 320.148 274.24 320.405C274.24 321.361 273.801 322.239 272.737 322.239C272.223 322.239 271.71 322.057 271.27 321.8L254.794 313.138L238.318 321.8C237.841 322.057 237.365 322.239 236.852 322.239C235.787 322.239 235.311 321.361 235.311 320.405C235.311 320.148 235.348 319.928 235.382 319.671L238.537 301.32L225.179 288.334C224.74 287.857 224.264 287.229 224.264 286.573C224.264 285.469 225.402 285.03 226.318 284.881L244.743 282.205L252.997 265.509C253.328 264.81 253.949 264.006 254.794 264.006C255.639 264.006 256.26 264.81 256.591 265.509L264.848 282.205L283.27 284.881C284.149 285.03 285.324 285.469 285.324 286.573C285.324 287.229 284.852 287.857 284.372 288.334Z" fill="white"/>
<path d="M162.251 288.334L148.93 301.32L152.085 319.671C152.119 319.928 152.119 320.148 152.119 320.405C152.119 321.361 151.68 322.239 150.616 322.239C150.102 322.239 149.589 322.057 149.149 321.8L132.673 313.138L116.193 321.8C115.72 322.057 115.244 322.239 114.73 322.239C113.663 322.239 113.19 321.361 113.19 320.405C113.19 320.148 113.227 319.928 113.257 319.671L116.416 301.32L103.055 288.334C102.619 287.857 102.143 287.229 102.143 286.573C102.143 285.469 103.281 285.03 104.197 284.881L122.619 282.205L130.876 265.509C131.207 264.81 131.825 264.006 132.673 264.006C133.518 264.006 134.139 264.81 134.47 265.509L142.724 282.205L161.149 284.881C162.024 285.03 163.203 285.469 163.203 286.573C163.203 287.229 162.727 287.857 162.251 288.334Z" fill="white"/>
<path d="M193.734 241.611C176.051 241.611 161.666 227.226 161.666 209.54C161.666 191.858 176.051 177.473 193.734 177.473C211.416 177.473 225.805 191.858 225.805 209.54C225.805 227.226 211.416 241.611 193.734 241.611Z" fill="white"/>
<path d="M193.734 172.537C173.298 172.537 156.73 189.105 156.73 209.54C156.73 229.98 173.298 246.544 193.734 246.544C214.17 246.544 230.737 229.98 230.737 209.54C230.737 189.105 214.17 172.537 193.734 172.537ZM193.734 182.405C200.984 182.405 207.798 185.23 212.923 190.355C218.048 195.48 220.869 202.294 220.869 209.54C220.869 216.79 218.048 223.605 212.923 228.73C207.798 233.855 200.984 236.679 193.734 236.679C186.484 236.679 179.67 233.855 174.545 228.73C169.42 223.605 166.599 216.79 166.599 209.54C166.599 202.294 169.42 195.48 174.545 190.355C179.67 185.23 186.484 182.405 193.734 182.405Z" fill="white"/>
<path d="M193.734 151.57C185.913 151.57 178.318 153.104 171.166 156.128C164.261 159.05 158.061 163.226 152.74 168.55C147.42 173.871 143.24 180.067 140.322 186.972C137.295 194.128 135.761 201.719 135.761 209.54C135.761 217.364 137.295 224.955 140.322 232.111C143.24 239.013 147.42 245.212 152.74 250.533C158.061 255.854 164.261 260.033 171.166 262.952C178.318 265.979 185.913 267.513 193.734 267.513C201.555 267.513 209.149 265.979 216.301 262.952C223.207 260.033 229.406 255.854 234.727 250.533C240.048 245.212 244.227 239.013 247.146 232.111C250.173 224.955 251.707 217.364 251.707 209.54C251.707 201.719 250.173 194.128 247.146 186.972C244.227 180.067 240.048 173.871 234.727 168.55C229.406 163.226 223.207 159.05 216.301 156.128C209.149 153.104 201.555 151.57 193.734 151.57ZM193.734 161.435C220.301 161.435 241.838 182.972 241.838 209.54C241.838 236.107 220.301 257.645 193.734 257.645C167.166 257.645 145.629 236.107 145.629 209.54C145.629 182.972 167.166 161.435 193.734 161.435Z" fill="white"/>
</svg>
