<svg width="388" height="420" viewBox="0 0 388 420" fill="none" xmlns="http://www.w3.org/2000/svg">
<path d="M223.312 80.8302L209.991 93.8167L213.147 112.168C213.18 112.425 213.181 112.644 213.181 112.901C213.181 113.857 212.741 114.736 211.677 114.736C211.164 114.736 210.65 114.553 210.211 114.296L193.735 105.634L177.258 114.296C176.782 114.553 176.305 114.736 175.792 114.736C174.728 114.736 174.251 113.857 174.251 112.901C174.251 112.644 174.289 112.425 174.319 112.168L177.478 93.8167L164.12 80.8302C163.68 80.3538 163.204 79.7255 163.204 79.07C163.204 77.9653 164.343 77.5295 165.258 77.3775L183.684 74.7018L191.937 58.0059C192.268 57.3065 192.89 56.5059 193.735 56.5059C194.579 56.5059 195.201 57.3065 195.532 58.0059L203.789 74.7018L222.211 77.3775C223.089 77.5295 224.265 77.9653 224.265 79.07C224.265 79.7255 223.789 80.3538 223.312 80.8302Z" fill="white"/>
<path d="M337.428 162.102L324.107 175.092L327.262 193.443C327.293 193.7 327.293 193.919 327.293 194.176C327.293 195.132 326.857 196.01 325.793 196.01C325.276 196.01 324.762 195.828 324.327 195.571L307.85 186.909L291.37 195.571C290.894 195.828 290.418 196.01 289.904 196.01C288.84 196.01 288.364 195.132 288.364 194.176C288.364 193.919 288.401 193.7 288.435 193.443L291.59 175.092L278.232 162.102C277.793 161.625 277.316 161 277.316 160.345C277.316 159.24 278.458 158.801 279.374 158.652L297.796 155.977L306.053 139.281C306.381 138.581 307.002 137.777 307.85 137.777C308.695 137.777 309.313 138.581 309.648 139.281L317.901 155.977L336.327 158.652C337.202 158.801 338.381 159.24 338.381 160.345C338.381 161 337.904 161.625 337.428 162.102Z" fill="white"/>
<path d="M284.372 288.334L271.054 301.32L274.21 319.671C274.24 319.928 274.24 320.148 274.24 320.405C274.24 321.361 273.801 322.239 272.737 322.239C272.223 322.239 271.71 322.057 271.274 321.8L254.794 313.138L238.318 321.8C237.841 322.057 237.365 322.239 236.852 322.239C235.787 322.239 235.311 321.361 235.311 320.405C235.311 320.148 235.348 319.928 235.382 319.671L238.537 301.32L225.179 288.334C224.74 287.857 224.264 287.232 224.264 286.573C224.264 285.469 225.402 285.033 226.318 284.881L244.743 282.209L252.997 265.509C253.328 264.81 253.949 264.006 254.794 264.006C255.639 264.006 256.26 264.81 256.591 265.509L264.848 282.209L283.27 284.881C284.149 285.033 285.324 285.469 285.324 286.573C285.324 287.232 284.852 287.857 284.372 288.334Z" fill="white"/>
<path d="M284.372 112.52L271.054 125.51L274.21 143.857C274.24 144.114 274.24 144.334 274.24 144.591C274.24 145.55 273.801 146.425 272.737 146.425C272.223 146.425 271.71 146.243 271.274 145.986L254.794 137.327L238.318 145.986C237.841 146.243 237.365 146.425 236.852 146.425C235.787 146.425 235.311 145.55 235.311 144.591C235.311 144.334 235.348 144.114 235.382 143.857L238.537 125.51L225.179 112.52C224.74 112.043 224.264 111.418 224.264 110.76C224.264 109.658 225.402 109.219 226.318 109.067L244.743 106.395L252.997 89.6987C253.328 88.996 253.949 88.1953 254.794 88.1953C255.639 88.1953 256.26 88.996 256.591 89.6987L264.848 106.395L283.27 109.067C284.149 109.219 285.324 109.658 285.324 110.76C285.324 111.418 284.852 112.043 284.372 112.52Z" fill="white"/>
<path d="M109.199 162.102L95.8784 175.092L99.0338 193.443C99.0677 193.7 99.0677 193.919 99.0677 194.176C99.0677 195.132 98.6285 196.01 97.5643 196.01C97.0508 196.01 96.5373 195.828 96.0981 195.571L79.6217 186.909L63.142 195.571C62.6656 195.828 62.1893 196.01 61.6758 196.01C60.6116 196.01 60.1352 195.132 60.1352 194.176C60.1352 193.919 60.1724 193.7 60.2061 193.443L63.3615 175.092L50.0034 162.102C49.5642 161.625 49.0879 161 49.0879 160.345C49.0879 159.24 50.2298 158.801 51.1419 158.652L69.5676 155.977L77.8244 139.281C78.1555 138.581 78.7737 137.777 79.6217 137.777C80.4663 137.777 81.0845 138.581 81.419 139.281L89.6724 155.977L108.098 158.652C108.973 158.801 110.152 159.24 110.152 160.345C110.152 161 109.676 161.625 109.199 162.102Z" fill="white"/>
<path d="M337.428 238.75L324.107 251.74L327.262 270.088C327.293 270.345 327.293 270.564 327.293 270.821C327.293 271.781 326.857 272.656 325.793 272.656C325.276 272.656 324.762 272.473 324.327 272.216L307.85 263.558L291.37 272.216C290.894 272.473 290.418 272.656 289.904 272.656C288.84 272.656 288.364 271.781 288.364 270.821C288.364 270.564 288.401 270.345 288.435 270.088L291.59 251.74L278.232 238.75C277.793 238.274 277.316 237.649 277.316 236.99C277.316 235.889 278.458 235.449 279.374 235.301L297.796 232.625L306.053 215.929C306.381 215.226 307.002 214.426 307.85 214.426C308.695 214.426 309.313 215.226 309.648 215.929L317.901 232.625L336.327 235.301C337.202 235.449 338.381 235.889 338.381 236.99C338.381 237.649 337.904 238.274 337.428 238.75Z" fill="white"/>
<path d="M109.199 238.75L95.8784 251.74L99.0338 270.088C99.0677 270.345 99.0677 270.564 99.0677 270.821C99.0677 271.781 98.6285 272.656 97.5643 272.656C97.0508 272.656 96.5373 272.473 96.0981 272.216L79.6217 263.558L63.142 272.216C62.6656 272.473 62.1893 272.656 61.6758 272.656C60.6116 272.656 60.1352 271.781 60.1352 270.821C60.1352 270.564 60.1724 270.345 60.2061 270.088L63.3615 251.74L50.0034 238.75C49.5642 238.274 49.0879 237.649 49.0879 236.99C49.0879 235.889 50.2298 235.449 51.1419 235.301L69.5676 232.625L77.8244 215.929C78.1555 215.226 78.7737 214.426 79.6217 214.426C80.4663 214.426 81.0845 215.226 81.419 215.929L89.6724 232.625L108.098 235.301C108.973 235.449 110.152 235.889 110.152 236.99C110.152 237.649 109.676 238.274 109.199 238.75Z" fill="white"/>
<path d="M162.251 288.334L148.93 301.32L152.085 319.671C152.119 319.928 152.119 320.148 152.119 320.405C152.119 321.361 151.68 322.239 150.616 322.239C150.102 322.239 149.589 322.057 149.149 321.8L132.673 313.138L116.193 321.8C115.72 322.057 115.244 322.239 114.73 322.239C113.663 322.239 113.19 321.361 113.19 320.405C113.19 320.148 113.227 319.928 113.257 319.671L116.416 301.32L103.055 288.334C102.619 287.857 102.143 287.232 102.143 286.573C102.143 285.469 103.281 285.033 104.197 284.881L122.619 282.209L130.876 265.509C131.207 264.81 131.828 264.006 132.673 264.006C133.518 264.006 134.139 264.81 134.47 265.509L142.724 282.209L161.149 284.881C162.024 285.033 163.203 285.469 163.203 286.573C163.203 287.232 162.727 287.857 162.251 288.334Z" fill="white"/>
<path d="M162.251 112.52L148.93 125.51L152.085 143.857C152.119 144.114 152.119 144.334 152.119 144.591C152.119 145.55 151.68 146.425 150.616 146.425C150.102 146.425 149.589 146.243 149.149 145.986L132.673 137.327L116.193 145.986C115.72 146.243 115.244 146.425 114.73 146.425C113.663 146.425 113.19 145.55 113.19 144.591C113.19 144.334 113.227 144.114 113.257 143.857L116.416 125.51L103.055 112.52C102.619 112.043 102.143 111.418 102.143 110.76C102.143 109.658 103.281 109.219 104.197 109.067L122.619 106.395L130.876 89.6987C131.207 88.996 131.828 88.1953 132.673 88.1953C133.518 88.1953 134.139 88.996 134.47 89.6987L142.724 106.395L161.149 109.067C162.024 109.219 163.203 109.658 163.203 110.76C163.203 111.418 162.727 112.043 162.251 112.52Z" fill="white"/>
<path d="M193.734 241.611C176.051 241.611 161.666 227.226 161.666 209.54C161.666 191.858 176.051 177.473 193.734 177.473C211.416 177.473 225.805 191.858 225.805 209.54C225.805 227.226 211.416 241.611 193.734 241.611Z" fill="white"/>
<path d="M193.734 172.537C173.298 172.537 156.73 189.105 156.73 209.54C156.73 229.98 173.298 246.544 193.734 246.544C214.17 246.544 230.737 229.98 230.737 209.54C230.737 189.105 214.17 172.537 193.734 172.537ZM193.734 182.405C200.984 182.405 207.798 185.23 212.923 190.355C218.048 195.48 220.869 202.294 220.869 209.54C220.869 216.79 218.048 223.605 212.923 228.73C207.798 233.855 200.984 236.679 193.734 236.679C186.484 236.679 179.67 233.855 174.545 228.73C169.42 223.605 166.599 216.79 166.599 209.54C166.599 202.294 169.42 195.48 174.545 190.355C179.67 185.23 186.484 182.405 193.734 182.405Z" fill="white"/>
<path d="M193.734 151.57C185.913 151.57 178.318 153.104 171.166 156.128C164.261 159.05 158.061 163.226 152.74 168.55C147.42 173.871 143.24 180.067 140.322 186.972C137.295 194.128 135.761 201.719 135.761 209.54C135.761 217.364 137.295 224.955 140.322 232.111C143.24 239.013 147.42 245.212 152.74 250.533C158.061 255.854 164.261 260.033 171.166 262.952C178.318 265.979 185.913 267.513 193.734 267.513C201.555 267.513 209.149 265.979 216.301 262.952C223.207 260.033 229.406 255.854 234.727 250.533C240.048 245.212 244.227 239.013 247.146 232.111C250.173 224.955 251.707 217.364 251.707 209.54C251.707 201.719 250.173 194.128 247.146 186.972C244.227 180.067 240.048 173.871 234.727 168.55C229.406 163.226 223.207 159.05 216.301 156.128C209.149 153.104 201.555 151.57 193.734 151.57ZM193.734 161.435C220.301 161.435 241.838 182.972 241.838 209.54C241.838 236.107 220.301 257.645 193.734 257.645C167.166 257.645 145.629 236.107 145.629 209.54C145.629 182.972 167.166 161.435 193.734 161.435Z" fill="white"/>
</svg>
