<svg width="388" height="420" viewBox="0 0 388 420" fill="none" xmlns="http://www.w3.org/2000/svg">
<path d="M154.66 174.02C162.545 174.02 165.139 178.587 162.234 184.918L131.828 245.628H109.72L132.761 199.756C134.007 197.06 135.771 194.465 138.16 191.766H107.855L109.203 174.02H154.66Z" fill="white"/>
<path d="M187.348 190.104L185.484 198.303L194.095 199.344C212.362 201.834 214.747 213.661 213.501 222.07C211.531 235.665 203.852 245.837 182.68 246.874C174.896 247.286 166.696 246.148 158.085 245.006L160.886 228.297C167.838 228.918 173.859 229.229 178.632 228.918C186.105 228.503 190.257 226.844 191.399 220.618C192.125 216.675 189.943 216.05 183.406 215.219L171.784 213.455C167.426 212.834 164.727 209.303 165.558 205.155L171.68 174.02H217.653L214.747 190.104H187.348Z" fill="white"/>
<path d="M243.599 209.616C241.214 228.298 241.835 230.372 248.997 230.372C256.47 230.372 257.923 228.298 260.102 210.031C262.386 191.352 261.66 189.278 254.808 189.278C247.44 189.278 245.987 191.352 243.599 209.616ZM282.207 210.656C278.261 238.676 270.17 247.082 247.855 247.082C226.683 247.082 217.45 237.845 221.494 208.994C225.44 180.974 233.95 172.568 255.845 172.568C278.16 172.568 286.254 181.805 282.207 210.656Z" fill="white"/>
</svg>
