<svg width="388" height="420" viewBox="0 0 388 420" fill="none" xmlns="http://www.w3.org/2000/svg">
<path d="M223.311 80.8316L209.99 93.8181L213.146 112.169C213.18 112.426 213.18 112.646 213.18 112.903C213.18 113.859 212.74 114.737 211.676 114.737C211.163 114.737 210.649 114.555 210.21 114.298L193.734 105.636L177.257 114.298C176.781 114.555 176.304 114.737 175.791 114.737C174.727 114.737 174.25 113.859 174.25 112.903C174.25 112.646 174.288 112.426 174.318 112.169L177.477 93.8181L164.119 80.8316C163.679 80.3519 163.203 79.7269 163.203 79.0715C163.203 77.9667 164.342 77.5276 165.257 77.3789L183.683 74.7032L191.936 58.0073C192.267 57.308 192.889 56.5039 193.734 56.5039C194.578 56.5039 195.2 57.308 195.531 58.0073L203.788 74.7032L222.21 77.3789C223.088 77.5276 224.264 77.9667 224.264 79.0715C224.264 79.7269 223.788 80.3519 223.311 80.8316Z" fill="white"/>
<path d="M223.311 320.024L209.99 333.013L213.146 351.361C213.18 351.618 213.18 351.838 213.18 352.094C213.18 353.054 212.74 353.929 211.676 353.929C211.163 353.929 210.649 353.747 210.21 353.49L193.734 344.831L177.257 353.49C176.781 353.747 176.304 353.929 175.791 353.929C174.727 353.929 174.25 353.054 174.25 352.094C174.25 351.838 174.288 351.618 174.318 351.361L177.477 333.013L164.119 320.024C163.679 319.547 163.203 318.922 163.203 318.263C163.203 317.162 164.342 316.723 165.257 316.571L183.683 313.899L191.936 297.203C192.267 296.5 192.889 295.699 193.734 295.699C194.578 295.699 195.2 296.5 195.531 297.203L203.788 313.899L222.21 316.571C223.088 316.723 224.264 317.162 224.264 318.263C224.264 318.922 223.788 319.547 223.311 320.024Z" fill="white"/>
<path d="M337.426 204.75L324.105 217.74L327.26 236.088C327.291 236.345 327.291 236.564 327.291 236.824C327.291 237.781 326.855 238.656 325.787 238.656C325.274 238.656 324.764 238.476 324.325 238.22L307.848 229.558L291.369 238.22C290.892 238.476 290.416 238.656 289.902 238.656C288.838 238.656 288.362 237.781 288.362 236.824C288.362 236.564 288.399 236.345 288.433 236.088L291.588 217.74L278.23 204.75C277.791 204.274 277.314 203.649 277.314 202.99C277.314 201.889 278.456 201.449 279.369 201.301L297.794 198.625L306.048 181.929C306.382 181.23 307 180.426 307.848 180.426C308.693 180.426 309.311 181.23 309.642 181.929L317.899 198.625L336.325 201.301C337.2 201.449 338.379 201.889 338.379 202.99C338.379 203.649 337.902 204.274 337.426 204.75Z" fill="white"/>
<path d="M284.372 288.334L271.054 301.32L274.21 319.671C274.24 319.928 274.24 320.148 274.24 320.405C274.24 321.361 273.801 322.239 272.737 322.239C272.223 322.239 271.71 322.057 271.27 321.8L254.794 313.138L238.318 321.8C237.841 322.057 237.365 322.239 236.852 322.239C235.787 322.239 235.311 321.361 235.311 320.405C235.311 320.148 235.348 319.928 235.382 319.671L238.537 301.32L225.179 288.334C224.74 287.857 224.264 287.229 224.264 286.573C224.264 285.469 225.402 285.03 226.318 284.881L244.743 282.205L252.997 265.509C253.328 264.81 253.949 264.006 254.794 264.006C255.639 264.006 256.26 264.81 256.591 265.509L264.848 282.205L283.27 284.881C284.149 285.03 285.324 285.469 285.324 286.573C285.324 287.229 284.852 287.857 284.372 288.334Z" fill="white"/>
<path d="M284.372 112.52L271.054 125.51L274.21 143.857C274.24 144.114 274.24 144.334 274.24 144.591C274.24 145.55 273.801 146.425 272.737 146.425C272.223 146.425 271.71 146.243 271.27 145.986L254.794 137.327L238.318 145.986C237.841 146.243 237.365 146.425 236.852 146.425C235.787 146.425 235.311 145.55 235.311 144.591C235.311 144.334 235.348 144.114 235.382 143.857L238.537 125.51L225.179 112.52C224.74 112.043 224.264 111.418 224.264 110.76C224.264 109.658 225.402 109.219 226.318 109.067L244.743 106.395L252.997 89.6987C253.328 88.996 253.949 88.1953 254.794 88.1953C255.639 88.1953 256.26 88.996 256.591 89.6987L264.848 106.395L283.27 109.067C284.149 109.219 285.324 109.658 285.324 110.76C285.324 111.418 284.852 112.043 284.372 112.52Z" fill="white"/>
<path d="M109.2 204.75L95.879 217.74L99.0344 236.088C99.0648 236.345 99.0648 236.564 99.0648 236.824C99.0648 237.781 98.629 238.656 97.5648 238.656C97.0513 238.656 96.5378 238.476 96.0986 238.22L79.6222 229.558L63.1425 238.22C62.6662 238.476 62.1898 238.656 61.6763 238.656C60.6121 238.656 60.1357 237.781 60.1357 236.824C60.1357 236.564 60.1729 236.345 60.2067 236.088L63.3621 217.74L50.004 204.75C49.5648 204.274 49.0918 203.649 49.0918 202.99C49.0918 201.889 50.2303 201.449 51.1459 201.301L69.5681 198.625L77.8215 181.929C78.156 181.23 78.7742 180.426 79.6222 180.426C80.4668 180.426 81.0884 181.23 81.4195 181.929L89.6729 198.625L108.099 201.301C108.974 201.449 110.153 201.889 110.153 202.99C110.153 203.649 109.676 204.274 109.2 204.75Z" fill="white"/>
<path d="M162.251 288.334L148.93 301.32L152.085 319.671C152.119 319.928 152.119 320.148 152.119 320.405C152.119 321.361 151.68 322.239 150.616 322.239C150.102 322.239 149.589 322.057 149.149 321.8L132.673 313.138L116.193 321.8C115.72 322.057 115.244 322.239 114.73 322.239C113.663 322.239 113.19 321.361 113.19 320.405C113.19 320.148 113.227 319.928 113.257 319.671L116.416 301.32L103.055 288.334C102.619 287.857 102.143 287.229 102.143 286.573C102.143 285.469 103.281 285.03 104.197 284.881L122.619 282.205L130.876 265.509C131.207 264.81 131.825 264.006 132.673 264.006C133.518 264.006 134.139 264.81 134.47 265.509L142.724 282.205L161.149 284.881C162.024 285.03 163.203 285.469 163.203 286.573C163.203 287.229 162.727 287.857 162.251 288.334Z" fill="white"/>
<path d="M162.251 112.52L148.93 125.51L152.085 143.857C152.119 144.114 152.119 144.334 152.119 144.591C152.119 145.55 151.68 146.425 150.616 146.425C150.102 146.425 149.589 146.243 149.149 145.986L132.673 137.327L116.193 145.986C115.72 146.243 115.244 146.425 114.73 146.425C113.663 146.425 113.19 145.55 113.19 144.591C113.19 144.334 113.227 144.114 113.257 143.857L116.416 125.51L103.055 112.52C102.619 112.043 102.143 111.418 102.143 110.76C102.143 109.658 103.281 109.219 104.197 109.067L122.619 106.395L130.876 89.6987C131.207 88.996 131.825 88.1953 132.673 88.1953C133.518 88.1953 134.139 88.996 134.47 89.6987L142.724 106.395L161.149 109.067C162.024 109.219 163.203 109.658 163.203 110.76C163.203 111.418 162.727 112.043 162.251 112.52Z" fill="white"/>
<path d="M193.734 241.611C176.051 241.611 161.666 227.226 161.666 209.54C161.666 191.858 176.051 177.473 193.734 177.473C211.416 177.473 225.805 191.858 225.805 209.54C225.805 227.226 211.416 241.611 193.734 241.611Z" fill="white"/>
<path d="M193.734 172.537C173.298 172.537 156.73 189.105 156.73 209.54C156.73 229.976 173.298 246.544 193.734 246.544C214.17 246.544 230.737 229.976 230.737 209.54C230.737 189.105 214.17 172.537 193.734 172.537ZM193.734 182.405C200.984 182.405 207.798 185.23 212.923 190.355C218.048 195.48 220.869 202.294 220.869 209.54C220.869 216.79 218.048 223.605 212.923 228.73C207.798 233.855 200.984 236.676 193.734 236.676C186.484 236.676 179.67 233.855 174.545 228.73C169.42 223.605 166.599 216.79 166.599 209.54C166.599 202.294 169.42 195.48 174.545 190.355C179.67 185.23 186.484 182.405 193.734 182.405Z" fill="white"/>
<path d="M193.734 151.57C185.913 151.57 178.318 153.104 171.166 156.128C164.261 159.05 158.061 163.226 152.74 168.55C147.42 173.868 143.24 180.067 140.322 186.972C137.295 194.128 135.761 201.719 135.761 209.54C135.761 217.361 137.295 224.955 140.322 232.111C143.24 239.013 147.42 245.212 152.74 250.533C158.061 255.854 164.261 260.033 171.166 262.952C178.318 265.979 185.913 267.513 193.734 267.513C201.555 267.513 209.149 265.979 216.301 262.952C223.207 260.033 229.406 255.854 234.727 250.533C240.048 245.212 244.227 239.013 247.146 232.111C250.173 224.955 251.707 217.361 251.707 209.54C251.707 201.719 250.173 194.128 247.146 186.972C244.227 180.067 240.048 173.868 234.727 168.55C229.406 163.226 223.207 159.05 216.301 156.128C209.149 153.104 201.555 151.57 193.734 151.57ZM193.734 161.435C220.301 161.435 241.838 182.972 241.838 209.54C241.838 236.107 220.301 257.645 193.734 257.645C167.166 257.645 145.629 236.107 145.629 209.54C145.629 182.972 167.166 161.435 193.734 161.435Z" fill="white"/>
</svg>
