<svg width="388" height="420" viewBox="0 0 388 420" fill="none" xmlns="http://www.w3.org/2000/svg">
<path d="M245.905 217.406L172.659 260.494C171.314 261.301 169.831 261.707 168.351 261.707C166.868 261.707 165.389 261.301 164.044 260.629C161.348 259.011 159.733 256.186 159.733 253.088V166.913C159.733 163.815 161.348 160.99 164.044 159.372C166.733 157.892 170.101 157.892 172.659 159.507L245.905 202.595C248.601 204.075 250.216 206.903 250.216 210.001C250.216 213.099 248.601 215.926 245.905 217.406ZM194.203 136.751C153.811 136.751 120.956 169.605 120.956 210.001C120.956 250.396 153.811 283.251 194.203 283.251C234.598 283.251 267.449 250.396 267.449 210.001C267.449 169.605 234.598 136.751 194.203 136.751ZM194.203 313.409C137.112 313.409 90.7939 267.092 90.7939 210.001C90.7939 152.909 137.112 106.592 194.203 106.592C251.294 106.592 297.612 152.909 297.612 210.001C297.612 267.092 251.294 313.409 194.203 313.409Z" fill="white"/>
</svg>
