<svg width="388" height="420" viewBox="0 0 388 420" fill="none" xmlns="http://www.w3.org/2000/svg">
<path d="M223.311 80.8316L209.99 93.8181L213.146 112.169C213.18 112.426 213.18 112.646 213.18 112.903C213.18 113.859 212.74 114.737 211.676 114.737C211.163 114.737 210.649 114.555 210.21 114.298L193.734 105.636L177.257 114.298C176.781 114.555 176.304 114.737 175.791 114.737C174.727 114.737 174.25 113.859 174.25 112.903C174.25 112.646 174.288 112.426 174.318 112.169L177.477 93.8181L164.119 80.8316C163.679 80.3519 163.203 79.7269 163.203 79.0715C163.203 77.9667 164.342 77.5276 165.257 77.3789L183.683 74.7032L191.936 58.0073C192.267 57.308 192.889 56.5039 193.734 56.5039C194.578 56.5039 195.2 57.308 195.531 58.0073L203.788 74.7032L222.21 77.3789C223.088 77.5276 224.264 77.9667 224.264 79.0715C224.264 79.7269 223.788 80.3519 223.311 80.8316Z" fill="white"/>
<path d="M223.311 320.024L209.99 333.013L213.146 351.361C213.18 351.618 213.18 351.838 213.18 352.094C213.18 353.054 212.74 353.929 211.676 353.929C211.163 353.929 210.649 353.747 210.21 353.49L193.734 344.831L177.257 353.49C176.781 353.747 176.304 353.929 175.791 353.929C174.727 353.929 174.25 353.054 174.25 352.094C174.25 351.838 174.288 351.618 174.318 351.361L177.477 333.013L164.119 320.024C163.679 319.547 163.203 318.922 163.203 318.263C163.203 317.162 164.342 316.723 165.257 316.571L183.683 313.899L191.936 297.203C192.267 296.5 192.889 295.699 193.734 295.699C194.578 295.699 195.2 296.5 195.531 297.203L203.788 313.899L222.21 316.571C223.088 316.723 224.264 317.162 224.264 318.263C224.264 318.922 223.788 319.547 223.311 320.024Z" fill="white"/>
<path d="M193.734 173.227C173.423 173.227 156.96 189.689 156.96 210C156.96 230.311 173.423 246.774 193.734 246.774C214.044 246.774 230.507 230.311 230.507 210C230.507 189.689 214.044 173.227 193.734 173.227ZM193.734 185.483C207.254 185.483 218.251 196.483 218.251 210C218.251 223.517 207.254 234.517 193.734 234.517C180.217 234.517 169.217 223.517 169.217 210C169.217 196.483 180.217 185.483 193.734 185.483Z" fill="white"/>
<path d="M199.863 237.455H187.606V179.645H199.863V237.455Z" fill="white"/>
<path d="M193.734 152.389C185.96 152.389 178.416 153.912 171.305 156.919C164.443 159.821 158.284 163.973 152.997 169.264C147.707 174.551 143.555 180.71 140.652 187.571C137.646 194.679 136.122 202.227 136.122 210C136.122 217.774 137.646 225.321 140.652 232.429C143.555 239.291 147.707 245.449 152.997 250.737C158.284 256.027 164.443 260.179 171.305 263.081C178.416 266.088 185.96 267.612 193.734 267.612C201.507 267.612 209.055 266.088 216.163 263.081C223.024 260.179 229.183 256.027 234.47 250.737C239.761 245.449 243.913 239.291 246.815 232.429C249.821 225.321 251.345 217.774 251.345 210C251.345 202.227 249.821 194.679 246.815 187.571C243.913 180.71 239.761 174.551 234.47 169.264C229.183 163.973 223.024 159.821 216.163 156.919C209.055 153.912 201.507 152.389 193.734 152.389ZM193.734 162.196C220.136 162.196 241.541 183.598 241.541 210C241.541 236.402 220.136 257.808 193.734 257.808C167.332 257.808 145.926 236.402 145.926 210C145.926 183.598 167.332 162.196 193.734 162.196Z" fill="white"/>
</svg>
