<svg width="388" height="420" viewBox="0 0 388 420" fill="none" xmlns="http://www.w3.org/2000/svg">
<path d="M193.733 106.213C136.416 106.213 89.9463 152.682 89.9463 210C89.9463 267.318 136.416 313.787 193.733 313.787C251.051 313.787 297.521 267.318 297.521 210C297.521 152.682 251.051 106.213 193.733 106.213ZM193.733 149.456C227.119 149.456 254.277 176.618 254.277 210C254.277 243.385 227.119 270.544 193.733 270.544C160.352 270.544 133.19 243.385 133.19 210C133.19 176.618 160.352 149.456 193.733 149.456Z" fill="white"/>
<path d="M211.031 287.494H176.437V124.332H211.031V287.494Z" fill="white"/>
</svg>
